<svg width="41" height="38" viewBox="0 0 41 38" fill="none" xmlns="http://www.w3.org/2000/svg">
<path fill-rule="evenodd" clip-rule="evenodd" d="M2.51906 0.120239H38.6912C39.9418 0.120239 40.9519 1.17847 41 2.4291V28.7885C41 30.0873 39.9418 31.0974 38.6912 31.0974H28.157L21.9038 37.3506C21.519 37.6873 21.1342 37.8797 20.6051 37.8797C20.076 37.8797 19.6431 37.6873 19.3064 37.3506L13.0532 31.0974H2.51906C1.22033 31.0974 0.210205 30.0392 0.210205 28.7885V2.4291C0.210205 1.13036 1.26843 0.120239 2.51906 0.120239ZM30.8026 9.45193H10.4558C9.68613 9.45193 9.10892 8.87471 9.10892 8.10509C9.10892 7.33547 9.73423 6.75826 10.4558 6.75826H30.8026C31.5722 6.75826 32.1494 7.33547 32.1494 8.10509C32.1494 8.87471 31.5241 9.45193 30.8026 9.45193ZM10.4558 16.9076H30.8026C31.5241 16.9076 32.1494 16.3303 32.1494 15.5607C32.1494 14.7911 31.5722 14.2139 30.8026 14.2139H10.4558C9.73423 14.2139 9.10892 14.7911 9.10892 15.5607C9.10892 16.3303 9.68613 16.9076 10.4558 16.9076ZM24.5494 24.3633H10.4558C9.68613 24.3633 9.10892 23.7861 9.10892 23.0165C9.10892 22.2469 9.73423 21.6697 10.4558 21.6697H24.5494C25.319 21.6697 25.8962 22.2469 25.8962 23.0165C25.8962 23.7861 25.2709 24.3633 24.5494 24.3633Z" fill="#9B33ED"/>
</svg>
