<svg width="30" height="50" viewBox="0 0 30 50" fill="none" xmlns="http://www.w3.org/2000/svg">
<path d="M29.4 21.6272C29.4 18.3831 28.3187 15.3965 26.5679 13.0278V2.11123C26.5679 0.926879 25.6925 0 24.4567 0H5.30115C4.1168 0 3.18992 0.875386 3.18992 2.11123V13.0278C1.38765 15.448 0.357788 18.4346 0.357788 21.6272C0.357788 24.8713 1.43915 27.8579 3.18992 30.2266V47.8888C3.18992 48.6612 3.60187 49.3306 4.21979 49.7425C4.52875 49.9485 4.8892 50 5.24965 50C5.61011 50 5.97056 49.897 6.27952 49.691L14.8789 44.9022L23.3753 49.7425L23.5298 49.794C24.1992 50.103 24.9716 50.0515 25.5895 49.6395C26.1559 49.2791 26.5164 48.6097 26.5164 47.8888V30.2266C28.3187 27.8064 29.4 24.8713 29.4 21.6272ZM14.8789 9.93821C21.3156 9.93821 26.5679 15.1905 26.5679 21.6272C26.5679 28.0639 21.3156 33.2647 14.8789 33.2647C8.44224 33.2647 3.18992 28.0124 3.18992 21.5757C3.18992 15.139 8.44224 9.93821 14.8789 9.93821Z" fill="#F41E3D"/>
<circle cx="15" cy="22" r="13.5" fill="#BDC3C7" stroke="#95A5A6" stroke-width="3"/>
<path d="M15.4968 13.9547L17.0416 18.7435H22.088C22.7574 18.7435 23.0149 19.5674 22.4999 19.9794L18.4319 22.966L19.9767 27.7549C20.1827 28.3728 19.4618 28.8877 18.9469 28.5273L14.8789 25.5406L10.8109 28.5273C10.296 28.8877 9.5751 28.3728 9.78107 27.7549L11.3259 22.966L7.2579 19.9794C6.74297 19.6189 7.00043 18.7435 7.66985 18.7435H12.7162L14.261 13.9547C14.4155 13.3367 15.3424 13.3367 15.4968 13.9547Z" fill="#F1C40F"/>
</svg>
