<svg width="44" height="40" viewBox="0 0 44 40" fill="none" xmlns="http://www.w3.org/2000/svg">
<path d="M38.7287 30.42C36.5494 30.42 34.6879 31.9183 34.143 33.9614H31.555V26.0613C31.555 26.0159 31.555 25.9705 31.555 25.9705C36.3678 24.8808 40 20.6129 40 15.437C40 12.7582 39.0011 10.1703 37.185 8.17253C37.1396 8.08173 37.0488 8.03632 36.958 7.99092C35.4143 6.35641 33.3712 5.26674 31.1464 4.90352C29.9205 2.90579 28.059 1.40749 25.8343 0.590238C25.8343 0.590238 25.8343 0.590238 25.7889 0.590238C24.6992 0.181612 23.6095 0 22.3837 0C16.8445 0 12.3042 4.35868 12.0318 9.80704C7.94552 10.2611 4.76731 13.8025 4.76731 18.025C4.76731 22.3383 8.08172 25.8797 12.3042 26.1975V33.916H9.39841C8.85357 31.8729 6.99205 30.3746 4.81271 30.3746C2.13394 30.42 0 32.5539 0 35.1873C0 37.8207 2.13394 39.9546 4.76731 39.9546C6.94665 39.9546 8.80817 38.4563 9.35301 36.4132H13.4847C14.1657 36.4132 14.756 35.8683 14.756 35.1419V26.2429H20.6583V30.6016C18.6606 31.1918 17.1623 33.0079 17.1623 35.1873C17.1623 37.8207 19.2963 39.9546 21.9296 39.9546C24.6084 39.9546 26.7423 37.8207 26.7423 35.1873C26.7423 32.9625 25.1986 31.101 23.1555 30.5562V26.2429H29.0579V35.1873C29.0579 35.8683 29.6027 36.4586 30.3292 36.4586H34.143C34.6879 38.5017 36.5494 40 38.7287 40C41.3621 40 43.496 37.8661 43.496 35.2327C43.496 32.5993 41.3621 30.42 38.7287 30.42ZM24.2452 35.1873C24.2452 36.4586 23.2009 37.4574 21.975 37.4574C20.7491 37.4574 19.7049 36.4132 19.7049 35.1873C19.7049 33.916 20.7491 32.9171 21.975 32.9171C23.2009 32.9171 24.2452 33.916 24.2452 35.1873ZM4.76731 37.4574C3.49603 37.4574 2.49716 36.4132 2.49716 35.1873C2.49716 33.916 3.54143 32.9171 4.76731 32.9171C6.03859 32.9171 7.03746 33.9614 7.03746 35.1873C7.08286 36.4586 6.03859 37.4574 4.76731 37.4574ZM38.7287 37.4574C37.4574 37.4574 36.4586 36.4586 36.4586 35.1873C36.4586 33.9614 37.5028 32.9171 38.7287 32.9171C40 32.9171 40.9989 33.9614 40.9989 35.1873C40.9989 36.4586 39.9546 37.4574 38.7287 37.4574Z" fill="#00BE9D"/>
</svg>
