<svg width="27" height="23" viewBox="0 0 27 23" fill="none" xmlns="http://www.w3.org/2000/svg">
<path d="M10.5051 0.320068C11.3117 3.84007 11.7151 7.2134 11.7151 10.4401C11.7151 14.5467 10.7617 17.6634 8.85507 19.7901C7.02174 21.8434 4.27174 22.8701 0.605071 22.8701V18.3601C2.51174 18.3601 3.8684 17.8834 4.67507 16.9301C5.48174 15.9034 5.88507 14.3634 5.88507 12.3101V9.78007H0.385071V0.320068H10.5051ZM25.3551 0.320068C26.2351 4.1334 26.6751 7.50673 26.6751 10.4401C26.6751 14.5467 25.7217 17.6634 23.8151 19.7901C21.9084 21.8434 19.1217 22.8701 15.4551 22.8701V18.3601C17.3617 18.3601 18.7184 17.8834 19.5251 16.9301C20.3317 15.9034 20.7351 14.3634 20.7351 12.3101V9.78007H15.2351V0.320068H25.3551Z" fill="#F41E3D"/>
</svg>
