<svg width="27" height="23" viewBox="0 0 27 23" fill="none" xmlns="http://www.w3.org/2000/svg">
<path d="M1.59509 22.8701C0.715086 18.9834 0.275085 15.6101 0.275085 12.7501C0.275085 8.64341 1.22842 5.5634 3.13509 3.51007C5.04175 1.3834 7.82842 0.320068 11.4951 0.320068V4.72007C9.58842 4.72007 8.19509 5.2334 7.31509 6.26007C6.50842 7.28674 6.10509 8.82674 6.10509 10.8801V13.4101H11.6051V22.8701H1.59509ZM16.4451 22.8701C15.5651 18.9834 15.1251 15.6101 15.1251 12.7501C15.1251 8.64341 16.0784 5.5634 17.9851 3.51007C19.8918 1.3834 22.6784 0.320068 26.3451 0.320068V4.72007C24.4384 4.72007 23.0451 5.2334 22.1651 6.26007C21.3584 7.28674 20.9551 8.82674 20.9551 10.8801V13.4101H26.4551V22.8701H16.4451Z" fill="#F41E3D"/>
</svg>
