<svg width="31" height="31" viewBox="0 0 31 31" fill="none" xmlns="http://www.w3.org/2000/svg">
<path d="M30.4642 9.98656L26.2362 5.72263C25.974 5.46023 25.6135 5.32903 25.2529 5.36183L19.1895 5.85383C14.011 1.45869 7.48867 -0.246882 2.11351 1.55709L1.68743 1.68829L1.55632 2.11468C-0.246322 7.4938 1.458 14.0209 5.88268 19.2032L5.35827 25.2711C5.32549 25.6319 5.4566 25.9927 5.7188 26.2551L9.94682 30.4863C10.1763 30.7158 10.504 30.847 10.8318 30.847C10.9629 30.847 11.094 30.8142 11.2578 30.7814C11.7167 30.6174 12.0444 30.2239 12.11 29.7319L12.7327 24.6151C13.8143 25.1727 14.9287 25.6319 16.0758 25.9927L16.2069 26.0255C16.4363 26.0911 16.6986 26.0255 16.8624 25.8615L25.8757 16.8417C26.0395 16.6777 26.1051 16.4153 26.0395 16.1857L26.0068 16.0873C25.6462 14.9393 25.1874 13.8241 24.6302 12.7417L29.7432 12.1185C30.2348 12.0529 30.6281 11.7249 30.792 11.2657C30.9231 10.8066 30.8247 10.3146 30.4642 9.98656ZM10.4385 28.4199L7.16092 25.1399L7.52144 20.9416C8.60303 21.9912 9.78295 22.8768 10.9956 23.664L10.4385 28.4199ZM16.0758 24.1231C13.2899 23.172 10.6351 21.4992 8.3736 19.2688C3.7195 14.6113 1.65465 8.18259 3.12954 3.13147C8.17695 1.65549 14.6009 3.72186 19.255 8.37939C21.5165 10.6426 23.1881 13.2993 24.1058 16.0873L16.0758 24.1231ZM23.6797 11.0361C22.8931 9.82257 21.9754 8.64178 20.9594 7.5594L25.1546 7.19861L28.4321 10.4786L23.6797 11.0361Z" fill="url(#paint0_linear)"/>
<path d="M10.6353 10.6425C9.42266 11.8561 9.42266 13.8241 10.6353 15.0705C11.2581 15.6937 12.0447 15.9889 12.8313 15.9889C13.6179 15.9889 14.4373 15.6937 15.0272 15.0705C16.2399 13.8569 16.2399 11.8889 15.0272 10.6425C13.8146 9.42897 11.848 9.42897 10.6353 10.6425ZM13.749 13.7585C13.2246 14.2833 12.4052 14.2833 11.8808 13.7585C11.3564 13.2337 11.3564 12.4137 11.8808 11.8889C12.143 11.6265 12.4708 11.4953 12.7985 11.4953C13.1263 11.4953 13.4868 11.6265 13.7162 11.8889C14.2734 12.4137 14.2734 13.2665 13.749 13.7585Z" fill="url(#paint1_linear)"/>
<path d="M27.6451 18.908C27.2846 18.5473 26.7274 18.5473 26.3668 18.908L18.8285 26.4519C18.468 26.8127 18.468 27.3703 18.8285 27.7311C18.8941 27.7967 18.9924 27.8623 19.0579 27.8951C22.0733 29.8959 25.7441 30.4207 28.6284 29.2071C28.7267 29.1743 28.825 29.1087 28.9233 29.0103C29.0217 28.9119 29.0872 28.8135 29.12 28.7151C30.3327 25.8287 29.8083 22.1552 27.809 19.1376C27.7762 19.0392 27.7106 18.9736 27.6451 18.908ZM27.5795 27.6655C25.5475 28.3543 23.1221 28.0919 20.9261 26.9111L26.8257 21.0072C28.0056 23.2048 28.2678 25.6319 27.5795 27.6655Z" fill="url(#paint2_linear)"/>
<defs>
<linearGradient id="paint0_linear" x1="1.23765" y1="1.416" x2="36.2757" y2="16.7982" gradientUnits="userSpaceOnUse">
<stop offset="0.401042" stop-color="#2F3542"/>
<stop offset="1" stop-color="#009EDB"/>
</linearGradient>
<linearGradient id="paint1_linear" x1="9.80662" y1="9.85102" x2="17.0776" y2="13.0198" gradientUnits="userSpaceOnUse">
<stop offset="0.401042" stop-color="#2F3542"/>
<stop offset="1" stop-color="#009EDB"/>
</linearGradient>
<linearGradient id="paint2_linear" x1="18.7039" y1="18.8502" x2="31.7977" y2="24.5943" gradientUnits="userSpaceOnUse">
<stop offset="0.401042" stop-color="#2F3542"/>
<stop offset="1" stop-color="#009EDB"/>
</linearGradient>
</defs>
</svg>
