<svg width="31" height="20" viewBox="0 0 31 20" fill="none" xmlns="http://www.w3.org/2000/svg">
<path d="M10.4023 11.4056C13.557 11.4056 16.1051 8.85754 16.1051 5.7028C16.1051 2.54806 13.557 0 10.4023 0C7.24752 0 4.69946 2.54806 4.69946 5.7028C4.69946 8.85754 7.24752 11.4056 10.4023 11.4056ZM10.4023 1.66837C12.6166 1.66837 14.4367 3.48841 14.4367 5.7028C14.4367 7.91718 12.6166 9.73723 10.4023 9.73723C8.18788 9.73723 6.36784 7.91718 6.36784 5.7028C6.36784 3.48841 8.15754 1.66837 10.4023 1.66837Z" fill="url(#paint0_linear)"/>
<path d="M10.4022 14.5603C6.70149 14.5603 3.15241 15.9254 0.392014 18.3521C0.0583396 18.6554 0.0280055 19.1711 0.331346 19.5351C0.634686 19.8688 1.15036 19.8991 1.51437 19.5958C3.97143 17.4117 7.12617 16.1984 10.4326 16.1984C13.7087 16.1984 16.8937 17.4117 19.3508 19.5958C19.5025 19.7475 19.7148 19.8081 19.8968 19.8081C20.1395 19.8081 20.3518 19.7171 20.5338 19.5351C20.8372 19.2014 20.8068 18.6554 20.4731 18.3521C17.6521 15.9254 14.103 14.5603 10.4022 14.5603Z" fill="url(#paint1_linear)"/>
<path d="M22.5059 11.7089C24.4776 11.7089 26.055 10.1012 26.055 8.15986C26.055 6.21848 24.4472 4.61078 22.5059 4.61078C20.5645 4.61078 18.9568 6.21848 18.9568 8.15986C18.9568 10.1012 20.5342 11.7089 22.5059 11.7089ZM22.5059 6.24882C23.5372 6.24882 24.3866 7.09817 24.3866 8.12953C24.3866 9.16088 23.5372 10.0102 22.5059 10.0102C21.4745 10.0102 20.6252 9.16088 20.6252 8.12953C20.6252 7.09817 21.4745 6.24882 22.5059 6.24882Z" fill="url(#paint2_linear)"/>
<path d="M29.8465 16.8657C27.8142 15.076 25.2358 14.075 22.5057 14.075C21.535 14.075 20.5643 14.1963 19.6543 14.439C19.1993 14.5603 18.9566 15.0153 19.078 15.4703C19.1993 15.9254 19.6543 16.168 20.1093 16.0467C20.898 15.8344 21.717 15.7434 22.536 15.7434C24.8414 15.7434 27.0558 16.5927 28.7545 18.1094C28.9062 18.2611 29.1185 18.3217 29.3005 18.3217C29.5432 18.3217 29.7555 18.2307 29.9375 18.0487C30.2105 17.6847 30.1802 17.1691 29.8465 16.8657Z" fill="url(#paint3_linear)"/>
<defs>
<linearGradient id="paint0_linear" x1="4.84783" y1="0.21631" x2="18.1688" y2="6.06441" gradientUnits="userSpaceOnUse">
<stop offset="0.401042" stop-color="#2F3542"/>
<stop offset="1" stop-color="#009EDB"/>
</linearGradient>
<linearGradient id="paint1_linear" x1="0.38983" y1="14.6599" x2="7.61457" y2="27.1238" gradientUnits="userSpaceOnUse">
<stop offset="0.401042" stop-color="#2F3542"/>
<stop offset="1" stop-color="#009EDB"/>
</linearGradient>
<linearGradient id="paint2_linear" x1="19.0491" y1="4.7454" x2="27.3393" y2="8.38491" gradientUnits="userSpaceOnUse">
<stop offset="0.401042" stop-color="#2F3542"/>
<stop offset="1" stop-color="#009EDB"/>
</linearGradient>
<linearGradient id="paint3_linear" x1="19.1909" y1="14.1555" x2="25.8674" y2="21.7993" gradientUnits="userSpaceOnUse">
<stop offset="0.401042" stop-color="#2F3542"/>
<stop offset="1" stop-color="#009EDB"/>
</linearGradient>
</defs>
</svg>
