<svg width="30" height="30" viewBox="0 0 30 30" fill="none" xmlns="http://www.w3.org/2000/svg">
<path d="M29.1608 14.1649H26.1638C25.7742 8.4433 21.3387 3.86598 15.8242 3.46392V0.865979C15.8242 0.402062 15.4645 0 14.985 0C14.5055 0 14.1459 0.371134 14.1459 0.865979V3.46392C8.63137 3.86598 4.1958 8.4433 3.80619 14.1649H0.809191C0.35964 14.1649 0 14.5361 0 15C0 15.4639 0.35964 15.866 0.839161 15.866H3.83616C4.1958 21.5567 8.63137 26.134 14.1758 26.5361V29.134C14.1758 29.5979 14.5355 30 15.015 30C15.4945 30 15.8541 29.6289 15.8541 29.134V26.5361C21.3387 26.134 25.7742 21.5567 26.1638 15.866H29.1608C29.6104 15.866 30 15.4948 30 15C30 14.5052 29.6104 14.1649 29.1608 14.1649ZM15.8242 24.8351V23.8763C15.8242 23.4124 15.4645 23.0103 14.985 23.0103C14.5055 23.0103 14.1459 23.3814 14.1459 23.8763V24.8351C9.53047 24.433 5.81419 20.6289 5.42458 15.8351H6.35365C6.8032 15.8351 7.19281 15.4639 7.19281 14.9691C7.19281 14.4742 6.83317 14.1031 6.35365 14.1031H5.42458C5.81419 9.34021 9.5005 5.50515 14.1459 5.10309V6.06186C14.1459 6.52577 14.5055 6.92783 14.985 6.92783C15.4645 6.92783 15.8242 6.5567 15.8242 6.06186V5.10309C20.4396 5.50515 24.1558 9.30928 24.5455 14.1031H23.7962C23.3467 14.1031 22.957 14.4742 22.957 14.9691C22.957 15.4639 23.3167 15.8351 23.7962 15.8351H24.5455C24.1259 20.6289 20.4396 24.433 15.8242 24.8351Z" fill="url(#paint0_linear)"/>
<path d="M15.9739 15.9897C17.4425 15.5567 18.5214 14.1649 18.5214 12.4948C18.5214 10.4845 16.933 8.87628 15.0149 8.87628C13.0968 8.87628 11.5084 10.5155 11.5084 12.4948C11.5084 14.134 12.5873 15.5258 14.0558 15.9897C12.0778 16.2062 10.1897 17.0412 8.66123 18.433C8.33156 18.7423 8.30159 19.268 8.60129 19.6392C8.90099 19.9794 9.41048 20.0103 9.77012 19.701C11.2387 18.3711 13.0968 17.6289 15.0448 17.6289C16.9929 17.6289 18.881 18.3711 20.3196 19.701C20.4694 19.8557 20.6792 19.9175 20.859 19.9175C21.0988 19.9175 21.3086 19.8247 21.4884 19.6392C21.7881 19.299 21.7581 18.7423 21.4285 18.433C19.8401 17.0412 17.9519 16.2062 15.9739 15.9897ZM13.1268 12.4948C13.1268 11.4433 13.9659 10.5773 14.9849 10.5773C16.0039 10.5773 16.8431 11.4433 16.8431 12.4948C16.8431 13.5464 16.0039 14.4124 14.9849 14.4124C13.9659 14.4433 13.1268 13.5773 13.1268 12.4948Z" fill="url(#paint1_linear)"/>
<defs>
<linearGradient id="paint0_linear" x1="0.390236" y1="0.568958" x2="35.4283" y2="15.9511" gradientUnits="userSpaceOnUse">
<stop offset="0.401042" stop-color="#2F3542"/>
<stop offset="1" stop-color="#009EDB"/>
</linearGradient>
<linearGradient id="paint1_linear" x1="8.56707" y1="9.08568" x2="23.0464" y2="16.7437" gradientUnits="userSpaceOnUse">
<stop offset="0.401042" stop-color="#2F3542"/>
<stop offset="1" stop-color="#009EDB"/>
</linearGradient>
</defs>
</svg>
