<svg width="1160" height="402" viewBox="0 0 1160 402" fill="none" xmlns="http://www.w3.org/2000/svg">
<path d="M946.766 298.381C1000.21 298.381 1043.53 255.091 1043.53 201.691C1043.53 148.29 1000.21 105 946.766 105C893.324 105 850 148.29 850 201.691C850 255.091 893.324 298.381 946.766 298.381Z" fill="white"/>
<path d="M947.664 298.191C894.23 298.191 850.898 254.893 850.898 201.5H797.047C797.047 284.608 864.491 352 947.664 352C1030.84 352 1098.28 284.608 1098.28 201.5H1044.43C1044.38 254.893 1001.1 298.191 947.664 298.191Z" fill="#8E44AD"/>
<path d="M768.27 269.878C806.059 232.119 806.059 170.898 768.27 133.139C730.481 95.379 669.212 95.379 631.423 133.139C593.634 170.898 593.634 232.119 631.423 269.878C669.212 307.638 730.481 307.638 768.27 269.878Z" fill="white"/>
<path d="M700.281 104.809C646.846 104.809 603.515 148.107 603.515 201.5H549.715C549.715 118.392 617.108 51 700.281 51C783.454 51 850.898 118.392 850.898 201.5H797.047C797.047 148.107 753.716 104.809 700.281 104.809Z" fill="#27AE60"/>
<path d="M447.766 298.191C394.331 298.191 351 254.893 351 201.5C351 148.107 394.331 104.81 447.766 104.81C501.201 104.81 544.532 148.107 544.532 201.5C544.532 254.893 501.201 298.191 447.766 298.191Z" fill="white"/>
<path d="M452.949 298.191C399.514 298.191 356.183 254.893 356.183 201.5H302.332C302.332 284.608 369.776 352 452.949 352C536.122 352 603.567 284.608 603.567 201.5H549.715C549.715 254.893 506.384 298.191 452.949 298.191Z" fill="#D35400"/>
<path d="M274.27 270.37C312.059 232.61 312.059 171.39 274.27 133.63C236.481 95.8705 175.212 95.8705 137.423 133.63C99.6341 171.39 99.6341 232.61 137.423 270.37C175.212 308.129 236.481 308.129 274.27 270.37Z" fill="white"/>
<path d="M205.618 104.809C152.183 104.809 108.852 148.107 108.852 201.5H55C55 118.392 122.445 51 205.618 51C288.791 51 356.235 118.392 356.235 201.5H302.332C302.332 148.107 259.052 104.809 205.618 104.809Z" fill="#2980B9"/>
<path d="M1071.25 240.218L1032.5 201.5H1044.43C1044.43 148.107 1001.1 104.809 947.664 104.809C894.23 104.809 850.898 148.107 850.898 201.5H797.047C797.047 118.392 864.491 51 947.664 51C1030.84 51 1098.28 118.392 1098.28 201.5H1110L1071.25 240.218Z" fill="#9B59B6"/>
<path d="M823.869 162.782L785.12 201.5H797.047C797.047 254.893 753.716 298.191 700.281 298.191C646.846 298.191 603.515 254.893 603.515 201.5H549.715C549.715 284.608 617.16 352 700.333 352C783.506 352 850.951 284.608 850.951 201.5H862.669L823.869 162.782Z" fill="#2ECC71"/>
<path d="M576.537 240.218L537.789 201.5H549.715C549.715 148.107 506.384 104.809 452.949 104.809C399.514 104.809 356.183 148.107 356.183 201.5H302.332C302.332 118.392 369.776 51 452.949 51C536.122 51 603.567 118.392 603.567 201.5H615.285L576.537 240.218Z" fill="#E67E22"/>
<path opacity="1.1" d="M329.205 162.782L290.457 201.5H302.384C302.384 254.893 259.052 298.191 205.618 298.191C152.183 298.191 108.852 254.893 108.852 201.5H55C55 284.608 122.445 352 205.618 352C288.791 352 356.235 284.608 356.235 201.5H367.953L329.205 162.782Z" fill="#3498DB"/>
<line x1="2.5" y1="399.5" x2="557.5" y2="399.5" stroke="#D35400" stroke-width="5" stroke-linecap="round" stroke-linejoin="round"/>
<line x1="456.5" y1="348.5" x2="456.5" y2="399.5" stroke="#D35400" stroke-width="5" stroke-linecap="round" stroke-linejoin="round"/>
<line x1="2.5" y1="2.5" x2="557.5" y2="2.5" stroke="#2980B9" stroke-width="5" stroke-linecap="round" stroke-linejoin="round"/>
<line x1="207.5" y1="4.5" x2="207.5" y2="55.5" stroke="#2980B9" stroke-width="5" stroke-linecap="round" stroke-linejoin="round"/>
<line x1="602.5" y1="2.5" x2="1157.5" y2="2.5" stroke="#27AE60" stroke-width="5" stroke-linecap="round" stroke-linejoin="round"/>
<line x1="701.5" y1="4.5" x2="701.5" y2="55.5" stroke="#27AE60" stroke-width="5" stroke-linecap="round" stroke-linejoin="round"/>
<line x1="602.5" y1="399.5" x2="1157.5" y2="399.5" stroke="#8E44AD" stroke-width="5" stroke-linecap="round" stroke-linejoin="round"/>
<line x1="950.5" y1="348.5" x2="950.5" y2="399.5" stroke="#8E44AD" stroke-width="5" stroke-linecap="round" stroke-linejoin="round"/>
<path d="M1001 202.859V200.141C1001 198.639 999.792 197.422 998.3 197.422H951.05V190.625H963.2C966.182 190.625 968.6 188.19 968.6 185.188V163.438C968.6 160.435 966.182 158 963.2 158H930.8C927.818 158 925.4 160.435 925.4 163.438V185.188C925.4 188.19 927.818 190.625 930.8 190.625H942.95V197.422H895.7C894.208 197.422 893 198.639 893 200.141V202.859C893 204.361 894.208 205.578 895.7 205.578H913.25V212.375H903.8C900.818 212.375 898.4 214.81 898.4 217.812V239.562C898.4 242.565 900.818 245 903.8 245H930.8C933.782 245 936.2 242.565 936.2 239.562V217.812C936.2 214.81 933.782 212.375 930.8 212.375H921.35V205.578H972.65V212.375H963.2C960.218 212.375 957.8 214.81 957.8 217.812V239.562C957.8 242.565 960.218 245 963.2 245H990.2C993.182 245 995.6 242.565 995.6 239.562V217.812C995.6 214.81 993.182 212.375 990.2 212.375H980.75V205.578H998.3C999.792 205.578 1001 204.361 1001 202.859ZM936.2 179.75V168.875H957.8V179.75H936.2ZM925.4 234.125H909.2V223.25H925.4V234.125ZM984.8 234.125H968.6V223.25H984.8V234.125Z" fill="url(#paint0_linear)"/>
<path d="M646 201.5V223.25C646 226.258 648.435 228.688 651.45 228.688H656.9V196.062H651.45C648.435 196.062 646 198.492 646 201.5ZM725.025 174.312H705.95V163.438C705.95 160.43 703.515 158 700.5 158C697.485 158 695.05 160.43 695.05 163.438V174.312H675.975C668.447 174.312 662.35 180.396 662.35 187.906V234.125C662.35 240.123 667.238 245 673.25 245H727.75C733.762 245 738.65 240.123 738.65 234.125V187.906C738.65 180.396 732.553 174.312 725.025 174.312ZM689.6 228.688H678.7V223.25H689.6V228.688ZM684.15 208.297C680.386 208.297 677.337 205.255 677.337 201.5C677.337 197.745 680.386 194.703 684.15 194.703C687.914 194.703 690.962 197.745 690.962 201.5C690.962 205.255 687.914 208.297 684.15 208.297ZM705.95 228.688H695.05V223.25H705.95V228.688ZM722.3 228.688H711.4V223.25H722.3V228.688ZM716.85 208.297C713.086 208.297 710.037 205.255 710.037 201.5C710.037 197.745 713.086 194.703 716.85 194.703C720.614 194.703 723.662 197.745 723.662 201.5C723.662 205.255 720.614 208.297 716.85 208.297ZM749.55 196.062H744.1V228.688H749.55C752.565 228.688 755 226.258 755 223.25V201.5C755 198.492 752.565 196.062 749.55 196.062Z" fill="url(#paint1_linear)"/>
<g clip-path="url(#clip0)">
<path d="M436.534 204.384L403.739 237.407C402.157 239 399.593 239 398.011 237.407L394.186 233.555C392.607 231.965 392.604 229.388 394.179 227.795L420.171 201.5L394.18 175.205C392.604 173.612 392.607 171.035 394.186 169.445L398.011 165.593C399.593 164.001 402.157 164.001 403.739 165.593L436.534 198.616C438.116 200.209 438.116 202.791 436.534 204.384ZM501 235.484V230.047C501 227.795 499.187 225.969 496.95 225.969H445.65C443.413 225.969 441.6 227.795 441.6 230.047V235.484C441.6 237.737 443.413 239.563 445.65 239.563H496.95C499.187 239.563 501 237.737 501 235.484Z" fill="url(#paint2_linear)"/>
</g>
<path d="M192.389 158C187.302 158 183.082 161.483 181.874 166.19C181.738 166.19 181.636 166.156 181.5 166.156C175.494 166.156 170.611 171.033 170.611 177.031C170.611 177.847 170.713 178.646 170.9 179.41C165.932 181.449 162.444 186.309 162.444 191.984C162.444 194.125 162.989 196.113 163.857 197.915C159.773 200.26 157 204.61 157 209.656C157 215.315 160.471 220.174 165.405 222.213C165.252 222.995 165.167 223.794 165.167 224.609C165.167 231.372 170.645 236.844 177.417 236.844C178.114 236.844 178.795 236.759 179.458 236.64C181.092 241.483 185.617 245 191.028 245C197.799 245 203.278 239.529 203.278 232.766V168.875C203.278 162.877 198.395 158 192.389 158ZM255 209.656C255 204.61 252.227 200.26 248.143 197.915C249.028 196.113 249.556 194.125 249.556 191.984C249.556 186.309 246.068 181.449 241.1 179.41C241.27 178.646 241.389 177.847 241.389 177.031C241.389 171.033 236.506 166.156 230.5 166.156C230.364 166.156 230.245 166.19 230.126 166.19C228.918 161.483 224.698 158 219.611 158C213.605 158 208.722 162.86 208.722 168.875V232.766C208.722 239.529 214.201 245 220.972 245C226.383 245 230.908 241.483 232.542 236.64C233.205 236.759 233.886 236.844 234.583 236.844C241.355 236.844 246.833 231.372 246.833 224.609C246.833 223.794 246.748 222.995 246.595 222.213C251.529 220.174 255 215.315 255 209.656Z" fill="url(#paint3_linear)"/>
<defs>
<linearGradient id="paint0_linear" x1="894.405" y1="159.65" x2="1010.4" y2="222.866" gradientUnits="userSpaceOnUse">
<stop offset="0.401042" stop-color="#2F3542"/>
<stop offset="1" stop-color="#009EDB"/>
</linearGradient>
<linearGradient id="paint1_linear" x1="647.418" y1="159.65" x2="763.991" y2="223.769" gradientUnits="userSpaceOnUse">
<stop offset="0.401042" stop-color="#2F3542"/>
<stop offset="1" stop-color="#009EDB"/>
</linearGradient>
<linearGradient id="paint2_linear" x1="394.405" y1="165.824" x2="502.028" y2="233.713" gradientUnits="userSpaceOnUse">
<stop offset="0.401042" stop-color="#2F3542"/>
<stop offset="1" stop-color="#009EDB"/>
</linearGradient>
<linearGradient id="paint3_linear" x1="158.275" y1="159.65" x2="267.967" y2="213.895" gradientUnits="userSpaceOnUse">
<stop offset="0.401042" stop-color="#2F3542"/>
<stop offset="1" stop-color="#009EDB"/>
</linearGradient>
<clipPath id="clip0">
<rect width="108" height="87" fill="white" transform="translate(393 158)"/>
</clipPath>
</defs>
</svg>
