<svg width="1048" height="222" viewBox="0 0 1048 222" fill="none" xmlns="http://www.w3.org/2000/svg">
<path d="M140 14.0001H132V212.07H140V14.0001Z" fill="#F1C40F"/>
<circle cx="136" cy="212" r="10" fill="#E0B509"/>
<path d="M402 14.0001H394V212.07H402V14.0001Z" fill="#56CCF2"/>
<circle cx="398" cy="212" r="10" fill="#2D9CDB"/>
<path d="M660 14.0001H652V212.845H660V14.0001Z" fill="#BB6BD9"/>
<circle cx="656" cy="212" r="10" fill="#9B51E0"/>
<path d="M917 14.0001H909V216H917V14.0001Z" fill="#47515A"/>
<circle cx="913" cy="212" r="10" fill="#2F3542"/>
<path d="M1001.89 98.0001H751V54.6712V6.10352e-05H1001.89L1048 49.0001L1001.89 98.0001Z" fill="#47515A"/>
<path d="M750.635 98H501V0H750.635L796.519 49L750.635 98Z" fill="#BB6BD9"/>
<path d="M501.73 98.0001H250V6.10352e-05H501.73L548 49.0001L501.73 98.0001Z" fill="#56CCF2"/>
<path d="M249.635 98H0L28.5172 49L0 0H249.635L295.519 49L249.635 98Z" fill="#F1C40F"/>
<mask id="mask0" mask-type="alpha" maskUnits="userSpaceOnUse" x="0" y="0" width="1048" height="99">
<path d="M1001.89 98H751V54.6711V0H1001.89L1048 49L1001.89 98Z" fill="#47515A"/>
<path d="M750.635 98H501V0H750.635L796.519 49L750.635 98Z" fill="#BB6BD9"/>
<path d="M501.73 99H250V1H501.73L548 50L501.73 99Z" fill="#56CCF2"/>
<path d="M249.635 98H0L28.5172 49L0 0H249.635L295.519 49L249.635 98Z" fill="#F1C40F"/>
</mask>
<g mask="url(#mask0)">
<g style="mix-blend-mode:lighten" opacity="0.15">
<rect width="1059" height="49" fill="white"/>
</g>
</g>
<path d="M165.3 75.7H109.9C109.6 75.7 109.4 75.4 109.4 75.2V19.7C109.3 18.1 108.3 17 106.7 17C105.1 17 104 18.1 104 19.7V75.2C104 78.3 106.7 81 109.9 81H165.4C167 81 168.1 79.9 168.1 78.3C168 76.7 166.9 75.7 165.3 75.7Z" fill="white"/>
<path d="M164 38.3H152C150.4 38.3 149.3 39.4 149.3 41C149.3 42.6 150.4 43.7 152 43.7H158.7L152.3 49H138.7C137.9 49 137.1 49.3 136.6 50.1L129.1 59.7H117.3C115.7 59.7 114.6 60.8 114.6 62.4C114.6 64 115.7 65.1 117.3 65.1H130.4C131.2 65.1 132 64.8 132.5 64L140 54.4H153.3C153.8 54.4 154.6 54.1 154.9 53.9L162.6 47.5V54.4C162.6 56 163.7 57.1 165.3 57.1C166.9 57.1 168 56 168 54.4V42.4C168 40.2 166.1 38.3 164 38.3Z" fill="white"/>
<path d="M426.3 47.3H421.5C420.2 35.9 411.1 26.8 399.7 25.5V20.7C399.7 19.1 398.6 18 397 18C395.4 18 394.3 19.1 394.3 20.7V25.5C382.9 26.8 373.8 35.9 372.5 47.3H367.7C366.1 47.3 365 48.4 365 50C365 51.6 366.1 52.7 367.7 52.7H372.5C373.8 64.2 382.9 73.2 394.4 74.6V79.4C394.4 81 395.5 82.1 397.1 82.1C398.7 82.1 399.8 81 399.8 79.4V74.6C411.3 73.3 420.3 64.2 421.7 52.7H426.5C428.1 52.7 429.2 51.6 429.2 50C429 48.4 427.9 47.3 426.3 47.3ZM415.7 52.7C414.9 61.2 408.2 67.9 399.7 69V68.7C399.7 67.1 398.6 66 397 66C395.4 66 394.3 67.1 394.3 68.7V69C385.8 67.9 379.1 61 378 52.7H378.3C379.9 52.7 381 51.6 381 50C381 48.4 379.9 47.3 378.3 47.3H378C379.1 38.8 386 32.1 394.3 31V31.3C394.3 32.9 395.4 34 397 34C398.6 34 399.7 32.9 399.7 31.3V31C408.2 32.1 414.9 39 416 47.3H415.7C414.1 47.3 413 48.4 413 50C413 51.6 414.1 52.7 415.7 52.7Z" fill="white"/>
<path d="M399.7 46.5C400.5 47.6 402.4 47.8 403.4 47C404.4 46.2 404.7 44.3 403.9 43.3C402.8 42 401.2 40.9 399.6 40.6V39.3C399.6 37.7 398.5 36.6 396.9 36.6C395.3 36.6 394.2 37.7 394.2 39.3V40.6C392.9 41.1 391.8 41.9 391 43C390.2 44.3 389.9 45.7 390.2 47C390.7 48.6 391.8 50.2 394.2 51.5C394.7 51.8 395.3 52 395.8 52.3C396.6 52.6 397.4 53.1 397.9 53.4C398.4 53.7 398.4 53.9 398.7 53.9C398.4 54.2 397.9 54.4 397.1 54.4C395.8 54.4 395 53.9 394.4 53.3C393.3 52.2 391.7 52 390.7 53C389.7 54 389.4 55.7 390.4 56.7C391.4 57.7 392.8 58.6 394.1 59.1V60.2C394.1 61.8 395.2 62.9 396.8 62.9C398.1 62.9 399.5 61.8 399.5 60.2V59.1C401.1 58.6 402.4 57.5 403.2 55.9C404.5 53.5 403.5 50.6 400.8 48.7C400 48.2 398.9 47.6 398.1 47.1C397.6 47.1 397.3 47.1 396.8 46.8C396 46.3 395.7 46 395.5 45.7C395.8 45.4 396 45.4 396.3 45.2C398.1 45.5 399.4 46 399.7 46.5Z" fill="white"/>
<path d="M675.1 56.8C676.7 56.8 677.8 55.7 677.8 54.1V43.6C677.8 42 676.7 40.9 675.1 40.9H664.4C662.8 40.9 661.7 42 661.7 43.6V46.3H651.1V43.6C651.1 42 650 40.9 648.4 40.9H645.7V32.9H648.4C650 32.9 651.1 31.8 651.1 30.2V19.7C651.1 18.1 650 17 648.4 17H637.7C636.1 17 635 18.1 635 19.7V30.4C635 32 636.1 33.1 637.7 33.1H640.4V41.1H637.7C636.1 41.1 635 42.2 635 43.8V54.5C635 56.1 636.1 57.2 637.7 57.2H648.4C650 57.2 651.1 56.1 651.1 54.5V51.8H661.8V54.5C661.8 56.1 662.9 57.2 664.5 57.2H667.2V65.2H664.4C662.8 65.2 661.7 66.3 661.7 67.9V78.6C661.7 80.2 662.8 81.3 664.4 81.3H675.1C676.7 81.3 677.8 80.2 677.8 78.6V67.5C677.8 65.9 676.7 64.8 675.1 64.8H672.4V56.8H675.1ZM640.4 22.3H645.7V27.6H640.4V22.3ZM645.7 51.5H640.4V46.2H645.7V51.5ZM672.4 75.4H667.1V70.1H672.4V75.4ZM667.1 46.2H672.4V51.5H667.1V46.2Z" fill="white"/>
<path d="M940.8 59.7L934.9 56.2L940.5 53C941.8 52.5 942.4 51.1 942.6 49.8C942.6 48.5 941.8 47.1 940.7 46.6L934 42.6L940.7 38.9C942 38.4 942.6 37 942.8 35.7C942.8 34.4 942 33 940.9 32.5L916 17.6C914.9 16.8 913.3 16.8 912.3 17.6L885.9 32.3C884.8 33.1 884 34.2 884 35.5C884 36.8 884.8 38.2 885.9 38.7L892.8 42.4L885.9 46.4C884.8 46.9 884 48.3 884 49.6C884 50.9 884.8 52.3 885.9 52.8L892 56.3L885.9 59.8C884.8 60.3 884 61.7 884 63C884 64.3 884.8 65.7 885.9 66.2L912 80.3C912.5 80.6 913.3 80.8 913.9 80.8C914.4 80.8 915.2 80.5 915.8 80.3L940.6 66.2C941.9 65.7 942.5 64.3 942.7 63C942.7 61.6 941.9 60.3 940.8 59.7ZM891.2 35.5L914.2 22.4L935.8 35.5L913.9 47.7L891.2 35.5ZM891.2 49.6L898.4 45.6L912 53.1C912.5 53.6 913.3 53.6 913.9 53.6C913.9 53.6 913.9 53.6 914.2 53.6C915 53.6 915.5 53.3 916.1 52.8L928.9 45.6L935.8 49.6L914.2 61.9L891.2 49.6ZM913.9 75.2L891.2 62.9L897.6 59.2L912 67.2C912.5 67.5 913.3 67.7 913.9 67.7C914.4 67.7 915.2 67.4 915.8 67.2L929.7 59.2L935.8 62.9L913.9 75.2Z" fill="white"/>
</svg>
