<svg width="310" height="90" viewBox="0 0 310 90" fill="none" xmlns="http://www.w3.org/2000/svg">
<path d="M304.761 0.25354H5.23944C2.34578 0.25354 0 2.56905 0 5.42537V84.7268C0 87.5831 2.34578 89.8986 5.23944 89.8986H304.761C307.654 89.8986 310 87.5831 310 84.7268V5.42537C310 2.56905 307.654 0.25354 304.761 0.25354Z" fill="#013C4E"/>
<path d="M45.8974 11.5737C55.6629 10.6051 62.1733 16.0128 64.2078 18.8377C67.1375 12.0579 76.0079 11.1702 80.0768 11.5737C88.8661 11.5737 92.6909 18.8377 93.5047 22.4697C111.815 15.2057 133.787 33.3657 122.801 51.5256C114.012 66.0535 102.863 65.65 98.387 63.6322C97.1662 66.0535 99.6078 67.2642 91.0632 70.8962C84.2272 73.8017 78.4492 72.1068 76.4147 70.8962C75.194 73.3175 72.7526 83.0028 60.5456 83.0028C50.7801 83.0028 45.0834 74.9317 43.4559 70.8962C31.2489 69.6855 22.704 63.6322 22.7042 53.9469C22.7045 45.9602 27.5869 40.2261 31.249 38.2083C30.0283 24.891 33.6904 12.7844 45.8974 11.5737Z" fill="#00A1E1"/>
<path d="M40.5183 45.5071C39.8663 45.3232 39.354 45.0531 38.9814 44.6968C38.6205 44.329 38.44 43.7831 38.44 43.0591C38.44 42.1856 38.7544 41.5017 39.3831 41.0076C40.0235 40.5134 40.8909 40.2663 41.9854 40.2663C42.4394 40.2663 42.8877 40.3065 43.3301 40.3869C43.7726 40.4674 44.2209 40.588 44.6749 40.749C44.6516 41.0478 44.5935 41.3581 44.5003 41.6799C44.4071 42.0017 44.2966 42.2833 44.1685 42.5246C43.889 42.4097 43.5805 42.312 43.2428 42.2316C42.9051 42.1396 42.5501 42.0936 42.1775 42.0936C41.7816 42.0936 41.473 42.1568 41.2518 42.2833C41.0306 42.3982 40.92 42.5878 40.92 42.8522C40.92 43.105 40.9957 43.2832 41.147 43.3866C41.3101 43.49 41.5371 43.5877 41.8282 43.6797L42.8237 43.9727C43.1497 44.0647 43.4408 44.1796 43.6969 44.3175C43.9647 44.444 44.1918 44.6048 44.378 44.8002C44.5643 44.9956 44.7099 45.237 44.8147 45.5243C44.9194 45.8116 44.9718 46.1622 44.9718 46.5759C44.9718 47.0011 44.8787 47.3976 44.6924 47.7654C44.5178 48.1332 44.2558 48.455 43.9065 48.7308C43.5688 48.9952 43.1555 49.2078 42.6665 49.3687C42.1775 49.5181 41.6244 49.5928 41.0073 49.5928C40.7279 49.5928 40.4718 49.5813 40.2389 49.5583C40.006 49.5469 39.7789 49.5181 39.5578 49.4721C39.3482 49.4376 39.1386 49.3917 38.929 49.3342C38.7194 49.2767 38.4924 49.2021 38.2479 49.1101C38.2712 48.7998 38.3236 48.4895 38.4051 48.1792C38.4983 47.8574 38.6147 47.5471 38.7544 47.2482C39.1386 47.3976 39.4995 47.5126 39.8372 47.593C40.1865 47.662 40.5474 47.6965 40.92 47.6965C41.083 47.6965 41.2577 47.685 41.444 47.662C41.6419 47.6275 41.8223 47.5758 41.9854 47.5068C42.1484 47.4264 42.2823 47.3287 42.3871 47.2138C42.5035 47.0873 42.5617 46.9265 42.5617 46.7311C42.5617 46.4552 42.4744 46.2598 42.2997 46.1449C42.1367 46.0185 41.9039 45.9093 41.6011 45.8174L40.5183 45.5071ZM50.9616 45.3002C50.8218 45.2772 50.6705 45.2599 50.5075 45.2485C50.3445 45.2254 50.199 45.214 50.0709 45.214C49.5004 45.214 49.0463 45.3174 48.7086 45.5243C48.3826 45.7197 48.2196 46.0415 48.2196 46.4897C48.2196 46.7885 48.2837 47.0183 48.4117 47.1793C48.5398 47.3402 48.6911 47.4609 48.8658 47.5413C49.0521 47.6103 49.2443 47.6562 49.4421 47.6792C49.6517 47.6907 49.8322 47.6965 49.9835 47.6965C50.1582 47.6965 50.3328 47.685 50.5075 47.662C50.6821 47.6275 50.8335 47.5988 50.9616 47.5758V45.3002ZM50.9616 43.5245C50.9616 43.2487 50.915 43.0246 50.8218 42.8522C50.7288 42.6798 50.6007 42.5476 50.4376 42.4557C50.2747 42.3522 50.0709 42.2833 49.8264 42.2488C49.5935 42.2143 49.3316 42.1971 49.0404 42.1971C48.4117 42.1971 47.7423 42.3178 47.032 42.5591C46.869 42.2603 46.7468 41.9787 46.6652 41.7144C46.5838 41.45 46.543 41.134 46.543 40.7662C47.0553 40.5938 47.5676 40.4674 48.0799 40.3869C48.5922 40.3065 49.0696 40.2663 49.512 40.2663C50.7229 40.2663 51.666 40.5536 52.3413 41.1282C53.0283 41.7029 53.3717 42.6223 53.3717 43.8865V49.0584C52.9643 49.1848 52.4694 49.3055 51.8872 49.4204C51.3051 49.5353 50.6472 49.5928 49.9137 49.5928C49.3199 49.5928 48.7727 49.5411 48.272 49.4376C47.783 49.3342 47.3581 49.1618 46.9971 48.9205C46.6478 48.6791 46.3742 48.3688 46.1762 47.9895C45.9899 47.6103 45.8968 47.1448 45.8968 46.5931C45.8968 46.0415 46.0133 45.5818 46.2461 45.214C46.4906 44.8347 46.7992 44.5359 47.1717 44.3175C47.5559 44.0876 47.9809 43.9268 48.4466 43.8348C48.9124 43.7314 49.3781 43.6797 49.8438 43.6797C50.1815 43.6797 50.5541 43.6969 50.9616 43.7314V43.5245ZM55.1611 36.7839C55.5803 36.7149 55.9937 36.6805 56.4011 36.6805C56.7971 36.6805 57.2045 36.7149 57.6237 36.7839V45.8346C57.6237 46.1909 57.6411 46.4782 57.6761 46.6966C57.7227 46.9149 57.7867 47.0873 57.8682 47.2138C57.9614 47.3287 58.0778 47.4092 58.2175 47.4551C58.3572 47.5011 58.5319 47.5241 58.7414 47.5241C58.8346 47.5241 58.9335 47.5183 59.0383 47.5068C59.1548 47.4954 59.2654 47.4781 59.3702 47.4551C59.4983 47.9264 59.5623 48.386 59.5623 48.8343C59.5623 48.9262 59.5623 49.0124 59.5623 49.0929C59.5623 49.1618 59.5507 49.2422 59.5273 49.3342C59.3411 49.3917 59.114 49.4319 58.8462 49.4549C58.5901 49.4779 58.3514 49.4894 58.1302 49.4894C57.2337 49.4894 56.5118 49.248 55.9645 48.7653C55.429 48.2711 55.1611 47.4724 55.1611 46.369V36.7839ZM62.5177 45.6795C62.5642 46.369 62.8087 46.869 63.2512 47.1793C63.6937 47.4896 64.2758 47.6447 64.9977 47.6447C65.3935 47.6447 65.7952 47.6103 66.2027 47.5413C66.6219 47.4609 67.0177 47.3517 67.3903 47.2138C67.5184 47.4436 67.629 47.7195 67.7222 48.0413C67.8153 48.363 67.8677 48.7078 67.8794 49.0756C66.9712 49.4204 65.9466 49.5928 64.8056 49.5928C63.9672 49.5928 63.2453 49.4779 62.6399 49.248C62.0461 49.0181 61.5571 48.7021 61.1729 48.2998C60.8003 47.8861 60.5208 47.3976 60.3346 46.8345C60.1599 46.2714 60.0726 45.6564 60.0726 44.9899C60.0726 44.3348 60.1658 43.7199 60.352 43.1453C60.5383 42.5706 60.812 42.0706 61.1729 41.6454C61.5455 41.2202 61.9996 40.8869 62.5351 40.6455C63.0824 40.3927 63.7169 40.2663 64.4388 40.2663C65.0675 40.2663 65.6264 40.3755 66.1154 40.5938C66.6044 40.8122 67.0177 41.111 67.3554 41.4903C67.7047 41.8695 67.9667 42.3235 68.1413 42.8522C68.316 43.3694 68.4033 43.9268 68.4033 44.5244C68.4033 44.7427 68.3917 44.9612 68.3684 45.1795C68.3568 45.3864 68.3393 45.553 68.316 45.6795H62.5177ZM66.063 43.9727C66.0397 43.4211 65.8825 42.9786 65.5915 42.6453C65.312 42.3005 64.9162 42.1281 64.4039 42.1281C63.8217 42.1281 63.3793 42.2891 63.0765 42.6108C62.7738 42.9326 62.5934 43.3866 62.5351 43.9727H66.063ZM71.7482 45.5071C71.0962 45.3232 70.5839 45.0531 70.2113 44.6968C69.8503 44.329 69.6699 43.7831 69.6699 43.0591C69.6699 42.1856 69.9843 41.5017 70.613 41.0076C71.2534 40.5134 72.1208 40.2663 73.2153 40.2663C73.6694 40.2663 74.1176 40.3065 74.5601 40.3869C75.0025 40.4674 75.4508 40.588 75.9049 40.749C75.8815 41.0478 75.8233 41.3581 75.7302 41.6799C75.637 42.0017 75.5264 42.2833 75.3984 42.5246C75.1189 42.4097 74.8103 42.312 74.4728 42.2316C74.1351 42.1396 73.7799 42.0936 73.4074 42.0936C73.0115 42.0936 72.703 42.1568 72.4818 42.2833C72.2605 42.3982 72.1499 42.5878 72.1499 42.8522C72.1499 43.105 72.2256 43.2832 72.377 43.3866C72.5399 43.49 72.767 43.5877 73.0581 43.6797L74.0536 43.9727C74.3796 44.0647 74.6706 44.1796 74.9268 44.3175C75.1947 44.444 75.4217 44.6048 75.608 44.8002C75.7942 44.9956 75.9398 45.237 76.0446 45.5243C76.1494 45.8116 76.2018 46.1622 76.2018 46.5759C76.2018 47.0011 76.1086 47.3976 75.9223 47.7654C75.7477 48.1332 75.4857 48.455 75.1364 48.7308C74.7987 48.9952 74.3854 49.2078 73.8964 49.3687C73.4074 49.5181 72.8543 49.5928 72.2373 49.5928C71.9578 49.5928 71.7016 49.5813 71.4688 49.5583C71.2359 49.5469 71.0089 49.5181 70.7877 49.4721C70.5781 49.4376 70.3685 49.3917 70.1589 49.3342C69.9494 49.2767 69.7223 49.2021 69.4778 49.1101C69.501 48.7998 69.5534 48.4895 69.635 48.1792C69.7281 47.8574 69.8446 47.5471 69.9843 47.2482C70.3685 47.3976 70.7294 47.5126 71.0671 47.593C71.4164 47.662 71.7773 47.6965 72.1499 47.6965C72.3129 47.6965 72.4875 47.685 72.6739 47.662C72.8717 47.6275 73.0522 47.5758 73.2153 47.5068C73.3782 47.4264 73.5122 47.3287 73.617 47.2138C73.7334 47.0873 73.7916 46.9265 73.7916 46.7311C73.7916 46.4552 73.7043 46.2598 73.5297 46.1449C73.3666 46.0185 73.1337 45.9093 72.8311 45.8174L71.7482 45.5071ZM79.2399 42.335H77.7904C77.7904 42.0247 77.8137 41.7202 77.8602 41.4213C77.9068 41.1225 77.9941 40.8065 78.1222 40.4731H79.5718L79.6067 40.3352C79.8396 39.048 80.2878 38.0999 80.9515 37.4907C81.6152 36.8816 82.4942 36.577 83.5887 36.577C83.9264 36.577 84.2233 36.5943 84.4794 36.6287C84.7472 36.6632 85.0149 36.7207 85.2828 36.8011C85.2013 37.1804 85.1081 37.5194 85.0033 37.8183C84.8985 38.1171 84.7647 38.4159 84.6016 38.7147C84.4503 38.6688 84.2989 38.6343 84.1475 38.6113C83.9962 38.5768 83.8332 38.5596 83.6585 38.5596C83.449 38.5596 83.2568 38.5883 83.0822 38.6458C82.9192 38.6917 82.7678 38.7779 82.6281 38.9044C82.5 39.0308 82.3836 39.2089 82.2788 39.4388C82.1856 39.6687 82.1042 39.9617 82.0343 40.318L81.9994 40.4731H83.903C83.903 40.8065 83.8797 41.1168 83.8332 41.4041C83.7866 41.6799 83.6993 41.9902 83.5712 42.335H81.6675L80.4101 49.2997C80.2587 50.1387 80.0492 50.834 79.7813 51.3857C79.5252 51.9374 79.2225 52.3741 78.8732 52.6959C78.5239 53.0292 78.128 53.259 77.6856 53.3855C77.2431 53.5234 76.7658 53.5924 76.2535 53.5924C75.7179 53.5924 75.1881 53.5119 74.6642 53.351C74.7224 52.6614 74.9145 52.0408 75.2405 51.4891C75.3686 51.5351 75.5141 51.5696 75.6771 51.5926C75.8285 51.6271 75.9507 51.6443 76.0439 51.6443C76.2651 51.6443 76.4746 51.6098 76.6726 51.5409C76.8706 51.4834 77.051 51.357 77.214 51.1616C77.3887 50.9777 77.54 50.7191 77.6681 50.3858C77.8078 50.0525 77.9242 49.6158 78.0174 49.0756L79.2399 42.335ZM87.4375 49.5928C86.7039 49.5928 86.0636 49.4779 85.5163 49.248C84.9808 49.0067 84.5325 48.6791 84.1716 48.2654C83.8223 47.8402 83.5544 47.3459 83.3682 46.7828C83.1935 46.2196 83.1062 45.6105 83.1062 44.9554C83.1062 44.3003 83.1935 43.6855 83.3682 43.1108C83.5544 42.5361 83.8223 42.0419 84.1716 41.6282C84.5325 41.203 84.9808 40.8696 85.5163 40.6283C86.0636 40.3869 86.7039 40.2663 87.4375 40.2663C88.171 40.2663 88.8111 40.3869 89.3586 40.6283C89.9061 40.8696 90.3602 41.203 90.7209 41.6282C91.0815 42.0419 91.3496 42.5361 91.5242 43.1108C91.6989 43.6855 91.7862 44.3003 91.7862 44.9554C91.7862 45.6105 91.6989 46.2196 91.5242 46.7828C91.3496 47.3459 91.0815 47.8402 90.7209 48.2654C90.3602 48.6791 89.9061 49.0067 89.3586 49.248C88.8111 49.4779 88.171 49.5928 87.4375 49.5928ZM87.4375 47.7309C88.0898 47.7309 88.5552 47.4954 88.8347 47.0241C89.1255 46.5414 89.2713 45.8518 89.2713 44.9554C89.2713 44.0589 89.1255 43.3751 88.8347 42.9039C88.5552 42.4212 88.0898 42.1798 87.4375 42.1798C86.7971 42.1798 86.3313 42.4212 86.0403 42.9039C85.7609 43.3751 85.6211 44.0589 85.6211 44.9554C85.6211 45.8518 85.7609 46.5414 86.0403 47.0241C86.3313 47.4954 86.7971 47.7309 87.4375 47.7309ZM93.3947 40.4731C93.5694 40.4387 93.7318 40.4156 93.8837 40.4042C94.0462 40.3812 94.2208 40.3697 94.4077 40.3697C94.5823 40.3697 94.7509 40.3812 94.9141 40.4042C95.0888 40.4272 95.2573 40.4559 95.4206 40.4904C95.4556 40.5479 95.4844 40.6341 95.508 40.749C95.5429 40.8524 95.5717 40.9673 95.5953 41.0938C95.618 41.2087 95.6354 41.3293 95.6477 41.4558C95.6704 41.5707 95.6878 41.6684 95.7001 41.7489C95.9559 41.3926 96.2703 41.0765 96.6432 40.8007C97.0152 40.5134 97.4815 40.3697 98.0403 40.3697C98.1565 40.3697 98.2901 40.3755 98.442 40.3869C98.5931 40.3984 98.704 40.4156 98.7739 40.4387C98.7966 40.5536 98.814 40.6858 98.8263 40.8352C98.8376 40.9845 98.8437 41.1397 98.8437 41.3006C98.8437 41.496 98.8315 41.7086 98.8088 41.9385C98.7966 42.1684 98.7678 42.3867 98.7215 42.5936C98.5931 42.5706 98.4473 42.5591 98.2849 42.5591C98.1329 42.5591 98.0404 42.5591 98.0054 42.5591C97.8072 42.5591 97.5863 42.5821 97.3418 42.6281C97.0972 42.6625 96.8641 42.766 96.6432 42.9384C96.4214 43.1108 96.2354 43.3694 96.0843 43.7142C95.9446 44.0589 95.8747 44.5416 95.8747 45.1623V49.4032C95.6651 49.4376 95.4556 49.4607 95.246 49.4721C95.0364 49.4836 94.8321 49.4894 94.6347 49.4894C94.4365 49.4894 94.233 49.4836 94.0234 49.4721C93.8252 49.4607 93.6156 49.4376 93.3947 49.4032V40.4731ZM105.876 47.2827C106.016 47.5126 106.133 47.7827 106.225 48.093C106.319 48.3918 106.365 48.7481 106.365 49.1618C105.9 49.3457 105.463 49.4607 105.055 49.5066C104.648 49.5641 104.223 49.5928 103.78 49.5928C103.024 49.5928 102.366 49.4779 101.807 49.248C101.248 49.0067 100.782 48.6791 100.409 48.2654C100.049 47.8516 99.7755 47.3631 99.5886 46.8C99.4026 46.2253 99.3092 45.6047 99.3092 44.9382C99.3092 44.2831 99.3965 43.6739 99.5711 43.1108C99.758 42.5476 100.031 42.0534 100.392 41.6282C100.765 41.203 101.225 40.8696 101.772 40.6283C102.319 40.3869 102.954 40.2663 103.675 40.2663C103.932 40.2663 104.164 40.272 104.374 40.2835C104.596 40.295 104.805 40.318 105.003 40.3525C105.201 40.3869 105.399 40.4329 105.596 40.4904C105.795 40.5479 106.016 40.6225 106.26 40.7145C106.26 40.9789 106.225 41.2776 106.155 41.6109C106.086 41.9327 105.975 42.243 105.824 42.5419C105.474 42.427 105.166 42.3522 104.898 42.3178C104.642 42.2718 104.345 42.2488 104.007 42.2488C103.286 42.2488 102.738 42.4844 102.366 42.9556C102.005 43.4153 101.824 44.0762 101.824 44.9382C101.824 45.8691 102.022 46.5472 102.418 46.9724C102.814 47.3976 103.35 47.6103 104.025 47.6103C104.199 47.6103 104.356 47.6103 104.496 47.6103C104.648 47.5988 104.793 47.5816 104.933 47.5585C105.073 47.5355 105.212 47.5011 105.352 47.4551C105.504 47.4092 105.679 47.3517 105.876 47.2827ZM109.474 45.6795C109.52 46.369 109.764 46.869 110.207 47.1793C110.649 47.4896 111.231 47.6447 111.954 47.6447C112.349 47.6447 112.751 47.6103 113.159 47.5413C113.578 47.4609 113.973 47.3517 114.346 47.2138C114.474 47.4436 114.585 47.7195 114.678 48.0413C114.771 48.363 114.823 48.7078 114.835 49.0756C113.927 49.4204 112.902 49.5928 111.762 49.5928C110.923 49.5928 110.201 49.4779 109.596 49.248C109.002 49.0181 108.513 48.7021 108.129 48.2998C107.756 47.8861 107.477 47.3976 107.291 46.8345C107.116 46.2714 107.029 45.6564 107.029 44.9899C107.029 44.3348 107.121 43.7199 107.308 43.1453C107.494 42.5706 107.767 42.0706 108.129 41.6454C108.501 41.2202 108.955 40.8869 109.491 40.6455C110.038 40.3927 110.673 40.2663 111.395 40.2663C112.024 40.2663 112.582 40.3755 113.071 40.5938C113.56 40.8122 113.973 41.111 114.311 41.4903C114.661 41.8695 114.923 42.3235 115.097 42.8522C115.272 43.3694 115.359 43.9268 115.359 44.5244C115.359 44.7427 115.347 44.9612 115.324 45.1795C115.312 45.3864 115.295 45.553 115.272 45.6795H109.474ZM113.019 43.9727C112.995 43.4211 112.838 42.9786 112.547 42.6453C112.268 42.3005 111.872 42.1281 111.36 42.1281C110.777 42.1281 110.335 42.2891 110.033 42.6108C109.73 42.9326 109.549 43.3866 109.491 43.9727H113.019Z" fill="white"/>
<path d="M148.242 26.4335C148.242 27.2063 147.95 27.8022 147.367 28.2214C146.784 28.6406 145.965 28.8502 144.911 28.8502C143.795 28.8502 142.926 28.6759 142.301 28.3274V27.1607C142.706 27.3628 143.138 27.5219 143.598 27.638C144.064 27.7542 144.512 27.8123 144.941 27.8123C145.607 27.8123 146.118 27.7088 146.476 27.5017C146.834 27.2895 147.013 26.9689 147.013 26.5395C147.013 26.2163 146.87 25.9411 146.584 25.7138C146.303 25.4815 145.75 25.2087 144.926 24.8956C144.143 24.6077 143.586 24.3577 143.253 24.1456C142.926 23.9284 142.68 23.6834 142.516 23.4107C142.357 23.1379 142.279 22.8122 142.279 22.4333C142.279 21.7566 142.557 21.2237 143.115 20.8349C143.672 20.4409 144.437 20.2439 145.41 20.2439C146.316 20.2439 147.2 20.4257 148.066 20.7894L147.612 21.8121C146.768 21.4687 146.003 21.297 145.318 21.297C144.714 21.297 144.258 21.3904 143.952 21.5773C143.644 21.7642 143.491 22.0218 143.491 22.3501C143.491 22.5723 143.548 22.7617 143.66 22.9182C143.777 23.0748 143.964 23.2238 144.22 23.3652C144.476 23.5067 144.967 23.7112 145.694 23.9789C146.691 24.3374 147.364 24.6986 147.712 25.0622C148.066 25.4259 148.242 25.883 148.242 26.4335ZM151.125 28.6987H149.851V20.3955H151.125V28.6987ZM149.743 18.1454C149.743 17.8576 149.815 17.6479 149.958 17.5166C150.101 17.3802 150.28 17.312 150.495 17.312C150.699 17.312 150.876 17.3802 151.024 17.5166C151.173 17.6529 151.247 17.8626 151.247 18.1454C151.247 18.4283 151.173 18.6404 151.024 18.7818C150.876 18.9181 150.699 18.9863 150.495 18.9863C150.28 18.9863 150.101 18.9181 149.958 18.7818C149.815 18.6404 149.743 18.4283 149.743 18.1454ZM154.628 28.6987H153.354V16.9105H154.628V28.6987ZM158.7 28.6987L155.507 20.3955H156.874L158.685 25.3198C159.095 26.4713 159.335 27.2188 159.406 27.5623H159.468C159.524 27.2946 159.701 26.7416 159.998 25.9031C160.299 25.0597 160.972 23.2238 162.016 20.3955H163.382L160.19 28.6987H158.7ZM167.815 28.8502C166.571 28.8502 165.589 28.4765 164.868 27.729C164.152 26.9815 163.793 25.9436 163.793 24.6153C163.793 23.2769 164.125 22.2137 164.791 21.4258C165.461 20.6379 166.359 20.2439 167.485 20.2439C168.539 20.2439 169.373 20.5873 169.987 21.2743C170.6 21.9561 170.908 22.8576 170.908 23.9789V24.7744H165.113C165.139 25.7491 165.387 26.489 165.858 26.9941C166.334 27.4992 167.001 27.7517 167.861 27.7517C168.767 27.7517 169.662 27.5648 170.547 27.1911V28.3123C170.097 28.5042 169.67 28.6406 169.265 28.7214C168.866 28.8073 168.382 28.8502 167.815 28.8502ZM167.469 21.297C166.794 21.297 166.254 21.5141 165.85 21.9485C165.451 22.3829 165.215 22.9839 165.144 23.7516H169.542C169.542 22.9586 169.362 22.3526 169.004 21.9334C168.646 21.5091 168.134 21.297 167.469 21.297ZM176.454 20.2439C176.827 20.2439 177.162 20.2743 177.459 20.3349L177.282 21.5016C176.934 21.4258 176.628 21.3879 176.361 21.3879C175.681 21.3879 175.098 21.6607 174.611 22.2061C174.13 22.7516 173.89 23.4309 173.89 24.244V28.6987H172.616V20.3955H173.667L173.813 21.9334H173.874C174.187 21.3929 174.563 20.9763 175.002 20.6834C175.443 20.3904 175.926 20.2439 176.454 20.2439ZM185.534 28.8502C184.316 28.8502 183.372 28.4815 182.702 27.7441C182.036 27.0016 181.704 25.9536 181.704 24.6001C181.704 23.2112 182.042 22.138 182.718 21.3804C183.398 20.6228 184.364 20.2439 185.618 20.2439C186.023 20.2439 186.427 20.2869 186.83 20.3727C187.235 20.4586 187.553 20.5596 187.782 20.6758L187.391 21.7439C187.11 21.6328 186.803 21.542 186.47 21.4712C186.138 21.3954 185.844 21.3576 185.588 21.3576C183.879 21.3576 183.024 22.4333 183.024 24.5849C183.024 25.6051 183.231 26.388 183.646 26.9334C184.065 27.479 184.684 27.7517 185.503 27.7517C186.204 27.7517 186.923 27.6027 187.66 27.3047V28.4184C187.097 28.7063 186.389 28.8502 185.534 28.8502ZM196.452 24.5395C196.452 25.893 196.107 26.9512 195.416 27.7138C194.725 28.4714 193.771 28.8502 192.553 28.8502C191.801 28.8502 191.133 28.6759 190.55 28.3274C189.966 27.9789 189.517 27.479 189.199 26.8274C188.882 26.1759 188.723 25.4133 188.723 24.5395C188.723 23.1859 189.066 22.1329 189.751 21.3804C190.437 20.6228 191.389 20.2439 192.607 20.2439C193.783 20.2439 194.718 20.6303 195.408 21.403C196.104 22.1758 196.452 23.2213 196.452 24.5395ZM190.043 24.5395C190.043 25.6001 190.258 26.4082 190.688 26.9638C191.118 27.5193 191.749 27.7971 192.583 27.7971C193.417 27.7971 194.05 27.5219 194.479 26.9714C194.914 26.4158 195.131 25.6051 195.131 24.5395C195.131 23.4839 194.914 22.6834 194.479 22.138C194.05 21.5874 193.413 21.3122 192.569 21.3122C191.735 21.3122 191.105 21.5823 190.681 22.1228C190.255 22.6631 190.043 23.4688 190.043 24.5395ZM203.977 28.6987V23.3274C203.977 22.6506 203.822 22.1455 203.509 21.8121C203.198 21.4788 202.709 21.3122 202.043 21.3122C201.164 21.3122 200.519 21.547 200.11 22.0167C199.7 22.4864 199.495 23.2617 199.495 24.3425V28.6987H198.221V20.3955H199.258L199.465 21.5318H199.527C199.787 21.1227 200.153 20.8071 200.623 20.5849C201.095 20.3575 201.619 20.2439 202.197 20.2439C203.21 20.2439 203.972 20.4864 204.484 20.9713C204.996 21.451 205.251 22.2213 205.251 23.2819V28.6987H203.977ZM212.831 26.4335C212.831 27.2063 212.54 27.8022 211.956 28.2214C211.373 28.6406 210.555 28.8502 209.501 28.8502C208.385 28.8502 207.515 28.6759 206.891 28.3274V27.1607C207.295 27.3628 207.727 27.5219 208.188 27.638C208.654 27.7542 209.101 27.8123 209.531 27.8123C210.196 27.8123 210.707 27.7088 211.065 27.5017C211.424 27.2895 211.603 26.9689 211.603 26.5395C211.603 26.2163 211.46 25.9411 211.174 25.7138C210.892 25.4815 210.339 25.2087 209.515 24.8956C208.733 24.6077 208.175 24.3577 207.842 24.1456C207.515 23.9284 207.27 23.6834 207.105 23.4107C206.947 23.1379 206.868 22.8122 206.868 22.4333C206.868 21.7566 207.146 21.2237 207.704 20.8349C208.262 20.4409 209.027 20.2439 209.999 20.2439C210.905 20.2439 211.79 20.4257 212.655 20.7894L212.202 21.8121C211.357 21.4687 210.592 21.297 209.907 21.297C209.303 21.297 208.847 21.3904 208.541 21.5773C208.234 21.7642 208.081 22.0218 208.081 22.3501C208.081 22.5723 208.137 22.7617 208.249 22.9182C208.367 23.0748 208.554 23.2238 208.81 23.3652C209.065 23.5067 209.557 23.7112 210.283 23.9789C211.281 24.3374 211.954 24.6986 212.302 25.0622C212.655 25.4259 212.831 25.883 212.831 26.4335ZM215.637 20.3955V25.7819C215.637 26.4588 215.793 26.9638 216.105 27.2971C216.417 27.6304 216.906 27.7971 217.571 27.7971C218.451 27.7971 219.093 27.5598 219.497 27.085C219.907 26.6102 220.111 25.8349 220.111 24.7592V20.3955H221.385V28.6987H220.334L220.15 27.585H220.081C219.82 27.9941 219.456 28.3073 218.991 28.5245C218.53 28.7416 218.003 28.8502 217.41 28.8502C216.386 28.8502 215.619 28.6103 215.107 28.1305C214.6 27.6507 214.347 26.883 214.347 25.8274V20.3955H215.637ZM224.897 28.6987H223.623V16.9105H224.897V28.6987ZM229.845 27.8123C230.069 27.8123 230.286 27.7971 230.497 27.7668C230.706 27.7315 230.872 27.6961 230.995 27.6608V28.6229C230.857 28.6886 230.652 28.7416 230.382 28.782C230.115 28.8275 229.875 28.8502 229.66 28.8502C228.033 28.8502 227.22 28.0042 227.22 26.3122V21.3728H226.014V20.7667L227.22 20.2439L227.757 18.4712H228.494V20.3955H230.934V21.3728H228.494V26.2592C228.494 26.7592 228.613 27.1431 228.854 27.4108C229.094 27.6784 229.424 27.8123 229.845 27.8123ZM233.486 28.6987H232.212V20.3955H233.486V28.6987ZM232.104 18.1454C232.104 17.8576 232.176 17.6479 232.32 17.5166C232.463 17.3802 232.642 17.312 232.857 17.312C233.062 17.312 233.238 17.3802 233.386 17.5166C233.535 17.6529 233.609 17.8626 233.609 18.1454C233.609 18.4283 233.535 18.6404 233.386 18.7818C233.238 18.9181 233.062 18.9863 232.857 18.9863C232.642 18.9863 232.463 18.9181 232.32 18.7818C232.176 18.6404 232.104 18.4283 232.104 18.1454ZM241.473 28.6987V23.3274C241.473 22.6506 241.316 22.1455 241.005 21.8121C240.692 21.4788 240.204 21.3122 239.538 21.3122C238.658 21.3122 238.014 21.547 237.604 22.0167C237.195 22.4864 236.99 23.2617 236.99 24.3425V28.6987H235.716V20.3955H236.753L236.96 21.5318H237.021C237.282 21.1227 237.648 20.8071 238.118 20.5849C238.589 20.3575 239.114 20.2439 239.692 20.2439C240.705 20.2439 241.467 20.4864 241.979 20.9713C242.491 21.451 242.747 22.2213 242.747 23.2819V28.6987H241.473ZM251.785 20.3955V21.1909L250.226 21.3728C250.37 21.5496 250.498 21.7819 250.61 22.0698C250.723 22.3526 250.779 22.6733 250.779 23.0319C250.779 23.845 250.497 24.4941 249.934 24.9789C249.372 25.4638 248.599 25.7062 247.617 25.7062C247.366 25.7062 247.131 25.686 246.911 25.6456C246.368 25.9284 246.097 26.2845 246.097 26.7138C246.097 26.941 246.192 27.1102 246.381 27.2213C246.571 27.3275 246.895 27.3805 247.356 27.3805H248.844C249.755 27.3805 250.454 27.5698 250.94 27.9487C251.431 28.3274 251.677 28.878 251.677 29.6002C251.677 30.5194 251.303 31.2189 250.556 31.6988C249.809 32.1836 248.72 32.426 247.287 32.426C246.186 32.426 245.338 32.224 244.738 31.82C244.146 31.4159 243.849 30.8452 243.849 30.1078C243.849 29.6027 244.012 29.1659 244.339 28.7972C244.667 28.4284 245.128 28.1785 245.721 28.0471C245.506 27.9512 245.324 27.8022 245.176 27.6002C245.033 27.3981 244.961 27.1633 244.961 26.8956C244.961 26.5925 245.043 26.3274 245.207 26.1002C245.371 25.8729 245.629 25.6532 245.982 25.441C245.547 25.2642 245.192 24.9638 244.915 24.5395C244.644 24.1152 244.509 23.6304 244.509 23.0849C244.509 22.1758 244.785 21.4763 245.338 20.9864C245.89 20.4914 246.673 20.2439 247.686 20.2439C248.126 20.2439 248.522 20.2945 248.876 20.3955H251.785ZM245.076 30.0927C245.076 30.5422 245.269 30.8831 245.652 31.1154C246.036 31.3477 246.586 31.4639 247.302 31.4639C248.371 31.4639 249.162 31.3048 249.674 30.9866C250.19 30.6735 250.449 30.2467 250.449 29.7062C250.449 29.2568 250.308 28.9437 250.027 28.7669C249.746 28.5952 249.216 28.5093 248.438 28.5093H246.911C246.332 28.5093 245.882 28.6457 245.56 28.9184C245.238 29.1911 245.076 29.5825 245.076 30.0927ZM245.767 23.0546C245.767 23.6355 245.933 24.0748 246.266 24.3728C246.598 24.6708 247.061 24.8198 247.655 24.8198C248.899 24.8198 249.52 24.2238 249.52 23.0319C249.52 21.7844 248.891 21.1606 247.632 21.1606C247.033 21.1606 246.573 21.3198 246.251 21.6379C245.929 21.9561 245.767 22.4283 245.767 23.0546ZM151.995 55.7229C150.9 55.7229 149.897 55.5258 148.986 55.1319C148.086 54.7279 147.329 54.1117 146.715 53.2834H146.53C146.653 54.2531 146.715 55.1723 146.715 56.041V62.8745H144.167V38.8134H146.239L146.592 41.0862H146.715C147.37 40.177 148.132 39.5205 149.002 39.1164C149.871 38.7124 150.87 38.5103 151.995 38.5103C154.225 38.5103 155.945 39.2629 157.153 40.768C158.37 42.273 158.979 44.3842 158.979 47.1014C158.979 49.8288 158.36 51.95 157.122 53.4652C155.893 54.9703 154.184 55.7229 151.995 55.7229ZM151.627 40.6467C149.907 40.6467 148.664 41.1164 147.896 42.0559C147.129 42.9953 146.735 44.4903 146.715 46.5408V47.1014C146.715 49.4348 147.109 51.1066 147.896 52.1167C148.685 53.1167 149.948 53.6167 151.688 53.6167C153.141 53.6167 154.277 53.0359 155.095 51.8743C155.925 50.7127 156.339 49.1115 156.339 47.0712C156.339 45.0004 155.925 43.4145 155.095 42.3134C154.277 41.2024 153.121 40.6467 151.627 40.6467ZM172.849 55.4198L172.342 53.0561H172.219C171.38 54.0965 170.541 54.8037 169.702 55.1774C168.873 55.541 167.834 55.7229 166.586 55.7229C164.918 55.7229 163.608 55.2986 162.657 54.4501C161.715 53.6016 161.244 52.3945 161.244 50.8288C161.244 47.4752 163.961 45.7175 169.395 45.5559L172.25 45.4651V44.4348C172.25 43.1316 171.964 42.1721 171.391 41.5558C170.827 40.9296 169.922 40.6165 168.673 40.6165C167.272 40.6165 165.685 41.0407 163.915 41.8892L163.133 39.9649C163.961 39.5205 164.867 39.172 165.849 38.9194C166.842 38.667 167.834 38.5407 168.827 38.5407C170.833 38.5407 172.316 38.98 173.279 39.8589C174.251 40.7377 174.737 42.1468 174.737 44.0863V55.4198H172.849ZM167.093 53.6471C168.678 53.6471 169.922 53.2177 170.822 52.3591C171.733 51.5005 172.189 50.2985 172.189 48.753V47.253L169.641 47.359C167.614 47.4298 166.151 47.7429 165.25 48.2985C164.36 48.8439 163.915 49.6974 163.915 50.8591C163.915 51.7682 164.191 52.4601 164.744 52.9349C165.307 53.4097 166.089 53.6471 167.093 53.6471ZM186.734 38.5103C187.48 38.5103 188.151 38.5709 188.745 38.6922L188.391 41.0256C187.696 40.874 187.081 40.7983 186.549 40.7983C185.188 40.7983 184.022 41.3437 183.049 42.4346C182.088 43.5256 181.607 44.8842 181.607 46.5106V55.4198H179.059V38.8134H181.161L181.453 41.8892H181.576C182.201 40.8083 182.952 39.975 183.833 39.3891C184.713 38.8033 185.68 38.5103 186.734 38.5103ZM196.382 53.6471C196.833 53.6471 197.267 53.6167 197.687 53.5561C198.107 53.4855 198.438 53.4147 198.685 53.344V55.2683C198.408 55.3996 197.998 55.5057 197.456 55.5865C196.924 55.6774 196.443 55.7229 196.013 55.7229C192.759 55.7229 191.132 54.0309 191.132 50.647V40.768H188.722V39.5558L191.132 38.5103L192.207 34.9648H193.68V38.8134H198.562V40.768H193.68V50.5409C193.68 51.5409 193.921 52.3086 194.401 52.844C194.883 53.3793 195.543 53.6471 196.382 53.6471ZM212.63 55.4198V44.6771C212.63 43.3236 212.319 42.3134 211.694 41.6468C211.07 40.9801 210.093 40.6467 208.763 40.6467C207.002 40.6467 205.713 41.1164 204.894 42.0559C204.076 42.9953 203.667 44.5459 203.667 46.7075V55.4198H201.118V38.8134H203.191L203.605 41.0862H203.728C204.25 40.268 204.982 39.6367 205.923 39.1922C206.864 38.7376 207.913 38.5103 209.069 38.5103C211.096 38.5103 212.621 38.9952 213.644 39.9649C214.667 40.9245 215.178 42.465 215.178 44.5862V55.4198H212.63ZM226.593 55.7229C224.106 55.7229 222.141 54.9754 220.698 53.4804C219.265 51.9854 218.549 49.9096 218.549 47.253C218.549 44.5761 219.215 42.4498 220.545 40.874C221.885 39.2983 223.681 38.5103 225.932 38.5103C228.04 38.5103 229.708 39.1972 230.936 40.571C232.165 41.9347 232.779 43.7378 232.779 45.9802V47.5711H221.189C221.24 49.5206 221.736 51.0005 222.678 52.0106C223.63 53.0208 224.965 53.5258 226.684 53.5258C228.495 53.5258 230.286 53.152 232.057 52.4046V54.647C231.156 55.0309 230.302 55.3036 229.493 55.4652C228.695 55.637 227.729 55.7229 226.593 55.7229ZM225.902 40.6165C224.551 40.6165 223.472 41.0508 222.663 41.9195C221.865 42.7882 221.394 43.9902 221.251 45.5257H230.046C230.046 43.9397 229.688 42.7276 228.971 41.8892C228.255 41.0407 227.232 40.6165 225.902 40.6165ZM243.87 38.5103C244.616 38.5103 245.287 38.5709 245.881 38.6922L245.527 41.0256C244.832 40.874 244.217 40.7983 243.685 40.7983C242.324 40.7983 241.158 41.3437 240.185 42.4346C239.224 43.5256 238.743 44.8842 238.743 46.5106V55.4198H236.195V38.8134H238.297L238.589 41.8892H238.712C239.337 40.8083 240.088 39.975 240.969 39.3891C241.849 38.8033 242.816 38.5103 243.87 38.5103Z" fill="white"/>
</svg>
