<svg width="300" height="216" viewBox="0 0 300 216" fill="none" xmlns="http://www.w3.org/2000/svg">
<path d="M277.952 215.93C295.585 215.93 306.206 197.864 295.863 185.008C295.654 184.73 295.446 184.452 295.168 184.174C288.851 177.017 279.202 174.446 270.732 170.416C268.372 169.304 266.012 167.983 264.345 165.899C262.055 162.98 261.499 158.95 261.985 155.198C263.929 139.563 280.937 129.973 283.714 114.477C285.797 102.734 278.646 90.8513 268.927 84.6669C259.208 78.4824 247.476 76.8842 236.161 76.3978C224.776 75.9113 213.321 76.3283 202.283 73.5487C199.368 72.7844 196.382 71.742 194.369 69.3794C192.148 66.7389 191.662 62.8475 192.009 59.3036C192.981 49.7837 214.71 16.9157 203.811 6.07549C199.506 1.8367 193.744 -0.52591 187.844 0.0994856C182.012 0.933347 176.528 3.57391 171.46 6.6314C160.631 13.0243 122.866 55.3428 109.329 61.7357C96 67.9897 80.658 66.183 66.0102 65.8355C51.3624 65.5576 35.118 67.7117 25.5379 79.3163C22.1363 83.4161 19.8454 88.9752 20.9561 94.2563C21.6503 97.5917 23.6635 100.441 25.885 102.873C31.0221 108.432 37.6865 112.254 42.546 118.091C47.4054 123.928 49.974 133.17 45.3922 139.285C43.5873 141.647 41.0187 143.176 38.5196 144.566C24.4271 152.557 8.5992 160.687 2.42075 176.183C-0.703187 184.105 -0.633766 192.86 1.65712 201.06C4.15627 209.746 12.8339 215.861 22.8305 215.861H277.952V215.93Z" fill="#CAE2FF"/>
<path opacity="0.41" d="M295.168 184.244C288.851 177.086 279.201 174.515 270.732 170.485C268.372 169.373 266.011 168.053 264.345 165.968C262.054 163.05 261.499 159.02 261.985 155.267C263.929 139.632 280.937 130.043 283.714 114.547C285.796 102.803 278.646 90.9208 268.927 84.7364C259.208 78.5519 247.476 76.9537 236.16 76.4673C224.775 75.9808 213.321 76.3978 202.283 73.6182C199.367 72.8539 196.382 71.8115 194.369 69.4489C192.148 66.8084 191.662 62.917 192.009 59.3731C192.981 49.8532 214.709 16.9852 203.81 6.14498C200.131 2.60107 195.202 0.377441 190.204 0.238464C197.076 2.11465 202.075 6.07549 198.465 14.1361C189.996 32.759 111.55 94.6732 166.67 100.788C221.79 106.903 130.502 155.962 172.085 159.367C203.81 161.938 138.694 199.184 106.205 216H278.021C295.654 216 306.275 197.933 295.932 185.078C295.654 184.73 295.446 184.522 295.168 184.244Z" fill="#A6CEF4"/>
<path d="M45.184 51.7294C45.184 51.7294 102.317 71.3946 127.725 25.3933C153.133 -20.6081 -2.78579 34.6352 45.184 51.7294Z" fill="#CAE2FF"/>
<path opacity="0.41" d="M115.368 7.53476C119.395 10.2448 120.228 15.109 115.993 22.7527C98.013 55.2733 64.205 54.9954 45.8779 52.0074C52.5423 54.092 103.983 68.4066 127.656 25.4628C134.737 12.7464 127.864 7.74322 115.368 7.53476Z" fill="#A6CEF4"/>
<path d="M26.3707 194.736C26.3707 194.736 24.2881 192.79 25.6765 185.424C27.0649 178.059 30.6054 170.901 28.8699 162.91C27.1344 154.919 13.4585 134.628 13.4585 133.308C13.389 131.988 9.22379 156.865 16.3047 166.663C23.3856 176.46 24.2187 179.865 23.8716 185.008C23.5245 190.15 23.941 194.319 24.7046 195.5L26.3707 194.736Z" fill="#4286E8"/>
<path d="M25.0519 179.866C24.2188 183.132 23.7329 191.471 25.0519 193.416C25.1907 193.625 25.3295 193.486 25.5378 193.138C25.1213 191.749 24.8436 189.386 25.6072 185.356C26.9956 177.99 30.5361 170.832 28.8006 162.841C27.0651 154.85 13.3892 134.56 13.3892 133.239C13.3892 133.239 15.4718 150.125 22.3444 161.66C27.4122 170.068 25.8849 176.6 25.0519 179.866Z" fill="#1D54B5"/>
<path d="M28.8701 194.25C28.8701 194.25 24.8437 184.243 31.6469 175.557C38.4501 166.871 49.3492 155.753 49.5575 151.306C49.5575 151.306 52.3343 172.291 43.5179 178.198C34.7014 184.104 28.4535 185.077 29.9808 194.18L28.8701 194.25Z" fill="#4286E8"/>
<path d="M38.3809 173.959C28.5231 181.117 27.6901 189.455 29.2173 193.277C29.3562 193.555 29.5644 193.764 29.8421 193.833C28.5231 185.008 34.7016 184.035 43.3792 178.129C52.1956 172.222 49.4188 151.237 49.4188 151.237C49.4188 151.237 48.3081 166.802 38.3809 173.959Z" fill="#1D54B5"/>
<path d="M22.275 194.459C22.275 194.459 23.594 189.177 22.8998 183.41C22.2056 177.712 16.2354 174.446 10.6123 168.4C7.76603 165.273 6.86356 148.805 8.6685 147.276C8.6685 147.276 -1.18925 159.228 0.338003 167.983C1.86526 176.739 17.9709 182.437 19.4287 186.676C20.8866 190.915 20.8171 194.459 20.8171 194.459H22.275Z" fill="#4286E8"/>
<path d="M5.33601 152C2.07323 160.825 5.40543 171.526 16.2351 178.197C24.2185 183.061 21.6499 193.276 21.6499 193.276L22.9689 189.246C23.1077 187.509 23.1077 185.494 22.8301 183.409C22.1358 177.711 16.1657 174.445 10.5426 168.399C7.76574 165.411 6.86327 149.985 8.39052 147.483C8.04342 148.109 6.72443 149.707 5.33601 152Z" fill="#1D54B5"/>
<path d="M8.45996 147.483C8.59834 147.345 8.66753 147.276 8.66753 147.276C8.59834 147.345 8.52915 147.414 8.45996 147.483Z" fill="#49B4D6"/>
<path d="M30.9526 193.764C30.9526 193.764 33.2435 185.147 39.0055 184.035C44.698 182.854 51.2929 174.446 51.64 172.778C51.5706 172.778 50.5987 188.76 30.9526 193.764Z" fill="#4286E8"/>
<path d="M38.6586 186.884C35.1875 188.621 33.7297 190.984 33.1743 193.138C50.7378 187.51 51.6402 172.778 51.6402 172.778C51.5708 173.126 51.2237 173.681 50.7378 174.446C49.0023 177.434 44.837 183.757 38.6586 186.884Z" fill="#1D54B5"/>
<path d="M43.3095 190.637H13.3892L16.9296 213.012C17.2073 214.68 18.6651 215.93 20.4007 215.93H36.298C38.0335 215.93 39.4914 214.68 39.7691 213.012L43.3095 190.637Z" fill="#F95858"/>
<path d="M42.6847 194.32L43.3095 190.637H13.3892L13.9445 194.32H42.6847Z" fill="#E53838"/>
<path d="M36.0203 190.637L32.4798 213.012C32.2021 214.68 30.7443 215.93 29.0088 215.93H36.2286C37.9641 215.93 39.4219 214.68 39.6996 213.012L43.2401 190.637H36.0203Z" fill="#E53838"/>
<path d="M161.117 164.996H154.869V216H161.117V164.996Z" fill="white"/>
<path d="M161.047 164.996H158.618V216H161.047V164.996Z" fill="#E8F2FC"/>
<path d="M175.834 211.831H141.817C140.637 211.831 139.735 212.734 139.735 213.915C139.735 215.097 140.637 216 141.817 216H175.834C177.014 216 177.916 215.097 177.916 213.915C177.916 212.734 177.014 211.831 175.834 211.831Z" fill="white"/>
<path d="M175.834 211.831H141.818C141.054 211.831 140.429 212.248 140.013 212.873H169.517C170.697 212.873 171.599 213.776 171.599 214.958C171.599 215.375 171.46 215.722 171.321 216H175.903C177.083 216 177.986 215.097 177.986 213.915C177.916 212.734 177.014 211.831 175.834 211.831Z" fill="#E8F2FC"/>
<path d="M161.117 164.996H154.869V169.512H161.117V164.996Z" fill="#E8F2FC"/>
<path d="M193.328 93.9089C192.426 93.4919 191.454 93.2835 190.412 93.2835H155.355C151.953 93.2835 148.968 95.7156 148.343 99.1205L137.375 156.587C137.167 157.491 137.236 158.464 137.375 159.297V159.367H127.656C126.059 159.367 124.74 160.687 124.74 162.285C124.74 163.884 126.059 165.204 127.656 165.204H159.173V165.134H179.444C182.845 165.134 185.831 162.702 186.455 159.297L197.424 101.831C198.118 98.4256 196.244 95.2292 193.328 93.9089Z" fill="#FF9933"/>
<path d="M197.493 101.831L186.525 159.298C185.9 162.633 182.915 165.065 179.513 165.065H159.173V165.135H127.656C126.059 165.135 124.74 163.814 124.74 162.216C124.74 160.618 126.059 159.298 127.656 159.298H137.375V159.228C137.444 159.228 137.583 159.228 137.653 159.228H172.71C177.431 159.228 181.457 155.893 182.36 151.237L193.328 93.8394C196.244 95.2292 198.118 98.4256 197.493 101.831Z" fill="#E8F2FC"/>
<path d="M182.429 151.028L182.36 151.376C181.457 156.031 177.431 159.367 172.71 159.367H137.653C137.583 159.367 137.444 159.367 137.375 159.367V159.436H127.656C126.198 159.436 125.018 160.479 124.81 161.869V154.016V153.947C124.602 152.418 125.921 151.028 127.448 151.028H182.429Z" fill="white"/>
<path d="M193.328 93.9089L182.359 151.306C181.457 155.962 177.43 159.297 172.71 159.297H137.652C137.583 159.297 137.444 159.297 137.375 159.297C137.236 158.464 137.166 157.491 137.375 156.587L148.343 99.1205C148.968 95.7851 151.953 93.2835 155.355 93.2835H190.412C191.523 93.353 192.495 93.5614 193.328 93.9089Z" fill="white"/>
<path d="M110.232 80.1502H50.5298C49.1414 80.1502 48.1001 81.401 48.3083 82.7907L53.4455 117.882C53.5843 118.994 54.5562 119.828 55.6669 119.828H115.369C116.757 119.828 117.799 118.577 117.59 117.188L112.453 82.0959C112.384 80.984 111.412 80.1502 110.232 80.1502Z" fill="#1D54B5"/>
<path d="M101.901 80.1502H50.5991C49.2107 80.1502 48.1694 81.401 48.3777 82.7907L50.6685 98.2867C56.1528 100.719 62.4007 102.039 68.9956 102.039C86.0732 102.039 96.1392 92.936 101.901 80.1502Z" fill="#3070CE"/>
<path d="M83.1576 106.973H75.5213H71.842C70.8701 106.973 70.1065 107.807 70.2454 108.779L73.647 132.336C73.647 132.405 73.647 132.475 73.647 132.544L73.7858 133.448C73.9247 134.212 74.5494 134.838 75.3825 134.838H79.0618H86.5592L83.1576 106.973Z" fill="#4286E8"/>
<path d="M99.6798 133.17C99.6798 132.266 98.9162 131.572 98.0832 131.572H89.5444C88.2948 131.572 87.1841 130.668 87.0453 129.417L84.5461 111.073H86.0039C86.9758 111.073 87.7395 110.239 87.6006 109.266L87.4618 108.362C87.3229 107.598 86.6981 106.973 85.8651 106.973H82.88C81.561 106.973 80.4503 108.154 80.6585 109.474L83.7825 132.753C83.9213 133.934 84.9626 134.768 86.0734 134.768H98.0137C98.9856 134.838 99.6798 134.073 99.6798 133.17Z" fill="#1D54B5"/>
<path d="M93.5709 114.755C93.5709 115.381 93.085 115.798 92.5296 115.798C91.9048 115.798 91.4883 115.311 91.4883 114.755C91.4883 114.13 91.9742 113.713 92.5296 113.713C93.085 113.713 93.5709 114.199 93.5709 114.755Z" fill="#4286E8"/>
<path d="M99.0553 114.755C99.0553 115.381 98.5693 115.798 98.014 115.798C97.3892 115.798 96.9727 115.311 96.9727 114.755C96.9727 114.13 97.4586 113.713 98.014 113.713C98.5693 113.713 99.0553 114.199 99.0553 114.755Z" fill="#4286E8"/>
<path d="M102.804 115.798C103.379 115.798 103.845 115.331 103.845 114.755C103.845 114.18 103.379 113.713 102.804 113.713C102.229 113.713 101.763 114.18 101.763 114.755C101.763 115.331 102.229 115.798 102.804 115.798Z" fill="#4286E8"/>
<path d="M109.121 96.4105L112.245 117.882C112.384 118.994 113.356 119.828 114.466 119.828H115.369C116.757 119.828 117.798 118.577 117.59 117.188L112.453 82.0959C112.314 80.984 111.342 80.1502 110.232 80.1502H109.329C107.941 80.1502 106.899 81.401 107.108 82.7907L109.121 96.4105Z" fill="#4286E8"/>
<path d="M86.559 83.972H65.7327C65.2468 83.972 64.8303 84.4585 64.8997 84.9449L65.0385 85.7787C65.1079 86.1957 65.4551 86.4736 65.8716 86.4736H86.6978C87.1838 86.4736 87.6003 85.9872 87.5309 85.5008L87.392 84.6669C87.2532 84.25 86.9061 83.972 86.559 83.972Z" fill="#4286E8"/>
<path d="M171.113 94.6732C170.419 89.6006 162.991 91.9632 165.837 87.238C168.406 82.8602 165.421 80.9145 161.88 80.2196C157.368 79.3163 159.937 77.5791 157.715 73.3403C154.938 67.9897 150.565 69.5879 150.565 69.5879C150.565 69.5879 145.15 66.6694 139.596 71.3251C133.765 76.2588 135.015 80.5671 138.139 86.5431C139.735 89.5311 137.791 92.2411 136.403 97.8002C134.737 104.471 142.929 117.813 160.492 108.779C167.365 105.235 171.461 97.3833 171.113 94.6732Z" fill="#13448C"/>
<path d="M146.885 96.063C146.885 96.063 144.178 96.341 141.471 99.051C139.666 100.858 130.641 118.786 130.641 118.786L122.38 93.4225L116.34 93.9089C116.34 93.9089 123.144 134.768 128.489 134.838C133.487 134.907 149.454 108.501 149.454 108.501L146.885 96.063Z" fill="#F95858"/>
<path d="M164.033 106.764L169.309 126.638L137.931 129.209L138.07 134.907C138.07 134.907 174.238 135.046 181.11 134.977C185.623 134.907 177.084 98.912 171.669 94.8122C167.365 91.5463 155.425 92.4496 155.425 92.4496L146.955 96.063C146.955 96.063 137.098 105.861 142.998 115.033C147.65 122.26 141.749 136.366 141.749 136.366L161.811 137.548L179.722 137.687L164.033 106.764Z" fill="#F95858"/>
<path fill-rule="evenodd" clip-rule="evenodd" d="M155.868 113.325C155.869 113.274 155.87 113.223 155.873 113.17C155.092 113.112 154.474 113.135 153.984 113.206C153.947 113.271 153.912 113.337 153.879 113.403C154.377 113.31 155.025 113.269 155.868 113.325ZM159.766 113.618C159.721 113.67 159.677 113.722 159.634 113.773C161.023 113.835 161.842 113.623 162.325 113.364C162.291 113.311 162.258 113.257 162.224 113.201C161.768 113.446 161.014 113.648 159.766 113.618ZM155.875 113.618C154.917 113.565 154.222 113.641 153.716 113.774C153.688 113.846 153.662 113.917 153.639 113.988C154.141 113.829 154.859 113.728 155.887 113.776C155.882 113.724 155.878 113.671 155.875 113.618ZM159.299 114.196C159.335 114.148 159.372 114.1 159.41 114.051C161.068 114.175 161.996 113.935 162.514 113.643C162.553 113.697 162.591 113.749 162.628 113.798C162.092 114.106 161.106 114.359 159.299 114.196ZM155.929 114.072C154.769 114.028 154.017 114.179 153.528 114.385C153.509 114.463 153.493 114.54 153.478 114.617C153.95 114.38 154.717 114.193 155.962 114.232C155.95 114.18 155.939 114.126 155.929 114.072ZM159.01 114.601C159.04 114.555 159.072 114.509 159.105 114.462C161.214 114.7 162.293 114.403 162.844 114.06C162.889 114.111 162.933 114.158 162.977 114.203C162.419 114.565 161.29 114.886 159.01 114.601ZM156.045 114.531C154.635 114.495 153.851 114.754 153.417 115.037C153.407 115.124 153.4 115.207 153.395 115.288C153.795 114.976 154.577 114.661 156.102 114.693C156.082 114.64 156.063 114.586 156.045 114.531ZM158.764 114.996C158.79 114.951 158.816 114.906 158.845 114.86C161.487 115.237 162.684 114.84 163.225 114.435C163.278 114.48 163.33 114.521 163.379 114.556C162.853 114.984 161.625 115.433 158.764 114.996ZM156.231 114.993C154.483 114.959 153.718 115.385 153.385 115.734C153.386 115.829 153.389 115.92 153.394 116.004C153.667 115.644 154.395 115.122 156.314 115.155C156.285 115.103 156.257 115.048 156.231 114.993ZM158.562 115.385C158.582 115.341 158.604 115.296 158.627 115.25C161.982 115.811 163.215 115.202 163.664 114.734C163.721 114.764 163.779 114.79 163.84 114.812C163.457 115.291 162.268 116.021 158.626 115.396C158.605 115.392 158.583 115.388 158.562 115.385ZM160.03 113.319C160.081 113.262 160.134 113.205 160.188 113.147C161.039 113.104 161.598 112.937 161.966 112.741C161.996 112.799 162.026 112.855 162.056 112.909C161.652 113.122 161.02 113.3 160.03 113.319ZM155.967 112.453C155.977 112.403 155.986 112.353 155.994 112.304C155.545 112.252 155.142 112.224 154.78 112.215C154.722 112.267 154.666 112.321 154.612 112.375C155.008 112.374 155.457 112.397 155.967 112.453ZM160.723 112.598C160.651 112.668 160.582 112.738 160.515 112.806C161.104 112.735 161.521 112.597 161.814 112.44C161.787 112.384 161.759 112.327 161.732 112.267C161.49 112.399 161.164 112.519 160.723 112.598ZM161.191 112.139C161.308 112.022 161.42 111.908 161.526 111.796C161.549 111.852 161.572 111.907 161.595 111.96V111.961C161.481 112.024 161.347 112.085 161.191 112.139ZM159.516 108.07C159.609 108.089 159.699 108.106 159.788 108.122C159.847 108.08 159.898 108.037 159.943 107.994C159.908 107.939 159.875 107.885 159.841 107.832C159.757 107.911 159.651 107.992 159.516 108.07ZM156.032 112.026C156.037 111.976 156.041 111.927 156.044 111.878C155.79 111.844 155.55 111.818 155.322 111.798C155.254 111.843 155.188 111.889 155.123 111.936C155.404 111.955 155.706 111.984 156.032 112.026ZM158.979 107.948C158.87 107.921 158.757 107.892 158.642 107.861C159.074 107.738 159.358 107.571 159.545 107.41C159.582 107.459 159.62 107.51 159.658 107.562C159.507 107.695 159.291 107.833 158.979 107.948ZM156.053 111.452C156.055 111.501 156.055 111.55 156.055 111.6C155.946 111.584 155.84 111.57 155.736 111.556C155.748 111.551 155.759 111.544 155.771 111.538H155.771L155.771 111.538C155.784 111.531 155.797 111.524 155.811 111.517C155.845 111.5 155.877 111.482 155.91 111.464H155.91H155.91C155.925 111.455 155.941 111.446 155.957 111.438C155.989 111.442 156.021 111.447 156.053 111.452ZM155.897 112.884C155.903 112.834 155.909 112.783 155.917 112.732C155.303 112.673 154.782 112.662 154.34 112.685C154.292 112.744 154.247 112.804 154.205 112.864C154.667 112.825 155.224 112.825 155.897 112.884ZM158.181 106.571C158.161 106.43 158.143 106.349 158.143 106.349H158.143C158.143 106.349 158.264 106.356 158.466 106.453C158.374 106.498 158.278 106.537 158.181 106.571ZM158.801 106.657C158.648 106.748 158.457 106.835 158.218 106.91C158.223 106.969 158.227 107.032 158.23 107.098C158.544 107.01 158.781 106.899 158.959 106.783C158.905 106.736 158.852 106.694 158.801 106.657ZM159.206 107.015C158.997 107.172 158.689 107.327 158.237 107.437C158.236 107.498 158.234 107.56 158.232 107.624C158.764 107.509 159.111 107.333 159.336 107.156C159.292 107.106 159.249 107.059 159.207 107.016L159.206 107.015Z" fill="white"/>
<path d="M155.868 113.325L155.866 113.357L155.899 113.359L155.9 113.325L155.868 113.325ZM155.873 113.17L155.905 113.172L155.906 113.141L155.875 113.138L155.873 113.17ZM153.984 113.206L153.979 113.174L153.964 113.176L153.956 113.19L153.984 113.206ZM153.879 113.403L153.85 113.389L153.821 113.446L153.885 113.435L153.879 113.403ZM159.766 113.618L159.766 113.586L159.751 113.586L159.741 113.597L159.766 113.618ZM159.634 113.773L159.61 113.753L159.568 113.802L159.633 113.805L159.634 113.773ZM162.325 113.364L162.34 113.392L162.371 113.375L162.352 113.346L162.325 113.364ZM162.224 113.201L162.251 113.184L162.235 113.158L162.208 113.173L162.224 113.201ZM153.716 113.774L153.707 113.743L153.692 113.747L153.686 113.763L153.716 113.774ZM155.874 113.618L155.906 113.616L155.905 113.587L155.876 113.586L155.874 113.618ZM153.639 113.988L153.608 113.979L153.589 114.038L153.648 114.019L153.639 113.988ZM155.887 113.776L155.886 113.808L155.923 113.81L155.919 113.773L155.887 113.776ZM159.41 114.051L159.412 114.019L159.395 114.018L159.385 114.031L159.41 114.051ZM159.299 114.196L159.273 114.177L159.238 114.223L159.296 114.228L159.299 114.196ZM162.514 113.643L162.539 113.624L162.523 113.601L162.498 113.615L162.514 113.643ZM162.628 113.798L162.644 113.826L162.676 113.808L162.654 113.779L162.628 113.798ZM153.528 114.385L153.515 114.356L153.5 114.362L153.496 114.378L153.528 114.385ZM155.929 114.072L155.961 114.066L155.956 114.041L155.93 114.04L155.929 114.072ZM153.478 114.617L153.447 114.611L153.435 114.674L153.493 114.645L153.478 114.617ZM155.962 114.232L155.961 114.264L156.003 114.265L155.993 114.225L155.962 114.232ZM159.105 114.462L159.109 114.43L159.09 114.428L159.079 114.443L159.105 114.462ZM159.01 114.601L158.983 114.583L158.954 114.627L159.006 114.633L159.01 114.601ZM162.844 114.06L162.867 114.038L162.85 114.018L162.827 114.033L162.844 114.06ZM162.977 114.203L162.994 114.229L163.027 114.208L162.999 114.18L162.977 114.203ZM153.417 115.037L153.399 115.011L153.387 115.019L153.385 115.034L153.417 115.037ZM156.045 114.531L156.075 114.521L156.068 114.5L156.046 114.499L156.045 114.531ZM153.395 115.288L153.363 115.286L153.359 115.357L153.415 115.314L153.395 115.288ZM156.101 114.693L156.101 114.725L156.148 114.726L156.131 114.682L156.101 114.693ZM158.844 114.86L158.849 114.828L158.828 114.825L158.817 114.843L158.844 114.86ZM158.764 114.996L158.736 114.98L158.713 115.02L158.759 115.027L158.764 114.996ZM163.225 114.435L163.246 114.41L163.226 114.394L163.206 114.409L163.225 114.435ZM163.379 114.556L163.399 114.581L163.431 114.555L163.398 114.53L163.379 114.556ZM153.385 115.734L153.362 115.712L153.353 115.721L153.353 115.734L153.385 115.734ZM156.231 114.993L156.259 114.979L156.251 114.961L156.231 114.961L156.231 114.993ZM153.394 116.004L153.363 116.006L153.368 116.091L153.42 116.023L153.394 116.004ZM156.314 115.155L156.314 115.187L156.369 115.188L156.342 115.14L156.314 115.155ZM158.627 115.25L158.632 115.219L158.609 115.215L158.598 115.236L158.627 115.25ZM158.562 115.385L158.533 115.371L158.515 115.409L158.556 115.416L158.562 115.385ZM163.664 114.734L163.678 114.706L163.657 114.695L163.64 114.712L163.664 114.734ZM163.84 114.812L163.865 114.832L163.892 114.798L163.851 114.782L163.84 114.812ZM158.626 115.396L158.632 115.364H158.632L158.626 115.396ZM160.188 113.147L160.186 113.115L160.174 113.116L160.165 113.125L160.188 113.147ZM160.03 113.319L160.006 113.297L159.956 113.352L160.031 113.351L160.03 113.319ZM161.966 112.741L161.994 112.727L161.979 112.698L161.95 112.713L161.966 112.741ZM162.056 112.909L162.071 112.937L162.1 112.922L162.084 112.893L162.056 112.909ZM155.967 112.452L155.963 112.484L155.993 112.487L155.998 112.459L155.967 112.452ZM155.994 112.304L156.025 112.309L156.031 112.276L155.997 112.272L155.994 112.304ZM154.78 112.215L154.781 112.183L154.768 112.183L154.758 112.191L154.78 112.215ZM154.612 112.375L154.589 112.352L154.535 112.407L154.612 112.407L154.612 112.375ZM160.723 112.598L160.717 112.566L160.707 112.568L160.7 112.575L160.723 112.598ZM160.515 112.806L160.492 112.784L160.428 112.849L160.518 112.838L160.515 112.806ZM161.814 112.44L161.829 112.468L161.857 112.454L161.843 112.426L161.814 112.44ZM161.732 112.267L161.761 112.254L161.747 112.223L161.716 112.239L161.732 112.267ZM161.526 111.796L161.556 111.784L161.537 111.739L161.503 111.774L161.526 111.796ZM161.19 112.139L161.168 112.117L161.201 112.17L161.19 112.139ZM161.595 111.96H161.627V111.954L161.624 111.948L161.595 111.96ZM161.595 111.961L161.61 111.989L161.627 111.98V111.961H161.595ZM159.516 108.07L159.5 108.042L159.427 108.084L159.51 108.101L159.516 108.07ZM159.788 108.122L159.782 108.154L159.795 108.156L159.807 108.148L159.788 108.122ZM159.943 107.994L159.964 108.018L159.983 108L159.97 107.978L159.943 107.994ZM159.841 107.832L159.867 107.815L159.847 107.783L159.819 107.809L159.841 107.832ZM156.031 112.026L156.027 112.057L156.06 112.061L156.063 112.029L156.031 112.026ZM156.044 111.878L156.076 111.881L156.078 111.851L156.049 111.847L156.044 111.878ZM155.322 111.798L155.325 111.766L155.314 111.765L155.305 111.771L155.322 111.798ZM155.123 111.936L155.105 111.91L155.033 111.962L155.121 111.968L155.123 111.936ZM158.642 107.861L158.633 107.831L158.523 107.862L158.634 107.892L158.642 107.861ZM158.979 107.948L158.972 107.979L158.981 107.982L158.991 107.978L158.979 107.948ZM159.545 107.41L159.57 107.391L159.55 107.364L159.524 107.386L159.545 107.41ZM159.658 107.562L159.679 107.586L159.701 107.567L159.683 107.543L159.658 107.562ZM156.055 111.6L156.051 111.631L156.087 111.636L156.087 111.6L156.055 111.6ZM156.053 111.452L156.085 111.451L156.084 111.424L156.058 111.42L156.053 111.452ZM155.736 111.556L155.722 111.528L155.629 111.575L155.732 111.588L155.736 111.556ZM155.77 111.538L155.759 111.508L155.757 111.509L155.755 111.51L155.77 111.538ZM155.77 111.538L155.782 111.568L155.784 111.567L155.786 111.566L155.77 111.538ZM155.811 111.517L155.797 111.488L155.796 111.488L155.811 111.517ZM155.91 111.464L155.898 111.434L155.896 111.435L155.894 111.436L155.91 111.464ZM155.91 111.464L155.922 111.493L155.924 111.493L155.925 111.492L155.91 111.464ZM155.957 111.438L155.961 111.406L155.951 111.405L155.942 111.41L155.957 111.438ZM155.897 112.884L155.894 112.916L155.925 112.918L155.929 112.887L155.897 112.884ZM155.917 112.732L155.949 112.737L155.954 112.703L155.92 112.7L155.917 112.732ZM154.34 112.685L154.338 112.653L154.324 112.654L154.315 112.665L154.34 112.685ZM154.204 112.864L154.178 112.845L154.138 112.901L154.207 112.896L154.204 112.864ZM158.143 106.349V106.317H158.103L158.111 106.356L158.143 106.349ZM158.181 106.571L158.149 106.576L158.155 106.614L158.192 106.601L158.181 106.571ZM158.143 106.349L158.145 106.317L158.144 106.317H158.143V106.349ZM158.466 106.453L158.48 106.482L158.54 106.453L158.48 106.424L158.466 106.453ZM158.218 106.91L158.209 106.879L158.184 106.887L158.186 106.913L158.218 106.91ZM158.801 106.657L158.819 106.631L158.802 106.618L158.784 106.629L158.801 106.657ZM158.23 107.098L158.198 107.1L158.2 107.14L158.239 107.129L158.23 107.098ZM158.959 106.783L158.977 106.81L159.013 106.787L158.98 106.759L158.959 106.783ZM158.236 107.437L158.229 107.406L158.205 107.412L158.204 107.437L158.236 107.437ZM159.206 107.015L159.229 106.993L159.209 106.973L159.187 106.99L159.206 107.015ZM158.231 107.624L158.2 107.623L158.198 107.664L158.238 107.656L158.231 107.624ZM159.336 107.156L159.356 107.181L159.383 107.161L159.36 107.135L159.336 107.156ZM159.207 107.016L159.23 106.994L159.229 106.993L159.207 107.016ZM155.9 113.325C155.901 113.275 155.902 113.224 155.905 113.172L155.841 113.169C155.838 113.221 155.837 113.273 155.836 113.325L155.9 113.325ZM155.875 113.138C155.093 113.08 154.472 113.103 153.979 113.174L153.988 113.238C154.476 113.168 155.091 113.144 155.87 113.202L155.875 113.138ZM153.956 113.19C153.918 113.256 153.883 113.322 153.85 113.389L153.907 113.417C153.94 113.352 153.975 113.287 154.012 113.222L153.956 113.19ZM153.885 113.435C154.38 113.342 155.025 113.302 155.866 113.357L155.87 113.293C155.025 113.237 154.375 113.278 153.873 113.372L153.885 113.435ZM159.741 113.597C159.696 113.65 159.652 113.701 159.61 113.753L159.659 113.794C159.701 113.743 159.745 113.691 159.79 113.639L159.741 113.597ZM159.633 113.805C161.024 113.867 161.85 113.655 162.34 113.392L162.31 113.335C161.834 113.591 161.021 113.803 159.636 113.741L159.633 113.805ZM162.352 113.346C162.319 113.294 162.285 113.24 162.251 113.184L162.196 113.217C162.231 113.274 162.264 113.328 162.298 113.381L162.352 113.346ZM162.208 113.173C161.759 113.414 161.011 113.616 159.766 113.586L159.765 113.65C161.016 113.68 161.777 113.477 162.239 113.229L162.208 113.173ZM153.724 113.805C154.226 113.673 154.918 113.598 155.873 113.65L155.876 113.586C154.917 113.533 154.217 113.609 153.707 113.743L153.724 113.805ZM153.669 113.998C153.692 113.928 153.718 113.857 153.745 113.786L153.686 113.763C153.658 113.834 153.632 113.906 153.608 113.979L153.669 113.998ZM155.889 113.744C154.858 113.695 154.136 113.797 153.629 113.958L153.648 114.019C154.146 113.861 154.861 113.76 155.886 113.808L155.889 113.744ZM155.919 113.773C155.914 113.721 155.91 113.669 155.906 113.616L155.843 113.62C155.846 113.673 155.85 113.727 155.855 113.779L155.919 113.773ZM159.385 114.031C159.346 114.08 159.309 114.129 159.273 114.177L159.324 114.215C159.36 114.168 159.397 114.119 159.435 114.071L159.385 114.031ZM159.408 114.083C161.069 114.207 162.004 113.967 162.529 113.671L162.498 113.615C161.987 113.903 161.067 114.143 159.412 114.019L159.408 114.083ZM162.488 113.662C162.527 113.716 162.565 113.768 162.603 113.817L162.654 113.779C162.616 113.729 162.579 113.678 162.539 113.624L162.488 113.662ZM162.612 113.77C162.084 114.073 161.106 114.327 159.301 114.164L159.296 114.228C161.106 114.391 162.1 114.138 162.644 113.826L162.612 113.77ZM153.54 114.415C154.023 114.211 154.771 114.06 155.928 114.104L155.93 114.04C154.767 113.996 154.01 114.147 153.515 114.356L153.54 114.415ZM153.51 114.622C153.524 114.547 153.54 114.47 153.559 114.393L153.496 114.378C153.478 114.456 153.461 114.534 153.447 114.611L153.51 114.622ZM155.963 114.2C154.715 114.161 153.942 114.349 153.464 114.588L153.493 114.645C153.958 114.412 154.719 114.225 155.961 114.264L155.963 114.2ZM155.993 114.225C155.981 114.173 155.97 114.12 155.961 114.066L155.898 114.077C155.908 114.132 155.919 114.186 155.931 114.239L155.993 114.225ZM159.079 114.443C159.046 114.491 159.014 114.537 158.983 114.583L159.036 114.619C159.067 114.573 159.098 114.527 159.131 114.48L159.079 114.443ZM159.102 114.493C161.213 114.732 162.301 114.436 162.86 114.087L162.827 114.033C162.285 114.37 161.214 114.668 159.109 114.43L159.102 114.493ZM162.82 114.081C162.865 114.132 162.91 114.18 162.954 114.225L162.999 114.18C162.957 114.136 162.912 114.089 162.867 114.038L162.82 114.081ZM162.959 114.176C162.411 114.532 161.291 114.854 159.014 114.569L159.006 114.633C161.289 114.918 162.427 114.598 162.994 114.229L162.959 114.176ZM153.434 115.064C153.861 114.785 154.638 114.527 156.044 114.563L156.046 114.499C154.632 114.463 153.841 114.722 153.399 115.011L153.434 115.064ZM153.427 115.29C153.432 115.21 153.439 115.127 153.448 115.041L153.385 115.034C153.375 115.121 153.368 115.205 153.363 115.286L153.427 115.29ZM156.102 114.661C154.573 114.628 153.783 114.945 153.375 115.263L153.415 115.314C153.806 115.008 154.58 114.693 156.101 114.725L156.102 114.661ZM156.131 114.682C156.112 114.629 156.093 114.576 156.075 114.521L156.014 114.541C156.032 114.596 156.051 114.651 156.072 114.704L156.131 114.682ZM158.817 114.843C158.789 114.889 158.762 114.935 158.736 114.98L158.792 115.012C158.817 114.967 158.844 114.922 158.872 114.876L158.817 114.843ZM158.84 114.891C161.486 115.269 162.693 114.873 163.244 114.46L163.206 114.409C162.675 114.807 161.489 115.205 158.849 114.828L158.84 114.891ZM163.205 114.459C163.258 114.504 163.31 114.546 163.36 114.582L163.398 114.53C163.349 114.495 163.298 114.455 163.246 114.41L163.205 114.459ZM163.359 114.531C162.844 114.951 161.627 115.401 158.769 114.964L158.759 115.027C161.623 115.465 162.863 115.018 163.399 114.581L163.359 114.531ZM153.408 115.756C153.732 115.416 154.487 114.991 156.23 115.025L156.231 114.961C154.478 114.927 153.703 115.354 153.362 115.712L153.408 115.756ZM153.426 116.002C153.421 115.918 153.418 115.828 153.417 115.733L153.353 115.734C153.354 115.83 153.357 115.921 153.363 116.006L153.426 116.002ZM156.315 115.123C154.39 115.09 153.65 115.614 153.369 115.984L153.42 116.023C153.684 115.675 154.399 115.154 156.314 115.187L156.315 115.123ZM156.342 115.14C156.314 115.088 156.286 115.034 156.259 114.979L156.202 115.007C156.229 115.063 156.257 115.117 156.286 115.171L156.342 115.14ZM158.598 115.236C158.575 115.282 158.553 115.327 158.533 115.371L158.591 115.398C158.611 115.355 158.632 115.31 158.655 115.265L158.598 115.236ZM158.621 115.282C161.979 115.843 163.226 115.237 163.687 114.756L163.64 114.712C163.203 115.168 161.984 115.779 158.632 115.219L158.621 115.282ZM163.649 114.763C163.707 114.793 163.767 114.819 163.828 114.842L163.851 114.782C163.792 114.76 163.734 114.735 163.678 114.706L163.649 114.763ZM163.815 114.792C163.443 115.256 162.271 115.989 158.632 115.364L158.621 115.427C162.265 116.053 163.47 115.325 163.865 114.832L163.815 114.792ZM158.632 115.364C158.61 115.36 158.588 115.357 158.567 115.353L158.556 115.416C158.578 115.42 158.599 115.423 158.621 115.427L158.632 115.364ZM160.165 113.125C160.11 113.183 160.058 113.24 160.006 113.297L160.054 113.34C160.105 113.284 160.157 113.227 160.211 113.169L160.165 113.125ZM160.19 113.179C161.044 113.136 161.608 112.968 161.98 112.77L161.95 112.713C161.588 112.906 161.034 113.072 160.186 113.115L160.19 113.179ZM161.937 112.756C161.967 112.814 161.998 112.87 162.028 112.925L162.084 112.893C162.054 112.84 162.024 112.784 161.994 112.727L161.937 112.756ZM162.041 112.881C161.643 113.09 161.016 113.268 160.029 113.287L160.031 113.351C161.024 113.332 161.662 113.153 162.071 112.937L162.041 112.881ZM155.998 112.459C156.008 112.408 156.017 112.359 156.025 112.309L155.962 112.299C155.954 112.348 155.945 112.397 155.936 112.446L155.998 112.459ZM154.779 112.247C155.14 112.256 155.542 112.284 155.99 112.336L155.997 112.272C155.548 112.22 155.144 112.192 154.781 112.183L154.779 112.247ZM154.635 112.397C154.688 112.344 154.744 112.291 154.801 112.239L154.758 112.191C154.7 112.244 154.644 112.298 154.589 112.352L154.635 112.397ZM155.97 112.421C155.459 112.365 155.009 112.342 154.612 112.343L154.612 112.407C155.006 112.406 155.454 112.429 155.963 112.484L155.97 112.421ZM160.7 112.575C160.629 112.645 160.559 112.715 160.492 112.784L160.537 112.829C160.605 112.76 160.674 112.691 160.745 112.62L160.7 112.575ZM161.799 112.412C161.51 112.566 161.098 112.704 160.511 112.774L160.518 112.838C161.111 112.767 161.532 112.627 161.829 112.468L161.799 112.412ZM161.703 112.281C161.73 112.341 161.758 112.398 161.786 112.454L161.843 112.426C161.815 112.37 161.788 112.313 161.761 112.254L161.703 112.281ZM160.728 112.629C161.172 112.55 161.502 112.429 161.747 112.295L161.716 112.239C161.479 112.369 161.156 112.488 160.717 112.566L160.728 112.629ZM161.503 111.774C161.397 111.886 161.285 112 161.168 112.117L161.213 112.162C161.331 112.045 161.443 111.93 161.549 111.818L161.503 111.774ZM161.624 111.948C161.601 111.895 161.579 111.84 161.556 111.784L161.497 111.809C161.519 111.864 161.542 111.919 161.565 111.973L161.624 111.948ZM161.627 111.961V111.96H161.563V111.961H161.627ZM161.201 112.17C161.359 112.114 161.494 112.053 161.61 111.989L161.579 111.933C161.467 111.995 161.335 112.055 161.18 112.109L161.201 112.17ZM159.51 108.101C159.603 108.12 159.693 108.138 159.782 108.154L159.793 108.091C159.705 108.075 159.615 108.057 159.523 108.038L159.51 108.101ZM159.921 107.971C159.877 108.012 159.827 108.054 159.769 108.096L159.807 108.148C159.866 108.105 159.919 108.061 159.964 108.018L159.921 107.971ZM159.814 107.85C159.847 107.902 159.881 107.956 159.915 108.011L159.97 107.978C159.936 107.922 159.901 107.868 159.867 107.815L159.814 107.85ZM159.532 108.097C159.669 108.019 159.777 107.936 159.863 107.856L159.819 107.809C159.737 107.886 159.633 107.966 159.5 108.042L159.532 108.097ZM156.063 112.029C156.069 111.979 156.073 111.929 156.076 111.881L156.013 111.876C156.009 111.924 156.005 111.973 156 112.022L156.063 112.029ZM156.049 111.847C155.794 111.813 155.554 111.786 155.325 111.766L155.32 111.83C155.547 111.85 155.787 111.876 156.04 111.91L156.049 111.847ZM155.305 111.771C155.236 111.816 155.169 111.863 155.105 111.91L155.142 111.962C155.206 111.915 155.272 111.869 155.34 111.824L155.305 111.771ZM155.121 111.968C155.401 111.987 155.703 112.016 156.027 112.057L156.036 111.994C155.71 111.952 155.407 111.923 155.125 111.904L155.121 111.968ZM158.634 107.892C158.749 107.923 158.862 107.952 158.972 107.979L158.987 107.917C158.878 107.89 158.765 107.861 158.651 107.83L158.634 107.892ZM159.524 107.386C159.341 107.543 159.061 107.708 158.633 107.831L158.651 107.892C159.086 107.767 159.375 107.599 159.566 107.435L159.524 107.386ZM159.683 107.543C159.645 107.491 159.607 107.44 159.57 107.391L159.519 107.43C159.556 107.478 159.594 107.529 159.632 107.581L159.683 107.543ZM158.991 107.978C159.305 107.862 159.525 107.722 159.679 107.586L159.636 107.538C159.489 107.669 159.276 107.805 158.968 107.918L158.991 107.978ZM156.087 111.6C156.087 111.55 156.087 111.5 156.085 111.451L156.021 111.453C156.023 111.501 156.023 111.55 156.023 111.599L156.087 111.6ZM156.06 111.568C155.951 111.552 155.844 111.538 155.74 111.525L155.732 111.588C155.836 111.601 155.942 111.616 156.051 111.631L156.06 111.568ZM155.751 111.585C155.763 111.579 155.775 111.572 155.786 111.566L155.755 111.51C155.744 111.516 155.733 111.522 155.722 111.528L155.751 111.585ZM155.782 111.568H155.782L155.759 111.508L155.759 111.508L155.782 111.568ZM155.782 111.568L155.759 111.508L155.782 111.568ZM155.782 111.568H155.782L155.759 111.508H155.759L155.782 111.568ZM155.786 111.566C155.799 111.559 155.812 111.552 155.825 111.545L155.796 111.488C155.782 111.495 155.768 111.503 155.755 111.51L155.786 111.566ZM155.825 111.545C155.859 111.528 155.893 111.51 155.925 111.492L155.894 111.436C155.862 111.454 155.83 111.472 155.797 111.488L155.825 111.545ZM155.922 111.493L155.898 111.434L155.922 111.493ZM155.922 111.493L155.922 111.493L155.898 111.434H155.898L155.922 111.493ZM155.922 111.493L155.898 111.434L155.898 111.434L155.922 111.493ZM155.925 111.492C155.941 111.483 155.956 111.474 155.972 111.466L155.942 111.41C155.926 111.418 155.91 111.427 155.894 111.436L155.925 111.492ZM155.952 111.47C155.984 111.474 156.016 111.479 156.048 111.483L156.058 111.42C156.025 111.415 155.993 111.411 155.961 111.406L155.952 111.47ZM155.929 112.887C155.934 112.838 155.941 112.787 155.949 112.737L155.885 112.727C155.878 112.779 155.871 112.83 155.865 112.88L155.929 112.887ZM154.341 112.717C154.782 112.694 155.301 112.705 155.914 112.764L155.92 112.7C155.304 112.641 154.782 112.63 154.338 112.653L154.341 112.717ZM154.231 112.882C154.273 112.823 154.318 112.764 154.365 112.705L154.315 112.665C154.267 112.724 154.222 112.785 154.178 112.845L154.231 112.882ZM155.9 112.852C155.225 112.793 154.666 112.793 154.202 112.832L154.207 112.896C154.667 112.857 155.223 112.857 155.894 112.916L155.9 112.852ZM158.143 106.349C158.111 106.356 158.111 106.356 158.111 106.356V106.356C158.111 106.356 158.111 106.356 158.111 106.356C158.111 106.356 158.111 106.356 158.111 106.356C158.111 106.356 158.111 106.356 158.111 106.357C158.111 106.357 158.112 106.357 158.112 106.357C158.112 106.358 158.112 106.359 158.112 106.36C158.113 106.362 158.113 106.366 158.114 106.371C158.116 106.38 158.119 106.395 158.123 106.413C158.13 106.451 158.139 106.506 158.149 106.576L158.213 106.566C158.203 106.496 158.193 106.44 158.186 106.402C158.182 106.382 158.179 106.368 158.177 106.358C158.176 106.353 158.175 106.349 158.175 106.346C158.174 106.345 158.174 106.344 158.174 106.343C158.174 106.343 158.174 106.343 158.174 106.343C158.174 106.343 158.174 106.342 158.174 106.342C158.174 106.342 158.174 106.342 158.174 106.342C158.174 106.342 158.174 106.342 158.174 106.342C158.174 106.342 158.174 106.342 158.174 106.342C158.174 106.342 158.174 106.342 158.143 106.349ZM158.143 106.317H158.143V106.381H158.143V106.317ZM158.48 106.424C158.377 106.375 158.294 106.348 158.236 106.334C158.207 106.327 158.185 106.322 158.17 106.32C158.162 106.319 158.156 106.318 158.152 106.318C158.149 106.318 158.148 106.318 158.147 106.318C158.146 106.317 158.146 106.317 158.145 106.317C158.145 106.317 158.145 106.317 158.145 106.317C158.145 106.317 158.145 106.317 158.145 106.317C158.145 106.317 158.145 106.317 158.145 106.317C158.145 106.317 158.145 106.317 158.145 106.317C158.145 106.317 158.145 106.317 158.143 106.349C158.141 106.381 158.141 106.381 158.141 106.381C158.141 106.381 158.141 106.381 158.141 106.381C158.141 106.381 158.141 106.381 158.141 106.381C158.141 106.381 158.141 106.381 158.141 106.381C158.141 106.381 158.141 106.381 158.141 106.381C158.141 106.381 158.141 106.381 158.142 106.381C158.143 106.381 158.144 106.381 158.145 106.382C158.148 106.382 158.153 106.383 158.16 106.384C158.174 106.385 158.194 106.389 158.221 106.396C158.274 106.409 158.353 106.434 158.453 106.482L158.48 106.424ZM158.192 106.601C158.29 106.567 158.386 106.527 158.48 106.482L158.453 106.424C158.361 106.468 158.267 106.507 158.171 106.541L158.192 106.601ZM158.228 106.94C158.469 106.865 158.662 106.777 158.817 106.684L158.784 106.629C158.634 106.719 158.446 106.806 158.209 106.879L158.228 106.94ZM158.262 107.097C158.259 107.03 158.255 106.967 158.25 106.907L158.186 106.913C158.191 106.971 158.195 107.034 158.198 107.1L158.262 107.097ZM158.942 106.756C158.767 106.87 158.533 106.98 158.222 107.068L158.239 107.129C158.555 107.04 158.796 106.928 158.977 106.81L158.942 106.756ZM158.782 106.682C158.832 106.719 158.884 106.761 158.939 106.808L158.98 106.759C158.925 106.712 158.871 106.668 158.819 106.631L158.782 106.682ZM158.244 107.468C158.7 107.358 159.012 107.201 159.226 107.041L159.187 106.99C158.982 107.144 158.678 107.297 158.229 107.406L158.244 107.468ZM158.263 107.626C158.266 107.561 158.268 107.499 158.268 107.438L158.204 107.437C158.204 107.497 158.202 107.559 158.2 107.623L158.263 107.626ZM159.317 107.131C159.096 107.304 158.753 107.478 158.225 107.593L158.238 107.656C158.774 107.539 159.127 107.361 159.356 107.181L159.317 107.131ZM159.184 107.038C159.225 107.081 159.268 107.128 159.312 107.178L159.36 107.135C159.316 107.085 159.272 107.037 159.23 106.994L159.184 107.038ZM159.184 107.038L159.184 107.038L159.229 106.993L159.229 106.993L159.184 107.038Z" fill="white"/>
<path d="M158.281 116.741C158.258 116.727 158.233 116.713 158.208 116.699C157.927 116.533 157.56 116.278 157.214 115.924C156.525 115.219 155.92 114.119 156.245 112.512C156.597 110.78 155.937 109.577 155.192 108.814C154.821 108.434 154.429 108.163 154.131 107.987C154.029 107.927 153.938 107.878 153.861 107.839C153.861 107.839 153.862 107.839 153.862 107.839C154.002 107.752 154.234 107.642 154.59 107.565C155.302 107.41 156.516 107.385 158.479 107.947C160.477 108.518 161.745 108.503 162.524 108.333C162.914 108.249 163.18 108.126 163.352 108.019C163.392 107.995 163.426 107.972 163.456 107.95C163.462 107.965 163.469 107.981 163.476 107.999C163.525 108.13 163.565 108.352 163.497 108.689C163.359 109.368 162.779 110.512 160.942 112.284C159.089 114.072 158.452 115.272 158.295 116.046C158.236 116.334 158.244 116.563 158.281 116.741Z" stroke="white"/>
<path d="M143.97 128.723L145.081 128.514C146.192 123.789 146.331 117.396 143.901 114.269C139.041 108.154 144.04 99.2595 146.886 96.063C146.469 96.5494 137.167 106 142.929 115.033C145.636 119.342 145.012 124.901 143.97 128.723Z" fill="#E54848"/>
<path d="M138 130.529C134.668 130.668 131.127 131.85 129.461 133.795C129.114 134.212 129.392 134.907 129.947 134.907H138V130.529Z" fill="#FFB19E"/>
<path d="M155.425 85.7787V92.5191L149.385 99.3984L149.315 99.329L147.649 95.8545V92.1022C144.664 91.6852 142.026 89.3921 141.332 86.1261L140.499 81.4704C140.499 81.4704 145.011 80.984 148.552 77.3706C148.552 77.3706 149.593 79.3163 151.19 80.845C152.301 81.9568 153.828 82.2348 154.453 82.8602C155.216 83.6246 155.494 84.6669 155.425 85.7787Z" fill="#FFB19E"/>
<path d="M153.759 79.9417C153.759 79.9417 153.55 77.0927 152.44 74.7301C151.19 71.9505 149.455 68.6846 145.914 68.6846C145.914 68.6846 154.661 67.2948 156.119 79.4553L153.759 79.9417Z" fill="#FF4751"/>
<path d="M158.965 81.9569C158.687 79.5943 156.743 77.9265 154.591 78.135C152.439 78.3435 150.912 80.4281 151.12 82.7907C151.398 85.1533 153.342 86.8211 155.494 86.6126C157.646 86.4041 159.242 84.3195 158.965 81.9569Z" fill="#FF4751"/>
<path d="M156.257 86.1956C154.175 86.404 152.3 84.8058 152.023 82.5127C151.814 80.428 153.064 78.5518 154.869 78.1349C154.73 78.1349 154.661 78.1349 154.522 78.1349C152.37 78.3434 150.842 80.428 151.051 82.7906C151.328 85.1533 153.272 86.821 155.424 86.6125C156.118 86.543 156.674 86.2651 157.229 85.9176C156.952 86.0566 156.604 86.1956 156.257 86.1956Z" fill="#CC3241"/>
<path d="M157.437 82.0958C157.299 80.984 156.396 80.1502 155.355 80.2197C154.313 80.3586 153.55 81.3315 153.689 82.4433C153.828 83.5551 154.73 84.389 155.771 84.3195C156.813 84.25 157.576 83.2077 157.437 82.0958Z" fill="#CC3241"/>
<path d="M153.411 89.1837C153.134 89.5311 151.745 91.2683 150.565 92.2411C150.079 92.6581 149.871 93.214 149.871 93.7699L149.316 99.2595L147.649 95.7851V92.0327L147.719 91.9632C147.719 92.0327 151.537 91.4073 153.411 89.1837Z" fill="#F48F7A"/>
<path d="M150.843 88.9057L150.773 88.4888C152.995 88.1413 154.592 85.1533 154.592 85.1533L154.939 85.3618C154.869 85.5008 153.203 88.4888 150.843 88.9057Z" fill="#FF4751"/>
<path d="M151.259 88.6973C151.19 88.3498 150.635 88.1413 150.01 88.2803C149.385 88.4193 148.899 88.7667 148.969 89.1142C149.038 89.4616 149.593 89.6701 150.218 89.5311C150.843 89.4616 151.329 89.0447 151.259 88.6973Z" fill="#FF4751"/>
<path d="M121.894 93.5614C121.894 93.5614 122.727 86.5431 121.964 86.2651C121.2 85.9872 120.437 88.9752 120.437 88.9752C120.437 88.9752 117.174 82.6517 114.952 83.3466C112.731 84.0415 116.827 93.7699 116.827 93.7699L121.894 93.5614Z" fill="#FFB19E"/>
<path d="M143.97 128.723L168.684 126.638C169.517 126.568 170.142 125.804 169.934 124.97C169.031 120.314 166.393 107.112 166.254 107.459C166.046 107.946 168.753 123.094 165.56 124.623C163.408 125.665 143.97 128.723 143.97 128.723Z" fill="#E54848"/>
<path d="M160.77 201.894C160.562 201.963 160.423 202.033 160.284 202.241C158.687 204.465 157.299 204.951 154.522 205.299C154.383 205.299 154.175 205.368 154.036 205.438C154.244 205.09 155.147 203.631 154.522 202.241C153.828 200.713 152.925 199.601 152.925 199.601L156.952 197.169C157.021 197.238 159.52 200.087 160.77 201.894Z" fill="#FFB19E"/>
<path d="M163.755 207.036C163.061 207.731 151.537 213.985 148.829 215.583C148.482 215.792 147.788 216.139 147.719 215.792C147.51 215.236 152.509 205.577 154.591 205.299C157.368 204.951 158.757 204.395 160.284 202.241C160.631 201.755 161.325 201.755 161.603 202.241C162.714 203.909 164.31 206.48 163.755 207.036Z" fill="#13448C"/>
<path d="M141.818 136.297C141.818 136.297 113.911 149.222 113.147 158.255C112.522 166.246 153.62 202.797 153.62 202.797L160.145 200.087L137.653 163.745C137.653 163.745 161.534 152.001 167.365 137.826L141.818 136.297Z" fill="#13448C"/>
<path d="M123.977 155.893C122.102 159.575 120.714 164.648 119.742 169.234C122.936 172.987 126.893 177.226 130.988 181.395C127.934 169.373 125.226 157.282 126.198 155.545C128.003 152.279 139.805 143.454 148.205 139.146C148.205 139.146 128.42 147.415 123.977 155.893Z" fill="#09326D"/>
<path d="M144.317 209.399C144.109 209.329 143.97 209.329 143.762 209.468C141.332 210.58 139.875 210.371 137.237 209.329C137.098 209.26 136.889 209.26 136.681 209.26C137.028 209.051 138.556 208.217 138.694 206.758C138.833 205.09 138.625 203.701 138.625 203.701L143.346 203.562C143.346 203.492 144.109 207.245 144.317 209.399Z" fill="#FFB19E"/>
<path d="M144.456 215.722C143.484 216 129.947 215.792 126.754 215.861C126.338 215.861 126.06 215.514 126.129 215.166C126.268 214.541 135.293 208.634 137.237 209.399C139.805 210.441 141.263 210.649 143.762 209.538C144.248 209.329 144.873 209.607 144.942 210.233C145.081 212.109 145.22 215.514 144.456 215.722Z" fill="#13448C"/>
<path d="M179.514 137.687C179.514 137.687 181.874 153.53 167.712 157.491C156.535 160.618 144.526 162.285 144.526 162.285L145.359 207.244H137.931C137.931 207.244 124.255 159.228 126.198 155.615C128.42 151.584 145.775 139.215 153.273 136.992L179.514 137.687Z" fill="#1D54B5"/>
<path opacity="0.13" d="M144.526 162.286C144.526 162.286 156.535 160.687 167.712 157.491C181.874 153.46 179.514 137.687 179.514 137.687L170.767 137.478C168.129 143.176 159.59 157.213 138.764 158.742L143.484 207.245H145.428L144.526 162.286Z" fill="#0E367C"/>
<path d="M52.3344 216L49.2104 215.931L62.1921 137.895H65.3161L52.3344 216Z" fill="white"/>
<path d="M180.832 215.931L184.164 216L168.059 136.992L164.796 137.061L180.832 215.931Z" fill="white"/>
<path d="M64.414 142.203L65.3164 137.895H62.1925L61.29 142.203H64.414Z" fill="#E4EDF7"/>
<path d="M169.1 142.203L168.059 136.992L164.796 137.061L165.838 142.203H169.1Z" fill="#E4EDF7"/>
<path d="M187.011 134.907H46.2949C45.3924 134.907 44.6982 135.602 44.6982 136.505C44.6982 137.409 45.3924 138.104 46.2949 138.104H187.011C187.913 138.104 188.608 137.409 188.608 136.505C188.538 135.602 187.844 134.907 187.011 134.907Z" fill="white"/>
<path d="M166.14 23.8483C156.611 22.361 147.263 28.2313 144.462 37.4759C142.6 43.7632 143.949 50.1209 147.529 54.8771L144.99 60.9318C144.78 61.4153 145.28 61.9987 145.807 61.8241L152.539 59.5803C154.865 61.0922 157.523 62.0952 160.438 62.5419C170.003 63.8965 179.252 57.8591 181.933 48.6399C185.154 37.2377 177.802 25.6352 166.14 23.8483Z" fill="white" stroke="white" stroke-width="1.5" stroke-miterlimit="10"/>
<path d="M157.19 54.3307L174.471 47.1525L171.345 33.9008L150.374 42.301L157.19 54.3307Z" fill="#9999EF"/>
<path d="M150.375 42.3009L171.345 33.9008L157.427 29.4587L150.375 42.3009Z" fill="#1D54B5"/>
<path d="M152.147 40.37L168.928 33.6219L174.624 47.7864L157.842 54.5344L152.147 40.37Z" fill="white"/>
<path d="M171.345 33.9008L176.869 47.5211L163.82 45.4017L171.345 33.9008Z" fill="#1D54B5"/>
<path d="M150.375 42.3009L155.898 55.9212L163.82 45.4017L150.375 42.3009Z" fill="#1D54B5"/>
<path opacity="0.25" d="M155.898 55.9211L176.869 47.521L162.124 41.2487L155.898 55.9211Z" fill="#ADADEA"/>
<path d="M155.898 55.9212L176.869 47.5211L162.891 43.0917L155.898 55.9212Z" fill="#1D54B5"/>
<path d="M271.496 31.6472L276.078 11.4261C276.286 10.5227 275.8 9.82785 274.828 9.82785L242.27 10.1753C241.09 10.1753 239.84 11.2176 239.493 12.3294L235.467 30.049L232.967 40.1248C232.829 40.6807 233.453 40.8197 233.939 40.3333L240.534 34.0793L268.65 33.8014C269.899 33.8014 271.218 32.759 271.496 31.6472Z" fill="#F41E3D"/>
<path d="M265.665 16.3598H247.823C247.546 16.3598 247.199 16.6377 247.129 16.9157L246.99 17.4716C246.921 17.6801 247.06 17.8885 247.337 17.8885H265.179C265.456 17.8885 265.803 17.6106 265.873 17.3326L266.012 16.7767C266.081 16.5682 265.942 16.3598 265.665 16.3598Z" fill="white"/>
<path d="M264.415 21.085H246.505C246.227 21.085 245.88 21.3629 245.81 21.6409L245.671 22.1968C245.602 22.4053 245.741 22.6137 246.019 22.6137H263.929C264.207 22.6137 264.554 22.3358 264.623 22.0578L264.762 21.5019C264.762 21.2935 264.623 21.085 264.415 21.085Z" fill="white"/>
<path d="M258.098 26.2966H249.837C249.559 26.2966 249.212 26.5746 249.143 26.8525L249.004 27.4084C248.935 27.6169 249.073 27.8254 249.351 27.8254H257.612C257.89 27.8254 258.237 27.5474 258.306 27.2695L258.445 26.7136C258.445 26.4356 258.306 26.2966 258.098 26.2966Z" fill="white"/>
<path d="M60.8644 38.0987C69.3257 38.9605 76.1418 45.7766 76.9252 54.2379C77.4737 60.4272 74.9666 66.068 70.6576 69.6719L71.6761 75.1561C71.8328 75.8612 71.0493 76.3313 70.4226 76.0179L65.2518 72.8841C62.6664 73.8242 59.8459 74.2159 56.8688 73.9026C48.5642 72.9624 41.8265 66.1464 41.0431 57.8418C39.9462 46.4033 49.426 36.9235 60.8644 38.0987Z" fill="white" stroke="#E4E3FF" stroke-miterlimit="10"/>
<path d="M58.8279 63.6393C58.0444 63.6393 57.4176 63.0125 57.4176 62.2291V60.5055C57.4176 58.2335 58.6712 56.1181 60.5515 55.178C61.805 54.5512 62.5884 53.2193 62.5884 51.8091C62.5884 49.8505 60.8648 48.1269 58.9062 48.1269C58.9062 48.1269 58.9062 48.1269 58.8279 48.1269C57.8094 48.1269 56.9476 48.5186 56.2425 49.2237C55.5374 49.9288 55.1456 50.869 55.1456 51.8875C55.1456 52.6709 54.5189 53.2977 53.7354 53.2977C52.9519 53.2977 52.3252 52.6709 52.3252 51.8875C52.3252 50.0855 53.0303 48.4403 54.2838 47.1868C55.5374 45.9332 57.261 45.3065 58.9846 45.3065C62.5101 45.3848 65.4872 48.2836 65.4872 51.8091C65.4872 54.3162 64.1553 56.6665 61.8833 57.7634C60.9432 58.2335 60.3164 59.3303 60.3164 60.5055V62.2291C60.3164 63.0125 59.6113 63.6393 58.8279 63.6393ZM58.8279 64.5794C58.0444 64.5794 57.4176 65.2062 57.4176 65.9896C57.4176 66.7731 58.0444 67.3999 58.8279 67.3999C59.6113 67.3999 60.2381 66.7731 60.2381 65.9896C60.3164 65.2845 59.6113 64.5794 58.8279 64.5794Z" fill="#1D54B5"/>
<path d="M240.187 108.154L240.048 112.184L237.618 205.438H227.969L219.43 125.526L208.6 152.488L216.028 205.438H212.488L206.587 205.507C206.587 205.507 188.954 152.627 189.301 149.222C189.649 145.817 202.908 108.432 202.908 108.432L240.187 108.154Z" fill="#1D54B5"/>
<path d="M241.159 50.4091L223.04 47.9075L222.623 47.838L213.946 47.9075H213.876L203.533 50.5481V108.64H241.159V50.4091Z" fill="#F95858"/>
<path d="M272.12 61.7357C272.12 61.7357 273.439 53.5361 274.411 53.4666C275.383 53.3971 275.244 57.08 275.244 57.08C275.244 57.08 281.006 50.965 283.297 52.4937C285.588 54.0225 277.813 63.6814 277.813 63.6814L272.12 61.7357Z" fill="#FFB19E"/>
<path d="M214.015 47.9767L214.987 112.184H201.45L200.478 94.6034L182.498 94.3255C180.624 94.3949 179.235 92.5882 179.791 90.7816L188.746 59.6507C189.787 56.0373 192.703 53.1883 196.382 52.285L213.946 47.9072L214.015 47.9767Z" fill="#4286E8"/>
<path d="M278.299 63.8898L260.874 99.6764C259.763 101.692 256.917 101.761 255.737 99.7459L242.13 77.1621L241.436 112.115H226.997L222.97 47.9075H223.04L241.436 50.4091C244.907 50.965 247.892 53.1191 249.42 56.3156L258.722 75.4944C258.93 75.9808 259.624 76.0503 259.902 75.6334L271.704 61.4577L278.299 63.8898Z" fill="#4286E8"/>
<path d="M200.409 94.7427H218.042L218.18 85.7092L200.548 85.5007L200.409 94.7427Z" fill="#4286E8"/>
<path d="M218.111 92.2411C223.109 92.0326 228.385 90.2954 230.884 87.3769C231.44 86.7515 230.954 85.7092 230.121 85.7092H218.042L218.111 92.2411Z" fill="#FFB19E"/>
<path opacity="0.41" d="M211.238 95.1596L211.308 94.8817L200.478 94.7427L201.45 112.184L204.643 97.7307L211.238 95.1596Z" fill="#13448C"/>
<path opacity="0.32" d="M240.117 112.184L237.687 205.438H236.993L230.537 112.184H240.117Z" fill="#0E367C"/>
<path opacity="0.41" d="M218.18 85.6397C218.18 85.6397 194.23 87.3769 194.438 86.8905L198.604 72.5759L198.673 72.7844L199.09 82.7907C199.09 84.1805 216.931 85.2923 218.18 85.6397Z" fill="#13448C"/>
<path opacity="0.41" d="M260.944 99.6764L278.368 63.8898H278.299C276.425 63.8898 260.25 97.8002 258.583 98.634C256.64 99.6069 242.27 77.2316 242.27 77.2316L255.876 99.8153C256.987 101.761 259.833 101.692 260.944 99.6764Z" fill="#13448C"/>
<path d="M207.698 205.438C205.615 209.677 195.757 211.831 195.757 211.831C195.757 211.831 195.063 213.081 196.174 214.68C197.284 216.278 207.698 215.305 209.017 215.027C210.336 214.749 211.238 213.707 211.238 213.707C211.238 213.707 212.141 214.68 212.627 214.888C213.112 215.097 215.75 214.61 215.75 214.61C216.375 212.942 215.75 206.48 215.542 205.438H207.698Z" fill="#13448C"/>
<path d="M236.785 205.438C238.868 209.677 248.726 211.831 248.726 211.831C248.726 211.831 249.42 213.081 248.309 214.68C247.198 216.278 236.785 215.305 235.466 215.027C234.147 214.749 233.245 213.707 233.245 213.707C233.245 213.707 232.342 214.68 231.856 214.888C231.37 215.097 228.732 214.61 228.732 214.61C228.108 212.942 228.732 206.48 228.941 205.438H236.785Z" fill="#13448C"/>
<path opacity="0.32" d="M208.67 152.488L216.098 205.438H212.557C210.336 194.042 202.699 155.892 202.977 153.53C203.324 150.681 219.083 126.36 219.569 125.526L208.67 152.488Z" fill="#0E367C"/>
<path fill-rule="evenodd" clip-rule="evenodd" d="M222.97 47.977C221.651 49.0193 218.458 51.243 218.458 51.243C218.458 51.243 215.264 49.0193 213.876 47.977V40.3333H222.901V47.977H222.97Z" fill="#FFB19E"/>
<path fill-rule="evenodd" clip-rule="evenodd" d="M223.039 40.3333V43.5298C220.401 45.6839 216.653 45.6839 214.015 43.5992V40.3333H223.039Z" fill="#FFB19E"/>
<path fill-rule="evenodd" clip-rule="evenodd" d="M208.461 35.3996H228.801L229.149 29.7016C233.661 27.8254 230.259 17.0547 230.259 17.0547C230.537 19.6257 223.525 19.7647 220.749 19.2783C217.972 18.8614 216.097 19.9732 216.097 19.9732C216.097 19.9732 207.281 18.097 207.767 30.4659C207.836 32.3421 208.045 33.9403 208.461 35.3996Z" fill="#13448C"/>
<path fill-rule="evenodd" clip-rule="evenodd" d="M226.649 29.7015V34.7742C226.649 36.9283 225.747 39.013 224.15 40.5417C223.872 40.7502 223.664 41.0281 223.387 41.2366C220.679 43.8077 216.375 43.8077 213.598 41.2366L212.835 40.5417C211.238 39.0825 210.335 36.9978 210.335 34.7742V30.8828C210.335 30.8828 212.696 29.2846 215.959 25.4627C215.889 25.4627 219.499 28.9372 226.649 29.7015Z" fill="#FFB19E"/>
<path fill-rule="evenodd" clip-rule="evenodd" d="M223.039 41.584V43.5297C220.401 45.6839 216.653 45.6839 214.015 43.5992V41.6535C216.583 43.8077 220.401 43.8077 223.039 41.584Z" fill="#F48F7A"/>
<path fill-rule="evenodd" clip-rule="evenodd" d="M212.349 35.9555C213.945 33.4539 211.238 30.7439 208.739 32.3421C208.53 32.4811 208.392 32.6201 208.253 32.8285C206.656 35.3301 209.363 38.0402 211.863 36.4419C212.071 36.3724 212.21 36.164 212.349 35.9555Z" fill="#FFB19E"/>
<path fill-rule="evenodd" clip-rule="evenodd" d="M228.593 35.9555C230.12 33.4539 227.621 30.8828 225.191 32.2031C224.844 32.4116 224.567 32.6895 224.428 32.9675C223.109 35.4691 225.677 37.9707 228.177 36.3724C228.246 36.3724 228.454 36.164 228.593 35.9555Z" fill="#FFB19E"/>
<path d="M228.524 30.6049H227.691V27.8949C227.691 23.4476 223.664 19.8342 218.666 19.8342H218.319C213.321 19.8342 209.294 23.4476 209.294 27.8949V30.6049H208.531V27.8949C208.531 23.0307 212.904 19.0698 218.319 19.0698H218.666C224.081 19.0698 228.455 23.0307 228.455 27.8949V30.6049H228.524Z" fill="#A31919"/>
<path d="M227.83 29.1456C226.65 29.1456 225.678 30.1185 225.678 31.2998V35.1911C225.678 36.3724 226.65 37.3453 227.83 37.3453C229.01 37.3453 229.982 36.3724 229.982 35.1911V31.2998C230.051 30.1185 229.079 29.1456 227.83 29.1456Z" fill="#F95858"/>
<path d="M227.83 29.1456C227.622 29.1456 227.413 29.2151 227.205 29.2846C228.108 29.5626 228.732 30.3964 228.732 31.3693V35.2606C228.732 36.2335 228.108 37.0673 227.205 37.3453C227.413 37.4148 227.622 37.4842 227.83 37.4842C229.01 37.4842 229.982 36.5114 229.982 35.3301V31.4388C230.051 30.1185 229.079 29.1456 227.83 29.1456Z" fill="#CC3241"/>
<path d="M209.155 29.1456C207.975 29.1456 207.003 30.1185 207.003 31.2998V35.1911C207.003 36.3724 207.975 37.3453 209.155 37.3453C210.336 37.3453 211.307 36.3724 211.307 35.1911V31.2998C211.307 30.1185 210.336 29.1456 209.155 29.1456Z" fill="#F95858"/>
<path d="M209.156 29.1456C208.947 29.1456 208.739 29.2151 208.531 29.2846C209.433 29.5626 210.058 30.3964 210.058 31.3693V35.2606C210.058 36.2335 209.433 37.0673 208.531 37.3453C208.739 37.4148 208.947 37.4842 209.156 37.4842C210.336 37.4842 211.308 36.5114 211.308 35.3301V31.4388C211.308 30.1185 210.336 29.1456 209.156 29.1456Z" fill="#CC3241"/>
<path d="M221.998 39.8469V39.4299C224.497 39.2909 226.649 36.164 226.649 36.164L226.996 36.4419C226.858 36.5114 224.636 39.7079 221.998 39.8469Z" fill="#FF4751"/>
<path d="M222.415 39.6384C222.415 39.2215 221.79 38.9435 221.096 39.013C220.402 39.0825 219.846 39.4299 219.846 39.8469C219.846 40.2638 220.471 40.5417 221.165 40.4722C221.929 40.4722 222.484 40.0553 222.415 39.6384Z" fill="#FF4751"/>
<path d="M232.759 59.1646H201.172C199.437 59.1646 198.118 60.6239 198.187 62.4306L199.02 82.7907C199.09 84.4584 200.478 85.7787 202.075 85.7787H231.856C233.453 85.7787 234.841 84.4584 234.911 82.7907L235.744 62.4306C235.813 60.6934 234.494 59.1646 232.759 59.1646Z" fill="#13448C"/>
<path d="M232.759 59.1646H201.173C200.339 59.1646 199.506 59.5121 199.021 60.1375C199.298 60.068 199.576 59.9985 199.854 59.9985H231.44C233.176 59.9985 234.495 61.4578 234.425 63.2645L233.592 83.6246C233.592 84.3889 233.245 85.0838 232.759 85.5702C234.009 85.2228 234.911 84.111 234.98 82.7212L235.814 62.3611C235.814 60.6934 234.495 59.1646 232.759 59.1646Z" fill="#1D54B5"/>
<path fill-rule="evenodd" clip-rule="evenodd" d="M213.205 74.8993C213.206 74.8248 213.209 74.7495 213.213 74.6732C212.072 74.5888 211.17 74.6224 210.454 74.7253C210.399 74.8207 210.349 74.9167 210.301 75.0132C211.029 74.8775 211.975 74.8181 213.205 74.8993ZM218.897 75.3269C218.831 75.4035 218.767 75.479 218.705 75.5535C220.733 75.6444 221.929 75.3346 222.635 74.9555C222.586 74.8787 222.537 74.7994 222.486 74.7177C221.821 75.0753 220.72 75.3707 218.897 75.3269ZM213.215 75.3264C211.817 75.2504 210.801 75.3606 210.062 75.555C210.022 75.6594 209.984 75.7639 209.95 75.8681C210.684 75.6346 211.733 75.487 213.233 75.5577C213.226 75.4816 213.22 75.4046 213.215 75.3264ZM218.215 76.1709C218.268 76.1013 218.322 76.0307 218.378 75.9591C220.799 76.1405 222.154 75.7899 222.91 75.3635C222.967 75.442 223.022 75.5177 223.077 75.5899C222.294 76.0393 220.855 76.4094 218.215 76.1709ZM213.295 75.9896C211.601 75.9256 210.502 76.146 209.788 76.4476C209.761 76.5614 209.736 76.6738 209.716 76.7852C210.405 76.4404 211.524 76.1661 213.343 76.224C213.325 76.1471 213.309 76.0689 213.295 75.9896ZM217.793 76.7628C217.838 76.696 217.884 76.628 217.933 76.559C221.011 76.907 222.588 76.4735 223.392 75.9722C223.458 76.0463 223.523 76.1157 223.586 76.1807C222.772 76.7103 221.123 77.1789 217.793 76.7628ZM213.464 76.6603C211.405 76.6074 210.26 76.9858 209.626 77.3998C209.612 77.526 209.601 77.6478 209.594 77.7663C210.178 77.3105 211.32 76.8494 213.546 76.8968C213.517 76.8194 213.49 76.7405 213.464 76.6603ZM217.435 77.3389C217.472 77.2739 217.511 77.2077 217.552 77.1403C221.411 77.6915 223.159 77.1117 223.949 76.5198C224.026 76.5852 224.102 76.645 224.173 76.6973C223.406 77.3219 221.612 77.9772 217.435 77.3389ZM213.735 77.335C211.182 77.2857 210.065 77.9077 209.579 78.4166C209.581 78.5559 209.585 78.6884 209.593 78.8109C209.992 78.2862 211.054 77.523 213.857 77.5722C213.815 77.4949 213.774 77.4158 213.735 77.335ZM217.139 77.9068C217.169 77.8428 217.2 77.7774 217.234 77.7106C222.134 78.5291 223.934 77.6409 224.589 76.957C224.673 77.0003 224.758 77.0384 224.846 77.071C224.287 77.77 222.551 78.8367 217.233 77.9228C217.202 77.9174 217.17 77.9121 217.139 77.9068ZM219.283 74.8898C219.358 74.8073 219.435 74.7237 219.514 74.639C220.757 74.5767 221.573 74.332 222.11 74.0469C222.153 74.131 222.198 74.2128 222.242 74.2917C221.652 74.6021 220.729 74.8625 219.283 74.8898ZM213.35 73.6251C213.364 73.5521 213.377 73.4799 213.389 73.4083C212.733 73.3319 212.145 73.2908 211.617 73.2781C211.532 73.3548 211.45 73.4324 211.371 73.5116C211.949 73.5102 212.605 73.5444 213.35 73.6251ZM220.294 73.8368C220.19 73.9399 220.089 74.0414 219.991 74.1415C220.852 74.0378 221.46 73.8354 221.889 73.607C221.849 73.5245 221.808 73.4418 221.768 73.3546C221.416 73.5468 220.939 73.7216 220.294 73.8368ZM220.978 73.1678C221.149 72.9968 221.313 72.8299 221.468 72.6669C221.501 72.7477 221.535 72.8284 221.568 72.9064V72.907C221.401 72.9993 221.206 73.0878 220.978 73.1678ZM218.533 67.2249C218.668 67.2526 218.8 67.2781 218.929 67.3016C219.015 67.2392 219.09 67.1766 219.156 67.115C219.106 67.0336 219.056 66.9547 219.007 66.8784C218.885 66.9933 218.73 67.1116 218.533 67.2249ZM213.444 73.0016C213.452 72.9292 213.458 72.8575 213.463 72.7865C213.092 72.737 212.741 72.6983 212.409 72.6688C212.308 72.7344 212.212 72.8023 212.118 72.8707C212.528 72.898 212.969 72.9407 213.444 73.0016ZM217.749 67.0477C217.589 67.0082 217.425 66.9658 217.257 66.9205C217.886 66.74 218.302 66.4967 218.575 66.262C218.629 66.3333 218.684 66.4072 218.739 66.4837C218.52 66.6782 218.204 66.8796 217.749 67.0477ZM213.476 72.1638C213.478 72.2349 213.479 72.3068 213.479 72.3795C213.32 72.3568 213.165 72.3359 213.013 72.3166C213.03 72.3079 213.046 72.2988 213.063 72.2896H213.063L213.063 72.2896C213.082 72.2791 213.101 72.2685 213.122 72.2584C213.171 72.234 213.219 72.2076 213.266 72.1812H213.266H213.266C213.289 72.1685 213.312 72.1558 213.335 72.1434C213.382 72.1501 213.429 72.1568 213.476 72.1638ZM213.248 74.2547C213.256 74.1815 213.266 74.1076 213.277 74.0329C212.38 73.9472 211.619 73.9312 210.974 73.9642C210.905 74.0509 210.839 74.1378 210.776 74.2256C211.451 74.1691 212.265 74.1694 213.248 74.2547ZM216.583 65.0363C216.554 64.8309 216.527 64.7126 216.527 64.7126H216.527C216.527 64.7126 216.704 64.7221 217 64.864C216.864 64.9294 216.725 64.9869 216.583 65.0363ZM217.488 65.1613C217.265 65.2947 216.987 65.4225 216.637 65.531C216.645 65.6176 216.65 65.7093 216.655 65.8065C217.113 65.6773 217.46 65.5153 217.72 65.3463C217.64 65.2777 217.562 65.2152 217.488 65.1613ZM218.081 65.6853C217.775 65.9145 217.325 66.1409 216.664 66.3013C216.663 66.39 216.661 66.481 216.657 66.5744C217.434 66.4054 217.942 66.1485 218.27 65.891C218.206 65.8181 218.142 65.749 218.081 65.6859L218.081 65.6853Z" fill="white"/>
<path d="M213.205 74.8995L213.202 74.9462L213.251 74.9494L213.252 74.9001L213.205 74.8995ZM213.213 74.6735L213.259 74.6759L213.262 74.6303L213.216 74.6269L213.213 74.6735ZM210.454 74.7255L210.448 74.6792L210.425 74.6825L210.414 74.7023L210.454 74.7255ZM210.301 75.0134L210.259 74.9924L210.217 75.0766L210.309 75.0594L210.301 75.0134ZM218.897 75.3271L218.898 75.2805L218.876 75.2799L218.862 75.2967L218.897 75.3271ZM218.705 75.5537L218.67 75.5238L218.609 75.5962L218.703 75.6004L218.705 75.5537ZM222.635 74.9557L222.657 74.9968L222.701 74.973L222.674 74.9305L222.635 74.9557ZM222.487 74.7179L222.526 74.6935L222.503 74.6559L222.464 74.6768L222.487 74.7179ZM210.062 75.5552L210.051 75.5099L210.027 75.516L210.019 75.5384L210.062 75.5552ZM213.215 75.3267L213.262 75.3239L213.259 75.2823L213.218 75.28L213.215 75.3267ZM209.95 75.8683L209.906 75.8539L209.878 75.9403L209.964 75.9128L209.95 75.8683ZM213.234 75.5579L213.231 75.6045L213.285 75.6071L213.28 75.5531L213.234 75.5579ZM218.378 75.9593L218.381 75.9127L218.357 75.9108L218.341 75.9304L218.378 75.9593ZM218.215 76.1711L218.178 76.143L218.127 76.2102L218.211 76.2177L218.215 76.1711ZM222.91 75.3637L222.948 75.3361L222.923 75.3026L222.887 75.3229L222.91 75.3637ZM223.078 75.5901L223.101 75.6307L223.147 75.6042L223.115 75.5618L223.078 75.5901ZM209.788 76.4479L209.77 76.4048L209.748 76.414L209.742 76.4371L209.788 76.4479ZM213.295 75.9898L213.341 75.9814L213.334 75.9445L213.297 75.9431L213.295 75.9898ZM209.716 76.7854L209.67 76.777L209.653 76.8692L209.737 76.8272L209.716 76.7854ZM213.343 76.2242L213.342 76.2708L213.402 76.2728L213.389 76.2136L213.343 76.2242ZM217.933 76.5593L217.938 76.5128L217.911 76.5096L217.895 76.5324L217.933 76.5593ZM217.793 76.763L217.755 76.737L217.712 76.8L217.788 76.8095L217.793 76.763ZM223.392 75.9724L223.427 75.9413L223.401 75.9119L223.367 75.9328L223.392 75.9724ZM223.586 76.1809L223.612 76.2202L223.659 76.1892L223.62 76.1484L223.586 76.1809ZM209.626 77.4001L209.6 77.3609L209.582 77.3729L209.579 77.3949L209.626 77.4001ZM213.464 76.6605L213.508 76.6461L213.498 76.6146L213.465 76.6137L213.464 76.6605ZM209.594 77.7665L209.548 77.7637L209.542 77.8669L209.623 77.8033L209.594 77.7665ZM213.547 76.897L213.546 76.9438L213.615 76.9453L213.59 76.8805L213.547 76.897ZM217.552 77.1405L217.559 77.0942L217.528 77.0899L217.512 77.1162L217.552 77.1405ZM217.435 77.3391L217.394 77.3158L217.36 77.3751L217.428 77.3854L217.435 77.3391ZM223.949 76.52L223.98 76.4843L223.951 76.4603L223.921 76.4825L223.949 76.52ZM224.173 76.6975L224.203 76.7337L224.25 76.6954L224.201 76.6596L224.173 76.6975ZM209.579 78.4168L209.545 78.3845L209.532 78.3984L209.533 78.4176L209.579 78.4168ZM213.735 77.3352L213.777 77.3148L213.765 77.289L213.736 77.2885L213.735 77.3352ZM209.593 78.8112L209.547 78.8142L209.555 78.939L209.631 78.8395L209.593 78.8112ZM213.857 77.5724L213.857 77.6191L213.937 77.6205L213.898 77.55L213.857 77.5724ZM217.234 77.7108L217.242 77.6647L217.208 77.659L217.192 77.6898L217.234 77.7108ZM217.139 77.907L217.097 77.8873L217.071 77.9429L217.131 77.9531L217.139 77.907ZM224.589 76.9572L224.611 76.9157L224.58 76.8997L224.556 76.9249L224.589 76.9572ZM224.846 77.0713L224.883 77.1005L224.923 77.0499L224.863 77.0274L224.846 77.0713ZM217.234 77.9231L217.241 77.877H217.241L217.234 77.9231ZM219.514 74.6392L219.512 74.5925L219.493 74.5935L219.48 74.6073L219.514 74.6392ZM219.283 74.89L219.249 74.8586L219.176 74.9388L219.284 74.9367L219.283 74.89ZM222.11 74.0472L222.151 74.0256L222.129 73.9838L222.088 74.0058L222.11 74.0472ZM222.242 74.2919L222.263 74.3333L222.306 74.311L222.283 74.2692L222.242 74.2919ZM213.35 73.6253L213.345 73.6718L213.388 73.6764L213.396 73.6343L213.35 73.6253ZM213.389 73.4085L213.435 73.4161L213.443 73.3677L213.395 73.3621L213.389 73.4085ZM211.617 73.2783L211.618 73.2316L211.599 73.2312L211.585 73.2437L211.617 73.2783ZM211.371 73.5118L211.338 73.4789L211.259 73.5588L211.372 73.5585L211.371 73.5118ZM220.295 73.8371L220.286 73.791L220.272 73.7936L220.262 73.8038L220.295 73.8371ZM219.991 74.1417L219.958 74.109L219.864 74.2041L219.996 74.1882L219.991 74.1417ZM221.889 73.6072L221.911 73.6485L221.951 73.6273L221.931 73.5867L221.889 73.6072ZM221.768 73.3548L221.811 73.3353L221.79 73.2898L221.746 73.3138L221.768 73.3548ZM221.468 72.6671L221.512 72.6494L221.484 72.5828L221.435 72.6349L221.468 72.6671ZM220.978 73.1681L220.945 73.1349L220.993 73.2122L220.978 73.1681ZM221.568 72.9066H221.615V72.897L221.611 72.8881L221.568 72.9066ZM221.568 72.9072L221.591 72.9481L221.615 72.9348V72.9072H221.568ZM218.533 67.2252L218.51 67.1847L218.403 67.2462L218.524 67.2709L218.533 67.2252ZM218.93 67.3018L218.921 67.3478L218.941 67.3513L218.957 67.3396L218.93 67.3018ZM219.156 67.1152L219.188 67.1492L219.215 67.1232L219.196 67.0908L219.156 67.1152ZM219.007 66.8786L219.046 66.8532L219.016 66.8062L218.975 66.8445L219.007 66.8786ZM213.444 73.0018L213.438 73.0482L213.486 73.0542L213.491 73.0067L213.444 73.0018ZM213.463 72.7868L213.51 72.7901L213.513 72.7463L213.469 72.7404L213.463 72.7868ZM212.409 72.669L212.413 72.6225L212.397 72.6211L212.383 72.6299L212.409 72.669ZM212.118 72.871L212.091 72.8331L211.986 72.909L212.115 72.9176L212.118 72.871ZM217.257 66.9207L217.244 66.8758L217.083 66.9221L217.245 66.9658L217.257 66.9207ZM217.749 67.0479L217.738 67.0933L217.752 67.0967L217.765 67.0918L217.749 67.0479ZM218.575 66.2622L218.612 66.2339L218.582 66.1944L218.544 66.2267L218.575 66.2622ZM218.74 66.484L218.771 66.519L218.802 66.4908L218.777 66.4564L218.74 66.484ZM213.479 72.3797L213.472 72.426L213.525 72.4336L213.525 72.38L213.479 72.3797ZM213.476 72.164L213.522 72.1625L213.521 72.1234L213.483 72.1177L213.476 72.164ZM213.013 72.3168L212.992 72.2752L212.857 72.3441L213.007 72.3632L213.013 72.3168ZM213.063 72.2898L213.046 72.2465L213.043 72.2475L213.041 72.2489L213.063 72.2898ZM213.063 72.2898L213.081 72.3332L213.083 72.3322L213.086 72.3308L213.063 72.2898ZM213.122 72.2586L213.101 72.2167L213.101 72.2168L213.122 72.2586ZM213.267 72.1814L213.249 72.138L213.246 72.1391L213.244 72.1405L213.267 72.1814ZM213.267 72.1814L213.284 72.2248L213.287 72.2237L213.289 72.2223L213.267 72.1814ZM213.335 72.1436L213.342 72.0974L213.327 72.0952L213.313 72.1025L213.335 72.1436ZM213.248 74.2549L213.244 74.3015L213.289 74.3054L213.294 74.2603L213.248 74.2549ZM213.277 74.0331L213.323 74.0401L213.331 73.9913L213.282 73.9866L213.277 74.0331ZM210.974 73.9645L210.971 73.9178L210.95 73.9189L210.937 73.9353L210.974 73.9645ZM210.776 74.2259L210.738 74.1988L210.68 74.2808L210.78 74.2724L210.776 74.2259ZM216.527 64.7128V64.6661H216.469L216.482 64.7231L216.527 64.7128ZM216.583 65.0365L216.537 65.0431L216.545 65.0992L216.599 65.0806L216.583 65.0365ZM216.528 64.7128L216.53 64.6661L216.529 64.6661H216.528V64.7128ZM217 64.8642L217.02 64.9063L217.108 64.8641L217.02 64.8221L217 64.8642ZM216.638 65.5313L216.624 65.4866L216.588 65.4978L216.591 65.5352L216.638 65.5313ZM217.488 65.1615L217.515 65.1237L217.491 65.1056L217.464 65.1214L217.488 65.1615ZM216.655 65.8067L216.608 65.809L216.611 65.8676L216.668 65.8517L216.655 65.8067ZM217.72 65.3465L217.745 65.3857L217.798 65.3517L217.75 65.3111L217.72 65.3465ZM216.664 66.3015L216.653 66.2561L216.618 66.2647L216.618 66.301L216.664 66.3015ZM218.081 65.6855L218.114 65.6525L218.085 65.6238L218.053 65.6481L218.081 65.6855ZM216.657 66.5746L216.61 66.5725L216.608 66.6331L216.667 66.6203L216.657 66.5746ZM218.27 65.8912L218.299 65.928L218.338 65.8974L218.305 65.8602L218.27 65.8912ZM218.081 65.6862L218.115 65.6537L218.114 65.6531L218.081 65.6862ZM213.252 74.9001C213.253 74.8263 213.255 74.7515 213.259 74.6759L213.166 74.6711C213.162 74.7479 213.16 74.8238 213.159 74.8989L213.252 74.9001ZM213.216 74.6269C212.073 74.5422 211.167 74.5758 210.448 74.6792L210.461 74.7718C211.172 74.6694 212.072 74.6358 213.209 74.7201L213.216 74.6269ZM210.414 74.7023C210.359 74.7987 210.308 74.8953 210.259 74.9924L210.342 75.0344C210.39 74.9384 210.441 74.8433 210.495 74.7488L210.414 74.7023ZM210.309 75.0594C211.033 74.9246 211.975 74.8651 213.202 74.9462L213.208 74.8529C211.975 74.7715 211.025 74.8309 210.292 74.9675L210.309 75.0594ZM218.862 75.2967C218.796 75.3734 218.732 75.4491 218.67 75.5238L218.741 75.5837C218.803 75.5093 218.867 75.434 218.932 75.3576L218.862 75.2967ZM218.703 75.6004C220.736 75.6915 221.942 75.3813 222.657 74.9968L222.613 74.9145C221.917 75.2883 220.73 75.5977 218.708 75.5071L218.703 75.6004ZM222.674 74.9305C222.625 74.854 222.576 74.7751 222.526 74.6935L222.447 74.7424C222.497 74.8242 222.546 74.9037 222.595 74.9809L222.674 74.9305ZM222.464 74.6768C221.809 75.0293 220.716 75.3241 218.898 75.2805L218.896 75.3739C220.724 75.4177 221.834 75.1217 222.509 74.7592L222.464 74.6768ZM210.074 75.6003C210.807 75.4075 211.818 75.2975 213.212 75.3733L213.218 75.28C211.816 75.2038 210.795 75.3141 210.051 75.5099L210.074 75.6003ZM209.994 75.8827C210.028 75.7797 210.066 75.676 210.106 75.5719L210.019 75.5384C209.979 75.6431 209.94 75.7486 209.906 75.8539L209.994 75.8827ZM213.236 75.5112C211.731 75.4403 210.676 75.5882 209.936 75.8237L209.964 75.9128C210.691 75.6815 211.734 75.5341 213.231 75.6045L213.236 75.5112ZM213.28 75.5531C213.272 75.4778 213.266 75.4013 213.262 75.3239L213.168 75.3295C213.173 75.4082 213.179 75.4859 213.187 75.5626L213.28 75.5531ZM218.341 75.9304C218.285 76.0023 218.231 76.0732 218.178 76.143L218.252 76.1993C218.305 76.1299 218.359 76.0595 218.415 75.9881L218.341 75.9304ZM218.374 76.0059C220.801 76.1877 222.166 75.8372 222.933 75.4043L222.887 75.3229C222.142 75.7432 220.798 76.0938 218.381 75.9127L218.374 76.0059ZM222.872 75.3912C222.929 75.4697 222.985 75.5458 223.04 75.6186L223.115 75.5618C223.06 75.49 223.005 75.4148 222.948 75.3361L222.872 75.3912ZM223.054 75.5497C222.283 75.9923 220.854 76.3626 218.219 76.1246L218.211 76.2177C220.855 76.4566 222.306 76.0868 223.101 75.6307L223.054 75.5497ZM209.806 76.4909C210.512 76.1928 211.604 75.9727 213.293 76.0364L213.297 75.9431C211.598 75.8789 210.492 76.0997 209.77 76.4048L209.806 76.4909ZM209.762 76.7939C209.782 76.6835 209.807 76.5718 209.833 76.4586L209.742 76.4371C209.715 76.5514 209.691 76.6647 209.67 76.777L209.762 76.7939ZM213.345 76.1775C211.521 76.1195 210.393 76.3943 209.695 76.7437L209.737 76.8272C210.417 76.487 211.528 76.2133 213.342 76.2708L213.345 76.1775ZM213.389 76.2136C213.371 76.1375 213.355 76.06 213.341 75.9814L213.249 75.9982C213.264 76.0782 213.28 76.1571 213.298 76.2347L213.389 76.2136ZM217.895 76.5324C217.846 76.6017 217.8 76.6699 217.755 76.737L217.832 76.7891C217.877 76.7224 217.923 76.6548 217.971 76.586L217.895 76.5324ZM217.928 76.6056C221.011 76.9541 222.6 76.5214 223.417 76.0121L223.367 75.9328C222.576 76.4261 221.012 76.8602 217.938 76.5128L217.928 76.6056ZM223.357 76.0035C223.424 76.0782 223.489 76.1481 223.553 76.2135L223.62 76.1484C223.557 76.0838 223.493 76.0149 223.427 75.9413L223.357 76.0035ZM223.561 76.1418C222.76 76.6625 221.124 77.1321 217.799 76.7167L217.788 76.8095C221.122 77.226 222.784 76.7584 223.612 76.2202L223.561 76.1418ZM209.651 77.4392C210.275 77.0321 211.409 76.6546 213.462 76.7071L213.465 76.6137C211.4 76.5608 210.246 76.9398 209.6 77.3609L209.651 77.4392ZM209.641 77.7692C209.648 77.6517 209.658 77.5307 209.672 77.4052L209.579 77.3949C209.565 77.5218 209.555 77.6444 209.548 77.7637L209.641 77.7692ZM213.548 76.8503C211.315 76.8028 210.161 77.2648 209.566 77.7296L209.623 77.8033C210.195 77.3566 211.325 76.8965 213.546 76.9438L213.548 76.8503ZM213.59 76.8805C213.561 76.8038 213.534 76.7256 213.508 76.6461L213.419 76.6749C213.445 76.7559 213.473 76.8354 213.503 76.9136L213.59 76.8805ZM217.512 77.1162C217.471 77.184 217.432 77.2505 217.394 77.3158L217.475 77.3625C217.512 77.2978 217.551 77.2319 217.592 77.1648L217.512 77.1162ZM217.546 77.1868C221.409 77.7387 223.172 77.1604 223.977 76.5574L223.921 76.4825C223.146 77.0634 221.413 77.6448 217.559 77.0942L217.546 77.1868ZM223.919 76.5556C223.997 76.6217 224.073 76.6823 224.146 76.7353L224.201 76.6596C224.13 76.6082 224.056 76.5492 223.98 76.4843L223.919 76.5556ZM224.144 76.6612C223.392 77.2732 221.615 77.9306 217.442 77.2929L217.428 77.3854C221.609 78.0242 223.42 77.371 224.203 76.7337L224.144 76.6612ZM209.613 78.4491C210.086 77.9534 211.188 77.3328 213.734 77.3819L213.736 77.2885C211.176 77.239 210.044 77.8625 209.545 78.3845L209.613 78.4491ZM209.64 78.8082C209.632 78.6867 209.628 78.5551 209.626 78.4161L209.533 78.4176C209.535 78.5572 209.539 78.6906 209.547 78.8142L209.64 78.8082ZM213.858 77.5257C211.047 77.4763 209.967 78.2417 209.556 78.7829L209.631 78.8395C210.017 78.3313 211.061 77.5701 213.857 77.6191L213.858 77.5257ZM213.898 77.55C213.856 77.4733 213.816 77.3949 213.777 77.3148L213.693 77.3556C213.733 77.4372 213.774 77.5169 213.817 77.5948L213.898 77.55ZM217.192 77.6898C217.158 77.7571 217.127 77.8229 217.097 77.8873L217.181 77.9267C217.211 77.8632 217.242 77.7983 217.276 77.7318L217.192 77.6898ZM217.226 77.7569C222.13 78.576 223.951 77.6909 224.623 76.9896L224.556 76.9249C223.917 77.5914 222.137 78.4825 217.242 77.6647L217.226 77.7569ZM224.568 76.9987C224.653 77.0428 224.74 77.0817 224.83 77.1151L224.863 77.0274C224.777 76.9955 224.692 76.9582 224.611 76.9157L224.568 76.9987ZM224.81 77.0421C224.268 77.72 222.556 78.7902 217.241 77.877L217.226 77.9692C222.547 78.8836 224.307 77.8205 224.883 77.1005L224.81 77.0421ZM217.241 77.877C217.21 77.8716 217.178 77.8662 217.147 77.8609L217.131 77.9531C217.163 77.9584 217.194 77.9637 217.226 77.9692L217.241 77.877ZM219.48 74.6073C219.401 74.6921 219.324 74.7759 219.249 74.8586L219.318 74.9214C219.393 74.8391 219.469 74.7557 219.548 74.6711L219.48 74.6073ZM219.517 74.6859C220.764 74.6234 221.588 74.3775 222.132 74.0884L222.088 74.0058C221.559 74.2869 220.75 74.5305 219.512 74.5925L219.517 74.6859ZM222.068 74.0687C222.112 74.1532 222.157 74.2355 222.201 74.3146L222.283 74.2692C222.239 74.1906 222.195 74.1091 222.151 74.0256L222.068 74.0687ZM222.22 74.2506C221.639 74.5566 220.723 74.8161 219.282 74.8433L219.284 74.9367C220.735 74.9094 221.666 74.648 222.263 74.3333L222.22 74.2506ZM213.396 73.6343C213.41 73.5609 213.423 73.4882 213.435 73.4161L213.343 73.4009C213.331 73.472 213.318 73.5438 213.304 73.6163L213.396 73.6343ZM211.616 73.325C212.143 73.3377 212.729 73.3787 213.384 73.4549L213.395 73.3621C212.738 73.2856 212.148 73.2443 211.618 73.2316L211.616 73.325ZM211.405 73.5447C211.482 73.4662 211.564 73.3892 211.648 73.313L211.585 73.2437C211.5 73.3208 211.417 73.399 211.338 73.4789L211.405 73.5447ZM213.355 73.5788C212.608 73.498 211.951 73.4636 211.371 73.4651L211.372 73.5585C211.947 73.5571 212.601 73.5913 213.345 73.6718L213.355 73.5788ZM220.262 73.8038C220.158 73.907 220.056 74.0087 219.958 74.109L220.024 74.1745C220.122 74.0745 220.223 73.9731 220.327 73.8703L220.262 73.8038ZM221.867 73.566C221.444 73.7912 220.842 73.9921 219.985 74.0954L219.996 74.1882C220.862 74.0839 221.476 73.8802 221.911 73.6485L221.867 73.566ZM221.726 73.3743C221.766 73.4621 221.807 73.5453 221.847 73.6278L221.931 73.5867C221.891 73.5041 221.851 73.422 221.811 73.3353L221.726 73.3743ZM220.303 73.8831C220.952 73.7671 221.433 73.5909 221.791 73.3959L221.746 73.3138C221.399 73.5032 220.927 73.6766 220.286 73.791L220.303 73.8831ZM221.435 72.6349C221.279 72.7975 221.116 72.9642 220.945 73.1349L221.011 73.2012C221.183 73.0299 221.346 72.8627 221.502 72.6994L221.435 72.6349ZM221.611 72.8881C221.578 72.8106 221.545 72.7302 221.512 72.6494L221.425 72.6849C221.458 72.7656 221.492 72.8467 221.525 72.9251L221.611 72.8881ZM221.615 72.9072V72.9066H221.521V72.9072H221.615ZM220.993 73.2122C221.224 73.1313 221.422 73.0418 221.591 72.9481L221.546 72.8663C221.381 72.9573 221.189 73.0447 220.963 73.1239L220.993 73.2122ZM218.524 67.2709C218.659 67.2987 218.792 67.3243 218.921 67.3478L218.938 67.2558C218.809 67.2324 218.677 67.207 218.542 67.1794L218.524 67.2709ZM219.124 67.0812C219.06 67.1414 218.986 67.2028 218.902 67.264L218.957 67.3396C219.044 67.2761 219.121 67.2123 219.188 67.1492L219.124 67.0812ZM218.968 66.904C219.017 66.98 219.066 67.0585 219.116 67.1396L219.196 67.0908C219.145 67.0091 219.096 66.9299 219.046 66.8532L218.968 66.904ZM218.556 67.2657C218.756 67.1506 218.914 67.0301 219.039 66.9126L218.975 66.8445C218.855 66.9569 218.703 67.0731 218.51 67.1847L218.556 67.2657ZM213.491 73.0067C213.498 72.9338 213.505 72.8615 213.51 72.7901L213.417 72.7835C213.412 72.8539 213.405 72.925 213.398 72.997L213.491 73.0067ZM213.469 72.7404C213.098 72.6908 212.746 72.652 212.413 72.6225L212.405 72.7156C212.737 72.745 213.087 72.7836 213.457 72.8331L213.469 72.7404ZM212.383 72.6299C212.282 72.6961 212.185 72.7644 212.091 72.8331L212.146 72.9088C212.239 72.8405 212.335 72.7732 212.434 72.7082L212.383 72.6299ZM212.115 72.9176C212.524 72.9448 212.964 72.9874 213.438 73.0482L213.45 72.9555C212.974 72.8945 212.532 72.8517 212.121 72.8243L212.115 72.9176ZM217.245 66.9658C217.413 67.0113 217.577 67.0537 217.738 67.0933L217.76 67.0026C217.6 66.9631 217.437 66.9209 217.269 66.8756L217.245 66.9658ZM218.544 66.2267C218.277 66.4565 217.868 66.6969 217.244 66.8758L217.27 66.9657C217.905 66.7835 218.326 66.5374 218.605 66.2976L218.544 66.2267ZM218.777 66.4564C218.721 66.3796 218.666 66.3055 218.612 66.2339L218.538 66.2905C218.592 66.3615 218.646 66.4352 218.702 66.5115L218.777 66.4564ZM217.765 67.0918C218.225 66.9219 218.546 66.7177 218.771 66.519L218.709 66.449C218.494 66.6392 218.183 66.8378 217.733 67.0041L217.765 67.0918ZM213.525 72.38C213.526 72.3066 213.525 72.2342 213.522 72.1625L213.429 72.1655C213.431 72.236 213.432 72.3073 213.432 72.3795L213.525 72.38ZM213.485 72.3335C213.326 72.3107 213.171 72.2898 213.019 72.2705L213.007 72.3632C213.159 72.3824 213.314 72.4033 213.472 72.426L213.485 72.3335ZM213.034 72.3585C213.052 72.3494 213.069 72.3399 213.086 72.3308L213.041 72.2489C213.024 72.2581 213.008 72.2669 212.992 72.2752L213.034 72.3585ZM213.081 72.3332H213.081L213.046 72.2465L213.046 72.2465L213.081 72.3332ZM213.081 72.3332L213.046 72.2465L213.081 72.3332ZM213.081 72.3332H213.081L213.046 72.2465H213.046L213.081 72.3332ZM213.086 72.3308C213.105 72.3201 213.123 72.31 213.143 72.3005L213.101 72.2168C213.08 72.2273 213.06 72.2384 213.041 72.2489L213.086 72.3308ZM213.142 72.3005C213.193 72.2756 213.242 72.2486 213.289 72.2223L213.244 72.1405C213.196 72.167 213.15 72.1929 213.101 72.2167L213.142 72.3005ZM213.284 72.2248L213.249 72.138L213.284 72.2248ZM213.284 72.2248L213.284 72.2248L213.249 72.138H213.249L213.284 72.2248ZM213.284 72.2248L213.249 72.138L213.249 72.138L213.284 72.2248ZM213.289 72.2223C213.312 72.2096 213.335 72.197 213.358 72.1848L213.313 72.1025C213.29 72.1151 213.267 72.1279 213.244 72.1405L213.289 72.2223ZM213.329 72.1899C213.375 72.1965 213.422 72.2033 213.469 72.2102L213.483 72.1177C213.435 72.1108 213.389 72.104 213.342 72.0974L213.329 72.1899ZM213.294 74.2603C213.302 74.1876 213.312 74.1142 213.323 74.0401L213.231 74.0262C213.22 74.1014 213.21 74.1759 213.201 74.2495L213.294 74.2603ZM210.976 74.0112C211.619 73.9782 212.378 73.9941 213.273 74.0796L213.282 73.9866C212.383 73.9007 211.619 73.8846 210.971 73.9178L210.976 74.0112ZM210.814 74.253C210.876 74.1659 210.942 74.0796 211.01 73.9936L210.937 73.9353C210.868 74.0225 210.801 74.1102 210.738 74.1988L210.814 74.253ZM213.252 74.2084C212.267 74.1229 211.45 74.1225 210.772 74.1793L210.78 74.2724C211.452 74.2161 212.263 74.2163 213.244 74.3015L213.252 74.2084ZM216.527 64.7128C216.482 64.7231 216.482 64.7231 216.482 64.7231V64.7231C216.482 64.7231 216.482 64.7231 216.482 64.7231C216.482 64.7231 216.482 64.7231 216.482 64.7231C216.482 64.7232 216.482 64.7232 216.482 64.7233C216.482 64.7235 216.482 64.7238 216.482 64.7243C216.482 64.7251 216.482 64.7264 216.483 64.7282C216.484 64.7317 216.485 64.737 216.486 64.744C216.489 64.758 216.493 64.7789 216.498 64.8062C216.509 64.8609 216.522 64.9412 216.537 65.0431L216.629 65.0299C216.615 64.9265 216.601 64.8449 216.59 64.789C216.585 64.7611 216.581 64.7396 216.578 64.725C216.576 64.7177 216.575 64.7122 216.574 64.7084C216.574 64.7065 216.573 64.7051 216.573 64.7041C216.573 64.7036 216.573 64.7032 216.573 64.703C216.573 64.7029 216.573 64.7028 216.573 64.7027C216.573 64.7026 216.573 64.7026 216.573 64.7026C216.573 64.7026 216.573 64.7026 216.573 64.7026C216.573 64.7026 216.573 64.7026 216.573 64.7025C216.573 64.7025 216.573 64.7025 216.527 64.7128ZM216.528 64.6661H216.527V64.7595H216.528V64.6661ZM217.02 64.8221C216.869 64.7497 216.748 64.7108 216.664 64.6899C216.622 64.6795 216.589 64.6736 216.566 64.6703C216.555 64.6686 216.546 64.6676 216.54 64.667C216.537 64.6667 216.535 64.6665 216.533 64.6664C216.532 64.6663 216.532 64.6662 216.531 64.6662C216.531 64.6662 216.531 64.6662 216.53 64.6662C216.53 64.6662 216.53 64.6662 216.53 64.6662C216.53 64.6662 216.53 64.6661 216.53 64.6661C216.53 64.6661 216.53 64.6661 216.53 64.6661C216.53 64.6661 216.53 64.6661 216.528 64.7128C216.525 64.7595 216.525 64.7595 216.525 64.7595C216.525 64.7595 216.525 64.7595 216.525 64.7595C216.525 64.7595 216.525 64.7595 216.525 64.7595C216.525 64.7595 216.525 64.7595 216.525 64.7595C216.525 64.7595 216.525 64.7595 216.525 64.7595C216.525 64.7595 216.526 64.7595 216.526 64.7595C216.527 64.7596 216.529 64.7598 216.531 64.76C216.536 64.7605 216.543 64.7613 216.553 64.7627C216.573 64.7656 216.602 64.771 216.641 64.7806C216.72 64.8 216.835 64.8368 216.98 64.9064L217.02 64.8221ZM216.599 65.0806C216.742 65.0307 216.883 64.9725 217.02 64.9063L216.98 64.8221C216.846 64.8867 216.708 64.9435 216.568 64.9924L216.599 65.0806ZM216.651 65.5759C217.004 65.4664 217.286 65.3371 217.512 65.2016L217.464 65.1214C217.245 65.2528 216.97 65.3791 216.624 65.4866L216.651 65.5759ZM216.702 65.8044C216.697 65.707 216.692 65.6147 216.684 65.5273L216.591 65.5352C216.598 65.621 216.604 65.712 216.608 65.809L216.702 65.8044ZM217.694 65.3073C217.439 65.4734 217.097 65.6336 216.642 65.7617L216.668 65.8517C217.13 65.7214 217.481 65.5576 217.745 65.3857L217.694 65.3073ZM217.461 65.1993C217.534 65.2523 217.61 65.3139 217.69 65.382L217.75 65.3111C217.67 65.2419 217.591 65.1786 217.515 65.1237L217.461 65.1993ZM216.675 66.3469C217.341 66.1853 217.797 65.9566 218.109 65.7229L218.053 65.6481C217.753 65.8729 217.309 66.0969 216.653 66.2561L216.675 66.3469ZM216.704 66.5766C216.708 66.4827 216.71 66.3911 216.711 66.302L216.618 66.301C216.617 66.3892 216.614 66.4797 216.61 66.5725L216.704 66.5766ZM218.242 65.8544C217.92 66.1067 217.419 66.3612 216.647 66.5289L216.667 66.6203C217.45 66.4501 217.964 66.1906 218.299 65.928L218.242 65.8544ZM218.048 65.7186C218.108 65.7812 218.171 65.8497 218.235 65.9222L218.305 65.8602C218.24 65.787 218.176 65.7174 218.115 65.6537L218.048 65.7186ZM218.048 65.7186L218.048 65.7192L218.114 65.6531L218.114 65.6525L218.048 65.7186Z" fill="white"/>
<path d="M216.73 79.8872C216.696 79.8679 216.66 79.8475 216.624 79.826C216.213 79.5837 215.677 79.2121 215.171 78.6945C214.166 77.6647 213.282 76.0584 213.757 73.7126C214.27 71.1826 213.308 69.4257 212.219 68.3113C211.678 67.7568 211.105 67.361 210.669 67.104C210.521 67.0163 210.387 66.9445 210.276 66.8879C210.276 66.8878 210.276 66.8876 210.276 66.8875C210.481 66.7615 210.82 66.601 211.34 66.488C212.38 66.2618 214.152 66.2248 217.02 67.0453C219.936 67.8798 221.789 67.8572 222.927 67.61C223.496 67.4863 223.884 67.3067 224.136 67.1518C224.193 67.1164 224.243 67.0823 224.286 67.0506C224.296 67.0722 224.306 67.096 224.316 67.1218C224.387 67.3135 224.446 67.6374 224.347 68.1289C224.146 69.1213 223.298 70.7921 220.616 73.3794C217.91 75.99 216.98 77.7419 216.75 78.8729C216.665 79.2932 216.676 79.6281 216.73 79.8872Z" stroke="white"/>
</svg>
