<svg width="710" height="430" viewBox="0 0 710 430" fill="none" xmlns="http://www.w3.org/2000/svg">
<path opacity="0.63" d="M505.286 20.6826V12.559H501.856C501.676 12.0174 501.315 11.2953 501.134 10.7538L503.481 8.40695L497.704 2.63019L495.357 4.977C494.816 4.61595 494.274 4.43543 493.552 4.2549V0.824951H485.428V4.2549C484.887 4.43543 484.165 4.79648 483.623 4.977L481.276 2.63019L475.5 8.40695L477.846 10.7538C477.485 11.2953 477.305 11.8369 477.124 12.559H473.694V20.6826H477.124C477.305 21.2241 477.666 21.9462 477.846 22.4878L475.5 24.8346L481.276 30.6114L483.623 28.2646C484.165 28.6256 484.706 28.8061 485.428 28.9867V32.4166H493.552V28.9867C494.094 28.8061 494.816 28.4451 495.357 28.2646L497.704 30.6114L503.481 24.8346L501.134 22.4878C501.495 21.9462 501.676 21.4047 501.856 20.6826H505.286V20.6826ZM489.581 24.8346C485.067 24.8346 481.457 21.2241 481.457 16.711C481.457 12.1979 485.067 8.58747 489.581 8.58747C494.094 8.58747 497.704 12.1979 497.704 16.711C497.704 21.0436 494.094 24.8346 489.581 24.8346Z" fill="white"/>
<path opacity="0.63" d="M623.89 173.225V168.892H622.085C621.904 168.531 621.904 168.17 621.724 167.99L622.988 166.726L619.919 163.657L618.655 164.921C618.294 164.74 618.114 164.56 617.752 164.56V162.754H613.42V164.56C613.059 164.74 612.698 164.74 612.517 164.921L611.254 163.657L608.185 166.726L609.448 167.99C609.268 168.351 609.087 168.531 609.087 168.892H607.282V173.225H609.087C609.268 173.586 609.268 173.947 609.448 174.127L608.185 175.391L611.254 178.46L612.517 177.196C612.878 177.377 613.059 177.557 613.42 177.557V179.363H617.752V177.557C618.114 177.377 618.475 177.377 618.655 177.196L619.919 178.46L622.988 175.391L621.724 174.127C621.904 173.766 622.085 173.586 622.085 173.225H623.89ZM615.586 175.391C613.239 175.391 611.254 173.405 611.254 171.058C611.254 168.712 613.239 166.726 615.586 166.726C617.933 166.726 619.919 168.712 619.919 171.058C619.919 173.586 617.933 175.391 615.586 175.391Z" fill="white"/>
<path opacity="0.63" d="M633.819 38.0126V33.68H632.014C631.833 33.319 631.833 32.9579 631.653 32.7774L632.916 31.5138L629.847 28.4449L628.584 29.7085C628.223 29.528 628.042 29.3475 627.681 29.3475V27.5422H623.349V29.3475C622.988 29.528 622.627 29.528 622.446 29.7085L621.182 28.4449L618.113 31.5138L619.377 32.7774C619.197 33.1385 619.016 33.319 619.016 33.68H617.211V38.0126H619.016C619.197 38.3737 619.197 38.7347 619.377 38.9152L618.113 40.1789L621.182 43.2478L622.446 41.9841C622.807 42.1647 622.988 42.3452 623.349 42.3452V44.1504H627.681V42.3452C628.042 42.1647 628.403 42.1647 628.584 41.9841L629.847 43.2478L632.916 40.1789L631.653 38.9152C631.833 38.5542 632.014 38.3737 632.014 38.0126H633.819ZM625.515 40.1789C623.168 40.1789 621.182 38.1931 621.182 35.8463C621.182 33.4995 623.168 31.5138 625.515 31.5138C627.862 31.5138 629.847 33.4995 629.847 35.8463C629.667 38.1931 627.862 40.1789 625.515 40.1789Z" fill="white"/>
<path opacity="0.63" d="M255.983 73.3952L250.386 64.73L246.776 67.0768C246.054 66.5353 245.512 66.1742 244.79 65.6326L245.693 61.3001L235.584 59.1338L234.681 63.4664C233.959 63.6469 233.056 63.6469 232.334 64.0079L229.987 60.3975L221.322 65.9937L223.669 69.6042C223.127 70.3263 222.766 70.8678 222.225 71.5899L217.892 70.6873L215.726 80.7966L220.058 81.6993C220.239 82.4214 220.239 83.324 220.6 84.0461L216.99 86.3929L222.586 95.058L226.196 92.7112C226.918 93.2528 227.46 93.6138 228.182 94.1554L227.279 98.488L237.389 100.654L238.291 96.3217C239.013 96.1412 239.916 96.1412 240.638 95.7801L242.985 99.3906L251.65 93.7944L249.303 90.1839C249.845 89.4618 250.206 88.9202 250.748 88.1981L255.08 89.1007L257.246 78.9914L252.914 78.0888C252.733 77.3667 252.733 76.4641 252.372 75.742L255.983 73.3952ZM242.263 88.7397C237.389 91.8086 231.07 90.5449 227.821 85.8513C224.752 80.9772 226.016 74.6588 230.709 71.4094C235.584 68.3405 241.902 69.6042 245.151 74.2978C248.401 79.1719 246.957 85.4903 242.263 88.7397ZM203.45 87.6565L199.84 82.2408L197.493 83.685C197.132 83.324 196.59 83.1435 196.229 82.7824L196.771 80.0745L190.453 78.8109L189.911 81.5187C189.369 81.5187 188.828 81.6993 188.467 81.8798L187.023 79.533L181.607 83.1435L183.051 85.4903C182.69 85.8513 182.51 86.3929 182.149 86.7539L179.441 86.2124L178.177 92.5307L180.885 93.0723C180.885 93.6138 181.065 94.1554 181.246 94.5165L178.899 95.9606L182.51 101.376L184.856 99.9322C185.217 100.293 185.759 100.474 186.12 100.835L185.578 103.543L191.897 104.806L192.438 102.098C192.98 102.098 193.522 101.918 193.883 101.737L195.327 104.084L200.742 100.474L199.298 98.1269C199.659 97.7659 199.84 97.2243 200.201 96.8633L202.909 97.4048L204.172 91.0865L201.465 90.5449C201.465 90.0034 201.284 89.4618 201.103 89.1007L203.45 87.6565ZM194.605 97.2243C191.536 99.2101 187.564 98.3075 185.578 95.4191C183.593 92.3502 184.495 88.3786 187.384 86.3929C190.453 84.4071 194.424 85.3097 196.41 88.1981C198.576 91.267 197.674 95.2385 194.605 97.2243Z" fill="white"/>
<path opacity="0.63" d="M-7.86781e-06 328.656L2.52732 334.613L5.05466 333.53C5.4157 333.891 5.77675 334.252 6.1378 334.613L5.05466 337.141L11.1925 339.488L12.2756 336.96C12.8172 336.96 13.3588 336.96 13.9003 336.96L14.9835 339.488L20.9408 336.96L19.8576 334.433C20.2187 334.072 20.5797 333.711 20.9408 333.35L23.4681 334.433L25.8149 328.295L23.2876 327.212C23.2876 326.67 23.2876 326.129 23.2876 325.587L25.8149 324.504L23.2876 318.547L20.7602 319.63C20.3992 319.269 20.0381 318.908 19.6771 318.547L20.7602 316.019L14.6224 313.673L13.5393 316.2C12.9977 316.2 12.4561 316.2 11.9146 316.2L10.8314 313.673L4.87414 316.2L5.95728 318.727C5.59623 319.088 5.23518 319.449 4.87414 319.81L2.3468 318.727L-7.86781e-06 324.865L2.52732 325.948C2.52732 326.49 2.52732 327.031 2.52732 327.573L-7.86781e-06 328.656ZM10.2899 320.533C13.7198 319.088 17.5108 320.713 18.955 323.962C20.3992 327.392 18.7745 331.183 15.525 332.628C12.0951 334.072 8.30409 332.447 6.8599 329.198C5.4157 325.948 7.04042 321.977 10.2899 320.533ZM34.48 325.587L36.1048 329.378L37.7295 328.656C37.91 328.837 38.271 329.198 38.4516 329.378L37.7295 331.003L41.5205 332.447L42.2426 330.822C42.6036 330.822 42.9647 330.822 43.1452 330.822L43.8673 332.447L47.6583 330.822L46.9362 329.198C47.1167 329.017 47.4778 328.656 47.6583 328.476L49.283 329.198L50.7272 325.407L49.1025 324.685C49.1025 324.324 49.1025 323.962 49.1025 323.782L50.7272 323.06L49.1025 319.269L47.4778 319.991C47.2972 319.81 46.9362 319.449 46.7557 319.269L47.4778 317.644L43.6868 316.2L42.9647 317.825C42.6036 317.825 42.2426 317.825 42.062 317.825L41.3399 316.2L37.5489 317.825L38.271 319.449C38.0905 319.63 37.7295 319.991 37.5489 320.171L35.9242 319.449L34.48 323.24L36.1048 323.962C36.1048 324.324 36.1048 324.685 36.1048 324.865L34.48 325.587ZM40.9789 320.533C43.1452 319.63 45.492 320.533 46.3946 322.699C47.2972 324.865 46.3946 327.212 44.2283 328.115C42.062 329.017 39.7152 328.115 38.8126 325.948C37.91 323.782 38.9931 321.435 40.9789 320.533Z" fill="white"/>
<path d="M609.629 139.648C623.786 139.648 635.263 128.171 635.263 114.013C635.263 99.8558 623.786 88.3789 609.629 88.3789C595.471 88.3789 583.994 99.8558 583.994 114.013C583.994 128.171 595.471 139.648 609.629 139.648Z" fill="white"/>
<path d="M607.824 135.495V130.26C604.755 130.26 601.686 129.177 599.88 127.913L601.144 124.483C602.949 125.747 605.657 126.65 608.726 126.65C612.517 126.65 614.864 124.483 614.864 121.595C614.864 118.707 612.878 116.901 608.907 115.457C603.491 113.291 600.242 110.944 600.242 106.431C600.242 102.098 603.31 98.849 608.185 97.9464V92.7112H611.434V97.7658C614.503 97.9464 616.669 98.6685 618.294 99.5711L617.03 103.001C615.947 102.459 613.781 101.196 610.351 101.196C606.379 101.196 604.755 103.543 604.755 105.709C604.755 108.417 606.74 109.861 611.254 111.666C616.669 113.832 619.377 116.54 619.377 121.234C619.377 125.386 616.489 129.177 611.073 130.08V135.495H607.824V135.495Z" fill="#FFAF7F"/>
<path d="M60.1144 362.775C60.1144 368.913 55.2403 373.787 49.1025 373.787C42.9647 373.787 38.0905 368.913 38.0905 362.775C38.0905 356.637 42.9647 351.763 49.1025 351.763C55.2403 351.763 60.1144 356.637 60.1144 362.775Z" fill="white"/>
<path d="M48.3804 371.982V369.635C47.1167 369.635 45.6725 369.274 44.9504 368.732L45.492 367.288C46.2141 367.83 47.4778 368.191 48.7414 368.191C50.3662 368.191 51.4493 367.288 51.4493 366.024C51.4493 364.761 50.5467 364.039 48.922 363.317C46.5752 362.414 45.131 361.331 45.131 359.345C45.131 357.54 46.3946 356.096 48.5609 355.735V353.568H50.0051V355.735C51.2688 355.735 52.3519 356.096 52.8935 356.457L52.3519 357.901C51.8103 357.72 50.9077 357.179 49.4635 357.179C47.6583 357.179 47.1167 358.262 47.1167 359.165C47.1167 360.248 48.0193 360.97 49.8246 361.692C52.1714 362.595 53.2545 363.858 53.2545 365.844C53.2545 367.649 51.9909 369.274 49.6441 369.635V371.982H48.3804V371.982Z" fill="#C28AFF"/>
<path d="M362.672 16.5302C362.672 24.6538 355.993 31.3332 347.869 31.3332C339.746 31.3332 333.066 24.6538 333.066 16.5302C333.066 8.40668 339.746 1.72729 347.869 1.72729C355.993 1.90782 362.672 8.40668 362.672 16.5302Z" fill="white"/>
<path d="M347.869 5.33813C348.411 7.14337 348.591 9.12913 348.772 10.9344C348.952 12.7396 348.953 14.7254 348.953 16.5306L347.869 15.4475C349.494 15.4475 351.119 15.4475 352.743 15.8085C354.368 15.989 355.993 16.1696 357.618 16.7111C355.993 17.0722 354.368 17.4332 352.743 17.6138C351.119 17.7943 349.494 17.7943 347.869 17.9748H346.786V16.8917C346.786 15.0864 346.786 13.1007 346.967 11.2954C347.147 9.12913 347.328 7.3239 347.869 5.33813Z" fill="#FFAF7F"/>
<path d="M131.782 82.4214C142.45 82.4214 151.098 73.7733 151.098 63.1054C151.098 52.4374 142.45 43.7893 131.782 43.7893C121.114 43.7893 112.466 52.4374 112.466 63.1054C112.466 73.7733 121.114 82.4214 131.782 82.4214Z" fill="white"/>
<path d="M143.155 62.5637C145.863 58.0506 144.239 52.0933 139.725 49.566C135.212 46.8582 129.255 48.4829 126.728 52.996C124.381 57.148 125.464 62.3832 129.075 65.2716L123.659 74.6588C123.298 75.3809 123.478 76.103 124.2 76.6446C124.922 77.0056 125.645 76.8251 126.186 76.103L131.602 66.7158C135.754 68.3405 140.809 66.7158 143.155 62.5637ZM131.602 63.6469C128.352 61.8416 127.269 57.6896 129.075 54.4402C130.88 51.1907 135.032 50.1076 138.281 51.9128C141.531 53.7181 142.614 57.8701 140.809 61.1195C138.823 64.369 134.671 65.4521 131.602 63.6469Z" fill="#C28AFF"/>
<path d="M676.423 384.077C676.423 395.811 666.855 405.379 655.121 405.379C643.387 405.379 633.819 395.811 633.819 384.077C633.819 372.343 643.387 362.775 655.121 362.775C666.855 362.775 676.423 372.343 676.423 384.077Z" fill="white"/>
<path d="M662.703 384.799C664.147 382.994 664.869 380.827 664.869 378.481C664.869 375.592 663.605 372.884 661.439 371.079C659.273 369.274 656.385 368.371 653.677 368.732C649.344 369.274 645.914 372.523 645.192 376.856C644.65 379.744 645.373 382.633 647.178 384.799C648.983 386.965 649.886 389.493 649.886 392.02V393.103V393.103V397.977H660.176V393.103H659.995V392.02C659.995 389.493 660.898 386.965 662.703 384.799ZM648.983 383.535C647.539 381.73 646.997 379.564 647.358 377.217C647.9 373.967 650.788 371.26 654.038 370.899C656.384 370.538 658.551 371.26 660.176 372.884C661.8 374.329 662.883 376.495 662.883 378.842C662.883 380.647 662.342 382.452 661.078 383.716C658.912 386.243 657.829 389.131 657.829 392.2V392.561H656.746C657.468 390.034 658.731 385.34 658.009 383.716C657.829 383.355 657.468 383.174 657.287 383.174C656.926 382.994 656.565 383.174 656.204 383.355C655.843 382.994 655.482 382.633 654.76 382.633C654.218 382.633 653.857 382.813 653.496 383.355H653.316C652.774 383.174 652.232 383.174 651.871 383.535C650.788 384.438 652.052 389.131 652.955 392.742H651.871V392.381C652.232 388.951 651.149 386.063 648.983 383.535ZM654.218 392.381C653.135 388.59 652.232 384.618 652.774 383.896C652.774 383.896 652.955 383.716 653.135 383.896C653.135 383.896 653.316 383.896 653.316 384.077C653.135 384.618 653.135 385.16 653.496 385.521C653.677 385.702 654.038 385.702 654.399 385.702C654.76 385.521 654.94 385.34 654.76 384.979C654.76 384.618 654.579 384.257 654.399 383.896C654.399 383.896 654.399 383.716 654.579 383.716C654.579 383.716 654.76 383.535 654.94 383.535C654.94 383.535 655.301 383.535 655.482 383.896C655.301 384.077 655.121 384.438 654.94 384.618C654.76 385.16 654.94 385.701 655.482 385.882C655.843 386.063 656.023 385.882 656.385 385.702C656.746 385.34 656.746 384.799 656.565 384.257C656.746 384.077 656.926 384.077 656.926 384.077C656.926 384.077 656.926 384.077 656.926 384.257C657.468 385.34 656.565 389.673 655.482 392.561H654.218V392.381Z" fill="#A371FF"/>
<path d="M409.428 348.875H286.311V419.46H409.428V348.875Z" fill="white"/>
<path opacity="0.36" d="M409.428 348.875H286.311V378.481H409.428V348.875Z" fill="#D6BDF1"/>
<path d="M420.259 419.279H275.479C273.674 419.279 272.23 417.835 272.23 416.03V415.849C272.23 414.044 273.674 412.6 275.479 412.6H420.259C422.065 412.6 423.509 414.044 423.509 415.849V416.03C423.328 417.835 421.884 419.279 420.259 419.279Z" fill="white"/>
<path opacity="0.36" d="M533.267 371.801H181.607C176.913 371.801 173.122 368.01 173.122 363.317V132.246C173.122 127.552 176.913 123.761 181.607 123.761H533.267C537.961 123.761 541.752 127.552 541.752 132.246V363.317C541.752 368.01 537.961 371.801 533.267 371.801Z" fill="#D6BDF1"/>
<path d="M532.184 123.762H163.555V371.801H532.184V123.762Z" fill="white"/>
<path d="M532.184 123.762H163.555V338.946H532.184V123.762Z" fill="url(#paint0_linear)"/>
<path d="M520.811 136.037H174.928V327.212H520.811V136.037Z" fill="white"/>
<path d="M201.826 255.544H284.686C289.56 255.544 293.532 259.515 293.532 264.39V302.841C293.532 307.715 289.56 311.687 284.686 311.687H201.826C196.951 311.687 192.98 307.715 192.98 302.841V264.39C193.16 259.515 196.951 255.544 201.826 255.544Z" fill="#E2F1FF"/>
<path d="M202.187 151.743H284.686C289.56 151.743 293.532 155.714 293.532 160.589V206.803C293.532 211.677 289.56 215.648 284.686 215.648H202.187C197.313 215.648 193.341 211.677 193.341 206.803V160.589C193.522 155.714 197.313 151.743 202.187 151.743Z" fill="#E2F1FF"/>
<path d="M309.959 233.159L406.179 222.328C411.053 221.786 415.385 225.216 415.927 230.09L421.162 276.124C421.704 280.998 418.274 285.33 413.399 285.872L317.18 296.703C312.306 297.245 307.974 293.815 307.432 288.941L302.197 242.907C301.836 238.033 305.266 233.701 309.959 233.159Z" fill="#E2F1FF"/>
<path d="M328.012 217.815H310.862V188.931H328.012V217.815ZM355.09 178.821H337.941V217.634H355.09V178.821ZM381.988 164.921H364.839V217.634H381.988V164.921ZM410.872 151.743H393.722V217.634H410.872V151.743Z" fill="#E2F1FF"/>
<path d="M465.752 304.105C479.909 304.105 491.386 292.628 491.386 278.471C491.386 264.313 479.909 252.836 465.752 252.836C451.594 252.836 440.117 264.313 440.117 278.471C440.117 292.628 451.594 304.105 465.752 304.105Z" fill="#E2F1FF"/>
<path d="M488.317 266.556C490.122 270.167 491.205 274.138 491.205 278.471C491.205 292.552 479.832 304.105 465.571 304.105C451.309 304.105 439.936 292.732 439.936 278.471C439.936 264.209 451.309 252.836 465.571 252.836V278.471L488.317 266.556Z" fill="#B0D4FF"/>
<path d="M491.139 225.3C493.407 211.325 483.917 198.158 469.942 195.89C455.967 193.622 442.8 203.112 440.532 217.087C438.264 231.062 447.754 244.229 461.729 246.497C475.704 248.765 488.871 239.275 491.139 225.3Z" fill="#E2F1FF"/>
<path d="M491.386 221.245C491.386 235.326 480.013 246.879 465.751 246.879C451.49 246.879 440.117 235.506 440.117 221.245C440.117 207.164 451.49 195.611 465.751 195.611V221.245H491.386Z" fill="#B0D4FF"/>
<path d="M428.383 182.251H500.051C501.315 182.251 502.398 183.334 502.398 184.598C502.398 185.862 501.315 186.945 500.051 186.945H428.202C426.939 186.945 425.856 185.862 425.856 184.598C425.856 183.334 426.939 182.251 428.383 182.251ZM428.383 177.016H500.051C501.315 177.016 502.398 175.933 502.398 174.669C502.398 173.405 501.315 172.322 500.051 172.322H428.202C426.939 172.322 425.856 173.405 425.856 174.669C425.856 175.752 426.939 177.016 428.383 177.016ZM428.383 166.726H500.051C501.315 166.726 502.398 165.643 502.398 164.379C502.398 163.116 501.315 162.032 500.051 162.032H428.202C426.939 162.032 425.856 163.116 425.856 164.379C425.856 165.643 426.939 166.726 428.383 166.726ZM428.383 156.617H500.051C501.315 156.617 502.398 155.534 502.398 154.27C502.398 153.006 501.315 151.923 500.051 151.923H428.202C426.939 151.923 425.856 153.006 425.856 154.27C425.856 155.534 426.939 156.617 428.383 156.617Z" fill="#E2F1FF"/>
<path d="M195.688 236.409H291.185C292.449 236.409 293.351 235.506 293.351 234.242V233.881C293.351 232.618 292.449 231.715 291.185 231.715H195.688C194.424 231.715 193.521 232.618 193.521 233.881V234.242C193.521 235.326 194.424 236.409 195.688 236.409Z" fill="#E2F1FF"/>
<path d="M195.688 246.157H291.185C292.449 246.157 293.351 245.254 293.351 243.991V243.449C293.351 242.185 292.449 241.283 291.185 241.283H195.688C194.424 241.283 193.521 242.185 193.521 243.449V243.81C193.521 245.254 194.424 246.157 195.688 246.157Z" fill="#E2F1FF"/>
<path opacity="0.36" d="M59.5728 127.553H102.718C106.148 127.553 108.856 130.261 108.856 133.691V162.935C108.856 166.365 106.148 169.073 102.718 169.073H99.6491L106.328 175.933L88.6371 169.073H59.5728C56.1429 169.073 53.435 166.365 53.435 162.935V133.691C53.435 130.261 56.1429 127.553 59.5728 127.553Z" fill="#D6BDF1"/>
<path d="M55.7818 162.755H97.4828C101.274 162.755 104.343 159.686 104.343 155.895V128.094C104.343 124.303 101.274 121.234 97.4828 121.234H55.7818C51.9908 121.234 48.9219 124.303 48.9219 128.094V155.895C48.9219 159.686 51.9908 162.755 55.7818 162.755Z" fill="white"/>
<path d="M92.9697 160.769L101.815 169.615L78.8889 160.769" fill="white"/>
<path d="M98.3854 135.315H55.0597C54.1571 135.315 53.435 134.593 53.435 133.69C53.435 132.788 54.1571 132.066 55.0597 132.066H98.3854C99.2881 132.066 100.01 132.788 100.01 133.69C100.01 134.593 99.2881 135.315 98.3854 135.315ZM100.01 141.994C100.01 141.092 99.2881 140.37 98.3854 140.37H55.0597C54.1571 140.37 53.435 141.092 53.435 141.994C53.435 142.897 54.1571 143.619 55.0597 143.619H98.3854C99.2881 143.619 100.01 142.897 100.01 141.994ZM100.01 150.479C100.01 149.576 99.2881 148.854 98.3854 148.854H55.0597C54.1571 148.854 53.435 149.576 53.435 150.479C53.435 151.382 54.1571 152.104 55.0597 152.104H98.3854C99.2881 152.104 100.01 151.382 100.01 150.479Z" fill="#E2F1FF"/>
<path d="M311.765 275.221C310.501 271.611 310.14 268.903 309.418 268.722C308.696 268.542 307.974 271.611 307.974 271.611C306.89 271.611 304.724 264.57 304.363 264.209C303.28 263.307 302.377 272.694 306.529 276.124C310.681 279.373 311.765 275.221 311.765 275.221Z" fill="#FFC9C5"/>
<path d="M358.52 267.459C358.159 269.625 357.618 273.958 357.798 275.221C358.159 276.846 363.755 275.582 363.755 275.582L363.394 266.737L358.52 267.459Z" fill="#FBA394"/>
<path d="M355.993 264.751C356.896 266.737 358.701 268.181 360.867 268.361C363.033 268.542 365.2 267.639 366.283 265.834C367.727 263.848 367.727 261.14 367.366 258.794C366.824 255.003 365.38 251.212 362.672 248.504L353.646 253.919L351.48 259.877L355.993 264.751Z" fill="#FFC9C5"/>
<path d="M361.77 252.837C363.394 251.934 368.63 248.685 368.269 246.157C366.102 247.24 361.95 244.171 356.354 245.074C354.91 245.255 353.646 245.435 352.563 246.338C350.577 247.782 349.133 250.49 349.855 252.837C347.689 253.198 346.064 255.364 345.703 257.53C344.981 260.78 346.425 264.21 348.772 266.376C351.299 268.542 354.91 269.264 357.979 268.542C358.34 268.542 358.701 268.362 358.881 268.001C359.242 267.459 358.881 266.917 358.34 266.376C357.257 265.112 356.173 263.849 355.09 262.404C354.91 262.043 354.549 261.682 354.549 261.321C354.188 259.516 357.437 261.682 357.979 261.141C359.242 259.877 357.437 259.335 357.798 257.169C358.159 254.281 359.242 254.461 361.77 252.837Z" fill="#241D9E"/>
<path d="M357.979 413.502L363.936 419.279H351.66L352.382 413.502H357.979Z" fill="#030478"/>
<path d="M377.656 413.502L393 419.279H371.518L372.24 413.502H377.656Z" fill="#030478"/>
<path d="M378.739 413.864L376.753 329.739L357.798 328.115C357.798 328.115 357.798 328.656 357.979 329.378H347.328C347.328 330.642 351.299 414.225 351.299 414.225H359.242L361.77 342.376C365.922 367.469 371.879 414.225 371.879 414.225L378.739 413.864Z" fill="url(#paint1_linear)"/>
<path d="M411.775 268.542C413.038 264.932 413.399 262.224 414.122 262.043C414.844 261.863 415.566 264.932 415.566 264.932C416.649 264.932 418.815 257.891 419.176 257.53C420.259 256.627 421.162 266.015 417.01 269.445C412.858 272.694 411.775 268.542 411.775 268.542Z" fill="#FFC9C5"/>
<path d="M410.872 267.639C407.984 272.333 398.055 281.539 390.112 284.247C390.112 284.247 378.739 279.373 372.601 274.679C368.63 271.61 357.798 269.625 350.216 273.957C343.537 277.748 331.803 286.774 331.803 286.774C327.29 285.691 319.166 279.734 311.223 273.957L307.432 277.026C307.432 277.026 319.166 292.371 330.72 296.884C335.413 298.689 342.995 291.649 347.689 288.941C346.786 293.454 345.342 309.52 345.161 333.891C353.105 335.877 370.976 333.53 380.544 332.447C378.197 314.214 373.143 292.551 373.143 286.413C378.919 291.649 386.14 295.259 391.917 293.273C402.388 289.663 414.483 271.249 414.483 271.249L410.872 267.639Z" fill="url(#paint2_linear)"/>
<path opacity="0.5" d="M615.406 242.907H535.614C532.184 242.907 529.296 240.019 529.296 236.589V193.985C529.296 190.555 532.184 187.667 535.614 187.667H615.406C618.836 187.667 621.724 190.555 621.724 193.985V236.589C621.724 240.019 619.016 242.907 615.406 242.907Z" fill="#D6BDF1"/>
<path d="M612.337 238.214H530.018C527.31 238.214 524.963 235.867 524.963 233.159V187.848C524.963 185.14 527.31 182.793 530.018 182.793H612.337C615.045 182.793 617.391 185.14 617.391 187.848V233.159C617.391 236.047 615.045 238.214 612.337 238.214Z" fill="white"/>
<g opacity="0.52">
<path opacity="0.52" d="M530.921 210.774V210.413C530.921 202.289 537.419 195.79 545.543 195.79C545.723 195.79 545.904 195.79 545.904 195.79C554.028 195.79 560.526 202.289 560.526 210.413V210.774C560.526 218.897 554.028 225.396 545.904 225.396C545.723 225.396 545.543 225.396 545.543 225.396C537.6 225.396 530.921 218.897 530.921 210.774Z" fill="#B0D4FF"/>
<path opacity="0.52" d="M610.532 202.109H566.484C566.123 202.109 565.762 201.748 565.762 201.387C565.762 201.026 566.123 200.665 566.484 200.665H610.532C610.893 200.665 611.254 201.026 611.254 201.387C611.254 201.748 610.893 202.109 610.532 202.109ZM611.254 205.9C611.254 205.539 610.893 205.178 610.532 205.178H566.484C566.123 205.178 565.762 205.539 565.762 205.9C565.762 206.261 566.123 206.622 566.484 206.622H610.532C610.893 206.802 611.254 206.441 611.254 205.9ZM611.254 210.593C611.254 210.232 610.893 209.871 610.532 209.871H566.484C566.123 209.871 565.762 210.232 565.762 210.593C565.762 210.954 566.123 211.315 566.484 211.315H610.532C610.893 211.315 611.254 210.954 611.254 210.593ZM611.254 215.287C611.254 214.926 610.893 214.565 610.532 214.565H566.484C566.123 214.565 565.762 214.926 565.762 215.287C565.762 215.648 566.123 216.009 566.484 216.009H610.532C610.893 216.009 611.254 215.648 611.254 215.287ZM611.254 219.981C611.254 219.62 610.893 219.258 610.532 219.258H566.484C566.123 219.258 565.762 219.62 565.762 219.981C565.762 220.342 566.123 220.703 566.484 220.703H610.532C610.893 220.703 611.254 220.342 611.254 219.981Z" fill="#B0D4FF"/>
</g>
<path d="M577.676 344.181C585.078 344.181 591.215 338.043 591.215 330.642C591.215 323.24 585.078 317.103 577.676 317.103H418.815C424.05 326.129 424.05 335.155 418.815 344.181H577.676Z" fill="#EDEDED"/>
<path d="M577.676 344.181C585.439 344.181 591.576 337.682 591.215 329.92C590.854 322.699 584.536 317.103 577.315 317.103H416.829C415.746 317.103 414.663 316.2 414.663 314.936C414.663 313.853 415.566 312.77 416.829 312.77H577.676C587.424 312.77 595.367 320.713 595.367 330.461C595.367 340.21 587.424 348.153 577.676 348.153H416.649C415.566 348.153 414.483 347.25 414.483 345.986C414.483 344.903 415.385 343.82 416.649 343.82H577.676V344.181Z" fill="#D400F6"/>
<path d="M585.619 319.63L572.802 319.81L548.612 319.991L500.412 320.171L452.212 319.991L428.022 319.81H420.259C420.259 319.63 420.079 319.63 420.079 319.449H428.022L452.212 319.269L500.412 319.088L548.612 319.269L572.802 319.449L585.258 319.63C585.439 319.63 585.439 319.63 585.619 319.63ZM588.688 322.879L588.508 322.699L572.622 322.518L548.431 322.338L500.231 322.157L452.032 322.338L427.841 322.518H421.162C421.162 322.699 421.162 322.699 421.343 322.879H427.841L452.032 323.06L500.231 323.24L548.431 323.06L572.622 322.879H588.688ZM590.493 325.948L572.802 325.587L548.612 325.406L500.412 325.226L452.212 325.406L428.022 325.587H422.245C422.245 325.768 422.245 325.948 422.245 325.948H427.841L452.032 326.129L500.231 326.309L548.431 326.129L572.622 325.948H590.493ZM420.079 342.015H428.022L452.212 342.195L500.412 342.376L548.612 342.195L572.802 342.015L585.258 341.834C585.439 341.834 585.439 341.654 585.619 341.654L572.802 341.473L548.612 341.293L500.412 341.112L452.212 341.293L428.022 341.473H420.259C420.259 341.834 420.079 341.834 420.079 342.015ZM588.688 338.765L588.869 338.585L572.983 338.404L548.792 338.224L500.592 338.043L452.393 338.224L428.202 338.404H421.704C421.704 338.585 421.704 338.585 421.523 338.765H428.202L452.393 338.946L500.592 339.126H548.792L572.983 338.946L588.688 338.765ZM590.313 335.516C590.493 335.516 590.493 335.516 590.313 335.516L572.802 335.155L548.612 334.974L500.412 334.794L452.212 334.974L428.022 335.155H422.426C422.426 335.335 422.426 335.516 422.426 335.516H428.202L452.393 335.696L500.592 335.877L548.792 335.696L572.983 335.516H590.313ZM591.215 332.447C591.215 332.266 591.215 332.266 591.215 332.447L572.802 332.086L548.792 331.905L500.592 331.725L452.393 331.905L428.202 332.086H422.967C422.967 332.266 422.967 332.447 422.967 332.447H428.202L452.393 332.627L500.592 332.808L548.792 332.627L572.983 332.447H591.215ZM591.215 329.197C591.215 329.197 591.215 329.017 591.215 329.197L572.802 328.836L548.612 328.656L500.412 328.475L452.212 328.656L428.022 328.836H422.787C422.787 329.017 422.787 329.197 422.787 329.197H428.022L452.212 329.378L500.412 329.559L548.612 329.378L572.802 329.197H591.215Z" fill="#E1E3EF"/>
<path d="M436.145 343.098L443.005 339.126L449.865 343.098V325.587H436.145V343.098Z" fill="#FFBA49"/>
<path d="M432.355 379.744C424.953 379.744 418.815 373.606 418.815 366.205C418.815 358.803 424.953 352.665 432.355 352.665H591.215C585.98 361.691 585.98 370.718 591.215 379.744H432.355Z" fill="#EDEDED"/>
<path d="M432.354 379.744C424.592 379.744 418.454 373.246 418.815 365.483C419.176 358.262 425.495 352.666 432.716 352.666H593.201C594.284 352.666 595.367 351.763 595.367 350.5C595.367 349.416 594.465 348.333 593.201 348.333H432.174C422.426 348.333 414.483 356.276 414.483 366.025C414.483 375.773 422.426 383.716 432.174 383.716H593.201C594.284 383.716 595.367 382.813 595.367 381.55C595.367 380.466 594.465 379.383 593.201 379.383H432.354V379.744Z" fill="#FE9946"/>
<path d="M424.953 354.832L437.409 354.651L461.599 354.471L509.799 354.29L557.999 354.471L582.189 354.651H590.132C590.132 354.832 589.952 354.832 589.952 355.012H582.189L557.999 355.193L509.799 355.373L461.599 355.193L437.409 355.012L424.592 354.832C424.592 355.012 424.772 355.012 424.953 354.832ZM437.409 358.442L461.599 358.623L509.799 358.803L557.999 358.623L582.189 358.442H588.688C588.688 358.262 588.688 358.262 588.869 358.081H582.189L557.999 357.901L509.799 357.72L461.599 357.901L437.409 358.081L421.523 358.262L421.343 358.442H437.409ZM437.409 361.692L461.599 361.872L509.799 362.053L557.999 361.872L582.189 361.692H587.786C587.786 361.511 587.786 361.331 587.786 361.331H582.009L557.819 361.15L509.619 360.97L461.419 361.15L437.229 361.331L419.718 361.511V361.692H437.409ZM589.952 377.036H582.189L557.999 376.856L509.799 376.675L461.599 376.856L437.409 377.036L424.592 377.217C424.773 377.217 424.772 377.397 424.953 377.397L437.409 377.578L461.599 377.758L509.799 377.939L557.999 377.758L582.189 377.578H590.132C590.132 377.397 589.952 377.217 589.952 377.036ZM437.409 374.328L461.599 374.509L509.799 374.689L557.999 374.509L582.189 374.328H588.869C588.869 374.148 588.869 374.148 588.688 373.967H582.189L557.999 373.787L509.799 373.606L461.599 373.787L437.409 373.967L421.523 374.148L421.704 374.328H437.409ZM437.409 371.26L461.599 371.44L509.799 371.621L557.999 371.44L582.189 371.26H587.966C587.966 371.079 587.966 370.898 587.966 370.898H582.37L558.18 370.718L509.98 370.537L461.78 370.718L437.59 370.898L419.898 371.079V371.26H437.409ZM437.409 368.01L461.599 368.191L509.799 368.371L557.999 368.191L582.189 368.01H587.424C587.424 367.83 587.424 367.649 587.424 367.649H582.189L557.999 367.469L509.799 367.288L461.599 367.469L437.409 367.649L418.996 367.83C418.996 367.83 418.996 367.83 418.996 368.01H437.409ZM437.409 364.761L461.599 364.941L509.799 365.122L557.999 364.941L582.189 364.761H587.424C587.424 364.58 587.424 364.4 587.424 364.4H582.189L557.999 364.219L509.799 364.039L461.599 364.219L437.409 364.4L418.996 364.58C418.996 364.58 418.996 364.58 418.996 364.761H437.409Z" fill="#E1E3EF"/>
<path d="M578.579 372.343L571.538 368.371L564.678 372.343V354.832H578.579V372.343Z" fill="#FE9946"/>
<path d="M577.676 415.127C585.078 415.127 591.215 408.989 591.215 401.588C591.215 394.186 585.078 388.048 577.676 388.048H418.815C424.05 397.074 424.05 406.101 418.815 415.127H577.676Z" fill="#EDEDED"/>
<path d="M577.676 415.127C585.439 415.127 591.576 408.628 591.215 400.866C590.854 393.645 584.536 388.049 577.315 388.049H416.829C415.746 388.049 414.663 387.146 414.663 385.882C414.663 384.799 415.566 383.716 416.829 383.716H577.676C587.424 383.716 595.367 391.659 595.367 401.407C595.367 411.156 587.424 419.099 577.676 419.099H416.649C415.566 419.099 414.483 418.196 414.483 416.932C414.483 415.849 415.385 414.766 416.649 414.766H577.676V415.127Z" fill="#5B33FF"/>
<path d="M585.619 390.576L572.802 390.756L548.612 390.937L500.412 391.117L452.212 390.937L428.022 390.756H420.259C420.259 390.576 420.079 390.576 420.079 390.395H428.022L452.212 390.215L500.412 390.034L548.612 390.215L572.802 390.395L585.258 390.576C585.439 390.395 585.439 390.576 585.619 390.576ZM588.688 393.825L588.508 393.645L572.622 393.464L548.792 393.284L500.592 393.103L452.393 393.284L428.202 393.464H421.523C421.523 393.645 421.523 393.645 421.704 393.825H428.202L452.393 394.006L500.592 394.186L548.792 394.006L572.983 393.825H588.688ZM590.493 396.894L572.802 396.533L548.612 396.353L500.412 396.172L452.212 396.353L428.022 396.533H422.245C422.245 396.714 422.245 396.894 422.245 396.894H427.841L452.032 397.075L500.231 397.255L548.431 397.075L572.622 396.894H590.493ZM588.688 409.711L588.869 409.531L572.983 409.35L548.792 409.17L500.592 408.989L452.393 409.17L428.202 409.35H421.704C421.704 409.531 421.704 409.531 421.523 409.711H428.202L452.393 409.892L500.592 410.072L548.792 409.892L572.983 409.711H588.688ZM590.313 406.462C590.493 406.462 590.493 406.281 590.313 406.462L572.802 406.101L548.792 405.92L500.592 405.74L452.393 405.92L428.202 406.101H422.606C422.606 406.281 422.606 406.462 422.606 406.462H428.383L452.573 406.642L500.773 406.823L548.973 406.642L573.163 406.462H590.313ZM591.215 403.212L572.802 402.851L548.612 402.671L500.412 402.49L452.212 402.671L428.022 402.851H422.787C422.787 403.032 422.787 403.212 422.787 403.212H428.022L452.212 403.393L500.412 403.573L548.612 403.393L572.802 403.212H591.215ZM591.215 400.144C591.215 399.963 591.215 399.963 591.215 400.144L572.802 399.782L548.612 399.602L500.412 399.421L452.212 399.602L428.022 399.782H422.787C422.787 399.963 422.787 400.144 422.787 400.144H428.022L452.212 400.324L500.412 400.505H548.792L572.983 400.324L591.215 400.144Z" fill="#E1E3EF"/>
<path d="M474.236 414.044L481.096 410.073L488.136 414.044V396.533H474.236V414.044Z" fill="#5B33FF"/>
<path opacity="0.5" d="M649.344 331.905H569.553C566.123 331.905 563.234 329.017 563.234 325.587V282.983C563.234 279.553 566.123 276.665 569.553 276.665H649.344C652.774 276.665 655.662 279.553 655.662 282.983V325.587C655.843 329.017 652.955 331.905 649.344 331.905Z" fill="#D6BDF1"/>
<path d="M646.275 327.934H563.956C561.248 327.934 558.902 325.588 558.902 322.88V277.749C558.902 275.041 561.248 272.694 563.956 272.694H646.275C648.983 272.694 651.33 275.041 651.33 277.749V322.88C651.33 325.768 648.983 327.934 646.275 327.934Z" fill="white"/>
<g opacity="0.52">
<path opacity="0.52" d="M565.039 300.494V300.133C565.039 292.01 571.538 285.511 579.662 285.511C579.842 285.511 580.023 285.511 580.023 285.511C588.147 285.511 594.645 292.01 594.645 300.133V300.494C594.645 308.618 588.147 315.117 580.023 315.117C579.842 315.117 579.662 315.117 579.662 315.117C571.538 315.117 565.039 308.618 565.039 300.494Z" fill="#B0D4FF"/>
<path opacity="0.52" d="M644.47 291.829H600.422C600.061 291.829 599.7 291.468 599.7 291.107C599.7 290.746 600.061 290.385 600.422 290.385H644.47C644.831 290.385 645.192 290.746 645.192 291.107C645.192 291.468 644.831 291.829 644.47 291.829ZM645.192 295.62C645.192 295.259 644.831 294.898 644.47 294.898H600.422C600.061 294.898 599.7 295.259 599.7 295.62C599.7 295.981 600.061 296.342 600.422 296.342H644.47C644.831 296.523 645.192 296.162 645.192 295.62ZM645.192 300.314C645.192 299.953 644.831 299.592 644.47 299.592H600.422C600.061 299.592 599.7 299.953 599.7 300.314C599.7 300.675 600.061 301.036 600.422 301.036H644.47C644.831 301.036 645.192 300.675 645.192 300.314ZM645.192 305.007C645.192 304.646 644.831 304.285 644.47 304.285H600.422C600.061 304.285 599.7 304.646 599.7 305.007C599.7 305.368 600.061 305.73 600.422 305.73H644.47C644.831 305.73 645.192 305.368 645.192 305.007ZM645.192 309.701C645.192 309.34 644.831 308.979 644.47 308.979H600.422C600.061 308.979 599.7 309.34 599.7 309.701C599.7 310.062 600.061 310.423 600.422 310.423H644.47C644.831 310.423 645.192 310.062 645.192 309.701Z" fill="#B0D4FF"/>
</g>
<path opacity="0.36" d="M385.96 128.636H306.168C302.738 128.636 299.85 125.747 299.85 122.317V79.7136C299.85 76.2836 302.738 73.3953 306.168 73.3953H385.96C389.39 73.3953 392.278 76.2836 392.278 79.7136V122.317C392.459 125.928 389.57 128.636 385.96 128.636Z" fill="#D6BDF1"/>
<path d="M382.891 128.636H300.572C297.864 128.636 295.517 126.289 295.517 123.581V78.4502C295.517 75.7423 297.864 73.3955 300.572 73.3955H382.891C385.599 73.3955 387.946 75.7423 387.946 78.4502V123.762C387.946 126.469 385.599 128.636 382.891 128.636Z" fill="white"/>
<g opacity="0.52">
<path opacity="0.52" d="M301.655 101.196V100.835C301.655 92.7115 308.154 86.2126 316.278 86.2126C316.458 86.2126 316.639 86.2126 316.639 86.2126C324.762 86.2126 331.261 92.7115 331.261 100.835V101.196C331.261 109.32 324.762 115.819 316.639 115.819C316.458 115.819 316.278 115.819 316.278 115.819C308.154 115.819 301.655 109.32 301.655 101.196Z" fill="#B0D4FF"/>
<path opacity="0.52" d="M381.086 92.5309H337.038C336.677 92.5309 336.316 92.1698 336.316 91.8088C336.316 91.4477 336.677 91.0867 337.038 91.0867H381.086C381.447 91.0867 381.808 91.4477 381.808 91.8088C381.808 92.1698 381.447 92.5309 381.086 92.5309ZM381.808 96.3219C381.808 95.9608 381.447 95.5998 381.086 95.5998H337.038C336.677 95.5998 336.316 95.9608 336.316 96.3219C336.316 96.6829 336.677 97.044 337.038 97.044H381.086C381.447 97.044 381.808 96.8634 381.808 96.3219ZM381.808 101.015C381.808 100.654 381.447 100.293 381.086 100.293H337.038C336.677 100.293 336.316 100.654 336.316 101.015C336.316 101.377 336.677 101.738 337.038 101.738H381.086C381.447 101.738 381.808 101.377 381.808 101.015ZM381.808 105.709C381.808 105.348 381.447 104.987 381.086 104.987H337.038C336.677 104.987 336.316 105.348 336.316 105.709C336.316 106.07 336.677 106.431 337.038 106.431H381.086C381.447 106.431 381.808 106.07 381.808 105.709ZM381.808 110.403C381.808 110.042 381.447 109.681 381.086 109.681H337.038C336.677 109.681 336.316 110.042 336.316 110.403C336.316 110.764 336.677 111.125 337.038 111.125H381.086C381.447 111.125 381.808 110.764 381.808 110.403Z" fill="#B0D4FF"/>
</g>
<path opacity="0.36" d="M209.227 185.681H252.011C255.441 185.681 258.149 188.389 258.149 191.819V220.883C258.149 224.313 255.441 227.021 252.011 227.021H248.942L247.859 236.589L238.111 227.021H209.227C205.797 227.021 203.089 224.313 203.089 220.883V191.819C203.089 188.389 205.797 185.681 209.227 185.681Z" fill="#B0BDF1"/>
<path d="M205.797 222.147H246.957C250.748 222.147 253.816 219.078 253.816 215.287V187.667C253.816 183.876 250.748 180.807 246.957 180.807H205.797C202.006 180.807 198.937 183.876 198.937 187.667V215.287C198.937 219.078 202.006 222.147 205.797 222.147Z" fill="white"/>
<path d="M242.624 220.161L243.527 234.423L228.543 220.161" fill="white"/>
<path d="M247.859 194.888H204.894C203.992 194.888 203.27 194.166 203.27 193.263C203.27 192.36 203.992 191.638 204.894 191.638H247.859C248.762 191.638 249.484 192.36 249.484 193.263C249.484 194.166 248.762 194.888 247.859 194.888ZM249.484 201.567C249.484 200.664 248.762 199.942 247.859 199.942H204.894C203.992 199.942 203.27 200.664 203.27 201.567C203.27 202.47 203.992 203.192 204.894 203.192H247.859C248.762 203.192 249.484 202.47 249.484 201.567ZM249.484 210.052C249.484 209.149 248.762 208.427 247.859 208.427H204.894C203.992 208.427 203.27 209.149 203.27 210.052C203.27 210.954 203.992 211.676 204.894 211.676H247.859C248.762 211.676 249.484 210.954 249.484 210.052Z" fill="#E2F1FF"/>
<path opacity="0.36" d="M555.833 23.9321H513.049C509.619 23.9321 506.911 26.64 506.911 30.0699V59.1343C506.911 62.5642 509.619 65.2721 513.049 65.2721H516.118L509.438 72.132L526.949 65.2721H555.833C559.263 65.2721 561.971 62.5642 561.971 59.1343V30.0699C561.971 26.64 559.263 23.9321 555.833 23.9321Z" fill="#D6BDF1"/>
<path d="M559.263 60.3975H518.103C514.312 60.3975 511.243 57.3286 511.243 53.5376V26.0979C511.243 22.3069 514.312 19.238 518.103 19.238H559.263C563.054 19.238 566.123 22.3069 566.123 26.0979V53.7181C566.123 57.3286 563.054 60.3975 559.263 60.3975Z" fill="white"/>
<path d="M522.436 58.4116L513.59 67.2573L536.517 58.4116" fill="white"/>
<path d="M515.576 31.5136C515.576 30.611 516.298 29.8889 517.201 29.8889H560.165C561.068 29.8889 561.79 30.611 561.79 31.5136C561.79 32.4162 561.068 33.1383 560.165 33.1383H517.201C516.298 32.9578 515.576 32.2357 515.576 31.5136ZM517.201 41.4424H560.165C561.068 41.4424 561.79 40.7203 561.79 39.8177C561.79 38.9151 561.068 38.193 560.165 38.193H517.201C516.298 38.193 515.576 38.9151 515.576 39.8177C515.576 40.7203 516.298 41.4424 517.201 41.4424ZM517.201 49.7465H560.165C561.068 49.7465 561.79 49.0244 561.79 48.1218C561.79 47.2192 561.068 46.4971 560.165 46.4971H517.201C516.298 46.4971 515.576 47.2192 515.576 48.1218C515.576 49.0244 516.298 49.7465 517.201 49.7465Z" fill="#E2F1FF"/>
<path d="M705.126 429.208H17.3303C14.6224 429.208 12.4561 427.042 12.4561 424.334C12.4561 421.626 14.6224 419.46 17.3303 419.46H705.126C707.834 419.46 710 421.626 710 424.334C710 427.042 707.834 429.208 705.126 429.208Z" fill="#0E0092"/>
<path d="M462.682 115.638C459.433 119.79 460.697 125.747 463.405 125.025C466.112 124.303 492.108 126.109 493.733 124.664C495.538 123.22 496.26 115.638 489.942 114.194C485.428 113.291 462.682 115.638 462.682 115.638Z" fill="#FFBA49"/>
<path d="M487.053 174.85C486.331 179.182 485.067 185.862 486.692 186.223C488.317 186.584 492.83 186.584 492.83 185.14C492.83 183.695 491.566 175.211 491.386 174.308C491.205 173.225 487.053 174.85 487.053 174.85Z" fill="#241D9E"/>
<path d="M467.737 176.655C467.015 180.987 465.751 187.667 467.376 188.028C469.001 188.389 473.514 188.389 473.514 186.945C473.514 185.501 472.25 177.016 472.07 176.113C471.889 175.03 467.737 176.655 467.737 176.655Z" fill="#241D9E"/>
<path d="M491.025 45.0533C491.566 49.9274 492.649 60.3978 488.858 60.5783C483.804 60.7588 470.264 60.5783 469.542 60.5783C465.932 60.3978 468.279 45.7754 468.279 43.9701C468.098 30.7919 489.039 30.6114 491.025 45.0533Z" fill="#241D9E"/>
<path d="M465.571 79.5333L462.682 98.6688L459.072 111.305L466.474 110.222L471.889 100.835L472.431 76.4644L465.571 79.5333Z" fill="#FFDEDE"/>
<path d="M476.402 60.5781C468.64 62.0223 465.21 69.6043 463.405 80.6163L476.583 82.0605L476.222 70.868" fill="white"/>
<path d="M495.718 74.2984C497.704 86.7545 498.246 99.5717 497.704 112.208L490.303 111.125L489.581 95.6002L489.039 71.2295L495.718 74.2984Z" fill="#FFDEDE"/>
<path d="M485.609 60.5781C493.372 62.0223 496.802 69.6043 498.607 80.6163L485.428 82.0605L485.79 70.868" fill="white"/>
<path d="M493.372 93.0724C491.747 66.5354 490.303 58.0507 477.124 60.3975C466.293 62.3833 467.918 91.9892 467.015 95.5997C466.113 99.2102 461.238 117.082 461.238 117.082C472.792 116.721 486.151 116.901 494.094 116.901C494.094 116.901 493.733 99.0296 493.372 93.0724Z" fill="url(#paint3_linear)"/>
<path d="M462.502 121.776C460.877 139.106 466.293 178.821 466.293 178.821L473.153 178.099C473.694 175.572 476.222 137.843 476.402 121.595C476.583 113.833 463.405 112.208 462.502 121.776Z" fill="url(#paint4_linear)"/>
<path d="M481.999 121.776C480.374 139.106 485.79 178.821 485.79 178.821L492.649 178.099C493.191 175.572 495.718 137.843 495.899 121.595C495.899 113.833 482.901 112.208 481.999 121.776Z" fill="url(#paint5_linear)"/>
<path d="M485.79 48.3021C485.248 44.6916 483.623 43.6085 479.832 45.4137C477.485 46.6774 472.792 47.58 470.806 46.4969C470.806 47.3995 470.987 48.4826 471.167 49.3852C470.987 49.3852 470.987 49.3852 470.806 49.3852C470.626 49.5658 470.445 49.7463 470.264 49.9268C469.723 50.8294 470.084 51.9126 470.626 52.6347C470.987 53.1762 471.709 53.3568 472.25 53.5373C473.333 56.6062 475.139 58.953 477.485 59.1335C477.666 60.0361 477.666 60.9388 477.485 62.2024C477.666 63.105 481.276 62.9245 482.36 62.0219C482.179 60.7582 481.818 59.8556 481.818 58.7725C484.345 58.4114 485.428 55.162 486.331 51.732C490.122 49.7463 487.414 45.7748 485.79 48.3021Z" fill="#FFDEDE"/>
<path d="M498.065 114.013H459.072C457.086 114.013 455.462 112.388 455.462 110.403V86.2125C455.462 84.2268 457.086 82.6021 459.072 82.6021H498.065C500.051 82.6021 501.676 84.2268 501.676 86.2125V110.583C501.495 112.388 500.051 114.013 498.065 114.013Z" fill="url(#paint6_linear)"/>
<path d="M500.051 117.623H457.086C456.184 117.623 455.462 116.901 455.462 115.999V115.638C455.462 114.735 456.184 114.013 457.086 114.013H500.051C500.954 114.013 501.676 114.735 501.676 115.638V115.999C501.495 116.901 500.773 117.623 500.051 117.623Z" fill="url(#paint7_linear)"/>
<path d="M67.6964 274.137L64.6275 277.567L53.2545 279.373L68.4185 283.344L72.5706 276.304L67.6964 274.137Z" fill="#030478"/>
<path d="M143.155 216.911C147.849 230.09 143.155 233.7 135.032 236.408C131.782 237.491 105.245 234.964 97.3023 237.491C89.3593 240.018 72.5706 279.012 72.5706 279.012L65.3496 274.679C65.3496 274.679 81.9578 229.006 84.3046 227.382C88.0956 224.854 109.939 222.688 116.257 220.883C122.576 219.258 127.45 212.759 127.45 212.759L143.155 216.911Z" fill="url(#paint8_linear)"/>
<path d="M140.989 186.945C140.989 186.945 139.184 205.539 137.018 209.33C134.851 213.121 109.578 221.605 107.412 221.786C105.245 221.967 101.635 220.161 101.635 220.161C101.635 220.161 96.0386 222.147 95.136 221.605C94.2334 221.064 100.191 216.912 102.357 216.551C104.704 216.19 108.134 217.814 108.134 217.814C108.134 217.814 127.63 209.691 129.797 206.261C131.963 202.831 133.588 185.501 133.588 185.501L140.989 186.945Z" fill="#F8C3C7"/>
<path d="M138.281 166.185L140.448 175.03L134.31 176.474L133.227 169.253L138.281 166.185Z" fill="#FFCCCC"/>
<path d="M138.642 164.018C138.642 164.199 138.462 164.379 138.462 164.74C138.281 166.365 137.74 167.99 136.837 169.254C135.754 170.698 134.31 171.781 132.504 171.961C130.88 172.142 129.436 171.42 128.172 170.337C127.089 169.254 126.186 167.809 125.645 166.365C124.742 164.018 123.839 161.13 125.103 158.964C125.825 157.881 129.255 156.256 131.602 155.173C133.046 154.451 134.851 154.812 135.934 156.075L138.281 158.783C139.184 159.866 139.545 161.13 139.003 162.394L138.642 164.018Z" fill="#FFCCCC"/>
<path d="M135.212 157.519C135.934 157.339 136.656 157.88 137.018 158.422C137.379 159.144 137.198 159.866 136.837 160.588C136.476 161.31 135.934 161.852 135.573 162.394C136.476 163.838 138.101 165.462 137.92 167.087C139.184 166.365 139.184 165.282 140.086 164.199C141.892 162.033 144.78 153.548 138.281 151.201C131.241 141.994 121.131 156.075 119.507 155.353C119.507 157.158 121.312 160.227 125.103 160.769C126.728 160.949 128.533 160.769 129.977 159.866C130.699 159.505 131.421 158.964 132.143 158.603C132.685 158.422 133.407 160.949 133.768 160.769C134.31 160.588 134.49 157.7 135.212 157.519Z" fill="#241D9E"/>
<path d="M70.0432 276.303L66.9743 279.733L55.7819 281.358L70.9458 285.51L75.0979 278.289L70.0432 276.303Z" fill="#030478"/>
<path d="M142.433 214.746C147.127 227.924 145.502 235.867 137.379 238.575C134.129 239.658 96.7607 240.019 96.7607 240.019L75.0979 281.359L67.8769 277.026C67.8769 277.026 85.9293 230.993 87.9151 229.187C90.0814 227.563 111.744 224.494 118.063 222.689C124.381 221.064 127.089 210.594 127.089 210.594L142.433 214.746Z" fill="url(#paint9_linear)"/>
<path d="M131.782 175.572C137.74 170.517 145.863 173.225 146.405 190.014C146.946 205.9 146.766 226.66 146.766 226.66C136.476 229.007 125.645 225.577 116.618 221.425C116.618 221.425 125.103 210.774 126.908 200.484C128.172 191.999 126.908 179.724 131.782 175.572Z" fill="#5EB6FF"/>
<path d="M136.476 188.209C138.462 188.57 139.725 190.375 139.545 192.361C139.003 197.957 137.559 208.428 135.934 211.316C133.768 215.107 113.549 222.87 111.383 223.05C109.939 223.231 107.953 222.508 106.87 221.967C106.148 221.606 105.245 221.606 104.343 221.967C102.718 222.508 99.8297 223.411 99.1076 223.05C98.205 222.508 104.162 218.356 106.329 217.995C107.592 217.815 109.397 218.176 110.661 218.717C111.744 219.079 112.827 219.079 113.73 218.537C117.521 216.551 127.089 211.316 128.714 208.608C130.158 206.261 131.421 197.055 132.143 191.819C132.324 189.292 134.31 187.848 136.476 188.209Z" fill="#FFCCCC"/>
<path d="M137.74 176.294C145.322 178.28 141.711 194.166 141.711 194.166C138.281 195.43 133.949 194.888 129.255 193.625C130.699 189.834 131.06 174.489 137.74 176.294Z" fill="white"/>
<path d="M86.8319 224.314H116.257C117.16 224.314 117.882 223.591 117.882 222.689C117.882 221.786 117.16 221.064 116.257 221.064H88.2761L84.3046 195.069C84.1241 194.166 83.2215 193.444 82.3189 193.625C81.4162 193.805 80.6941 194.708 80.8747 195.61L85.0267 223.05C85.3878 223.772 86.1099 224.314 86.8319 224.314Z" fill="url(#paint10_linear)"/>
<path opacity="0.36" d="M117.882 419.279H204.714C212.657 419.279 219.156 412.78 219.156 404.837V253.197C219.156 245.254 212.657 238.755 204.714 238.755H117.882C109.939 238.755 103.44 245.254 103.44 253.197V404.837C103.621 412.961 109.939 419.279 117.882 419.279Z" fill="#B0BDF1"/>
<path d="M100.01 419.28H201.645C205.436 419.28 208.686 416.211 208.686 412.239V245.977C208.686 242.186 205.617 238.936 201.645 238.936H100.01C96.2192 238.936 92.9697 242.005 92.9697 245.977V412.239C93.1503 416.211 96.2192 419.28 100.01 419.28Z" fill="url(#paint11_linear)"/>
<path d="M93.0589 407.146H208.594L208.594 251.173H93.0589L93.0589 407.146Z" fill="white"/>
<path opacity="0.69" d="M101.455 260.598C101.455 259.335 102.538 258.432 103.621 258.432H198.035C199.299 258.432 200.201 259.515 200.201 260.598C200.201 261.862 199.118 262.765 198.035 262.765H103.621C102.357 262.765 101.455 261.862 101.455 260.598Z" fill="#E2F1FF"/>
<path opacity="0.69" d="M101.454 270.347C101.454 269.083 102.538 268.18 103.621 268.18H198.035C199.298 268.18 200.201 269.264 200.201 270.347C200.201 271.61 199.118 272.513 198.035 272.513H103.621C102.357 272.694 101.454 271.61 101.454 270.347Z" fill="#E2F1FF"/>
<path opacity="0.69" d="M101.454 280.275C101.454 279.012 102.538 278.109 103.621 278.109H198.035C199.298 278.109 200.201 279.192 200.201 280.275C200.201 281.539 199.118 282.442 198.035 282.442H103.621C102.357 282.442 101.454 281.359 101.454 280.275Z" fill="#E2F1FF"/>
<path opacity="0.69" d="M101.454 290.024C101.454 288.76 102.538 287.857 103.621 287.857H198.035C199.298 287.857 200.201 288.941 200.201 290.024C200.201 291.287 199.118 292.19 198.035 292.19H103.621C102.357 292.19 101.454 291.287 101.454 290.024Z" fill="#E2F1FF"/>
<path d="M109.578 372.523H192.077C196.59 372.523 200.381 368.912 200.381 364.219V305.368C200.381 300.855 196.771 297.064 192.077 297.064H109.578C105.065 297.064 101.274 300.674 101.274 305.368V364.399C101.454 368.912 105.065 372.523 109.578 372.523Z" fill="#E2F1FF"/>
<path d="M106.148 387.146H195.688C198.215 387.146 200.381 389.312 200.381 391.839V394.186C200.381 396.713 198.215 398.88 195.688 398.88H106.148C103.621 398.88 101.454 396.713 101.454 394.186V391.839C101.454 389.131 103.44 387.146 106.148 387.146ZM101.454 380.466C101.454 381.73 102.357 382.633 103.621 382.633H198.215C199.479 382.633 200.381 381.73 200.381 380.466C200.381 379.203 199.479 378.3 198.215 378.3H103.621C102.357 378.3 101.454 379.203 101.454 380.466Z" fill="#E2F1FF"/>
<path d="M239.916 336.058C241.902 336.419 253.636 333.169 258.51 329.017C258.51 329.017 252.011 305.008 252.192 299.05C252.372 293.093 249.123 280.637 244.971 290.024C240.819 299.412 239.916 336.058 239.916 336.058Z" fill="url(#paint12_linear)"/>
<path d="M240.277 409.892L240.097 413.864L248.942 419.279H233.778L235.945 408.628L240.277 409.892Z" fill="#030478"/>
<path d="M230.709 325.407C230.529 332.628 235.042 412.78 235.042 412.78L240.819 413.863L249.123 326.309L230.709 325.407Z" fill="url(#paint13_linear)"/>
<path d="M248.04 409.892L247.859 413.864L256.705 419.279H241.541L243.707 408.628L248.04 409.892Z" fill="#030478"/>
<path d="M238.472 325.407C238.291 332.628 242.804 412.78 242.804 412.78L248.581 413.863L254.177 325.587L238.472 325.407Z" fill="url(#paint14_linear)"/>
<path d="M235.764 330.101C248.22 330.462 254.177 327.032 254.9 325.948C255.622 324.685 254.719 323.963 254.177 322.338C252.553 316.02 248.401 299.592 248.581 294.898C248.762 288.941 245.512 276.485 241.36 285.872C237.028 295.259 235.764 330.101 235.764 330.101Z" fill="white"/>
<path d="M300.933 301.758L269.522 327.934L261.759 313.492L289.019 293.273L300.933 301.758Z" fill="#030478"/>
<path d="M298.587 301.939L269.703 325.408L262.843 313.673L288.839 294.357L298.587 301.939Z" fill="white"/>
<path d="M299.489 299.412L298.225 300.314L290.463 294.899L291.546 294.177L299.489 299.412Z" fill="#00D1FF"/>
<path d="M279.812 284.789L280.353 290.205C280.353 290.205 259.593 312.229 240.638 291.288L242.082 278.832C242.082 278.832 253.997 303.925 279.812 284.789Z" fill="url(#paint15_linear)"/>
<path d="M279.812 284.789C282.339 283.886 283.422 281.179 284.866 284.067C287.574 289.483 280.353 290.205 280.353 290.205L279.812 284.789Z" fill="#FFCCCC"/>
<path d="M281.798 273.777L285.95 289.663L285.769 291.83L284.505 290.205L280.353 274.319C280.353 273.055 281.256 272.694 281.798 273.777Z" fill="#030478"/>
<path d="M282.159 285.692C282.159 285.692 285.228 286.775 285.589 286.234C285.95 285.692 283.242 284.428 282.52 283.526C281.978 282.623 280.714 285.151 280.714 285.151L282.159 285.692Z" fill="#FFCCCC"/>
<path d="M247.859 270.347L244.79 277.388L241.902 275.041L241.541 267.098L247.859 270.347Z" fill="#FFCCCC"/>
<path d="M253.816 258.794C255.08 266.737 254.719 271.972 248.942 272.333C243.527 272.694 239.013 264.21 239.013 264.21C234.861 255.183 251.65 245.255 253.816 258.794Z" fill="#FFCCCC"/>
<path d="M257.968 251.031C252.553 258.794 244.971 260.057 242.624 259.155C241.541 258.794 241.541 260.057 241.902 262.404C238.833 260.96 239.916 264.751 242.082 266.195C242.804 267.639 242.985 269.625 242.985 269.625C242.985 269.625 235.584 264.751 235.584 259.696C235.584 253.559 240.097 254.1 240.097 254.1C240.097 254.1 242.804 245.796 250.386 248.323C257.968 251.031 257.968 251.031 257.968 251.031Z" fill="#241D9E"/>
<path d="M247.498 275.402L240.097 271.25L238.111 275.041L248.762 280.998L247.498 275.402Z" fill="white"/>
<path d="M282.52 313.492L281.617 320.171C281.798 320.352 258.691 329.017 248.762 303.202C248.762 303.202 251.289 320.533 254.9 333.169C254.9 333.169 243.527 338.585 228.543 336.058C228.543 336.058 226.557 290.205 236.667 275.943C242.082 268.361 249.664 280.817 251.47 288.399C253.816 297.967 259.413 319.63 282.52 313.492Z" fill="url(#paint16_linear)"/>
<path d="M282.52 313.492C282.52 313.492 286.491 312.409 287.935 313.312C289.38 314.214 287.394 317.464 285.589 319.269C283.783 321.074 281.617 319.991 281.617 319.991L282.52 313.492Z" fill="#FFCCCC"/>
<defs>
<linearGradient id="paint0_linear" x1="417.869" y1="61.6625" x2="292.975" y2="364.358" gradientUnits="userSpaceOnUse">
<stop stop-color="#085EFF"/>
<stop offset="0.9981" stop-color="#0E0092"/>
</linearGradient>
<linearGradient id="paint1_linear" x1="362.988" y1="315.988" x2="362.988" y2="415.514" gradientUnits="userSpaceOnUse">
<stop stop-color="#085EFF"/>
<stop offset="0.9981" stop-color="#0E0092"/>
</linearGradient>
<linearGradient id="paint2_linear" x1="361.19" y1="255.681" x2="361.19" y2="334.809" gradientUnits="userSpaceOnUse">
<stop stop-color="#FFC504"/>
<stop offset="0.2528" stop-color="#FFB504"/>
<stop offset="0.7431" stop-color="#FF8C05"/>
<stop offset="1" stop-color="#FF7406"/>
</linearGradient>
<linearGradient id="paint3_linear" x1="477.755" y1="44.438" x2="477.755" y2="101.288" gradientUnits="userSpaceOnUse">
<stop stop-color="#FF6570"/>
<stop offset="1" stop-color="#EC374F"/>
</linearGradient>
<linearGradient id="paint4_linear" x1="469.342" y1="112.137" x2="469.342" y2="172.746" gradientUnits="userSpaceOnUse">
<stop stop-color="#FFC504"/>
<stop offset="0.2528" stop-color="#FFB504"/>
<stop offset="0.7431" stop-color="#FF8C05"/>
<stop offset="1" stop-color="#FF7406"/>
</linearGradient>
<linearGradient id="paint5_linear" x1="488.75" y1="112.137" x2="488.75" y2="172.746" gradientUnits="userSpaceOnUse">
<stop stop-color="#FFC504"/>
<stop offset="0.2528" stop-color="#FFB504"/>
<stop offset="0.7431" stop-color="#FF8C05"/>
<stop offset="1" stop-color="#FF7406"/>
</linearGradient>
<linearGradient id="paint6_linear" x1="478.524" y1="131.932" x2="478.524" y2="79.9047" gradientUnits="userSpaceOnUse">
<stop offset="0.00102163" stop-color="#2212BB"/>
<stop offset="0.4428" stop-color="#7812DA"/>
<stop offset="1" stop-color="#E112FF"/>
</linearGradient>
<linearGradient id="paint7_linear" x1="478.524" y1="132.095" x2="478.524" y2="99.5891" gradientUnits="userSpaceOnUse">
<stop offset="0.00102163" stop-color="#2212BB"/>
<stop offset="0.4428" stop-color="#7812DA"/>
<stop offset="1" stop-color="#E112FF"/>
</linearGradient>
<linearGradient id="paint8_linear" x1="121.235" y1="217.326" x2="87.4761" y2="272.006" gradientUnits="userSpaceOnUse">
<stop stop-color="#085EFF"/>
<stop offset="0.9981" stop-color="#0E0092"/>
</linearGradient>
<linearGradient id="paint9_linear" x1="119.489" y1="225.076" x2="72.9081" y2="302.293" gradientUnits="userSpaceOnUse">
<stop stop-color="#085EFF"/>
<stop offset="0.9981" stop-color="#0E0092"/>
</linearGradient>
<linearGradient id="paint10_linear" x1="81.0117" y1="208.925" x2="117.957" y2="208.925" gradientUnits="userSpaceOnUse">
<stop stop-color="#FFC504"/>
<stop offset="0.2528" stop-color="#FFB504"/>
<stop offset="0.7431" stop-color="#FF8C05"/>
<stop offset="1" stop-color="#FF7406"/>
</linearGradient>
<linearGradient id="paint11_linear" x1="243.936" y1="272.042" x2="29.0531" y2="403.971" gradientUnits="userSpaceOnUse">
<stop stop-color="#085EFF"/>
<stop offset="0.9981" stop-color="#0E0092"/>
</linearGradient>
<linearGradient id="paint12_linear" x1="236.436" y1="285.396" x2="252.423" y2="334.372" gradientUnits="userSpaceOnUse">
<stop stop-color="#FF6570"/>
<stop offset="1" stop-color="#EC374F"/>
</linearGradient>
<linearGradient id="paint13_linear" x1="239.826" y1="308.128" x2="239.826" y2="391.412" gradientUnits="userSpaceOnUse">
<stop stop-color="#085EFF"/>
<stop offset="0.9981" stop-color="#0E0092"/>
</linearGradient>
<linearGradient id="paint14_linear" x1="246.255" y1="321.507" x2="246.255" y2="415.889" gradientUnits="userSpaceOnUse">
<stop stop-color="#085EFF"/>
<stop offset="0.9981" stop-color="#0E0092"/>
</linearGradient>
<linearGradient id="paint15_linear" x1="296.324" y1="286.438" x2="241.004" y2="290.245" gradientUnits="userSpaceOnUse">
<stop stop-color="#FF6570"/>
<stop offset="1" stop-color="#EC374F"/>
</linearGradient>
<linearGradient id="paint16_linear" x1="255.438" y1="279.277" x2="255.438" y2="343.165" gradientUnits="userSpaceOnUse">
<stop stop-color="#FF6570"/>
<stop offset="1" stop-color="#EC374F"/>
</linearGradient>
</defs>
</svg>
