<svg width="520" height="426" viewBox="0 0 520 426" fill="none" xmlns="http://www.w3.org/2000/svg">
<mask id="mask0" mask-type="alpha" maskUnits="userSpaceOnUse" x="0" y="0" width="520" height="426">
<path d="M0 0H520V426H120H0V274V0Z" fill="#C4C4C4"/>
</mask>
<g mask="url(#mask0)">
<path opacity="0.4" d="M519.5 344.5C519.5 344.5 526.893 296.912 497.5 172.5C471.895 64.9463 415.933 11.1082 294.311 32.5405C161.323 56.0638 188.887 253.006 83.7246 258.495C47.0535 260.447 2.00002 289.5 -0.499985 325C26.5 353.5 -46.4672 323.154 61 353.5C117.043 369.313 83.7246 379 83.7246 379L497.5 344.5H519.5Z" fill="#7EC3CF"/>
<path d="M345.389 53.7115C345.389 53.7115 353.881 57.7627 354.534 66.78C355.057 73.5756 353.489 78.2803 349.178 80.894C344.867 83.5077 341.34 76.32 341.34 76.32C341.34 76.32 340.033 71.4846 339.903 70.9619C339.772 70.4392 344.083 60.2457 344.083 60.2457L345.389 53.7115Z" fill="#384760"/>
<path d="M323.332 231.091C329.306 215.758 321.725 198.484 306.399 192.507C291.073 186.531 273.805 194.115 267.83 209.447C261.856 224.779 269.437 242.053 284.763 248.03C300.089 254.006 317.357 246.423 323.332 231.091Z" fill="white"/>
<path d="M267.833 233.776C275.177 214.022 265.123 192.053 245.376 184.706C225.63 177.359 203.669 187.417 196.325 207.171C188.981 226.925 199.035 248.894 218.781 256.241C238.528 263.588 260.489 253.53 267.833 233.776Z" fill="white"/>
<path d="M279.84 219.942C292.189 212.198 295.924 195.907 288.184 183.554C280.444 171.201 264.159 167.464 251.81 175.207C239.461 182.95 235.726 199.241 243.466 211.594C251.206 223.948 267.491 227.685 279.84 219.942Z" fill="white"/>
<path d="M198.933 251.15C209.891 246.313 214.854 233.506 210.019 222.545C205.184 211.583 192.382 206.618 181.424 211.455C170.467 216.292 165.504 229.099 170.339 240.06C175.174 251.022 187.976 255.987 198.933 251.15Z" fill="white"/>
<path d="M496.144 333.377C496.144 333.377 440.754 254.705 434.484 260.978C428.213 267.251 397.905 238.892 397.905 238.892C397.905 238.892 383.535 225.562 376.481 226.477C369.427 227.392 352.444 210.925 349.178 212.624C345.912 214.454 332.195 188.448 321.222 192.107C310.248 195.766 312.338 194.982 292.612 225.301C292.612 225.301 290.261 218.897 283.076 225.301C275.891 231.704 259.3 276.399 252.115 275.222C244.93 274.046 250.547 267.512 235.785 287.115C221.024 306.717 193.721 353.241 193.721 353.241L505.289 358.599L496.144 333.377Z" fill="#512C25"/>
<path d="M339.25 200.863C339.25 200.863 341.34 207.92 341.078 210.795C340.948 212.363 344.998 210.925 348.002 208.442L344.083 194.851L339.25 200.863Z" fill="#FFAA83"/>
<path d="M339.38 76.5814C339.38 76.5814 341.47 80.7633 341.47 83.8997C341.47 85.86 340.817 90.0419 340.817 90.0419L350.876 86.5134V84.1611C350.876 84.1611 347.872 76.5814 348.133 74.6211C348.525 72.6608 339.38 76.5814 339.38 76.5814Z" fill="#FFAA83"/>
<path d="M330.889 135.912L320.569 139.441C320.569 139.441 325.271 146.106 331.934 148.197C338.596 150.288 352.836 145.191 352.836 145.191L354.012 131.208L330.889 135.912Z" fill="#384760"/>
<path opacity="0.5" d="M330.889 135.912L320.569 139.441C320.569 139.441 325.271 146.106 331.934 148.197C338.596 150.288 352.836 145.191 352.836 145.191L354.012 131.208L330.889 135.912Z" fill="#384760"/>
<path d="M339.641 129.509C339.641 129.509 326.055 145.452 320.569 156.168C315.082 166.754 325.271 170.936 337.943 161.396C354.534 148.981 359.76 137.873 354.012 131.338C348.264 124.543 339.641 129.509 339.641 129.509Z" fill="#1D8899"/>
<path d="M384.189 203.868L387.063 226.477L378.44 223.079C378.44 223.079 376.089 206.874 375.175 203.868C374.391 200.863 384.189 203.868 384.189 203.868Z" fill="#FFAA83"/>
<path d="M328.668 159.174C328.668 159.174 320.307 159.305 319.262 163.356C318.348 167.407 339.772 209.357 339.772 209.357L348.002 206.351C348.002 206.351 342.515 163.487 333.24 161.265C324.226 159.174 328.668 159.174 328.668 159.174Z" fill="#1D8899"/>
<path d="M345.259 137.742C345.259 137.742 365.638 178.254 367.206 170.413C368.643 163.487 380.139 174.987 378.44 165.578C376.873 156.168 369.165 126.764 366.03 123.367C363.025 119.969 344.214 116.31 345.259 137.742Z" fill="#1D8899"/>
<path d="M367.075 164.14C367.075 164.14 364.332 166.885 363.548 170.413C361.066 181.129 376.742 220.858 376.742 220.858C376.742 220.858 383.927 222.687 387.324 220.988C387.324 220.988 381.576 172.635 377.134 162.049C372.823 151.464 367.075 164.14 367.075 164.14Z" fill="#1D8899"/>
<path d="M350.876 83.5076C350.876 83.5076 349.57 88.6044 341.209 86.1213C341.209 86.1213 336.767 89.9112 335.592 92.7863C334.416 95.6613 337.29 132.907 337.29 132.907C337.29 132.907 338.204 138.657 349.047 137.742C354.273 137.35 364.201 135.912 367.728 127.418L359.106 96.7068C359.106 96.7068 356.102 82.3315 350.876 83.5076Z" fill="#7EC3CF"/>
<g opacity="0.42">
<path opacity="0.42" d="M346.173 86.7748C345.781 88.8657 345.781 91.0874 345.912 93.1783C346.043 95.2693 346.173 97.4909 346.435 99.5819C346.957 103.764 347.61 107.946 348.394 112.258C349.047 116.44 349.57 120.753 349.831 125.065C349.962 129.378 350.223 133.691 349.178 137.873C349.439 135.782 349.439 133.56 349.439 131.469C349.439 129.378 349.178 127.156 349.047 125.065C348.655 120.884 348.133 116.571 347.349 112.389C346.696 108.207 346.043 103.894 345.651 99.5819C345.259 95.4 344.998 90.9567 346.173 86.7748Z" fill="#1D8899"/>
</g>
<path opacity="0.5" d="M336.114 116.31L339.903 108.861C339.903 108.861 341.47 129.901 337.551 136.174C334.677 140.748 331.281 142.577 324.618 141.401C317.956 140.225 330.758 133.821 330.758 133.821L336.114 116.31Z" fill="#384760"/>
<path d="M341.209 86.1213C339.511 86.7748 339.903 94.8772 339.772 96.3148C339.641 102.457 340.033 108.599 339.903 114.611C339.772 122.844 339.25 137.35 330.236 141.14C330.236 141.14 324.357 142.839 320.569 139.441C320.569 139.441 332.065 123.367 332.848 117.747C334.808 104.548 332.979 89.1271 341.209 86.1213Z" fill="#384760"/>
<path d="M314.69 127.81C314.69 127.81 313.514 129.378 310.771 129.117C308.289 128.855 304.892 130.946 306.721 131.077C308.55 131.208 308.158 131.73 307.374 132.122C306.59 132.384 303.978 133.56 304.762 134.997C305.676 136.696 308.811 136.304 310.51 134.997C312.338 133.691 312.992 131.73 313.645 131.338C314.298 131.077 317.564 129.509 317.564 129.509L314.69 127.81Z" fill="#FFAA83"/>
<path d="M351.268 83.377C351.268 83.377 354.795 92.917 355.971 98.275C358.453 109.514 365.638 121.276 365.638 121.276C365.638 121.276 365.377 114.741 363.679 106.508C361.98 98.4057 360.935 84.1611 351.268 83.377Z" fill="#384760"/>
<path d="M371.647 46.6545L370.994 42.6033C370.994 42.6033 372.823 37.2452 370.08 35.5463C367.336 33.8474 366.291 32.5405 364.593 34.2394C362.242 36.4611 363.025 39.2054 364.854 40.643C366.553 42.0805 367.859 47.5693 367.859 47.5693L371.647 46.6545Z" fill="#FFAA83"/>
<path d="M338.204 93.8317V88.2123C338.204 88.2123 334.285 92.1328 331.803 98.6671C329.582 104.287 326.97 112.389 323.965 115.395C319.785 119.577 311.032 128.986 311.293 128.463L313.384 132.514C313.384 132.514 327.623 124.673 330.105 121.145C332.456 117.747 336.637 109.122 336.637 109.122L338.204 93.8317Z" fill="#384760"/>
<path opacity="0.23" d="M334.285 99.3205C334.285 99.3205 334.024 106.9 333.632 110.298C333.371 112.65 333.11 115.656 333.11 115.656L331.411 118.793L334.285 99.3205Z" fill="#384760"/>
<g opacity="0.5">
<path opacity="0.5" d="M345.912 89.6498L346.173 87.6895L346.826 87.4282C346.957 91.4794 348.263 95.9227 345.912 99.4512C343.822 102.457 340.033 105.201 331.542 106.639C330.366 106.9 329.191 107.162 328.276 107.554C329.06 105.593 329.844 103.633 330.628 101.673C333.502 100.889 336.376 100.366 339.119 99.5818C345.389 97.8829 345.912 89.6498 345.912 89.6498Z" fill="#384760"/>
</g>
<path d="M365.377 46.001C365.377 46.001 366.814 65.7345 366.683 68.2175C366.553 70.5698 358.714 82.4621 352.313 83.5076L359.106 98.275L361.327 97.6216C361.327 97.6216 377.134 76.0586 376.742 69.263C376.35 62.598 372.823 44.1714 372.823 44.1714L365.377 46.001Z" fill="#384760"/>
<path d="M329.321 67.8254C328.407 75.1438 332.456 81.678 338.074 82.3315C343.822 82.9849 349.047 77.6268 349.962 70.3084C350.876 62.9901 346.826 56.4558 341.209 55.8024C335.461 55.149 330.236 60.5071 329.321 67.8254Z" fill="#FFAA83"/>
<path opacity="0.5" d="M348.263 71.0925C349.831 64.4276 347.349 58.0241 342.515 56.0638C347.48 57.5013 350.876 63.5128 350.092 70.3084C349.178 77.6268 343.952 82.9849 338.204 82.3314C337.421 82.2008 336.767 82.0701 336.114 81.8087C341.34 82.3314 346.565 77.8882 348.263 71.0925Z" fill="#FFAA83"/>
<path d="M345.912 87.5589V88.4736C345.912 88.4736 345.259 97.6216 338.727 99.1898C331.934 100.758 323.704 101.15 320.177 105.201L319.001 108.207L322.136 109.645C322.136 109.645 325.533 106.377 330.889 105.724C339.38 104.679 343.299 102.196 345.52 99.1898C348.002 95.792 346.957 91.3487 347.088 87.2975" fill="#F05E36"/>
<path d="M346.565 87.1668L345.912 84.2917L344.214 84.4224L341.47 83.8997L341.209 86.1213L343.822 88.2123L346.565 87.1668Z" fill="#7EC3CF"/>
<path d="M345.912 87.4282L346.173 84.161L347.088 84.0304L349.439 82.7235L350.876 84.4224L349.439 87.5589L345.912 87.4282Z" fill="#7EC3CF"/>
<path d="M347.349 84.6838L344.998 84.9451L344.606 85.8599C344.344 86.252 344.475 86.7747 344.736 87.1668L345.912 88.4736H346.957L347.872 86.9054C348.133 86.5134 348.133 85.9906 347.872 85.5986L347.349 84.6838Z" fill="#F05E36"/>
<path opacity="0.5" d="M347.872 85.9907C347.872 85.9907 346.957 87.1668 346.304 87.1668C345.651 87.0361 344.475 86.5134 344.475 86.5134L345.128 87.5589L345.912 88.4737H346.957L348.263 86.5134L347.872 85.9907Z" fill="#F05E36"/>
<path d="M345.912 84.2917L344.867 87.4282L340.687 86.1213L341.47 83.8997L345.912 84.2917Z" fill="#8ED5DD"/>
<path d="M346.173 84.1611L348.002 87.2975L351.529 83.5077L350.223 82.2008L346.173 84.1611Z" fill="#8ED5DD"/>
<path d="M341.34 64.4276C340.948 63.9049 340.425 63.3822 339.772 62.9901C338.596 62.3367 336.637 61.6833 334.677 62.7287C331.542 64.5583 329.321 65.7345 324.88 63.7742C319.654 61.4219 321.222 52.0126 328.537 52.0126C334.547 52.0126 334.547 54.2342 337.029 53.5808C339.641 52.9274 341.34 52.0126 345.389 53.5808C355.971 57.7627 353.881 68.8709 348.264 75.6665C348.264 75.6665 349.309 67.3027 347.218 66.78C344.344 66.3879 342.646 66.1265 341.34 64.4276Z" fill="#384760"/>
<path d="M414.888 70.1778L314.167 1.4375" stroke="#384760" stroke-width="2.2799" stroke-miterlimit="10" stroke-linecap="round"/>
<path d="M344.475 67.0413C344.475 67.0413 345.651 63.1208 347.741 63.9049C349.831 64.8197 350.615 70.0471 347.218 70.1778" fill="#FFAA83"/>
<path opacity="0.3" d="M346.304 139.964L351.268 149.373C351.268 149.373 338.988 161.788 335.592 162.833L333.11 162.441C333.11 162.441 339.511 154.6 341.209 151.856C345.128 145.06 346.304 139.964 346.304 139.964Z" fill="#384760"/>
<path opacity="0.23" d="M360.413 92.2635L361.85 96.8375C361.85 96.8375 372.562 81.678 373.084 79.195C373.084 79.3257 363.287 90.0419 360.413 92.2635Z" fill="#384760"/>
<path opacity="0.3" d="M343.561 182.697C343.561 182.697 336.767 165.316 333.24 162.18L335.722 162.703C335.592 162.833 340.687 167.015 343.561 182.697Z" fill="#384760"/>
<path d="M386.54 224.386C386.54 224.386 397.383 232.88 396.86 238.892C396.207 244.903 380.923 233.926 378.441 230.397C375.828 226.869 378.571 223.079 378.571 223.079C378.571 223.079 379.616 225.431 386.54 224.386Z" fill="#384760"/>
<path d="M348.002 208.312C348.002 208.312 350.484 209.619 350.484 213.147C350.484 218.244 337.551 226.477 333.11 225.17C329.452 224.125 341.079 210.664 341.079 210.664C341.079 210.664 344.998 211.448 348.002 208.312Z" fill="#384760"/>
<path opacity="0.28" d="M326.055 233.926C323.704 233.926 322.659 236.932 324.488 238.369L335.592 247.387C336.637 248.301 336.898 249.87 335.984 250.915L332.587 254.836C327.754 260.586 328.407 269.211 334.155 274.046L346.696 284.632C350.484 287.899 349.047 294.172 344.083 295.217C342.646 295.479 341.732 297.047 342.254 298.354L344.344 305.28C346.696 312.86 352.052 319.133 359.237 322.53L383.535 334.161C388.63 336.514 392.811 340.434 395.423 345.4L401.694 356.77L193.851 353.372C193.851 353.372 221.285 306.848 235.916 287.245C250.678 267.643 245.061 274.177 252.246 275.353C259.431 276.529 276.022 231.835 283.207 225.431C290.392 219.028 292.743 225.431 292.743 225.431C312.338 195.113 310.379 195.897 321.352 192.237L313.775 203.084L326.055 233.926Z" fill="#512C25"/>
<path opacity="0.28" d="M351.007 217.068C351.007 217.068 347.872 224.517 343.43 225.301C337.159 226.477 330.628 226.608 330.628 226.608C330.628 226.608 337.029 235.625 349.57 236.409C354.795 236.67 366.683 249.478 366.683 249.478C366.683 249.478 362.764 230.528 360.805 226.477C360.151 224.778 354.795 212.232 351.007 217.068Z" fill="#512C25"/>
<path opacity="0.28" d="M400.91 241.636C400.91 241.636 390.067 242.159 387.454 240.722C384.842 239.153 375.436 233.926 375.436 233.926C375.436 233.926 374.521 243.205 377.265 246.864C379.224 249.608 390.72 257.188 399.473 259.802C408.226 262.415 421.551 284.501 423.249 290.251C424.947 295.871 419.591 258.887 413.843 253.79C408.095 248.563 400.91 241.636 400.91 241.636Z" fill="#512C25"/>
<path d="M319.001 3.00574C319.001 3.00574 300.059 7.7104 296.923 25.3529C294.311 40.1203 277.459 50.0523 256.165 52.1433L277.589 69.263C277.589 69.263 306.982 74.0983 315.343 52.1433C324.096 29.012 343.822 20.5175 343.822 20.5175L319.001 3.00574Z" fill="#F05E36"/>
<path fill-rule="evenodd" clip-rule="evenodd" d="M304.834 47.146C304.749 47.0881 304.663 47.028 304.577 46.9654C303.609 48.2282 302.96 49.3046 302.534 50.2157C302.603 50.352 302.676 50.4839 302.751 50.6136C303.149 49.663 303.801 48.5165 304.834 47.146ZM309.673 40.8467C309.712 40.9815 309.751 41.1134 309.79 41.2423C311.442 38.9519 311.995 37.3231 312.093 36.2133C311.966 36.212 311.836 36.2087 311.703 36.2047C311.611 37.2512 311.114 38.7585 309.673 40.8467ZM305.338 47.4601C304.184 49.0292 303.537 50.2955 303.199 51.3036C303.29 51.4299 303.382 51.5544 303.477 51.6729C303.766 50.6409 304.394 49.3077 305.621 47.6146C305.527 47.5656 305.433 47.5142 305.338 47.4601ZM310.134 42.2832C310.093 42.1691 310.052 42.0522 310.012 41.9325C312.069 39.2524 312.695 37.4088 312.777 36.2035C312.912 36.1968 313.042 36.1903 313.168 36.1811C313.092 37.4353 312.424 39.3926 310.134 42.2832ZM306.17 47.8723C304.803 49.7951 304.221 51.2422 304.027 52.3031C304.139 52.4209 304.251 52.535 304.364 52.6436C304.489 51.5794 305.024 50.0672 306.479 47.9944C306.376 47.9565 306.273 47.9158 306.17 47.8723ZM310.5 43.2249C310.456 43.1219 310.413 43.0161 310.369 42.9073C313.122 39.5888 313.821 37.4243 313.852 36.1062C313.988 36.0857 314.119 36.0628 314.242 36.0389C314.236 37.3899 313.523 39.6662 310.5 43.2249ZM307.078 48.1864C305.446 50.5427 305.013 52.1627 305.01 53.2168C305.146 53.3292 305.279 53.4342 305.412 53.5325C305.327 52.5061 305.662 50.8259 307.416 48.2701C307.304 48.2452 307.191 48.2173 307.078 48.1864ZM310.896 44.0812C310.849 43.9883 310.801 43.8923 310.754 43.7932C314.339 39.7214 314.998 37.2451 314.913 35.8745C315.048 35.8345 315.175 35.7924 315.29 35.7488C315.431 37.1176 314.824 39.7049 310.896 44.0812ZM308.069 48.3844C306.064 51.3181 305.935 53.0922 306.156 54.0454C306.319 54.1489 306.476 54.2452 306.625 54.3292C306.319 53.4657 306.242 51.6483 308.438 48.4226C308.316 48.413 308.193 48.4003 308.069 48.3844ZM311.33 44.8578C311.278 44.7745 311.226 44.6879 311.175 44.5978C315.863 39.5181 316.204 36.7464 315.91 35.4624C316.023 35.3986 316.133 35.3277 316.238 35.2502C316.624 36.4334 316.539 39.2661 311.421 44.76C311.39 44.7927 311.36 44.8253 311.33 44.8578ZM309.46 40.0643C309.421 39.9143 309.383 39.7611 309.344 39.6045C310.22 38.1107 310.558 36.974 310.636 36.1325C310.767 36.1455 310.896 36.1562 311.021 36.1653C310.933 37.0875 310.531 38.3607 309.46 40.0643ZM303.464 46.0073C303.39 45.935 303.316 45.8647 303.242 45.7964C302.653 46.5015 302.157 47.1547 301.739 47.7605C301.763 47.9175 301.791 48.0721 301.823 48.2237C302.262 47.5502 302.802 46.8134 303.464 46.0073ZM309.008 38.0852C309.048 38.2849 309.089 38.48 309.13 38.6708C309.666 37.5891 309.895 36.7274 309.957 36.0543C309.83 36.0384 309.703 36.0224 309.571 36.0025C309.526 36.5591 309.365 37.2472 309.008 38.0852ZM308.751 36.7803C308.683 36.4505 308.614 36.1333 308.543 35.828C308.662 35.8511 308.782 35.8739 308.898 35.8943L308.898 35.8948C308.879 36.1591 308.833 36.4536 308.751 36.7803ZM299.98 35.1001C300.116 34.9639 300.246 34.8295 300.372 34.697C300.365 34.5498 300.349 34.4148 300.327 34.2918C300.195 34.2879 300.065 34.2855 299.939 34.2847C299.979 34.5145 299.999 34.785 299.98 35.1001ZM302.811 45.4226C302.733 45.3587 302.655 45.2968 302.576 45.2369C302.235 45.631 301.923 46.0097 301.635 46.3745C301.635 46.5414 301.64 46.7049 301.648 46.8666C301.992 46.4102 302.378 45.9292 302.811 45.4226ZM299.176 35.8776C299.008 36.0342 298.834 36.1929 298.653 36.3539C298.924 35.4834 298.958 34.8148 298.893 34.3183C299.017 34.3096 299.145 34.3019 299.277 34.2953C299.335 34.6992 299.328 35.2207 299.176 35.8776ZM301.862 44.7479C301.946 44.7994 302.031 44.853 302.115 44.9088C301.967 45.0763 301.825 45.241 301.686 45.403C301.689 45.3765 301.691 45.3503 301.693 45.3241L301.693 45.3241L301.693 45.324C301.696 45.2937 301.698 45.2633 301.702 45.232C301.711 45.1558 301.717 45.0802 301.723 45.0048L301.723 45.0047L301.723 45.0047C301.725 44.9685 301.728 44.9322 301.731 44.8959C301.774 44.8467 301.818 44.7974 301.862 44.7479ZM304.118 46.6059C304.039 46.5403 303.961 46.4725 303.882 46.4027C303.098 47.3816 302.5 48.2549 302.045 49.0316C302.094 49.1778 302.144 49.3206 302.199 49.4603C302.648 48.6316 303.269 47.6843 304.118 46.6059ZM295.95 35.7029C295.689 35.5808 295.531 35.5216 295.531 35.5216L295.531 35.5213C295.531 35.5213 295.676 35.3234 296.067 35.0867C296.04 35.2942 296.001 35.4999 295.95 35.7029ZM296.785 34.745C296.77 35.1061 296.706 35.5272 296.566 36.0164C296.672 36.0738 296.783 36.1373 296.899 36.2058C297.099 35.5738 297.175 35.0475 297.177 34.616C297.036 34.6569 296.904 34.6995 296.785 34.745ZM297.846 34.4542C297.879 34.9848 297.799 35.6811 297.481 36.5721C297.584 36.6407 297.688 36.7126 297.793 36.7884C298.19 35.7549 298.278 34.9684 298.23 34.3902C298.096 34.4098 297.967 34.4311 297.847 34.454L297.846 34.4542Z" fill="white"/>
<path d="M313.32 46.842C313.271 46.8671 313.221 46.8927 313.168 46.9186C312.573 47.2123 311.732 47.5537 310.745 47.7476C308.782 48.1336 306.241 47.9393 303.877 45.5994C301.328 43.0758 298.553 42.8583 296.427 43.2764C295.37 43.4845 294.473 43.8491 293.842 44.1609C293.627 44.2673 293.442 44.3677 293.291 44.4543C293.291 44.454 293.291 44.4537 293.291 44.4534C293.3 44.1196 293.372 43.6028 293.637 42.9116C294.169 41.528 295.477 39.4376 298.618 36.7248C301.812 33.9655 303.2 31.7917 303.78 30.2793C304.07 29.5225 304.158 28.9333 304.17 28.5231C304.172 28.4293 304.171 28.3451 304.167 28.2706C304.2 28.2755 304.235 28.2819 304.272 28.2905C304.55 28.3534 304.971 28.5312 305.466 29.0214C306.466 30.0112 307.761 32.2706 308.722 37.3628C309.691 42.5008 311.018 44.9172 312.157 46.0457C312.58 46.4652 312.978 46.707 313.32 46.842Z" stroke="white"/>
<path opacity="0.5" d="M259.431 51.7512C262.435 53.3194 266.616 54.8877 272.494 56.0638C287.518 59.0696 300.059 53.1888 306.068 44.4329C312.338 35.2849 321.483 26.137 335.069 26.0063C328.668 30.8416 320.307 39.2055 315.343 52.1433C306.982 74.0983 277.589 69.263 277.589 69.263L256.165 52.1433C257.34 52.0126 258.386 51.8819 259.431 51.7512Z" fill="#F05E36"/>
<path d="M367.728 33.4553C367.728 33.4553 365.116 31.3644 364.854 32.9326C364.462 34.3701 364.201 38.16 366.553 39.8589C368.904 41.6885 371.125 42.734 371.386 41.4271C371.647 40.1203 371.647 37.8986 371.386 37.1145C370.864 35.5463 367.728 33.4553 367.728 33.4553Z" fill="#FFAA83"/>
<path d="M477.503 387.088C503.186 386.701 523.692 365.56 523.305 339.868C522.918 314.176 501.784 293.662 476.102 294.05C450.42 294.437 429.914 315.578 430.301 341.27C430.688 366.962 451.821 387.475 477.503 387.088Z" fill="white"/>
<path d="M457.687 390.742C484.609 371.948 491.204 334.879 472.416 307.948C453.629 281.016 416.574 274.419 389.653 293.213C362.731 312.007 356.136 349.075 374.923 376.007C393.711 402.939 430.765 409.536 457.687 390.742Z" fill="white"/>
<path d="M498.578 339.959C517.542 327.427 522.759 301.89 510.232 282.919C497.705 263.949 472.177 258.73 453.214 271.261C434.251 283.793 429.033 309.33 441.56 328.3C454.087 347.271 479.615 352.49 498.578 339.959Z" fill="white"/>
<path d="M372.203 390.873C389.284 383.291 396.987 363.293 389.408 346.205C381.829 329.117 361.837 321.412 344.756 328.994C327.675 336.576 319.972 356.574 327.551 373.662C335.13 390.75 355.122 398.456 372.203 390.873Z" fill="white"/>
<path d="M309.901 401.769C331.352 392.12 340.921 366.902 331.276 345.444C321.63 323.985 296.421 314.412 274.971 324.061C253.52 333.71 243.95 358.928 253.596 380.387C263.242 401.846 288.45 411.419 309.901 401.769Z" fill="white"/>
<path d="M255.788 368.352C258.717 338.472 236.878 311.873 207.008 308.943C177.138 306.012 150.55 327.86 147.62 357.741C144.691 387.622 166.531 414.22 196.4 417.151C226.27 420.081 252.859 398.233 255.788 368.352Z" fill="white"/>
<path d="M262.928 365.83C282.44 358.684 292.466 337.068 285.322 317.549C278.178 298.031 256.57 288.001 237.059 295.147C217.547 302.294 207.521 323.91 214.665 343.429C221.809 362.947 243.417 372.977 262.928 365.83Z" fill="white"/>
<path d="M160.104 403.904C173.987 393.916 177.148 374.56 167.163 360.672C157.179 346.784 137.831 343.623 123.948 353.611C110.065 363.599 106.905 382.954 116.889 396.842C126.873 410.73 146.222 413.891 160.104 403.904Z" fill="white"/>
<path opacity="0.2" d="M171.251 366.31C171.512 354.025 181.441 344.093 193.851 344.093C196.725 344.093 199.338 344.616 201.82 345.531C203.257 334.423 212.793 325.667 224.289 325.667C234.871 325.667 243.885 332.985 246.236 342.917C251.723 335.86 260.345 331.286 270.012 331.286C286.603 331.286 300.189 344.747 300.189 361.474C300.189 362.389 300.189 363.304 300.059 364.219C298.622 348.929 285.819 336.906 270.012 336.906C260.737 336.906 252.376 341.088 246.89 347.753C246.89 348.014 246.89 348.145 246.89 348.406C246.89 349.059 246.89 349.843 246.759 350.497C246.628 349.713 246.628 349.059 246.498 348.275C242.97 352.719 240.619 358.207 239.966 364.219C239.835 363.304 239.835 362.389 239.835 361.474C239.835 355.071 241.795 349.059 245.191 344.224C241.925 335.86 233.695 329.979 224.159 329.979C213.969 329.979 205.347 336.644 202.604 345.923C210.703 349.321 216.321 357.423 216.321 366.702C216.321 367.355 216.321 368.139 216.19 368.793C215.406 360.037 209.528 352.719 201.689 349.713C201.689 349.974 201.689 350.236 201.559 350.497C201.559 350.236 201.559 349.974 201.559 349.713C199.077 348.798 196.464 348.275 193.721 348.275C182.747 348.275 173.733 355.986 171.512 366.31C189.671 366.44 204.302 381.339 204.302 399.504C204.302 400.549 204.302 401.595 204.171 402.64C202.604 385.782 188.364 372.452 171.12 372.452C153.876 372.452 139.637 385.651 138.069 402.64C137.939 401.595 137.939 400.549 137.939 399.504C138.2 381.208 152.962 366.44 171.251 366.31Z" fill="#7EC3CF"/>
<path opacity="0.2" d="M218.15 203.476C227.686 200.34 237.614 202.431 244.93 208.312C247.412 198.902 255.903 191.976 266.093 191.976C278.112 191.976 287.909 201.777 287.909 213.8C287.909 214.454 287.909 215.107 287.779 215.891C286.734 204.783 277.458 196.027 266.093 196.027C257.079 196.027 249.372 201.516 246.106 209.227C249.633 212.363 252.376 216.414 254.075 221.25C254.336 222.034 254.597 222.948 254.858 223.733C252.768 218.897 249.372 214.846 245.191 211.971C244.799 213.147 244.669 214.454 244.538 215.63C244.538 214.977 244.408 214.323 244.408 213.539C244.408 212.755 244.407 212.102 244.538 211.448C237.484 206.874 228.6 205.437 219.978 208.312C206 213.016 198.162 227.522 201.428 241.636C201.036 240.852 200.775 240.068 200.514 239.153C195.419 224.517 203.388 208.573 218.15 203.476Z" fill="#7EC3CF"/>
<path d="M140.518 388.128C158.072 367.061 155.232 335.747 134.173 318.186C113.115 300.625 81.8125 303.466 64.2578 324.533C46.703 345.599 49.5434 376.913 70.602 394.474C91.6606 412.035 122.963 409.194 140.518 388.128Z" fill="white"/>
<path d="M83.6404 352.67C93.7832 330.646 84.1577 304.566 62.1412 294.419C40.1247 284.272 14.0544 293.902 3.9116 315.926C-6.23121 337.951 3.3943 364.031 25.4108 374.177C47.4273 384.324 73.4976 374.695 83.6404 352.67Z" fill="white"/>
<path opacity="0.2" d="M55.1152 313.252C63.2147 316.911 68.9627 323.706 71.5754 331.548C77.9766 323.314 89.342 320.178 99.1397 324.752C110.636 329.979 115.6 343.571 110.374 355.071C110.113 355.724 109.721 356.378 109.46 356.9C113.379 345.923 108.284 333.508 97.4414 328.542C88.6888 324.491 78.6298 326.582 72.098 332.854C74.0575 339.781 73.7962 347.491 70.5303 354.548C70.1384 355.463 69.6159 356.247 69.224 357.162C71.706 350.235 71.4448 342.917 69.224 336.383C68.832 336.906 68.5708 337.298 68.3095 337.82C68.5708 337.167 68.832 336.514 69.0933 335.86C66.3499 328.411 60.7326 322.008 52.8944 318.479C38.1325 311.683 20.8885 317.434 12.9196 331.286C13.1809 330.371 13.5728 329.457 13.9647 328.542C21.0191 312.86 39.5695 306.064 55.1152 313.252Z" fill="#7EC3CF"/>
<path opacity="0.2" d="M425.47 313.252C438.272 313.774 449.637 319.655 457.476 328.673C461.525 314.166 474.981 303.973 490.657 304.627C508.816 305.411 522.924 320.831 522.141 338.997C522.141 340.042 522.01 341.088 521.879 342.002C521.095 325.144 507.509 311.422 490.396 310.769C476.418 310.115 464.138 318.348 458.782 330.371C465.314 338.605 468.972 349.059 468.449 360.168C468.449 361.605 468.188 362.912 468.057 364.349C467.535 353.764 463.354 344.093 456.692 336.644C456.561 337.428 456.3 338.343 456.3 339.127C456.3 338.082 456.3 337.167 456.3 336.122C448.592 327.627 437.488 322.138 425.208 321.616C401.824 320.57 381.837 337.69 378.702 360.429C378.571 358.991 378.571 357.685 378.702 356.247C379.747 331.286 400.779 312.076 425.47 313.252Z" fill="#7EC3CF"/>
<path d="M498.055 182.891C507.927 174.901 509.455 160.418 501.468 150.543C493.48 140.668 479.003 139.14 469.132 147.13C459.26 155.12 457.732 169.602 465.72 179.478C473.707 189.353 488.184 190.881 498.055 182.891Z" fill="white"/>
<path d="M453.048 185.676C465.734 175.544 467.808 157.042 457.68 144.351C447.552 131.66 429.057 129.585 416.371 139.717C403.684 149.849 401.61 168.351 411.738 181.042C421.866 193.733 440.361 195.808 453.048 185.676Z" fill="white"/>
<path d="M464.201 166.602C475.288 165.136 483.087 154.956 481.621 143.865C480.155 132.774 469.978 124.972 458.892 126.438C447.805 127.905 440.006 138.085 441.472 149.176C442.938 160.267 453.114 168.069 464.201 166.602Z" fill="white"/>
<path d="M385.495 167.799C384.58 176.947 391.112 185.181 400.257 186.095C409.401 187.01 417.631 180.476 418.546 171.328C419.46 162.18 412.928 153.947 403.784 153.032C394.639 152.117 386.54 158.651 385.495 167.799Z" fill="white"/>
<path opacity="0.2" d="M440.623 143.884C447.547 143.623 453.687 147.021 457.345 152.248C460.741 146.498 467.796 143.623 474.458 145.583C482.427 147.935 486.999 156.299 484.648 164.271C484.517 164.663 484.387 165.186 484.125 165.578C485.562 157.998 481.121 150.549 473.674 148.327C467.796 146.628 461.656 148.719 457.867 153.163C459.566 155.907 460.611 159.174 460.741 162.703C460.741 163.356 460.741 163.879 460.741 164.532C460.219 160.873 458.782 157.606 456.692 154.862C456.3 155.646 455.908 156.299 455.516 157.214C455.647 156.822 455.777 156.299 455.908 155.907C456.039 155.384 456.169 154.992 456.43 154.47C452.642 150.026 447.025 147.413 440.885 147.674C430.826 148.066 422.726 156.168 422.204 165.97C422.073 165.316 422.073 164.794 422.073 164.14C421.42 153.293 429.911 144.276 440.623 143.884Z" fill="#7EC3CF"/>
</g>
</svg>
