<svg width="450" height="151" viewBox="0 0 450 151" fill="none" xmlns="http://www.w3.org/2000/svg">
<mask id="mask0" mask-type="alpha" maskUnits="userSpaceOnUse" x="0" y="0" width="450" height="150">
<path d="M-6.10352e-05 2C-6.10352e-05 0.895429 0.89537 0 1.99994 0H448C449.105 0 450 0.895431 450 2V150H-6.10352e-05V2Z" fill="white"/>
</mask>
<g mask="url(#mask0)">
<path d="M86.8671 -174.626C109.329 -191.452 140.688 -190.687 165.921 -178.756C174.235 -174.779 182.257 -169.731 191.3 -168.508C204.719 -166.672 217.846 -173.555 229.515 -180.744C241.183 -188.086 253.289 -196.04 266.854 -196.958C280.419 -197.723 295.588 -187.933 295.734 -173.708C295.734 -171.414 295.296 -168.966 296.171 -166.672C298.359 -160.707 306.381 -161.012 312.361 -162.083C334.677 -166.06 357.869 -164.836 379.601 -158.565C393.166 -154.588 407.314 -147.705 413.44 -134.397C422.337 -114.971 410.523 -91.8744 413.44 -70.46C417.378 -41.8564 445.383 -25.0308 462.156 -1.93381C478.2 20.0925 483.889 50.0727 477.325 76.9937C470.616 103.915 451.8 127.165 427.442 138.178C408.773 146.744 387.769 148.273 367.349 148.732C346.929 149.344 326.364 149.038 305.944 146.438C286.836 143.99 268.021 139.401 248.768 138.637C216.825 137.413 184.299 146.744 153.232 139.249C139.521 135.883 126.832 129.459 114.142 123.035C101.744 116.763 88.7633 110.033 80.7412 98.1022C73.4483 87.242 70.9688 73.3226 62.5091 63.3802C52.7367 51.7552 36.8383 48.2372 24.5864 39.6714C5.18746 26.3638 -4.43907 -1.01605 1.97862 -24.5719C5.33332 -36.8087 12.3344 -47.363 19.7731 -57.4584C28.0869 -68.9304 37.4218 -80.0965 49.0903 -88.0504C54.7787 -91.8744 60.7588 -93.2511 66.5931 -96.1573C74.4693 -100.134 70.8229 -100.44 67.6141 -108.547C58.2793 -131.491 68.0516 -160.554 86.8671 -174.626Z" fill="#E0F2F7"/>
</g>
<path opacity="0.4" d="M179.196 109.698C179.384 109.635 179.51 109.573 179.573 109.573C179.259 109.573 178.945 109.635 178.631 109.761C176.056 109.824 173.544 109.761 171.032 109.51C170.53 109.447 170.027 109.384 169.525 109.321C168.771 108.379 167.767 105.867 167.327 105.24C166.448 103.984 165.318 102.351 164.062 101.472C163.496 101.095 161.801 100.341 161.299 101.22C160.733 102.162 163.057 104.109 163.685 104.612C165.004 105.679 166.448 106.495 167.578 107.689C168.081 108.254 168.583 108.819 169.211 109.259C166.95 108.945 164.69 108.568 162.492 108.003C161.738 107.061 160.671 104.486 160.231 103.921C159.352 102.665 158.221 101.032 156.966 100.153C156.4 99.7761 154.705 99.0226 154.202 99.9017C153.637 100.844 155.961 102.79 156.589 103.293C157.907 104.36 159.352 105.177 160.482 106.37C160.985 106.935 161.487 107.5 162.115 107.94C159.791 107.312 157.468 106.558 155.27 105.616C153.763 104.988 152.256 104.235 150.811 103.481C150.497 102.225 150.246 100.404 149.995 99.8389C149.43 98.3946 148.865 96.5107 147.797 95.3803C147.357 94.8779 145.913 93.7476 145.222 94.3755C144.469 95.1291 146.164 97.641 146.604 98.269C147.546 99.6505 148.739 100.844 149.555 102.288C149.681 102.539 149.807 102.79 149.995 103.104C148.048 101.974 146.164 100.781 144.406 99.3994C144.343 98.8342 144.218 98.269 144.092 97.7038C143.841 96.3223 143.966 94.8779 143.841 93.4336C143.778 92.8056 143.59 90.1681 142.648 90.1053C141.831 90.0425 141.517 91.6125 141.517 92.1776C141.455 93.4964 142.082 95.0663 142.522 96.3223C142.648 96.7619 143.401 97.955 143.841 98.9598C143.024 98.3318 142.208 97.641 141.455 96.9503C140.199 95.8199 139.068 94.6267 137.938 93.3708C137.938 92.68 137.749 91.9892 137.624 91.2985C137.373 89.9169 137.498 88.4726 137.373 87.0282C137.31 86.4003 137.121 83.7628 136.18 83.7C135.363 83.6372 135.049 85.2071 135.049 85.7723C134.986 87.091 135.614 88.661 136.054 89.9169C136.242 90.4193 137.184 91.9892 137.624 92.994C136.18 91.2985 134.798 89.5401 133.605 87.6562C133.542 87.091 133.416 86.4631 133.291 85.8979C133.04 84.5163 133.102 83.072 132.977 81.6277C132.914 80.9997 132.663 78.3622 131.721 78.3622C130.905 78.2994 130.591 79.8693 130.591 80.4345C130.591 81.7533 131.219 83.3232 131.658 84.5791C131.721 84.7675 131.846 85.0187 132.035 85.3327C132.474 86.4003 132.977 87.405 133.542 88.4726C133.542 88.5354 133.542 88.5354 133.542 88.5982C133.542 88.5354 133.542 88.5354 133.542 88.4726C134.296 89.8541 135.112 91.1729 136.054 92.4916C135.552 92.1776 135.049 91.9892 134.547 91.7381C133.291 91.1101 132.223 90.1681 131.03 89.3517C130.465 88.975 128.267 87.5934 127.702 88.2842C127.137 88.9122 128.204 90.1053 128.644 90.4193C129.711 91.2357 131.281 91.6753 132.537 92.1148C133.165 92.3032 135.363 92.4916 136.368 92.8684C137.247 94.0616 138.189 95.1919 139.194 96.3223C138.629 96.0083 137.938 95.8827 137.247 95.6315C135.866 95.1919 134.672 94.4384 133.416 93.8104C132.851 93.5592 130.465 92.4916 129.963 93.308C129.523 93.9988 130.716 95.0035 131.219 95.2547C132.349 95.9455 134.044 96.1339 135.363 96.3223C136.054 96.4479 138.503 96.2595 139.445 96.5107C139.885 96.9503 140.261 97.3898 140.701 97.8294C142.459 99.5877 144.406 101.158 146.478 102.602C146.102 102.665 145.662 102.665 145.285 102.728C143.841 102.853 142.459 102.602 141.015 102.539C140.387 102.539 137.749 102.476 137.624 103.418C137.498 104.235 139.005 104.674 139.571 104.737C140.889 104.926 142.522 104.423 143.778 104.109C144.28 103.984 145.85 103.23 146.981 102.853C148.99 104.172 151.125 105.365 153.323 106.37C152.821 106.37 152.381 106.37 151.879 106.37C150.749 106.307 149.618 106.244 148.551 106.056C146.792 105.805 145.097 105.365 143.527 104.612C142.71 104.235 141.894 105.177 142.396 105.93L142.459 105.993C143.276 107.186 144.908 107.437 146.416 107.563C147.546 107.626 153.512 108.191 154.83 106.935C157.405 108.003 160.043 108.819 162.806 109.447C161.424 109.573 160.043 109.321 158.661 109.259C158.033 109.259 155.396 109.196 155.27 110.138C155.144 110.954 156.652 111.394 157.217 111.456C158.535 111.645 160.168 111.142 161.424 110.828C161.927 110.703 163.182 110.075 164.25 109.698C166.448 110.138 168.646 110.389 170.844 110.515C170.593 110.64 170.341 110.703 170.09 110.828C168.771 111.331 167.327 111.394 165.883 111.77C165.255 111.896 162.743 112.524 162.806 113.466C162.868 114.282 164.438 114.345 165.004 114.282C166.322 114.094 167.767 113.278 168.96 112.65C169.462 112.398 170.781 111.268 171.723 110.64C173.418 110.703 175.114 110.703 176.81 110.64C175.616 111.08 174.36 111.331 173.167 111.708C172.539 111.896 170.09 112.712 170.216 113.654C170.341 114.471 171.911 114.408 172.476 114.282C173.795 114.031 175.177 113.026 176.307 112.336C176.684 112.084 177.563 111.268 178.379 110.577C181.582 110.326 185.224 112.398 188.301 111.645C185.35 111.896 182.022 109.573 179.196 109.698Z" fill="#C0D69F"/>
<path d="M172.163 87.0286C170.09 84.4539 167.955 81.6908 167.264 78.4254C166.636 75.4111 165.757 72.0828 165.883 69.0057C166.008 65.9286 165.443 62.8516 164.376 59.9001C161.173 50.7944 157.342 52.2388 156.024 53.1807C154.705 54.0599 154.202 55.6926 154.454 58.1417C154.642 60.1513 157.154 69.3197 153.951 68.2521C150.246 67.059 149.179 57.3254 148.237 54.1855C146.792 49.4129 144.218 44.5147 140.073 41.5632C138.063 40.1189 135.175 39.2397 133.102 40.6212C131.847 41.4376 131.156 42.882 130.842 44.3263C129.9 48.7221 131.909 52.9296 134.044 56.6346C134.924 58.2045 141.517 65.0495 136.745 64.9239C135.614 64.8611 125.441 58.7697 125.504 66.431C125.504 69.1313 128.832 71.4548 133.919 74.2807C137.121 76.039 148.676 80.2465 148.488 83.198C148.299 86.2122 141.706 82.256 143.087 87.6566C143.841 90.6709 148.174 92.3664 151 93.1828C152.381 93.5596 153.826 93.6851 155.144 94.1875C156.714 94.7527 158.787 96.3226 157.845 98.2694C157.468 99.0857 156.526 99.5881 156.149 100.467C155.772 101.346 156.024 102.351 156.652 103.105C157.217 103.858 158.096 104.298 158.975 104.675C164.438 107.187 170.907 106.873 176.621 104.989C182.336 103.105 187.422 99.7137 192.258 96.1343" fill="#7CAE49"/>
<g opacity="0.11">
<path opacity="0.11" d="M136.556 45.3936C136.556 45.3936 146.667 76.5411 168.52 93.9988" stroke="white" stroke-width="1.1784" stroke-miterlimit="10" stroke-linecap="round" stroke-linejoin="round"/>
<path opacity="0.11" d="M130.339 67.4985C130.339 67.4985 142.208 74.5947 151.251 74.7203" stroke="white" stroke-width="1.1784" stroke-miterlimit="10" stroke-linecap="round" stroke-linejoin="round"/>
<path opacity="0.11" d="M158.159 56.9487C159.352 61.9097 161.55 75.8508 157.594 83.1981" stroke="white" stroke-width="1.1784" stroke-miterlimit="10" stroke-linecap="round" stroke-linejoin="round"/>
<path opacity="0.11" d="M147.232 88.2217C147.232 88.2217 151.942 91.3616 165.255 91.236" stroke="white" stroke-width="1.1784" stroke-miterlimit="10" stroke-linecap="round" stroke-linejoin="round"/>
<path opacity="0.11" d="M158.849 100.969C158.849 100.969 165.757 101.346 171.409 97.0132" stroke="white" stroke-width="1.1784" stroke-miterlimit="10" stroke-linecap="round" stroke-linejoin="round"/>
</g>
<path d="M272.701 108.442C280.551 107.877 297.067 107.375 297.004 100.153C295.057 99.2738 289.091 99.4622 287.522 99.3366C290.599 92.994 312.766 100.216 311.447 86.2119C307.994 84.7676 307.177 87.5307 299.202 85.7723C311.385 82.6952 316.722 64.3584 313.959 63.0396C312.452 62.2861 294.053 62.1605 290.41 73.5268C289.971 73.9036 289.343 66.8703 287.522 65.5515C280.677 66.4307 283.817 76.9179 283.503 82.3813C281.744 80.2461 283.314 77.8598 279.797 74.4688C274.962 79.2414 278.667 88.5354 277.411 90.1053C276.344 88.1586 273.832 82.6324 271.006 81.1881C266.798 85.9607 271.006 103.921 272.701 108.442Z" fill="#A8D46B"/>
<path d="M313.268 64.9868C302.091 70.8897 292.922 80.8117 285.198 90.671C277.411 100.656 270.88 111.457 265.04 122.635C264.914 122.886 264.6 122.635 264.663 122.446C269.938 110.955 276.909 100.091 284.696 90.1686C292.608 80.121 301.714 70.7641 313.08 64.7356C313.331 64.6728 313.457 64.924 313.268 64.9868Z" fill="#8BBD56"/>
<path d="M292.859 101.849C289.845 101.974 286.894 102.1 283.879 102.351C280.991 102.602 278.353 103.356 275.527 103.858C275.464 103.858 275.464 103.796 275.464 103.796C277.474 102.414 280.363 102.351 282.686 102.1C286.077 101.786 289.468 101.723 292.796 101.598C292.985 101.598 292.985 101.849 292.859 101.849Z" fill="#8BBD56"/>
<path d="M271.32 84.3912C272.576 90.4198 274.271 96.4483 276.155 102.289C276.281 102.665 275.716 102.791 275.59 102.414C273.706 96.5111 272.136 90.5454 271.006 84.454C271.069 84.3284 271.32 84.2656 271.32 84.3912Z" fill="#8BBD56"/>
<path d="M301.902 88.4727C296.376 88.6611 290.724 88.4099 285.449 90.231C285.135 90.3566 285.01 89.8542 285.324 89.7914C290.724 88.0331 296.313 88.1587 301.902 88.1587C302.091 88.1587 302.091 88.4727 301.902 88.4727Z" fill="#8BBD56"/>
<path d="M280.111 78.8649C280.425 84.2655 282.184 89.9801 281.556 95.3807C281.493 95.6947 281.116 95.6947 281.116 95.3807C280.928 89.8545 279.86 84.3911 279.86 78.8649C279.797 78.6765 280.111 78.6765 280.111 78.8649Z" fill="#8BBD56"/>
<path d="M286.642 69.3823C287.459 75.662 287.019 81.9418 286.956 88.2215C286.956 88.4727 286.517 88.4727 286.517 88.2215C286.642 81.9418 286.894 75.662 286.454 69.3823C286.454 69.2567 286.642 69.2567 286.642 69.3823Z" fill="#8BBD56"/>
<path d="M306.298 75.4736C303.158 77.9855 298.574 79.1159 294.68 79.5555C294.429 79.5555 294.429 79.1787 294.618 79.1787C298.511 78.2995 302.97 77.8599 306.298 75.4736Z" fill="#8BBD56"/>
<path d="M303.535 67.1844C300.458 69.4452 298.762 73.0246 297.695 76.6041C297.632 76.8553 297.192 76.7925 297.255 76.4785C298.071 72.7734 300.207 69.1312 303.409 67.0588C303.535 66.9333 303.598 67.1216 303.535 67.1844Z" fill="#8BBD56"/>
<path d="M280.802 44.8283C280.864 44.8283 280.864 44.7664 280.802 44.8283C280.802 44.7664 280.802 44.8283 280.802 44.8283Z" fill="#A8D46B"/>
<path d="M280.3 57.3882C280.111 57.5138 279.986 57.7022 279.797 57.8278C279.923 57.7022 280.111 57.5766 280.3 57.3882Z" fill="#A8D46B"/>
<path d="M272.827 73.0241C272.889 73.0241 272.889 72.9622 272.827 73.0241C272.827 72.9622 272.827 73.0241 272.827 73.0241Z" fill="#A8D46B"/>
<path d="M275.527 69.131C275.589 69.131 275.589 69.0691 275.527 69.131C275.527 69.0691 275.527 69.131 275.527 69.131Z" fill="#A8D46B"/>
<path d="M288.526 49.2242C289.908 44.954 289.405 40.1813 291.227 36.0367C291.478 35.4087 291.855 34.7808 292.357 34.3412C292.608 34.1528 292.922 33.9644 293.236 33.9644C293.801 33.9016 294.366 34.2784 294.68 34.718C294.994 35.2203 295.057 35.7855 295.12 36.3507C295.183 38.737 294.178 41.0605 292.922 43.07C291.666 45.0796 290.159 46.9635 289.029 49.0986" fill="#7CAE49"/>
<path d="M282.058 56.3832C282.875 56.3204 283.628 56.132 284.444 55.8808C288.778 54.4993 292.043 50.2918 296.627 49.7266C297.695 49.601 298.951 49.7894 299.516 50.7314C299.893 51.4222 299.767 52.3641 299.265 53.0549C298.762 53.7457 298.072 54.1225 297.318 54.4992C292.671 56.8228 287.208 57.074 281.995 56.8228" fill="#7CAE49"/>
<path d="M279.169 58.7698C280.614 56.6346 280.928 53.9344 281.116 51.2969C281.305 48.7222 281.367 46.0219 282.498 43.6356C282.812 42.882 283.44 42.1284 284.256 42.1284C284.758 42.1284 285.198 42.5052 285.512 42.9448C285.763 43.3844 285.889 43.8867 285.952 44.3891C286.203 45.8963 286.266 47.529 285.952 49.0361C285.638 50.3549 284.947 51.548 284.319 52.7412C283.377 54.3739 282.372 56.0695 280.928 57.3254" fill="#7CAE49"/>
<path d="M274.46 65.426C275.464 60.5906 272.827 55.3156 274.648 50.7314C275.088 49.6639 276.03 48.5335 277.16 48.7219C278.228 48.9103 278.73 50.0406 278.918 51.1082C279.295 53.5573 278.479 56.0064 277.537 58.2043C276.595 60.465 275.402 62.6629 274.899 65.0492" fill="#7CAE49"/>
<path d="M271.822 72.7732C273.204 68.3146 272.639 62.4117 271.131 59.0206C270.755 58.2042 270.189 57.2623 269.31 57.1367C268.494 57.0739 267.803 57.7018 267.552 58.4554C267.301 59.209 267.426 60.0253 267.678 60.7789C268.431 62.9768 270.189 64.7352 270.943 66.9331C271.697 69.2566 271.759 71.6429 271.257 74.0292" fill="#7CAE49"/>
<path d="M270.943 80.0578C268.368 77.3575 266.484 73.9036 265.731 70.2614C265.417 68.9426 265.291 67.4983 265.982 66.3679C266.17 65.9911 266.484 65.6772 266.861 65.5516C267.426 65.3632 268.117 65.6144 268.557 66.0539C268.996 66.4935 269.185 67.1215 269.31 67.6867C269.813 69.8218 269.499 72.0197 269.499 74.2176C269.499 76.4155 269.185 77.9227 270.566 79.6182" fill="#7CAE49"/>
<path d="M270.378 81.879C270.441 79.4927 271.759 77.232 273.706 75.7876C275.59 74.3433 278.039 73.6525 280.425 73.5269C281.43 73.4641 282.561 73.5269 283.44 74.0293C284.382 74.5317 285.072 75.4737 284.947 76.5412C284.884 77.4204 284.256 78.1112 283.503 78.5507C282.749 78.9275 281.87 79.0531 280.991 79.0531C279.358 79.0531 277.788 78.7391 276.155 78.6135C274.962 78.4879 273.706 78.4879 272.576 78.9903C271.445 79.4927 270.566 80.5603 270.566 81.7534" fill="#7CAE49"/>
<path d="M271.948 72.8364C272.639 70.8269 274.46 69.4453 276.344 68.315C279.609 66.3682 283.44 64.8611 287.208 65.4263C288.024 65.5519 288.84 65.7403 289.468 66.3054C290.096 66.8078 290.536 67.687 290.347 68.5034C290.159 69.3825 289.28 69.9477 288.464 70.1989C287.019 70.7013 285.386 70.7013 283.817 70.6385C282.498 70.6385 281.179 70.5757 279.86 70.5757C278.165 70.5129 276.469 70.5129 274.899 71.0153C273.329 71.5176 271.885 72.7108 271.445 74.3435" fill="#7CAE49"/>
<path d="M275.527 64.5468C276.658 62.7256 278.479 61.4697 280.425 60.5905C282.561 59.5858 284.821 58.9578 287.145 58.6438C288.275 58.5182 289.468 58.4554 290.599 58.6438C291.729 58.895 292.859 59.4602 293.55 60.3393C293.676 60.5277 293.864 60.7789 293.864 61.0301C293.864 61.2185 293.801 61.4069 293.676 61.5325C293.362 62.0349 292.797 62.3489 292.231 62.5372C290.222 63.3536 288.024 63.4164 285.889 63.3536C283.754 63.2908 281.619 63.1024 279.483 63.3536C277.348 63.6676 275.213 64.5468 273.895 66.1795" fill="#7CAE49"/>
<path d="M283.879 46.2727C284.193 50.1661 282.247 53.9968 280.551 57.4506C280.488 57.639 280.677 57.8274 280.802 57.639C282.058 56.1947 282.749 54.248 283.314 52.4896C284.005 50.4173 284.256 48.345 283.879 46.2727C283.942 46.2099 283.879 46.2099 283.879 46.2727Z" fill="#A8D46B"/>
<path d="M293.613 53.0552C292.043 54.5623 289.971 55.1275 287.898 55.5671C285.889 55.9439 283.754 56.4462 281.744 56.1951C281.681 56.1951 281.619 56.3206 281.681 56.3834C283.628 57.2626 286.077 56.6346 288.087 56.1951C290.159 55.6299 292.106 54.6879 293.613 53.0552C293.676 53.0552 293.613 53.0552 293.613 53.0552Z" fill="#A8D46B"/>
<path d="M275.841 55.1901C275.841 55.1273 275.841 55.1273 275.778 55.0645H275.716C275.716 55.1273 275.778 55.1273 275.841 55.1901C275.778 55.2528 275.841 55.1901 275.841 55.1901Z" fill="#A8D46B"/>
<path d="M275.841 54.8764C275.841 54.8136 275.841 54.7508 275.778 54.688C275.778 54.7508 275.841 54.8136 275.841 54.8764C275.841 54.9392 275.841 54.9392 275.841 54.8764Z" fill="#A8D46B"/>
<path d="M275.778 54.9387C275.904 56.9482 275.716 59.0205 275.339 60.9673C275.025 62.7884 274.397 64.5467 274.083 66.3678C274.083 66.5562 274.271 66.619 274.334 66.4934C276.281 63.1024 276.155 58.6438 275.841 54.9387C275.841 54.8759 275.778 54.8759 275.778 54.9387Z" fill="#A8D46B"/>
<path d="M288.087 60.9048C283.189 60.214 277.474 61.6584 274.334 65.6146C274.209 65.7402 274.397 65.9914 274.523 65.8658C278.542 62.726 282.875 60.5908 288.087 60.9676V60.9048Z" fill="#A8D46B"/>
<path d="M269.561 61.0933C271.508 64.61 271.885 68.2523 271.571 72.1457C271.571 72.2713 271.759 72.2713 271.759 72.1457C272.764 68.3779 271.634 64.296 269.561 61.0933C269.624 61.0305 269.561 61.0933 269.561 61.0933Z" fill="#A8D46B"/>
<path d="M284.633 68.4402C280.049 67.875 273.643 69.0054 271.32 73.5896C271.257 73.7152 271.383 73.8408 271.508 73.7152C273.141 72.0197 274.711 70.5753 276.972 69.6962C279.421 68.6914 281.995 68.503 284.633 68.4402C284.696 68.503 284.696 68.4402 284.633 68.4402Z" fill="#A8D46B"/>
<path d="M267.552 69.2568C267.552 72.7107 268.243 76.4786 270.127 79.3672C270.189 79.43 270.252 79.3672 270.252 79.3044C268.871 75.9762 267.74 72.9619 267.552 69.2568Z" fill="#A8D46B"/>
<path d="M277.788 77.3571C277.85 77.3571 277.85 77.2952 277.788 77.3571C277.788 77.2952 277.788 77.3571 277.788 77.3571Z" fill="#A8D46B"/>
<path d="M280.3 76.0388C276.344 75.348 272.136 77.3576 270.252 80.937C270.189 80.9998 270.315 81.0626 270.378 80.9998C272.639 77.6715 276.218 75.8504 280.3 76.0388C280.3 76.1016 280.363 76.0388 280.3 76.0388Z" fill="#A8D46B"/>
<path d="M291.415 42.0655C289.845 46.4613 288.15 50.606 284.57 53.7458C281.493 56.4461 278.479 58.8952 276.092 62.2863C271.634 68.6289 269.31 76.4785 270.503 84.2026C270.503 84.391 270.817 84.3282 270.817 84.1398C270.692 75.9134 272.953 67.6241 278.228 61.156C279.483 59.586 280.865 58.2045 282.372 56.9485C284.005 55.567 285.763 54.2482 287.145 52.5527C289.468 49.4756 290.41 45.7078 291.415 42.0655C291.415 42.0655 291.415 42.0027 291.415 42.0655Z" fill="#A8D46B"/>
<path d="M176.182 128.663C176.244 128.851 176.37 129.04 176.433 129.103C176.119 128.851 175.93 128.6 175.679 128.286C173.356 126.402 170.969 124.644 168.52 123.074C168.018 122.76 167.515 122.446 167.013 122.132C165.632 122.509 162.931 124.016 162.115 124.267C160.419 124.77 158.221 125.523 156.4 125.335C155.647 125.272 153.574 124.77 153.7 123.639C153.826 122.383 157.405 122.258 158.284 122.258C160.231 122.195 162.178 122.446 164.062 122.195C164.941 122.069 165.82 121.881 166.699 121.881C164.376 120.499 162.052 119.306 159.603 118.239C158.284 118.553 155.458 120.123 154.579 120.374C152.884 120.876 150.686 121.63 148.865 121.441C148.111 121.379 146.039 120.876 146.164 119.746C146.29 118.49 149.869 118.364 150.749 118.364C152.695 118.301 154.642 118.553 156.526 118.302C157.405 118.176 158.284 117.988 159.163 117.988C156.589 116.857 153.951 115.915 151.251 115.224C149.367 114.722 147.483 114.345 145.599 114.031C144.406 114.973 142.899 116.418 142.271 116.794C140.764 117.736 138.817 118.992 137.059 119.369C136.305 119.495 134.17 119.557 133.982 118.427C133.793 117.171 137.184 116.104 138.001 115.852C139.885 115.287 141.768 115.036 143.59 114.282C143.904 114.157 144.218 113.968 144.532 113.843C141.957 113.466 139.382 113.278 136.745 113.278C136.305 113.78 135.74 114.157 135.3 114.596C134.044 115.727 133.165 117.108 132.035 118.364C131.532 118.929 129.46 121.19 128.581 120.562C127.765 120.06 128.644 118.364 129.021 117.862C129.963 116.606 131.595 115.601 132.914 114.722C133.354 114.408 134.861 113.843 136.054 113.278C134.861 113.278 133.605 113.34 132.412 113.403C130.465 113.529 128.518 113.843 126.634 114.157C126.132 114.785 125.504 115.287 124.876 115.852C123.62 116.983 122.741 118.364 121.61 119.62C121.108 120.185 119.036 122.446 118.157 121.818C117.34 121.316 118.219 119.62 118.596 119.118C119.538 117.862 121.171 116.857 122.49 115.978C123.055 115.601 125.002 114.91 126.132 114.22C123.62 114.722 121.108 115.413 118.659 116.292C118.219 116.794 117.591 117.234 117.089 117.674C115.833 118.741 114.891 120.185 113.761 121.379C113.258 121.944 111.186 124.142 110.307 123.514C109.553 122.949 110.37 121.316 110.809 120.813C111.751 119.557 113.447 118.615 114.766 117.799C114.954 117.674 115.268 117.548 115.645 117.36C116.838 116.732 118.031 116.104 119.224 115.601C119.224 115.538 119.287 115.538 119.287 115.476C119.287 115.538 119.224 115.538 119.224 115.601C120.92 114.848 122.615 114.22 124.374 113.717C123.746 113.654 123.055 113.466 122.427 113.34C120.794 113.027 119.161 113.152 117.466 113.027C116.712 112.964 113.698 112.65 113.635 111.582C113.572 110.64 115.394 110.263 116.021 110.263C117.591 110.263 119.35 110.954 120.794 111.519C121.485 111.771 123.683 113.215 124.813 113.592C126.446 113.089 128.141 112.713 129.837 112.461C129.083 112.336 128.33 111.959 127.576 111.708C126.006 111.143 124.374 111.017 122.741 110.577C121.987 110.389 119.099 109.635 119.161 108.568C119.224 107.626 121.108 107.563 121.736 107.626C123.243 107.814 124.939 108.882 126.257 109.573C126.948 109.949 129.146 111.896 130.151 112.336C130.842 112.21 131.532 112.147 132.223 112.022C135.112 111.708 138.001 111.645 140.952 111.771C140.575 111.457 140.261 111.08 139.947 110.766C138.754 109.635 137.247 108.882 135.928 107.877C135.3 107.438 132.914 105.616 133.416 104.612C133.856 103.795 135.552 104.423 136.117 104.8C137.435 105.616 138.629 107.186 139.571 108.379C139.947 108.882 140.889 110.703 141.58 111.833C144.406 112.022 147.169 112.461 149.932 113.089C149.493 112.713 149.053 112.399 148.613 112.085C147.546 111.331 146.478 110.64 145.285 109.949C143.527 108.945 141.643 108.128 139.633 107.626C138.629 107.375 138.566 105.93 139.508 105.616C139.571 105.616 139.571 105.616 139.633 105.554C141.266 105.051 142.962 105.993 144.343 106.935C145.411 107.626 151.314 111.394 151.69 113.529C154.83 114.408 157.845 115.538 160.796 116.92C159.603 115.852 158.159 115.099 156.903 114.094C156.275 113.654 153.888 111.833 154.391 110.829C154.83 110.012 156.526 110.64 157.091 111.017C158.41 111.833 159.603 113.403 160.545 114.596C160.922 115.036 161.675 116.543 162.366 117.674C164.69 118.867 166.887 120.185 169.023 121.63C168.834 121.379 168.709 121.065 168.52 120.813C167.641 119.432 166.385 118.301 165.318 116.983C164.815 116.418 162.994 114.031 163.685 113.215C164.313 112.524 165.82 113.592 166.259 114.031C167.327 115.162 168.081 116.983 168.709 118.364C168.96 118.929 169.399 120.939 169.839 122.195C171.472 123.325 172.979 124.518 174.486 125.837C173.732 124.581 172.728 123.451 171.911 122.258C171.472 121.63 169.776 119.118 170.593 118.364C171.283 117.736 172.665 118.929 173.104 119.432C174.109 120.625 174.674 122.509 175.24 123.953C175.428 124.456 175.616 125.837 175.868 127.03C178.631 129.542 183.466 130.233 185.727 133.185C183.403 130.924 178.693 130.735 176.182 128.663Z" fill="#A8D46B"/>
<path opacity="0.55" d="M160.168 131.866C160.168 131.866 154.454 131.615 153.261 134.378C152.444 136.388 155.458 138.397 178.568 138.397C201.677 138.397 277.286 139.716 284.193 138.397C291.101 137.078 285.7 132.745 278.981 132.243C272.262 131.678 160.168 131.866 160.168 131.866Z" fill="#D9E8FF"/>
<path d="M276.658 54.3737V132.243H161.55V54.3737C161.55 52.3642 163.183 50.7942 165.129 50.7942H273.015C275.025 50.7314 276.658 52.3642 276.658 54.3737Z" fill="#594596"/>
<path d="M163.434 125.335V56.5718C163.434 55.4415 164.376 54.4995 165.506 54.4995H272.701C273.832 54.4995 274.774 55.4415 274.774 56.5718V125.335C274.774 126.465 273.832 127.407 272.701 127.407H165.506C164.376 127.345 163.434 126.465 163.434 125.335Z" fill="#47298E"/>
<path d="M213.797 88.4102C213.672 88.4102 213.546 88.4102 213.358 88.473" stroke="#50B3D1" stroke-width="0.4439" stroke-miterlimit="10"/>
<path d="M212.541 88.5356C209.967 88.8496 206.638 89.5404 206.136 92.2407C205.948 93.2455 206.827 94.1246 207.706 94.5642C210.72 96.0714 214.362 95.6318 217.628 95.569C221.647 95.5062 225.666 95.569 229.685 95.569C237.912 95.569 246.075 95.6318 254.302 96.3225C257.316 96.5737 260.77 97.4529 263.345 99.0856C266.987 101.409 266.296 105.554 262.026 106.873C257.693 108.191 241.24 106.245 237.849 123.2" stroke="#50B3D1" stroke-width="0.4439" stroke-miterlimit="10" stroke-dasharray="1.33 1.33"/>
<path d="M237.849 123.514C237.849 123.639 237.786 123.765 237.786 123.953" stroke="#50B3D1" stroke-width="0.4439" stroke-miterlimit="10"/>
<path d="M281.116 129.479V131.049C281.116 132.871 279.923 134.315 276.658 134.315H160.985C157.719 134.315 157.028 132.871 157.028 131.049V129.479H281.116Z" fill="#785EB8"/>
<path d="M234.081 129.479C234.081 130.673 233.076 131.677 231.883 131.677H206.324C205.131 131.677 204.126 130.673 204.126 129.479H234.081Z" fill="#4B3D89"/>
<path d="M242.81 127.659C243.124 126.842 243.312 126.026 243.312 125.147C243.312 121.002 239.544 117.674 234.96 117.674C234.207 117.674 233.453 117.799 232.762 117.925C232.762 117.862 232.762 117.737 232.762 117.674C232.762 115.476 230.753 113.718 228.304 113.718C227.55 113.718 226.922 113.906 226.294 114.157L224.096 81H215.116L212.667 112.273C211.788 110.64 209.402 109.887 208.208 109.887C205.069 109.887 202.557 112.148 202.557 114.973C202.557 116.041 202.933 116.983 203.499 117.799C198.726 117.548 194.393 121.504 194.393 125.147C194.393 126.026 194.581 126.905 194.895 127.659H242.81Z" fill="#CFEFFE"/>
<path d="M221.082 123.514C221.521 121.63 223.28 120.123 225.415 119.934C227.173 119.746 228.743 120.436 229.748 121.504C229.874 121.63 229.999 121.504 229.936 121.378C229.12 119.746 227.236 118.615 225.038 118.741C222.589 118.867 220.642 120.625 220.391 122.823C220.328 123.388 220.391 123.953 220.579 124.456C220.642 124.581 220.893 124.581 220.893 124.393C221.019 124.142 221.019 123.828 221.082 123.514Z" fill="white"/>
<path d="M215.556 120.374C216.435 119.369 218.005 119.055 219.324 119.495C220.391 119.871 221.082 120.688 221.333 121.63C221.333 121.693 221.521 121.693 221.521 121.63C221.584 120.437 220.893 119.306 219.575 118.804C218.13 118.239 216.372 118.678 215.493 119.871C215.242 120.185 215.116 120.499 215.053 120.876C215.053 121.002 215.179 121.002 215.242 120.939C215.305 120.751 215.43 120.562 215.556 120.374Z" fill="white"/>
<path d="M204.566 122.258C203.813 120.374 204.503 118.239 206.324 117.046C207.769 116.041 209.59 115.915 211.097 116.355C211.223 116.418 211.348 116.229 211.223 116.167C209.527 115.099 207.204 115.036 205.382 116.167C203.31 117.423 202.557 119.935 203.687 121.944C204.001 122.446 204.378 122.949 204.817 123.326C204.943 123.451 205.131 123.263 205.069 123.137C204.88 122.823 204.692 122.572 204.566 122.258Z" fill="white"/>
<path d="M221.459 83.4487L222.463 120.122L223.657 119.432L221.459 83.4487Z" fill="white"/>
<path d="M217.377 79.3042L215.493 114.22L216.121 115.162L217.377 79.3042Z" fill="white"/>
<path d="M244.003 130.61C248.824 130.61 252.732 128.98 252.732 126.968C252.732 124.956 248.824 123.326 244.003 123.326C239.182 123.326 235.274 124.956 235.274 126.968C235.274 128.98 239.182 130.61 244.003 130.61Z" fill="#CFEFFE"/>
<path d="M200.107 125.084C200.547 127.03 197.093 129.479 192.383 130.547C187.674 131.615 183.529 130.861 183.089 128.914C182.65 126.967 186.104 124.518 190.813 123.451C195.523 122.383 199.668 123.074 200.107 125.084Z" fill="#CFEFFE"/>
<path opacity="0.45" d="M263.973 81.314C264.035 80.8744 264.035 80.3721 263.973 79.9325C263.91 79.4929 263.847 78.9905 263.721 78.5509L262.089 78.9277C261.9 78.4881 261.712 78.0486 261.398 77.609L262.654 76.4786C262.089 75.725 261.335 75.1599 260.519 74.7203L259.64 76.1646C259.2 75.9762 258.76 75.7878 258.258 75.7251L258.321 74.0295C257.881 73.9667 257.379 73.9667 256.939 74.0295C256.5 74.0923 255.997 74.1551 255.558 74.2807L255.935 75.9134C255.495 76.1018 255.055 76.2902 254.616 76.6042L253.485 75.3483C252.732 75.9134 252.167 76.667 251.727 77.4834L253.171 78.3625C252.983 78.8021 252.795 79.2417 252.732 79.7441L251.036 79.6813C250.974 80.1209 250.974 80.6233 251.036 81.0628C251.099 81.5024 251.162 82.0048 251.288 82.4444L252.92 82.0676C253.109 82.5072 253.297 82.9468 253.611 83.3863L252.355 84.5167C252.92 85.2703 253.674 85.8355 254.49 86.275L255.369 84.8307C255.809 85.0191 256.249 85.2075 256.751 85.2703L256.688 86.9658C257.128 87.0286 257.63 87.0286 258.07 86.9658C258.509 86.903 259.012 86.8402 259.451 86.7146L259.074 85.0819C259.514 84.8935 259.954 84.7051 260.393 84.3911L261.524 85.6471C262.277 85.0819 262.842 84.3283 263.282 83.5119L261.837 82.6328C262.026 82.1932 262.214 81.7536 262.277 81.2512L263.973 81.314ZM257.818 83.198C256.374 83.3235 255.055 82.256 254.93 80.8117C254.804 79.3673 255.872 78.0486 257.316 77.923C258.76 77.7974 260.079 78.8649 260.205 80.3093C260.33 81.7536 259.263 83.0724 257.818 83.198Z" fill="#755DC1"/>
<path opacity="0.45" d="M281.242 53.4948L283.628 51.6736C282.435 49.7897 280.865 48.2198 279.044 47.0894L277.223 49.4757C276.218 48.8478 275.088 48.3454 273.832 48.0942L274.271 45.0799C273.204 44.8287 272.136 44.7031 271.006 44.7031C269.876 44.7031 268.808 44.8287 267.74 45.0799L268.18 48.0942C266.987 48.4082 265.857 48.8478 264.789 49.4757L262.968 47.0894C261.084 48.2826 259.514 49.8525 258.384 51.6736L260.77 53.4948C260.142 54.4995 259.64 55.6299 259.388 56.8858L256.374 56.4463C256.123 57.5138 255.997 58.5814 255.997 59.7117C255.997 60.8421 256.123 61.9096 256.374 62.9772L259.388 62.5376C259.702 63.7308 260.142 64.8611 260.77 65.9287L258.384 67.7498C259.577 69.6337 261.147 71.2037 262.968 72.334L264.789 69.9477C265.794 70.5757 266.924 71.0781 268.18 71.3293L267.74 74.3436C268.808 74.5947 269.876 74.7203 271.006 74.7203C272.136 74.7203 273.204 74.5947 274.271 74.3436L273.832 71.3293C275.025 71.0153 276.155 70.5757 277.223 69.9477L279.044 72.334C280.928 71.1409 282.498 69.5709 283.628 67.7498L281.242 65.9287C281.87 64.9239 282.372 63.7936 282.624 62.5376L285.638 62.9772C285.889 61.9096 286.015 60.8421 286.015 59.7117C286.015 58.5814 285.889 57.5138 285.638 56.4463L282.624 56.8858C282.31 55.6927 281.87 54.5623 281.242 53.4948ZM271.006 67.6242C266.61 67.6242 263.093 64.0448 263.093 59.7117C263.093 55.3159 266.673 51.7992 271.006 51.7992C275.402 51.7992 278.918 55.3787 278.918 59.7117C278.981 64.0448 275.402 67.6242 271.006 67.6242Z" fill="#755DC1"/>
<path opacity="0.45" d="M199.668 95.82C199.794 94.8153 199.794 93.8105 199.731 92.8057C199.668 91.801 199.417 90.7962 199.166 89.8543L195.523 90.7334C195.146 89.7287 194.644 88.7867 194.079 87.9075L196.842 85.3956C195.586 83.8257 194.016 82.507 192.258 81.565L190.311 84.7677C189.369 84.3281 188.364 83.9513 187.297 83.8257L187.485 80.1206C186.48 79.9951 185.476 79.9951 184.471 80.0579C183.466 80.1206 182.461 80.3718 181.519 80.623L182.399 84.2653C181.394 84.6421 180.452 85.1444 179.573 85.7096L177.061 82.9465C175.491 84.2025 174.172 85.7724 173.23 87.5308L176.433 89.4775C175.993 90.4194 175.616 91.4242 175.491 92.4918L171.786 92.3034C171.66 93.3081 171.66 94.3129 171.723 95.3176C171.786 96.3224 172.037 97.3272 172.288 98.2691L175.93 97.39C176.307 98.3947 176.81 99.3367 177.375 100.216L174.612 102.728C175.868 104.298 177.438 105.616 179.196 106.558L181.143 103.356C182.085 103.795 183.089 104.172 184.157 104.298L183.969 108.003C184.973 108.128 185.978 108.128 186.983 108.066C187.988 108.003 188.992 107.752 189.934 107.5L189.055 103.858C190.06 103.481 191.002 102.979 191.881 102.414L194.393 105.177C195.963 103.921 197.282 102.351 198.224 100.593L195.021 98.6459C195.46 97.704 195.837 96.6992 195.963 95.6316L199.668 95.82ZM186.166 99.7763C183.027 100.09 180.201 97.704 179.887 94.5641C179.573 91.4242 181.959 88.5983 185.099 88.2843C188.239 87.9703 191.065 90.3566 191.379 93.4965C191.693 96.6992 189.369 99.5251 186.166 99.7763Z" fill="#755DC1"/>
<path opacity="0.45" d="M178.882 65.3632L179.698 64.17C178.882 63.4793 177.94 63.0397 176.872 62.7885L176.433 64.17C175.868 64.0444 175.303 63.9816 174.675 64.0444L174.423 62.6001C173.921 62.6629 173.419 62.7885 172.853 62.9141C172.351 63.1025 171.849 63.2909 171.409 63.6049L172.037 64.9236C171.535 65.2376 171.095 65.6144 170.718 66.054L169.525 65.2376C168.834 66.054 168.395 66.9959 168.144 68.0635L169.525 68.5031C169.4 69.0682 169.337 69.6334 169.4 70.2614L167.955 70.5126C168.018 71.015 168.144 71.5173 168.269 72.0197C168.458 72.5221 168.646 73.0245 168.96 73.4641L170.279 72.8361C170.593 73.3385 170.969 73.7781 171.409 74.1548L170.593 75.348C171.409 76.0388 172.351 76.4783 173.419 76.7295L173.858 75.348C174.423 75.4736 174.989 75.5364 175.616 75.4736L175.868 76.9179C176.37 76.8551 176.872 76.7295 177.438 76.6039C177.94 76.4156 178.442 76.2272 178.882 75.9132L178.254 74.5944C178.756 74.2804 179.196 73.9037 179.573 73.4641L180.766 74.2804C181.457 73.4641 181.896 72.5221 182.147 71.4545L180.766 71.015C180.891 70.4498 180.954 69.8846 180.891 69.2566L182.336 69.0054C182.273 68.5031 182.147 68.0007 182.022 67.4355C181.833 66.9331 181.645 66.4307 181.331 65.9912L180.012 66.6191C179.761 66.1796 179.322 65.74 178.882 65.3632ZM176.37 73.1501C174.486 73.7781 172.414 72.7733 171.786 70.8266C171.158 68.9426 172.163 66.8703 174.109 66.2424C175.993 65.6144 178.066 66.6191 178.694 68.5659C179.322 70.4498 178.254 72.5221 176.37 73.1501Z" fill="#755DC1"/>
<path opacity="0.45" d="M193.577 52.2386L194.142 51.4222C193.577 50.9827 192.949 50.6687 192.258 50.4803L191.944 51.4222C191.567 51.3594 191.19 51.2966 190.751 51.3594L190.562 50.4175C190.186 50.4803 189.872 50.5431 189.495 50.6687C189.181 50.7943 188.804 50.9199 188.553 51.1083L188.992 51.9874C188.678 52.1758 188.364 52.4898 188.113 52.741L187.297 52.1758C186.857 52.741 186.543 53.369 186.355 54.0597L187.297 54.3737C187.234 54.7505 187.171 55.1273 187.234 55.5669L186.292 55.7553C186.355 56.1321 186.418 56.446 186.543 56.8228C186.669 57.1368 186.794 57.5136 186.983 57.7648L187.862 57.3252C188.05 57.6392 188.364 57.9532 188.616 58.2044L188.05 59.0207C188.616 59.4603 189.244 59.7743 189.934 59.9627L190.248 59.0207C190.625 59.0835 191.002 59.1463 191.442 59.0835L191.63 60.0255C192.007 59.9627 192.321 59.8999 192.697 59.7743C193.011 59.6487 193.388 59.5231 193.639 59.3347L193.2 58.4556C193.514 58.2672 193.828 57.9532 194.079 57.702L194.895 58.2672C195.335 57.702 195.649 57.074 195.837 56.3832L194.895 56.0693C194.958 55.6925 195.021 55.3157 194.958 54.8761L195.9 54.6877C195.837 54.3109 195.775 53.9969 195.649 53.6202C195.523 53.3062 195.398 52.9294 195.209 52.6782L194.33 53.1178C194.142 52.8038 193.891 52.4898 193.577 52.2386ZM191.881 57.5764C190.562 58.016 189.181 57.3252 188.741 56.0065C188.302 54.6877 188.992 53.3062 190.311 52.8666C191.63 52.427 193.011 53.1178 193.451 54.4365C193.891 55.6925 193.2 57.1368 191.881 57.5764Z" fill="#755DC1"/>
<path opacity="0.45" d="M269.499 111.959L270.315 110.766C269.499 110.075 268.494 109.573 267.426 109.322L266.987 110.703C266.422 110.578 265.794 110.515 265.229 110.578L264.977 109.133C264.475 109.196 263.91 109.322 263.407 109.447C262.905 109.636 262.403 109.824 261.963 110.138L262.654 111.457C262.152 111.771 261.712 112.148 261.335 112.65L260.142 111.834C259.451 112.65 258.949 113.655 258.698 114.722L260.079 115.162C259.954 115.727 259.891 116.355 259.954 116.92L258.509 117.171C258.572 117.674 258.698 118.239 258.823 118.741C259.012 119.244 259.2 119.746 259.514 120.186L260.833 119.495C261.147 119.997 261.524 120.437 262.026 120.814L261.21 122.007C262.026 122.698 263.031 123.2 264.098 123.451L264.538 122.07C265.103 122.195 265.731 122.258 266.296 122.195L266.547 123.64C267.05 123.577 267.615 123.451 268.117 123.326C268.62 123.137 269.122 122.949 269.562 122.635L268.871 121.316C269.373 121.002 269.813 120.625 270.19 120.123L271.383 120.939C272.074 120.123 272.576 119.118 272.827 118.051L271.446 117.611C271.571 117.046 271.634 116.418 271.571 115.853L273.015 115.601C272.953 115.099 272.827 114.534 272.701 114.032C272.576 113.529 272.325 113.027 272.011 112.587L270.692 113.278C270.315 112.776 269.938 112.336 269.499 111.959ZM266.924 119.934C264.977 120.562 262.842 119.558 262.214 117.611C261.586 115.664 262.591 113.529 264.538 112.901C266.485 112.273 268.62 113.278 269.248 115.225C269.938 117.171 268.871 119.306 266.924 119.934Z" fill="#755DC1"/>
<path d="M251.978 70.45H251.287V69.7592C251.287 69.6336 251.225 69.5708 251.099 69.5708C250.973 69.5708 250.911 69.6336 250.911 69.7592V70.45H250.22C250.094 70.45 250.031 70.5128 250.031 70.6384C250.031 70.764 250.094 70.8268 250.22 70.8268H250.911V71.5175C250.911 71.6431 250.973 71.7059 251.099 71.7059C251.225 71.7059 251.287 71.6431 251.287 71.5175V70.8268H251.978C252.104 70.8268 252.167 70.764 252.167 70.6384C252.167 70.5128 252.041 70.45 251.978 70.45Z" fill="#CFEFFE"/>
<path d="M255.934 102.539H255.244V101.849C255.244 101.723 255.181 101.66 255.055 101.66C254.93 101.66 254.867 101.723 254.867 101.849V102.539H254.176C254.051 102.539 253.988 102.602 253.988 102.728C253.988 102.853 254.051 102.916 254.176 102.916H254.867V103.607C254.867 103.732 254.93 103.795 255.055 103.795C255.181 103.795 255.244 103.732 255.244 103.607V102.916H255.934C256.06 102.916 256.123 102.853 256.123 102.728C256.123 102.602 256.06 102.539 255.934 102.539Z" fill="#CFEFFE"/>
<path d="M248.148 61.6585H247.457V60.9677C247.457 60.8421 247.394 60.7793 247.268 60.7793C247.143 60.7793 247.08 60.8421 247.08 60.9677V61.6585H246.389C246.264 61.6585 246.201 61.7213 246.201 61.8469C246.201 61.9725 246.264 62.0352 246.389 62.0352H247.08V62.726C247.08 62.8516 247.143 62.9144 247.268 62.9144C247.394 62.9144 247.457 62.8516 247.457 62.726V62.0352H248.148C248.273 62.0352 248.336 61.9725 248.336 61.8469C248.336 61.7213 248.273 61.6585 248.148 61.6585Z" fill="#CFEFFE"/>
<path d="M193.011 74.5317H192.383V73.9037C192.383 73.7781 192.321 73.7153 192.195 73.7153C192.069 73.7153 192.007 73.7781 192.007 73.9037V74.5317H191.379C191.253 74.5317 191.19 74.5945 191.19 74.7201C191.19 74.8457 191.253 74.9085 191.379 74.9085H192.007V75.5365C192.007 75.6621 192.069 75.7249 192.195 75.7249C192.321 75.7249 192.383 75.6621 192.383 75.5365V74.9085H193.011C193.137 74.9085 193.2 74.8457 193.2 74.7201C193.2 74.6573 193.137 74.5317 193.011 74.5317Z" fill="#CFEFFE"/>
<path d="M267.803 90.4825H266.422V89.1009C266.422 88.9125 266.233 88.7241 266.045 88.7241C265.856 88.7241 265.668 88.9125 265.668 89.1009V90.4825H264.287C264.098 90.4825 263.91 90.6709 263.91 90.8592C263.91 91.0476 264.098 91.236 264.287 91.236H265.668V92.6176C265.668 92.806 265.856 92.9944 266.045 92.9944C266.233 92.9944 266.422 92.806 266.422 92.6176V91.236H267.803C267.992 91.236 268.18 91.0476 268.18 90.8592C268.18 90.6709 267.992 90.4825 267.803 90.4825Z" fill="#CFEFFE"/>
<path d="M187.862 65.0494H187.36V64.547C187.36 64.4842 187.297 64.4214 187.234 64.4214C187.171 64.4214 187.108 64.4842 187.108 64.547V65.0494H186.606C186.543 65.0494 186.48 65.1122 186.48 65.175C186.48 65.2378 186.543 65.3006 186.606 65.3006H187.108V65.8029C187.108 65.8657 187.171 65.9285 187.234 65.9285C187.297 65.9285 187.36 65.8657 187.36 65.8029V65.3633H187.862C187.925 65.3633 187.988 65.3006 187.988 65.2378C187.988 65.1122 187.925 65.0494 187.862 65.0494Z" fill="#CFEFFE"/>
<path d="M201.615 77.7342C201.615 78.0482 201.363 78.2366 201.112 78.2366C200.798 78.2366 200.61 77.9854 200.61 77.7342C200.61 77.483 200.861 77.2319 201.112 77.2319C201.363 77.1691 201.615 77.4202 201.615 77.7342Z" stroke="#9DDBF4" stroke-width="0.4439" stroke-miterlimit="10"/>
<path d="M200.61 107.752C200.887 107.752 201.112 107.527 201.112 107.249C201.112 106.972 200.887 106.747 200.61 106.747C200.332 106.747 200.107 106.972 200.107 107.249C200.107 107.527 200.332 107.752 200.61 107.752Z" fill="#CFEFFE"/>
<path d="M186.48 93.5593C186.48 94.1244 185.978 94.6268 185.413 94.6268C184.848 94.6268 184.345 94.1244 184.345 93.5593C184.345 92.9941 184.848 92.4917 185.413 92.4917C185.978 92.4917 186.48 92.9941 186.48 93.5593Z" stroke="#CFEFFE" stroke-miterlimit="10"/>
<path d="M213.232 57.0111C213.232 57.3251 212.981 57.5135 212.73 57.5135C212.416 57.5135 212.227 57.2623 212.227 57.0111C212.227 56.6971 212.479 56.5087 212.73 56.5087C212.981 56.4459 213.232 56.6971 213.232 57.0111Z" stroke="#9DDBF4" stroke-width="0.4439" stroke-miterlimit="10"/>
<path d="M249.027 88.724C249.027 89.1008 248.713 89.4147 248.336 89.4147C247.959 89.4147 247.645 89.1008 247.645 88.724C247.645 88.3472 247.959 88.0332 248.336 88.0332C248.713 88.0332 249.027 88.3472 249.027 88.724Z" stroke="#CFEFFE" stroke-width="0.5" stroke-miterlimit="10"/>
<path d="M184.157 104.172C184.031 104.235 183.906 104.235 183.78 104.298" stroke="#67CAE8" stroke-width="0.4439" stroke-miterlimit="10"/>
<path d="M182.901 104.486C180.201 105.365 176.558 107.124 178.128 109.824C180.326 113.78 186.355 113.404 190.185 113.466C199.479 113.592 208.711 112.65 218.005 112.964C224.473 113.215 233.013 119.872 234.018 126.465" stroke="#67CAE8" stroke-width="0.4439" stroke-miterlimit="10" stroke-dasharray="1.33 1.33"/>
<path d="M234.018 126.968C234.018 127.093 234.018 127.219 234.081 127.407" stroke="#67CAE8" stroke-width="0.4439" stroke-miterlimit="10"/>
<path d="M207.957 75.1598C201.552 83.9514 197.03 94.8154 196.465 94.8154C195.084 94.7526 194.33 77.9228 197.282 71.0779C199.856 65.0494 205.006 61.9095 207.015 61.8467C208.46 61.8467 207.957 75.1598 207.957 75.1598Z" fill="#FFC064"/>
<path d="M204.692 62.6001C203.687 63.1653 202.494 63.9816 201.301 65.112C201.301 65.3004 200.547 74.092 203.122 82.5069C204.503 80.1834 206.01 77.7343 207.706 75.4108L204.692 62.6001Z" fill="#F4AA4A"/>
<path d="M229.246 75.1598C235.651 83.9514 240.172 94.8154 240.737 94.8154C242.119 94.7526 242.873 77.9228 239.921 71.0779C237.346 65.0494 232.197 61.9095 230.187 61.8467C228.743 61.8467 229.246 75.1598 229.246 75.1598Z" fill="#FFC064"/>
<path d="M232.448 62.6001C233.453 63.1653 234.646 63.9816 235.839 65.112C235.839 65.3004 236.593 74.092 234.018 82.5069C232.637 80.1834 231.129 77.7343 229.434 75.4108L232.448 62.6001Z" fill="#F4AA4A"/>
<path d="M227.676 82.8839C227.864 82.8211 228.052 82.6327 228.178 82.3815C230.25 77.6717 231.506 70.6384 231.506 60.7164C231.506 39.4908 219.951 26.1777 218.633 26.1777C217.314 26.1777 205.759 39.4908 205.759 60.7164C205.759 70.5756 207.015 77.6717 209.088 82.3815C209.213 82.6327 209.339 82.8211 209.59 82.8839C210.595 83.3235 213.923 84.5166 218.696 84.5166C223.343 84.5166 226.671 83.3235 227.676 82.8839Z" fill="#B0D9EF"/>
<path d="M228.869 81.1881C229.057 81.1253 229.246 80.9369 229.371 80.7485C231.695 76.5411 233.076 70.3241 233.076 61.5325C233.076 42.6932 220.014 19.3325 218.507 19.3325C217 19.3325 203.938 42.6932 203.938 61.5325C203.938 70.3241 205.32 76.5411 207.643 80.7485C207.769 80.9369 207.957 81.1253 208.146 81.1881C209.276 81.5649 212.981 82.6952 218.444 82.6952C224.033 82.6952 227.801 81.5649 228.869 81.1881Z" fill="#FF7517"/>
<path d="M230.815 78.3626C233.579 73.2132 235.337 65.4263 235.337 54.374C235.337 31.2645 220.328 14.4976 218.633 14.4976C216.937 14.4976 201.929 31.2645 201.929 54.374C201.929 65.4263 203.624 73.2132 206.45 78.3626C206.45 78.3626 211.097 80.3094 218.696 80.3094C226.106 80.3094 230.815 78.3626 230.815 78.3626Z" fill="#7762EF"/>
<path d="M218.193 51.1085C224.02 51.1085 228.743 46.3289 228.743 40.4329C228.743 34.5369 224.02 29.7573 218.193 29.7573C212.367 29.7573 207.643 34.5369 207.643 40.4329C207.643 46.3289 212.367 51.1085 218.193 51.1085Z" fill="#FF9A15"/>
<path d="M226.294 40.4327C226.294 44.9541 222.652 48.6592 218.193 48.6592C217.565 48.6592 217 48.5964 216.498 48.4708C215.618 48.2824 214.739 47.9056 213.986 47.466C212.667 46.6497 211.599 45.5193 210.971 44.1378C210.406 43.0074 210.092 41.8143 210.092 40.4955C210.092 40.1815 210.092 39.9303 210.155 39.6164C210.532 35.7857 213.546 32.7086 217.377 32.3318C217.691 32.3318 217.942 32.269 218.256 32.269C219.575 32.269 220.831 32.583 221.898 33.1482C223.28 33.839 224.41 34.9065 225.164 36.2253C225.666 36.9789 225.98 37.858 226.168 38.7372C226.231 39.2396 226.294 39.8047 226.294 40.4327Z" fill="#7762EF"/>
<path d="M218.193 33.0225C214.174 33.0225 210.909 36.3507 210.909 40.4326C210.909 44.5144 214.174 47.8427 218.193 47.8427C222.212 47.8427 225.478 44.5144 225.478 40.4326C225.478 36.3507 222.212 33.0225 218.193 33.0225Z" fill="#B0D9EF"/>
<path d="M219.072 63.1025C217.565 63.1025 213.923 72.3338 214.488 74.5317C214.488 74.5317 218.005 97.7668 219.072 97.7668C220.14 97.7668 223.657 74.5317 223.657 74.5317C224.222 72.271 220.579 63.1025 219.072 63.1025Z" fill="#F4AA4A"/>
<path d="M219.072 63.1025C217.565 63.1025 213.923 72.3338 214.488 74.5317C214.488 74.5317 218.005 91.173 219.072 91.173C220.14 91.173 223.657 74.5317 223.657 74.5317C224.222 72.271 220.579 63.1025 219.072 63.1025Z" fill="#FFC064"/>
<mask id="mask1" mask-type="alpha" maskUnits="userSpaceOnUse" x="210" y="33" width="16" height="15">
<path d="M218.193 33.0225C214.174 33.0225 210.909 36.3507 210.909 40.4326C210.909 44.5144 214.174 47.8427 218.193 47.8427C222.212 47.8427 225.478 44.5144 225.478 40.4326C225.478 36.3507 222.212 33.0225 218.193 33.0225Z" fill="#B0D9EF"/>
</mask>
<g mask="url(#mask1)">
<path d="M226.922 27.873H223.908L209.904 52.9921H212.918L226.922 27.873Z" fill="white"/>
<path d="M230.564 27.873H228.994L214.928 52.9921H216.56L230.564 27.873Z" fill="white"/>
</g>
<path opacity="0.31" d="M218.57 14.4976C220.265 14.4976 228.555 31.2645 228.555 54.374C228.555 65.1752 226.671 74.7832 223.97 79.9954C228.304 79.4302 230.815 78.3626 230.815 78.3626C233.579 73.2132 235.337 65.4263 235.337 54.374C235.274 31.2645 220.265 14.4976 218.57 14.4976Z" fill="#5F52DD"/>
<path d="M152.937 89.5935C152.937 89.5935 153.314 86.8304 154.444 85.8257C155.951 84.5069 159.154 84.8837 160.41 86.1396C161.791 87.5212 162.482 90.3471 161.352 92.4194C163.612 93.7381 163.487 96.6896 161.603 96.9408L162.294 100.457C162.733 102.655 161.163 104.728 158.84 105.23L154.632 106.109C154.632 106.109 147.411 105.418 146.845 101.839C146.28 98.2596 149.608 96.6268 149.608 96.6268C149.608 96.6268 148.039 93.6125 149.671 91.5402C151.304 89.4051 152.937 89.5935 152.937 89.5935Z" fill="#2C1E56"/>
<path d="M163.236 100.081C163.236 100.081 169.767 101.086 171.525 101.023C172.906 101.086 175.167 93.5499 175.355 93.0475C176.486 92.3567 176.737 91.4148 176.737 90.9124C176.737 90.41 175.293 89.9704 175.167 90.2216C175.418 89.5308 175.481 89.3425 175.544 89.0913C175.669 88.5889 175.293 88.2121 174.79 90.096C174.288 91.9172 174.288 91.6032 174.162 92.2939C173.283 93.9895 171.022 97.8829 170.897 98.4481C168.008 98.3853 163.047 97.2549 163.047 97.2549L163.236 100.081Z" fill="#ED9C80"/>
<path d="M153.314 100.144C153.314 100.144 148.227 104.288 146.783 105.167C145.715 105.984 139.059 101.023 138.619 100.709C137.3 100.772 136.735 100.269 136.421 99.8296C136.107 99.39 136.923 98.2596 137.237 98.3852C136.609 97.9456 136.421 97.82 136.233 97.6317C135.793 97.3177 135.856 96.8153 137.489 98.0084C139.121 99.2016 138.87 98.9504 139.373 99.4528C141.131 100.332 145.464 102.216 145.966 102.593C148.29 100.96 151.492 97.3177 151.492 97.3177L153.314 100.144Z" fill="#ED9C80"/>
<path d="M161.038 145.295C161.038 145.295 161.352 146.488 161.289 147.493C161.163 148.183 161.289 148.372 161.289 148.372L164.052 148.183C164.052 148.183 162.859 147.618 162.922 145.044C162.984 142.343 161.038 145.295 161.038 145.295Z" fill="#ED9C80"/>
<path d="M161.289 147.681C161.289 147.681 162.482 148.121 163.675 147.807C165.057 148.372 166.061 148.623 167.317 148.812C168.573 148.937 168.385 149.942 166.187 149.816C163.989 149.691 162.545 149.754 162.042 149.816C161.54 149.879 160.786 149.942 160.786 149.628C160.724 149.188 160.849 147.556 161.289 147.681Z" fill="#2C1E56"/>
<path d="M162.105 111.573C162.105 111.573 163.864 127.523 163.989 129.596C164.115 131.668 164.115 132.422 163.989 133.678C163.864 134.933 164.805 145.609 164.805 145.609C164.805 145.609 160.661 146.551 159.656 145.735C159.656 145.735 159.844 134.117 159.279 132.17C158.777 130.161 156.705 120.113 156.705 120.113L159.091 109.814L162.105 111.573Z" fill="#5B4DE2"/>
<path d="M153.251 126.833C153.251 126.833 152.937 130.224 152.246 130.852C151.806 131.856 151.806 131.856 152.497 132.296C153.502 132.924 155.512 134.117 156.014 133.615C157.898 131.731 157.961 131.103 158.4 128.654C158.526 128.089 161.163 112.012 161.163 112.012C161.163 112.012 152.811 110.819 152.748 113.143C152.811 115.403 153.69 124.195 153.251 126.833Z" fill="#7762EF"/>
<path d="M142.952 141.15C142.952 141.15 142.073 142.092 141.256 142.658C140.629 142.972 140.503 143.16 140.503 143.16L142.387 145.044C142.387 145.044 142.136 143.788 144.459 142.281C146.72 140.836 142.952 141.15 142.952 141.15Z" fill="#ED9C80"/>
<path d="M141.068 142.783C141.068 142.783 141.445 143.913 142.45 144.604C142.764 145.985 143.203 146.865 143.831 147.869C144.459 148.874 143.517 149.314 142.324 147.618C141.131 145.923 140.126 144.918 139.812 144.604C139.498 144.29 138.996 143.725 139.184 143.536C139.373 143.285 140.88 142.469 141.068 142.783Z" fill="#2C1E56"/>
<path d="M152.623 130.349C148.981 134.933 142.764 138.324 141.005 141.025C140.691 141.841 144.773 144.039 144.773 144.039C144.773 144.039 153.188 136.378 154.946 134.745C155.637 134.117 156.265 133.552 156.83 132.861C155.135 132.296 153.628 129.093 152.623 130.349Z" fill="#7762EF"/>
<path d="M160.41 102.278C160.158 102.844 162.042 110.882 162.356 112.703C162.356 112.703 162.294 112.703 162.231 112.703C161.414 112.577 156.391 111.949 152.372 113.582L151.995 102.278V101.839C151.995 101.839 151.995 101.399 152.058 100.771C152.12 99.4526 152.434 97.1291 153.314 95.6847C153.753 94.9311 154.381 94.366 155.135 94.3032C157.647 94.052 157.647 95.0567 159.97 95.6847L163.738 96.6267C163.738 96.6267 163.298 99.5782 163.738 100.457H161.1C161.163 100.457 160.661 101.713 160.41 102.278Z" fill="#FFC064"/>
<path d="M159.782 87.1445C159.782 87.1445 161.352 90.8496 160.159 92.5451C159.279 93.8011 157.647 93.8639 157.647 93.8639V95.685C157.647 95.685 157.458 95.8734 157.144 95.8734C156.579 95.8734 155.135 94.9942 155.135 94.9942V87.8353L159.782 87.1445Z" fill="#ED9C80"/>
<path d="M153.879 100.395C153 101.274 152.434 101.902 152.058 102.279V101.839C152.058 101.839 152.058 97.8828 153.314 95.6849C153.502 95.6221 153.753 95.6221 153.879 95.6221C155.888 95.7477 155.763 98.5108 153.879 100.395Z" fill="#F4AA4A"/>
<path d="M163.738 100.458C163.738 100.458 161.98 100.395 161.728 100.081C161.54 99.7668 160.849 98.2597 159.719 97.7573C159.719 97.7573 161.226 99.2645 161.038 100.52H163.738V100.458Z" fill="#F4AA4A"/>
<path d="M162.294 112.64C161.477 112.514 156.453 111.886 152.434 113.519L152.058 102.216V101.776C152.058 101.776 152.058 101.336 152.12 100.708L153.062 101.022C153.062 101.022 153.062 110.944 153.565 111.51C154.067 112.138 158.4 111.635 159.531 111.824C160.347 112.012 161.666 112.452 162.294 112.64Z" fill="#F4AA4A"/>
<path d="M148.604 99.2643C148.604 99.2643 151.869 95.0568 153.879 95.1824C155.888 95.308 155.763 98.0083 153.879 99.9551C151.995 101.839 151.367 102.593 151.367 102.593C151.367 102.593 149.043 101.462 148.604 99.2643Z" fill="#FFC064"/>
<path d="M159.907 86.7676C159.907 86.7676 159.154 90.0958 157.395 90.975C155.637 91.8542 156.956 93.9893 155.323 95.622C154.821 96.1244 154.13 95.9988 153.565 95.8732C152.748 95.622 151.869 95.8104 151.304 96.3756C151.241 96.4384 151.178 96.5012 151.178 96.564C149.043 95.1197 154.444 87.27 154.444 87.27L159.907 86.7676Z" fill="#2C1E56"/>
<path d="M295.497 125.209C294.178 120.688 295.183 115.727 296.69 111.268C297.067 110.2 297.506 109.07 298.323 108.317C298.762 107.877 299.327 107.563 299.893 107.689C300.709 107.877 301.086 108.882 301.149 109.698C301.714 115.036 298.197 119.997 297.318 125.272" fill="#A8D46B"/>
<path d="M291.729 122.949C291.478 121.567 291.101 120.248 290.473 119.055C289.845 117.862 288.903 116.732 287.647 116.104C287.082 115.79 286.391 115.664 285.952 116.041C285.449 116.481 285.638 117.297 285.889 117.925C287.521 121.19 291.666 122.697 293.236 126.026" fill="#BDD0FF"/>
<path d="M293.676 125.649C292.671 123.702 291.666 121.756 291.101 119.683C290.536 117.548 290.41 115.287 291.101 113.215C291.289 112.587 291.855 111.834 292.483 112.085C292.734 112.148 292.859 112.336 293.048 112.587C294.241 114.157 294.68 116.167 294.932 118.05C295.12 119.997 295.183 121.944 295.56 123.891C295.622 124.205 295.685 124.456 295.874 124.707C296.062 124.895 296.439 125.021 296.69 124.833C296.816 124.707 296.878 124.581 296.941 124.393C297.192 123.514 301.463 114.785 305.23 114.157C305.544 114.094 305.858 114.094 306.172 114.094C310.945 114.911 300.144 124.895 300.081 126.403C303.974 123.074 304.791 122.446 306.612 122.132C307.993 121.881 310.38 123.074 309.563 124.77C308.998 125.9 307.68 126.465 306.424 126.717C305.042 126.968 303.66 127.093 302.279 127.47C300.96 127.847 299.579 128.6 298.951 129.794" fill="#A8D46B"/>
<path d="M304.414 127.282C303.661 127.282 302.97 127.407 302.342 127.659C302.153 122.195 297.695 117.799 292.231 117.799C286.642 117.799 282.121 122.321 282.121 127.91C282.121 128.161 282.121 128.412 282.121 128.663C281.116 127.031 279.358 125.9 277.286 125.9C274.208 125.9 271.697 128.412 271.697 131.489C271.697 131.929 271.759 132.368 271.822 132.745C271.257 132.431 270.566 132.243 269.875 132.243C267.678 132.243 265.856 134.064 265.856 136.262C265.856 138.46 267.678 140.281 269.875 140.281C272.073 140.281 301.588 140.281 304.477 140.281C308.119 140.281 311.008 137.329 311.008 133.75C311.008 130.17 308.056 127.282 304.414 127.282Z" fill="white"/>
<path d="M347.783 105.458C347.972 105.395 347.783 105.144 347.595 105.144C347.595 105.144 347.532 105.144 347.469 105.144C347.783 105.081 348.097 105.018 348.16 104.955C348.348 104.892 348.223 104.641 348.034 104.641C348.16 104.578 348.286 104.578 348.286 104.578C348.537 104.453 348.348 104.264 348.097 104.264C348.034 104.264 347.909 104.264 347.72 104.327C347.783 104.327 347.909 104.264 347.909 104.264C348.097 104.202 347.972 103.95 347.783 103.95C347.72 103.95 347.595 103.95 347.344 104.013C347.155 104.013 346.904 104.076 346.653 104.076C346.464 104.076 345.522 104.139 345.271 103.699C344.957 103.071 346.213 103.134 346.339 102.632C346.402 102.443 345.397 102.569 344.894 102.695C344.392 102.82 344.141 102.883 343.827 103.009C343.513 103.134 343.136 103.448 342.948 103.448C342.759 103.448 342.194 103.385 342.194 103.385L342.006 105.144C342.006 105.144 343.073 105.206 343.325 105.332C344.015 105.709 344.643 105.897 345.397 105.897C345.899 105.897 346.339 105.772 346.841 105.709C347.092 105.646 347.72 105.458 347.783 105.458Z" fill="#F1584D"/>
<path d="M320.655 142.32C320.655 142.32 321.722 143.827 322.162 144.266C322.664 144.706 324.234 143.324 324.171 142.885C324.108 142.445 322.162 140.185 322.162 140.185" fill="#F1584D"/>
<path d="M324.988 142.885C325.427 143.388 326.244 144.392 326.244 144.392L324.925 146.088L324.485 145.962C324.485 145.962 324.36 146.716 323.983 147.218C323.669 147.595 322.978 148.286 322.539 148.6C321.094 149.542 319.838 149.856 319.65 149.667C318.771 148.977 320.655 147.658 320.969 147.344C321.911 146.465 322.036 145.146 321.785 144.392C321.597 143.89 321.471 143.827 321.722 143.764C321.722 143.764 321.911 143.639 322.287 143.764C322.79 143.953 323.355 143.827 323.669 143.388C323.857 143.136 323.983 142.885 323.983 142.571C324.046 142.571 324.548 142.383 324.988 142.885Z" fill="#3A3A3A"/>
<path d="M294.405 143.702C294.405 143.702 293.903 145.46 293.903 146.088C293.84 146.716 295.912 147.093 296.226 146.779C296.54 146.465 297.043 143.513 297.043 143.513" fill="#F1584D"/>
<path d="M296.666 147.406C296.603 148.097 296.289 149.353 296.289 149.353L294.154 149.416L293.966 148.976C293.966 148.976 293.275 149.353 292.647 149.353C292.145 149.353 291.203 149.228 290.7 149.102C289.067 148.6 288 147.846 288 147.532C288 146.402 290.198 147.03 290.637 147.092C291.956 147.281 293.024 146.527 293.463 145.899C293.777 145.46 293.652 145.334 293.903 145.46C293.903 145.46 294.154 145.523 294.28 145.899C294.468 146.402 294.908 146.778 295.41 146.716C295.724 146.716 296.038 146.653 296.289 146.464C296.289 146.464 296.729 146.716 296.666 147.406Z" fill="#3A3A3A"/>
<path d="M303.762 106.211C303.762 106.211 297.734 121.471 297.043 124.799C296.289 128.065 293.463 144.644 293.463 144.644C293.463 144.644 296.101 145.397 297.043 145.083C297.734 142.383 304.516 121.346 308.911 115.694C313.37 110.042 303.762 106.211 303.762 106.211Z" fill="#34213D"/>
<path d="M307.97 114.689C307.97 114.689 306.588 122.099 311.172 129.635C315.756 137.17 320.466 142.822 320.466 142.822C320.466 142.822 322.413 141.88 323.167 140.813C321.785 138.929 315.568 128.128 315.568 123.92C315.568 119.713 317.201 109.728 317.201 109.728L310.23 108.095L307.97 114.689Z" fill="#34213D"/>
<path d="M342.32 105.081C342.32 105.081 334.407 105.458 330.388 104.328C326.306 103.197 319.399 98.2361 319.399 98.2361L311.235 91.9564C309.163 89.3189 306.462 81.9088 306.086 80.5272C305.646 79.1457 304.202 69.9145 304.202 69.9145L305.96 69.7261C305.96 69.7261 307.969 76.3198 308.974 80.0249C309.916 83.4787 315.254 88.2513 316.573 89.4445C316.636 89.5073 316.761 89.5701 316.761 89.6329C317.578 90.3237 316.95 91.6424 316.95 91.6424L318.331 92.1448C318.331 92.1448 319.838 91.3912 320.78 92.2076C320.843 92.2704 320.969 92.396 321.094 92.5216C322.35 93.9031 325.49 98.8641 331.833 101.376C336.48 102.506 341.566 103.323 342.822 103.386C342.383 104.579 342.32 105.081 342.32 105.081Z" fill="#F1584D"/>
<path d="M320.969 92.5216C320.717 92.9612 319.022 94.0915 317.578 93.5263C314.689 92.2076 316.322 89.5701 316.447 89.4445C316.51 89.5073 316.636 89.5701 316.636 89.6329C317.452 90.3237 318.017 88.6909 318.017 88.6909L320.906 90.2609C320.906 90.2609 319.65 91.3912 320.592 92.2076C320.717 92.3332 320.843 92.396 320.969 92.5216Z" fill="#F1584D"/>
<path d="M321.22 101.501C321.22 101.501 318.645 107.404 317.64 111.423C310.544 113.119 305.834 109.854 303.762 107.718C302.883 106.839 302.443 106.211 302.443 106.211C302.443 106.211 304.39 102.757 305.52 100.183C306.651 97.608 308.409 94.217 309.665 91.9562C309.728 91.5795 308.598 89.8211 307.404 87.2464C309.037 86.6185 311.549 83.981 311.549 83.981L316.384 89.4443C316.384 89.4443 314.94 91.8307 316.824 93.1494C318.708 94.4053 319.964 93.3378 320.906 92.5214C321.659 93.589 325.741 97.2312 328.19 98.9268L324.988 104.265C325.05 104.327 322.225 102.695 321.22 101.501Z" fill="#7762EF"/>
<path d="M319.964 81.2808C319.524 81.218 319.085 81.3436 318.833 81.6576C318.582 81.9716 318.457 82.4112 318.582 82.8508C318.268 82.6624 317.829 82.9136 317.703 83.2276C317.578 83.5416 317.578 83.9183 317.64 84.2951C317.703 84.7347 317.829 85.1743 318.206 85.3627C318.457 85.5511 318.771 85.5511 319.085 85.4883C319.273 85.4255 319.524 85.3627 319.65 85.2371C319.838 85.1115 320.027 84.9231 320.152 84.6719C320.655 83.9811 321.22 83.2904 321.722 82.5996C321.848 82.474 321.911 82.2856 321.911 82.0972" fill="#F2A04D"/>
<path d="M323.794 89.193C323.355 89.5698 322.978 90.0094 322.476 90.3234C321.785 90.8258 321.094 90.9514 320.278 90.5746C319.399 90.135 318.457 89.6954 317.703 89.0047C316.887 88.2511 316.761 87.6231 317.201 86.5556C317.452 85.9276 317.766 85.2996 318.017 84.6716C318.645 83.3529 319.336 82.0341 320.152 80.841C320.341 80.527 320.529 80.1502 320.969 80.3386C322.225 80.9038 323.481 81.5318 324.674 82.3481C325.49 82.9133 326.306 83.5413 326.683 84.4832C326.997 85.4252 326.809 86.43 326.62 87.4347C326.558 87.5603 326.495 87.8115 326.369 87.8115" fill="#F1584D"/>
<path d="M323.669 87.121C323.92 86.8698 324.36 87.121 324.422 87.4978C324.485 87.8118 324.297 88.1886 324.171 88.4397C323.983 88.8165 323.543 89.0677 323.167 89.2561C322.79 89.4445 322.413 89.4445 322.287 89.0049C321.911 89.5073 322.099 90.1981 322.476 90.4493C322.853 90.7004 323.355 90.7004 323.669 90.3865C324.862 91.9564 326.809 90.0097 327.625 88.8793C328.253 88.0002 328.63 86.7442 328.63 85.6766C328.63 85.1115 328.442 84.4835 328.002 84.1067C328.316 83.4787 328.19 82.7252 327.876 82.0972C327.562 81.4692 327.186 81.0924 326.683 80.5901C326.369 80.2761 325.239 79.9621 324.862 80.2133C324.422 79.3969 323.606 79.3969 323.041 79.1457C322.476 78.8945 321.534 79.0201 321.471 79.6481C320.78 78.8945 319.273 79.2713 319.022 80.2761C318.771 81.2808 319.775 82.3484 320.78 82.2228C320.655 82.9136 321.094 83.6043 321.722 83.9811C322.35 84.3579 323.041 84.4835 323.795 84.4835C323.418 84.6719 323.104 85.0487 323.041 85.5511C322.978 85.9906 322.915 86.3674 323.543 86.6186C323.543 86.6186 322.978 87.435 323.229 87.435C323.418 87.435 323.669 87.121 323.669 87.121Z" fill="#F2A04D"/>
<path d="M303.008 64.8277C303.071 64.6393 303.322 64.7649 303.385 64.9533C303.385 64.9533 303.385 65.0161 303.385 65.0789C303.385 64.7021 303.448 64.4509 303.448 64.3881C303.511 64.1997 303.762 64.3253 303.825 64.4509C303.825 64.3253 303.825 64.1997 303.888 64.1369C303.95 63.8857 304.202 64.0113 304.264 64.2625C304.264 64.3253 304.264 64.4509 304.264 64.6393C304.264 64.5765 304.264 64.4509 304.264 64.4509C304.327 64.2625 304.578 64.3253 304.578 64.5137C304.578 64.5765 304.578 64.7021 304.578 64.9533C304.578 65.1417 304.578 65.3929 304.578 65.6441C304.578 65.8325 304.704 66.7744 305.144 66.9628C305.834 67.214 305.52 65.958 306.086 65.7697C306.274 65.7069 306.274 66.6488 306.211 67.214C306.148 67.7164 306.148 68.0304 306.023 68.2816C305.96 68.5955 305.709 68.9723 305.709 69.2235C305.709 69.4119 305.834 69.9771 305.834 69.9771L304.139 70.4167C304.139 70.4167 303.95 69.3491 303.762 69.0979C303.322 68.4699 303.008 67.842 302.883 67.0884C302.82 66.586 302.82 66.1464 302.883 65.6441C302.883 65.5185 303.008 64.8905 303.008 64.8277Z" fill="#F1584D"/>
<path opacity="0.31" d="M317.703 111.486C310.607 113.182 305.897 109.916 303.825 107.781C311.235 113.433 316.196 110.858 316.95 110.67C317.138 108.912 320.592 100.748 320.592 100.748C320.592 100.748 321.157 101.439 321.283 101.502C321.22 101.502 318.708 107.405 317.703 111.486Z" fill="#5F52DD"/>
<path d="M128.302 67.8942C128.302 67.7058 127.988 67.7686 127.925 67.957C127.925 67.957 127.925 68.0198 127.862 68.0826C127.862 67.7058 127.925 67.4546 127.862 67.3919C127.862 67.2035 127.611 67.2663 127.485 67.4547C127.485 67.3291 127.485 67.2035 127.485 67.1407C127.485 66.8895 127.171 67.0151 127.108 67.2035C127.108 67.2663 127.046 67.3919 127.046 67.5802C127.046 67.5174 127.046 67.3919 127.046 67.3919C127.046 67.2035 126.794 67.2663 126.732 67.3919C126.732 67.4546 126.669 67.5803 126.669 67.8314C126.669 68.0198 126.606 68.271 126.543 68.4594C126.543 68.6478 126.292 69.5898 125.852 69.6526C125.162 69.7782 125.601 68.585 125.099 68.3338C124.973 68.271 124.785 69.213 124.785 69.7154C124.785 70.2177 124.785 70.5317 124.848 70.8457C124.91 71.1597 125.036 71.5993 125.036 71.7877C124.973 72.1017 124.659 72.7296 124.659 72.7296L126.418 73.1064C126.418 73.1064 126.857 72.1645 127.046 71.9133C127.611 71.3481 127.925 70.7829 128.113 70.0294C128.239 69.5898 128.302 69.0874 128.302 68.585C128.302 68.6478 128.302 67.957 128.302 67.8942Z" fill="#F1584D"/>
<path d="M111.66 82.6517C111.66 82.6517 117.249 82.5889 120.326 79.1978C122.775 75.8067 125.099 72.0389 125.287 71.6621C125.79 71.8505 126.794 72.2901 126.794 72.2901C126.794 72.2901 123.592 79.449 122.336 81.0817C121.08 82.7145 118.631 85.4148 113.419 86.7335C110.907 83.9704 111.66 82.6517 111.66 82.6517Z" fill="#F1584D"/>
<path d="M115.428 146.328C115.428 146.328 115.742 147.082 115.742 147.584C115.742 148.087 114.172 148.15 113.984 147.961C113.795 147.71 113.607 145.449 113.607 145.449" fill="#F1584D"/>
<path d="M113.544 148.401C113.544 148.903 113.733 149.719 113.733 149.719L115.554 149.657L115.617 149.343C115.617 149.343 116.244 149.594 116.684 149.594L118.191 149.531C119.322 149.468 119.95 149.343 119.95 149.091C120.012 148.275 118.694 148.338 118.38 148.401C117.375 148.463 116.307 148.024 116.056 147.522C115.868 147.145 115.93 147.082 115.742 147.145C115.742 147.145 115.554 147.208 115.428 147.396C115.24 147.773 114.926 148.024 114.486 147.961C114.235 147.961 114.047 147.836 113.858 147.71C113.858 147.71 113.544 147.836 113.544 148.401Z" fill="#3A3A3A"/>
<path d="M97.6564 145.135C97.6564 145.135 97.4052 146.454 97.154 146.893C96.9656 147.333 95.4585 146.831 95.3957 146.579C95.3329 146.265 95.9609 144.13 95.9609 144.13" fill="#F1584D"/>
<path d="M94.8933 146.831C94.7049 147.333 94.4537 148.275 94.4537 148.275L95.8353 149.029L96.0865 148.84C96.0865 148.84 96.4005 149.343 96.84 149.594C97.154 149.782 97.8448 150.034 98.2216 150.096C99.4775 150.348 100.42 150.159 100.545 149.971C100.922 149.217 99.2263 148.903 98.9124 148.778C97.9704 148.464 97.5308 147.584 97.468 147.019C97.4052 146.643 97.5308 146.58 97.3424 146.58C97.3424 146.58 97.154 146.58 96.9656 146.705C96.6516 146.956 96.2749 147.082 95.8981 146.894C95.7097 146.768 95.5213 146.643 95.3957 146.391C95.4585 146.329 95.0817 146.329 94.8933 146.831Z" fill="#3A3A3A"/>
<path d="M102.555 112.355C102.555 112.355 99.8543 107.017 103.936 102.873C103.936 102.873 107.641 104.254 110.593 104.317C112.916 104.38 114.047 104.129 114.047 104.129C114.047 104.129 114.737 108.085 114.737 114.302L102.555 112.355Z" fill="#3D38A0"/>
<path d="M113.356 146.705C113.419 146.705 113.481 146.705 113.544 146.705C115.051 146.642 115.93 146.454 115.93 146.454V146.077C115.554 139.86 115.93 129.624 115.93 126.421C115.93 126.17 115.93 125.982 115.868 125.793C115.491 123.47 112.853 123.847 111.849 126.045C111.597 126.547 111.409 127.112 111.283 127.74C111.095 128.494 111.032 129.247 110.969 130.126C110.781 135.527 112.728 142.749 113.356 146.705Z" fill="#3D38A0"/>
<path d="M107.327 114.678C107.327 114.741 107.39 114.804 107.39 114.867C108.081 117.693 110.342 125.291 111.346 127.74C111.472 128.054 111.974 128.368 112.539 128.494C113.858 128.808 115.805 128.243 115.868 125.793C115.868 125.542 115.868 125.228 115.805 124.914C115.554 122.905 114.612 111.978 114.423 110.91C114.298 109.843 113.984 108.336 113.419 108.147C110.404 107.268 106.385 110.722 107.327 114.678Z" fill="#3D38A0"/>
<path d="M110.656 125.856C110.656 125.856 111.283 127.992 111.032 130.127C110.781 132.262 112.037 128.243 112.037 128.243L111.221 126.861L110.656 125.856Z" fill="#594A5F"/>
<path d="M113.544 146.705C113.544 146.705 112.916 140.363 112.1 135.967C111.472 132.576 112.163 129.624 112.539 128.431C112.665 128.054 112.728 127.866 112.728 127.866L111.911 125.982C110.969 123.533 110.718 117.693 110.718 117.693C112.539 113.485 112.602 108.336 112.602 108.336L110.907 108.65L107.955 112.167L107.453 114.804C108.018 117.065 109.588 122.528 110.718 125.794C110.718 125.794 111.346 127.929 111.095 130.064C111.032 130.378 111.032 130.566 111.095 130.629C110.969 135.967 112.791 142.812 113.419 146.705C113.419 146.705 113.481 146.705 113.544 146.705Z" fill="#272789"/>
<path d="M101.864 126.296C103.811 124.412 106.699 125.166 105.506 127.991C104.25 131.006 100.231 139.358 98.096 145.261L97.9704 145.638C97.9704 145.638 97.0284 145.512 95.4585 145.01C96.4005 141.179 96.9656 134.648 99.1008 130.001C99.7287 128.431 100.796 127.238 101.864 126.296Z" fill="#3D38A0"/>
<path d="M112.539 108.399C112.728 104.003 106.95 107.143 104.187 108.713C102.994 109.341 102.617 110.597 102.555 111.727C102.429 112.857 101.424 124.726 101.236 126.924C100.733 131.822 105.255 128.996 105.569 127.615C106.511 124.161 112.414 110.785 112.539 108.399Z" fill="#3D38A0"/>
<path d="M101.487 123.91C101.487 123.91 101.424 126.233 99.4147 129.185C99.4147 129.185 102.806 127.552 102.931 127.364C103.12 127.112 103.622 124.852 103.497 124.6C103.497 124.349 101.487 123.91 101.487 123.91Z" fill="#3D38A0"/>
<path d="M111.786 78.884C111.786 79.2608 111.786 80.6423 111.095 80.9563C110.342 81.2703 109.902 81.4587 109.902 81.5215C109.902 81.5843 109.965 81.8355 110.09 82.0867C110.279 82.6518 110.53 82.7774 110.53 82.7774L110.656 84.5358L109.337 85.8545L108.897 86.2941L108.269 85.6661L106.134 83.7194C106.134 83.7194 107.013 82.6518 106.385 81.4587C106.323 81.2703 105.318 80.2027 104.564 79.1352C104.125 78.5072 103.748 77.8792 103.622 77.3768C103.371 76.1209 103.12 74.8021 103.811 74.0486C104.501 73.295 109.4 70.0295 110.404 73.7974C110.404 73.7974 111.535 75.8697 111.911 76.1837C112.288 76.4977 112.163 76.9373 111.849 77.1257C111.346 77.4396 111.723 78.5072 111.786 78.884Z" fill="#F1584D"/>
<path d="M110.53 84.5356L109.211 85.8544L108.834 86.0428L108.144 85.666L106.008 83.7193C106.008 83.7193 106.888 82.6517 106.26 81.4586C106.197 81.2702 105.192 80.2026 104.439 79.1351L104.376 78.3815C104.376 78.3815 105.883 77.9419 105.946 77.9419C106.008 77.9419 106.699 78.6955 106.699 78.7583C106.699 78.8211 106.574 79.7002 106.574 79.7002C106.574 79.7002 106.762 80.8306 107.013 81.7097C107.139 82.1493 107.578 82.5261 108.081 82.5261C108.395 82.5261 108.709 82.5261 109.023 82.5261C109.525 82.4633 109.839 82.1493 110.028 82.0237C110.216 82.5889 110.467 82.7145 110.467 82.7145L110.53 84.5356Z" fill="#DD423E"/>
<path d="M105.946 77.8164C105.946 77.8164 105.82 80.3911 107.641 81.3958C109.462 82.4634 111.911 81.2703 112.225 80.9563C112.539 80.5795 113.356 78.3816 111.974 77.628C110.593 76.8744 109.337 78.1932 109.337 78.1932C109.337 78.1932 108.583 79.0095 108.269 79.0723C107.955 79.0723 107.139 78.3188 107.013 76.7488C107.013 76.686 107.076 76.5604 107.139 76.5604C107.453 76.4348 108.269 76.0581 107.83 74.4881C107.767 74.3625 107.892 74.2369 108.018 74.2369C108.52 74.1741 109.525 74.0485 109.776 74.0485C109.776 74.0485 109.965 74.0485 110.09 74.0485C110.153 74.0485 110.216 74.1113 110.216 74.1113C110.279 74.2369 110.467 74.5509 110.53 74.6765C110.593 74.8021 111.032 75.4929 111.032 75.4929C111.032 75.4929 111.283 75.3045 111.221 75.0533C111.158 74.8021 110.907 74.1741 110.907 74.0485C110.907 73.9229 111.346 73.7346 111.346 73.4206C111.346 72.667 111.032 69.8411 108.772 71.5994C108.458 71.8506 108.206 72.1018 107.955 72.2274C107.641 72.353 107.202 72.1018 106.448 72.1646C105.38 72.2274 100.922 73.295 102.366 77.2512C103.811 81.2703 106.197 81.8354 106.197 81.8354C106.197 81.8354 105.506 78.3188 105.946 77.8164Z" fill="#2C1E56"/>
<path d="M105.946 77.8162C105.946 77.8162 105.695 77.1254 105.129 77.3138C104.376 77.565 104.439 79.5117 106.134 79.2605C106.134 79.2605 105.946 78.4442 105.946 77.8162Z" fill="#F1584D"/>
<path d="M115.554 105.322C115.554 105.322 109.462 106.829 101.864 105.384C102.241 102.998 102.429 99.2931 102.492 96.5928V96.3416C102.555 94.646 102.555 93.3901 102.617 93.3273C102.68 93.2017 102.429 87.7383 102.869 85.6032C102.931 85.2264 103.057 84.9124 103.183 84.7868C104.062 84.0333 105.129 83.2797 106.323 82.7145C106.323 82.7145 109.023 85.666 110.467 82.4005C111.974 82.2749 112.791 82.5889 113.23 84.0961C115.679 92.6365 115.554 105.322 115.554 105.322Z" fill="#7762EF"/>
<path d="M111.597 82.4634C111.597 82.4634 114.109 82.5262 116.747 81.333C118.191 83.0285 119.07 86.1056 119.07 86.1056C119.07 86.1056 115.554 88.3035 113.042 88.5547C112.414 84.8497 111.597 82.4634 111.597 82.4634Z" fill="#7762EF"/>
<path opacity="0.5" d="M112.1 82.9658C112.1 82.9658 113.67 84.9753 114.172 88.3664C115.931 88.0524 118.694 86.4825 119.008 86.1685C118.254 86.4197 114.926 87.6756 114.486 86.6081C113.67 84.6614 112.1 82.9658 112.1 82.9658Z" fill="#5F52DD"/>
<path d="M101.55 93.3276C101.55 93.3276 102.743 97.4094 105.757 99.2933C106.636 99.8585 107.767 99.5445 108.458 98.7282C110.53 96.4047 112.665 91.1297 113.293 89.1201C112.037 88.4922 111.66 88.555 111.66 88.555C111.66 88.555 108.709 92.6996 107.013 95.3999L105.757 93.202" fill="#F1584D"/>
<path d="M111.597 88.7431C111.597 88.7431 112.163 87.8639 112.163 87.1731C112.163 86.4824 111.849 85.352 112.539 84.724C112.791 84.4728 113.607 84.1589 114.549 84.2845C115.993 84.5356 116.37 84.9124 116.244 85.2264C116.182 85.5404 115.177 85.6032 114.926 86.1056C114.674 86.608 114.8 86.9219 114.737 87.4871C114.612 88.3035 113.481 88.6803 113.23 89.1199C113.105 89.5594 111.597 88.7431 111.597 88.7431Z" fill="#F1584D"/>
<path opacity="0.5" d="M103.057 103.501C103.434 102.307 103.559 97.9743 103.622 96.9068C104.564 96.7812 106.448 96.0904 107.516 94.3949C107.139 93.7041 106.134 91.3178 104.25 89.3083L103.183 85.3521C103.183 85.3521 103.057 85.4148 102.869 85.6032C102.429 87.7384 102.68 93.2017 102.617 93.3273C102.555 93.3901 102.555 94.5833 102.492 96.3416V96.5928C102.366 99.2931 102.241 102.998 101.864 105.384C109.462 106.829 115.554 105.322 115.554 105.322C107.955 105.95 102.68 104.882 103.057 103.501Z" fill="#5F52DD"/>
<path d="M103.936 84.2847C103.936 84.2847 100.796 86.357 100.671 89.8736C100.545 92.5739 102.366 96.5302 102.366 96.5302C102.366 96.5302 105.506 96.8442 107.139 94.3323C106.637 93.0763 106.26 92.0088 105.318 90.5644" fill="#7762EF"/>
<path d="M104.046 27.3701C104.046 27.3701 125.9 27.3701 129.73 27.3701C133.624 27.3701 133.624 22.4719 130.233 21.4671C126.716 20.4623 124.204 22.7858 124.204 22.7858C124.204 22.7858 123.262 10.7287 114.408 12.1103C107.437 13.2406 107.877 21.0275 107.877 21.0275C107.877 21.0275 106.432 17.8248 102.665 19.018C98.7084 20.2739 99.148 27.3701 104.046 27.3701Z" fill="white"/>
<path d="M269.62 19.7757C269.62 19.7757 250.907 19.7757 247.578 19.7757C244.25 19.7757 244.187 16.0078 247.139 15.2543C250.153 14.5007 252.351 16.259 252.351 16.259C252.351 16.259 253.167 6.96498 260.703 8.09534C266.669 8.9745 266.355 14.9403 266.355 14.9403C266.355 14.9403 267.611 12.4912 270.813 13.4331C274.205 14.3123 273.828 19.7757 269.62 19.7757Z" fill="white"/>
<path d="M297.663 23.8789C297.663 23.8789 322.782 23.8789 327.24 23.8789C331.699 23.8789 331.762 18.7923 327.806 17.7876C323.724 16.72 320.835 19.1063 320.835 19.1063C320.835 19.1063 319.767 6.67241 309.594 8.11675C301.556 9.24711 302.059 17.2852 302.059 17.2852C302.059 17.2852 300.426 14.0197 296.093 15.2129C291.509 16.5944 292.011 23.8789 297.663 23.8789Z" fill="white"/>
</svg>
