<svg width="130" height="52" viewBox="0 0 130 52" fill="none" xmlns="http://www.w3.org/2000/svg">
<path d="M70.7249 46.3675L63.3295 30.9529L62.4385 31.1311L55.1321 46.3675H58.0502L62.9285 35.8312L67.7846 46.3675H70.7249Z" fill="#5FA441"/>
<path d="M109.907 39.3953V31.2424H107.212V39.3953C107.19 40.91 106.789 42.0907 105.987 42.8926C105.207 43.7168 104.183 44.1177 102.935 44.1177C101.688 44.1177 100.663 43.6944 99.8613 42.8926C99.0813 42.0683 98.6582 40.91 98.6362 39.3953V31.2424H95.9628V39.3953C95.9855 40.91 96.2969 42.202 96.9205 43.2935C97.5448 44.385 98.3689 45.2092 99.4155 45.8107C100.463 46.3899 101.643 46.7017 102.935 46.7017C104.227 46.7017 105.408 46.3899 106.455 45.8107C107.502 45.2315 108.326 44.385 108.95 43.2935C109.596 42.202 109.907 40.8878 109.907 39.3953Z" fill="#5FA441"/>
<path fill-rule="evenodd" clip-rule="evenodd" d="M89.9042 38.8161C89.8814 37.3459 89.5252 36.0317 88.8128 34.851C88.0996 33.6705 87.1419 32.7349 85.9388 32.022C84.7358 31.3315 83.4218 30.9751 81.9514 30.9529C80.4818 30.9751 79.145 31.3315 77.964 32.022C76.7617 32.7126 75.826 33.6705 75.1128 34.851C74.4004 36.0317 74.0442 37.3682 74.0214 38.8161C74.0442 40.2863 74.4004 41.6005 75.1128 42.7812C75.826 43.9618 76.7617 44.8973 77.964 45.6101C79.1671 46.3007 80.4818 46.6794 81.9514 46.6794C83.4218 46.6571 84.7358 46.3007 85.9388 45.6101C87.1419 44.9196 88.0996 43.9618 88.8128 42.7812C89.5252 41.6005 89.9042 40.264 89.9042 38.8161ZM87.2087 38.8161C87.2087 39.7963 86.9634 40.7096 86.4955 41.5115C86.0284 42.3133 85.4041 42.9371 84.6249 43.4272C83.8449 43.8949 82.954 44.1399 81.9514 44.1622C80.9717 44.1399 80.0807 43.9172 79.2787 43.4272C78.4987 42.9594 77.8531 42.3133 77.4073 41.5115C76.9394 40.7096 76.7169 39.8185 76.6949 38.8161C76.6949 37.836 76.9394 36.9227 77.4073 36.1208C77.8752 35.3188 78.4987 34.6951 79.2787 34.2051C80.058 33.7373 80.9496 33.4923 81.9514 33.47C82.9319 33.4923 83.8228 33.7151 84.6249 34.2051C85.4269 34.6951 86.0505 35.3188 86.4955 36.1208C86.9634 36.9227 87.2087 37.8137 87.2087 38.8161Z" fill="#005979"/>
<path d="M130 46.3675L122.605 30.9529L121.713 31.1311L114.407 46.3675H117.325L122.226 35.8312L127.059 46.3675H130Z" fill="#5FA441"/>
<path d="M82.821 50.0209C82.821 50.0209 85.1595 48.3279 87.855 50.0209C90.5505 51.7138 92.889 50.0209 92.889 50.0209V47.4592C92.889 47.4592 90.5505 49.1521 87.855 47.4592C85.1595 45.7663 82.821 47.4592 82.821 47.4592V50.0209Z" fill="#005979"/>
<path d="M66.9383 18.8574H65.6686L62.55 25.6068L59.4537 18.8574H58.1618L62.4386 27.7899L62.6836 27.7231L66.9383 18.8574Z" fill="#71A1B8"/>
<path d="M86.1393 27.8343V18.8573H85.0031V25.4063L78.6772 18.6345L78.4098 18.6791V27.6561H79.5681V21.1071L85.894 27.8788L86.1393 27.8343Z" fill="#71A1B8"/>
<path d="M97.0101 19.9489V18.8574H88.5226V19.9489H92.1759V27.8344H93.3569V19.9489H97.0101Z" fill="#71A1B8"/>
<path d="M100.909 27.6562V18.8574H99.7276V27.6562H100.909Z" fill="#71A1B8"/>
<path d="M109.952 27.6562V26.5647H104.539V18.8574H103.359V27.6562H109.952Z" fill="#71A1B8"/>
<path d="M75.8708 23.8026H70.3685V26.5647H75.8708V27.6562H70.3685H69.2769V26.5647V23.8026V22.7111V19.9712V18.8574H70.3685H75.8708V19.9712H70.3685V22.7111H75.8708V23.8026Z" fill="#71A1B8"/>
<path d="M64.2874 15.6942C64.2874 10.9049 62.4831 6.42757 59.3422 2.55163C52.214 -0.477846 43.0143 -0.94563 33.7699 1.88336C21.808 5.55882 12.9646 13.7785 10.0688 22.7555C14.3902 16.7634 21.4293 11.7069 30.0945 9.03382C43.7717 4.84601 57.382 7.89776 64.2874 15.7833V15.6942Z" fill="#005979"/>
<path d="M0.311858 38.3484C0.111378 39.128 0 39.93 0 40.7319C0 43.2267 1.0024 45.6102 2.82899 47.7932C10.1354 51.736 20.1593 52.6716 30.2056 49.5975C40.6974 46.3899 48.7166 39.5736 52.3698 31.7771C46.4222 39.9523 33.8811 45.0533 19.7361 44.0732C12.4074 43.5832 5.70253 41.4893 0.311858 38.3484Z" fill="#005979"/>
<path d="M46.8234 20.7284C44.3953 18.9464 41.4327 17.6544 38.136 17.053C41.2545 19.7483 43.1925 23.3792 43.1925 27.3888C43.1925 33.225 39.1161 38.3038 33.1462 40.7764C41.6109 39.4621 48.004 33.3809 48.004 26.0523C48.004 24.1811 47.5808 22.3768 46.8234 20.7284Z" fill="#005979"/>
<path d="M38.0022 10.8159C37.3117 10.7936 36.6212 10.8159 35.9306 10.8381C27.5996 11.2836 20.4714 15.2932 16.7291 20.9512C20.6942 17.4763 26.1963 15.1819 32.3888 14.87C36.0643 14.6695 39.5838 15.2041 42.7247 16.2956C40.7644 14.7363 39.1606 12.8875 38.0022 10.8159Z" fill="#005979"/>
<path d="M13.4986 30.0842C15.9044 34.0269 20.404 36.9673 25.8393 37.6356C30.4948 38.2148 34.9054 36.9896 38.1354 34.5838C35.6627 35.4748 32.8561 35.8089 29.9602 35.4526C22.7653 34.5615 17.2186 29.7055 15.9935 23.8247C15.7039 25.3395 15.1916 26.8765 14.4788 28.3467C14.1446 28.9704 13.8327 29.5496 13.4986 30.0842Z" fill="#005979"/>
<path d="M35.0616 19.0356C33.9033 18.7238 32.6335 18.6124 31.3193 18.7238C26.5746 19.147 22.9883 22.4438 23.3001 26.0747C23.612 29.7279 27.7329 32.3564 32.4553 31.9332C32.9676 31.8886 33.48 31.7995 33.9701 31.6882C30.2946 31.354 27.3542 29.0819 27.1092 26.0747C26.7973 22.5774 30.2055 19.4366 34.7051 19.0356H35.0616Z" fill="#005979"/>
</svg>
