<svg width="445" height="247" viewBox="0 0 445 247" fill="none" xmlns="http://www.w3.org/2000/svg">
<g clip-path="url(#clip0)">
<path d="M53 87.4C95.7 85.2 137 75 157.7 38C180 -2.00003 233.6 -17.2 258.2 38.2C269.8 64.4 278.9 71.7 301.8 83.5C327.3 96.7 337.5 95.4 352 111.6C370.8 132.5 367.2 157.9 356.7 174.1C346.6 189.9 318.4 195.8 288.1 192.4C251.8 188.3 226.2 191.9 187.4 201.6C148.7 211.2 84.4 206.2 43.4 190.3C19.2 180.9 2.39998 159.7 3.49998 135.1C4.89998 106.3 32.6 88.4 53 87.4Z" stroke="#B6C2FF" stroke-miterlimit="10" stroke-dasharray="2.99 2.99"/>
<path d="M199.3 24H192.6" stroke="#B6C2FF" stroke-miterlimit="10" stroke-linecap="round" stroke-linejoin="round"/>
<path d="M106.8 65.9H98.2" stroke="#B6C2FF" stroke-miterlimit="10" stroke-linecap="round" stroke-linejoin="round"/>
<path d="M205.9 24H201.9" stroke="#B6C2FF" stroke-miterlimit="10" stroke-linecap="round" stroke-linejoin="round"/>
<path d="M15.3001 192.4H6.6001" stroke="#B6C2FF" stroke-miterlimit="10" stroke-linecap="round" stroke-linejoin="round"/>
<path d="M23.6 192.4H18.5" stroke="#B6C2FF" stroke-miterlimit="10" stroke-linecap="round" stroke-linejoin="round"/>
<path d="M99 62.1H93.8" stroke="#B6C2FF" stroke-miterlimit="10" stroke-linecap="round" stroke-linejoin="round"/>
<path d="M276.7 82.7H268.1" stroke="#B6C2FF" stroke-miterlimit="10" stroke-linecap="round" stroke-linejoin="round"/>
<path d="M285.1 82.7H280" stroke="#B6C2FF" stroke-miterlimit="10" stroke-linecap="round" stroke-linejoin="round"/>
<path d="M422.9 152C422.9 152.9 423.6 153.6 424.5 153.6C425.4 153.6 426.1 152.9 426.1 152C426.1 151.1 425.4 150.4 424.5 150.4C423.6 150.4 422.9 151.1 422.9 152Z" stroke="#B6C2FF" stroke-miterlimit="10" stroke-linecap="round" stroke-linejoin="round"/>
<path d="M280.8 230.9C280.8 231.8 281.5 232.5 282.4 232.5C283.3 232.5 284 231.8 284 230.9C284 230 283.3 229.3 282.4 229.3C281.5 229.3 280.8 230 280.8 230.9Z" stroke="#B6C2FF" stroke-miterlimit="10" stroke-linecap="round" stroke-linejoin="round"/>
<path d="M63.1001 69.1C63.1001 70 63.8001 70.7 64.7001 70.7C65.6001 70.7 66.3001 70 66.3001 69.1C66.3001 68.2 65.6001 67.5 64.7001 67.5C63.8001 67.5 63.1001 68.2 63.1001 69.1Z" stroke="#B6C2FF" stroke-miterlimit="10" stroke-linecap="round" stroke-linejoin="round"/>
<path d="M172.6 2.1C172.6 3 173.3 3.7 174.2 3.7C175.1 3.7 175.8 3 175.8 2.1C175.8 1.2 175.1 0.5 174.2 0.5C173.3 0.5 172.6 1.2 172.6 2.1Z" stroke="#B6C2FF" stroke-miterlimit="10" stroke-linecap="round" stroke-linejoin="round"/>
<path d="M49.1001 177.3C49.1001 178.2 49.8001 178.9 50.7001 178.9C51.6001 178.9 52.3001 178.2 52.3001 177.3C52.3001 176.4 51.6001 175.7 50.7001 175.7C49.8001 175.7 49.1001 176.4 49.1001 177.3Z" stroke="#B6C2FF" stroke-miterlimit="10" stroke-linecap="round" stroke-linejoin="round"/>
<path d="M259.3 72.8C259.3 73.7 260 74.4 260.9 74.4C261.8 74.4 262.5 73.7 262.5 72.8C262.5 71.9 261.8 71.2 260.9 71.2C260 71.2 259.3 71.9 259.3 72.8Z" stroke="#B6C2FF" stroke-miterlimit="10" stroke-linecap="round" stroke-linejoin="round"/>
<path d="M379.1 60.4V64.8" stroke="#B6C2FF" stroke-miterlimit="10" stroke-linecap="round" stroke-linejoin="round"/>
<path d="M376.9 62.6H381.3" stroke="#B6C2FF" stroke-miterlimit="10" stroke-linecap="round" stroke-linejoin="round"/>
<path d="M21.0999 117.5V121.9" stroke="#B6C2FF" stroke-miterlimit="10" stroke-linecap="round" stroke-linejoin="round"/>
<path d="M18.8999 119.7H23.2999" stroke="#B6C2FF" stroke-miterlimit="10" stroke-linecap="round" stroke-linejoin="round"/>
<path d="M126.6 181.5V186" stroke="#B6C2FF" stroke-miterlimit="10" stroke-linecap="round" stroke-linejoin="round"/>
<path d="M124.4 183.7H128.8" stroke="#B6C2FF" stroke-miterlimit="10" stroke-linecap="round" stroke-linejoin="round"/>
<path d="M375.2 94.1C373.4 98.3 375.3 103.2 379.5 105C383.7 106.8 388.6 104.9 390.4 100.7C392.2 96.5 390.3 91.6 386.1 89.8C381.8 87.9 377 89.9 375.2 94.1Z" stroke="#B6C2FF" stroke-miterlimit="10" stroke-linecap="round" stroke-linejoin="round"/>
<path d="M381 101.5C387.6 104.3 395.2 105.9 396.3 103.2C397.2 101.1 393.2 98 391 96.5V97.7C394.6 100.1 394.6 101.4 394.2 102.3C393.5 103.8 388.8 103.8 381.3 100.6C373.8 97.4 370.5 93.9 371.2 92.4C371.6 91.6 372.5 90.6 376.7 91.6L377.6 90.8C373.2 89.8 369.8 89.9 369.1 91.5C368.1 94.2 374.4 98.6 381 101.5Z" stroke="#B6C2FF" stroke-miterlimit="10" stroke-linecap="round" stroke-linejoin="round"/>
<path d="M64.7 110.2L74.9 112.8L80.4 110.6L70.2 107.9L64.7 110.2Z" stroke="#B6C2FF" stroke-miterlimit="10" stroke-linecap="round" stroke-linejoin="round"/>
<path d="M67.5 99.1L77.7 101.7L83.2 99.4L73 96.8L67.5 99.1Z" stroke="#B6C2FF" stroke-miterlimit="10" stroke-linecap="round" stroke-linejoin="round"/>
<path d="M67.5 99.1L64.7 110.2" stroke="#B6C2FF" stroke-miterlimit="10" stroke-linecap="round" stroke-linejoin="round"/>
<path d="M77.7999 101.8L74.8999 112.8" stroke="#B6C2FF" stroke-miterlimit="10" stroke-linecap="round" stroke-linejoin="round"/>
<path d="M83.2999 99.5L80.3999 110.6" stroke="#B6C2FF" stroke-miterlimit="10" stroke-linecap="round" stroke-linejoin="round"/>
<path d="M73.1 96.9L70.2 107.9" stroke="#B6C2FF" stroke-miterlimit="10" stroke-linecap="round" stroke-linejoin="round"/>
<path d="M239.3 26.3L239.1 19.8L234.1 23.9L227.8 22.1L230.2 28.2L226.6 33.6L233.1 33.2L237.1 38.3L238.7 32L244.8 29.8L239.3 26.3Z" stroke="#B6C2FF" stroke-miterlimit="10" stroke-linecap="round" stroke-linejoin="round"/>
<path d="M424.8 107L421.4 103.3L420.6 108.3L416 110.4L420.4 112.7L421 117.7L424.6 114.2L429.6 115.2L427.4 110.7L429.8 106.3L424.8 107Z" stroke="#B6C2FF" stroke-miterlimit="10" stroke-linecap="round" stroke-linejoin="round"/>
<path d="M305.5 56.9C305.8 58.9 306.4 60.8 307.1 62.6L301.9 65.6C303.8 69.6 306.6 73.2 310.1 76L314.3 71.6C315.9 72.8 317.6 73.8 319.5 74.5L317.9 80.4C320 81.1 322.1 81.7 324.4 81.9C326.7 82.2 328.9 82.1 331.1 81.9L330.9 75.8C332.9 75.5 334.8 74.9 336.6 74.2L339.6 79.4C343.6 77.5 347.2 74.7 350 71.2L345.6 67C346.8 65.4 347.8 63.7 348.5 61.8L354.4 63.4C355.1 61.3 355.7 59.2 355.9 56.9C356.2 54.6 356.1 52.4 355.9 50.2L349.8 50.4C349.5 48.4 348.9 46.5 348.2 44.7L353.4 41.7C352.1 37.8 350.1 34.6 345.2 31.3L341 35.7C339.4 34.5 337.7 33.5 335.8 32.8L337.4 26.9C335.3 26.2 333.2 25.6 330.9 25.4C328.6 25.1 326.4 25.2 324.2 25.4L324.4 31.5C322.4 31.8 320.5 32.4 318.7 33.1L315.7 27.9C311.7 29.8 308.1 32.6 305.3 36.1L309.7 40.3C308.5 41.9 307.5 43.6 306.8 45.5L300.9 43.9C300.2 46 299.6 48.1 299.4 50.4C299.1 52.7 299.2 54.9 299.4 57.1L305.5 56.9ZM314.1 52.1C315 44.6 321.8 39.2 329.3 40C336.8 40.9 342.2 47.7 341.4 55.2C340.5 62.7 333.7 68.1 326.2 67.3C318.6 66.4 313.2 59.6 314.1 52.1Z" fill="#E7EDF7"/>
<path d="M336.541 55.0961C337.341 50.1902 334.011 45.5652 329.106 44.7659C324.2 43.9667 319.575 47.2958 318.775 52.2017C317.976 57.1077 321.305 61.7327 326.211 62.5319C331.117 63.3312 335.742 60.0021 336.541 55.0961Z" fill="#E7EDF7"/>
<path d="M268.1 26.1C268.3 27.4 268.7 28.6 269.2 29.8L265.8 31.8C267 34.4 268.8 36.7 271.1 38.5L273.8 35.6C274.8 36.4 276 37 277.2 37.5L276.2 41.3C277.5 41.8 278.9 42.1 280.4 42.3C281.9 42.5 283.3 42.5 284.7 42.3L284.6 38.4C285.9 38.2 287.1 37.8 288.3 37.3L290.3 40.7C292.9 39.5 295.2 37.7 297 35.4L294.1 32.7C294.9 31.7 295.5 30.5 296 29.3L299.8 30.3C300.3 29 300.6 27.6 300.8 26.1C301 24.6 301 23.2 300.8 21.8L296.9 21.9C296.7 20.6 296.3 19.4 295.8 18.2L299.2 16.2C298.3 13.7 297.1 11.6 293.9 9.49999L291.2 12.4C290.2 11.6 289 11 287.8 10.5L288.8 6.69999C287.5 6.19999 286.1 5.89999 284.6 5.69999C283.1 5.49999 281.7 5.49999 280.3 5.69999L280.4 9.59999C279.1 9.79999 277.9 10.2 276.7 10.7L274.7 7.29999C272.1 8.49999 269.8 10.3 268 12.6L270.9 15.3C270.1 16.3 269.5 17.5 269 18.7L265.2 17.7C264.7 19 264.4 20.4 264.2 21.9C264 23.4 264 24.8 264.2 26.2L268.1 26.1ZM273.6 23C274.2 18.1 278.5 14.7 283.4 15.2C288.3 15.8 291.7 20.1 291.2 25C290.6 29.9 286.3 33.3 281.4 32.8C276.5 32.2 273 27.8 273.6 23Z" fill="#E7EDF7"/>
<path d="M276.6 23.3C276.2 26.5 278.5 29.3 281.7 29.7C284.9 30.1 287.7 27.8 288.1 24.6C288.5 21.4 286.2 18.6 283 18.2C279.9 17.9 277 20.2 276.6 23.3Z" fill="#E7EDF7"/>
<path d="M96.8 49.5C97.8 50.3 98.9 51 100.1 51.6L98.9 55.3C101.5 56.4 104.4 56.9 107.3 56.7L107.4 52.8C108.7 52.7 109.9 52.4 111.2 52L113 55.5C114.3 55 115.6 54.3 116.8 53.4C118 52.6 119.1 51.6 120 50.5L117.3 47.7C118.1 46.7 118.8 45.6 119.4 44.4L123.1 45.6C124.2 43 124.7 40.1 124.5 37.2L120.6 37.1C120.5 35.8 120.2 34.6 119.8 33.3L123.3 31.5C122.8 30.2 122.1 28.9 121.2 27.7C120.4 26.5 119.4 25.4 118.3 24.5L115.5 27.2C114.5 26.4 113.4 25.7 112.2 25.1L113.4 21.4C111.1 20.1 108.7 19.4 105 20L104.9 23.9C103.6 24 102.4 24.3 101.1 24.7L99.3 21.2C98 21.7 96.7 22.4 95.5 23.3C94.3 24.2 93.2 25.1 92.3 26.2L95 29C94.2 30 93.5 31.1 92.9 32.3L89.2 31.1C88.1 33.7 87.6 36.6 87.8 39.5L91.7 39.6C91.8 40.9 92.1 42.1 92.5 43.4L89 45.2C89.5 46.5 90.2 47.8 91.1 49C91.9 50.2 92.9 51.3 94 52.2L96.8 49.5ZM98.9 43.5C96.1 39.5 97 34 101 31.2C105 28.4 110.5 29.3 113.3 33.3C116.1 37.3 115.2 42.8 111.2 45.6C107.2 48.5 101.7 47.5 98.9 43.5Z" fill="#E7EDF7"/>
<path d="M101.4 41.8C103.2 44.4 106.9 45 109.5 43.2C112.1 41.4 112.7 37.7 110.9 35.1C109.1 32.5 105.4 31.9 102.8 33.7C100.2 35.5 99.5001 39.2 101.4 41.8Z" fill="#E7EDF7"/>
<path d="M124.5 246C124.5 246 89.4 128.3 123.4 132.2C157.4 136 149.8 246 149.8 246" fill="white"/>
<path d="M124.5 246C124.5 246 89.4 128.3 123.4 132.2C157.4 136 149.8 246 149.8 246" stroke="#8693F2" stroke-miterlimit="10"/>
<path d="M120.3 132C120.3 132 132.3 184.2 137 245.9" stroke="#8693F2" stroke-miterlimit="10"/>
<path d="M71.0001 246C65.8001 210.4 36.0001 173.3 30.8001 146.9C28.8001 136.6 30.8001 122.6 42.4001 117.1C82.4001 98.2001 107.8 186.4 107.1 245.9" fill="white"/>
<path d="M71.0001 246C65.8001 210.4 36.0001 173.3 30.8001 146.9C28.8001 136.6 30.8001 122.6 42.4001 117.1C82.4001 98.2001 107.8 186.4 107.1 245.9" stroke="#8693F2" stroke-miterlimit="10"/>
<path d="M41.6001 117.6C41.6001 117.6 84.1001 202.2 88.0001 246" stroke="#8693F2" stroke-miterlimit="10"/>
<path d="M319.8 246C316.8 222 300.4 200.3 300.4 188.2C300.4 176.6 312.3 172.1 319.4 176.5C338.6 188.6 340.7 223.4 340.3 245.9" fill="white"/>
<path d="M319.8 246C316.8 222 300.4 200.3 300.4 188.2C300.4 176.6 312.3 172.1 319.4 176.5C338.6 188.6 340.7 223.4 340.3 245.9" stroke="#8693F2" stroke-miterlimit="10" stroke-linejoin="bevel"/>
<path d="M306.5 176.8C306.5 176.8 326 201.7 329.9 245.9Z" fill="white"/>
<path d="M306.5 176.8C306.5 176.8 326 201.7 329.9 245.9" stroke="#8693F2" stroke-miterlimit="10" stroke-linejoin="bevel"/>
<path d="M42.5002 246C41.3002 239.1 39.1002 233.2 36.2002 226.7C33.6002 221 30.6002 215.1 30.2002 209C29.9002 204 32.2002 198.7 37.7002 197.7C47.8002 195.7 58.1002 205 63.1002 212.3C67.4002 218.6 74.2002 231.6 76.4002 246" fill="white"/>
<path d="M42.5002 246C41.3002 239.1 39.1002 233.2 36.2002 226.7C33.6002 221 30.6002 215.1 30.2002 209C29.9002 204 32.2002 198.7 37.7002 197.7C47.8002 195.7 58.1002 205 63.1002 212.3C67.4002 218.6 74.2002 231.6 76.4002 246" stroke="#8693F2" stroke-miterlimit="10" stroke-linejoin="bevel"/>
<path d="M37 197.8C37 197.8 50.9 218.7 59.1 246Z" fill="white"/>
<path d="M37 197.8C37 197.8 50.9 218.7 59.1 246" stroke="#8693F2" stroke-miterlimit="10" stroke-linejoin="bevel"/>
<path d="M304.1 246C303.5 243.1 300.2 236.4 297.4 232.8C294.8 229.4 293 224.9 292.7 220.6C292.5 217.2 294.1 213.6 297.9 212.8C304.8 211.4 311.9 217.8 315.3 222.9C318.3 227.2 322.9 236.2 324.4 246" fill="white"/>
<path d="M304.1 246C303.5 243.1 300.2 236.4 297.4 232.8C294.8 229.4 293 224.9 292.7 220.6C292.5 217.2 294.1 213.6 297.9 212.8C304.8 211.4 311.9 217.8 315.3 222.9C318.3 227.2 322.9 236.2 324.4 246" stroke="#8693F2" stroke-miterlimit="10" stroke-linejoin="bevel"/>
<path d="M297.4 212.9C297.4 212.9 307 227.2 312.6 246Z" fill="white"/>
<path d="M297.4 212.9C297.4 212.9 307 227.2 312.6 246" stroke="#8693F2" stroke-miterlimit="10" stroke-linejoin="bevel"/>
<path d="M356.3 246C359.6 228.9 365.5 209.2 374.8 194.4C379.9 186.4 385.4 178.5 392.4 172C397.1 167.7 402.5 163.6 408.7 161.5C413.4 159.9 419.2 159.6 423.7 162.1C434.4 168 428.7 186 426.1 194.8C422 208.9 408.5 228.6 404 246" fill="white"/>
<path d="M356.3 246C359.6 228.9 365.5 209.2 374.8 194.4C379.9 186.4 385.4 178.5 392.4 172C397.1 167.7 402.5 163.6 408.7 161.5C413.4 159.9 419.2 159.6 423.7 162.1C434.4 168 428.7 186 426.1 194.8C422 208.9 408.5 228.6 404 246" stroke="#8693F2" stroke-miterlimit="10" stroke-linejoin="bevel"/>
<path d="M336.6 246C336.2 200.8 341.3 168.7 355.8 145.6C365.2 130.7 372.3 123.4 382.6 120.4C392.5 117.5 402.6 124.5 401.5 138.6C399.9 158.9 375 203.6 374.8 246" fill="white"/>
<path d="M336.6 246C336.2 200.8 341.3 168.7 355.8 145.6C365.2 130.7 372.3 123.4 382.6 120.4C392.5 117.5 402.6 124.5 401.5 138.6C399.9 158.9 375 203.6 374.8 246" stroke="#8693F2" stroke-miterlimit="10" stroke-linejoin="bevel"/>
<path d="M392.5 120.8C375 147.9 353.9 198.3 351.2 246" stroke="#8693F2" stroke-miterlimit="10" stroke-linejoin="bevel"/>
<path d="M421.7 161.2C421.7 161.2 391 197.5 379.1 245.9" stroke="#8693F2" stroke-miterlimit="10" stroke-linejoin="bevel"/>
<path d="M444.6 245.5H0V246.5H444.6V245.5Z" fill="#8693F2"/>
<path d="M154.4 162.8C154.4 162.8 149.5 147.2 148.6 139.2C147.4 128.4 150.8 116.2 150.8 116.2L159 116.7C159 116.7 158 132 158.7 138.5C159.1 142.1 163.3 154.2 163.4 154.8" fill="#F2B18F"/>
<path d="M158.5 124.8C158.5 124.8 159.8 111.2 159.2 110.9C158.6 110.6 158.4 113 158 112.7C157.6 112.3 158.3 106.7 157.7 106.5C156.8 106.2 156.3 111.4 156.3 111.4C156.3 111.4 156.6 105.7 155.8 105.7C155.2 105.7 154.8 110 154.4 111.6C154.6 109.8 154.5 106.8 153.9 106.8C153.3 106.8 152.9 109.7 152.6 112C152.7 110.6 152.8 108 152.2 108C151.6 108 150.2 118.3 149.2 125" fill="#F2B18F"/>
<path d="M154.3 169.6L149.3 150.5L161.8 145.3L168.1 158.8" fill="#4A63FE"/>
<path d="M149.6 152.1L162.5 146.9" stroke="#0C1A72" stroke-width="0.5" stroke-miterlimit="10" stroke-linejoin="round"/>
<path d="M335.7 118C335.7 118 333.4 118.3 327.4 122C323 124.7 315.4 128.2 311.9 128.8C309.6 129.2 291 124.2 291 124.2L286.1 129.9C286.1 129.9 308.7 139.2 316.2 137.8C326.1 136 334.6 130.5 334.6 130.5" fill="#F2B18F"/>
<path d="M338.8 117.1C338.8 117.1 332.9 117.6 328.1 120.6C323.4 123.5 320.1 125.7 320.1 125.7L325.1 136.3C325.1 136.3 341.5 131.9 341.5 131.2C341.5 130.6 338.8 117.1 338.8 117.1Z" fill="#F2311D"/>
<path d="M321.9 124.6L327.1 135.8" stroke="#BA140C" stroke-width="0.5" stroke-miterlimit="10"/>
<path d="M299.9 126.6C299.9 126.6 286.8 122.5 286.4 123C286 123.4 288.1 124 287.7 124.3C287.3 124.6 282.6 123.2 282.4 123.7C282.1 124.4 286.4 125.6 286.4 125.6C286.4 125.6 281.6 124.6 281.5 125.3C281.4 125.8 285 126.7 286.4 127.3C284.9 126.9 282.3 126.6 282.3 127.1C282.2 127.6 284.7 128.3 286.5 128.9C285.3 128.6 283.1 128.2 283 128.7C282.9 129.2 291.6 132.2 297.1 133.9" fill="#F2B18F"/>
<path d="M109 125.8C123.2 115.6 142.4 93.8001 142.4 93.8001L136.8 88.7001C136.8 88.7001 108.2 113.3 107.8 113.7" fill="#E59876"/>
<path d="M130.8 94.1C130.8 94.1 140.4 84.4 141 84.6C141.6 84.8 139.9 86.6 140.4 86.7C140.9 86.8 144.8 82.6 145.4 82.9C146.2 83.4 142.6 87.1 142.6 87.1C142.6 87.1 146.7 83.2 147.3 83.8C147.7 84.2 144.7 87.4 143.7 88.7C145 87.4 147.3 85.5 147.7 86C148.1 86.5 146.1 88.6 144.6 90.4C145.6 89.4 147.5 87.7 147.9 88.1C148.3 88.5 138.6 97.4 134.1 102.5" fill="#E59876"/>
<path d="M99.3999 115.4L114.5 106.9L123.2 120.7L109.4 128.2" fill="#3147D1"/>
<path d="M202.328 193.451C208.785 206.34 255.266 245.268 255.266 245.268C255.266 245.268 223.521 190.6 229.671 180.831C222.062 165.156 210.243 158.084 206.651 153.007C206.546 153.088 188.215 165.258 202.328 193.451Z" fill="#F2311D"/>
<path d="M295.514 121.392C306.364 130.885 332.346 185.664 332.346 185.664C332.346 185.664 287.423 141.186 276.42 144.68C263.164 133.372 259.293 120.154 255.283 115.4C255.388 115.319 271.778 100.639 295.514 121.392Z" fill="#F2311D"/>
<path d="M151.497 31.5411C151.497 31.5411 126.974 84.7645 159.161 126.39C186.659 161.949 245.681 206.722 245.681 206.722L271.513 186.746L297.346 166.77C297.346 166.77 268.863 98.3818 241.366 62.8227C209.178 21.1977 151.497 31.5411 151.497 31.5411Z" fill="#3E7EFF"/>
<path d="M217.166 116.465C229.758 106.727 232.072 88.6263 222.335 76.0344C212.598 63.4425 194.497 61.1282 181.905 70.8652C169.313 80.6023 166.999 98.7035 176.736 111.295C186.473 123.887 204.574 126.202 217.166 116.465Z" fill="white"/>
<path d="M222.552 80.8598C215.454 68.1813 199.422 63.6578 186.743 70.7562C174.065 77.8546 169.541 93.8869 176.64 106.565C183.738 119.244 199.771 123.767 212.449 116.669C225.127 109.57 229.651 93.5382 222.552 80.8598Z" stroke="#4A63FE" stroke-width="2" stroke-linecap="round" stroke-linejoin="round"/>
<path d="M214.093 112.49C224.49 104.45 226.401 89.5045 218.361 79.1076C210.321 68.7106 195.375 66.7997 184.978 74.8395C174.581 82.8792 172.67 97.8251 180.71 108.222C188.75 118.619 203.696 120.53 214.093 112.49Z" fill="#202263"/>
<mask id="mask0" mask-type="alpha" maskUnits="userSpaceOnUse" x="159" y="53" width="81" height="82">
<path d="M217.166 116.465C229.758 106.727 232.072 88.6263 222.335 76.0344C212.598 63.4425 194.497 61.1282 181.905 70.8652C169.313 80.6023 166.999 98.7035 176.736 111.295C186.473 123.887 204.574 126.202 217.166 116.465Z" fill="white"/>
</mask>
<g mask="url(#mask0)">
<g opacity="0.65">
<path opacity="0.25" d="M210.495 64.7208L199.16 63.8317L194.508 123.142L205.843 124.031L210.495 64.7208Z" fill="white"/>
<path opacity="0.25" d="M215.178 65.0742L213.069 64.9088L208.417 124.219L210.526 124.384L215.178 65.0742Z" fill="white"/>
<path opacity="0.25" d="M195.842 63.8842L192.151 63.5947L187.499 122.905L191.189 123.194L195.842 63.8842Z" fill="white"/>
</g>
</g>
<path d="M140.843 67.6886L189.162 30.3249C167.662 26.7279 150.202 29.8676 150.202 29.8676C150.202 29.8676 142.876 45.895 140.843 67.6886Z" fill="#F2311D"/>
<path d="M296.405 154.963L235.222 202.274L238.457 206.458L299.64 159.147L296.405 154.963Z" fill="#202263"/>
<path d="M136.919 65.2078L189.317 24.69" stroke="white" stroke-width="1.5" stroke-miterlimit="10" stroke-linejoin="round"/>
<path d="M233.017 136.963C220.387 150.239 297.393 220.213 297.393 220.213C297.393 220.213 249.148 127.999 233.017 136.963Z" fill="#F2311D"/>
<path d="M130.754 246.355L130.723 227.755L129.923 227.756L129.954 246.356L130.754 246.355Z" fill="#4C82FC"/>
<path d="M137.6 230.4L137.2 228.8C137.2 228.8 135.1 228.2 133.6 228C132.1 227.8 130.7 227.8 130.7 227.8V246.4C130.7 246.4 132.3 245.9 134.9 241.5C135.9 239.7 137.1 238.9 137.1 238.9L137.6 230.4Z" fill="#202263"/>
<path d="M135.8 240.3L134.6 239.4" stroke="#4C82FC" stroke-width="0.5" stroke-miterlimit="10"/>
<path d="M135 241.4L133.9 240.7" stroke="#4C82FC" stroke-width="0.5" stroke-miterlimit="10"/>
<path d="M134.4 242.4L133.2 241.7" stroke="#4C82FC" stroke-width="0.5" stroke-miterlimit="10"/>
<path d="M146.5 229.5L137.2 228.8C137.2 228.8 136.2 229.7 136.2 232.8C136.2 236 137.1 238.8 137.1 238.8L147.9 240.2" fill="#F2B18F"/>
<path d="M155.2 193.9C152.5 203.2 159.7 211.2 159.7 211.2L163.9 230.5L139 228.8L139.5 243.8C139.5 243.8 165.3 246.5 171.6 246.5C177.9 246.5 180.3 245.1 182.1 241.4C184.8 235.9 176.5 205.8 176.5 205.3L172.2 185.9" fill="#A9C4FF"/>
<path d="M212 245.4H193.4V246.2H212V245.4Z" fill="#4C82FC"/>
<path d="M196 238.6L194.4 239C194.4 239 193.8 241.1 193.5 242.6C193.3 244.1 193.3 245.5 193.3 245.5H211.9C211.9 245.5 211.4 243.9 207 241.3C205.2 240.3 204.4 239.1 204.4 239.1L196 238.6Z" fill="#202263"/>
<path d="M205.9 240.4L205 241.6" stroke="#4C82FC" stroke-width="0.5" stroke-miterlimit="10"/>
<path d="M207 241.2L206.2 242.3" stroke="#4C82FC" stroke-width="0.5" stroke-miterlimit="10"/>
<path d="M208 241.8L207.3 243" stroke="#4C82FC" stroke-width="0.5" stroke-miterlimit="10"/>
<path d="M196 231.9L194.4 239C194.4 239 195.3 240 198.4 240C201.6 240 204.4 239.1 204.4 239.1L207 229.6" fill="#F2B18F"/>
<path d="M163.9 194.5C163.9 194.5 161.6 210.6 177 209.3L195.1 211.3C196.5 211.3 197.7 212.5 197.7 213.9L193.8 236.5H209C209 236.5 214.6 207.1 212.5 202.8C208.7 195.2 187.7 192.8 185.9 192.2C184.1 191.6 180.6 185.9 180.6 185.9" fill="#A9C4FF"/>
<path d="M177 209.3C177 209.3 166.7 210.4 163.8 200.8" stroke="#4C82FC" stroke-width="0.5" stroke-miterlimit="10"/>
<path d="M139.4 241.2C139.4 241.2 175.4 246.7 178.5 241.5C179.7 239.6 178.8 235.5 178.2 230.9C176.9 221.3 174.1 209.3 174.1 209.3" stroke="#4C82FC" stroke-width="0.5" stroke-miterlimit="10"/>
<path d="M179.7 190.6C179.7 190.6 181.6 193.1 183.5 193.9C188.5 196.1 208.3 198.6 209.6 203.6C210.7 207.4 205.4 236.4 205.4 236.4" stroke="#4C82FC" stroke-width="0.5" stroke-miterlimit="10"/>
<path d="M142.1 229.2L142.9 244.1" stroke="#4C82FC" stroke-width="0.5" stroke-miterlimit="10"/>
<path d="M194.3 233.7H209.6" stroke="#4C82FC" stroke-width="0.5" stroke-miterlimit="10"/>
<path d="M170.4 199.6C170.4 199.6 175.1 198.4 177.8 197.3" stroke="#4C82FC" stroke-width="0.5" stroke-miterlimit="10"/>
<path d="M159.8 202C159.8 202 156.5 202.8 155.3 202.8" stroke="#4C82FC" stroke-width="0.5" stroke-miterlimit="10"/>
<path d="M170.3 150L172.2 156.6C172.2 156.6 170.6 157.5 167.7 158.4C164.9 159.3 163.1 158 163.1 158V149.4" fill="#F2B18F"/>
<path d="M168.2 138.6C173.6 142.6 173.8 147.8 172.3 149.7C170.8 151.7 165.7 151.4 162.1 149.1C158.6 146.8 160.8 142.3 162.4 140.1C164.1 137.8 168.2 138.6 168.2 138.6Z" fill="#F2B18F"/>
<path d="M172.7 138.9C171.6 139.3 170.1 139.5 169.2 139.7C168.4 140.6 168.1 142.2 168.9 143.2C169.1 143.4 169.3 143.7 169.1 143.9C169 144 168.7 144 168.6 143.9C168.4 143.8 168.3 143.6 168.2 143.5C167.9 143.3 167.4 143.5 167.2 143.8C167 144.1 167 144.6 167.1 144.9C167.4 145.9 167.8 147 169 147C169.2 147 169.4 147 169.5 147.1C169.9 147.3 169.9 147.7 170 148.1C170.1 149.3 170 150.5 169.3 151.6C169.3 151.7 169.2 151.7 169.2 151.7C169.1 151.7 169.1 151.7 169 151.8C167.1 152.1 165.2 152.4 163.3 152.4C163.2 152.4 162.7 151.3 162.6 151.1C162.3 150.7 162.1 150.4 161.7 150.2C160.8 149.6 159.8 148.7 159.2 147.8C158.5 146.7 158.2 145.4 158.3 144C158.4 141.6 159.2 138.9 161.3 137.5C162.6 136.6 164.3 136.5 165.3 136.5C168.9 134.7 172.3 137.6 172.7 138.9Z" fill="#212237"/>
<path d="M173.1 167.1C173.1 167.1 188.5 161.7 195.5 157.7C204.9 152.3 212.7 142.3 212.7 142.3L207.4 135.9C207.4 135.9 195.7 145.8 190 149C186.9 150.8 174.6 154.6 174.1 154.8" fill="#F2B18F"/>
<path d="M201.3 141.2C201.3 141.2 211.5 132.1 212.1 132.3C212.7 132.5 210.9 134.2 211.4 134.3C211.9 134.4 216.1 130.4 216.6 130.9C217.3 131.4 213.5 134.9 213.5 134.9C213.5 134.9 217.9 131.3 218.4 131.9C218.7 132.4 215.5 135.3 214.4 136.5C215.8 135.3 218.2 133.6 218.5 134C218.8 134.5 216.7 136.5 215.1 138.2C216.2 137.3 218.2 135.7 218.6 136.1C218.9 136.5 211.5 143.8 206.7 148.6" fill="#F2B18F"/>
<path d="M179.3 162.5C179.3 162.5 183.3 184.3 184.5 190.9C172.4 195.9 152.5 198.3 152.5 198.3C152.5 198.3 151.9 188.9 153.9 168.2C154.6 161.6 158.6 157.8 161.7 155.4" fill="#4A63FE"/>
<path d="M172.7 154.1C175.9 153.6 184.4 151.3 184.4 151.3L191.3 163.7C186.3 167.7 176.1 173.6 176.1 173.6C176.1 173.6 160 158.3 163.2 154.4C164.8 155.4 169.5 154.6 172.7 154.1Z" fill="#4A63FE"/>
<path d="M180.8 170.7L177 173" stroke="#0C1A72" stroke-width="0.5" stroke-miterlimit="10" stroke-linejoin="round"/>
<path d="M182.6 151.7L189.1 165.3" stroke="#0C1A72" stroke-width="0.5" stroke-miterlimit="10" stroke-linejoin="round"/>
<path d="M82.4211 245.267L65.5676 237.398L65.2291 238.122L82.0826 245.992L82.4211 245.267Z" fill="#212237"/>
<path d="M70.9001 232.3L69.3001 232C69.3001 232 67.9001 233.6 67.0001 234.9C66.2001 236.1 65.6001 237.5 65.6001 237.5L82.5001 245.4C82.5001 245.4 82.7001 243.7 79.8001 239.5C78.6001 237.8 78.3001 236.4 78.3001 236.4L70.9001 232.3Z" fill="#F2311D"/>
<path d="M79 238.2L77.8 238.9" stroke="#212237" stroke-width="0.5" stroke-miterlimit="10"/>
<path d="M79.7001 239.3L78.6001 240" stroke="#212237" stroke-width="0.5" stroke-miterlimit="10"/>
<path d="M80.4 240.3L79.3 241.1" stroke="#212237" stroke-width="0.5" stroke-miterlimit="10"/>
<path d="M72.0002 225.5L69.2002 232C69.2002 232 69.6002 233.2 72.4002 234.6C75.3002 235.9 78.2002 236.3 78.2002 236.3L82.9002 227.9" fill="#F2B18F"/>
<path d="M105.5 158.6C105.5 163 104.4 189.2 100.2 204C95.5 220.6 83.9 235.8 83.9 235.8L69.3 230.1C69.3 230.1 77.3 216.4 82.5 197.7C84.3 191.1 83.9 168.3 83.9 168.3C83.9 168.3 82.7 159.8 89.1 152.4" fill="#1A1D33"/>
<path d="M102.5 157.6C102.5 162 101.4 188.2 97.2 203C93.3 216.5 81.2 234 81 234.7" stroke="#3F5B8E" stroke-width="0.5" stroke-miterlimit="10" stroke-linejoin="round"/>
<path d="M126.8 245.6H108.2V246.4H126.8V245.6Z" fill="#212237"/>
<path d="M110.9 238.8L109.3 239.2C109.3 239.2 108.7 241.3 108.4 242.8C108.2 244.3 108.2 245.7 108.2 245.7H126.8C126.8 245.7 126.3 244.1 121.9 241.5C120.1 240.5 119.3 239.3 119.3 239.3L110.9 238.8Z" fill="#F2311D"/>
<path d="M120.8 240.6L119.9 241.8" stroke="#212237" stroke-width="0.5" stroke-miterlimit="10"/>
<path d="M121.8 241.4L121.1 242.5" stroke="#212237" stroke-width="0.5" stroke-miterlimit="10"/>
<path d="M122.9 242L122.2 243.2" stroke="#212237" stroke-width="0.5" stroke-miterlimit="10"/>
<path d="M109 232.1L109.2 239.2C109.2 239.2 110.1 240.2 113.2 240.2C116.4 240.2 119.2 239.3 119.2 239.3L119.9 229.8" fill="#F2B18F"/>
<path d="M89.1002 155C89.1002 155 88.3002 163.5 92.8002 168.9C97.3002 174.3 103.6 188.9 105 199.6C107.1 216.2 106.8 237 106.8 237H122.7C122.7 237 124.4 210.2 121.7 193.3C118.6 174 115.1 163.2 114.1 159.9C113.1 156.5 112.3 151.6 112.3 151.6" fill="#1A1D33"/>
<path d="M119.7 237C119.7 237 121.4 210.2 118.7 193.3C115.6 174 112.1 163.2 111.1 159.9" stroke="#3F5B8E" stroke-width="0.5" stroke-miterlimit="10" stroke-linejoin="round"/>
<path d="M102.9 190.4C102.9 190.4 99.3 178.1 95.8 173.4C94.1 171.7 90.8 169.2 89.8 164.3" stroke="#3F5B8E" stroke-width="0.5" stroke-miterlimit="10" stroke-linejoin="round"/>
<path d="M101.6 164.4H108" stroke="#3F5B8E" stroke-width="0.5" stroke-miterlimit="10" stroke-linejoin="round"/>
<path d="M83.9001 164.4H86.8001" stroke="#3F5B8E" stroke-width="0.5" stroke-miterlimit="10" stroke-linejoin="round"/>
<path d="M106.9 110.5L107.3 117.3C107.3 117.3 105.5 117.8 102.6 118.1C99.6002 118.4 98.2002 116.8 98.2002 116.8L100 108.4" fill="#F2B18F"/>
<path d="M107.3 98.9001C111.7 104 110.9 109.1 109 110.7C107.1 112.3 102.2 110.9 99.2002 108C96.2002 105 99.4002 101.1 101.4 99.2001C103.5 97.3001 107.3 98.9001 107.3 98.9001Z" fill="#F2B18F"/>
<path d="M109 95.8C109.7 96.4 110.2 97.4 110.2 98.3C110.3 99 110 99.8 109.4 100.1C108.7 100.5 107.9 100.4 107.2 100.9C106.7 101.3 106.2 101.9 106.2 102.6C106.2 103.1 106.4 103.6 106.7 104C106.8 104.1 106.9 104.2 106.8 104.3C106.8 104.6 106.4 104.6 106.2 104.5C106 104.4 105.7 104.2 105.5 104.3C105.2 104.4 105.2 104.8 105.2 105.1C105.3 105.7 105.5 106.1 105.9 106.5C106.3 106.9 106.9 107 107.3 107.4C107.5 107.6 107.5 107.8 107.6 108C107.7 108.6 107.9 109.2 107.7 109.7C107.4 110.8 106.2 111.3 105.1 111.6C103.3 112 101.2 112 99.5002 111.3C99.1002 111.1 98.6002 110.8 98.5002 110.4C98.4002 110.1 98.4002 109.8 98.4002 109.5C98.2002 108.5 96.8002 107.9 96.7002 106.9C96.6002 106.5 96.7002 106.1 96.8002 105.8C96.9002 104.7 96.1002 103.9 96.1002 102.8C96.0002 101.7 96.3002 100.6 97.2002 99.9C97.6002 99.6 98.2002 99.4 98.5002 98.9C98.9002 98.5 98.8002 97.9 99.0002 97.4C99.7002 95.9 101.5 95.9 102.9 96.3C103.1 96.4 103.4 96.4 103.6 96.4C104.1 96.4 104.5 96 104.9 95.8C105.7 95.3 106.6 95.1 107.6 95.1C107.9 95.1 108.5 95.4 109 95.8Z" fill="#212237"/>
<path d="M108 130.3C108 130.3 124.8 121.4 131.2 116.5C138.1 111.1 147.3 99.9001 147.3 99.9001L141.6 93.9001C141.6 93.9001 128.2 105.3 125.2 107.2C122.2 109.1 110.3 114.8 109.7 115.1" fill="#F2B18F"/>
<path d="M135.3 99.7001C135.3 99.7001 144.8 89.9001 145.4 90.1001C146 90.3001 144.3 92.1001 144.8 92.2001C145.3 92.3001 149.2 88.0001 149.7 88.4001C150.5 88.9001 146.9 92.6001 146.9 92.6001C146.9 92.6001 151 88.7001 151.6 89.3001C152 89.7001 149 92.9001 148 94.2001C149.3 92.9001 151.6 91.0001 152 91.5001C152.4 92.0001 150.4 94.1001 148.9 95.9001C149.9 94.9001 151.8 93.2001 152.2 93.6001C152.6 94.0001 145.6 101.8 141.2 106.9" fill="#F2B18F"/>
<path d="M114.7 122.5C116.5 141.5 116 148.4 116.5 161.1H82.6001C82.6001 161.1 83.9001 149.1 89.1001 128.1C90.7001 121.7 95.0001 116.3 98.0001 113.9" fill="#4A63FE"/>
<path d="M107.1 114.1C111.1 113.7 120.6 109.9 120.6 109.9L127.5 122.3C122.5 126.3 112.3 132.2 112.3 132.2L98 113.9C98 113.9 103 114.1 107.1 114.1Z" fill="#4A63FE"/>
<path d="M115.4 130.3L112.3 132.2" stroke="#0C1A72" stroke-width="0.5" stroke-miterlimit="10" stroke-linejoin="round"/>
<path d="M118.6 110.7L125.7 123.6" stroke="#0C1A72" stroke-width="0.5" stroke-miterlimit="10" stroke-linejoin="round"/>
<path d="M332.8 170.8C335.8 201.8 350 239.3 350 239.3L344 243.2C344 243.2 360.5 243.9 361.1 243.4C361.6 242.9 360.4 239.2 360.4 239.2C360.4 239.2 346.1 185.6 348.5 174.9C351 164.3 329.7 139.8 332.8 170.8Z" fill="#F2B18F"/>
<path d="M358.5 243.4L360.9 241L360.5 239.7L356.7 243.4H354.9L348.5 240.3L341.6 244.7C340.8 245.2 341.2 246.4 342.1 246.4L351.5 246.3L354.5 244.2H355.3V246.3L361.4 246.2V243.3L358.5 243.4Z" fill="#202263"/>
<path d="M352.2 176.7C355.1 184.2 359.7 193.6 368.7 202.7C379.5 213.5 393.3 219.3 393.3 219.3L391.4 226.2C391.4 226.2 404.2 215.7 404.2 214.9C404.2 214.1 400.8 212.2 400.8 212.2C400.8 212.2 390.5 206.5 378.6 195C371 187.7 367.1 173.8 364.7 169.4C359.6 159.9 341.1 147.6 352.2 176.7Z" fill="#F2B18F"/>
<path d="M402.4 216.7L402.6 213.3L401.5 212.6L401.2 217.9L399.9 219.1L393 221.1L390.8 229C390.5 229.9 391.6 230.6 392.3 229.9L399.2 223.6L400 220.1L400.6 219.5L402 221L406.5 216.9L404.5 214.8L402.4 216.7Z" fill="#202263"/>
<path d="M331 151.2C331 151.2 328.1 164.6 330 173.7C331.9 182.8 335.7 197.5 335.7 197.5C335.7 197.5 355 198 372.3 186C372.3 186 365.3 164.1 361.5 158.9C356.7 152.3 353 149.3 353 149.3L331 151.2Z" fill="#232868"/>
<path d="M350.1 149.5C350.1 149.5 358.3 157.8 360.6 164.4C362.9 171 369 188.1 369 188.1" stroke="#4372DD" stroke-width="0.5" stroke-miterlimit="10"/>
<path d="M339.2 112.7L338.8 117.1C338.8 117.1 339.1 119.8 342.7 119.5C345.6 119.3 345.7 117.5 345.7 117.5L344.7 108.7" fill="#F2B18F"/>
<path d="M338.2 102.9C336.5 104.8 334.1 111.9 337.3 113.6C340.6 115.3 344.7 114 345.8 109.4C347 104.6 342.8 97.8 338.2 102.9Z" fill="#F2B18F"/>
<path d="M339.1 114.3C339.1 114.3 341.7 115 343.8 112.9" stroke="#E2845A" stroke-width="0.5" stroke-miterlimit="10" stroke-linejoin="round"/>
<path d="M345.4 108.9C345.4 109 345.4 109 345.4 109C345.4 109 345.4 109 345.4 108.9C345.5 109 345.4 109 345.4 108.9C345.5 108.9 345.5 108.9 345.4 108.9Z" fill="#FF855A"/>
<path d="M344.7 110C344.6 109.5 344.4 109 344.1 108.6C343.8 108.3 343.4 108.1 343.2 107.7C342.6 106.7 342.4 105.5 342.2 104.3C340 104.7 337.7 105.4 335.8 103.6C335.8 101.5 338.4 99.7 341.5 100.4C342.9 99.7 344.7 100 345.5 100.1C349.7 100.9 351.2 105.9 349.6 109.9C348.8 112 347.1 113 345.5 113C345.4 113 345.2 113 345.1 112.9C345 112.9 344.7 110.3 344.7 110Z" fill="#212237"/>
<path d="M344.3 109.4C344.3 109.3 344.7 108.9 345.2 108.9C346.1 108.9 346.2 110.1 345.8 110.9C345.6 111.4 345.3 111.7 344.8 112C344.2 112.4 343.6 112.3 343.5 111.5" fill="#F2B18F"/>
<path d="M349.2 102.4C348.6 102.7 347.4 103.1 346.8 102.7C346.2 102.2 345.9 101.5 346 100.8C346.1 99.5 347.2 98.5 348.5 98.5C349.6 98.5 350.7 99.5 350.6 100.6C350.6 101.4 350 102 349.2 102.4Z" fill="#212237"/>
<path d="M345.8 117.5C345.8 117.5 344 118.7 341.4 118.5C339.2 118.3 338.9 117.1 338.9 117.1C338.9 117.1 333.5 119.7 330.1 125.5C328 128.9 325.9 130.9 329.2 137.8C330.7 143.4 330.6 148.4 331.1 151.2C337.6 152.7 345.3 152.4 353.2 149.2C353.8 141.8 360.1 124.2 345.8 117.5Z" fill="#F2311D"/>
<path d="M330 125.5C327.9 128.9 325.8 130.9 329.1 137.8" stroke="#BA140C" stroke-width="0.5" stroke-miterlimit="10"/>
<path d="M337.4 130.2C337.4 130.2 333.1 136 327.1 138.9C321 141.9 302.6 144.8 302.6 144.8L303.8 151.9C303.8 151.9 322.9 151.5 330.8 148.8C341.3 145.2 347.6 136.6 347.6 136.6" fill="#F2B18F"/>
<path d="M342.3 121.4L335.7 131.9L346 140.3C346 140.3 351.2 134.3 353.1 129.5" fill="#F2311D"/>
<path d="M346 140.3C346 140.3 349.9 135.3 350.9 133.8" stroke="#BA140C" stroke-width="0.5" stroke-miterlimit="10"/>
<path d="M335.7 131.9C335.7 131.9 339.1 127.5 341.2 124.2" stroke="#BA140C" stroke-width="0.5" stroke-miterlimit="10"/>
<path d="M309.9 143.6C309.9 143.6 297.5 145.1 297.3 145.6C297.1 146.1 299.2 145.9 299 146.3C298.8 146.7 293.9 147.1 293.8 147.6C293.7 148.4 298.2 147.9 298.2 147.9C298.2 147.9 293.4 148.6 293.5 149.3C293.6 149.8 297.3 149.4 298.7 149.4C297.1 149.6 294.6 150.1 294.8 150.6C294.9 151.1 297.4 150.9 299.4 150.8C298.2 150.9 296 151.3 296.1 151.8C296.2 152.3 305.1 151.7 310.9 151.4" fill="#F2B18F"/>
<path d="M337 130.2L347.3 138.7" stroke="#BA140C" stroke-width="0.5" stroke-miterlimit="10"/>
</g>
<defs>
<clipPath id="clip0">
<rect width="444.6" height="246.5" fill="white"/>
</clipPath>
</defs>
</svg>
