<svg width="50" height="36" viewBox="0 0 50 36" fill="none" xmlns="http://www.w3.org/2000/svg">
<path d="M4.1901 13.7901C1.34366 5.51082 7.02542 1.42632 10.2221 0.418973C15.0477 -1.15477 19.2748 2.08204 20.7851 3.89716C21.4244 2.88032 23.6426 0.863725 27.4008 0.932149C31.159 1.00057 34.0814 4.11574 35.0729 5.66477C36.9631 4.38183 41.3551 4.49587 45.469 6.94771C48.7602 8.90918 49.861 13.8091 50 16.0138C48.9326 26.6651 40.9196 27.7313 37.0465 26.9331C36.611 27.6933 35.2285 29.4533 33.1827 30.4112C31.1368 31.3692 28.0309 30.8104 26.7337 30.4112C26.2704 32.2454 24.004 35.9307 18.6447 35.9992C13.2854 36.0676 10.7966 31.9603 10.2221 29.8981C8.66546 29.8125 1.2992 30.4112 0.159508 23.4549C-0.752243 17.8898 2.46668 14.6929 4.1901 13.7901Z" fill="#15A0DB"/>
</svg>
