<svg width="491" height="409" viewBox="0 0 491 409" fill="none" xmlns="http://www.w3.org/2000/svg">
<path d="M384.341 384.047C382.867 333.433 394.316 272.005 434.179 237.149C440.533 231.545 448.411 224.34 457.485 225C461.716 225.305 463.838 230.083 464.448 233.718C465.579 240.071 464.448 246.705 462.911 253.02C454.282 287.877 425.818 348.885 418.536 384.047" fill="url(#paint0_linear)"/>
<path d="M451.499 238.457C424.877 272.869 410.187 316.138 406.35 359.254C405.562 367.205 405.384 375.204 405.816 383.182C405.816 383.614 406.528 383.627 406.515 383.182C405.977 345.375 414.243 307.96 430.659 273.898C436.592 261.536 443.703 249.774 451.893 238.775C452.071 238.546 451.677 238.241 451.499 238.47V238.457Z" fill="#92D0FF"/>
<path d="M418.536 384.046C423.873 351.299 429.477 324.538 448.259 297.179C455.972 285.92 470.852 272.005 482.696 273.149C495.403 274.42 486.381 293.582 478.883 307.904C468.695 327.052 461.658 347.716 458.043 369.103C459.085 362.685 463.546 344.399 476.711 336.279C480.523 333.89 490.079 332.467 490.079 340.409C490.079 354.311 476.571 371.009 473.191 384.046" fill="url(#paint1_linear)"/>
<path d="M478.604 283.048C471.056 292.642 465.655 304.104 460.585 315.121C453.776 329.619 448.121 344.631 443.671 360.017C441.397 367.536 439.873 375.261 439.122 383.081C439.122 383.411 439.592 383.398 439.63 383.081C441.46 368.34 445.984 353.981 451.067 340.092C456.3 325.806 462.533 311.908 469.722 298.5C472.425 293.223 475.553 288.174 479.074 283.404C479.278 283.15 478.82 282.794 478.617 283.048H478.604Z" fill="#92D0FF"/>
<path d="M482.506 341.388C471.603 352.329 466.774 369.179 464.042 383.97C463.978 384.351 464.563 384.529 464.652 384.135C468.019 369.369 472.111 353.04 482.874 341.756C482.907 341.705 482.921 341.644 482.914 341.584C482.908 341.523 482.881 341.467 482.838 341.424C482.795 341.381 482.738 341.354 482.678 341.347C482.618 341.341 482.557 341.355 482.506 341.388V341.388Z" fill="#92D0FF"/>
<path d="M118.31 384.047C110.597 320.192 116.201 292.362 123.47 274.674C126.863 266.427 131.73 258.268 138.617 252.448C166.192 229.181 165.303 274.42 164.032 288.131C161.084 319.378 153.243 352.761 152.595 384.047" fill="url(#paint2_linear)"/>
<path d="M93.4677 384.046C92.5908 363.956 83.6194 344.361 72.1954 328.134C60.7715 311.906 44.9126 298.83 34.5814 281.701C29.041 272.526 20.2729 258.09 33.2345 250.568C47.6066 242.232 68.7263 250.974 80.2519 260.518C92.8196 270.887 101.079 285.589 107.98 300.101C120.166 325.732 122.606 355.658 122.796 383.97" fill="url(#paint3_linear)"/>
<path d="M96.1997 384.046C96.1997 363.6 85.8431 342.01 69.387 326.037C58.6365 315.604 45.7893 305.832 31.125 301.524C23.5005 299.288 2.22827 295.743 0.0934247 308.399C-0.707143 313.19 3.61338 322.199 13.9826 330.408C28.3929 341.845 68.1925 359.559 72.9959 384.046" fill="url(#paint4_linear)"/>
<path d="M9.85278 309.238C35.9919 316.506 60.6825 334.399 73.8728 358.314C78.2029 366.232 81.2726 374.776 82.9713 383.64C82.9713 383.983 83.5558 383.843 83.4923 383.5C78.5237 353.523 56.0697 329.671 29.5874 316.379C23.3169 313.202 16.7496 310.648 9.97985 308.755C9.92367 308.75 9.86753 308.765 9.82118 308.797C9.77483 308.829 9.74119 308.877 9.72609 308.931C9.711 308.985 9.7154 309.043 9.73854 309.095C9.76168 309.146 9.8021 309.188 9.85278 309.212V309.238Z" fill="#92D0FF"/>
<path d="M40.0961 258.738C53.3754 265.931 64.3165 277.393 73.0719 289.605C84.6822 306.036 93.2474 324.419 98.3597 343.878C101.775 356.881 103.953 370.177 104.866 383.589C104.866 384.161 105.806 384.173 105.781 383.589C103.938 343.357 88.702 300.533 59.17 272.259C53.5697 266.751 47.2317 262.046 40.3376 258.281C40.058 258.141 39.8166 258.548 40.0961 258.688V258.738Z" fill="#92D0FF"/>
<path d="M148.872 252.004C135.453 283.963 132.238 320.103 131.349 354.413C131.107 364.108 131.044 373.817 131.425 383.5C131.425 383.605 131.466 383.705 131.54 383.779C131.614 383.852 131.714 383.894 131.819 383.894C131.923 383.894 132.024 383.852 132.097 383.779C132.171 383.705 132.213 383.605 132.213 383.5C132.111 348.542 132.988 313.342 141.108 279.147C143.235 269.94 146.034 260.902 149.482 252.105C149.622 251.749 149.05 251.597 148.91 251.953L148.872 252.004Z" fill="#92D0FF"/>
<path d="M76.719 384.046C74.241 373.016 72.0808 361.516 65.4983 352.024C61.2032 345.81 52.4351 337.143 44.6327 337.283C38.8254 337.385 37.5039 342.963 38.1774 347.983C39.9564 361.16 47.2505 365.176 50.0842 379.421C48.6737 374.02 39.9183 355.277 32.2938 362.482C23.8815 370.335 36.4237 384.085 36.4237 384.085" fill="url(#paint5_linear)"/>
<path d="M35.4457 366.116C40.1337 371.449 43.8846 377.537 46.5393 384.123C46.5658 384.186 46.6145 384.237 46.6761 384.266C46.7377 384.296 46.808 384.302 46.8737 384.283C46.9394 384.264 46.9959 384.222 47.0327 384.164C47.0694 384.107 47.0837 384.038 47.073 383.97C45.2812 377.019 40.4905 371.034 35.7761 365.799C35.5728 365.583 35.2678 365.9 35.4457 366.116V366.116Z" fill="#92D0FF"/>
<path d="M47.5302 345.518C57.6961 356.077 62.2962 370.716 67.3157 384.11C67.3422 384.173 67.3909 384.224 67.4525 384.254C67.5141 384.283 67.5844 384.289 67.6501 384.27C67.7158 384.251 67.7723 384.209 67.809 384.152C67.8458 384.094 67.8601 384.025 67.8494 383.957C66.0486 377.93 63.8278 372.036 61.2034 366.32C57.7978 358.695 53.7568 351.071 47.8479 345.187C47.6446 344.984 47.3269 345.302 47.5302 345.518Z" fill="#92D0FF"/>
<path d="M300.789 279.935H303.331" stroke="#B3D3F4" stroke-miterlimit="10"/>
<path d="M308.401 279.934H444.472C449.816 280.029 455.126 279.059 460.091 277.079C465.056 275.1 469.577 272.151 473.39 268.405C477.203 264.659 480.232 260.191 482.299 255.262C484.367 250.333 485.431 245.042 485.431 239.696C485.431 234.351 484.367 229.06 482.299 224.131C480.232 219.201 477.203 214.733 473.39 210.988C469.577 207.242 465.056 204.293 460.091 202.313C455.126 200.334 449.816 199.363 444.472 199.458H137.715C132.055 199.455 126.628 197.204 122.627 193.201C118.626 189.198 116.379 183.77 116.379 178.11C116.379 172.451 118.627 167.024 122.628 163.023C126.629 159.022 132.056 156.774 137.715 156.774H395.472C400.4 156.646 405.084 154.599 408.525 151.068C411.965 147.537 413.891 142.802 413.891 137.872C413.891 132.942 411.965 128.207 408.525 124.676C405.084 121.145 400.4 119.097 395.472 118.97H159.61C156.853 118.97 154.209 117.874 152.259 115.925C150.31 113.976 149.215 111.332 149.215 108.575C149.215 105.818 150.31 103.174 152.259 101.225C154.209 99.2753 156.853 98.1802 159.61 98.1802H223.147H304C312 98.1802 315 98.1802 321.5 93.91L346.5 60" stroke="#B3D3F4" stroke-miterlimit="10" stroke-dasharray="3.99 3.99"/>
<path d="M225.637 98.1803H228.179" stroke="#B3D3F4" stroke-miterlimit="10"/>
<path d="M244.419 64.5691C239.819 63.7881 235.089 64.498 230.921 66.5952C226.753 68.6924 223.365 72.067 221.25 76.2264C219.136 80.3857 218.406 85.1121 219.168 89.7155C219.93 94.3188 222.143 98.5582 225.485 101.815L222.524 107.812L229.157 104.712C231.901 106.433 234.993 107.524 238.209 107.906C241.426 108.288 244.687 107.951 247.757 106.921C250.828 105.89 253.632 104.191 255.966 101.946C258.301 99.7013 260.109 96.9664 261.259 93.9385C262.409 90.9107 262.873 87.6654 262.618 84.4365C262.362 81.2076 261.394 78.0757 259.782 75.2664C258.17 72.4571 255.954 70.0404 253.296 68.1906C250.637 66.3408 247.601 65.1039 244.406 64.5691H244.419Z" fill="#F3FAFF"/>
<path d="M231.013 96.4521L228.738 93.7073C228.34 93.1973 228.15 92.5544 228.209 91.9097C228.268 91.265 228.571 90.6672 229.056 90.2381L231.661 88.0652C232.171 87.6663 232.814 87.4771 233.459 87.5361C234.103 87.5952 234.701 87.898 235.13 88.3829C235.13 88.3829 236.401 90.1873 237.748 89.8696C239.349 89.5011 242.831 86.9469 244.724 84.9773C245.995 83.5795 243.822 81.165 243.822 81.165C243.405 80.6627 243.204 80.0152 243.263 79.3648C243.323 78.7143 243.638 78.1141 244.14 77.6959L246.745 75.5229C246.993 75.3147 247.28 75.1576 247.589 75.0608C247.898 74.9639 248.223 74.9293 248.546 74.9588C248.868 74.9884 249.182 75.0815 249.468 75.2328C249.754 75.3842 250.008 75.5908 250.214 75.8406L252.476 78.5473C257.584 84.6215 235.461 101.751 231.013 96.4521Z" fill="#B3D3F4"/>
<path d="M339.801 97.7228C343.041 94.6095 344.388 91.3691 348.861 90.4033C349.788 90.2839 350.69 90.0135 351.53 89.6028C353.703 88.2431 353.258 85.1552 353.754 82.7153C354.707 77.9119 360.997 74.8749 365.597 76.9843C367.528 77.8738 369.282 79.5258 371.404 79.3606C375.674 79.0683 375.216 73.8074 378.076 70.8085C380.935 67.8095 386.437 67.6062 390.021 69.398C392.465 70.605 394.609 72.3414 396.298 74.4809C398.039 76.7301 397.963 80.1993 399.233 82.6772C400.504 85.1552 403.376 86.1082 404.66 88.4591C405.229 89.4066 405.573 90.4722 405.666 91.5738C405.759 92.6754 405.597 93.7836 405.193 94.8128C403.376 99.1842 398.026 102.336 393.185 102.336H327.729C327.729 102.336 336.192 101.217 339.801 97.7228Z" fill="#F3FAFF"/>
<path d="M182.992 66.6657C180.247 64.0353 179.103 61.3413 175.367 60.4899C174.584 60.3892 173.824 60.1572 173.118 59.8037C171.275 58.6601 171.657 56.055 171.237 53.9964C170.424 49.9301 165.112 47.3632 161.224 49.1422C159.597 49.8919 158.11 51.2771 156.306 51.15C152.71 50.9085 153.142 46.4609 150.677 43.9322C148.211 41.4034 143.599 41.2128 140.587 42.7377C138.519 43.7617 136.704 45.2332 135.275 47.0455C133.801 48.9516 133.877 51.887 132.734 53.971C131.59 56.055 129.227 56.881 128.146 58.8761C127.659 59.6756 127.365 60.5771 127.285 61.5099C127.206 62.4426 127.344 63.3811 127.689 64.2513C129.227 67.9492 133.75 70.605 137.855 70.605H193.183C193.183 70.605 186.08 69.6012 182.992 66.6657Z" fill="#F3FAFF"/>
<path d="M374.082 57.7553L335.629 37.182L345.757 7.12891L392.546 31.3493L374.082 57.7553Z" fill="#CFE0F5"/>
<path d="M392.546 31.3492L345.757 7.12887L379.114 0L392.546 31.3492Z" fill="#CFE0F5"/>
<path d="M388.99 26.4968L351.524 7.1012L335.143 38.7441L372.609 58.1397L388.99 26.4968Z" fill="#FFF4E1"/>
<path d="M345.757 7.12891L330 37.5505L360.714 35.53L345.757 7.12891Z" fill="#E6F1FC"/>
<path d="M392.545 31.3492L376.801 61.7835L360.713 35.53L392.545 31.3492Z" fill="#E6F1FC"/>
<g style="mix-blend-mode:multiply">
<path d="M376.801 61.7835L330 37.5504L365.581 26.2789L376.801 61.7835Z" fill="#E6F1FC"/>
</g>
<path d="M376.801 61.7835L330 37.5505L363.357 30.4343L376.801 61.7835Z" fill="#E6F1FC"/>
<path d="M129.62 139.136L98.2834 146.99L88.8799 125.463L126.608 115.462L129.62 139.136Z" fill="#CFE0F5"/>
<path d="M126.608 115.462L88.8799 125.463L103.633 104.953L126.608 115.462Z" fill="#CFE0F5"/>
<path d="M122.243 114.578L92.0376 122.581L98.7975 148.094L129.003 140.091L122.243 114.578Z" fill="#FFF4E1"/>
<path d="M88.8799 125.463L95.3861 149.988L111.22 133.596L88.8799 125.463Z" fill="#E6F1FC"/>
<path d="M126.608 115.462L133.115 140L111.22 133.596L126.608 115.462Z" fill="#E6F1FC"/>
<g style="mix-blend-mode:multiply">
<path d="M133.115 140L95.3862 149.988L109.288 126.098L133.115 140Z" fill="#E6F1FC"/>
</g>
<path d="M133.115 140L95.3862 149.988L110.14 129.479L133.115 140Z" fill="#E6F1FC"/>
<path d="M252.882 96.2996L254.051 94.4824C253.824 93.5207 253.713 92.5352 253.721 91.547C253.703 90.5853 253.88 89.6299 254.242 88.7387C254.534 88.5735 254.674 90.3652 254.801 90.289C254.928 90.2127 255.856 86.7182 256.377 86.7563C256.643 86.7563 255.729 90.1873 255.729 90.1873C255.729 90.1873 256.631 86.4894 256.999 86.6292C257.368 86.769 256.427 90.2763 256.427 90.2763C256.427 90.2763 257.292 86.9342 257.698 87.0359C258.105 87.1375 257.126 90.4033 257.126 90.4033C257.126 90.4033 257.99 87.506 258.181 87.6712C258.372 87.8364 258.181 89.9205 257.317 92.7542C257.164 93.2498 256.466 94.8636 256.427 94.9907L255.589 98.0532" fill="#FC8975"/>
<path d="M254.89 90.6829C255.228 91.1973 255.489 91.758 255.665 92.3475C255.786 93.0174 255.72 93.7078 255.474 94.3426C255.472 94.364 255.477 94.3855 255.488 94.404C255.499 94.4225 255.516 94.4371 255.536 94.4456C255.555 94.454 255.577 94.456 255.598 94.4512C255.619 94.4464 255.638 94.4351 255.652 94.4189C255.947 93.7951 256.045 93.0967 255.934 92.4159C255.823 91.7352 255.507 91.1043 255.03 90.6066C254.966 90.5177 254.826 90.6066 254.89 90.6829V90.6829Z" fill="#CC6658"/>
<path d="M212.93 315.147C212.93 315.147 219.716 317.688 219.767 319.633C219.767 320.789 209.906 320.751 209.296 319.988C208.305 318.718 210.02 315.401 210.02 315.401L212.93 315.147Z" fill="#352E72"/>
<path d="M212.777 309.53L212.93 315.312C212.853 315.6 212.691 315.858 212.464 316.051C212.237 316.244 211.956 316.363 211.659 316.392C210.655 316.519 209.969 315.401 209.969 315.401L209.677 308.158" fill="#FC8975"/>
<path d="M217.428 180.804C217.428 180.804 221.114 203.258 219.258 246.4C217.988 275.817 214.023 311.385 212.561 311.423C211.64 311.443 210.719 311.396 209.804 311.284C209.804 311.284 200.54 268.65 199.905 244.646C198.939 207.667 189.18 199.192 193.411 179.978" fill="url(#paint6_linear)"/>
<path d="M213.515 309.009L213.248 311.563L209.181 311.678L208.991 309.136L213.515 309.009Z" fill="#75A1E9"/>
<path d="M191.963 315.719C191.963 315.719 198.761 318.197 198.812 320.217C198.812 321.361 188.951 321.335 188.341 320.573C187.35 319.302 189.065 315.973 189.065 315.973L191.963 315.719Z" fill="#352E72"/>
<path d="M191.887 310.115L192.039 315.896C191.961 316.182 191.797 316.437 191.57 316.628C191.343 316.819 191.064 316.936 190.768 316.964C189.765 317.104 189.078 315.973 189.078 315.973L188.773 308.742" fill="#FC8975"/>
<path d="M205.433 181.134C205.433 181.134 203.692 209.688 201.506 242.651C200.642 255.676 193.157 310.115 192.102 311.919L188.405 312.021C188.405 312.021 182.775 264.902 182.152 240.859C181.174 203.881 177.197 199.42 181.428 180.207" fill="url(#paint7_linear)"/>
<path d="M192.662 309.581L192.382 312.135L188.328 312.249L188.125 309.708L192.662 309.581Z" fill="#75A1E9"/>
<path d="M204.594 195.57C204.594 195.57 203.158 232.053 200.489 253.427" stroke="#4A578E" stroke-width="0.5" stroke-miterlimit="10"/>
<path d="M209.321 105.106C206.996 101.014 200.718 101.637 197.122 103.505C192.039 106.16 190.768 113.734 186.041 116.962C183.944 118.398 181.39 119.236 179.687 121.168C178.748 122.348 178.129 123.75 177.89 125.24C177.652 126.729 177.803 128.255 178.328 129.669C179.401 132.486 181.417 134.843 184.033 136.341C186.61 137.808 189.408 138.846 192.319 139.416C196.906 140.47 201.798 141.042 206.297 139.492C210.795 137.942 214.62 133.786 214.607 128.97C214.607 124.891 211.913 121.092 212.384 117.038" fill="#081466"/>
<path d="M253.263 94.9144C253.263 94.9144 241.102 112.374 238.319 116.339C233.986 122.528 216.196 123.722 206.691 129.352L200.095 130.063C196.957 130.711 186.117 138.399 185.139 141.5C182.839 148.565 180.513 155.745 180.056 163.191C179.916 165.733 180.056 168.274 180.056 170.816C180.183 174.467 180.301 178.123 180.412 181.782C180.397 182.028 180.46 182.272 180.589 182.481C180.77 182.665 181.007 182.781 181.263 182.812C193.195 185.569 205.636 184.082 217.797 182.583C218.23 182.576 218.649 182.429 218.991 182.164C219.318 181.745 219.472 181.218 219.423 180.69C219.487 178.351 219.36 176.013 219.258 173.675C218.857 163.552 219.214 153.413 220.326 143.342C224.138 140.979 239.666 136.086 244.876 128.818C251.843 119.146 255.892 107.68 256.542 95.7785L253.263 94.9144Z" fill="url(#paint8_linear)"/>
<path d="M206.691 129.352L206.449 121.003L202.751 121.511L200.095 129.987C200.569 130.551 201.186 130.977 201.882 131.218C202.578 131.46 203.326 131.509 204.047 131.359C204.645 131.353 205.225 131.154 205.701 130.793C206.177 130.431 206.524 129.926 206.691 129.352V129.352Z" fill="#FC8975"/>
<path d="M198.787 117.584C198.532 114.465 199.437 111.361 201.328 108.867C203.044 106.948 206.284 106.669 208.661 106.986C209.493 107.067 210.285 107.38 210.948 107.889C213.299 109.833 213.146 114.331 212.981 117.089C212.905 119.447 212.102 121.724 210.681 123.608C210.246 124.198 209.669 124.67 209.004 124.98C207.78 125.418 206.467 125.547 205.182 125.357C203.896 125.166 202.677 124.661 201.633 123.887C200.749 123.091 200.039 122.119 199.549 121.034C199.059 119.95 198.8 118.775 198.787 117.584V117.584Z" fill="#FC8975"/>
<path d="M197.732 120.228C196.868 120.634 195.508 120.926 194.834 119.973C194.161 119.02 194.834 118.055 194.961 117.241C195.572 114.608 196.332 112.012 197.236 109.464C197.651 108.113 198.259 106.829 199.041 105.652C200.642 103.441 205.191 102.424 207.936 102.666C210.871 102.475 215.56 107.266 213.019 112.832C212.637 111.459 212.104 111.561 211.1 110.43C210.097 111.374 208.801 111.943 207.427 112.044C205.648 112.209 203.615 111.803 202.344 113.048C201.074 114.293 201.29 116.606 200.324 118.131C199.696 119.079 198.791 119.811 197.732 120.228V120.228Z" fill="#081466"/>
<path d="M200.782 118.144C200.813 118.002 200.815 117.856 200.787 117.714C200.759 117.572 200.702 117.437 200.62 117.317C200.538 117.198 200.432 117.097 200.309 117.021C200.186 116.944 200.048 116.894 199.905 116.873C198.558 116.72 198.151 118.855 198.634 119.821C199.028 120.533 200.007 121.092 200.515 120.253" fill="#FC8975"/>
<path d="M281.105 109.401L144.895 228.685V392.7H417.329V228.685L281.105 109.401Z" fill="url(#paint9_linear)"/>
<path d="M403.554 151.361H158.657V375.774H403.554V151.361Z" fill="url(#paint10_linear)"/>
<path d="M389.538 180.512H172.686V199.675H389.538V180.512Z" fill="white"/>
<path d="M389.538 208.659H172.686V227.821H389.538V208.659Z" fill="white"/>
<path d="M389.538 236.793H172.686V350.74H389.538V236.793Z" fill="white"/>
<path d="M184.039 190.629H182.885L181.021 187.389H180.995C181.032 187.961 181.051 188.369 181.051 188.613V190.629H180.239V186.346H181.385L183.245 189.554H183.266C183.236 188.997 183.222 188.604 183.222 188.373V186.346H184.039V190.629ZM187.742 190.629L187.432 189.609H185.87L185.56 190.629H184.581L186.093 186.328H187.203L188.721 190.629H187.742ZM187.215 188.848C186.928 187.924 186.766 187.401 186.729 187.28C186.693 187.159 186.668 187.063 186.652 186.993C186.588 187.243 186.403 187.861 186.099 188.848H187.215ZM191.076 190.629L190.045 187.269H190.019C190.056 187.952 190.074 188.408 190.074 188.637V190.629H189.263V186.346H190.499L191.513 189.621H191.53L192.605 186.346H193.842V190.629H192.995V188.602C192.995 188.506 192.996 188.396 192.998 188.271C193.002 188.146 193.016 187.813 193.039 187.274H193.013L191.908 190.629H191.076ZM197.39 190.629H194.923V186.346H197.39V187.09H195.831V188.03H197.281V188.774H195.831V189.879H197.39V190.629Z" fill="#EAC38F"/>
<path d="M182.706 219.424H180.239V215.141H182.706V215.885H181.147V216.825H182.598V217.569H181.147V218.674H182.706V219.424ZM185.416 219.424L184.385 216.063H184.358C184.396 216.747 184.414 217.203 184.414 217.432V219.424H183.603V215.141H184.839L185.853 218.416H185.87L186.945 215.141H188.182V219.424H187.335V217.396C187.335 217.301 187.336 217.19 187.338 217.065C187.342 216.94 187.355 216.608 187.379 216.069H187.353L186.248 219.424H185.416ZM191.885 219.424L191.574 218.404H190.013L189.702 219.424H188.724L190.235 215.123H191.346L192.863 219.424H191.885ZM191.357 217.643C191.07 216.719 190.908 216.196 190.871 216.075C190.836 215.954 190.811 215.858 190.795 215.788C190.73 216.038 190.546 216.656 190.241 217.643H191.357ZM193.405 219.424V215.141H194.313V219.424H193.405ZM195.392 219.424V215.141H196.3V218.674H198.037V219.424H195.392Z" fill="#EAC38F"/>
<path d="M182.053 247.545L181.021 244.185H180.995C181.032 244.869 181.051 245.325 181.051 245.553V247.545H180.239V243.262H181.476L182.489 246.538H182.507L183.582 243.262H184.818V247.545H183.972V245.518C183.972 245.422 183.973 245.312 183.975 245.187C183.979 245.062 183.992 244.73 184.016 244.191H183.989L182.885 247.545H182.053ZM188.366 247.545H185.899V243.262H188.366V244.006H186.808V244.947H188.258V245.691H186.808V246.795H188.366V247.545ZM191.791 246.356C191.791 246.743 191.651 247.047 191.372 247.27C191.095 247.493 190.708 247.604 190.212 247.604C189.755 247.604 189.351 247.518 188.999 247.346V246.502C189.288 246.631 189.532 246.722 189.731 246.775C189.933 246.828 190.116 246.854 190.282 246.854C190.481 246.854 190.634 246.816 190.739 246.74C190.847 246.664 190.9 246.55 190.9 246.4C190.9 246.316 190.877 246.242 190.83 246.177C190.783 246.111 190.714 246.047 190.622 245.987C190.532 245.926 190.348 245.83 190.068 245.697C189.807 245.574 189.61 245.456 189.479 245.342C189.349 245.229 189.244 245.097 189.166 244.947C189.088 244.796 189.049 244.621 189.049 244.419C189.049 244.041 189.177 243.743 189.433 243.526C189.69 243.309 190.046 243.201 190.499 243.201C190.722 243.201 190.934 243.227 191.135 243.28C191.338 243.333 191.55 243.407 191.771 243.502L191.478 244.208C191.249 244.115 191.06 244.049 190.909 244.012C190.761 243.975 190.614 243.957 190.47 243.957C190.298 243.957 190.166 243.997 190.074 244.077C189.982 244.157 189.937 244.261 189.937 244.39C189.937 244.47 189.955 244.541 189.992 244.601C190.029 244.66 190.088 244.717 190.168 244.774C190.25 244.829 190.442 244.928 190.745 245.073C191.146 245.264 191.42 245.457 191.568 245.65C191.717 245.841 191.791 246.077 191.791 246.356ZM195.189 247.545L194.879 246.526H193.317L193.007 247.545H192.028L193.54 243.245H194.65L196.168 247.545H195.189ZM194.662 245.764C194.375 244.84 194.213 244.318 194.176 244.197C194.141 244.076 194.115 243.98 194.1 243.91C194.035 244.16 193.851 244.778 193.546 245.764H194.662ZM198.336 245.14H200.035V247.361C199.76 247.451 199.5 247.513 199.256 247.548C199.014 247.585 198.766 247.604 198.512 247.604C197.865 247.604 197.371 247.415 197.029 247.036C196.689 246.655 196.52 246.109 196.52 245.398C196.52 244.707 196.717 244.167 197.111 243.781C197.508 243.394 198.057 243.201 198.758 243.201C199.197 243.201 199.621 243.289 200.029 243.464L199.728 244.191C199.415 244.035 199.09 243.957 198.752 243.957C198.359 243.957 198.045 244.088 197.809 244.352C197.572 244.616 197.454 244.97 197.454 245.416C197.454 245.88 197.549 246.236 197.738 246.482C197.93 246.726 198.207 246.848 198.57 246.848C198.76 246.848 198.952 246.829 199.147 246.79V245.896H198.336V245.14ZM203.524 247.545H201.058V243.262H203.524V244.006H201.966V244.947H203.416V245.691H201.966V246.795H203.524V247.545Z" fill="#EAC38F"/>
<path d="M251.977 164.521C251.872 165.423 251.538 166.12 250.975 166.613C250.417 167.101 249.673 167.345 248.743 167.345C247.735 167.345 246.927 166.984 246.317 166.261C245.712 165.538 245.409 164.572 245.409 163.361V162.54C245.409 161.747 245.55 161.05 245.831 160.448C246.116 159.847 246.518 159.386 247.038 159.066C247.557 158.741 248.159 158.579 248.843 158.579C249.749 158.579 250.475 158.833 251.022 159.341C251.569 159.845 251.887 160.544 251.977 161.439H250.846C250.749 160.759 250.536 160.267 250.208 159.962C249.884 159.657 249.428 159.505 248.843 159.505C248.124 159.505 247.559 159.771 247.149 160.302C246.743 160.833 246.54 161.589 246.54 162.57V163.396C246.54 164.322 246.733 165.058 247.12 165.605C247.507 166.152 248.048 166.425 248.743 166.425C249.368 166.425 249.846 166.284 250.178 166.003C250.514 165.718 250.737 165.224 250.846 164.521H251.977ZM260.081 163.238C260.081 164.073 259.94 164.804 259.659 165.429C259.378 166.05 258.979 166.525 258.464 166.853C257.948 167.181 257.346 167.345 256.659 167.345C255.987 167.345 255.391 167.181 254.872 166.853C254.352 166.521 253.948 166.05 253.659 165.441C253.374 164.827 253.227 164.118 253.219 163.314V162.698C253.219 161.878 253.362 161.154 253.647 160.525C253.932 159.896 254.335 159.415 254.854 159.083C255.378 158.747 255.975 158.579 256.647 158.579C257.331 158.579 257.932 158.745 258.452 159.077C258.975 159.406 259.378 159.884 259.659 160.513C259.94 161.138 260.081 161.866 260.081 162.698V163.238ZM258.962 162.687C258.962 161.675 258.759 160.9 258.352 160.361C257.946 159.818 257.378 159.546 256.647 159.546C255.936 159.546 255.376 159.818 254.966 160.361C254.559 160.9 254.35 161.65 254.339 162.611V163.238C254.339 164.218 254.544 164.99 254.954 165.552C255.368 166.111 255.936 166.39 256.659 166.39C257.385 166.39 257.948 166.126 258.346 165.599C258.745 165.068 258.95 164.308 258.962 163.32V162.687ZM268.325 167.228H267.194L262.899 160.654V167.228H261.768V158.697H262.899L267.206 165.3V158.697H268.325V167.228ZM276.042 159.622H273.3V167.228H272.18V159.622H269.444V158.697H276.042V159.622ZM281.55 165.001H277.975L277.173 167.228H276.012L279.27 158.697H280.255L283.518 167.228H282.364L281.55 165.001ZM278.315 164.075H281.216L279.762 160.085L278.315 164.075ZM290.872 164.521C290.766 165.423 290.432 166.12 289.87 166.613C289.311 167.101 288.567 167.345 287.637 167.345C286.63 167.345 285.821 166.984 285.212 166.261C284.606 165.538 284.303 164.572 284.303 163.361V162.54C284.303 161.747 284.444 161.05 284.725 160.448C285.01 159.847 285.413 159.386 285.932 159.066C286.452 158.741 287.053 158.579 287.737 158.579C288.643 158.579 289.37 158.833 289.917 159.341C290.464 159.845 290.782 160.544 290.872 161.439H289.741C289.643 160.759 289.43 160.267 289.102 159.962C288.778 159.657 288.323 159.505 287.737 159.505C287.018 159.505 286.454 159.771 286.044 160.302C285.637 160.833 285.434 161.589 285.434 162.57V163.396C285.434 164.322 285.628 165.058 286.014 165.605C286.401 166.152 286.942 166.425 287.637 166.425C288.262 166.425 288.741 166.284 289.073 166.003C289.409 165.718 289.632 165.224 289.741 164.521H290.872ZM298.132 159.622H295.389V167.228H294.27V159.622H291.534V158.697H298.132V159.622ZM308.145 158.697V164.497C308.141 165.302 307.887 165.96 307.384 166.472C306.884 166.984 306.204 167.271 305.344 167.333L305.046 167.345C304.112 167.345 303.368 167.093 302.813 166.589C302.259 166.085 301.977 165.392 301.969 164.509V158.697H303.083V164.474C303.083 165.091 303.253 165.572 303.593 165.915C303.932 166.255 304.417 166.425 305.046 166.425C305.682 166.425 306.169 166.255 306.505 165.915C306.844 165.575 307.014 165.097 307.014 164.48V158.697H308.145ZM312.434 163.425C311.469 163.148 310.766 162.808 310.325 162.406C309.887 161.999 309.669 161.499 309.669 160.906C309.669 160.234 309.936 159.679 310.471 159.241C311.01 158.8 311.71 158.579 312.569 158.579C313.155 158.579 313.677 158.693 314.134 158.919C314.594 159.146 314.95 159.458 315.2 159.857C315.454 160.255 315.581 160.691 315.581 161.163H314.45C314.45 160.648 314.286 160.243 313.958 159.95C313.63 159.654 313.167 159.505 312.569 159.505C312.014 159.505 311.581 159.628 311.268 159.874C310.96 160.116 310.805 160.454 310.805 160.888C310.805 161.236 310.952 161.531 311.245 161.773C311.542 162.011 312.044 162.23 312.751 162.429C313.462 162.628 314.016 162.849 314.415 163.091C314.817 163.329 315.114 163.609 315.305 163.929C315.501 164.249 315.598 164.626 315.598 165.06C315.598 165.751 315.329 166.306 314.79 166.724C314.251 167.138 313.53 167.345 312.628 167.345C312.042 167.345 311.495 167.234 310.987 167.011C310.479 166.784 310.087 166.476 309.809 166.085C309.536 165.695 309.399 165.251 309.399 164.755H310.53C310.53 165.271 310.719 165.679 311.098 165.98C311.481 166.277 311.991 166.425 312.628 166.425C313.221 166.425 313.677 166.304 313.993 166.062C314.309 165.82 314.468 165.49 314.468 165.072C314.468 164.654 314.321 164.331 314.028 164.105C313.735 163.874 313.204 163.648 312.434 163.425Z" fill="#EAC38F"/>
<g style="mix-blend-mode:multiply" opacity="0.55">
<path d="M281.105 332.81L144.895 228.686V375.774H417.329V228.686L281.105 332.81Z" fill="#C9D3F4"/>
</g>
<path d="M281.105 349.762L144.895 228.686V392.7H417.329V228.686L281.105 349.762Z" fill="url(#paint11_linear)"/>
<g style="mix-blend-mode:multiply" opacity="0.35">
<path d="M281.105 264.279L144.895 392.7H417.329L281.105 264.279Z" fill="#C9D3F4"/>
</g>
<path d="M281.105 276.796L144.895 392.7H417.329L281.105 276.796Z" fill="url(#paint12_linear)"/>
<path d="M370.21 400.655C367.452 386.283 370.337 371.53 376.068 359.254C379.88 351.21 388.483 340.015 398.128 340.193C405.308 340.32 408.294 347.538 408.726 354.032C409.819 371.059 401.813 376.257 401.864 394.695C402.258 387.719 409.005 365.074 419.54 372.8C429.858 380.361 419.807 400.68 419.807 400.68" fill="url(#paint13_linear)"/>
<path d="M416.567 377.159C412.221 384.237 408.256 392.205 407.9 400.655C407.9 400.96 408.396 401.049 408.434 400.731C409.755 392.476 412.65 384.551 416.961 377.388C416.985 377.336 416.989 377.277 416.971 377.223C416.954 377.168 416.917 377.122 416.868 377.094C416.819 377.065 416.761 377.056 416.705 377.068C416.649 377.08 416.6 377.113 416.567 377.159V377.159Z" fill="#92D0FF"/>
<path d="M397.34 350.524C391.698 358.517 389.042 368.454 387.022 377.896C385.384 385.398 384.25 393.001 383.629 400.655C383.629 400.96 384.137 401.036 384.175 400.731C386.513 384.072 387.988 365.049 397.734 350.753C397.899 350.512 397.505 350.295 397.34 350.524V350.524Z" fill="#92D0FF"/>
<path d="M190.184 168.884C190.886 169.423 191.666 169.852 192.497 170.155C193.712 169.971 194.941 169.89 196.169 169.914C196.932 169.99 198.889 170.422 198.99 170.74C199.092 171.057 197.224 170.994 197.275 171.133C197.326 171.273 200.795 172.557 200.642 173.078C200.566 173.345 197.199 172.087 197.199 172.087C197.199 172.087 200.871 173.357 200.655 173.764C200.439 174.171 196.97 172.824 196.97 172.824C196.97 172.824 200.287 174.094 200.109 174.374C199.931 174.653 196.678 173.853 196.678 173.853C196.678 173.853 199.499 174.463 199.346 174.806C197.351 174.729 195.384 174.299 193.539 173.535C191.95 172.916 190.447 172.096 189.066 171.095" fill="#FC8975"/>
<path d="M191.391 144.041C188.329 148.692 181.225 154.067 177.413 157.359C179.65 160.396 192.332 169.875 192.332 169.875L191.163 172.697C191.163 172.697 167.018 168.351 166.218 156.418C165.76 149.277 174.795 138.755 181.81 133.812C188.392 129.174 196.093 128.424 200.147 130" fill="url(#paint14_linear)"/>
<path d="M368.355 196.091C365.686 194.998 361.887 191.758 362.332 189.902C362.522 189.115 364.39 191.262 364.873 190.728C365.216 190.385 364.937 188.797 363.971 188.034C363.005 187.272 361.01 185.849 361.506 185.353C362.001 184.858 366.881 185.95 367.974 187.602C368.929 189.446 369.578 191.433 369.892 193.486L371.913 196.027" fill="#FC8975"/>
<path d="M419.477 403.489C419.477 403.489 411.166 406.03 411.179 407.898C411.179 408.991 423.391 408.699 424.128 407.962C425.297 406.793 423.073 403.654 423.073 403.654L419.477 403.489Z" fill="#352E72"/>
<path d="M419.477 398.19V403.654C419.61 403.949 419.826 404.199 420.1 404.372C420.373 404.546 420.69 404.637 421.014 404.632C421.41 404.641 421.802 404.557 422.159 404.387C422.517 404.217 422.829 403.966 423.073 403.654L423.213 396.817" fill="#FC8975"/>
<path d="M409.565 276.821C409.565 276.821 405.753 298.106 409.413 338.706C411.954 366.447 418.003 399.905 419.807 399.905C420.945 399.901 422.082 399.833 423.213 399.702C423.213 399.702 433.277 359.229 433.277 336.546C433.277 301.639 445.044 293.341 439.199 275.36" fill="url(#paint15_linear)"/>
<path d="M418.549 397.72L418.968 400.109H423.988L424.14 397.72H418.549Z" fill="#75A1E9"/>
<path d="M445.4 403.489C445.4 403.489 437.076 406.03 437.089 407.898C437.089 408.991 449.301 408.699 450.038 407.962C451.22 406.793 448.996 403.654 448.996 403.654L445.4 403.489Z" fill="#352E72"/>
<path d="M445.399 398.19V403.654C445.533 403.949 445.749 404.199 446.022 404.372C446.296 404.546 446.613 404.637 446.937 404.632C447.333 404.641 447.725 404.557 448.082 404.387C448.44 404.217 448.752 403.966 448.996 403.654L449.123 396.817" fill="#FC8975"/>
<path d="M424.432 276.821C424.432 276.821 427.508 303.723 431.294 334.78C432.781 347.043 443.798 398.228 445.158 399.905H449.733C449.733 399.905 455.146 355.29 455.146 332.556C455.146 297.636 459.924 293.316 454.066 275.296" fill="url(#paint16_linear)"/>
<path d="M444.345 397.72L444.764 400.109H449.784L449.936 397.72H444.345Z" fill="#75A1E9"/>
<path d="M425.958 290.431C425.958 290.431 428.918 324.83 432.908 344.933" stroke="#4A578E" stroke-width="0.5" stroke-miterlimit="10"/>
<path d="M455.197 272.361C455.197 270.137 456.926 231.773 450.267 223.094C448.386 219.066 441.372 214.491 435.857 212.509C430.964 210.755 427.876 212.115 425.691 212.445C416.325 209.752 394.913 211.556 388.979 208.506C385.7 206.816 370.413 193.575 370.413 193.575L367.554 195.799C367.554 195.799 376.691 214.86 386.958 221.557C394.189 226.246 404.901 228.851 410.632 229.994C410.543 231.036 410.48 232.193 410.416 233.476C410.111 240.326 409.324 252.359 410.124 272.361C410.188 274.267 408.129 276.694 408.129 277.965C408.129 279.236 410.569 283.251 431.168 283.251C448.628 283.251 456.926 280.71 456.926 277.774C456.926 274.839 455.197 274.585 455.197 272.361Z" fill="url(#paint17_linear)"/>
<g style="mix-blend-mode:multiply" opacity="0.75">
<path style="mix-blend-mode:multiply" opacity="0.75" d="M411.065 222.141C411.215 223.449 411.244 224.767 411.154 226.08C411.08 227.399 410.893 228.708 410.594 229.994C410.448 228.682 410.423 227.359 410.518 226.042C410.586 224.728 410.769 223.423 411.065 222.141V222.141Z" fill="url(#paint18_linear)"/>
</g>
<path d="M424.432 188.949C423.657 192.025 421.751 200.488 423.504 203.144C424.46 204.393 425.808 205.284 427.332 205.674C428.856 206.063 430.466 205.929 431.904 205.291C433.319 204.611 434.571 203.633 435.573 202.425C436.575 201.216 437.305 199.806 437.711 198.289C438.508 195.244 438.749 192.08 438.423 188.949" fill="#FC8975"/>
<path d="M427.736 200.145L426.466 210.4C426.466 210.4 426.91 213.271 428.473 214.377C429.672 214.273 430.825 213.87 431.826 213.204C432.828 212.538 433.646 211.63 434.204 210.565L433.048 197.362" fill="#FC8975"/>
<path d="M434.497 191.758C432.514 191.046 429.782 191.3 427.292 190.881C425.519 190.746 423.77 190.396 422.082 189.839C419.108 188.568 419.388 184.057 421.802 182.342C422.122 182.071 422.492 181.868 422.891 181.744C423.291 181.619 423.711 181.576 424.128 181.617C424.992 181.821 425.309 182.736 426.084 183.079C426.486 183.246 426.923 183.307 427.355 183.257C427.687 183.235 428.006 183.116 428.27 182.913C428.69 182.545 428.855 181.96 429.274 181.643C429.674 181.268 430.172 181.012 430.71 180.906C431.291 180.752 431.898 180.718 432.492 180.808C433.087 180.898 433.657 181.108 434.166 181.427C434.478 181.706 434.829 181.937 435.208 182.113C435.882 182.21 436.542 182.381 437.178 182.621C438.007 183.201 438.695 183.958 439.194 184.837C439.693 185.716 439.99 186.696 440.063 187.704C440.063 187.996 440.558 188.276 440.723 188.479C441.442 189.481 441.929 190.63 442.149 191.843C442.369 193.057 442.316 194.304 441.994 195.494C441.72 197.895 440.571 200.112 438.767 201.72C437.982 202.215 437.124 202.584 436.225 202.813C432.781 204.02 434.535 194.553 434.37 191.821" fill="#352E72"/>
<path d="M434.967 197.057C434.995 196.873 435.067 196.698 435.178 196.549C435.29 196.4 435.436 196.28 435.604 196.201C435.773 196.122 435.958 196.085 436.144 196.095C436.33 196.105 436.511 196.16 436.67 196.256C436.862 196.369 437.025 196.525 437.144 196.713C437.263 196.901 437.336 197.115 437.356 197.336C437.383 197.894 437.226 198.445 436.909 198.904C436.593 199.363 436.133 199.705 435.602 199.878C435.158 199.967 434.688 199.395 434.662 198.963" fill="#FC8975"/>
<path d="M431.358 203.194C431.692 203.169 432.023 203.118 432.349 203.042C433.362 202.819 434.263 202.242 434.891 201.415C435.137 201.122 435.28 200.756 435.297 200.373C435.299 200.354 435.297 200.334 435.29 200.316C435.284 200.298 435.274 200.281 435.261 200.266C435.248 200.252 435.232 200.24 435.214 200.233C435.196 200.225 435.177 200.221 435.157 200.221C435.116 200.221 435.076 200.236 435.045 200.265C435.014 200.293 434.995 200.332 434.992 200.373C434.974 200.691 434.854 200.994 434.649 201.238C434.067 202.005 433.228 202.537 432.286 202.737C431.358 202.925 430.407 202.976 429.465 202.89C429.423 202.889 429.383 202.905 429.352 202.933C429.321 202.962 429.303 203 429.299 203.042C429.299 203.082 429.315 203.121 429.344 203.15C429.373 203.178 429.411 203.194 429.452 203.194C430.086 203.245 430.724 203.245 431.358 203.194V203.194Z" fill="#081466"/>
<path d="M428.753 202.661C428.888 202.604 429.032 202.575 429.178 202.575C429.325 202.575 429.469 202.604 429.604 202.661C430.583 202.966 429.528 204.198 428.651 203.563C428.576 203.516 428.515 203.45 428.473 203.372C428.442 203.308 428.424 203.237 428.422 203.165C428.419 203.094 428.431 203.022 428.457 202.955C428.484 202.889 428.524 202.828 428.574 202.777C428.625 202.726 428.686 202.687 428.753 202.661V202.661Z" fill="#081466"/>
<path d="M437.851 192.952C437.637 190.706 436.82 188.559 435.488 186.738C433.772 184.591 431.485 182.824 429.286 182.824C428.348 182.784 427.41 182.931 426.529 183.256C428.829 183.79 430.917 184.998 432.527 186.726C434.329 188.603 435.363 191.087 435.424 193.689" fill="#75A1E9"/>
<path d="M432.298 196.498C432.278 197.288 432.488 198.067 432.904 198.74C433.32 199.413 433.922 199.95 434.638 200.285C435.355 200.621 436.153 200.74 436.936 200.629C437.719 200.517 438.452 200.18 439.046 199.658C439.641 199.136 440.07 198.453 440.281 197.691C440.493 196.929 440.478 196.122 440.238 195.368C439.998 194.615 439.543 193.948 438.93 193.449C438.316 192.949 437.571 192.64 436.784 192.558C435.667 192.489 434.569 192.864 433.728 193.602C432.887 194.34 432.373 195.381 432.298 196.498V196.498Z" fill="#75A1E9"/>
<path d="M434.204 196.841C434.217 197.354 434.377 197.852 434.666 198.276C434.954 198.7 435.359 199.032 435.831 199.232C436.304 199.432 436.824 199.492 437.329 199.404C437.835 199.316 438.304 199.084 438.681 198.737C439.058 198.389 439.327 197.94 439.456 197.443C439.584 196.946 439.566 196.423 439.405 195.936C439.244 195.449 438.945 195.019 438.546 194.697C438.146 194.375 437.662 194.175 437.152 194.121C436.401 194.094 435.67 194.364 435.118 194.874C434.566 195.383 434.237 196.09 434.204 196.841V196.841Z" fill="#A2C0ED"/>
<path d="M428.537 269.553H387.428L383.4 244.709C383.357 244.46 383.37 244.205 383.436 243.961C383.503 243.717 383.622 243.491 383.786 243.299C383.95 243.106 384.153 242.952 384.383 242.846C384.613 242.741 384.863 242.687 385.116 242.689H421.764C422.44 242.687 423.095 242.926 423.61 243.364C424.125 243.802 424.466 244.41 424.572 245.078L428.537 269.553Z" fill="#A2C0ED"/>
<path d="M427.342 269.552H386.234L382.206 244.709C382.165 244.461 382.179 244.206 382.247 243.963C382.314 243.72 382.434 243.495 382.597 243.303C382.76 243.111 382.963 242.957 383.192 242.851C383.42 242.745 383.669 242.689 383.921 242.689H420.62C421.296 242.687 421.951 242.926 422.466 243.364C422.981 243.802 423.322 244.41 423.429 245.078L427.342 269.552Z" fill="url(#paint19_linear)"/>
<path d="M406.896 255.46C406.439 253.363 404.851 251.889 403.338 252.156C401.826 252.423 400.949 254.329 401.407 256.426C401.864 258.522 403.44 260.009 404.965 259.742C406.49 259.476 407.341 257.557 406.896 255.46Z" fill="#ABD1FF"/>
<path style="mix-blend-mode:multiply" opacity="0.75" d="M450.267 223.094C448.386 219.066 443.405 217.351 437.852 215.368L436.327 234.137C437.137 241.181 438.41 248.164 440.139 255.041L422.908 268.002C422.697 268.156 422.466 268.28 422.222 268.371C421.993 268.371 420.316 267.418 419.439 267.57C418.562 267.723 417.533 267.786 417.533 268.104C417.533 268.422 418.892 268.46 418.892 268.765C418.892 269.07 417.977 269.667 417.558 269.667C416.556 269.571 415.548 269.571 414.546 269.667C414.381 269.845 415.067 270.938 415.741 271.548C416.385 271.988 417.135 272.247 417.914 272.297C419.501 272.263 421.071 271.971 422.565 271.433C423.11 271.077 423.675 270.751 424.255 270.455L424.827 271.535C424.827 271.535 448.259 269.667 455.324 266.452C455.553 255.015 455.502 229.88 450.267 223.094Z" fill="url(#paint20_linear)"/>
<path d="M424.432 267.138C423.747 267.562 423.033 267.94 422.297 268.269C421.408 267.908 420.47 267.681 419.514 267.596C418.625 267.723 417.608 267.774 417.608 268.053C417.608 268.333 418.968 268.358 418.968 268.612C418.968 268.866 418.053 269.387 417.634 269.387C416.632 269.304 415.624 269.304 414.622 269.387C414.457 269.54 415.143 270.48 415.817 271.001C416.482 271.378 417.226 271.595 417.99 271.637C419.568 271.61 421.134 271.358 422.64 270.887C423.263 270.506 425.944 269.324 425.944 269.324" fill="#FC8975"/>
<path d="M435.869 212.509C435.869 212.509 447.903 213.271 453.66 224.39C459.416 235.509 457.586 259.196 454.092 262.691C450.597 266.185 423.924 270.544 423.924 270.544L422.908 268.104L441.651 256.388C441.651 256.388 435.869 236.78 435.869 228.838" fill="url(#paint21_linear)"/>
<path d="M428.537 214.377C429.42 215.531 430.114 216.818 430.595 218.189C434.598 216.918 435.844 212.458 435.844 212.458L434.255 210.565C434.255 210.565 431.116 213.869 428.537 214.377Z" fill="url(#paint22_linear)"/>
<path d="M428.537 214.377C427.65 215.316 426.967 216.427 426.529 217.643C425.513 216.626 424.763 212.954 424.865 212.56C425.373 211.785 426.529 210.45 426.529 210.45C426.788 211.932 427.487 213.3 428.537 214.377V214.377Z" fill="url(#paint23_linear)"/>
<path d="M78.4601 402.345C78.4601 402.345 70.1494 404.887 70.1494 406.767C70.1494 407.847 82.374 407.568 83.0983 406.831C84.2801 405.649 82.1833 402.091 82.1833 402.091L78.4601 402.345Z" fill="#352E73"/>
<path d="M78.4604 397.046V402.51C78.592 402.808 78.8076 403.06 79.0809 403.236C79.3541 403.412 79.673 403.504 79.998 403.501C80.3947 403.508 80.7875 403.422 81.145 403.25C81.5025 403.078 81.8147 402.825 82.0566 402.51L82.1837 395.674" fill="#FC8975"/>
<path d="M81.2176 246.921C75.6391 254.151 69.0693 274.597 69.0693 313.406C69.0693 340.828 77.9645 398.279 77.9645 398.279L83.0475 398.698C99.3003 296.022 93.8107 297.039 97.8771 278.829C100.419 267.392 95.2466 238.546 95.2466 238.546" fill="url(#paint24_linear)"/>
<path style="mix-blend-mode:multiply" opacity="0.35" d="M94.6747 311.398C94.6747 311.398 91.1674 291.918 91.1674 287.94C89.6545 296.378 89.6545 305.018 91.1674 313.457C92.2857 318.768 93.442 323.966 93.442 323.966L94.6747 311.398Z" fill="url(#paint25_linear)"/>
<path d="M77.7485 396.855V399.028C77.7485 399.028 83.0602 399.918 83.0602 399.588C83.0602 399.257 83.3017 397.046 83.3017 397.046L77.7485 396.855Z" fill="#75A1E9"/>
<path d="M122.809 402.345C122.809 402.345 131.12 404.887 131.12 406.767C131.12 407.847 118.895 407.568 118.171 406.831C116.989 405.649 119.086 402.091 119.086 402.091L122.809 402.345Z" fill="#352E73"/>
<path d="M121.881 397.046L122.809 402.51C122.677 402.808 122.462 403.06 122.188 403.236C121.915 403.412 121.596 403.504 121.271 403.501C120.875 403.508 120.482 403.422 120.124 403.25C119.767 403.078 119.455 402.825 119.213 402.51L118.183 395.674" fill="#FC8975"/>
<path d="M108.259 243.668C113.774 252.931 123.508 272.03 123.508 310.839C123.508 338.274 122.784 398.253 122.784 398.253L118.425 398.698C104.409 359.496 92.7686 309.543 89.973 280.455C88.8802 268.79 90.9769 238.521 90.9769 238.521" fill="url(#paint26_linear)"/>
<path style="mix-blend-mode:multiply" opacity="0.35" d="M108.907 244.773C102.978 242.988 96.9481 241.554 90.8498 240.478C90.8498 240.707 90.8498 240.948 90.8498 241.202L81.2684 246.921C79.8804 248.818 78.7163 250.869 77.7993 253.033C81.7413 254.539 85.88 255.467 90.0874 255.79C98.0168 256.489 107.878 254.939 112.961 252.563C111.741 249.9 110.389 247.3 108.907 244.773V244.773Z" fill="url(#paint27_linear)"/>
<path d="M123.533 396.449V398.622C123.533 398.622 117.955 399.511 117.955 399.181C117.955 398.851 117.701 396.639 117.701 396.639L123.533 396.449Z" fill="#75A1E9"/>
<path d="M151.909 223.234L153.764 222.256C154.005 221.371 154.351 220.517 154.794 219.714C155.124 219.104 156.179 217.605 156.496 217.605C156.814 217.605 156.141 219.155 156.268 219.155C156.395 219.155 158.809 216.613 159.19 216.944C159.406 217.084 157.119 219.485 157.119 219.485C157.119 219.485 159.533 216.817 159.826 217.122C160.118 217.427 157.704 219.892 157.704 219.892C157.704 219.892 159.94 217.503 160.245 217.757C160.55 218.011 158.263 220.299 158.263 220.299C158.263 220.299 160.283 218.278 160.372 218.507C160.461 218.736 159.343 220.362 157.373 222.319C157.03 222.662 155.708 223.679 155.62 223.78L153.548 225.941" fill="#FC8975"/>
<path d="M156.077 219.473C156.141 220.066 156.115 220.666 156.001 221.252C155.795 221.843 155.435 222.37 154.959 222.777C154.883 222.853 154.959 222.993 155.073 222.929C155.606 222.542 156.005 221.999 156.215 221.375C156.424 220.751 156.434 220.077 156.242 219.447C156.242 219.358 156.077 219.447 156.077 219.447V219.473Z" fill="#CC6658"/>
<path d="M34.3146 188.962L33.0438 187.335C33.1795 186.414 33.2093 185.481 33.1328 184.553C33.0721 183.664 32.8253 182.798 32.4084 182.011C32.1162 181.884 32.1289 183.574 32.0018 183.523C31.8747 183.472 30.7311 180.232 30.2101 180.321C30.3767 181.411 30.671 182.477 31.0869 183.498C31.0869 183.498 29.9432 180.092 29.5493 180.245C29.1553 180.397 30.388 183.638 30.388 183.638C30.388 183.638 29.2951 180.55 28.9647 180.689C28.6343 180.829 29.7653 183.816 29.7653 183.816C29.7653 183.816 28.7106 181.147 28.4946 181.274C28.2785 181.401 28.7106 183.383 29.7653 185.976C29.9432 186.421 30.7438 187.895 30.7946 188.009C30.8454 188.123 31.8239 190.83 31.8239 190.83" fill="#FC8975"/>
<path d="M31.7729 183.765C31.3516 184.264 31.096 184.882 31.0413 185.533C30.9867 186.184 31.1358 186.836 31.468 187.399C31.468 187.488 31.6713 187.399 31.6332 187.399C31.3688 186.85 31.2506 186.241 31.2901 185.633C31.4004 185.024 31.6154 184.44 31.9254 183.905C31.9288 183.886 31.9259 183.866 31.9173 183.849C31.9086 183.832 31.8947 183.818 31.8776 183.81C31.8605 183.801 31.841 183.798 31.8222 183.802C31.8033 183.805 31.7861 183.814 31.7729 183.828V183.765Z" fill="#CC6658"/>
<path d="M153.18 222.471C153.18 222.471 134.958 229.181 130.828 229.181C127.409 229.181 121.602 219.955 113.546 213.665C110.271 211.182 106.676 209.152 102.859 207.629L87.6098 207.312C82.9882 207.417 78.3764 207.786 73.7968 208.417C66.1723 209.446 59.1451 209.103 55.8539 207.629C49.5002 204.77 33.4888 187.602 33.4888 187.602C32.9567 187.533 32.4156 187.592 31.9113 187.776C31.407 187.959 30.9543 188.262 30.5916 188.657C30.5916 189.508 38.8133 212.979 49.6527 220.006C57.633 225.178 69.2475 226.017 76.5035 225.966V230.808C76.5035 233.184 73.6443 244.926 77.0118 248.293C80.1124 251.381 91.9049 251.775 96.5177 251.775C103.342 251.775 110.331 250.695 112.084 248.293C112.948 247.098 112.821 241.749 112.554 236.856C118.019 240.287 122.962 243.718 129.265 243.718C141.07 243.718 154.959 225.254 154.959 225.254L153.18 222.471Z" fill="url(#paint28_linear)"/>
<path style="mix-blend-mode:multiply" opacity="0.75" d="M112.745 240.262L112.592 236.856L107.484 231.684L112.745 240.262Z" fill="url(#paint29_linear)"/>
<path style="mix-blend-mode:multiply" opacity="0.75" d="M76.5415 225.966C76.5415 225.369 77.5581 219.511 77.5581 218.583C76.0332 221.887 73.7458 225.941 73.7458 225.941L76.5415 225.966Z" fill="url(#paint30_linear)"/>
<path d="M100.253 180.321C104.548 183.002 103.811 188.467 105.552 191.885C106.823 194.35 108.767 196.447 108.958 199.382C109.161 202.584 104.993 204.084 102.757 203.741C98.3852 203.067 94.6365 205.291 90.2398 204.757C87.2408 204.389 88.3718 202.889 86.4275 200.589C85.2735 199.137 84.6026 197.359 84.5087 195.506C84.4004 193.689 84.5285 191.865 84.8899 190.08" fill="#F42A73"/>
<path d="M92.3238 198.848L91.4978 206.714L87.6855 207.312C87.6855 207.312 90.316 212.09 94.5476 212.09C98.7791 212.09 102.858 207.604 102.858 207.604L98.7156 206.333L97.1399 195.278" fill="#FC8975"/>
<path d="M86.0593 186.014C85.6818 188.633 85.7118 191.295 86.1482 193.905C86.3794 195.211 86.9091 196.445 87.696 197.512C88.483 198.579 89.5058 199.449 90.6848 200.056C91.805 200.487 92.9919 200.719 94.192 200.742C96.2063 200.968 98.2367 200.488 99.9358 199.382C100.831 198.603 101.522 197.616 101.949 196.509C102.377 195.402 102.527 194.207 102.388 193.029C102.093 190.706 101.419 188.448 100.393 186.344C99.5461 184.328 98.6989 182.308 97.8518 180.283" fill="#FC8975"/>
<path d="M76.2487 196.497C75.2784 197.406 74.5902 198.575 74.2664 199.865C74.2219 200.521 74.3796 201.175 74.7182 201.738C75.0567 202.302 75.5599 202.748 76.1598 203.016C77.176 203.369 78.2661 203.452 79.3239 203.258C80.549 203.145 81.7835 203.192 82.9964 203.398C84.0257 203.601 85.0042 203.982 86.0208 204.262C87.4961 204.738 89.0593 204.876 90.5954 204.668C90.7293 204.659 90.8596 204.621 90.9779 204.557C91.0962 204.494 91.1997 204.406 91.2816 204.3C91.3211 204.158 91.3291 204.01 91.3049 203.865C91.2808 203.72 91.2251 203.582 91.1419 203.461C90.3258 201.409 90.0587 199.18 90.3667 196.993C90.4359 195.864 90.6146 194.745 90.9004 193.651C91.1759 192.745 91.52 191.862 91.9297 191.008C92.6794 189.369 93.6071 187.793 94.3187 186.128C95.0303 184.464 95.4497 181.935 97.7497 182.316C99.2365 182.532 99.8719 184.934 100.863 186.395C102.324 184.718 103.976 183.701 100.863 179.724C99.3 177.741 96.6315 177.843 94.2679 178.275C92.9336 178.186 92.9971 177.665 91.7264 177.576C89.4709 177.531 87.2483 178.122 85.3133 179.282C83.3782 180.442 81.809 182.123 80.7853 184.133C78.6632 188.606 79.1588 192.914 76.2487 196.497Z" fill="#F42A73"/>
<path d="M350.486 52.377L345.12 56.0408C344.983 56.1351 344.873 56.2614 344.799 56.4079C344.726 56.5544 344.691 56.7163 344.699 56.8785C344.706 57.0407 344.756 57.1979 344.843 57.3354C344.93 57.4729 345.052 57.5862 345.197 57.6648L350.201 60.2936C350.344 60.3697 350.506 60.4088 350.67 60.4073C350.835 60.4059 350.996 60.3639 351.14 60.2852C351.284 60.2065 351.406 60.0938 351.494 59.9575C351.582 59.8212 351.633 59.6657 351.643 59.5056L352.039 53.1941C352.053 53.012 352.014 52.8304 351.925 52.6709C351.836 52.5114 351.702 52.3807 351.538 52.2945C351.374 52.2083 351.188 52.1703 351.001 52.1849C350.815 52.1995 350.636 52.2662 350.486 52.377Z" stroke="#CFE0F5" stroke-miterlimit="10"/>
<path d="M307.437 60.4566L301.236 63.5267C301.078 63.604 300.942 63.7209 300.841 63.866C300.741 64.0112 300.679 64.1797 300.663 64.3554C300.646 64.5312 300.675 64.7082 300.747 64.8695C300.818 65.0309 300.93 65.1711 301.072 65.2767L305.887 68.9155C306.026 69.0207 306.189 69.0889 306.361 69.114C306.534 69.139 306.709 69.1199 306.872 69.0585C307.035 68.9971 307.18 68.8955 307.293 68.763C307.405 68.6305 307.483 68.4716 307.518 68.3011L308.913 61.5773C308.946 61.3888 308.927 61.1947 308.857 61.0164C308.787 60.8381 308.67 60.6825 308.517 60.5667C308.365 60.4509 308.183 60.3794 307.993 60.36C307.802 60.3405 307.61 60.374 307.437 60.4566V60.4566Z" stroke="#CFE0F5" stroke-miterlimit="10"/>
<path d="M431.981 84.4513L426.126 88.1202C425.974 88.2122 425.85 88.3415 425.763 88.4958C425.676 88.6501 425.631 88.824 425.631 89.0009C425.632 89.1779 425.677 89.3517 425.764 89.5058C425.851 89.6598 425.977 89.7888 426.128 89.8804L431.276 93.0233C431.425 93.1166 431.595 93.1703 431.771 93.1793C431.946 93.1882 432.121 93.1521 432.278 93.0744C432.436 92.9967 432.571 92.8799 432.671 92.7353C432.77 92.5906 432.831 92.4229 432.848 92.248L433.567 85.439C433.586 85.2455 433.551 85.0506 433.465 84.8762C433.379 84.7018 433.246 84.5549 433.081 84.4522C432.916 84.3494 432.726 84.2949 432.531 84.2947C432.337 84.2946 432.146 84.3488 431.981 84.4513V84.4513Z" stroke="#CFE0F5" stroke-miterlimit="10"/>
<path d="M261.141 36.393L255.251 40.0021C255.101 40.0951 254.977 40.2247 254.891 40.3786C254.805 40.5325 254.76 40.7058 254.759 40.8822C254.758 41.0585 254.802 41.2322 254.886 41.3869C254.971 41.5417 255.094 41.6724 255.242 41.7669L260.372 44.955C260.521 45.0453 260.691 45.0967 260.865 45.1045C261.039 45.1123 261.213 45.0762 261.369 44.9996C261.526 44.9229 261.661 44.8082 261.762 44.6658C261.863 44.5235 261.926 44.3581 261.946 44.1849L262.693 37.339C262.703 37.1526 262.663 36.9667 262.577 36.8013C262.49 36.6359 262.36 36.4972 262.201 36.4C262.041 36.3028 261.859 36.2508 261.672 36.2495C261.485 36.2483 261.302 36.2979 261.141 36.393V36.393Z" stroke="#CFE0F5" stroke-miterlimit="10"/>
<path d="M427.07 160.724L423.93 163.124L426.33 166.264L429.469 163.864L427.07 160.724Z" fill="#CFE0F5"/>
<path d="M398.554 133.572L394.606 133.748L394.782 137.696L398.73 137.52L398.554 133.572Z" fill="#CFE0F5"/>
<path d="M144.507 184.814L140.825 186.249L142.26 189.931L145.942 188.496L144.507 184.814Z" fill="#CFE0F5"/>
<path d="M183.02 90.0575L179.345 88.6348L177.922 92.3101L181.597 93.7329L183.02 90.0575Z" fill="#CFE0F5"/>
<path d="M28.2733 285.877L24.3252 286.053L24.501 290.001L28.4491 289.825L28.2733 285.877Z" fill="#CFE0F5"/>
<defs>
<linearGradient id="paint0_linear" x1="424.56" y1="384.047" x2="424.56" y2="224.95" gradientUnits="userSpaceOnUse">
<stop stop-color="#466DE5"/>
<stop offset="1" stop-color="#78BFFF"/>
</linearGradient>
<linearGradient id="paint1_linear" x1="25995.1" y1="30157.9" x2="25995.1" y2="20468.5" gradientUnits="userSpaceOnUse">
<stop stop-color="#466DE5"/>
<stop offset="1" stop-color="#78BFFF"/>
</linearGradient>
<linearGradient id="paint2_linear" x1="7155.4" y1="34551.2" x2="2090.91" y2="32721" gradientUnits="userSpaceOnUse">
<stop stop-color="#466DE5"/>
<stop offset="1" stop-color="#78BFFF"/>
</linearGradient>
<linearGradient id="paint3_linear" x1="5683.8" y1="37096" x2="5683.8" y2="22365.8" gradientUnits="userSpaceOnUse">
<stop stop-color="#466DE5"/>
<stop offset="1" stop-color="#78BFFF"/>
</linearGradient>
<linearGradient id="paint4_linear" x1="2099.8" y1="23237.9" x2="2458.99" y2="17858.5" gradientUnits="userSpaceOnUse">
<stop stop-color="#466DE5"/>
<stop offset="1" stop-color="#78BFFF"/>
</linearGradient>
<linearGradient id="paint5_linear" x1="1635.26" y1="13084.1" x2="2486.48" y2="11593.2" gradientUnits="userSpaceOnUse">
<stop stop-color="#466DE5"/>
<stop offset="1" stop-color="#78BFFF"/>
</linearGradient>
<linearGradient id="paint6_linear" x1="208.721" y1="310.693" x2="205.722" y2="178.755" gradientUnits="userSpaceOnUse">
<stop stop-color="#29225E"/>
<stop offset="1" stop-color="#3F368C"/>
</linearGradient>
<linearGradient id="paint7_linear" x1="5572.62" y1="28292.2" x2="5572.62" y2="14607.3" gradientUnits="userSpaceOnUse">
<stop stop-color="#29225E"/>
<stop offset="1" stop-color="#3F368C"/>
</linearGradient>
<linearGradient id="paint8_linear" x1="215.179" y1="148.565" x2="275.438" y2="119.796" gradientUnits="userSpaceOnUse">
<stop stop-color="#FCC73C"/>
<stop offset="1" stop-color="#FC7A3C"/>
</linearGradient>
<linearGradient id="paint9_linear" x1="350.679" y1="431.178" x2="193.945" y2="159.722" gradientUnits="userSpaceOnUse">
<stop stop-color="#B3D3F4"/>
<stop offset="1" stop-color="#D3DCED"/>
</linearGradient>
<linearGradient id="paint10_linear" x1="281.105" y1="375.774" x2="281.105" y2="151.361" gradientUnits="userSpaceOnUse">
<stop stop-color="#FFD5A7"/>
<stop offset="0.37" stop-color="#FFD7AA"/>
<stop offset="0.65" stop-color="#FFDEB4"/>
<stop offset="0.91" stop-color="#FFE9C4"/>
<stop offset="1" stop-color="#FFEECC"/>
</linearGradient>
<linearGradient id="paint11_linear" x1="350.679" y1="431.178" x2="211.545" y2="190.195" gradientUnits="userSpaceOnUse">
<stop stop-color="#CDE8FF"/>
<stop offset="1" stop-color="#EEE7E9"/>
</linearGradient>
<linearGradient id="paint12_linear" x1="75012.6" y1="38492.8" x2="66061.6" y2="17453.3" gradientUnits="userSpaceOnUse">
<stop stop-color="#CDE8FF"/>
<stop offset="1" stop-color="#EEE7E9"/>
</linearGradient>
<linearGradient id="paint13_linear" x1="14991.9" y1="17619.6" x2="13207.5" y2="15182.3" gradientUnits="userSpaceOnUse">
<stop stop-color="#466DE5"/>
<stop offset="1" stop-color="#78BFFF"/>
</linearGradient>
<linearGradient id="paint14_linear" x1="5438.28" y1="3576.65" x2="4289.76" y2="4424.32" gradientUnits="userSpaceOnUse">
<stop stop-color="#FCC73C"/>
<stop offset="1" stop-color="#FC7A3C"/>
</linearGradient>
<linearGradient id="paint15_linear" x1="11427.8" y1="35372.3" x2="11427.8" y2="23165.6" gradientUnits="userSpaceOnUse">
<stop stop-color="#29225E"/>
<stop offset="1" stop-color="#3F368C"/>
</linearGradient>
<linearGradient id="paint16_linear" x1="11711.9" y1="35390.1" x2="11711.9" y2="23177.2" gradientUnits="userSpaceOnUse">
<stop stop-color="#29225E"/>
<stop offset="1" stop-color="#3F368C"/>
</linearGradient>
<linearGradient id="paint17_linear" x1="29358.7" y1="13646.8" x2="29358.7" y2="17043.7" gradientUnits="userSpaceOnUse">
<stop stop-color="#FCC73C"/>
<stop offset="1" stop-color="#FC7A3C"/>
</linearGradient>
<linearGradient id="paint18_linear" x1="650.425" y1="1360.85" x2="651.071" y2="1360.85" gradientUnits="userSpaceOnUse">
<stop stop-color="#FCC73C"/>
<stop offset="1" stop-color="#FC7A3C"/>
</linearGradient>
<linearGradient id="paint19_linear" x1="422.387" y1="274.508" x2="386.882" y2="239.004" gradientUnits="userSpaceOnUse">
<stop stop-color="#5789EE"/>
<stop offset="1" stop-color="#78BFFF"/>
</linearGradient>
<linearGradient id="paint20_linear" x1="13747.6" y1="9268.83" x2="15061.6" y2="9268.83" gradientUnits="userSpaceOnUse">
<stop stop-color="#FCC73C"/>
<stop offset="1" stop-color="#FC7A3C"/>
</linearGradient>
<linearGradient id="paint21_linear" x1="12356.6" y1="8918.89" x2="12356.6" y2="10798.6" gradientUnits="userSpaceOnUse">
<stop stop-color="#FCC73C"/>
<stop offset="1" stop-color="#FC7A3C"/>
</linearGradient>
<linearGradient id="paint22_linear" x1="432.197" y1="218.24" x2="432.197" y2="210.616" gradientUnits="userSpaceOnUse">
<stop stop-color="#FCAE3C"/>
<stop offset="1" stop-color="#FC7A3C"/>
</linearGradient>
<linearGradient id="paint23_linear" x1="1661.1" y1="1205.66" x2="1661.1" y2="1164.66" gradientUnits="userSpaceOnUse">
<stop stop-color="#FCAE3C"/>
<stop offset="1" stop-color="#FC7A3C"/>
</linearGradient>
<linearGradient id="paint24_linear" x1="2015.56" y1="45217.1" x2="2015.56" y2="25033.2" gradientUnits="userSpaceOnUse">
<stop stop-color="#29225E"/>
<stop offset="1" stop-color="#3F368C"/>
</linearGradient>
<linearGradient id="paint25_linear" x1="427.41" y1="8287.05" x2="427.41" y2="7265.73" gradientUnits="userSpaceOnUse">
<stop stop-color="#29225E"/>
<stop offset="1" stop-color="#3F368C"/>
</linearGradient>
<linearGradient id="paint26_linear" x1="2929.03" y1="45224.3" x2="2929.03" y2="25037.1" gradientUnits="userSpaceOnUse">
<stop stop-color="#29225E"/>
<stop offset="1" stop-color="#3F368C"/>
</linearGradient>
<linearGradient id="paint27_linear" x1="2715.96" y1="2849.35" x2="2715.96" y2="2660.79" gradientUnits="userSpaceOnUse">
<stop stop-color="#29225E"/>
<stop offset="1" stop-color="#3F368C"/>
</linearGradient>
<linearGradient id="paint28_linear" x1="9113.15" y1="8578.62" x2="9113.15" y2="10843" gradientUnits="userSpaceOnUse">
<stop stop-color="#FCC73C"/>
<stop offset="1" stop-color="#FC7A3C"/>
</linearGradient>
<linearGradient id="paint29_linear" x1="563.339" y1="1531.69" x2="563.339" y2="1572.09" gradientUnits="userSpaceOnUse">
<stop stop-color="#FCC73C"/>
<stop offset="1" stop-color="#FC7A3C"/>
</linearGradient>
<linearGradient id="paint30_linear" x1="294.855" y1="1267.12" x2="306.406" y2="1267.12" gradientUnits="userSpaceOnUse">
<stop stop-color="#FCC73C"/>
<stop offset="1" stop-color="#FC7A3C"/>
</linearGradient>
</defs>
</svg>
