<svg width="310" height="204" viewBox="0 0 310 204" fill="none" xmlns="http://www.w3.org/2000/svg">
<path d="M80.4914 6.9418C93.5373 -0.938075 116.097 17.6988 114.545 23.2281C113.565 26.6118 104.068 23.4027 87.754 30.0257C79.5508 33.3178 76.925 36.2307 74.4956 34.7822C69.5831 31.7545 70.7627 12.8479 80.4914 6.9418Z" fill="#B1C7F2"/>
<path d="M137.775 77.4514C141.752 107.237 118.869 143.153 92.3559 143.497C70.9839 143.887 50.0019 120.876 53.2984 110.083C56.4746 99.979 79.952 104.418 85.0661 92.0154C90.0947 79.3893 68.9012 66.8649 74.5813 53.5988C79.026 43.1276 95.482 37.595 108.129 39.8448C126.654 43.3938 136.018 63.4959 137.775 77.4514Z" fill="#B1C7F2"/>
<path d="M29.7008 158.674C30.5563 153.385 26.9626 148.405 21.674 147.549C16.3854 146.693 11.4046 150.287 10.5491 155.576C9.69355 160.864 13.2872 165.845 18.5758 166.701C23.8644 167.556 28.8452 163.963 29.7008 158.674Z" fill="#B1C7F2"/>
<path d="M188.701 26.6741C189.556 21.3855 185.963 16.4047 180.674 15.5491C175.385 14.6936 170.405 18.2873 169.549 23.5759C168.694 28.8645 172.287 33.8453 177.576 34.7008C182.864 35.5564 187.845 31.9627 188.701 26.6741Z" fill="#B1C7F2"/>
<path d="M283.301 54.0489C301.676 70.2665 306.781 104.581 290.594 118.971C277.445 130.649 252.176 127.744 248.547 119.339C245.065 111.412 262.125 101.566 258.511 91.1689C254.898 80.7717 235.075 84.3529 231.447 73.2279C228.428 64.4264 235.645 52.1654 244.785 46.8455C258.095 39.0935 274.686 46.4439 283.301 54.0489Z" fill="#B1C7F2"/>
<path d="M204.6 126.916C207.2 126.016 209.7 124.916 212.4 124.516C214.6 124.216 215.9 123.216 216.3 120.716C216.6 118.716 222 101.416 222.6 99.5157C223.2 98.5157 234 94.9156 235.7 94.4156C236.7 96.1156 222.2 128.916 222.1 128.916C221.4 131.316 213.7 134.216 213.6 133.716C213.5 133.216 213.9 132.916 214.2 132.716C215.3 131.816 216.6 131.416 217.7 129.616C213.5 130.516 209.8 131.316 206.1 132.116C205.4 132.316 203.2 131.016 202.4 129.416C202.7 128.116 203.3 127.316 204.6 126.916Z" fill="#C5642E"/>
<path d="M240.6 129.716C237.2 129.716 237.3 127.016 237 124.516C236.7 122.216 236.8 119.816 235.2 117.916C234.4 117.716 233.6 117.516 232.7 117.316C234.1 114.816 234 110.916 231.8 107.616C231.6 106.716 231.2 105.716 230.8 104.716C230.4 103.716 229.9 102.816 229.4 102.016C228.1 102.216 227.3 101.916 226.7 100.516C224.3 95.1156 221.6 89.9156 219.2 84.6156C218.9 83.8156 218.7 82.6156 217.4 83.2156C216.3 86.1156 213.4 95.4156 216.7 106.116C218.6 112.016 221.7 116.216 223.9 118.616C223.9 123.416 224.2 128.216 224.2 133.016C224.2 135.216 225.2 135.916 227 136.116C231 136.616 234.9 135.516 238.8 134.716C239.5 133.116 240.1 131.516 240.8 130.016C240.7 129.916 240.7 129.716 240.6 129.716Z" fill="#EDD366"/>
<path d="M217.4 83.1157C219.5 85.4157 220.2 88.5157 221.6 91.1157C221.6 91.1157 224.4 96.7157 226.7 101.816C233.4 116.816 235.1 130.216 237.4 130.016C237.9 129.916 238.6 129.116 239.2 125.416C238.4 123.516 230.7 106.116 227.1 93.1157C224.4 83.3157 225.3 80.2157 225.3 79.6157C225.3 77.2157 225.6 74.9157 226.2 72.6157C226.2 72.5157 226.2 72.3157 226.1 72.2157C224.4 73.2157 222.4 73.5157 220.8 74.9157C218.3 77.0157 218.2 80.2157 217.4 83.1157Z" fill="#EDD366"/>
<path d="M257.3 139.116C257.3 139.216 257.3 139.216 257.2 139.316C257.2 139.416 257.2 139.416 257.1 139.516C257.1 139.616 257 139.816 256.9 139.916C256.7 140.316 256.6 140.516 256.5 140.516C256.9 140.116 257.1 139.616 257.3 139.116Z" fill="white"/>
<path d="M257 139.916C257.1 139.716 257.1 139.616 257.2 139.516C257.2 139.616 257.1 139.716 257.1 139.716C257.1 139.716 257.1 139.816 257 139.916Z" fill="#1D0024"/>
<path d="M256.7 119.916C258.5 115.316 253.2 105.816 245.7 78.4156C245 75.9156 244.5 73.8156 244.1 72.3156C242.6 72.0156 241.1 71.7156 239.7 71.5156C239.3 72.1156 238.9 72.8156 238.2 73.6156C237 75.1156 235.6 76.6156 233.9 77.5156C231.4 78.8156 230.2 78.4156 228.8 75.8156C228.3 74.9156 228 73.9156 227.3 73.1156C227.1 72.9156 226.9 72.7156 226.7 72.6156C225.8 74.7156 225 77.3156 224.6 80.2156C223.1 90.3156 226.9 98.5156 228.7 101.916C229.2 103.016 229.7 104.116 230.2 105.216C232.3 110.016 234 114.716 235.5 119.316C236 122.116 236.5 125.016 236.7 127.816C236.9 130.216 237.6 130.716 239.6 129.916C240 129.816 240.4 129.916 240.8 129.916C246.5 129.116 252.1 128.416 257.8 127.616C257.7 125.016 257.2 122.416 256.7 119.916Z" fill="#F0E7E3"/>
<path d="M215.3 52.3156C216.4 56.3156 216.7 60.6156 218.5 64.4156C219.4 66.4156 220.3 68.5156 222.1 69.3156C222.9 69.6156 224.3 70.0156 225.2 69.5156C225.3 69.4156 225.5 69.3156 225.7 69.4156C226.3 69.5156 226.6 70.6156 226.8 71.5156C227.3 73.5156 226.7 75.1156 225.1 76.3156C228.2 77.9156 231.4 78.6156 234.9 77.5156C238 76.6156 240.9 75.4156 242.6 72.2156C242.7 72.0156 243.1 71.9156 243.4 71.8156C241.3 71.5156 240.1 70.2156 239.8 67.9156C239.4 65.5156 238.8 63.1156 238.3 60.7156C236.6 59.3156 236.5 58.1156 237.7 56.0156C239.3 53.3156 238.4 50.7156 235.9 49.4156C234.6 49.3156 233.5 49.9156 232.7 51.0156C231.8 52.2156 231 52.4156 230.4 50.7156C230 49.6156 229.2 49.1156 228.1 49.2156C224.1 49.7156 220.2 50.6156 216.2 50.9156C215.8 50.9156 215.5 51.1156 215.3 51.5156C215.2 51.7156 215.3 52.0156 215.3 52.3156Z" fill="#DB844B"/>
<path d="M215.2 51.4157C219.4 51.4157 223.4 50.6157 227.5 49.7157C228.9 49.4157 229.7 49.6157 229.8 51.3157C229.8 52.1157 230 53.1157 230.9 53.2157C231.8 53.3157 232.3 52.5157 232.6 51.8157C233.4 50.4157 234.4 49.7157 236 49.8157C236.6 49.8157 237 50.1157 237.4 50.5157C238.2 51.2157 238.7 51.0157 239.1 50.0157C239.6 48.9157 238.7 47.7157 239.3 46.6157C240.5 45.0157 241.6 42.7157 240.2 41.2157C238.5 39.3157 237 37.0157 234.7 36.0157C232.2 34.9157 229.6 34.9157 227.3 36.9157C226.8 37.4157 226.4 37.2157 225.9 37.0157C221.8 35.7157 218.7 36.9157 216.5 40.7157C216.2 41.3157 215.9 41.4157 215.3 41.4157C213.4 41.4157 212 42.3157 211.5 44.3157C211 46.5157 211.3 48.5157 213 50.0157C213.5 50.5157 214.4 50.9157 215.2 51.4157Z" fill="#1D0024"/>
<path d="M239 49.9157C237.9 51.3157 237 48.9157 236 49.7157C238.6 51.4157 237.9 55.5157 236.5 56.7157C234.3 58.5157 235.7 59.2157 237.1 60.1157C237.4 60.3157 237.8 60.4157 238.1 60.6157C238.1 57.0157 239.2 53.5157 239 49.9157Z" fill="#1D0024"/>
<path d="M226.8 71.4157C228 71.6157 229.8 71.7157 231.6 71.0157C235.3 69.6157 237.8 65.5157 238.2 60.6157C237.7 61.4157 234.1 66.2157 231.5 67.9157C231.2 68.1157 230.8 68.3157 230.8 68.3157C229.1 69.3157 227.5 69.8157 226.5 70.1157C226.5 70.5157 226.6 70.9157 226.8 71.4157Z" fill="#C5642E"/>
<path d="M224.5 77.1157C224.5 78.0157 224.1 80.7157 224.7 80.9157C225.2 81.1157 225.5 80.6157 225.8 80.2157C226.3 79.6157 226.8 79.0157 227.3 78.4157C227.8 77.8157 228.5 77.2157 228.4 76.3157C228.4 76.2157 228.3 76.1157 228.3 75.9157C227.8 74.7157 227.7 73.4157 227.1 72.2157C227 72.0157 226.9 71.8157 226.8 71.6157C225.6 73.1157 224.4 74.8157 224.5 77.1157Z" fill="#D6CFCC"/>
<path d="M230.6 79.4157C230.9 79.3157 231.2 79.2157 231.4 79.2157C231 78.5157 230.6 77.8157 230.2 77.2157C230.2 77.2157 230 77.6157 229.7 77.7157C229.3 77.8157 229 77.5157 228.9 77.3157C228.6 76.9157 228.5 76.5157 228.5 76.3157C228.1 76.9157 227.6 77.5157 227.2 78.1157C227.8 80.4157 228.3 80.9157 228.6 80.9157C229 80.9157 229.3 79.9157 230.6 79.4157Z" fill="#F0E7E3"/>
<path d="M268.4 90.8157C268 98.6157 266.9 106.216 265.2 113.216C264.3 116.816 263.2 120.416 261.9 123.816C261.5 124.916 261 126.016 260.6 127.116C260.3 127.816 260 128.416 259.7 129.116C258.6 129.216 258 128.716 258 127.116V127.016C258 126.016 257.6 125.016 257.5 124.016C256.2 121.116 255.3 118.116 255.8 115.016C255.8 114.716 255.9 114.416 256 114.116C256 112.616 255.8 111.216 255.7 109.716C255.6 108.716 255.7 107.716 255.8 106.716C256.9 99.4157 260.1 92.7157 263.8 86.2157C264.8 84.5157 265.5 84.5157 266.8 85.6157C267.2 87.4157 267.8 89.1157 268.4 90.8157Z" fill="#EDD366"/>
<path d="M266.7 85.7156C264.3 75.6156 258.2 69.6156 248.6 68.1156C248.4 68.1156 248.3 68.0156 248.1 68.0156C246.3 68.1156 244.4 67.8156 243.3 68.8156C241.8 70.2156 243.2 72.0156 243.9 73.5156C246.1 77.9156 244.5 82.2156 244.1 86.5156C243.6 93.7156 242.6 121.216 243.5 121.916C247.1 124.316 252.8 122.916 255.3 119.016C255.7 118.416 256 117.616 256.4 117.016C256.9 115.916 256.9 114.816 256.8 113.716C256 103.816 260 95.4156 264.1 87.0156C264.8 85.9156 265.7 85.9156 266.7 85.7156Z" fill="#EDD366"/>
<path d="M231.3 79.1157C231.6 79.6157 231.8 80.0157 232.1 80.5157C233.5 82.8157 233.5 82.7157 235.6 81.0157C236.5 80.2157 242 72.5157 244.7 70.2157C245.8 69.2157 247.7 68.0157 248 68.1157C246.6 67.7157 244 65.7157 241.7 64.2157C237.8 68.5157 233.9 72.8157 230 77.1157C229.9 78.2157 230.6 78.7157 231.3 79.1157Z" fill="#D6CFCC"/>
<path opacity="0.42" d="M235.8 42.7157C235.8 40.7157 233.9 38.4157 231.8 39.4157C231 39.8157 230.5 40.6157 229.7 41.1157C228.7 41.6157 227.6 41.6157 226.5 41.4157C225.3 41.2157 224.3 40.7157 223.2 40.1157C222.1 39.5157 221 39.9157 220 40.7157C219.2 41.4157 218.9 42.4157 218.3 43.2157C217.7 44.0157 216.8 44.5157 215.8 44.7157C215.5 44.8157 213.8 44.9157 214 44.1157C214.1 43.7157 214.5 44.0157 214.8 44.0157C215.3 44.1157 215.9 43.9157 216.3 43.7157C217.2 43.2157 217.7 42.5157 218.2 41.5157C218.8 40.4157 219.5 39.7157 220.5 39.1157C221.7 38.4157 222.5 38.5157 223.8 39.1157C225 39.7157 226.2 40.4157 227.5 40.4157C229.7 40.4157 230.6 38.0157 232.8 38.1157C235.6 38.2157 236.4 40.6157 236.7 43.1157C236.8 43.8157 237 44.2157 237.3 44.8157C237.5 45.1157 237.8 45.9157 237.1 45.9157C236.7 45.9157 236.1 45.0157 236 44.7157C235.8 44.2157 236.1 43.4157 235.8 42.7157Z" fill="#2A1C33"/>
<path opacity="0.42" d="M230.7 43.7157C231.9 44.1157 232.4 45.6157 233.5 45.9157C233.9 46.0157 234.8 45.6157 235.1 45.8157C235.6 46.2157 235 46.7157 234.7 46.9157C233.6 47.3157 232.4 46.5157 231.7 45.8157C230.8 44.9157 230.4 44.4157 229.2 45.1157C229.5 45.5157 230.1 45.9157 229.9 46.5157C229.8 46.9157 229.3 47.3157 228.9 47.3157C228.5 47.3157 228.2 47.0157 228 46.6157C227.9 46.3157 228.1 45.8157 227.8 45.5157C227.6 45.3157 226.7 45.5157 226.5 45.6157C226 45.7157 225.5 46.0157 225 46.1157C224.4 46.2157 223.9 46.3157 223.3 46.2157C222.9 46.1157 222.3 45.7157 221.9 45.8157C221.5 45.9157 221.1 46.5157 220.8 46.7157C220.3 47.0157 219.8 47.3157 219.3 47.5157C218.5 47.8157 217.2 48.4157 216.4 47.7157C215.3 46.7157 217.5 47.2157 217.9 47.1157C219.1 46.8157 220.1 46.0157 221.1 45.3157C220.8 44.8157 220.3 44.3157 220.4 43.6157C220.5 42.9157 221.2 42.8157 221.8 43.0157C222.9 43.5157 222 44.7157 223 45.1157C224.2 45.7157 225.4 44.8157 226.6 44.6157C227.3 44.5157 227.9 44.5157 228.6 44.3157C229.3 44.0157 229.9 43.5157 230.7 43.7157Z" fill="#2A1C33"/>
<path d="M229.2 51.8157C229.2 51.3157 229.2 50.9157 229.2 50.4157C229.3 49.9157 229.4 49.5157 230 49.9157C230.2 50.2157 230 50.6157 230.2 50.9157C230.3 51.1157 230 51.6157 230.6 51.5157C231.2 51.5157 231 50.9157 231.1 50.6157H231.2C231.2 50.5157 231.3 50.4157 231.4 50.3157C231.6 50.3157 231.9 50.3157 232 50.6157C232.2 51.1157 232 51.6157 232.1 52.1157C232 53.4157 232.3 54.7157 231.9 56.0157C231.7 56.9157 231 57.3157 230.2 57.4157C229.8 57.4157 229.6 57.3157 229.5 56.9157C229.3 56.2157 229.6 55.5157 229.4 54.9157C229.4 54.4157 229.4 53.9157 229.4 53.4157C229.2 52.7157 229.4 52.2157 229.2 51.8157Z" fill="#1D0024"/>
<path opacity="0.42" d="M232.4 51.4156C232.4 51.5156 232.3 51.5156 232.3 51.6156C231.1 50.3156 233.3 48.4156 234.4 48.2156C235.2 48.0156 236.2 48.2156 237 48.5156C237.3 48.6156 237.9 48.8156 238.3 48.7156C238.4 48.7156 238.5 48.3156 238.5 48.3156C239 48.3156 239.2 48.9156 238.7 49.4156C238.1 50.0156 236.9 49.5156 236.2 49.3156C235.4 49.1156 234.6 49.0156 233.8 49.4156C233.4 49.6156 233 49.9156 232.8 50.3156C232.7 50.5156 232.8 51.2156 232.4 51.4156Z" fill="#2A1C33"/>
<path d="M221.2 39.0157C219.5 38.7157 218.8 39.5157 217.9 40.8157C217.6 41.2157 216.5 42.3157 215.9 42.0157C215.2 41.7157 216.8 40.8157 217 40.5157C218.2 39.3157 218.4 38.2157 220.3 38.2157C220.6 38.2157 222.2 38.1157 222.4 38.3157C223.2 38.9157 221.5 39.0157 221.2 39.0157Z" fill="#200021"/>
<path d="M238.9 48.3156C238.2 47.3156 238 46.0156 238.5 44.6156C238.6 44.3156 238.6 44.0156 238.9 44.2156C239.1 44.3156 239.5 44.5156 239.3 44.8156C238.5 46.3156 239.2 47.6156 239.9 48.8156C240.3 49.5156 240.5 50.4156 241.1 51.0156C241.2 51.1156 241.3 51.3156 241.2 51.4156C241.1 51.5156 240.9 51.5156 240.8 51.3156C240.4 50.8156 240 50.2156 239.6 49.7156C239.4 49.4156 239.2 48.9156 238.9 48.3156Z" fill="#200021"/>
<path opacity="0.42" d="M226.9 47.9157C227.5 48.1157 228 48.3157 228.6 48.5157C228 49.5157 226.6 48.6157 225.7 48.6157C225.1 48.6157 224.5 48.8157 223.9 49.0157C223.5 49.1157 222.8 49.5157 222.4 49.4157C221.2 49.2157 222.9 48.6157 223.3 48.5157C224.3 48.1157 225.7 47.6157 226.9 47.9157Z" fill="#2A1C33"/>
<path d="M216.7 50.9157C215.7 51.6157 214.8 52.2157 213.5 52.1157C212.9 52.1157 212.2 52.2157 211.7 51.5157C211.5 51.2157 211.4 51.0157 211.5 50.8157C211.7 50.5157 211.9 50.9157 212.1 51.0157C212.8 51.4157 213.5 51.5157 214.3 51.2157C215.1 50.9157 215.8 50.6157 216.7 50.9157Z" fill="#210022"/>
<path d="M222.6 97.0157C221.6 97.7157 220.9 97.6157 220.2 96.4157C220.1 96.2157 220.1 95.9157 220.2 95.7157C220.5 95.1157 221.1 95.2157 221.6 95.4157C222 95.6157 222.3 95.9157 222.5 96.2157C222.7 96.6157 222.7 96.8157 222.6 97.0157Z" fill="#D3BB54"/>
<path d="M224.7 102.616C223.8 102.616 223.6 102.116 223.5 101.816C223.5 101.516 223.9 101.216 224.5 101.216C225.1 101.216 225.7 101.716 225.6 102.216C225.6 102.516 225.3 102.616 224.7 102.616Z" fill="#D3BB54"/>
<path d="M228.4 106.216C228.1 106.616 227.7 106.916 227 106.816C226.4 106.716 226 106.316 226 105.916C225.9 105.516 225.6 104.816 226.3 104.616C227.3 104.316 227.9 105.016 228.4 105.416C228.5 105.616 228.5 105.916 228.4 106.216Z" fill="#D3BB54"/>
<path d="M260.7 126.416C260.4 127.116 260.1 127.816 259.9 128.516C259.1 130.416 258.3 132.316 257.4 134.216C257.2 134.716 256.9 135.216 256.7 135.616C255.4 138.216 254 140.716 252.5 143.116C250.1 147.016 247.5 150.816 244.7 154.316C244.1 155.116 243.5 155.816 242.9 156.516C242.6 156.916 242.3 157.216 242 157.616C240.1 159.916 238 162.116 235.9 164.216C235.4 164.816 234.8 165.316 234.3 165.816C233.7 166.416 233.2 166.916 232.6 167.416C230 169.816 227.3 172.116 224.5 174.316C224 174.716 223.5 175.116 223 175.516C218.4 179.016 213.6 182.216 208.6 185.116C193 194.216 176.1 200.116 159.8 202.516C114.8 209.216 67.2 190.416 47.3 165.716C43.5 161.016 40.8 156.216 39.2 151.216C36.1 141.516 41.1 134.016 45.5 125.716C92.8 125.716 162.7 125.516 203 125.716C204 125.716 205 125.716 205.9 125.716C206.5 125.716 207 125.716 207.5 125.716C208.4 125.716 209.4 125.716 210.3 125.716C214.2 125.716 217.6 125.816 220.7 125.816C221.9 125.816 223 125.816 224.1 125.816C225.3 125.816 226.5 125.816 227.5 125.916C228.2 125.916 228.8 125.916 229.4 125.916C229.7 125.916 230 125.916 230.3 125.916C230.6 125.916 230.8 125.916 231.1 125.916C231.5 125.916 231.9 125.916 232.2 125.916C232.7 125.916 233.1 125.916 233.5 126.016C233.7 126.016 233.8 126.016 234 126.016C234.1 126.016 234.2 126.016 234.3 126.016H234.4C234.5 126.016 234.6 126.016 234.6 126.016C234.6 126.016 234.6 126.016 234.7 126.016H234.8H260.7V126.416Z" fill="#B1C7F2"/>
<path d="M243.2 106.416C234.1 108.416 226.7 108.916 221.5 109.016C218.3 109.116 215.7 109.016 213.6 109.016L214.5 117.616L249.6 120.716C252.6 119.016 254.6 116.016 254.4 113.216C254.2 109.316 249.3 105.216 243.2 106.416Z" fill="#DB844B"/>
<path d="M165.8 77.3157C164.1 75.2157 162.4 74.7157 160.2 74.1157C157.7 73.4157 155.6 73.1157 153.3 72.3157C153 72.2157 152.7 72.1157 152.4 72.0157C152.3 72.0157 152.2 71.9157 152.1 71.9157C151.5 72.0157 151.1 72.4157 150.6 72.7157C149.7 73.2157 148.8 73.6157 147.9 73.9157C144.8 75.1157 142 75.4157 139.1 74.8157C136.7 74.3157 134.3 73.3157 131.7 71.7157C131.3 71.4157 130.9 71.0157 130.4 70.9157C130.3 70.9157 130.1 70.8157 129.9 70.9157C129.5 71.0157 129.1 71.0157 128.7 71.0157C126 71.2157 123.4 71.2157 120.7 71.8157C116.3 72.8157 114.2 76.1157 112.9 80.2157C111.6 84.3157 111 88.3157 110.3 92.5157C110.1 93.4157 109.9 94.5157 110.9 95.1157C111.4 95.7157 111.9 95.9157 112.6 96.1157C112.8 95.5157 113.1 94.9157 113.5 94.3157C117 95.2157 120.5 96.1157 124.1 96.9157C124.9 97.1157 125.6 97.3157 125.6 98.2157C125.7 98.2157 125.9 98.1157 126 98.0157C126.2 97.9157 126.4 97.8157 126.6 97.6157C127.3 97.2157 127.8 96.6157 128.5 96.0157C128.5 96.3157 128.6 96.5157 128.6 96.8157C129.1 99.5157 129.8 101.916 129.7 104.716C129.6 107.816 129.8 110.416 131.4 113.216C132.9 115.816 134.4 118.416 134.7 121.516C134.7 121.616 134.8 121.716 134.9 121.716C136.1 123.616 137.5 124.716 139.7 125.416C142.5 125.516 145.3 125.616 148.2 125.816C148.4 125.816 148.7 125.816 148.9 125.816C149.1 125.816 149.3 125.816 149.5 125.816C154.3 126.216 159.1 126.616 163.9 127.116C164.3 122.516 164.7 115.616 165.6 110.116C165.6 109.816 165.7 109.416 165.8 109.116C165.8 108.816 165.9 108.516 165.9 108.316C166.1 107.016 166.4 105.916 166.7 104.916C167.3 103.116 166.1 102.516 165.8 100.916C165.4 98.5157 165.4 97.4157 168.1 96.5157H168.2C169.2 96.2157 170.4 95.7157 171.1 94.9157C170 86.9157 171.2 84.1157 165.8 77.3157ZM159.7 108.416C160 104.616 160.3 100.916 160.5 97.1157C160.6 96.2157 160.9 95.7157 161.8 95.7157V108.416H159.7V108.416Z" fill="#4066C6"/>
<path d="M125.4 98.1158C125.3 98.1158 125.1 98.2157 125 98.2157C124.8 98.3157 124.6 98.3158 124.4 98.3158C124.3 98.2158 124.1 98.2158 124 98.1158C123.5 97.9158 122.9 97.7157 122.4 97.5157C119.7 96.7157 116.9 96.5158 114.1 96.1158C113.5 96.0158 113 96.0158 112.5 95.8158C112.7 95.2158 113 94.6157 113.4 94.0157C116.9 94.9157 120.4 95.8158 124 96.6158C124.3 96.7158 124.7 96.8157 124.9 96.9157C124.9 96.9157 125 96.9157 125 97.0157C125.1 97.0157 125.2 97.1157 125.2 97.2157C125.3 97.6157 125.4 97.8158 125.4 98.1158Z" fill="#244DA0"/>
<path d="M144.5 134.716C144.4 134.916 144.3 135.216 144.1 135.416C142 136.616 140 136.216 138 135.316C137.5 134.216 136.6 133.516 135.6 132.916C131.3 130.116 127 127.316 122.7 124.516C120.6 124.216 119.1 122.916 117.8 121.416C116.5 120.016 114.8 119.116 113.2 118.116C110.6 116.516 109.4 114.216 109.8 111.316C110.1 108.716 110.4 106.016 111.1 103.516C111.7 101.116 111.6 98.4157 112.5 96.0157C113 96.1157 113.6 96.2158 114.1 96.3158C116.9 96.7158 119.7 96.9157 122.4 97.7157L122.9 107.816C123.1 106.916 123.2 106.416 123.4 106.116C123.9 105.116 124.4 103.116 125 98.7157C124.4 98.7157 123.8 98.5158 124 98.3158C124 98.3158 124 98.3157 124.1 98.2157C124.2 98.2157 124.4 98.3157 124.5 98.4157C124.7 98.4157 124.9 98.3158 125.1 98.3158C125.2 98.3158 125.4 98.2157 125.5 98.2157C125.5 98.3157 125.5 98.3157 125.5 98.4157C125.6 98.5157 125.6 98.6158 125.7 98.6158C126.2 99.5158 125.8 100.316 125.5 101.216C124.8 103.416 124.3 105.716 123.6 107.916C123 109.616 123.4 111.016 124.8 112.116C125.4 112.516 125.9 113.016 126.5 113.516C127.8 114.616 129 115.816 130.3 116.816C132.1 118.316 133.9 119.716 134.9 122.016C136 123.316 137.2 124.416 138.5 125.416C140.7 126.416 143.1 127.216 144.9 129.016C144.8 129.716 144.8 130.316 144.9 131.016C144.8 132.216 145 133.516 144.5 134.716Z" fill="#DB844B"/>
<path d="M155.5 65.3157C154.6 65.8157 152.8 66.4157 149.8 65.7157C150.1 67.8157 150.7 69.5157 151.8 71.2157C152 71.5157 152.1 71.7157 152.3 72.0157C152.3 72.0157 152.3 72.1157 152.4 72.1157C149.9 74.1157 147.1 75.2157 144.3 75.6157C143.2 75.7157 142 75.8157 140.9 75.7157C137.2 75.4157 133.5 73.7157 130.5 70.8157C130.4 70.7157 130.3 70.6157 130.2 70.5157C130.4 70.4157 130.5 70.2157 130.7 70.1157C132.2 68.8157 133.5 67.5157 134.5 66.1157C135.6 64.4157 136.3 62.6157 136.6 60.2157C136.8 58.1157 136.7 56.2157 136 54.1157C135.4 52.3157 136.2 50.6157 137.6 50.0157C137.6 50.0157 137.7 50.0157 137.8 49.9157C138.2 49.8157 138.7 49.7157 139.2 49.7157C139.3 49.7157 139.5 49.7157 139.6 49.7157C141.1 49.7157 141.2 49.3157 141.6 47.8157C141.7 47.5157 141.7 47.3157 141.8 47.0157C142.3 45.3157 142.8 44.2157 145.1 43.8157C145.4 43.8157 145.6 43.7157 145.9 43.7157C147.6 43.4157 149.3 43.3157 151 43.4157C153.5 43.5157 156 43.9157 158.5 44.9157C161.5 54.6157 159.9 63.0157 155.5 65.3157Z" fill="#DB844B"/>
<path d="M158.5 45.8157C158.4 45.9157 158.3 45.9157 158.1 46.0157C154.9 46.2157 151.3 45.4157 148.3 45.0157C144.4 44.5157 143.3 44.9157 142 48.5157C141.8 49.1157 141.7 49.7157 141.3 50.3157C141.3 50.3157 141.3 50.3157 141.3 50.4157C140.9 51.1157 140.6 51.4157 139.9 50.6157C139.7 50.4157 139.6 50.3157 139.4 50.1157C138.9 49.7157 138.2 49.5157 137.6 49.8157C137.6 49.8157 137.5 49.8157 137.4 49.9157C137.2 50.0157 137 50.1157 136.8 50.3157C135.7 51.2157 135.2 52.6157 135.9 53.9157C136.1 54.2157 136.6 56.0157 136.8 56.5157C137 57.3157 137.1 58.4157 136.3 60.2157C136.3 60.2157 133.5 48.4157 135 42.9157C135.5 41.2157 136.3 40.3157 136.7 39.9157C137.3 39.3157 138.1 38.9157 139.1 38.7157C143.6 37.6157 148.5 36.6157 153.1 36.3157C154.1 36.2157 155.1 36.3157 156 36.6157C158.4 37.4157 160.1 38.6157 160.6 41.3157C161 43.3157 160.2 44.8157 158.5 45.8157Z" fill="#210022"/>
<path d="M169.7 108.716C168.4 109.116 167 109.216 165.6 109.216C164.3 109.216 163.1 109.116 161.9 109.116C161.2 109.116 160.4 109.116 159.7 109.116C159.7 108.816 159.7 108.616 159.8 108.316H162V95.6157C164.1 95.5157 166.1 95.3157 168.1 95.1157C168.1 95.5157 168.2 96.0157 168.3 96.4157C168.8 100.316 169.3 104.316 169.8 108.216C169.7 108.516 169.7 108.716 169.7 108.716Z" fill="#DB844B"/>
<path d="M134.8 121.816C134.8 121.916 134.8 121.916 134.7 122.016C131.9 119.516 129.1 116.916 126.3 114.416C125.3 113.516 124.3 112.616 123.3 111.716C123.2 111.616 123.1 111.516 123 111.416C122.4 110.716 122.2 110.016 122.5 108.916C122.6 108.516 122.7 108.116 122.8 107.816C123 106.916 123.1 106.416 123.3 106.116C123.8 105.116 124.3 103.116 124.9 98.7157C124.9 98.6157 124.8 98.4157 124.9 98.3157C125 98.2157 125.2 98.2157 125.3 98.2157C126 98.2157 127.5 96.9156 128.4 95.4156C128.5 95.2156 128.7 94.8156 128.9 94.4156C130.4 99.8156 131.9 104.916 133 110.016C134 113.816 136.3 117.616 134.8 121.816Z" fill="#335EB5"/>
<path d="M149 147.416C149.5 147.116 149.2 146.516 149.4 146.116C149.4 141.916 149.3 137.716 149.3 133.516C149.3 132.716 149.5 131.816 148.8 131.116C146.9 131.116 145 131.016 143.1 131.016C145.1 136.416 147.1 141.916 149 147.416Z" fill="#9AA9D1"/>
<path d="M209.9 147.816C210 139.916 209.1 116.416 209.1 113.716C209.1 112.616 209 111.616 208.2 110.816C207 109.116 205.3 109.016 203.5 109.116C187.4 110.216 171.3 110.216 155.2 110.216C150.1 110.216 148.7 111.816 148.7 117.216C148.7 120.116 148.6 122.916 148.7 125.816C148.6 127.916 148.7 130.116 148.5 132.216C148.7 136.216 148.6 140.216 148.6 144.316C148.6 145.416 148.6 146.416 149 147.516C150 148.916 151.6 148.616 152.9 148.616C164.7 148.616 209.9 148.816 209.9 147.816Z" fill="#DEE5FD"/>
<path d="M208.2 110.816C203.3 110.916 195.8 110.916 186.4 110.716C184.3 110.716 180.9 110.616 174.1 110.516C170.7 110.516 167.8 110.416 165.4 110.416C164.1 110.416 162.9 110.416 161.8 110.416C160.5 110.416 159.4 110.416 158.4 110.516C153.8 110.816 151.8 111.516 150.4 113.316C149.1 115.016 149.1 116.916 149.2 120.216C149.2 122.016 149.2 124.016 149.3 126.016C149.3 131.216 149.4 137.016 149.3 141.216C149.3 144.616 149.2 146.916 149 147.316C149 147.216 149 147.216 149 147.116V147.016C148.9 146.616 148.9 146.016 148.8 145.116C148.6 142.116 148.3 136.716 148.2 131.116C148.2 129.416 148.2 127.716 148.1 126.016C148.1 122.116 148.1 118.516 148.3 115.916C148.4 114.516 148.6 111.716 150.6 109.916C152.2 108.616 154.1 108.416 155 108.416H158.8C159.1 108.416 159.5 108.416 159.8 108.416H173.3C183.4 108.416 193.6 108.416 203.7 108.416C205.5 108.516 207.4 108.616 208.2 110.816Z" fill="#DEE5FD"/>
<path d="M182.6 132.416C183.2 130.516 181.7 129.316 179.6 129.116C177.7 128.916 175.9 130.416 175.8 132.216C175.6 134.516 176.9 136.316 178.8 136.516C181.2 136.716 182.3 135.516 182.6 132.416Z" fill="#F7F9FA"/>
<path d="M137.1 82.4157C135.4 81.5157 133.6 80.6157 132.4 78.9157C131.3 77.3157 130.4 75.7157 129.7 73.9157C129.3 72.9157 129 72.0157 128.7 71.0157C128.6 70.6157 128.6 70.2157 128.7 69.8157C129 69.2157 129.5 69.1157 130.1 69.6157C130.5 69.9157 130.9 70.3157 131.2 70.6157C131.4 70.8157 139.4 74.9157 140 75.1157C140.9 75.4157 141 75.6157 140.7 76.5157C140.1 78.2157 139.5 79.9157 138.7 81.6157C138.6 81.9157 138.4 82.1157 138.2 82.3157C137.8 82.5157 137.5 82.5157 137.1 82.4157Z" fill="#244DA0"/>
<path d="M152.8 70.4156C153 70.4156 153.2 70.4156 153.4 70.4156C153.7 70.6156 153.5 70.9157 153.5 71.2157C153.2 71.8157 153.2 72.5157 153.1 73.2157C152.9 73.5157 153.1 73.8157 153 74.1157C152.4 76.1157 151.6 78.0157 150 79.5157C149 80.4157 147.9 81.3157 146.8 82.2157C146.1 82.8157 145.6 82.5157 145.3 81.6157C144.8 80.0157 144.5 78.3157 144.2 76.6157C144.1 76.3157 144.1 75.9157 144.2 75.6157C144.3 75.2157 144.7 75.1157 145 75.0157C147.7 74.2157 150 72.8156 152.1 70.9156C152.4 70.7156 152.6 70.5156 152.8 70.4156Z" fill="#244DA0"/>
<path opacity="0.47" d="M144.2 41.7157C143.2 41.6157 142.2 41.6157 141.2 41.3157C140.8 41.2157 140.3 41.2157 139.9 41.3157C137.8 41.5157 137 41.9157 136.7 44.0157C136.5 44.6157 136.7 45.1157 136.6 45.7157C136.6 45.8157 136.6 45.9157 136.6 46.0157C136.6 46.2157 136.6 46.4157 136.2 46.4157C135.9 46.4157 135.9 46.2157 135.9 46.0157C135.9 44.9157 135.7 43.7157 136.2 42.6157C137 41.0157 139.2 40.2157 141.5 40.6157C141.8 40.7157 142.2 40.8157 142.5 40.7157C142.8 40.8157 143.1 40.7157 143.4 40.8157C143.6 40.8157 143.7 40.8157 143.9 40.8157C144.2 40.9157 144.6 40.8157 144.9 40.9157C147.6 41.3157 150 41.0157 152.3 39.8157C152.5 39.7157 152.7 39.6157 152.9 39.4157C153 39.4157 153 39.3157 153 39.3157C153.1 38.7157 153.7 38.8157 154.2 39.0157C154.4 39.2157 154.3 39.4157 154.2 39.6157C154 39.8157 153.8 40.1157 153.4 40.2157C151.5 41.4157 149.2 41.8157 146.8 41.7157C146.3 41.6157 145.7 41.7157 145.2 41.6157C145.1 41.6157 145 41.6157 144.9 41.6157C144.8 41.7157 144.5 41.8157 144.2 41.7157Z" fill="#2B182D"/>
<path opacity="0.47" d="M147.1 39.3157C148.4 39.2157 149.7 39.0157 150.8 38.4157C152.1 37.8157 153.4 37.5158 155 37.6158C155.3 37.7158 155.6 37.6157 155.9 37.7157C158.2 38.6157 158.9 40.6158 157.9 42.1158C157.8 42.3158 157.6 42.5158 157.4 42.6158C157.2 42.7158 157 43.0157 156.7 42.8157C156.5 42.6157 156.6 42.4157 156.8 42.3157C158 41.3157 157.4 39.6157 156.4 38.9157C155.3 38.1157 153.4 38.2157 152 38.8157C150.8 39.4157 149.5 39.8157 148 40.0157C147.7 40.1157 147.3 40.0158 146.9 40.1158C145.3 40.1158 143.7 40.1158 142.2 40.1158C141.9 40.1158 141.5 40.1157 141.5 39.8157C141.5 39.5157 141.7 39.4157 142.1 39.4157C143.4 39.4157 144.8 39.4157 146.1 39.4157C146.5 39.3157 146.8 39.4157 147.1 39.3157Z" fill="#2B182D"/>
<path opacity="0.47" d="M154.4 40.0157C155.1 40.1157 154.9 40.4157 154.8 40.7157C154 42.4157 152.2 43.1157 149.9 43.4157C149.6 43.4157 149.3 43.5157 149 43.5157C148.6 43.6157 148.1 43.5158 147.7 43.6158C147.5 43.6158 147.3 43.6158 147.1 43.6158C146.7 43.7158 146.2 43.7158 145.8 43.6158C144.5 43.5158 143.3 43.0157 142.1 42.9157C140.1 42.7157 138.4 43.3157 138.3 44.9157C138.3 45.1157 138.4 45.2157 138.2 45.4157C138.1 45.5157 138 45.5157 137.8 45.5157C137.6 45.5157 137.7 45.4158 137.7 45.3158C137.5 44.2158 138.3 42.8157 140.1 42.4157C141.9 42.0157 143.5 42.5157 145.1 42.7157C147.9 43.0157 150.6 42.8158 152.9 41.3158C153.3 41.0158 153.4 40.7157 153.7 40.4157C153.9 40.3157 154 40.1157 154.4 40.0157Z" fill="#2B182D"/>
<path d="M128.4 84.1157C129.3 85.2157 128.2 96.6157 127.2 98.1157C126.3 99.6157 124.9 98.9157 124.9 98.8157C124.8 98.7157 124.9 98.7157 124.9 98.7157C125.1 98.3157 125.3 98.0157 125.5 97.6157V97.5157C125.7 97.1157 125.7 96.7157 125.9 96.4157C126.5 95.1157 127.9 86.5157 128.4 84.1157Z" fill="#244DA0"/>
<path d="M139.2 49.9157C139.2 49.5157 139.1 49.0157 139.9 48.9157C140.2 48.9157 140.1 48.4157 140.1 48.1157C140.2 47.3157 140.1 46.4157 140.5 45.7157C140.8 45.6157 141.1 45.6157 141.3 45.9157C141.4 46.3157 141.4 46.7157 141.3 47.1157C141.5 49.6157 141.6 52.1157 141.8 54.6157C141.5 54.7157 141.1 54.9157 140.4 54.9157C140.2 54.9157 140 54.9157 139.9 54.8157C139.6 54.8157 139.3 54.8157 139.2 54.4157C139.1 53.2157 139.2 52.0157 139.1 50.8157C139.3 50.5157 139.4 50.2157 139.2 49.9157Z" fill="#210022"/>
<path d="M159.4 91.0157C159.2 90.4157 159.3 89.7157 159 89.1157C159 89.0157 159 88.9157 159 88.8157C159 88.5157 158.9 88.2157 159.3 88.1157C159.7 88.0157 159.9 88.3157 159.9 88.6157C160.1 89.3157 160.1 90.1157 160.3 90.8157C160.6 91.8157 160.7 95.9157 160.7 95.9157C160.7 95.9157 159.6 92.0157 159.4 91.0157Z" fill="#244DA0"/>
<path d="M142.9 78.2157C142.9 78.7157 142.7 79.0157 142.2 79.0157C141.8 79.0157 141.4 78.7157 141.4 78.3157C141.4 77.9157 141.5 77.3157 142.1 77.3157C142.7 77.4157 142.9 77.7157 142.9 78.2157Z" fill="#244DA0"/>
<path d="M156.6 89.8157C156.1 89.4157 155.5 89.3157 154.9 89.3157C154.4 89.2157 154 89.3157 153.5 89.2157C153.2 89.2157 152.9 89.2157 152.5 89.2157C152.1 89.1157 151.7 89.2157 151.3 89.1157C150.7 89.0157 150 89.2157 149.4 88.9157C149.1 88.8157 148.8 88.9157 148.5 88.8157C148 88.9157 147.3 88.8157 147.2 89.6157C147.1 90.4157 147.1 91.2157 147.2 91.9157C147.3 93.4157 147.6 94.8157 147.8 96.2157C148 97.5157 148.3 98.8157 149.1 99.9157C149.8 101.016 150.7 101.716 152.1 101.716C153.8 101.716 155 100.716 155.4 98.9157C155.9 96.3157 156.3 93.8157 156.8 91.2157C156.7 90.7157 156.8 90.2157 156.6 89.8157ZM154.9 95.7157C154.7 96.7157 154.5 97.7157 154.3 98.6157C154.1 99.6157 153.5 100.416 152.5 100.516C151.6 100.616 150.8 100.316 150.2 99.5157C148.8 97.8157 148.7 95.8157 148.4 93.8157C150.3 93.9157 152 93.9157 153.8 94.2157C155.1 94.5157 155.1 94.4157 154.9 95.7157ZM155.6 91.4157C155.4 92.1157 155.5 93.0157 155.1 93.3157C154.7 93.6157 153.8 93.2157 153.1 93.1157C152.2 93.0157 151.3 92.8157 150.6 93.0157C150.1 93.0157 149.7 93.0157 149.3 93.0157C148.3 93.1157 148.2 92.6157 148.3 91.8157C148.4 91.2157 148.2 90.4157 148.5 89.9157C148.9 89.4157 149.7 89.9157 150.3 90.0157C151.8 90.0157 153.3 90.2157 154.9 90.3157C155.5 90.4157 155.7 90.6157 155.6 91.4157Z" fill="#244DA0"/>
<path d="M149.8 65.7157C140.3 71.0157 135.9 68.1157 134.3 66.1157C135.4 64.4157 136.1 62.6157 136.4 60.2157C138.2 64.7157 149.8 65.7157 149.8 65.7157Z" fill="#C5642E"/>
<path d="M161.9 95.7157V108.416H159.7C160 104.616 160.3 100.916 160.5 97.1157C160.6 96.3157 160.9 95.8157 161.9 95.7157Z" fill="#C5642E"/>
<path d="M125.1 98.2157C124.7 100.716 124.1 103.316 123.4 106.116C123.2 106.716 123.1 107.316 122.9 107.816L122.4 97.7157C123.3 97.8157 124.2 98.0157 125.1 98.2157Z" fill="#C5642E"/>
<path d="M74.7 62.4157C73.4 61.1157 63.4 51.2157 57.3 53.3157C56.2 53.7157 55.9 54.2157 55.9 54.3157C54.8 56.9157 62 62.6157 68.4 67.0157C68.9 67.0157 71.8 66.9157 73.6 64.6157C74.2 63.8157 74.5 63.0157 74.7 62.4157Z" fill="#DB844B"/>
<path d="M58.6 49.8156L54 64.2156C53.7 65.2156 54.1 66.3156 55 66.8156L57.7 68.3156C58.9 69.0156 60.4 68.4156 60.8 67.1156L66.1 51.5156C66.6 50.2156 65.6 48.8156 64.2 48.6156L60.8 48.3156C59.8 48.2156 58.9 48.8156 58.6 49.8156Z" fill="#180616"/>
<path d="M146.8 159.916C146 157.616 143.9 158.716 142.4 158.416C142.1 158.316 141.7 158.416 141.4 158.416C141.4 159.116 141.4 159.816 141.5 160.516C142.5 160.816 144.1 159.816 144.5 161.316C144.8 162.416 144.2 163.716 143.1 164.516C142.2 165.116 141.4 165.416 141.4 163.816C141.4 162.716 141.4 161.716 141.4 160.616C140 162.916 141.4 165.216 141.3 167.516C142.5 167.516 143.5 167.016 144.5 166.316C146.4 164.916 147.5 162.016 146.8 159.916Z" fill="#F9FBFA"/>
<path d="M141.3 167.416C141.1 171.316 140.2 172.116 136.3 172.216C134.7 172.216 133.2 172.116 131.6 172.016C129.4 171.916 128.4 170.516 128.4 168.416C128.4 164.616 128.4 160.816 128.4 157.016C128.4 155.116 129.2 154.516 131 154.516C133.2 154.616 135.3 154.516 137.5 154.516C141.3 154.516 141.3 154.516 141.5 158.316C142 158.816 142.1 159.416 142 160.116C142 160.416 141.9 160.616 141.8 160.916C141.6 162.316 141.5 163.716 141.8 165.116C141.9 165.916 142 166.716 141.3 167.416Z" fill="#F9FBFA"/>
<path d="M111.3 92.7157C109.5 87.5157 103.8 82.3157 100 78.4157C92.9 71.3157 83.9 66.2157 74.7 62.3157L71.2 65.8157C70.4 66.6157 69.4 67.0157 68.4 66.9157C69.5 68.4157 70.9 69.9157 71.6 70.8157C73.9 73.9157 76.2 77.0157 78.8 79.8157C81.6 82.8157 85.2 86.4157 88.6 88.6157C79.6 84.1157 70.2 80.4157 61.1 76.1157C57.6 74.4157 52.6 71.6157 48.5 71.7157C43.7 71.9157 48.7 78.5157 49.4 80.7157C52 88.7157 51.9 97.9157 51.7 106.216C51.4 114.516 52 118.716 51.7 120.216C50.9 123.716 49.3 128.316 51.2 129.916C51.7 130.316 52.9 130.816 54.1 131.116C54.9 131.316 56 131.416 56.5 131.316C59.8 130.216 60 123.016 60.6 120.116C61.5 115.116 62.7 109.816 62.8 104.716C62.8 103.716 62.3 102.416 63.1 101.916C63.9 101.416 66.7 102.616 67.5 102.816C72.9 104.416 78.2 106.416 83.6 108.116C90.8 110.316 99.3 111.116 106.2 107.316C112 104.216 113.4 98.9157 111.3 92.7157Z" fill="#272756"/>
<path d="M39.4 127.116C42.2 127.216 41.7 124.916 41.9 123.416C42.8 116.116 42.4 108.916 41.7 101.616C40.8 92.6157 38.6 83.8156 37.3 74.9156C39 75.2156 39.3 76.8157 40.2 77.8157C44.3 82.7157 46.1 82.5157 48.8 77.1157C50.9 80.0157 51.3 83.5157 51.7 86.8157C52.7 93.6157 52.9 100.416 52.8 107.216C52.8 108.516 52.3 109.816 52.1 111.116C52.1 117.116 51.1 123.016 50 128.916C49.9 129.316 49.6 129.616 49.3 129.816C46 129.116 42.7 128.316 39.4 127.616C39.2 127.516 39.2 127.416 39.2 127.316C39.3 127.116 39.3 127.116 39.4 127.116Z" fill="#F0E7E3"/>
<path d="M52.4 130.216C51.7 130.016 51 129.816 50.2 129.516C49.9 129.416 49.7 129.316 49.4 129.216C50 123.116 50.8 117.016 52.1 111.016C53.2 117.416 52.5 123.816 52.4 130.216Z" fill="#353264"/>
<path d="M92.1 108.916C94.1 107.116 118.1 108.316 128 108.316C132.6 108.316 133.3 109.216 131.5 113.216C129.1 118.616 118.2 140.916 118.3 142.016C118.3 142.716 116.8 143.516 116.6 143.616C103.6 143.516 90.6 143.516 77.6 143.416C75.9 142.816 76.4 141.616 76.8 140.416C77.5 137.816 78.8 135.516 80 133.216C83 126.916 86 120.716 88.6 114.316C89.4 112.316 91 110.716 92.1 108.916Z" fill="#DEE5FD"/>
<path d="M92.1 108.916C92.4 109.016 92.6 109.216 92.9 109.316C88.8 113.416 87.6 119.016 85.1 124.016C82.4 129.216 80.1 134.616 77.6 139.816C77 141.016 76.4 142.216 77.6 143.416C67.2 143.316 56.7 143.316 46.3 143.216C46.1 141.716 47 141.416 48.3 141.416C50 141.416 70.5 141.116 74.8 141.316C75.4 141.316 75.9 141.216 76.1 140.516C79.2 131.616 87.5 113.416 88.3 113.016C89.3 111.516 90.3 109.816 92.1 108.916Z" fill="#DEE5FD"/>
<path d="M107.5 126.516C107.1 128.416 106.7 130.616 104.2 130.716C102.4 130.716 102.7 128.816 102.7 127.616C102.7 125.416 103.9 123.916 106 123.816C108 123.516 107.2 125.416 107.5 126.516Z" fill="#F7F9FA"/>
<path d="M35.6 68.8157C33.7 68.3157 32.1 67.4157 29.9 68.4157C27.9 69.3157 26.3 67.9157 25.3 66.2157C24.1 64.2157 22.4 63.4157 20.1 63.3157C17.1 63.2157 16.2 61.5157 17.8 59.0157C18.9 57.3157 19.7 55.8157 19.8 53.7157C19.9 51.6157 21.3 49.9157 23.4 49.5157C25.5 49.1157 26.4 48.0157 27.1 46.0157C29.7 39.0157 36.7 35.3157 44.5 36.5157C45.7 36.7157 46.9 36.9157 48.1 36.8157C53.3 36.7157 54.9 37.9157 56.1 43.0157C56.4 44.3157 57.1 45.3157 58.2 45.8157C61.6 47.3157 62 50.1157 61.2 53.3157C60.7 55.4157 60.9 57.0157 62.5 58.7157C64.4 60.8157 63.8 63.5157 63.2 66.0157C62.7 67.9157 60.7 67.4157 59.2 67.6157C57.3 67.9157 55.5 67.6157 53.6 67.7157C51.2 67.9157 50.9 66.7157 51.7 64.9157C53.6 60.6157 54.3 56.1157 53.9 51.4157C53.6 48.1157 53.5 48.6157 50.6 49.5157C46.1 50.9157 42.7 53.8157 38.8 55.9157C35.1 55.2157 34.7 55.7157 35.5 60.3157C35.4 62.4157 38.1 62.8157 38.2 64.8157C38.3 66.1157 38 67.2157 37.4 68.3157C37 68.8157 36.4 69.1157 35.6 68.8157Z" fill="#F0E7E3"/>
<path d="M45.2 82.8157C42.3 83.6157 37.6 79.8157 34.8 72.3157C35.7 70.6157 36.6 68.6157 37.2 66.2157C37.3 65.6157 37.5 65.1157 37.6 64.6157C37.8 64.3157 38 64.4157 38.2 64.7157C39.8 66.8157 41.5 68.9157 44.3 69.3157C44.4 69.3157 44.8 69.4157 45.1 69.7157C45.5 70.1157 45.5 70.7157 45.5 71.1157C46 72.0157 46.6 72.9157 47.1 73.9157C47.7 75.1157 48.3 76.2157 48.7 77.2157C48.4 78.7157 47.5 82.1157 45.2 82.8157Z" fill="#DB844B"/>
<path d="M54.8 51.0157C54.7 49.3157 54.7 47.3157 53.2 46.6157C52.2 46.1157 51.9 48.5157 50.8 48.7157C46 49.6157 42.3 52.6157 38.3 55.2157C35.7 53.7157 34.4 54.2157 34.2 56.8157C34.1 57.8157 33.8 59.0157 34.7 59.8157C35.5 61.4157 36.8 63.7157 38.9 65.9157C41.3 68.4157 43.7 70.0157 45.5 70.9157C45.6 70.7157 45.9 70.5157 46.2 70.3157C47.1 69.7157 48 69.9157 48.6 69.8157C49.4 69.6157 50.4 69.0157 51.3 67.1157C54.5 62.1157 55.1 56.6157 54.8 51.0157Z" fill="#DB844B"/>
<path d="M45.5 71.0157C45.5 71.0157 38 66.8157 37.6 64.6157L36.1 69.6157C36.1 69.6157 41.5 73.3157 45.5 71.0157Z" fill="#C5642E"/>
<path d="M61.6 133.116C61.6 132.916 61.6 132.816 61.6 132.616C61.1 132.216 60.6 131.916 60.3 131.816C57.5 131.216 55 131.016 52.4 130.316C51.7 130.116 51 129.916 50.2 129.616C49.9 129.516 49.7 129.416 49.4 129.316C46.5 128.316 43.6 127.816 40.5 127.416C40.3 127.416 40.2 127.416 40 127.316C40.5 127.316 41 127.116 41.4 126.816C43.7 124.916 43.2 118.016 43.2 115.516C43.4 104.816 41.8 94.1157 39.7 83.6157C39.2 80.9157 39.1 72.8157 36.3 71.6157C34.7 70.9157 31.2 72.1157 29.6 72.4157C27.1 72.9157 24.6 73.7157 22.1 74.4157C15.8 80.0157 13.6 89.0157 10.6 96.6157C7.7 103.916 0 125.916 0 127.316C0 129.716 0.200001 132.216 1.2 134.516C2.3 137.116 4.2 139.216 6.6 140.616C9.5 142.316 12.3 141.916 15.5 142.016C30.8 142.116 46.3 142.816 61.6 142.416V133.116Z" fill="#353264"/>
<path d="M76.1 134.716C76.1 133.616 75.6 133.016 74.6 132.916C74.2 132.716 73.8 132.416 73.3 132.216C69.1 131.816 65.5 133.916 61.5 134.516V140.516C64.7 140.316 66.7 139.916 69.2 139.616C70.5 139.416 72.5 139.316 74.9 139.216C76.1 139.416 76.4 135.816 76.1 134.716Z" fill="#DB844B"/>
<path d="M55.9 54.4157C55.9 54.2157 55.9 54.0157 55.9 53.8157C55.8 53.5157 55.9 53.2157 55.8 53.0157C55.3 51.6157 55.4 50.0157 54.9 48.6157C54.4 47.5157 53.9 46.4157 52.7 45.9157C51.7 45.4157 50.8 44.9157 50.1 43.9157C49.8 43.4157 49.2 43.2157 48.7 43.0157C48.5 42.9157 48.2 42.8157 47.9 42.7157C47.5 42.6157 47.2 42.2157 46.8 42.3157C46.4 42.5157 46.7 43.0157 46.6 43.3157C46.2 44.4157 45.4 45.3157 44.5 46.0157C43 47.2157 41.3 48.0157 39.7 49.0157C37.6 50.1157 36 51.8157 34.2 53.3157C32.6 54.7157 31.7 56.4157 31.3 58.4157C31.1 59.5157 31.2 60.5157 31.6 61.5157C31.8 61.9157 31.9 62.3157 32 62.7157C32.1 62.9157 32.2 63.1157 31.9 63.2157C31.7 63.3157 31.5 63.2157 31.4 63.0157C31 62.2157 30.6 61.5157 30.5 60.6157C30.1 57.8157 31 55.4157 32.9 53.5157C34 52.3157 35.4 51.3157 36.7 50.2157C37.8 49.3157 38.9 48.5157 40.1 47.9157C41.3 47.3157 42.4 46.7157 43.5 46.0157C44.6 45.3157 45.6 44.4157 46.1 43.1157C46.2 42.5157 46.2 42.5157 45.9 42.4157C43.5 44.8157 40.4 46.2157 37.3 47.6157C36 48.2157 34.8 49.1157 34.3 50.5157C33.4 52.7157 31.9 54.2157 29.8 55.3157C28 56.2157 27.3 57.6157 27.2 59.5157C27.2 59.7157 27.2 59.9157 27.1 60.0157C27 60.3157 27.1 60.8157 26.6 60.7157C26.2 60.6157 26.5 60.2157 26.4 60.0157C26.6 59.8157 26.4 59.4157 26.5 59.2157C26.6 58.3157 26.9 57.5157 27.2 56.7157C27.4 56.2157 27.7 55.8157 28.2 55.5157C29.1 54.9157 30 54.3157 31 53.8157C32.3 53.1157 32.9 51.9157 33.5 50.6157C34.3 48.7157 35.8 47.6157 37.6 46.8157C40.2 45.6157 42.8 44.4157 45 42.6157C45.3 42.4157 45.5 42.1157 45.7 41.7157C44.9 41.9157 44.3 42.3157 43.5 42.4157C42.8 42.5157 42.1 42.3157 41.4 42.5157C41.3 42.5157 41.1 42.5157 41 42.5157C40.7 42.4157 40.4 42.5157 40.2 42.4157C38.8 42.5157 37.3 42.5157 36.1 43.2157C34.7 43.9157 33.8 45.1157 33 46.4157C32.3 47.6157 31.8 48.9157 31 50.1157C29.9 51.7157 28.4 52.9157 26.4 53.4157C24.4 53.9157 23.5 55.1157 23.3 57.2157C23.3 57.3157 23.3 57.4157 23.3 57.5157C23.2 57.7157 23.2 58.2157 22.8 58.1157C22.5 58.0157 22.7 57.6157 22.7 57.4157C22.8 57.1157 22.7 56.8157 22.8 56.6157C22.8 55.4157 23.3 54.5157 24.2 53.7157C24.8 53.2157 25.5 53.0157 26.2 52.8157C28.5 52.0157 30 50.5157 31.1 48.3157C32.1 46.2157 33.3 44.1157 35.3 42.7157C36.5 41.9157 37.8 41.9157 39.1 41.6157C39.6 41.5157 40.2 41.5157 40.7 41.6157C42.5 41.7157 44.4 41.8157 45.9 40.4157C46.4 40.0157 46.9 40.4157 47.4 40.4157C49.1 40.3157 50.9 40.1157 52.4 41.3157C53.5 42.2157 54.6 43.3157 55.1 44.8157C55.6 46.2157 56.4 47.4157 57.7 48.3157C58.4 48.7157 58.9 49.4157 59.3 50.2157C59.4 50.5157 59.4 50.8157 59.3 51.1157C59.1 51.9157 58.6 52.7157 58.6 53.6157C58.5 53.9157 58.6 54.2157 58.5 54.4157C58.2 55.8157 58.9 57.1157 59.4 58.3157C59.6 58.8157 59.7 59.3157 59.9 59.8157C60 60.0157 60 60.2157 59.7 60.4157C59 58.3157 57.5 56.4157 57.9 53.9157C58.1 53.6157 57.9 53.3157 58 53.1157C58.1 52.6157 58.3 52.1157 58.4 51.6157C58.8 50.2157 58.5 49.6157 57.3 48.7157C56.7 48.2157 56 47.8157 55.6 47.2157C55 46.5157 54.6 45.6157 54.3 44.8157C53.5 43.0157 51.3 41.0157 49.1 41.2157C48.5 41.3157 47.9 41.2157 47.3 41.3157C47.8 41.7157 48.4 41.9157 48.9 42.1157C49.9 42.4157 50.8 42.9157 51.5 43.8157C52 44.5157 52.8 44.8157 53.5 45.2157C54.5 45.7157 55.2 46.4157 55.4 47.5157C56.2 49.4157 56.4 51.4157 56.7 53.3157C56.8 53.6157 56.8 54.0157 56.9 54.3157C57.1 55.2157 56.8 56.0157 57 56.9157C56.9 58.2157 57.3 59.3157 57.8 60.4157C57.9 60.6157 58 60.8157 58.1 61.0157C58.2 61.2157 58.2 61.4157 58 61.5157C57.8 61.6157 57.6 61.5157 57.5 61.3157C56.9 60.2157 56.4 59.2157 56.4 57.9157C56.4 57.0157 56.4 56.1157 56.4 55.3157C55.8 55.0157 56 54.7157 55.9 54.4157Z" fill="#C8AFAD"/>
<path d="M48.8 77.0157C50.1 77.4157 50.5 79.5157 50.7 80.6157C50.8 81.7157 50.8 83.1157 50.4 84.1157C50 85.1157 49.1 86.6157 47.8 86.8157C46.5 87.1157 46 85.6157 45.6 84.8157C45.1 86.0157 45 87.5157 43.1 87.1157C41.9 86.9157 41.4 85.9157 40.7 85.1157C39.9 84.1157 39.3 82.9157 38.9 81.7157C38.6 81.0157 38.4 80.2157 38.3 79.4157C38.2 79.0157 37.9 77.4157 38.2 77.0157C39.1 76.1157 40.1 79.1157 40.3 79.4157C41 80.6157 41.8 81.7157 43.3 82.1157C47.1 83.3157 47.5 79.0157 48.8 77.0157Z" fill="#F0E7E3"/>
<path d="M55.1 132.616C55.2 132.616 55.3 132.816 55.3 133.016C56 135.516 57.1 137.816 57.7 140.416C57.8 140.716 57.8 141.016 57.4 141.116C57 141.216 56.9 140.916 56.8 140.716C56 139.316 55.7 137.816 55.3 136.316C55.1 135.416 54.6 134.616 54.3 133.816C54.1 133.416 54.5 132.716 55.1 132.616Z" fill="#180616"/>
<path d="M36.1 62.3157C35.4 62.3157 34.7 61.6157 34.7 60.9157C34.7 60.1157 35.3 59.3157 35.9 59.3157C36.6 59.3157 37.3 60.1157 37.3 61.0157C37.2 61.9157 36.9 62.3157 36.1 62.3157Z" fill="#180616"/>
<path d="M42 56.1157C42.8 54.9157 44 54.1157 45.1 53.2157C46.4 52.1157 47.9 51.2157 49 50.0157C49.5 49.5157 50 48.9157 50.2 48.1157C50.2 47.9157 50.2 47.7157 50.5 47.8157C50.8 47.8157 50.7 48.1157 50.7 48.2157C50.6 49.1157 50 49.7157 49.5 50.3157C48.4 51.6157 46.9 52.4157 45.5 53.4157C44.3 54.3157 43.2 55.2157 42 56.1157Z" fill="#F0E7E3"/>
<path d="M74.2 68.4157C73.8 68.7157 73.4 68.9157 73 69.2157C72.7 69.4157 72.5 69.4157 72.2 69.4157C72 69.4157 71.9 69.3157 71.9 69.1157C71.9 68.9157 72 68.9157 72.1 68.8157C73.3 67.9157 74.5 67.0157 75.5 65.8157C75.7 65.6157 76 65.5157 76.2 65.4157C76.5 65.3157 76.8 64.9157 77 65.2157C77.2 65.5157 76.9 65.8157 76.7 66.0157C76 66.6157 75.6 67.4157 74.8 67.9157C74.6 68.1157 74.4 68.3157 74.2 68.4157Z" fill="#272756"/>
<path d="M24.9 47.4157C26 46.1157 27.4 45.1157 28.7 44.1157C30 43.1157 30.9 41.7157 31.9 40.3157C32.2 40.9157 31.8 41.4157 31.5 41.8157C29.9 44.2157 27.5 45.5157 25.3 47.3157C25.2 47.4157 25.1 47.4157 25 47.4157C25.1 47.5157 25.1 47.5157 24.9 47.4157Z" fill="#F0E7E3"/>
<path d="M16.4 58.5156C16.7 57.9156 17.2 57.4156 17.8 57.0156C19.4 56.0156 20.6 54.8156 20.9 52.9156C20.9 52.8156 21 52.6156 21.1 52.5156C21.2 52.4156 21.2 52.0156 21.5 52.2156C21.8 52.3156 21.6 52.6156 21.5 52.7156C21.1 53.7156 21 54.8156 20.2 55.7156C19.8 56.1156 19.4 56.4156 18.9 56.8156C18.1 57.4156 17.3 58.0156 16.5 58.6156C16.5 58.6156 16.4 58.6156 16.4 58.5156Z" fill="#F0E7E3"/>
<path d="M60.3 51.5156C60.3 51.3156 60.3 51.1156 60.2 51.0156C60.1 50.8156 59.9 50.6156 60.2 50.5156C60.5 50.4156 60.7 50.6156 60.7 50.8156C60.8 51.3156 60.9 51.8156 61 52.3156C61.1 53.3156 61.3 54.2156 61.6 55.1156C61.9 55.8156 62.2 56.3156 63.1 56.5156C62.4 56.9156 62 56.6156 61.7 56.1156C60.9 55.0156 60.5 53.7156 60.5 52.4156C60.3 52.1156 60.5 51.8156 60.3 51.5156Z" fill="#F0E7E3"/>
<path d="M57.2 44.4156C56.6 44.6156 56.2 44.5156 56 44.2156C55.4 43.5156 54.9 42.8156 54.5 42.1156C54.2 41.6156 54 40.9156 53.1 41.0156C52.8 41.0156 52.9 40.7156 52.9 40.6156C52.9 40.2156 53.2 40.3156 53.4 40.4156C54 40.7156 54.5 41.2156 54.9 41.8156C55.2 42.4156 55.5 43.0156 55.9 43.5156C56.3 43.7156 56.6 44.1156 57.2 44.4156Z" fill="#F0E7E3"/>
<path d="M34.3 71.6157C34.2 71.3157 34 70.7156 34.2 70.4156C34.6 69.9156 36.2 70.4157 37.3 71.3157C38.4 72.2157 38.8 73.3157 39 73.8157C39.9 76.2157 39.6 78.7157 40.4 81.2157C41.2 83.8157 41.5 86.7156 42 89.4156C43.3 96.6156 44.2 102.516 44.6 106.016C44.6 106.016 46 116.116 44.9 122.216C44.7 123.316 44.5 123.116 43.7 126.216C43.4 127.216 43.2 127.616 42.8 127.916C42.2 128.316 41.6 128.116 40.8 128.016C39.7 127.816 39 127.416 38.6 127.216C37.7 126.816 37.2 126.916 34.7 126.116C32 125.316 29.4 124.816 26.7 124.216C24.3 123.716 21.7 123.216 19.4 122.116C19 121.916 18.9 122.216 19 121.716C19 121.416 19.9 120.816 20 120.616C20.8 119.616 21.3 118.416 21.9 117.316C23.2 114.716 24.6 112.216 25.5 109.416C27.1 104.516 28.3 99.4157 28.8 94.3157C28.8 93.9157 28.9 90.8157 29.8 92.0157C30.1 92.4157 29.8 93.6157 29.8 94.0157C29.8 94.6157 29.7 95.3156 29.7 95.9156C29.3 99.0156 28.7 102.116 27.9 105.116C26.3 111.016 24 116.716 20.3 121.716C22.8 122.416 25.3 123.216 27.9 123.616C29.2 123.816 30.5 123.916 31.8 124.216C33.1 124.516 34.4 125.016 35.7 125.416C36.2 125.616 36.8 125.716 37.3 125.816C37.6 125.916 38.5 126.216 38.8 126.116C39.3 125.916 39.5 124.416 39.6 123.816C39.7 122.716 39.5 121.616 39.6 120.416C39.6 119.316 39.8 118.316 39.9 117.216C40.2 112.216 40.1 107.216 40.3 102.216C40.3 101.616 40.3 100.916 40.3 100.316C40.3 100.016 40.4 98.9157 40.2 98.7157C39.9 98.4157 38.7 100.816 37.7 100.116C37.1 99.6157 37.2 97.8157 37.1 97.2157C37 95.9157 36.9 94.7156 36.8 93.4156C36.7 91.0156 36.4 88.6157 36.3 86.2157C36.2 84.4157 36.1 83.5157 36 82.8157C35.3 76.4157 34.9 73.2157 34.3 71.6157Z" fill="#272756"/>
<path d="M49.7 79.9157C49.9 80.3157 50 80.8157 50 80.8157C50.2 81.3157 50.3 81.9157 50.6 82.8157C52.4 90.4157 52.6 98.4157 51.6 106.116C51.4 107.716 51.3 109.216 51 110.816C50.7 112.616 50.2 114.416 49.9 116.216C49.7 117.916 49.3 119.516 48.9 121.216C48.6 122.716 48.4 123.016 48 124.516C47.6 126.316 47.3 127.716 47.2 128.716C49.2 129.316 51.2 129.916 53.3 130.516C53.5 128.216 53.6 125.916 53.8 123.616C54 120.516 54.3 117.416 54.6 114.416C54.6 114.416 56.3 104.216 56.6 100.716C56.6 100.016 56.7 99.4157 56.7 98.7157C56.7 98.3157 56.6 97.6157 56.7 97.3157C56.9 96.7157 57.6 96.8157 57.7 96.0157C58 94.2157 56.7 92.3157 56.2 90.6157C55.6 88.4157 55 86.3157 54.1 84.1157C53.4 82.2157 53.2 80.3157 52.7 78.3157C51.9 75.5157 51.4 74.2157 50.3 73.0157C48.6 71.3157 46 70.4157 45.5 71.1157C44.6 72.0157 48.8 77.6157 49.7 79.9157Z" fill="#272756"/>
<path d="M213.643 109C213.643 109 202.943 115.7 202.043 122.6C201.143 129.5 214.543 117.6 214.543 117.6L213.643 109Z" fill="#DB844B"/>
</svg>
