<svg width="591" height="465" viewBox="0 0 591 465" fill="none" xmlns="http://www.w3.org/2000/svg">
<path opacity="0.2" d="M519.039 53.8691H528.662C529.283 51.0796 529.593 48.1351 529.593 45.1906C529.593 42.2462 529.283 39.3017 528.662 36.5122H519.039C515.624 36.5122 514.072 32.4829 516.4 30.1584L523.229 23.3396C520.125 18.3805 515.779 14.1963 510.812 10.9419L503.983 17.7606C501.655 20.0852 497.619 18.3805 497.619 15.1261V5.51784C494.825 4.89796 491.876 4.58801 488.927 4.58801C485.978 4.58801 483.029 4.89796 480.235 5.51784V15.1261C480.235 18.5355 476.199 20.0852 473.871 17.7606L467.042 10.9419C462.075 14.0413 457.884 18.3805 454.625 23.3396L461.454 30.1584C463.782 32.4829 462.075 36.5122 458.815 36.5122H449.037C448.416 39.3017 448.105 42.2462 448.105 45.1906C448.105 48.1351 448.416 51.0796 449.037 53.8691H458.66C462.075 53.8691 463.627 57.8983 461.299 60.2229L454.469 67.0417C457.574 72.0008 461.92 76.185 466.886 79.4394L473.716 72.6207C476.044 70.2961 480.08 72.0008 480.08 75.2552V84.8634C482.874 85.4833 485.823 85.7933 488.772 85.7933C491.721 85.7933 494.67 85.4833 497.464 84.8634V75.2552C497.464 71.8458 501.499 70.2961 503.828 72.6207L510.657 79.4394C515.624 76.34 519.815 72.0008 523.074 67.0417L516.245 60.2229C514.072 57.8983 515.779 53.8691 519.039 53.8691ZM488.927 57.4334C482.253 57.4334 476.665 52.0094 476.665 45.1906C476.665 38.3719 482.098 32.9479 488.927 32.9479C495.601 32.9479 501.189 38.3719 501.189 45.1906C501.189 52.0094 495.601 57.4334 488.927 57.4334Z" fill="url(#paint0_linear)"/>
<path d="M515.624 49.8398H525.247C525.868 47.0503 526.178 44.1058 526.178 41.1613C526.178 38.2169 525.868 35.2724 525.247 32.4829H515.624C512.209 32.4829 510.657 28.4536 512.985 26.1291L519.814 19.3103C516.71 14.3512 512.364 10.167 507.397 6.91256L500.568 13.7313C498.24 16.0559 494.204 14.3512 494.204 11.0968V1.48855C491.41 0.86866 488.461 0.558716 485.512 0.558716C482.563 0.558716 479.614 0.86866 476.82 1.48855V10.9418C476.82 14.3512 472.784 15.9009 470.456 13.5764L463.627 6.75759C458.66 9.85703 454.469 14.1962 451.209 19.1553L458.039 25.9741C460.367 28.2987 458.66 32.3279 455.4 32.3279H445.777C445.156 35.1174 444.846 38.0619 444.846 41.0064C444.846 43.9508 445.156 46.8953 445.777 49.6848H455.4C458.815 49.6848 460.367 53.7141 458.039 56.0386L451.209 62.8574C454.314 67.8165 458.66 72.0007 463.627 75.2551L470.456 68.4364C472.784 66.1118 476.82 67.8165 476.82 71.0709V80.6792C479.614 81.299 482.563 81.609 485.512 81.609C488.461 81.609 491.41 81.299 494.204 80.6792V71.0709C494.204 67.6615 498.24 66.1118 500.568 68.4364L507.397 75.2551C512.364 72.1557 516.555 67.8165 519.814 62.8574L512.985 56.0386C510.502 53.869 512.209 49.8398 515.624 49.8398ZM485.357 53.2491C478.683 53.2491 473.095 47.8251 473.095 41.0064C473.095 34.3426 478.527 28.7636 485.357 28.7636C492.031 28.7636 497.619 34.1876 497.619 41.0064C497.619 47.8251 492.186 53.2491 485.357 53.2491Z" fill="#072E52"/>
<path opacity="0.1" d="M561.102 210.033H566.534C566.845 208.484 567 206.779 567 205.229C567 203.68 566.845 201.975 566.534 200.425H561.102C559.239 200.425 558.308 198.101 559.55 196.861L563.275 193.141C561.567 190.352 559.084 188.027 556.29 186.168L552.565 189.887C551.168 191.282 548.995 190.197 548.995 188.337V182.913C547.443 182.603 545.735 182.448 544.183 182.448C542.631 182.448 540.924 182.603 539.372 182.913V188.337C539.372 190.197 537.043 191.127 535.802 189.887L532.077 186.168C529.283 187.872 526.954 190.352 525.092 193.141L528.817 196.861C530.214 198.255 529.127 200.425 527.265 200.425H521.988C521.677 201.975 521.522 203.68 521.522 205.229C521.522 206.779 521.677 208.484 521.988 210.033H527.42C529.283 210.033 530.214 212.358 528.972 213.598L525.247 217.317C526.954 220.107 529.438 222.431 532.232 224.291L535.957 220.571C537.354 219.177 539.527 220.261 539.527 222.121V227.545C541.079 227.855 542.786 228.01 544.338 228.01C545.891 228.01 547.598 227.855 549.15 227.545V221.966C549.15 220.107 551.478 219.177 552.72 220.416L556.445 224.136C559.239 222.431 561.567 219.952 563.43 217.162L559.705 213.443C558.308 212.203 559.239 210.033 561.102 210.033ZM544.183 211.893C540.458 211.893 537.354 208.794 537.354 205.074C537.354 201.355 540.458 198.255 544.183 198.255C547.908 198.255 551.013 201.355 551.013 205.074C551.013 208.794 547.908 211.893 544.183 211.893Z" fill="black"/>
<path d="M557.997 206.469H563.43C563.74 204.919 563.895 203.215 563.895 201.665C563.895 199.96 563.74 198.41 563.43 196.861H557.997C556.135 196.861 555.203 194.536 556.445 193.296L560.17 189.577C558.463 186.788 555.979 184.463 553.186 182.603L549.46 186.323C548.063 187.717 545.89 186.633 545.89 184.773V179.349C544.338 179.039 542.631 178.884 541.079 178.884C539.371 178.884 537.819 179.039 536.267 179.349V184.773C536.267 186.633 533.939 187.562 532.697 186.323L528.972 182.603C526.178 184.308 523.85 186.788 521.987 189.577L525.713 193.296C527.109 194.691 526.023 196.861 524.16 196.861H518.883C518.573 198.41 518.417 200.115 518.417 201.665C518.417 203.37 518.573 204.919 518.883 206.469H524.316C526.178 206.469 527.109 208.794 525.868 210.033L522.143 213.753C523.85 216.542 526.333 218.867 529.127 220.726L532.852 217.007C534.249 215.612 536.422 216.697 536.422 218.557V223.981C537.975 224.291 539.682 224.446 541.234 224.446C542.941 224.446 544.494 224.291 546.046 223.981V218.557C546.046 216.697 548.374 215.767 549.616 217.007L553.341 220.726C556.135 219.022 558.463 216.542 560.325 213.753L556.6 210.033C555.203 208.639 556.135 206.469 557.997 206.469ZM541.079 208.329C537.354 208.329 534.249 205.229 534.249 201.51C534.249 197.791 537.354 194.691 541.079 194.691C544.804 194.691 547.908 197.791 547.908 201.51C547.908 205.229 544.804 208.329 541.079 208.329Z" fill="#15A0DB"/>
<g filter="url(#filter0_d)">
<path d="M530 49H30V429H530V49Z" fill="white"/>
<rect x="30" y="79" width="130" height="350" fill="#005FB2"/>
<path d="M69.0109 126.763V133H68.1919V128.023L66.2029 133H65.4739L63.4759 128.041V133H62.6569V126.763H63.6379L65.8519 132.001L68.0299 126.763H69.0109Z" fill="white"/>
<path d="M72.346 127.996C72.826 127.996 73.231 128.116 73.561 128.356C73.897 128.596 74.131 128.917 74.263 129.319V128.059H75.082V133H74.263V131.74C74.131 132.142 73.897 132.463 73.561 132.703C73.231 132.943 72.826 133.063 72.346 133.063C71.908 133.063 71.518 132.961 71.176 132.757C70.834 132.553 70.564 132.262 70.366 131.884C70.174 131.5 70.078 131.05 70.078 130.534C70.078 130.018 70.174 129.568 70.366 129.184C70.564 128.8 70.834 128.506 71.176 128.302C71.518 128.098 71.908 127.996 72.346 127.996ZM72.58 128.725C72.076 128.725 71.671 128.887 71.365 129.211C71.065 129.529 70.915 129.97 70.915 130.534C70.915 131.098 71.065 131.542 71.365 131.866C71.671 132.184 72.076 132.343 72.58 132.343C72.904 132.343 73.192 132.268 73.444 132.118C73.702 131.968 73.903 131.758 74.047 131.488C74.191 131.212 74.263 130.894 74.263 130.534C74.263 130.174 74.191 129.856 74.047 129.58C73.903 129.304 73.702 129.094 73.444 128.95C73.192 128.8 72.904 128.725 72.58 128.725Z" fill="white"/>
<path d="M77.2044 129.058C77.3664 128.716 77.6034 128.452 77.9154 128.266C78.2274 128.074 78.5994 127.978 79.0314 127.978V128.869H78.7794C78.3174 128.869 77.9394 128.989 77.6454 129.229C77.3514 129.463 77.2044 129.853 77.2044 130.399V133H76.3854V128.059H77.2044V129.058Z" fill="white"/>
<path d="M82.5485 133L80.6585 130.777V133H79.8395V126.34H80.6585V130.21L82.5215 128.059H83.5205L81.3065 130.516L83.5745 133H82.5485Z" fill="white"/>
<path d="M88.8406 130.255C88.8406 130.429 88.8286 130.579 88.8046 130.705H84.8536C84.8716 131.269 85.0306 131.692 85.3306 131.974C85.6366 132.256 86.0086 132.397 86.4466 132.397C86.8426 132.397 87.1726 132.298 87.4366 132.1C87.7066 131.896 87.8716 131.626 87.9316 131.29H88.8046C88.7446 131.632 88.6096 131.938 88.3996 132.208C88.1956 132.478 87.9286 132.688 87.5986 132.838C87.2686 132.988 86.8966 133.063 86.4826 133.063C86.0086 133.063 85.5886 132.961 85.2226 132.757C84.8566 132.553 84.5686 132.262 84.3586 131.884C84.1546 131.5 84.0526 131.05 84.0526 130.534C84.0526 130.018 84.1546 129.568 84.3586 129.184C84.5686 128.8 84.8566 128.506 85.2226 128.302C85.5886 128.098 86.0086 127.996 86.4826 127.996C86.9626 127.996 87.3796 128.098 87.7336 128.302C88.0936 128.506 88.3666 128.779 88.5526 129.121C88.7446 129.463 88.8406 129.841 88.8406 130.255ZM88.0126 130.309C88.0306 129.943 87.9706 129.637 87.8326 129.391C87.6946 129.145 87.5056 128.962 87.2656 128.842C87.0256 128.722 86.7646 128.662 86.4826 128.662C86.0326 128.662 85.6546 128.803 85.3486 129.085C85.0426 129.361 84.8776 129.769 84.8536 130.309H88.0126Z" fill="white"/>
<path d="M92.2698 132.28V133H91.6578C91.1538 133 90.7758 132.88 90.5238 132.64C90.2778 132.4 90.1548 131.998 90.1548 131.434V128.77H89.4168V128.059H90.1548V126.826H90.9828V128.059H92.2608V128.77H90.9828V131.452C90.9828 131.77 91.0398 131.989 91.1538 132.109C91.2738 132.223 91.4778 132.28 91.7658 132.28H92.2698Z" fill="white"/>
<path d="M93.1252 126.61C93.1252 126.46 93.1762 126.34 93.2782 126.25C93.3802 126.154 93.5152 126.106 93.6832 126.106C93.8512 126.106 93.9862 126.154 94.0882 126.25C94.1902 126.34 94.2412 126.46 94.2412 126.61C94.2412 126.76 94.1902 126.883 94.0882 126.979C93.9862 127.069 93.8512 127.114 93.6832 127.114C93.5152 127.114 93.3802 127.069 93.2782 126.979C93.1762 126.883 93.1252 126.76 93.1252 126.61ZM94.0882 128.059V133H93.2692V128.059H94.0882Z" fill="white"/>
<path d="M98.0059 127.978C98.5819 127.978 99.0469 128.164 99.4009 128.536C99.7549 128.902 99.9319 129.433 99.9319 130.129V133H99.1129V130.201C99.1129 129.709 98.9869 129.331 98.7349 129.067C98.4829 128.803 98.1409 128.671 97.7089 128.671C97.2589 128.671 96.8989 128.818 96.6289 129.112C96.3589 129.4 96.2239 129.823 96.2239 130.381V133H95.4049V128.059H96.2239V129.229C96.3499 128.827 96.5719 128.518 96.8899 128.302C97.2139 128.086 97.5859 127.978 98.0059 127.978Z" fill="white"/>
<path d="M103.213 127.996C103.693 127.996 104.098 128.116 104.428 128.356C104.764 128.596 104.998 128.917 105.13 129.319V128.059H105.949V133.081C105.949 133.537 105.853 133.942 105.661 134.296C105.469 134.65 105.199 134.926 104.851 135.124C104.503 135.322 104.098 135.421 103.636 135.421C102.97 135.421 102.427 135.259 102.007 134.935C101.587 134.617 101.32 134.185 101.206 133.639H102.016C102.112 133.969 102.292 134.227 102.556 134.413C102.826 134.605 103.171 134.701 103.591 134.701C104.035 134.701 104.401 134.557 104.689 134.269C104.983 133.987 105.13 133.591 105.13 133.081V131.74C104.998 132.142 104.764 132.463 104.428 132.703C104.098 132.943 103.693 133.063 103.213 133.063C102.775 133.063 102.385 132.961 102.043 132.757C101.701 132.553 101.431 132.262 101.233 131.884C101.041 131.5 100.945 131.05 100.945 130.534C100.945 130.018 101.041 129.568 101.233 129.184C101.431 128.8 101.701 128.506 102.043 128.302C102.385 128.098 102.775 127.996 103.213 127.996ZM103.447 128.725C102.943 128.725 102.538 128.887 102.232 129.211C101.932 129.529 101.782 129.97 101.782 130.534C101.782 131.098 101.932 131.542 102.232 131.866C102.538 132.184 102.943 132.343 103.447 132.343C103.771 132.343 104.059 132.268 104.311 132.118C104.569 131.968 104.77 131.758 104.914 131.488C105.058 131.212 105.13 130.894 105.13 130.534C105.13 130.174 105.058 129.856 104.914 129.58C104.77 129.304 104.569 129.094 104.311 128.95C104.059 128.8 103.771 128.725 103.447 128.725Z" fill="white"/>
<path d="M63.4759 153.444V156H62.6569V149.655H64.6729C65.3989 149.655 65.9419 149.826 66.3019 150.168C66.6619 150.504 66.8419 150.966 66.8419 151.554C66.8419 152.148 66.6559 152.613 66.2839 152.949C65.9119 153.279 65.3749 153.444 64.6729 153.444H63.4759ZM64.6009 152.76C65.0989 152.76 65.4559 152.655 65.6719 152.445C65.8939 152.235 66.0049 151.938 66.0049 151.554C66.0049 151.158 65.8939 150.858 65.6719 150.654C65.4559 150.444 65.0989 150.339 64.6009 150.339H63.4759V152.76H64.6009Z" fill="white"/>
<path d="M68.6175 152.058C68.7795 151.716 69.0165 151.452 69.3285 151.266C69.6405 151.074 70.0125 150.978 70.4445 150.978V151.869H70.1925C69.7305 151.869 69.3525 151.989 69.0585 152.229C68.7645 152.463 68.6175 152.853 68.6175 153.399V156H67.7985V151.059H68.6175V152.058Z" fill="white"/>
<path d="M73.4936 150.996C73.9676 150.996 74.3906 151.098 74.7626 151.302C75.1406 151.506 75.4346 151.8 75.6446 152.184C75.8606 152.568 75.9686 153.018 75.9686 153.534C75.9686 154.05 75.8606 154.5 75.6446 154.884C75.4346 155.262 75.1406 155.553 74.7626 155.757C74.3906 155.961 73.9676 156.063 73.4936 156.063C73.0196 156.063 72.5936 155.961 72.2156 155.757C71.8436 155.553 71.5496 155.262 71.3336 154.884C71.1176 154.5 71.0096 154.05 71.0096 153.534C71.0096 153.018 71.1176 152.568 71.3336 152.184C71.5496 151.8 71.8436 151.506 72.2156 151.302C72.5936 151.098 73.0196 150.996 73.4936 150.996ZM73.4936 151.716C73.1996 151.716 72.9266 151.782 72.6746 151.914C72.4286 152.046 72.2276 152.25 72.0716 152.526C71.9216 152.796 71.8466 153.132 71.8466 153.534C71.8466 153.93 71.9216 154.266 72.0716 154.542C72.2276 154.812 72.4286 155.013 72.6746 155.145C72.9266 155.277 73.1996 155.343 73.4936 155.343C73.7876 155.343 74.0576 155.277 74.3036 155.145C74.5556 155.013 74.7566 154.812 74.9066 154.542C75.0626 154.266 75.1406 153.93 75.1406 153.534C75.1406 153.132 75.0626 152.796 74.9066 152.526C74.7566 152.25 74.5556 152.046 74.3036 151.914C74.0576 151.782 73.7876 151.716 73.4936 151.716Z" fill="white"/>
<path d="M78.5838 150.996C79.1418 150.996 79.5888 151.143 79.9248 151.437C80.2668 151.725 80.4738 152.115 80.5458 152.607H79.7628C79.7268 152.313 79.6038 152.073 79.3938 151.887C79.1898 151.695 78.9138 151.599 78.5658 151.599C78.2718 151.599 78.0408 151.671 77.8728 151.815C77.7108 151.953 77.6298 152.142 77.6298 152.382C77.6298 152.562 77.6838 152.709 77.7918 152.823C77.9058 152.931 78.0438 153.015 78.2058 153.075C78.3738 153.129 78.6018 153.189 78.8898 153.255C79.2558 153.339 79.5498 153.426 79.7718 153.516C79.9998 153.6 80.1918 153.738 80.3478 153.93C80.5098 154.122 80.5908 154.38 80.5908 154.704C80.5908 155.106 80.4378 155.433 80.1318 155.685C79.8318 155.937 79.4298 156.063 78.9258 156.063C78.3378 156.063 77.8578 155.922 77.4858 155.64C77.1138 155.358 76.8948 154.965 76.8288 154.461H77.6208C77.6508 154.761 77.7798 155.004 78.0078 155.19C78.2418 155.376 78.5478 155.469 78.9258 155.469C79.2078 155.469 79.4268 155.397 79.5828 155.253C79.7448 155.109 79.8258 154.92 79.8258 154.686C79.8258 154.494 79.7688 154.341 79.6548 154.227C79.5408 154.113 79.3998 154.026 79.2318 153.966C79.0638 153.906 78.8328 153.843 78.5388 153.777C78.1728 153.693 77.8788 153.609 77.6568 153.525C77.4408 153.441 77.2548 153.309 77.0988 153.129C76.9488 152.943 76.8738 152.694 76.8738 152.382C76.8738 151.968 77.0268 151.635 77.3328 151.383C77.6388 151.125 78.0558 150.996 78.5838 150.996Z" fill="white"/>
<path d="M84.4122 150.996C84.8502 150.996 85.2402 151.098 85.5822 151.302C85.9242 151.506 86.1912 151.8 86.3832 152.184C86.5812 152.568 86.6802 153.018 86.6802 153.534C86.6802 154.05 86.5812 154.5 86.3832 154.884C86.1912 155.262 85.9242 155.553 85.5822 155.757C85.2402 155.961 84.8502 156.063 84.4122 156.063C83.9322 156.063 83.5242 155.943 83.1882 155.703C82.8582 155.457 82.6302 155.136 82.5042 154.74V158.34H81.6852V151.059H82.5042V152.319C82.6302 151.923 82.8582 151.605 83.1882 151.365C83.5242 151.119 83.9322 150.996 84.4122 150.996ZM84.1782 151.725C83.8602 151.725 83.5722 151.8 83.3142 151.95C83.0562 152.094 82.8552 152.304 82.7112 152.58C82.5672 152.856 82.4952 153.174 82.4952 153.534C82.4952 153.894 82.5672 154.212 82.7112 154.488C82.8552 154.758 83.0562 154.968 83.3142 155.118C83.5722 155.268 83.8602 155.343 84.1782 155.343C84.6882 155.343 85.0932 155.184 85.3932 154.866C85.6992 154.542 85.8522 154.098 85.8522 153.534C85.8522 152.97 85.6992 152.529 85.3932 152.211C85.0932 151.887 84.6882 151.725 84.1782 151.725Z" fill="white"/>
<path d="M92.2947 153.255C92.2947 153.429 92.2827 153.579 92.2587 153.705H88.3077C88.3257 154.269 88.4847 154.692 88.7847 154.974C89.0907 155.256 89.4627 155.397 89.9007 155.397C90.2967 155.397 90.6267 155.298 90.8907 155.1C91.1607 154.896 91.3257 154.626 91.3857 154.29H92.2587C92.1987 154.632 92.0637 154.938 91.8537 155.208C91.6497 155.478 91.3827 155.688 91.0527 155.838C90.7227 155.988 90.3507 156.063 89.9367 156.063C89.4627 156.063 89.0427 155.961 88.6767 155.757C88.3107 155.553 88.0227 155.262 87.8127 154.884C87.6087 154.5 87.5067 154.05 87.5067 153.534C87.5067 153.018 87.6087 152.568 87.8127 152.184C88.0227 151.8 88.3107 151.506 88.6767 151.302C89.0427 151.098 89.4627 150.996 89.9367 150.996C90.4167 150.996 90.8337 151.098 91.1877 151.302C91.5477 151.506 91.8207 151.779 92.0067 152.121C92.1987 152.463 92.2947 152.841 92.2947 153.255ZM91.4667 153.309C91.4847 152.943 91.4247 152.637 91.2867 152.391C91.1487 152.145 90.9597 151.962 90.7197 151.842C90.4797 151.722 90.2187 151.662 89.9367 151.662C89.4867 151.662 89.1087 151.803 88.8027 152.085C88.4967 152.361 88.3317 152.769 88.3077 153.309H91.4667Z" fill="white"/>
<path d="M95.5529 150.996C96.1829 150.996 96.7049 151.164 97.1189 151.5C97.5329 151.836 97.7879 152.286 97.8839 152.85H97.0199C96.9599 152.496 96.7949 152.22 96.5249 152.022C96.2609 151.818 95.9309 151.716 95.5349 151.716C95.2469 151.716 94.9829 151.782 94.7429 151.914C94.5089 152.046 94.3199 152.25 94.1759 152.526C94.0319 152.796 93.9599 153.132 93.9599 153.534C93.9599 153.936 94.0319 154.275 94.1759 154.551C94.3199 154.821 94.5089 155.022 94.7429 155.154C94.9829 155.286 95.2469 155.352 95.5349 155.352C95.9309 155.352 96.2609 155.25 96.5249 155.046C96.7949 154.842 96.9599 154.563 97.0199 154.209H97.8839C97.7879 154.779 97.5329 155.232 97.1189 155.568C96.7049 155.898 96.1829 156.063 95.5529 156.063C95.0789 156.063 94.6589 155.961 94.2929 155.757C93.9269 155.553 93.6389 155.262 93.4289 154.884C93.2249 154.5 93.1229 154.05 93.1229 153.534C93.1229 153.018 93.2249 152.568 93.4289 152.184C93.6389 151.8 93.9269 151.506 94.2929 151.302C94.6589 151.098 95.0789 150.996 95.5529 150.996Z" fill="white"/>
<path d="M101.314 155.28V156H100.702C100.198 156 99.8197 155.88 99.5677 155.64C99.3217 155.4 99.1987 154.998 99.1987 154.434V151.77H98.4607V151.059H99.1987V149.826H100.027V151.059H101.305V151.77H100.027V154.452C100.027 154.77 100.084 154.989 100.198 155.109C100.318 155.223 100.522 155.28 100.81 155.28H101.314Z" fill="white"/>
<path d="M66.0229 179L64.3669 176.408H63.4759V179H62.6569V172.655H64.7449C65.4649 172.655 66.0049 172.829 66.3649 173.177C66.7249 173.519 66.9049 173.975 66.9049 174.545C66.9049 175.061 66.7609 175.478 66.4729 175.796C66.1849 176.108 65.7679 176.303 65.2219 176.381L66.9499 179H66.0229ZM63.4759 175.814H64.6729C65.6029 175.814 66.0679 175.406 66.0679 174.59C66.0679 173.774 65.6029 173.366 64.6729 173.366H63.4759V175.814Z" fill="white"/>
<path d="M72.449 176.255C72.449 176.429 72.437 176.579 72.413 176.705H68.462C68.48 177.269 68.639 177.692 68.939 177.974C69.245 178.256 69.617 178.397 70.055 178.397C70.451 178.397 70.781 178.298 71.045 178.1C71.315 177.896 71.48 177.626 71.54 177.29H72.413C72.353 177.632 72.218 177.938 72.008 178.208C71.804 178.478 71.537 178.688 71.207 178.838C70.877 178.988 70.505 179.063 70.091 179.063C69.617 179.063 69.197 178.961 68.831 178.757C68.465 178.553 68.177 178.262 67.967 177.884C67.763 177.5 67.661 177.05 67.661 176.534C67.661 176.018 67.763 175.568 67.967 175.184C68.177 174.8 68.465 174.506 68.831 174.302C69.197 174.098 69.617 173.996 70.091 173.996C70.571 173.996 70.988 174.098 71.342 174.302C71.702 174.506 71.975 174.779 72.161 175.121C72.353 175.463 72.449 175.841 72.449 176.255ZM71.621 176.309C71.639 175.943 71.579 175.637 71.441 175.391C71.303 175.145 71.114 174.962 70.874 174.842C70.634 174.722 70.373 174.662 70.091 174.662C69.641 174.662 69.263 174.803 68.957 175.085C68.651 175.361 68.486 175.769 68.462 176.309H71.621Z" fill="white"/>
<path d="M76.2472 173.996C76.6852 173.996 77.0752 174.098 77.4172 174.302C77.7592 174.506 78.0262 174.8 78.2182 175.184C78.4162 175.568 78.5152 176.018 78.5152 176.534C78.5152 177.05 78.4162 177.5 78.2182 177.884C78.0262 178.262 77.7592 178.553 77.4172 178.757C77.0752 178.961 76.6852 179.063 76.2472 179.063C75.7672 179.063 75.3592 178.943 75.0232 178.703C74.6932 178.457 74.4652 178.136 74.3392 177.74V181.34H73.5202V174.059H74.3392V175.319C74.4652 174.923 74.6932 174.605 75.0232 174.365C75.3592 174.119 75.7672 173.996 76.2472 173.996ZM76.0132 174.725C75.6952 174.725 75.4072 174.8 75.1492 174.95C74.8912 175.094 74.6902 175.304 74.5462 175.58C74.4022 175.856 74.3302 176.174 74.3302 176.534C74.3302 176.894 74.4022 177.212 74.5462 177.488C74.6902 177.758 74.8912 177.968 75.1492 178.118C75.4072 178.268 75.6952 178.343 76.0132 178.343C76.5232 178.343 76.9282 178.184 77.2282 177.866C77.5342 177.542 77.6872 177.098 77.6872 176.534C77.6872 175.97 77.5342 175.529 77.2282 175.211C76.9282 174.887 76.5232 174.725 76.0132 174.725Z" fill="white"/>
<path d="M81.8256 173.996C82.2996 173.996 82.7226 174.098 83.0946 174.302C83.4726 174.506 83.7666 174.8 83.9766 175.184C84.1926 175.568 84.3006 176.018 84.3006 176.534C84.3006 177.05 84.1926 177.5 83.9766 177.884C83.7666 178.262 83.4726 178.553 83.0946 178.757C82.7226 178.961 82.2996 179.063 81.8256 179.063C81.3516 179.063 80.9256 178.961 80.5476 178.757C80.1756 178.553 79.8816 178.262 79.6656 177.884C79.4496 177.5 79.3416 177.05 79.3416 176.534C79.3416 176.018 79.4496 175.568 79.6656 175.184C79.8816 174.8 80.1756 174.506 80.5476 174.302C80.9256 174.098 81.3516 173.996 81.8256 173.996ZM81.8256 174.716C81.5316 174.716 81.2586 174.782 81.0066 174.914C80.7606 175.046 80.5596 175.25 80.4036 175.526C80.2536 175.796 80.1786 176.132 80.1786 176.534C80.1786 176.93 80.2536 177.266 80.4036 177.542C80.5596 177.812 80.7606 178.013 81.0066 178.145C81.2586 178.277 81.5316 178.343 81.8256 178.343C82.1196 178.343 82.3896 178.277 82.6356 178.145C82.8876 178.013 83.0886 177.812 83.2386 177.542C83.3946 177.266 83.4726 176.93 83.4726 176.534C83.4726 176.132 83.3946 175.796 83.2386 175.526C83.0886 175.25 82.8876 175.046 82.6356 174.914C82.3896 174.782 82.1196 174.716 81.8256 174.716Z" fill="white"/>
<path d="M86.1868 175.058C86.3488 174.716 86.5858 174.452 86.8978 174.266C87.2098 174.074 87.5818 173.978 88.0138 173.978V174.869H87.7618C87.2998 174.869 86.9218 174.989 86.6278 175.229C86.3338 175.463 86.1868 175.853 86.1868 176.399V179H85.3678V174.059H86.1868V175.058Z" fill="white"/>
<path d="M91.1799 178.28V179H90.5679C90.0639 179 89.6859 178.88 89.4339 178.64C89.1879 178.4 89.0649 177.998 89.0649 177.434V174.77H88.3269V174.059H89.0649V172.826H89.8929V174.059H91.1709V174.77H89.8929V177.452C89.8929 177.77 89.9499 177.989 90.0639 178.109C90.1839 178.223 90.3879 178.28 90.6759 178.28H91.1799Z" fill="white"/>
<path d="M93.7274 173.996C94.2854 173.996 94.7324 174.143 95.0684 174.437C95.4104 174.725 95.6174 175.115 95.6894 175.607H94.9064C94.8704 175.313 94.7474 175.073 94.5374 174.887C94.3334 174.695 94.0574 174.599 93.7094 174.599C93.4154 174.599 93.1844 174.671 93.0164 174.815C92.8544 174.953 92.7734 175.142 92.7734 175.382C92.7734 175.562 92.8274 175.709 92.9354 175.823C93.0494 175.931 93.1874 176.015 93.3494 176.075C93.5174 176.129 93.7454 176.189 94.0334 176.255C94.3994 176.339 94.6934 176.426 94.9154 176.516C95.1434 176.6 95.3354 176.738 95.4914 176.93C95.6534 177.122 95.7344 177.38 95.7344 177.704C95.7344 178.106 95.5814 178.433 95.2754 178.685C94.9754 178.937 94.5734 179.063 94.0694 179.063C93.4814 179.063 93.0014 178.922 92.6294 178.64C92.2574 178.358 92.0384 177.965 91.9724 177.461H92.7644C92.7944 177.761 92.9234 178.004 93.1514 178.19C93.3854 178.376 93.6914 178.469 94.0694 178.469C94.3514 178.469 94.5704 178.397 94.7264 178.253C94.8884 178.109 94.9694 177.92 94.9694 177.686C94.9694 177.494 94.9124 177.341 94.7984 177.227C94.6844 177.113 94.5434 177.026 94.3754 176.966C94.2074 176.906 93.9764 176.843 93.6824 176.777C93.3164 176.693 93.0224 176.609 92.8004 176.525C92.5844 176.441 92.3984 176.309 92.2424 176.129C92.0924 175.943 92.0174 175.694 92.0174 175.382C92.0174 174.968 92.1704 174.635 92.4764 174.383C92.7824 174.125 93.1994 173.996 93.7274 173.996Z" fill="white"/>
<path d="M66.3739 200.533H63.5839L63.0529 202H62.1709L64.5199 195.772H65.4469L67.7869 202H66.9049L66.3739 200.533ZM66.1399 199.894L64.9789 196.69L63.8179 199.894H66.1399Z" fill="white"/>
<path d="M70.6409 196.996C71.1209 196.996 71.5259 197.116 71.8559 197.356C72.1919 197.596 72.4259 197.917 72.5579 198.319V195.34H73.3769V202H72.5579V200.74C72.4259 201.142 72.1919 201.463 71.8559 201.703C71.5259 201.943 71.1209 202.063 70.6409 202.063C70.2029 202.063 69.8129 201.961 69.4709 201.757C69.1289 201.553 68.8589 201.262 68.6609 200.884C68.4689 200.5 68.3729 200.05 68.3729 199.534C68.3729 199.018 68.4689 198.568 68.6609 198.184C68.8589 197.8 69.1289 197.506 69.4709 197.302C69.8129 197.098 70.2029 196.996 70.6409 196.996ZM70.8749 197.725C70.3709 197.725 69.9659 197.887 69.6599 198.211C69.3599 198.529 69.2099 198.97 69.2099 199.534C69.2099 200.098 69.3599 200.542 69.6599 200.866C69.9659 201.184 70.3709 201.343 70.8749 201.343C71.1989 201.343 71.4869 201.268 71.7389 201.118C71.9969 200.968 72.1979 200.758 72.3419 200.488C72.4859 200.212 72.5579 199.894 72.5579 199.534C72.5579 199.174 72.4859 198.856 72.3419 198.58C72.1979 198.304 71.9969 198.094 71.7389 197.95C71.4869 197.8 71.1989 197.725 70.8749 197.725Z" fill="white"/>
<path d="M80.7553 196.978C81.3313 196.978 81.7933 197.164 82.1413 197.536C82.4953 197.902 82.6723 198.433 82.6723 199.129V202H81.8533V199.201C81.8533 198.715 81.7333 198.343 81.4933 198.085C81.2593 197.827 80.9353 197.698 80.5213 197.698C80.0893 197.698 79.7413 197.842 79.4773 198.13C79.2193 198.412 79.0903 198.829 79.0903 199.381V202H78.2713V199.201C78.2713 198.715 78.1513 198.343 77.9113 198.085C77.6713 197.827 77.3473 197.698 76.9393 197.698C76.5013 197.698 76.1503 197.842 75.8863 198.13C75.6283 198.412 75.4993 198.829 75.4993 199.381V202H74.6803V197.059H75.4993V198.184C75.6193 197.794 75.8323 197.497 76.1383 197.293C76.4503 197.083 76.8073 196.978 77.2093 196.978C77.6293 196.978 77.9923 197.086 78.2983 197.302C78.6103 197.512 78.8323 197.824 78.9643 198.238C79.1023 197.836 79.3333 197.527 79.6573 197.311C79.9813 197.089 80.3473 196.978 80.7553 196.978Z" fill="white"/>
<path d="M83.8 195.61C83.8 195.46 83.851 195.34 83.953 195.25C84.055 195.154 84.19 195.106 84.358 195.106C84.526 195.106 84.661 195.154 84.763 195.25C84.865 195.34 84.916 195.46 84.916 195.61C84.916 195.76 84.865 195.883 84.763 195.979C84.661 196.069 84.526 196.114 84.358 196.114C84.19 196.114 84.055 196.069 83.953 195.979C83.851 195.883 83.8 195.76 83.8 195.61ZM84.763 197.059V202H83.944V197.059H84.763Z" fill="white"/>
<path d="M88.6807 196.978C89.2568 196.978 89.7218 197.164 90.0758 197.536C90.4298 197.902 90.6068 198.433 90.6068 199.129V202H89.7878V199.201C89.7878 198.709 89.6618 198.331 89.4097 198.067C89.1577 197.803 88.8158 197.671 88.3838 197.671C87.9338 197.671 87.5738 197.818 87.3038 198.112C87.0338 198.4 86.8988 198.823 86.8988 199.381V202H86.0798V197.059H86.8988V198.229C87.0247 197.827 87.2467 197.518 87.5648 197.302C87.8888 197.086 88.2607 196.978 88.6807 196.978Z" fill="white"/>
<path d="M51.6706 181.354H50.6118V177.24C50.6118 176.876 50.3176 176.582 49.9529 176.582H48.3647C48 176.582 47.7059 176.876 47.7059 177.24V181.342H46.1412V174.62C46.1412 174.255 45.8471 173.962 45.4824 173.962H43.8941C43.5294 173.962 43.2353 174.255 43.2353 174.62V181.354H41.6471V171.329C41.6471 171.153 41.5059 171 41.3176 171C41.1294 171 41 171.153 41 171.329V181.553C41 181.8 41.2 182 41.4471 182H43.2588H46.1412H47.7059H50.6118H51.6706C51.8471 182 52 181.859 52 181.671C52 181.483 51.8471 181.354 51.6706 181.354ZM43.8941 181.354L43.9059 174.62H45.4941V181.354H43.8941ZM48.3529 181.354L48.3647 177.24L49.9647 177.252V181.354H48.3529Z" fill="white"/>
<path d="M44.7697 153.182C45.9265 153.182 46.8608 152.248 46.8608 151.091C46.8608 149.934 45.9265 149 44.7697 149C43.613 149 42.6787 149.934 42.6787 151.091C42.6787 152.248 43.613 153.182 44.7697 153.182ZM44.7697 149.612C45.5817 149.612 46.249 150.279 46.249 151.091C46.249 151.903 45.5817 152.57 44.7697 152.57C43.9578 152.57 43.2904 151.903 43.2904 151.091C43.2904 150.279 43.9467 149.612 44.7697 149.612Z" fill="white"/>
<path d="M44.7696 154.339C43.4126 154.339 42.1113 154.839 41.0992 155.729C40.9768 155.84 40.9657 156.029 41.0769 156.163C41.1881 156.285 41.3772 156.296 41.5107 156.185C42.4116 155.384 43.5683 154.939 44.7807 154.939C45.9819 154.939 47.1498 155.384 48.0507 156.185C48.1063 156.241 48.1842 156.263 48.2509 156.263C48.3399 156.263 48.4177 156.23 48.4845 156.163C48.5957 156.04 48.5846 155.84 48.4622 155.729C47.4278 154.839 46.1265 154.339 44.7696 154.339Z" fill="white"/>
<path d="M49.2076 153.293C49.9305 153.293 50.5089 152.704 50.5089 151.992C50.5089 151.28 49.9194 150.691 49.2076 150.691C48.4957 150.691 47.9062 151.28 47.9062 151.992C47.9062 152.704 48.4846 153.293 49.2076 153.293ZM49.2076 151.291C49.5857 151.291 49.8972 151.603 49.8972 151.981C49.8972 152.359 49.5857 152.67 49.2076 152.67C48.8294 152.67 48.518 152.359 48.518 151.981C48.518 151.603 48.8294 151.291 49.2076 151.291Z" fill="white"/>
<path d="M51.8988 155.184C51.1536 154.528 50.2082 154.161 49.2072 154.161C48.8513 154.161 48.4954 154.205 48.1617 154.294C47.9948 154.339 47.9059 154.506 47.9504 154.673C47.9948 154.839 48.1617 154.928 48.3285 154.884C48.6177 154.806 48.918 154.773 49.2183 154.773C50.0636 154.773 50.8756 155.084 51.4984 155.64C51.554 155.696 51.6319 155.718 51.6986 155.718C51.7876 155.718 51.8655 155.685 51.9322 155.618C52.0323 155.484 52.0212 155.295 51.8988 155.184Z" fill="white"/>
<path d="M51.8595 128.349L50.3092 126.786C50.2131 126.69 50.0809 126.642 49.9487 126.654L47.7254 126.834C45.8266 125.224 43.4351 124.599 41.4642 125.26L41.308 125.308L41.2599 125.464C40.599 127.435 41.2239 129.827 42.8463 131.726L42.654 133.949C42.642 134.081 42.69 134.213 42.7862 134.309L44.3365 135.86C44.4206 135.944 44.5408 135.992 44.6609 135.992C44.709 135.992 44.7571 135.98 44.8172 135.968C44.9854 135.908 45.1056 135.764 45.1296 135.583L45.3579 133.709C45.7545 133.913 46.1631 134.081 46.5837 134.213L46.6318 134.225C46.7159 134.249 46.8121 134.225 46.8722 134.165L50.177 130.86C50.2371 130.8 50.2611 130.704 50.2371 130.62L50.2251 130.584C50.0929 130.163 49.9247 129.755 49.7204 129.358L51.5951 129.13C51.7754 129.106 51.9196 128.986 51.9797 128.817C52.0277 128.649 51.9917 128.469 51.8595 128.349ZM44.5167 135.103L43.315 133.901L43.4471 132.363C43.8437 132.747 44.2764 133.072 44.721 133.36L44.5167 135.103ZM46.5837 133.528C45.5623 133.18 44.5888 132.567 43.7596 131.75C42.0531 130.043 41.296 127.688 41.8368 125.837C43.6875 125.296 46.043 126.053 47.7495 127.76C48.5787 128.589 49.1916 129.562 49.5281 130.584L46.5837 133.528ZM49.3718 128.733C49.0834 128.289 48.7469 127.856 48.3744 127.459L49.9126 127.327L51.1144 128.529L49.3718 128.733Z" fill="white"/>
<path d="M44.5889 128.589C44.1442 129.034 44.1442 129.755 44.5889 130.211C44.8172 130.44 45.1056 130.548 45.394 130.548C45.6825 130.548 45.9829 130.44 46.1992 130.211C46.6439 129.767 46.6439 129.046 46.1992 128.589C45.7546 128.144 45.0335 128.144 44.5889 128.589ZM45.7305 129.731C45.5383 129.923 45.2378 129.923 45.0455 129.731C44.8532 129.538 44.8532 129.238 45.0455 129.046C45.1417 128.95 45.2618 128.902 45.382 128.902C45.5022 128.902 45.6344 128.95 45.7185 129.046C45.9228 129.238 45.9228 129.551 45.7305 129.731Z" fill="white"/>
<path d="M50.826 131.617C50.6938 131.485 50.4895 131.485 50.3573 131.617L47.5933 134.382C47.4611 134.514 47.4611 134.718 47.5933 134.85C47.6173 134.874 47.6534 134.898 47.6774 134.91C48.783 135.643 50.129 135.836 51.1866 135.391C51.2226 135.379 51.2587 135.355 51.2947 135.319C51.3308 135.283 51.3548 135.247 51.3668 135.211C51.8115 134.153 51.6192 132.807 50.8861 131.702C50.8741 131.666 50.8501 131.641 50.826 131.617ZM50.802 134.826C50.0569 135.079 49.1676 134.982 48.3624 134.55L50.5256 132.387C50.9582 133.192 51.0544 134.081 50.802 134.826Z" fill="white"/>
<path d="M51.6386 196.692L45.0793 195.278C45.0097 195.116 44.8475 195 44.6505 195H42.8426C42.5761 195 42.3791 195.197 42.3791 195.464V198.129C42.3791 198.396 42.5761 198.593 42.8426 198.593H43.4221V202.174H41.4636C41.197 202.174 41 202.371 41 202.637V204.816C41 205.082 41.197 205.279 41.4636 205.279H45.9948C46.2498 205.279 46.4584 205.071 46.4584 204.816V202.66C46.4584 202.394 46.2613 202.197 45.9948 202.197H44.0595V198.616H44.6505C44.8127 198.616 44.9634 198.523 45.0445 198.372H50.3406V200.609C50.3406 200.76 50.4102 200.899 50.526 200.991C50.7578 201.177 50.8969 201.467 50.8969 201.779C50.8969 202.266 50.4449 202.73 49.9466 202.741C49.6801 202.753 49.4367 202.66 49.2513 202.475C49.0658 202.289 48.95 202.046 48.95 201.779C48.95 201.467 49.1122 201.165 49.3672 200.98C49.5062 200.876 49.541 200.679 49.4367 200.539C49.3324 200.4 49.1354 200.366 48.9963 200.47C48.5675 200.783 48.3126 201.27 48.3126 201.791C48.3126 202.231 48.4864 202.649 48.7993 202.95C49.1006 203.24 49.483 203.39 49.9002 203.39C49.9234 203.39 49.9466 203.39 49.9698 203.39C50.8042 203.367 51.5343 202.625 51.5343 201.791C51.5343 201.304 51.3257 200.852 50.9664 200.551V198.372H51.5459C51.6849 198.372 51.8124 198.314 51.8935 198.21C51.9746 198.117 52.0094 198.002 51.9978 197.886V197.156C52.0094 196.935 51.8472 196.738 51.6386 196.692ZM45.8326 204.677H41.6374V202.834H45.8326V204.677ZM43.0165 195.637H44.4419C44.4419 195.661 44.4303 195.695 44.4303 195.719V197.897C44.4303 197.92 44.4303 197.944 44.4419 197.967H43.0165V195.637ZM51.372 197.735H45.114V195.939L51.372 197.283V197.735Z" fill="white"/>
<path d="M530 49H30V79H530V49Z" fill="#95A5A6"/>
<rect x="30" y="79" width="130" height="30" fill="#005299"/>
<rect x="160" y="79" width="370" height="30" fill="white"/>
<path d="M181.402 96.162C181.402 96.7193 181.299 97.2253 181.094 97.68C180.889 98.1347 180.588 98.494 180.192 98.758C179.796 99.022 179.33 99.154 178.795 99.154C178.12 99.154 177.537 98.9523 177.046 98.549V101.684H175.891V94.622C175.891 94.204 175.865 93.7787 175.814 93.346H176.914C176.958 93.6393 176.987 93.8777 177.002 94.061H177.024C177.435 93.4817 178.069 93.192 178.927 93.192C179.47 93.192 179.924 93.324 180.291 93.588C180.665 93.852 180.944 94.2077 181.127 94.655C181.31 95.1023 181.402 95.6047 181.402 96.162ZM180.203 96.162C180.203 95.5167 180.067 95.0143 179.796 94.655C179.532 94.2883 179.162 94.105 178.685 94.105C178.37 94.105 178.087 94.182 177.838 94.336C177.589 94.4827 177.394 94.6843 177.255 94.941C177.116 95.1977 177.046 95.48 177.046 95.788V97.636C177.288 97.8413 177.523 97.9917 177.75 98.087C177.985 98.1823 178.245 98.23 178.531 98.23C179.081 98.23 179.495 98.043 179.774 97.669C180.06 97.295 180.203 96.7927 180.203 96.162ZM182.369 97.427C182.369 96.6937 182.633 96.184 183.161 95.898C183.689 95.6047 184.466 95.458 185.493 95.458C185.735 95.458 185.922 95.4617 186.054 95.469V95.172C186.054 94.4533 185.629 94.094 184.778 94.094C184.184 94.094 183.627 94.2443 183.106 94.545L182.71 93.775C183.011 93.5917 183.344 93.4487 183.711 93.346C184.085 93.2433 184.459 93.192 184.833 93.192C185.662 93.192 186.263 93.3827 186.637 93.764C187.018 94.138 187.209 94.7137 187.209 95.491V97.724C187.209 98.0613 187.238 98.4867 187.297 99H186.23C186.179 98.7067 186.153 98.483 186.153 98.329H186.12C185.9 98.6077 185.643 98.8167 185.35 98.956C185.057 99.088 184.672 99.154 184.195 99.154C183.652 99.154 183.212 99.0073 182.875 98.714C182.538 98.4133 182.369 97.9843 182.369 97.427ZM186.054 96.855V96.272L185.603 96.261C184.87 96.261 184.345 96.3453 184.03 96.514C183.715 96.6753 183.557 96.9577 183.557 97.361C183.557 97.6397 183.641 97.856 183.81 98.01C183.979 98.164 184.21 98.241 184.503 98.241C184.818 98.241 185.093 98.175 185.328 98.043C185.563 97.9037 185.742 97.7277 185.867 97.515C185.992 97.3023 186.054 97.0823 186.054 96.855ZM188.943 94.622C188.943 94.204 188.917 93.7787 188.866 93.346H189.966C190.017 93.654 190.046 93.9143 190.054 94.127H190.076C190.237 93.8263 190.453 93.5953 190.725 93.434C191.003 93.2727 191.363 93.192 191.803 93.192C191.869 93.192 191.979 93.203 192.133 93.225L192.078 94.226C191.968 94.204 191.839 94.193 191.693 94.193C191.187 94.193 190.794 94.3617 190.516 94.699C190.237 95.0363 190.098 95.469 190.098 95.997V99H188.943V94.622ZM198.142 99H197.064C197.02 98.6553 196.994 98.4133 196.987 98.274H196.965C196.752 98.5673 196.488 98.7873 196.173 98.934C195.858 99.0807 195.473 99.154 195.018 99.154C194.211 99.154 193.599 98.8827 193.181 98.34C192.77 97.79 192.565 97.075 192.565 96.195C192.565 95.6303 192.671 95.1207 192.884 94.666C193.097 94.2113 193.397 93.852 193.786 93.588C194.182 93.324 194.648 93.192 195.183 93.192C195.865 93.192 196.437 93.3973 196.899 93.808V91.212H198.054V97.724C198.054 98.0613 198.083 98.4867 198.142 99ZM196.899 96.547V94.82C196.496 94.3507 195.982 94.116 195.359 94.116C194.86 94.116 194.468 94.3067 194.182 94.688C193.903 95.0693 193.764 95.5717 193.764 96.195C193.764 96.833 193.9 97.3317 194.171 97.691C194.442 98.0503 194.816 98.23 195.293 98.23C195.77 98.23 196.155 98.0723 196.448 97.757C196.749 97.4417 196.899 97.0383 196.899 96.547ZM205.258 96.151C205.258 96.7377 205.141 97.2583 204.906 97.713C204.679 98.1677 204.345 98.5233 203.905 98.78C203.472 99.0293 202.955 99.154 202.354 99.154C201.76 99.154 201.247 99.0257 200.814 98.769C200.381 98.5123 200.048 98.1603 199.813 97.713C199.586 97.2583 199.472 96.7377 199.472 96.151C199.472 95.557 199.586 95.04 199.813 94.6C200.04 94.1527 200.37 93.808 200.803 93.566C201.236 93.3167 201.753 93.192 202.354 93.192C202.963 93.192 203.483 93.3167 203.916 93.566C204.356 93.808 204.69 94.1527 204.917 94.6C205.144 95.04 205.258 95.557 205.258 96.151ZM200.671 96.151C200.671 96.7817 200.807 97.2877 201.078 97.669C201.357 98.043 201.782 98.23 202.354 98.23C202.941 98.23 203.373 98.043 203.652 97.669C203.931 97.2877 204.07 96.7817 204.07 96.151C204.07 95.5277 203.931 95.0327 203.652 94.666C203.373 94.292 202.941 94.105 202.354 94.105C201.775 94.105 201.349 94.292 201.078 94.666C200.807 95.0327 200.671 95.5277 200.671 96.151ZM208.011 93.346H209.463V94.226H208.011V97.361C208.011 97.933 208.271 98.219 208.792 98.219C208.975 98.219 209.151 98.1933 209.32 98.142L209.485 99C209.206 99.1027 208.902 99.154 208.572 99.154C208.044 99.154 207.626 99.0073 207.318 98.714C207.01 98.4207 206.856 98.0027 206.856 97.46V94.226H205.888V93.478L206.845 93.346V92.015L208.011 91.597V93.346Z" fill="#15A0DB"/>
<rect opacity="0.3" x="160" y="109" width="370" height="30" fill="#BDC3C7"/>
<path d="M213.59 125.095C213.59 126.356 213.231 127.324 212.512 127.999C211.793 128.666 210.803 129 209.542 129H206.935V121.212H209.498C210.803 121.212 211.812 121.535 212.523 122.18C213.234 122.818 213.59 123.79 213.59 125.095ZM208.134 122.202V127.999H209.421C211.372 127.999 212.347 127.031 212.347 125.095C212.347 124.105 212.101 123.375 211.61 122.906C211.126 122.437 210.404 122.202 209.443 122.202H208.134ZM214.443 127.427C214.443 126.694 214.707 126.184 215.235 125.898C215.763 125.605 216.541 125.458 217.567 125.458C217.809 125.458 217.996 125.462 218.128 125.469V125.172C218.128 124.453 217.703 124.094 216.852 124.094C216.258 124.094 215.701 124.244 215.18 124.545L214.784 123.775C215.085 123.592 215.419 123.449 215.785 123.346C216.159 123.243 216.533 123.192 216.907 123.192C217.736 123.192 218.337 123.383 218.711 123.764C219.093 124.138 219.283 124.714 219.283 125.491V127.724C219.283 128.061 219.313 128.487 219.371 129H218.304C218.253 128.707 218.227 128.483 218.227 128.329H218.194C217.974 128.608 217.718 128.817 217.424 128.956C217.131 129.088 216.746 129.154 216.269 129.154C215.727 129.154 215.287 129.007 214.949 128.714C214.612 128.413 214.443 127.984 214.443 127.427ZM218.128 126.855V126.272L217.677 126.261C216.944 126.261 216.42 126.345 216.104 126.514C215.789 126.675 215.631 126.958 215.631 127.361C215.631 127.64 215.716 127.856 215.884 128.01C216.053 128.164 216.284 128.241 216.577 128.241C216.893 128.241 217.168 128.175 217.402 128.043C217.637 127.904 217.817 127.728 217.941 127.515C218.066 127.302 218.128 127.082 218.128 126.855ZM224.603 123.797L224.108 124.512C223.661 124.226 223.202 124.083 222.733 124.083C222.418 124.083 222.168 124.142 221.985 124.259C221.802 124.376 221.71 124.541 221.71 124.754C221.71 124.93 221.747 125.069 221.82 125.172C221.901 125.275 222.029 125.363 222.205 125.436C222.388 125.509 222.66 125.59 223.019 125.678C223.584 125.817 224.005 126.023 224.284 126.294C224.563 126.565 224.702 126.921 224.702 127.361C224.702 127.742 224.599 128.069 224.394 128.34C224.189 128.611 223.914 128.817 223.569 128.956C223.224 129.088 222.85 129.154 222.447 129.154C221.604 129.154 220.918 128.938 220.39 128.505L220.918 127.779C221.153 127.94 221.387 128.061 221.622 128.142C221.857 128.215 222.117 128.252 222.403 128.252C222.748 128.252 223.015 128.182 223.206 128.043C223.404 127.904 223.503 127.698 223.503 127.427C223.503 127.251 223.466 127.115 223.393 127.02C223.32 126.917 223.195 126.829 223.019 126.756C222.843 126.683 222.575 126.602 222.216 126.514C221.644 126.367 221.222 126.166 220.951 125.909C220.687 125.652 220.555 125.289 220.555 124.82C220.555 124.329 220.749 123.936 221.138 123.643C221.534 123.342 222.055 123.192 222.7 123.192C223.448 123.192 224.082 123.394 224.603 123.797ZM225.991 121.212H227.146V123.995H227.168C227.571 123.46 228.191 123.192 229.027 123.192C229.738 123.192 230.266 123.397 230.611 123.808C230.956 124.211 231.128 124.706 231.128 125.293V129H229.973V125.546C229.973 125.143 229.87 124.809 229.665 124.545C229.46 124.281 229.133 124.149 228.686 124.149C228.217 124.149 227.843 124.307 227.564 124.622C227.285 124.937 227.146 125.333 227.146 125.81V129H225.991V121.212ZM238.366 126.162C238.366 126.727 238.26 127.236 238.047 127.691C237.842 128.138 237.534 128.494 237.123 128.758C236.72 129.022 236.232 129.154 235.66 129.154C235 129.154 234.417 128.938 233.911 128.505L233.823 129H232.866V121.212H234.021V124.006H234.054C234.465 123.463 235.073 123.192 235.88 123.192C236.423 123.192 236.881 123.324 237.255 123.588C237.629 123.852 237.908 124.208 238.091 124.655C238.274 125.102 238.366 125.605 238.366 126.162ZM237.178 126.162C237.178 125.517 237.042 125.014 236.771 124.655C236.507 124.288 236.137 124.105 235.66 124.105C235.345 124.105 235.062 124.182 234.813 124.336C234.564 124.483 234.369 124.684 234.23 124.941C234.091 125.198 234.021 125.48 234.021 125.788V127.636C234.256 127.841 234.49 127.992 234.725 128.087C234.96 128.182 235.22 128.23 235.506 128.23C236.049 128.23 236.463 128.043 236.749 127.669C237.035 127.295 237.178 126.793 237.178 126.162ZM245.185 126.151C245.185 126.738 245.068 127.258 244.833 127.713C244.606 128.168 244.272 128.523 243.832 128.78C243.399 129.029 242.882 129.154 242.281 129.154C241.687 129.154 241.174 129.026 240.741 128.769C240.308 128.512 239.975 128.16 239.74 127.713C239.513 127.258 239.399 126.738 239.399 126.151C239.399 125.557 239.513 125.04 239.74 124.6C239.967 124.153 240.297 123.808 240.73 123.566C241.163 123.317 241.68 123.192 242.281 123.192C242.89 123.192 243.41 123.317 243.843 123.566C244.283 123.808 244.617 124.153 244.844 124.6C245.071 125.04 245.185 125.557 245.185 126.151ZM240.598 126.151C240.598 126.782 240.734 127.288 241.005 127.669C241.284 128.043 241.709 128.23 242.281 128.23C242.868 128.23 243.3 128.043 243.579 127.669C243.858 127.288 243.997 126.782 243.997 126.151C243.997 125.528 243.858 125.033 243.579 124.666C243.3 124.292 242.868 124.105 242.281 124.105C241.702 124.105 241.276 124.292 241.005 124.666C240.734 125.033 240.598 125.528 240.598 126.151ZM246.154 127.427C246.154 126.694 246.418 126.184 246.946 125.898C247.474 125.605 248.251 125.458 249.278 125.458C249.52 125.458 249.707 125.462 249.839 125.469V125.172C249.839 124.453 249.414 124.094 248.563 124.094C247.969 124.094 247.412 124.244 246.891 124.545L246.495 123.775C246.796 123.592 247.129 123.449 247.496 123.346C247.87 123.243 248.244 123.192 248.618 123.192C249.447 123.192 250.048 123.383 250.422 123.764C250.803 124.138 250.994 124.714 250.994 125.491V127.724C250.994 128.061 251.023 128.487 251.082 129H250.015C249.964 128.707 249.938 128.483 249.938 128.329H249.905C249.685 128.608 249.428 128.817 249.135 128.956C248.842 129.088 248.457 129.154 247.98 129.154C247.437 129.154 246.997 129.007 246.66 128.714C246.323 128.413 246.154 127.984 246.154 127.427ZM249.839 126.855V126.272L249.388 126.261C248.655 126.261 248.13 126.345 247.815 126.514C247.5 126.675 247.342 126.958 247.342 127.361C247.342 127.64 247.426 127.856 247.595 128.01C247.764 128.164 247.995 128.241 248.288 128.241C248.603 128.241 248.878 128.175 249.113 128.043C249.348 127.904 249.527 127.728 249.652 127.515C249.777 127.302 249.839 127.082 249.839 126.855ZM252.728 124.622C252.728 124.204 252.702 123.779 252.651 123.346H253.751C253.802 123.654 253.832 123.914 253.839 124.127H253.861C254.022 123.826 254.239 123.595 254.51 123.434C254.789 123.273 255.148 123.192 255.588 123.192C255.654 123.192 255.764 123.203 255.918 123.225L255.863 124.226C255.753 124.204 255.625 124.193 255.478 124.193C254.972 124.193 254.58 124.362 254.301 124.699C254.022 125.036 253.883 125.469 253.883 125.997V129H252.728V124.622ZM261.927 129H260.849C260.805 128.655 260.779 128.413 260.772 128.274H260.75C260.537 128.567 260.273 128.787 259.958 128.934C259.643 129.081 259.258 129.154 258.803 129.154C257.996 129.154 257.384 128.883 256.966 128.34C256.555 127.79 256.35 127.075 256.35 126.195C256.35 125.63 256.456 125.121 256.669 124.666C256.882 124.211 257.182 123.852 257.571 123.588C257.967 123.324 258.433 123.192 258.968 123.192C259.65 123.192 260.222 123.397 260.684 123.808V121.212H261.839V127.724C261.839 128.061 261.868 128.487 261.927 129ZM260.684 126.547V124.82C260.281 124.351 259.767 124.116 259.144 124.116C258.645 124.116 258.253 124.307 257.967 124.688C257.688 125.069 257.549 125.572 257.549 126.195C257.549 126.833 257.685 127.332 257.956 127.691C258.227 128.05 258.601 128.23 259.078 128.23C259.555 128.23 259.94 128.072 260.233 127.757C260.534 127.442 260.684 127.038 260.684 126.547Z" fill="#2F3542"/>
<rect x="35" y="89" width="15" height="2" fill="white"/>
<rect x="35" y="93" width="15" height="2" fill="white"/>
<rect x="35" y="97" width="15" height="2" fill="white"/>
<path d="M54.9824 68.1893C57.2474 68.1893 59.0835 66.356 59.0835 64.0946C59.0835 61.8332 57.2474 60 54.9824 60C52.7175 60 50.8813 61.8332 50.8813 64.0946C50.8813 66.356 52.7175 68.1893 54.9824 68.1893Z" stroke="#F41E3D" stroke-width="0.9636" stroke-miterlimit="10"/>
<path d="M77.4302 68.1893C79.6951 68.1893 81.5312 66.356 81.5312 64.0946C81.5312 61.8332 79.6951 60 77.4302 60C75.1652 60 73.3291 61.8332 73.3291 64.0946C73.3291 66.356 75.1652 68.1893 77.4302 68.1893Z" stroke="#F1C40F" stroke-width="0.9636" stroke-miterlimit="10"/>
<path d="M99.6626 68.1893C101.928 68.1893 103.764 66.356 103.764 64.0946C103.764 61.8332 101.928 60 99.6626 60C97.3976 60 95.5615 61.8332 95.5615 64.0946C95.5615 66.356 97.3976 68.1893 99.6626 68.1893Z" stroke="white" stroke-width="0.9636" stroke-miterlimit="10"/>
</g>
<rect x="331.5" y="279.5" width="178" height="112" fill="white" stroke="#BDC3C7"/>
<rect opacity="0.6" x="331" y="279" width="179" height="20" fill="#BDC3C7"/>
<rect opacity="0.6" x="331.5" y="299.5" width="25" height="23" fill="white" stroke="#BDC3C7"/>
<rect opacity="0.3" x="356.5" y="299.5" width="26" height="23" fill="#15A0DB" stroke="#BDC3C7"/>
<rect opacity="0.6" x="382.5" y="299.5" width="25" height="23" fill="white" stroke="#BDC3C7"/>
<rect opacity="0.6" x="407.5" y="299.5" width="26" height="23" fill="white" stroke="#BDC3C7"/>
<rect opacity="0.6" x="433.5" y="299.5" width="25" height="23" fill="white" stroke="#BDC3C7"/>
<rect opacity="0.6" x="458.5" y="299.5" width="26" height="23" fill="white" stroke="#BDC3C7"/>
<rect opacity="0.3" x="484.5" y="299.5" width="25" height="23" fill="#15A0DB" stroke="#BDC3C7"/>
<rect opacity="0.6" x="331.5" y="322.5" width="25" height="23" fill="white" stroke="#BDC3C7"/>
<rect opacity="0.6" x="356.5" y="322.5" width="26" height="23" fill="white" stroke="#BDC3C7"/>
<rect opacity="0.3" x="382.5" y="322.5" width="25" height="23" fill="#15A0DB" stroke="#BDC3C7"/>
<rect opacity="0.6" x="407.5" y="322.5" width="26" height="23" fill="white" stroke="#BDC3C7"/>
<rect opacity="0.6" x="433.5" y="322.5" width="25" height="23" fill="white" stroke="#BDC3C7"/>
<rect opacity="0.6" x="458.5" y="322.5" width="26" height="23" fill="white" stroke="#BDC3C7"/>
<rect opacity="0.6" x="484.5" y="322.5" width="25" height="23" fill="white" stroke="#BDC3C7"/>
<rect opacity="0.6" x="331.5" y="345.5" width="25" height="23" fill="white" stroke="#BDC3C7"/>
<rect opacity="0.6" x="356.5" y="345.5" width="26" height="23" fill="white" stroke="#BDC3C7"/>
<rect opacity="0.6" x="382.5" y="345.5" width="25" height="23" fill="white" stroke="#BDC3C7"/>
<rect opacity="0.6" x="407.5" y="345.5" width="26" height="23" fill="white" stroke="#BDC3C7"/>
<rect opacity="0.3" x="433.5" y="345.5" width="25" height="23" fill="#15A0DB" stroke="#BDC3C7"/>
<rect opacity="0.6" x="458.5" y="345.5" width="26" height="23" fill="white" stroke="#BDC3C7"/>
<rect opacity="0.6" x="484.5" y="345.5" width="25" height="23" fill="white" stroke="#BDC3C7"/>
<rect opacity="0.6" x="331.5" y="368.5" width="25" height="23" fill="white" stroke="#BDC3C7"/>
<rect opacity="0.3" x="356.5" y="368.5" width="26" height="23" fill="#15A0DB" stroke="#BDC3C7"/>
<rect opacity="0.6" x="382.5" y="368.5" width="25" height="23" fill="white" stroke="#BDC3C7"/>
<rect opacity="0.6" x="407.5" y="368.5" width="26" height="23" fill="white" stroke="#BDC3C7"/>
<rect opacity="0.6" x="433.5" y="368.5" width="25" height="23" fill="white" stroke="#BDC3C7"/>
<rect opacity="0.6" x="458.5" y="368.5" width="26" height="23" fill="white" stroke="#BDC3C7"/>
<rect opacity="0.6" x="484.5" y="368.5" width="25" height="23" fill="white" stroke="#BDC3C7"/>
<path d="M514.427 299.74C514.427 299.74 514.974 305.309 512.787 308.04L514.318 307.821C514.865 307.712 515.302 308.04 515.521 308.586L516.396 311.643C517.053 314.046 519.35 315.466 521.865 315.138L523.287 314.92C524.162 314.811 524.928 315.247 525.256 316.121L527.116 321.582C527.553 323.001 529.085 323.875 530.616 323.547L537.835 321.909L527.991 296.245L514.427 299.74Z" fill="#F0A481"/>
<path d="M527.991 319.179C530.069 318.851 532.913 317.65 535.647 316.23L531.71 305.855C531.053 306.183 530.616 306.729 530.178 307.493C527.225 313.5 522.193 314.92 521.428 315.138C521.537 315.138 521.647 315.138 521.865 315.138L523.287 314.92C524.162 314.811 524.928 315.247 525.256 316.121L526.35 319.397C526.787 319.397 527.334 319.288 527.991 319.179Z" fill="#E49874"/>
<path d="M552.055 424.458L571.744 418.342C571.744 418.342 575.681 425.769 575.9 433.96C576.119 442.15 573.056 448.375 567.368 448.921C565.29 449.14 567.806 443.024 567.696 439.311C567.696 436.908 565.29 434.833 563.54 433.523C562.446 432.758 561.024 432.54 559.821 433.086L550.305 436.69L552.055 424.458Z" fill="#F0A481"/>
<path d="M575.9 433.96C575.681 425.769 571.744 418.342 571.744 418.342L564.524 420.636C566.056 423.257 568.353 429.045 565.837 435.707C566.821 436.799 567.587 438.11 567.696 439.42C567.806 443.133 565.29 449.249 567.368 449.031C573.056 448.375 576.119 442.15 575.9 433.96Z" fill="#252C7A"/>
<path d="M544.398 378.699C544.398 378.699 506.552 358.713 496.489 368.324C486.316 377.934 510.052 436.362 510.052 436.362H526.678L514.646 393.224C514.646 393.224 533.351 401.852 545.601 404.582C560.806 407.858 560.806 381.648 560.806 381.648L544.398 378.699Z" fill="#252C7A"/>
<path d="M540.57 389.292C540.57 389.292 511.365 376.187 506.005 378.59C500.645 380.992 512.677 418.233 512.677 418.233" stroke="#995CB5" stroke-width="0.5" stroke-miterlimit="10"/>
<path d="M572.509 374.658C572.509 374.658 579.182 384.269 574.26 396.391C569.009 409.278 531.272 429.591 531.272 429.591L555.665 423.475V440.294C555.665 440.294 510.709 453.836 499.661 447.72C488.613 441.604 494.192 431.229 504.911 418.124C515.631 405.019 539.914 386.016 539.914 386.016L541.117 374.549H572.509V374.658Z" fill="#252C7A"/>
<path d="M560.805 379.682C560.805 379.682 562.993 385.688 559.712 391.258C556.43 396.719 507.755 429.7 509.177 437.017C511.146 446.846 555.664 429.373 555.664 429.373" stroke="#995CB5" stroke-width="0.5" stroke-miterlimit="10"/>
<path d="M572.509 374.658H541.117L540.679 378.59C544.726 381.429 559.821 392.787 575.681 383.395C574.697 378.044 572.509 374.658 572.509 374.658Z" fill="#121856"/>
<path d="M551.289 318.305C551.289 318.305 590.229 334.578 590.12 343.751C590.01 352.816 571.415 373.675 571.415 373.675L567.259 367.123L578.088 346.045L554.899 335.124L551.289 318.305Z" fill="#F0A481"/>
<path d="M527.225 322.019L518.365 326.496C518.365 326.496 519.897 331.52 520.225 338.509C520.444 345.499 521.756 351.615 526.241 354.236C530.725 356.748 534.007 357.403 535.866 362.427C537.726 367.341 538.382 372.474 538.492 375.969C538.71 379.463 548.227 382.084 556.321 381.757C564.415 381.429 572.509 380.883 575.025 376.187C577.541 371.382 572.181 364.938 571.087 360.133C569.884 355.328 565.946 329.663 551.289 318.415H537.288L527.225 322.019Z" fill="#FF007A"/>
<path d="M515.74 328.79C517.818 325.95 521.865 325.186 524.709 327.261C527.991 329.554 530.397 333.486 525.147 339.165C520.225 344.516 511.146 353.58 505.349 359.15C502.067 362.427 497.801 364.502 493.098 365.048L467.721 368.324C467.721 368.324 456.345 367.669 456.017 365.703C455.58 363.737 463.565 363.519 463.565 363.519C463.565 363.519 459.846 359.259 460.83 358.932C461.705 358.495 467.831 361.444 468.378 363.409L497.801 353.69L515.74 328.79Z" fill="#F0A481"/>
<rect x="175" y="113" width="23" height="23" rx="5" fill="#F1C40F"/>
<path d="M512.13 301.05L522.303 299.849C522.303 299.849 521.975 303.78 525.037 305.418C528.1 307.057 529.413 307.275 529.303 310.988C529.194 314.701 528.1 316.012 531.819 318.305C535.538 320.708 531.928 325.513 531.819 327.807C531.71 330.209 532.694 332.503 540.023 332.503C547.351 332.503 554.352 328.134 553.367 322.674C552.383 317.104 547.461 315.793 546.367 312.736C545.054 309.241 545.929 306.838 543.413 304.217C540.898 301.705 538.71 299.63 538.273 295.48C537.835 291.221 531.053 283.03 521.537 285.433C511.911 287.835 511.036 296.245 512.13 301.05Z" fill="#072E52"/>
<path d="M298.053 315.371C290.967 302.634 279.684 292.748 266.126 287.398C252.568 282.048 237.575 281.564 223.7 286.029C209.826 290.494 197.928 299.632 190.036 311.886C182.143 324.139 178.744 338.75 180.416 353.229C182.089 367.708 188.73 381.16 199.208 391.291C209.687 401.423 223.354 407.607 237.881 408.792C252.408 409.976 266.896 406.087 278.877 397.786C290.858 389.486 299.591 377.288 303.586 363.271L243 346L298.053 315.371Z" fill="#F1C40F"/>
<path d="M253.388 283.862C237.83 281.261 221.863 284.591 208.642 293.194C195.42 301.796 185.907 315.045 181.982 330.323C178.057 345.6 180.005 361.794 187.442 375.704C194.88 389.615 207.264 400.229 222.149 405.449C237.034 410.67 253.335 410.117 267.832 403.9C282.328 397.683 293.965 386.253 300.443 371.871C306.92 357.489 307.767 341.2 302.816 326.224C297.864 311.248 287.475 298.673 273.701 290.987L243 346L253.388 283.862Z" fill="#F41E3D"/>
<path d="M215.01 289.559C202.334 295.846 192.142 306.217 186.078 319.001C180.015 331.786 178.431 346.239 181.583 360.034C184.735 373.828 192.439 386.159 203.454 395.042C214.468 403.924 228.152 408.839 242.301 408.996C256.45 409.153 270.24 404.542 281.449 395.907C292.658 387.271 300.634 375.113 304.091 361.392C307.548 347.672 306.285 333.186 300.506 320.27C294.728 307.354 284.769 296.76 272.235 290.194L243 346L215.01 289.559Z" fill="#15A0DB"/>
<rect x="180.5" y="159.5" width="329" height="99" fill="white" stroke="#BDC3C7"/>
<rect x="180.5" y="159.5" width="81.5" height="99" fill="white" stroke="#BDC3C7"/>
<rect x="180.5" y="159.5" width="82" height="19" fill="white" stroke="#BDC3C7"/>
<rect x="180.5" y="178.5" width="82" height="20" fill="white" stroke="#BDC3C7"/>
<rect x="180.5" y="198.5" width="82" height="20" fill="white" stroke="#BDC3C7"/>
<rect x="180.5" y="218.5" width="82" height="20" fill="white" stroke="#BDC3C7"/>
<rect x="180.5" y="238.5" width="82" height="20" fill="white" stroke="#BDC3C7"/>
<rect x="261.5" y="159.5" width="81.5" height="99" fill="white" stroke="#BDC3C7"/>
<rect x="342.5" y="159.5" width="81.5" height="99" fill="white" stroke="#BDC3C7"/>
<rect x="423.5" y="159.5" width="86" height="99" fill="white" stroke="#BDC3C7"/>
<rect x="261.5" y="178.5" width="82" height="20" fill="white" stroke="#BDC3C7"/>
<rect x="261.5" y="198.5" width="82" height="20" fill="white" stroke="#BDC3C7"/>
<rect x="261.5" y="218.5" width="82" height="20" fill="white" stroke="#BDC3C7"/>
<rect x="261.5" y="238.5" width="82" height="20" fill="white" stroke="#BDC3C7"/>
<rect x="342.5" y="178.5" width="82" height="20" fill="white" stroke="#BDC3C7"/>
<rect x="342.5" y="198.5" width="82" height="20" fill="white" stroke="#BDC3C7"/>
<rect x="342.5" y="218.5" width="82" height="20" fill="white" stroke="#BDC3C7"/>
<rect x="342.5" y="238.5" width="82" height="20" fill="white" stroke="#BDC3C7"/>
<rect x="423.5" y="178.5" width="86" height="20" fill="white" stroke="#BDC3C7"/>
<rect x="423.5" y="198.5" width="86" height="20" fill="white" stroke="#BDC3C7"/>
<rect x="423.5" y="218.5" width="86" height="20" fill="white" stroke="#BDC3C7"/>
<rect x="423.5" y="238.5" width="86" height="20" fill="white" stroke="#BDC3C7"/>
<path opacity="0.8" d="M261.5 238H181V258H509V218.5L423.5 178.5L342.5 198.5L261.5 238Z" fill="#15A0DB"/>
<path d="M181 238H261.5L342.5 198.5L423.5 178.5L509 218.5" stroke="#036E9C" stroke-width="2"/>
<circle cx="262" cy="238" r="2" fill="white" stroke="#2F3542" stroke-width="2"/>
<circle cx="184" cy="238" r="2" fill="white" stroke="#2F3542" stroke-width="2"/>
<circle cx="342" cy="198" r="2" fill="white" stroke="#2F3542" stroke-width="2"/>
<circle cx="423" cy="178" r="2" fill="white" stroke="#2F3542" stroke-width="2"/>
<circle cx="506" cy="218" r="2" fill="white" stroke="#2F3542" stroke-width="2"/>
<path d="M195.998 128.303C195.609 123.087 191.444 119 186.5 119C181.556 119 177.391 123.087 177.002 128.303C176.983 128.654 177.099 128.984 177.333 129.257C177.567 129.51 177.897 129.666 178.248 129.666H194.752C195.103 129.666 195.433 129.529 195.667 129.257C195.901 129.004 196.017 128.654 195.998 128.303ZM194.889 128.517C194.869 128.537 194.83 128.576 194.752 128.576H187.512L186.695 126.046C186.636 125.87 186.383 125.87 186.325 126.046L185.507 128.576H178.248C178.189 128.576 178.131 128.537 178.111 128.517C178.092 128.498 178.053 128.44 178.073 128.381C178.423 123.729 182.121 120.09 186.5 120.09C190.879 120.09 194.577 123.729 194.927 128.401C194.927 128.459 194.908 128.498 194.889 128.517Z" fill="white"/>
<path d="M186.5 121.647C186.208 121.647 185.955 121.881 185.955 122.192V122.893C185.955 123.185 186.189 123.438 186.5 123.438C186.811 123.438 187.045 123.204 187.045 122.893V122.192C187.045 121.881 186.792 121.647 186.5 121.647Z" fill="white"/>
<path d="M191.249 123.944L190.762 124.43C190.548 124.644 190.548 124.975 190.762 125.189C190.859 125.287 190.996 125.345 191.132 125.345C191.268 125.345 191.404 125.287 191.502 125.189L191.988 124.703C192.202 124.489 192.202 124.158 191.988 123.944C191.794 123.73 191.463 123.73 191.249 123.944Z" fill="white"/>
<path d="M181.751 123.944C181.556 123.729 181.206 123.71 180.992 123.924C180.778 124.119 180.758 124.469 180.972 124.683L181.44 125.17C181.537 125.287 181.693 125.345 181.829 125.345C181.965 125.345 182.101 125.306 182.199 125.209C182.413 125.014 182.432 124.664 182.218 124.45L181.751 123.944Z" fill="white"/>
<defs>
<filter id="filter0_d" x="0" y="25" width="560" height="440" filterUnits="userSpaceOnUse" color-interpolation-filters="sRGB">
<feFlood flood-opacity="0" result="BackgroundImageFix"/>
<feColorMatrix in="SourceAlpha" type="matrix" values="0 0 0 0 0 0 0 0 0 0 0 0 0 0 0 0 0 0 127 0"/>
<feOffset dy="6"/>
<feGaussianBlur stdDeviation="15"/>
<feColorMatrix type="matrix" values="0 0 0 0 0 0 0 0 0 0 0 0 0 0 0 0 0 0 0.2 0"/>
<feBlend mode="normal" in2="BackgroundImageFix" result="effect1_dropShadow"/>
<feBlend mode="normal" in="SourceGraphic" in2="effect1_dropShadow" result="shape"/>
</filter>
<linearGradient id="paint0_linear" x1="448.139" y1="45.1837" x2="529.657" y2="45.1837" gradientUnits="userSpaceOnUse">
<stop offset="0.0378205" stop-color="white"/>
<stop offset="0.0598161" stop-color="#F8F8F8"/>
<stop offset="0.3306" stop-color="#A1A1A1"/>
<stop offset="0.5693" stop-color="#5C5C5C"/>
<stop offset="0.767" stop-color="#2A2A2A"/>
<stop offset="0.9164" stop-color="#0B0B0B"/>
<stop offset="1"/>
</linearGradient>
</defs>
</svg>
