<svg width="450" height="151" viewBox="0 0 450 151" fill="none" xmlns="http://www.w3.org/2000/svg">
<mask id="mask0" mask-type="alpha" maskUnits="userSpaceOnUse" x="-1" y="0" width="451" height="150">
<path d="M-0.000305176 2C-0.000305176 0.895429 0.895125 0 1.99969 0H448C449.104 0 450 0.895431 450 2V150H-0.000305176V2Z" fill="#A20689"/>
</mask>
<g mask="url(#mask0)">
<path d="M462.264 -41.6212C462.264 -41.6212 482.682 1.51382 425.87 50.4174C378.533 91.1953 298.291 56.8273 259.754 64.9183C221.218 73.0094 195.034 140.603 125.46 149.029C56.4281 157.39 -43.8917 97.8339 -20.1465 13.0955L124.149 -236.832L462.264 -41.6212Z" fill="#15A0DB"/>
</g>
<path d="M294.279 122.485H271.219V138.338H294.279V122.485Z" fill="#B1DAFC"/>
<path d="M294.279 129.691L271.219 127.409V122.485H294.279V129.691Z" fill="#8FCAF2"/>
<path d="M306.169 138.098H259.389C257.888 138.098 256.687 139.299 256.687 140.8V143.503H308.811V140.8C308.871 139.299 307.67 138.098 306.169 138.098Z" fill="#759BD5"/>
<path d="M354.87 25.0225H210.628C209.067 25.0225 207.806 26.2835 207.806 27.8448V123.085C207.806 124.647 209.067 125.908 210.628 125.908H354.87C356.431 125.908 357.692 124.647 357.692 123.085V27.8448C357.692 26.2835 356.431 25.0225 354.87 25.0225Z" fill="#759BD5"/>
<path d="M354.269 114.498H211.349C210.748 114.498 210.208 114.018 210.208 113.357V28.9256C210.208 28.3251 210.688 27.7847 211.349 27.7847H354.269C354.87 27.7847 355.41 28.2651 355.41 28.9256V113.357C355.35 113.958 354.87 114.498 354.269 114.498Z" fill="#E1EDF9"/>
<path d="M285.571 119.843C285.571 121.404 284.31 122.605 282.809 122.605C281.248 122.605 280.047 121.344 280.047 119.843C280.047 118.281 281.308 117.08 282.809 117.08C284.31 117.02 285.571 118.281 285.571 119.843Z" fill="#8FCAF2"/>
<g opacity="0.3">
<path opacity="0.3" d="M348.865 111.015H253.684C252.423 111.015 251.402 109.994 251.402 108.733V34.9309C251.402 33.6698 252.423 32.6489 253.684 32.6489H348.865C350.126 32.6489 351.147 33.6698 351.147 34.9309V108.733C351.147 109.994 350.126 111.015 348.865 111.015Z" fill="#6C9FBC"/>
<path opacity="0.3" d="M347.664 58.351H254.885C254.225 58.351 253.684 57.8105 253.684 57.15V36.2523C253.684 35.5917 254.225 35.0513 254.885 35.0513H347.664C348.324 35.0513 348.865 35.5917 348.865 36.2523V57.15C348.865 57.8105 348.324 58.351 347.664 58.351Z" fill="#6C9FBC"/>
<path opacity="0.3" d="M259.569 61.5332V101.407" stroke="#6C9FBC" stroke-width="1.1286" stroke-miterlimit="10" stroke-linecap="round"/>
<path opacity="0.3" d="M276.323 61.5332V101.407" stroke="#6C9FBC" stroke-width="1.1286" stroke-miterlimit="10" stroke-linecap="round"/>
<path opacity="0.3" d="M293.078 61.5332V101.407" stroke="#6C9FBC" stroke-width="1.1286" stroke-miterlimit="10" stroke-linecap="round"/>
<path opacity="0.3" d="M309.832 61.5332V101.407" stroke="#6C9FBC" stroke-width="1.1286" stroke-miterlimit="10" stroke-linecap="round"/>
<path opacity="0.3" d="M326.586 61.5332V101.407" stroke="#6C9FBC" stroke-width="1.1286" stroke-miterlimit="10" stroke-linecap="round"/>
<path opacity="0.3" d="M343.34 61.5332V101.407" stroke="#6C9FBC" stroke-width="1.1286" stroke-miterlimit="10" stroke-linecap="round"/>
<path opacity="0.3" d="M259.569 80.209C259.569 80.209 266.895 97.1433 276.323 97.1433C292.537 97.1433 299.323 65.4365 309.832 65.4365C319.32 65.4365 319.08 83.4517 326.466 85.3133C333.432 86.9947 338.536 74.5042 343.34 74.5042" stroke="#6C9FBC" stroke-width="1.0604" stroke-miterlimit="10" stroke-linecap="round"/>
<path opacity="0.3" d="M256.627 104.77H347.303" stroke="#6C9FBC" stroke-width="1.1286" stroke-miterlimit="10" stroke-linecap="round"/>
<path opacity="0.3" d="M261.851 108.253H257.227C256.867 108.253 256.567 107.953 256.567 107.592C256.567 107.232 256.867 106.932 257.227 106.932H261.851C262.212 106.932 262.512 107.232 262.512 107.592C262.572 107.892 262.272 108.253 261.851 108.253Z" fill="#6C9FBC"/>
<path opacity="0.3" d="M278.605 108.253H273.981C273.621 108.253 273.321 107.953 273.321 107.592C273.321 107.232 273.621 106.932 273.981 106.932H278.605C278.966 106.932 279.266 107.232 279.266 107.592C279.326 107.892 279.026 108.253 278.605 108.253Z" fill="#6C9FBC"/>
<path opacity="0.3" d="M295.42 108.253H290.796C290.435 108.253 290.135 107.953 290.135 107.592C290.135 107.232 290.435 106.932 290.796 106.932H295.42C295.78 106.932 296.08 107.232 296.08 107.592C296.08 107.892 295.78 108.253 295.42 108.253Z" fill="#6C9FBC"/>
<path opacity="0.3" d="M312.174 108.253H307.55C307.19 108.253 306.889 107.953 306.889 107.592C306.889 107.232 307.19 106.932 307.55 106.932H312.174C312.534 106.932 312.834 107.232 312.834 107.592C312.834 107.892 312.534 108.253 312.174 108.253Z" fill="#6C9FBC"/>
<path opacity="0.3" d="M328.928 108.253H324.304C323.944 108.253 323.643 107.953 323.643 107.592C323.643 107.232 323.944 106.932 324.304 106.932H328.928C329.288 106.932 329.588 107.232 329.588 107.592C329.588 107.892 329.288 108.253 328.928 108.253Z" fill="#6C9FBC"/>
<path opacity="0.3" d="M345.682 108.253H341.058C340.698 108.253 340.398 107.953 340.398 107.592C340.398 107.232 340.698 106.932 341.058 106.932H345.682C346.042 106.932 346.343 107.232 346.343 107.592C346.343 107.892 346.042 108.253 345.682 108.253Z" fill="#6C9FBC"/>
<path opacity="0.3" d="M311.033 65.4369C311.033 66.0974 310.492 66.5778 309.892 66.5778C309.231 66.5778 308.751 66.0374 308.751 65.4369C308.751 64.7763 309.291 64.2959 309.892 64.2959C310.492 64.2959 311.033 64.8364 311.033 65.4369Z" fill="#6C9FBC"/>
<path opacity="0.3" d="M259.569 80.8699C260 80.8699 260.35 80.5204 260.35 80.0893C260.35 79.6581 260 79.3086 259.569 79.3086C259.138 79.3086 258.789 79.6581 258.789 80.0893C258.789 80.5204 259.138 80.8699 259.569 80.8699Z" fill="#6C9FBC"/>
<path opacity="0.3" d="M344.121 74.5043C344.121 74.9246 343.76 75.285 343.34 75.285C342.92 75.285 342.559 74.9246 342.559 74.5043C342.559 74.0839 342.92 73.7236 343.34 73.7236C343.76 73.7236 344.121 74.0839 344.121 74.5043Z" fill="#6C9FBC"/>
</g>
<path d="M347.604 109.694H252.363C251.102 109.694 250.081 108.673 250.081 107.412V33.6696C250.081 32.4086 251.102 31.3877 252.363 31.3877H347.544C348.805 31.3877 349.826 32.4086 349.826 33.6696V107.412C349.886 108.673 348.865 109.694 347.604 109.694Z" fill="white"/>
<path d="M346.403 57.0897H253.624C252.964 57.0897 252.423 56.5493 252.423 55.8887V34.9911C252.423 34.3305 252.964 33.79 253.624 33.79H346.403C347.063 33.79 347.604 34.3305 347.604 34.9911V55.8887C347.604 56.4892 347.063 57.0897 346.403 57.0897Z" fill="#E1EDF9"/>
<path d="M258.308 60.2725V100.146" stroke="#D6E2EA" stroke-width="1.1286" stroke-miterlimit="10" stroke-linecap="round"/>
<path d="M275.062 60.2725V100.146" stroke="#D6E2EA" stroke-width="1.1286" stroke-miterlimit="10" stroke-linecap="round"/>
<path d="M291.817 60.2725V100.146" stroke="#D6E2EA" stroke-width="1.1286" stroke-miterlimit="10" stroke-linecap="round"/>
<path d="M308.571 60.2725V100.146" stroke="#D6E2EA" stroke-width="1.1286" stroke-miterlimit="10" stroke-linecap="round"/>
<path d="M325.325 60.2725V100.146" stroke="#D6E2EA" stroke-width="1.1286" stroke-miterlimit="10" stroke-linecap="round"/>
<path d="M342.079 60.2725V100.146" stroke="#D6E2EA" stroke-width="1.1286" stroke-miterlimit="10" stroke-linecap="round"/>
<path d="M258.308 78.9483C258.308 78.9483 265.634 95.8826 275.062 95.8826C291.276 95.8826 298.062 64.1758 308.571 64.1758C318.059 64.1758 317.819 82.191 325.205 84.0526C332.171 85.734 337.275 73.2434 342.079 73.2434" stroke="#759BD5" stroke-width="1.0604" stroke-miterlimit="10" stroke-linecap="round"/>
<path d="M255.366 103.509H346.042" stroke="#D6E2EA" stroke-width="1.1286" stroke-miterlimit="10" stroke-linecap="round"/>
<path d="M260.59 106.932H255.966C255.606 106.932 255.306 106.632 255.306 106.271C255.306 105.911 255.606 105.611 255.966 105.611H260.59C260.95 105.611 261.251 105.911 261.251 106.271C261.311 106.632 260.95 106.932 260.59 106.932Z" fill="#D6E2EA"/>
<path d="M277.344 106.932H272.72C272.36 106.932 272.06 106.632 272.06 106.271C272.06 105.911 272.36 105.611 272.72 105.611H277.344C277.705 105.611 278.005 105.911 278.005 106.271C278.065 106.632 277.765 106.932 277.344 106.932Z" fill="#D6E2EA"/>
<path d="M294.098 106.932H289.475C289.114 106.932 288.814 106.632 288.814 106.271C288.814 105.911 289.114 105.611 289.475 105.611H294.098C294.459 105.611 294.759 105.911 294.759 106.271C294.819 106.632 294.519 106.932 294.098 106.932Z" fill="#D6E2EA"/>
<path d="M310.853 106.932H306.229C305.868 106.932 305.568 106.632 305.568 106.271C305.568 105.911 305.868 105.611 306.229 105.611H310.853C311.213 105.611 311.513 105.911 311.513 106.271C311.573 106.632 311.273 106.932 310.853 106.932Z" fill="#D6E2EA"/>
<path d="M327.667 106.932H323.043C322.683 106.932 322.382 106.632 322.382 106.271C322.382 105.911 322.683 105.611 323.043 105.611H327.667C328.027 105.611 328.327 105.911 328.327 106.271C328.327 106.632 328.027 106.932 327.667 106.932Z" fill="#D6E2EA"/>
<path d="M344.421 106.932H339.797C339.437 106.932 339.137 106.632 339.137 106.271C339.137 105.911 339.437 105.611 339.797 105.611H344.421C344.781 105.611 345.082 105.911 345.082 106.271C345.082 106.632 344.781 106.932 344.421 106.932Z" fill="#D6E2EA"/>
<path d="M309.712 64.1756C309.712 64.8362 309.171 65.3166 308.571 65.3166C307.91 65.3166 307.43 64.7761 307.43 64.1756C307.43 63.5151 307.97 63.0347 308.571 63.0347C309.231 63.0347 309.712 63.5151 309.712 64.1756Z" fill="#759BD5"/>
<path d="M258.308 79.6087C258.739 79.6087 259.089 79.2592 259.089 78.828C259.089 78.3969 258.739 78.0474 258.308 78.0474C257.877 78.0474 257.528 78.3969 257.528 78.828C257.528 79.2592 257.877 79.6087 258.308 79.6087Z" fill="#759BD5"/>
<path d="M342.86 73.2431C342.86 73.6634 342.499 74.0237 342.079 74.0237C341.659 74.0237 341.298 73.6634 341.298 73.2431C341.298 72.8227 341.659 72.4624 342.079 72.4624C342.499 72.4624 342.86 72.7627 342.86 73.2431Z" fill="#759BD5"/>
<g opacity="0.3">
<path opacity="0.3" d="M246.478 111.015H216.873C215.732 111.015 214.831 110.114 214.831 108.973V34.6907C214.831 33.5497 215.732 32.6489 216.873 32.6489H246.478C247.619 32.6489 248.52 33.5497 248.52 34.6907V108.973C248.52 110.054 247.619 111.015 246.478 111.015Z" fill="#6C9FBC"/>
</g>
<path d="M245.217 109.694H215.672C214.531 109.694 213.63 108.793 213.63 107.652V33.4294C213.63 32.2885 214.531 31.3877 215.672 31.3877H245.277C246.418 31.3877 247.319 32.2885 247.319 33.4294V107.712C247.259 108.793 246.358 109.694 245.217 109.694Z" fill="white"/>
<path d="M244.316 107.472H216.693C216.333 107.472 215.972 107.172 215.972 106.752V34.3905C215.972 34.0302 216.273 33.6699 216.693 33.6699H244.316C244.677 33.6699 245.037 33.9702 245.037 34.3905V106.812C245.037 107.172 244.737 107.472 244.316 107.472Z" fill="#E1EDF9"/>
<path d="M332.351 25.0224H308.511C308.811 24.3018 309.231 23.401 309.772 22.6804C310.853 21.2993 314.996 19.4377 316.257 18.8972C316.317 18.8372 316.377 18.8372 316.437 18.8372C316.557 18.7771 316.617 18.7771 316.617 18.7771L321.181 17.1558C321.181 17.1558 327.727 18.9573 329.468 19.798C330.309 20.2184 331.15 21.8998 331.81 23.4611C331.87 23.5812 331.93 23.7013 331.99 23.8814C332.111 24.3018 332.231 24.6621 332.351 25.0224Z" fill="white"/>
<path d="M321.181 17.1556C321.181 17.1556 320.1 19.0772 316.617 18.777C316.617 18.777 316.617 18.7169 316.617 18.5968C316.617 18.2966 316.557 17.636 316.317 16.8553C316.317 16.7953 316.257 16.7352 316.257 16.6752C316.197 16.435 316.077 16.1948 315.957 15.9546C315.717 15.5342 315.477 15.0538 315.056 14.5734L315.176 14.2732L317.098 8.98869L317.338 8.38818C317.338 8.38818 317.638 9.16884 318.119 10.3098C318.419 10.9704 318.719 11.751 319.08 12.5317C319.74 14.1531 320.521 15.9546 321.181 17.1556Z" fill="#FE9393"/>
<path d="M317.999 13.3128C317.939 14.4537 317.698 16.7357 316.618 18.5972C316.618 18.297 316.557 17.6364 316.317 16.8558C316.137 17.096 315.897 17.2761 315.717 17.3962C315.597 17.2161 315.537 17.0359 315.417 16.8558L315.597 16.5555L316.017 15.955L318.119 12.7123C317.999 12.6522 317.999 12.8924 317.999 13.3128Z" fill="#E15F60"/>
<path d="M308.271 10.8505C308.271 10.8505 308.691 13.0123 310.492 13.3126L309.351 10.25L308.271 10.8505Z" fill="#002952"/>
<path d="M318.119 12.1716C318.119 12.5319 318.059 12.9522 317.999 13.3125C317.879 13.913 317.698 14.5135 317.398 15.1141C317.038 15.8347 316.678 16.4352 316.317 16.7955C316.137 17.0357 315.897 17.2158 315.717 17.3359C314.756 18.0565 313.975 17.9965 313.975 17.9965C312.174 17.1558 310.853 14.9339 310.012 13.0723C309.652 12.3517 309.411 11.6311 309.231 11.2108C309.051 10.7904 308.991 10.4901 308.991 10.4901V10.4301C308.03 7.96801 310.913 6.10644 313.735 6.04639C313.915 6.04639 314.035 6.04639 314.216 6.04639C315.056 6.10644 315.837 6.34664 316.497 6.767C317.638 7.48761 318.059 8.86877 318.179 10.1899C318.179 10.2499 318.179 10.31 318.179 10.37C318.179 11.0907 318.119 11.6912 318.119 12.1716Z" fill="#FE9393"/>
<path d="M314.215 5.56626C314.215 5.56626 314.035 12.5321 305.928 11.151C305.928 11.151 307.069 4.06499 311.693 3.76474C312.534 3.64464 313.735 4.12504 314.215 5.56626Z" fill="#002952"/>
<path d="M313.735 6.52686C313.735 6.52686 314.516 9.16909 316.257 10.4302C316.257 10.4302 316.077 9.28919 316.798 8.92889C317.518 8.56859 318.539 11.451 319.08 12.5319C319.08 12.5319 319.92 10.4902 318.479 6.82711C317.038 3.16402 313.975 3.16402 313.615 5.38589L313.735 6.52686Z" fill="#002952"/>
<path d="M316.918 9.5293C316.918 9.5293 316.557 9.82955 316.918 10.5502C317.278 11.2708 317.818 11.1507 317.638 10.7303C317.518 10.31 317.038 10.31 317.038 10.4901C317.098 10.4901 316.738 10.1298 316.918 9.5293Z" fill="#E15F60"/>
<path d="M324.784 46.5205L323.463 47.9617C323.463 47.9617 323.103 48.2019 322.142 48.3821C321.181 48.5622 320.821 49.463 320.701 49.6431C320.641 49.8233 320.821 49.9434 321.181 49.7632C321.422 49.6431 321.542 49.2228 322.082 49.4029C322.322 49.463 322.022 50.0635 321.722 50.3037C321.422 50.5439 320.341 51.3246 320.1 51.5047C319.86 51.6849 319.86 52.0452 320.761 51.6248C321.602 51.2645 321.842 51.0844 322.082 50.9042C322.082 50.9042 322.503 50.9042 322.683 50.9042C322.743 50.9042 322.803 50.8442 322.863 50.8442C322.983 50.8442 323.283 50.8442 323.403 50.8442H323.463C323.643 50.8442 323.824 50.8442 323.944 50.9042C324.484 50.9042 324.844 50.0035 325.025 49.6431C325.205 49.2228 326.406 47.9017 326.406 47.9017L324.784 46.5205Z" fill="#FE9393"/>
<path d="M324.664 24.9626C326.226 28.5656 331.15 36.0119 331.15 36.0119C331.15 36.0119 330.129 37.3931 329.228 38.8343C327.907 40.9361 326.286 43.8786 324.244 46.8211C324.244 46.8211 324.484 47.3615 325.025 47.902C325.445 48.3223 326.045 48.5625 326.045 48.5625C326.045 48.5625 334.633 41.4766 336.614 36.8526C336.734 36.5524 336.734 36.2521 336.614 35.9519C335.894 33.9702 332.831 25.9234 331.39 22.7407L324.664 24.9626Z" fill="white"/>
<path d="M264.734 49.4045L222.938 53.1877C222.218 53.2478 221.557 52.7073 221.497 51.9867L220.416 40.0366C220.356 39.316 220.897 38.6554 221.617 38.5954L263.413 34.8122C264.133 34.7521 264.794 35.2926 264.854 36.0132L265.935 47.9633C265.995 48.6839 265.454 49.3445 264.734 49.4045Z" fill="white"/>
<path d="M223.118 41.958L262.692 38.355" stroke="#D6E2EA" stroke-width="2.0022" stroke-miterlimit="10" stroke-linecap="round"/>
<path d="M223.118 41.9583L242.335 40.2168" stroke="#EB5D62" stroke-width="2.1923" stroke-miterlimit="10" stroke-linecap="round"/>
<path d="M223.599 45.9815L263.172 42.3784" stroke="#D6E2EA" stroke-width="2.0022" stroke-miterlimit="10" stroke-linecap="round"/>
<path d="M223.599 45.9818L238.191 44.6606" stroke="#EB5D62" stroke-width="2.1923" stroke-miterlimit="10" stroke-linecap="round"/>
<path d="M223.839 49.8848L263.413 46.2817" stroke="#D6E2EA" stroke-width="2.0022" stroke-miterlimit="10" stroke-linecap="round"/>
<path d="M223.839 49.8848L258.488 46.7622" stroke="#EB5D62" stroke-width="2.1923" stroke-miterlimit="10" stroke-linecap="round"/>
<path d="M252.904 53.9092C252.904 53.9092 252.964 53.3087 252.964 52.6481C253.024 52.0476 252.724 51.6873 252.724 51.5072C252.663 51.1469 252.724 50.4863 252.724 50.4863L253.564 50.4263C253.564 50.4263 253.925 49.9459 254.285 49.2853C254.405 49.1051 254.465 48.925 254.465 48.6848C254.465 48.1443 254.465 48.0843 254.525 47.784C254.585 47.3637 254.885 47.1835 255.005 47.724C255.126 48.2044 255.126 48.8049 255.126 49.0451C255.126 49.2853 254.705 50.3662 254.705 50.3662C254.705 50.3662 255.966 51.0868 256.026 51.327C256.086 51.5672 255.486 52.528 255.005 54.3296" fill="#FE9393"/>
<path d="M254.885 47.843C254.885 47.843 254.765 47.2424 255.005 47.1824C255.246 47.1223 255.366 47.6027 255.426 47.843C255.486 48.0832 255.606 48.9239 255.666 49.1641C255.726 49.4643 255.066 51.0256 255.066 51.0256L254.345 50.3651L254.705 48.5035" fill="#FE9393"/>
<path d="M255.366 48.2037C255.366 48.2037 255.306 47.7833 255.546 47.6632C255.726 47.5431 255.846 47.9635 255.906 48.2037C255.966 48.4439 256.086 49.2846 256.146 49.5248C256.206 49.8251 255.546 51.3864 255.546 51.3864L254.825 50.7258L255.186 48.8642" fill="#FE9393"/>
<path d="M256.206 48.4438C256.146 48.684 256.267 49.0443 256.267 49.2245C256.267 49.4046 256.086 49.825 256.086 49.825L255.606 51.2062L255.846 51.8067L256.567 50.0652L256.687 49.7049C256.747 49.5247 256.747 49.2845 256.747 49.0443C256.627 48.624 256.387 47.9034 256.206 48.4438Z" fill="#FE9393"/>
<path d="M230.805 55.9501C230.805 55.9501 231.526 54.1486 231.526 53.9684C231.526 53.7282 231.045 52.5873 230.985 52.3471C230.925 52.1069 231.045 50.6656 231.225 50.4254C231.406 50.1852 231.586 50.3654 231.706 50.6056C231.766 50.8458 231.826 51.3862 231.826 51.5664C231.826 51.7466 232.246 52.3471 232.246 52.3471L234.348 52.1669L235.069 52.1069C235.069 52.1069 234.948 52.7674 234.768 53.1277C234.588 53.5481 234.288 53.7883 234.108 53.9684C233.928 54.1486 233.327 55.6499 233.207 56.2504" fill="#FE9393"/>
<path d="M238.672 141.883V144.885C238.672 144.885 239.753 145.246 240.773 144.885L241.194 141.883" fill="#FE9393"/>
<path d="M219.515 139.661L218.735 142.603C218.735 142.603 219.696 143.204 220.777 143.144L221.978 140.321" fill="#FE9393"/>
<path d="M230.745 55.5298C230.745 55.5298 232.426 55.7099 233.387 56.0702C233.387 56.0702 232.186 63.3964 231.045 66.2188C230.084 68.5008 231.886 74.5659 231.886 74.5659L228.463 76.9079C228.463 76.9079 226.842 68.6809 226.661 66.6392C226.481 64.5974 230.745 55.5298 230.745 55.5298Z" fill="#435FEA"/>
<path d="M235.249 97.6252C235.249 100.147 234.768 103.33 234.108 106.693C233.567 109.395 232.907 112.278 232.186 114.92C231.466 117.622 230.745 120.084 230.084 122.126C227.983 128.792 221.617 141.522 221.617 141.522C220.116 141.642 219.035 140.742 219.035 140.742C219.035 140.742 221.737 125.669 223.899 121.105C224.079 119.964 224.139 113.599 224.68 108.915C224.98 106.513 224.86 104.111 224.56 101.709C224.139 98.526 225.22 95.5234 225.22 95.5234L235.249 97.6252Z" fill="#2034AA"/>
<path d="M234.168 106.753C233.627 109.455 232.967 112.338 232.246 114.98C230.084 108.674 229.664 101.949 229.664 101.949C229.664 101.949 232.847 105.492 234.168 106.753Z" fill="#102772"/>
<path d="M241.554 96.3643C241.554 96.3643 243.115 114.98 243.236 122.186C243.356 129.392 241.134 143.624 241.134 143.624C241.134 143.624 240.533 144.165 238.371 143.624C238.371 143.624 236.27 128.191 237.11 122.306C237.11 122.306 233.207 113.359 231.285 107.294C230.925 106.153 230.265 103.931 230.024 102.91C228.343 96.8447 232.727 93.0615 232.727 93.0615" fill="#2034AA"/>
<path d="M252.363 53.6681C252.363 53.6681 250.261 61.9551 248.34 66.3988C243.656 69.5815 238.972 73.1245 238.972 73.1245L234.168 71.8634C231.766 73.3047 230.024 76.5474 228.943 82.012C227.863 87.4766 222.938 98.2858 222.938 98.2858C232.847 103.57 242.755 100.748 242.755 100.748C242.755 100.748 242.875 90.7194 242.875 84.8344C242.875 81.0512 244.497 77.4482 247.259 74.866C249.361 72.9444 251.462 70.7225 252.363 69.1612C254.345 64.237 255.306 54.1485 255.306 54.1485C254.105 53.3078 252.363 53.6681 252.363 53.6681Z" fill="#435FEA"/>
<path d="M239.272 71.0827C239.092 71.6832 238.972 72.4038 239.032 73.1244C239.032 73.1244 237.351 73.785 235.789 72.7041C234.228 71.6232 235.789 69.5814 235.789 69.5814H239.933C239.873 69.5214 239.512 70.1819 239.272 71.0827Z" fill="#FE9393"/>
<path d="M239.873 69.5215C239.873 69.5215 239.512 70.122 239.212 71.0228C237.831 71.0828 237.17 70.5423 237.17 70.5423C237.17 70.5423 237.531 70.0019 237.891 69.5215H239.873Z" fill="#E15F60"/>
<path d="M239.753 61.4745C239.753 61.4745 241.554 65.0175 241.494 68.1401C240.653 69.2811 239.572 69.9416 238.732 70.362C237.531 70.9625 236.089 70.7223 235.189 69.7615C234.648 69.221 234.108 68.5004 233.567 67.4795C231.165 62.9757 236.33 57.9915 239.753 61.4745Z" fill="#FE9393"/>
<path d="M238.131 57.5112C240.954 58.2318 241.134 60.6338 240.473 61.4745C239.332 62.9157 238.672 62.6755 237.951 62.9158C235.909 63.5163 236.51 68.2603 236.39 70.7223C236.27 73.1844 238.491 83.6333 234.228 85.5549C233.087 86.0953 231.586 85.1946 229.244 86.6358C226.902 88.017 221.497 86.8159 222.578 81.7717C223.659 76.7274 228.943 74.6857 230.505 69.7615C230.985 68.1402 229.844 66.8791 229.544 65.7381C228.763 62.9758 229.724 61.1142 230.505 59.9132C231.706 57.9916 235.309 56.7906 238.131 57.5112Z" fill="#2437B0"/>
<path d="M236.57 65.6181C236.57 65.6181 236.27 64.7774 235.429 65.1978C234.408 65.6782 235.549 67.9001 236.45 67.5398" fill="#FE9393"/>
<path d="M235.429 65.6781C235.429 65.6781 235.789 65.498 235.969 65.7982C236.21 66.1585 236.51 66.759 236.089 66.8791C235.789 66.9392 235.489 66.3387 235.969 66.1585C235.969 66.1585 235.789 65.6181 235.429 65.6781Z" fill="#E15F60"/>
<path d="M237.951 145.846C237.951 145.846 238.011 145.005 238.672 144.585C238.672 144.585 238.972 144.285 239.873 144.585C240.173 144.645 240.533 145.005 240.773 144.945C240.773 144.945 241.314 145.786 241.854 146.867C242.095 147.347 242.395 148.008 242.815 148.428C243.296 148.909 243.956 149.029 244.016 149.389C244.076 149.87 244.076 149.99 242.815 149.99C242.815 149.99 241.074 149.569 240.593 149.089C240.113 148.548 237.951 145.846 237.951 145.846Z" fill="#2034AA"/>
<path d="M240.773 149.93C240.233 149.93 239.692 149.629 239.392 149.149C238.852 148.248 238.131 146.867 238.011 146.447C237.531 145.066 239.332 145.186 239.813 145.666C240.173 146.086 240.713 147.167 241.254 148.188C241.734 149.149 242.095 149.75 242.875 149.93H240.773Z" fill="#112977"/>
<path d="M220.777 143.084C220.777 143.084 220.957 143.504 220.957 144.045C220.897 144.525 220.536 149.449 219.936 149.87C219.816 149.93 219.575 150.05 219.035 150.05C218.435 150.05 218.194 149.149 217.654 147.768C217.113 146.327 217.714 144.105 217.894 142.904C217.954 142.724 218.314 142.303 218.615 142.063C218.855 141.883 219.095 141.763 219.395 141.823C219.816 141.883 220.356 142.003 220.296 142.724C220.296 142.844 220.236 142.964 220.777 143.084Z" fill="#2034AA"/>
<path d="M217.654 143.324C217.834 142.723 218.134 142.543 218.615 142.483C219.155 142.423 219.936 142.963 219.876 144.224C219.816 145.486 219.756 148.968 219.636 149.389C219.395 150.41 218.254 150.109 217.894 149.329C217.594 148.548 216.993 145.906 217.654 143.324Z" fill="#112977"/>
<path d="M306.469 57.5698H313.915" stroke="#D6E2EA" stroke-width="0.685" stroke-miterlimit="10" stroke-linecap="round"/>
<path d="M306.469 58.5308H313.915" stroke="#D6E2EA" stroke-width="0.685" stroke-miterlimit="10" stroke-linecap="round"/>
<path d="M306.469 59.5518H310.672" stroke="#D6E2EA" stroke-width="0.685" stroke-miterlimit="10" stroke-linecap="round"/>
<path d="M296.38 7.9082H253.384C252.123 7.9082 251.162 8.92907 251.162 10.1301V16.1352C251.162 17.3962 252.183 18.357 253.384 18.357H291.276L294.519 21.5998V18.357H296.38C297.641 18.357 298.602 17.3362 298.602 16.1352V10.1301C298.602 8.92907 297.641 7.9082 296.38 7.9082Z" fill="#3F49A5"/>
<path d="M254.525 10.7905H294.939" stroke="white" stroke-width="1.0011" stroke-miterlimit="10" stroke-linecap="round"/>
<path d="M254.525 13.1323H294.939" stroke="white" stroke-width="1.0011" stroke-miterlimit="10" stroke-linecap="round"/>
<path d="M254.525 15.5347H277.645" stroke="white" stroke-width="1.0011" stroke-miterlimit="10" stroke-linecap="round"/>
<path d="M220.176 56.249H197.357C196.096 56.249 195.135 57.2699 195.135 58.4709V64.476C195.135 65.737 196.156 66.6979 197.357 66.6979H215.072L218.314 69.9406V66.6979H220.176C221.437 66.6979 222.398 65.677 222.398 64.476V58.4709C222.398 57.2098 221.377 56.249 220.176 56.249Z" fill="#9DBEED"/>
<path d="M198.498 59.0713H215.972" stroke="white" stroke-width="1.0011" stroke-miterlimit="10" stroke-linecap="round"/>
<path d="M198.498 61.4731H218.675" stroke="white" stroke-width="1.0011" stroke-miterlimit="10" stroke-linecap="round"/>
<path d="M198.498 63.8755H205.764" stroke="white" stroke-width="1.0011" stroke-miterlimit="10" stroke-linecap="round"/>
<path d="M400.379 74.0779H367.651C366.75 74.0779 366.03 73.3573 366.03 72.4565V51.6189C366.03 50.7182 366.75 49.9976 367.651 49.9976H400.379C401.279 49.9976 402 50.7182 402 51.6189V72.4565C402 73.3573 401.279 74.0779 400.379 74.0779Z" fill="#3F49A5"/>
<path d="M369.332 55.2217H398.697" stroke="white" stroke-width="1.0011" stroke-miterlimit="10" stroke-linecap="round"/>
<path d="M369.332 58.4048H393.953" stroke="white" stroke-width="1.0011" stroke-miterlimit="10" stroke-linecap="round"/>
<path d="M369.332 64.77H398.697" stroke="white" stroke-width="1.0011" stroke-miterlimit="10" stroke-linecap="round"/>
<path d="M369.332 68.0127H395.635" stroke="white" stroke-width="1.0011" stroke-miterlimit="10" stroke-linecap="round"/>
<path d="M369.332 71.1953H389.149" stroke="white" stroke-width="1.0011" stroke-miterlimit="10" stroke-linecap="round"/>
<path d="M398.757 51.0786L400.499 52.8201" stroke="white" stroke-width="1.0011" stroke-miterlimit="10" stroke-linecap="round"/>
<path d="M400.499 51.0786L398.757 52.8201" stroke="white" stroke-width="1.0011" stroke-miterlimit="10" stroke-linecap="round"/>
<path d="M395.815 52.8201H397.196C397.316 52.8201 397.376 52.76 397.376 52.6399V51.1987C397.376 51.0786 397.316 51.0186 397.196 51.0186H395.815C395.695 51.0186 395.635 51.0786 395.635 51.1987V52.5799C395.635 52.7 395.695 52.8201 395.815 52.8201Z" stroke="white" stroke-width="1.0011" stroke-miterlimit="10" stroke-linecap="round"/>
<path d="M392.392 52.8198H394.133" stroke="white" stroke-width="1.0011" stroke-miterlimit="10" stroke-linecap="round"/>
<path d="M369.332 61.5874H385.486" stroke="white" stroke-width="1.0011" stroke-miterlimit="10" stroke-linecap="round"/>
<path d="M175.349 94.3933H142.621C141.721 94.3933 141 93.6727 141 92.772V71.9344C141 71.0336 141.721 70.313 142.621 70.313H175.349C176.25 70.313 176.97 71.0336 176.97 71.9344V92.772C176.97 93.6727 176.25 94.3933 175.349 94.3933Z" fill="#9B59B6"/>
<path d="M144.303 75.5371H173.668" stroke="white" stroke-width="1.0011" stroke-miterlimit="10" stroke-linecap="round"/>
<path d="M144.303 78.7197H168.924" stroke="white" stroke-width="1.0011" stroke-miterlimit="10" stroke-linecap="round"/>
<path d="M144.303 85.0854H173.668" stroke="white" stroke-width="1.0011" stroke-miterlimit="10" stroke-linecap="round"/>
<path d="M144.303 88.3281H170.605" stroke="white" stroke-width="1.0011" stroke-miterlimit="10" stroke-linecap="round"/>
<path d="M144.303 91.5107H164.12" stroke="white" stroke-width="1.0011" stroke-miterlimit="10" stroke-linecap="round"/>
<path d="M173.728 71.3936L175.469 73.135" stroke="white" stroke-width="1.0011" stroke-miterlimit="10" stroke-linecap="round"/>
<path d="M175.469 71.3936L173.728 73.135" stroke="white" stroke-width="1.0011" stroke-miterlimit="10" stroke-linecap="round"/>
<path d="M170.785 73.135H172.166C172.286 73.135 172.347 73.075 172.347 72.9549V71.5137C172.347 71.3935 172.286 71.3335 172.166 71.3335H170.785C170.665 71.3335 170.605 71.3935 170.605 71.5137V72.8948C170.605 73.0149 170.665 73.135 170.785 73.135Z" stroke="white" stroke-width="1.0011" stroke-miterlimit="10" stroke-linecap="round"/>
<path d="M167.362 73.1353H169.104" stroke="white" stroke-width="1.0011" stroke-miterlimit="10" stroke-linecap="round"/>
<path d="M144.303 81.9023H160.456" stroke="white" stroke-width="1.0011" stroke-miterlimit="10" stroke-linecap="round"/>
<path d="M166.349 106.08H133.621C132.721 106.08 132 105.36 132 104.459V83.6214C132 82.7206 132.721 82 133.621 82H166.349C167.25 82 167.97 82.7206 167.97 83.6214V104.459C167.97 105.36 167.25 106.08 166.349 106.08Z" fill="#F1C40F"/>
<path d="M135.303 87.2241H164.668" stroke="white" stroke-width="1.0011" stroke-miterlimit="10" stroke-linecap="round"/>
<path d="M135.303 90.4072H159.924" stroke="white" stroke-width="1.0011" stroke-miterlimit="10" stroke-linecap="round"/>
<path d="M135.303 96.7725H164.668" stroke="white" stroke-width="1.0011" stroke-miterlimit="10" stroke-linecap="round"/>
<path d="M135.303 100.015H161.605" stroke="white" stroke-width="1.0011" stroke-miterlimit="10" stroke-linecap="round"/>
<path d="M135.303 103.198H155.12" stroke="white" stroke-width="1.0011" stroke-miterlimit="10" stroke-linecap="round"/>
<path d="M164.728 83.0811L166.469 84.8225" stroke="white" stroke-width="1.0011" stroke-miterlimit="10" stroke-linecap="round"/>
<path d="M166.469 83.0811L164.728 84.8225" stroke="white" stroke-width="1.0011" stroke-miterlimit="10" stroke-linecap="round"/>
<path d="M161.785 84.8225H163.166C163.286 84.8225 163.347 84.7625 163.347 84.6424V83.2012C163.347 83.081 163.286 83.021 163.166 83.021H161.785C161.665 83.021 161.605 83.081 161.605 83.2012V84.5823C161.605 84.7024 161.665 84.8225 161.785 84.8225Z" stroke="white" stroke-width="1.0011" stroke-miterlimit="10" stroke-linecap="round"/>
<path d="M158.362 84.8223H160.104" stroke="white" stroke-width="1.0011" stroke-miterlimit="10" stroke-linecap="round"/>
<path d="M135.303 93.5898H151.456" stroke="white" stroke-width="1.0011" stroke-miterlimit="10" stroke-linecap="round"/>
<path d="M179.349 117.08H146.621C145.721 117.08 145 116.36 145 115.459V94.6214C145 93.7206 145.721 93 146.621 93H179.349C180.25 93 180.97 93.7206 180.97 94.6214V115.459C180.97 116.36 180.25 117.08 179.349 117.08Z" fill="#2ECC71"/>
<path d="M148.303 98.2241H177.668" stroke="white" stroke-width="1.0011" stroke-miterlimit="10" stroke-linecap="round"/>
<path d="M148.303 101.407H172.924" stroke="white" stroke-width="1.0011" stroke-miterlimit="10" stroke-linecap="round"/>
<path d="M148.303 107.772H177.668" stroke="white" stroke-width="1.0011" stroke-miterlimit="10" stroke-linecap="round"/>
<path d="M148.303 111.015H174.605" stroke="white" stroke-width="1.0011" stroke-miterlimit="10" stroke-linecap="round"/>
<path d="M148.303 114.198H168.12" stroke="white" stroke-width="1.0011" stroke-miterlimit="10" stroke-linecap="round"/>
<path d="M177.728 94.0811L179.469 95.8225" stroke="white" stroke-width="1.0011" stroke-miterlimit="10" stroke-linecap="round"/>
<path d="M179.469 94.0811L177.728 95.8225" stroke="white" stroke-width="1.0011" stroke-miterlimit="10" stroke-linecap="round"/>
<path d="M174.785 95.8225H176.166C176.286 95.8225 176.347 95.7625 176.347 95.6424V94.2012C176.347 94.081 176.286 94.021 176.166 94.021H174.785C174.665 94.021 174.605 94.081 174.605 94.2012V95.5823C174.605 95.7024 174.665 95.8225 174.785 95.8225Z" stroke="white" stroke-width="1.0011" stroke-miterlimit="10" stroke-linecap="round"/>
<path d="M171.362 95.8223H173.104" stroke="white" stroke-width="1.0011" stroke-miterlimit="10" stroke-linecap="round"/>
<path d="M148.303 104.59H164.456" stroke="white" stroke-width="1.0011" stroke-miterlimit="10" stroke-linecap="round"/>
<path d="M289.835 143.923V147.526C289.835 147.526 290.916 147.826 292.177 147.526L292.357 143.442" fill="#FE9393"/>
<path d="M292.177 147.045C292.177 147.045 291.877 147.346 290.736 147.346C290.736 147.346 290.135 146.805 289.354 147.105C289.354 147.105 288.213 148.126 287.433 148.246C286.652 148.427 285.691 148.487 285.451 148.847C285.211 149.207 285.331 149.447 285.331 149.447C285.331 149.447 285.271 149.628 286.292 149.628C287.253 149.688 290.435 149.507 290.976 149.568C291.516 149.568 292.237 149.628 292.597 149.507C292.837 149.387 292.837 147.706 292.177 147.045Z" fill="#2034AA"/>
<path d="M309.892 142.962L310.973 146.445C310.973 146.445 312.114 146.385 313.195 145.785L312.174 141.881" fill="#FE9393"/>
<path d="M314.456 147.166C314.215 147.406 313.555 147.766 313.075 148.006C312.774 148.127 311.813 148.667 310.913 149.207C310.552 149.448 310.132 149.508 309.712 149.508H308.15C307.85 149.508 307.73 149.328 307.79 149.207C307.79 148.907 308.09 148.607 308.511 148.547C308.631 148.547 308.751 148.487 308.871 148.427C309.351 148.247 309.772 147.826 310.072 147.406C310.372 146.926 310.552 146.565 310.552 146.565C311.093 145.965 311.873 146.145 311.873 146.145C312.894 145.664 313.014 145.184 313.014 145.184C313.855 145.424 314.756 146.926 314.456 147.166Z" fill="#2034AA"/>
<path d="M298.182 105.55C298.122 106.271 298.062 106.932 298.002 107.412C297.822 108.493 297.401 110.174 296.861 112.036C295.9 115.279 294.699 119.122 294.038 121.344C296.681 126.748 292.897 144.704 292.417 146.205C291.096 146.445 290.075 146.205 289.595 146.085C289.054 137.798 288.033 120.983 288.093 120.623C288.334 112.096 289.354 104.289 289.414 103.028C289.535 101.767 289.655 94.8014 290.255 94.5612C291.576 94.0808 294.999 92.9398 296.561 95.1617C298.182 97.4436 298.422 102.368 298.182 105.55Z" fill="#2034AA"/>
<path d="M298.182 105.551C298.122 106.271 298.062 106.932 298.002 107.412C297.822 108.493 297.401 110.175 296.861 112.036C296.681 109.334 296.38 101.948 296.38 101.948L298.182 105.551Z" fill="#102772"/>
<path d="M312.954 144.163C311.813 145.064 310.612 145.064 310.132 145.004C310.372 145.304 302.446 127.649 301.184 124.046C301.124 123.806 300.764 122.845 300.704 122.545C300.104 120.683 298.122 111.075 297.221 107.292L294.579 95.222C294.579 95.222 290.976 95.7024 293.558 95.5823C296.861 95.4021 301.004 93.7207 301.004 93.7207C306.529 98.4047 307.009 103.809 306.769 106.512C306.649 107.592 306.649 108.673 306.709 109.814C306.889 113.838 306.229 119.242 306.409 121.945C312.294 130.172 312.654 141.161 312.954 144.163Z" fill="#2034AA"/>
<path d="M289.655 71.6818C290.616 70.8411 292.237 70.0605 293.798 69.52C294.939 69.3398 296.801 69.3999 298.782 69.9404C301.124 70.5409 303.827 71.0213 304.187 71.922C304.547 72.7627 304.968 81.29 304.427 84.2925C304.007 86.5144 302.926 92.039 302.926 93.3602C302.926 94.6813 303.647 95.2818 303.286 95.6421C302.566 96.4828 297.461 96.8431 295.059 96.8431C292.958 96.8431 289.294 96.3026 289.114 95.582C288.814 94.5612 289.535 94.6212 289.595 93.5403C289.775 92.5194 288.814 72.6426 289.655 71.6818Z" fill="#435FEA"/>
<path d="M301.785 78.6479C301.785 78.6479 302.145 84.4729 302.506 88.4362C302.626 89.397 302.386 90.538 302.506 91.1385L304.728 90.4779L302.986 80.8098L301.785 78.6479Z" fill="#3A5ACE"/>
<path d="M320.1 107.833L278.605 101.527C277.885 101.407 277.404 100.747 277.524 100.026L279.326 88.1359C279.446 87.4153 280.107 86.9349 280.827 87.055L322.322 93.3603C323.043 93.4804 323.523 94.141 323.403 94.8616L321.602 106.752C321.482 107.472 320.821 107.953 320.1 107.833Z" fill="#EB5D62"/>
<path opacity="0.3" d="M281.488 90.7183L320.761 96.7233" stroke="white" stroke-width="2.0027" stroke-miterlimit="10" stroke-linecap="round"/>
<path d="M281.488 90.7183L296.38 93.0002" stroke="white" stroke-width="2.0022" stroke-miterlimit="10" stroke-linecap="round"/>
<path opacity="0.3" d="M280.947 94.7412L320.221 100.686" stroke="white" stroke-width="2.0027" stroke-miterlimit="10" stroke-linecap="round"/>
<path d="M280.947 94.7412L309.712 99.1249" stroke="white" stroke-width="2.0022" stroke-miterlimit="10" stroke-linecap="round"/>
<path opacity="0.3" d="M280.287 98.5845L319.56 104.59" stroke="white" stroke-width="2.0027" stroke-miterlimit="10" stroke-linecap="round"/>
<path d="M280.287 98.5845L314.636 103.809" stroke="white" stroke-width="2.0022" stroke-miterlimit="10" stroke-linecap="round"/>
<path d="M301.305 101.527C301.305 101.527 300.884 102.788 300.764 102.969C300.644 103.149 299.023 103.869 298.782 104.53C298.782 104.53 298.843 105.01 299.203 105.311C299.623 105.671 300.764 105.971 301.425 105.971C302.085 105.971 302.566 104.77 302.626 104.65C302.686 104.53 303.046 103.089 303.406 102.368" fill="#FE9393"/>
<path d="M299.683 103.689C299.683 103.689 298.903 104.169 298.662 104.65C298.422 105.01 298.362 105.13 298.542 105.25C298.722 105.37 299.143 105.19 299.443 104.95" fill="#FE9393"/>
<path d="M301.725 78.0474C301.785 80.8097 303.647 88.1959 303.647 88.1959L300.824 102.368C300.824 102.368 301.124 102.728 301.845 102.968C302.506 103.269 303.406 103.209 303.406 103.209C303.406 103.209 309.111 90.4779 309.111 87.7756C309.111 84.8331 308.751 76.9064 305.628 72.823C304.427 71.2616 301.665 70.6011 301.665 70.6011" fill="#435FEA"/>
<path d="M269.838 79.9087L267.916 79.4283C267.916 79.4283 267.556 79.1881 266.895 78.4675C266.235 77.7468 265.334 77.8069 265.094 77.8069C264.914 77.8069 264.854 78.0471 265.214 78.2873C265.454 78.4674 265.875 78.3473 265.995 78.8878C266.055 79.128 265.394 79.128 265.034 79.0079C264.674 78.8878 263.473 78.3473 263.172 78.1672C262.872 78.0471 262.632 78.2272 263.413 78.8278C264.133 79.3682 264.433 79.4883 264.674 79.6685C264.674 79.6685 264.854 80.0288 264.974 80.1489C265.034 80.2089 265.034 80.2089 265.094 80.269C265.154 80.3891 265.274 80.6293 265.334 80.7494L265.394 80.8094C265.454 80.9896 265.514 81.1097 265.574 81.2298C265.815 81.7102 266.775 81.5901 267.196 81.53C267.616 81.47 269.418 81.8903 269.418 81.8903L269.838 79.9087Z" fill="#FE9393"/>
<path d="M265.274 79.7289C265.274 79.7289 264.794 79.7289 264.073 79.4887C263.353 79.2485 262.452 78.7681 262.272 78.708C262.091 78.708 262.091 78.9482 262.272 79.1284C262.452 79.3085 263.052 79.6688 263.413 79.7889C263.833 79.9691 265.514 80.4495 265.514 80.4495" fill="#FE9393"/>
<path d="M265.514 80.2094C265.514 80.2094 265.034 80.2694 264.313 80.0893C263.593 79.9091 262.632 79.5488 262.452 79.5488C262.272 79.5488 262.272 79.789 262.512 79.9692C262.752 80.1493 263.352 80.3895 263.713 80.5096C264.133 80.6898 265.875 81.1101 265.875 81.1101" fill="#FE9393"/>
<path d="M266.115 80.9301C266.115 80.9301 265.634 80.9901 264.914 80.81C264.193 80.6298 263.232 80.2695 263.052 80.2695C262.872 80.2695 262.872 80.5097 263.112 80.6899C263.352 80.87 263.953 81.1102 264.313 81.2303C264.734 81.4105 266.475 81.6507 266.475 81.6507" fill="#FE9393"/>
<path d="M289.655 71.6816C289.655 71.6816 282.389 78.1071 280.227 80.8094C280.227 80.8094 281.128 82.791 282.749 83.6317C282.749 83.6317 287.673 81.2898 290.195 79.5483" fill="#435FEA"/>
<path d="M280.407 80.6298L269.177 79.6689L268.757 82.0109C268.757 82.0109 277.224 85.2537 280.407 85.2537C282.989 85.2537 289.354 80.2094 289.354 80.2094L280.407 80.6298Z" fill="#435FEA"/>
<path d="M298.842 70.0007C298.842 70.0007 296.561 71.6821 293.798 69.5803C293.798 69.5803 294.159 68.9198 294.219 68.7997C294.399 68.5595 294.699 67.959 294.879 67.1183C294.879 67.0582 294.879 66.9982 294.939 66.9381C294.999 66.6979 295.059 66.3977 295.059 66.1575C295.119 65.677 295.119 65.1366 294.999 64.5361L295.239 64.2959L299.623 60.8129L300.104 60.3926C300.104 60.3926 299.983 61.2333 299.743 62.4944C299.623 63.215 299.503 63.9956 299.383 64.8964C299.203 66.6379 298.903 68.6195 298.842 70.0007Z" fill="#FE9393"/>
<path d="M298.122 65.0165C297.461 65.9173 296.08 67.7789 294.219 68.7997C294.399 68.5595 294.699 67.959 294.879 67.1183C294.579 67.1784 294.339 67.2384 294.038 67.2985C294.038 67.1183 294.038 66.8781 294.038 66.6379L294.339 66.4578L294.999 66.1575L298.482 64.4761C298.482 64.4761 298.362 64.6562 298.122 65.0165Z" fill="#E15F60"/>
<path d="M291.156 57.8101C291.156 57.8101 290.375 59.9118 291.756 61.1129L292.417 57.9302L291.156 57.8101Z" fill="#3F49A5"/>
<path d="M298.843 64.1158C298.602 64.4161 298.362 64.7164 298.122 65.0166C297.702 65.497 297.221 65.9174 296.681 66.2777C296.02 66.7581 295.42 66.9983 294.819 67.1784C294.519 67.2385 294.279 67.2985 293.978 67.3586C292.777 67.4787 292.117 66.9983 292.117 66.9983C291.036 65.3769 291.036 62.7347 291.336 60.693C291.456 59.8522 291.576 59.1917 291.696 58.6512C291.817 58.2309 291.877 57.9306 291.877 57.9306V57.8706C292.357 55.2884 295.84 55.1683 298.182 56.6696C298.302 56.7296 298.482 56.8497 298.602 56.9698C299.263 57.4502 299.803 58.0507 300.164 58.7713C300.704 59.9723 300.404 61.4136 299.803 62.5545C299.743 62.6146 299.743 62.6746 299.683 62.7347C299.443 63.2151 299.143 63.6955 298.843 64.1158Z" fill="#FE9393"/>
<path d="M299.023 56.429C299.023 56.429 296.2 60.7526 291.456 58.4707C290.075 57.8101 289.775 53.1262 290.976 54.0269C293.438 55.9486 295.42 52.2855 297.822 53.5465C298.542 53.9669 299.323 54.9277 299.023 56.429Z" fill="#3F49A5"/>
<path d="M298.062 57.0292C298.062 57.0292 296.44 65.5564 298.182 61.6532C298.182 61.6532 298.602 60.5722 299.443 60.6323C300.284 60.6923 299.623 63.6949 299.503 64.8959C299.503 64.8959 301.305 63.5748 301.965 59.7315C302.626 55.8282 300.043 54.2669 298.602 55.9483L298.062 57.0292Z" fill="#3F49A5"/>
<path d="M299.203 61.2334C299.203 61.2334 298.782 61.2934 298.662 62.1342C298.542 62.9749 299.083 63.095 299.203 62.6746C299.323 62.2543 298.903 61.954 298.842 62.1342C298.842 62.1342 298.722 61.6538 299.203 61.2334Z" fill="#E15F60"/>
<path d="M101.059 111.485C101.059 111.485 99.6176 111.965 100.098 114.427C100.578 116.889 101.359 117.189 101.059 119.471C100.699 121.693 103.281 123.375 103.701 124.756C104.121 126.137 103.161 128.599 104.302 130.4C104.902 131.421 106.463 132.202 108.445 132.382C113.009 132.863 116.672 130.521 117.693 126.437C117.873 125.777 117.933 125.176 117.873 124.516C117.573 120.612 113.129 120.492 111.868 119.651C110.607 118.751 110.307 115.568 109.226 114.787C108.145 114.067 106.944 115.148 105.142 113.526C103.221 111.905 102.26 111.124 101.059 111.485Z" fill="#759BD5"/>
<path d="M101.239 112.566C101.239 112.566 114.81 128.539 116.612 141.03" stroke="white" stroke-width="0.8221" stroke-miterlimit="10" stroke-linecap="round"/>
<path d="M101.659 116.589C101.659 116.589 104.242 117.25 105.983 118.811" stroke="white" stroke-width="0.5481" stroke-miterlimit="10" stroke-linecap="round"/>
<path d="M108.265 115.448C108.265 115.448 107.124 118.751 107.544 121.033" stroke="white" stroke-width="0.5481" stroke-miterlimit="10" stroke-linecap="round"/>
<path d="M103.881 123.375C103.881 123.375 108.565 123.915 110.066 125.116" stroke="white" stroke-width="0.5481" stroke-miterlimit="10" stroke-linecap="round"/>
<path d="M113.79 122.354C113.79 122.354 111.808 126.317 111.868 128.119" stroke="white" stroke-width="0.5481" stroke-miterlimit="10" stroke-linecap="round"/>
<path d="M105.983 129.92C105.983 129.92 109.766 129.14 112.649 129.62" stroke="white" stroke-width="0.5481" stroke-miterlimit="10" stroke-linecap="round"/>
<path d="M108.685 119.472C108.685 119.472 108.265 121.153 108.325 122.174" stroke="white" stroke-width="0.5481" stroke-miterlimit="10" stroke-linecap="round"/>
<path d="M125.98 109.383C125.98 109.383 127.481 109.563 127.541 112.085C127.601 114.607 126.881 115.088 127.661 117.19C128.442 119.291 126.28 121.513 126.16 122.894C126.04 124.336 127.481 126.558 126.761 128.539C126.4 129.62 125.019 130.701 123.097 131.362C118.714 132.743 114.63 131.241 112.829 127.398C112.529 126.798 112.348 126.197 112.288 125.537C111.748 121.633 116.132 120.613 117.152 119.532C118.173 118.451 117.873 115.208 118.774 114.247C119.675 113.286 121.056 114.127 122.497 112.145C123.998 110.284 124.779 109.323 125.98 109.383Z" fill="#577EB5"/>
<path d="M126.04 110.524C126.04 110.524 116.011 128.96 116.852 141.51" stroke="white" stroke-width="0.8221" stroke-miterlimit="10" stroke-linecap="round"/>
<path d="M126.46 114.547C126.46 114.547 124.058 115.688 122.677 117.61" stroke="white" stroke-width="0.5481" stroke-miterlimit="10" stroke-linecap="round"/>
<path d="M119.795 114.728C119.795 114.728 121.596 117.73 121.656 120.072" stroke="white" stroke-width="0.5481" stroke-miterlimit="10" stroke-linecap="round"/>
<path d="M125.68 121.633C125.68 121.633 121.236 123.135 119.975 124.576" stroke="white" stroke-width="0.5481" stroke-miterlimit="10" stroke-linecap="round"/>
<path d="M115.831 122.654C115.831 122.654 118.594 126.137 118.894 127.879" stroke="white" stroke-width="0.5481" stroke-miterlimit="10" stroke-linecap="round"/>
<path d="M125.019 128.479C125.019 128.479 121.176 128.539 118.414 129.56" stroke="white" stroke-width="0.5481" stroke-miterlimit="10" stroke-linecap="round"/>
<path d="M120.215 118.811C120.215 118.811 120.936 120.372 121.116 121.393" stroke="white" stroke-width="0.5481" stroke-miterlimit="10" stroke-linecap="round"/>
<path d="M121.656 149.677H111.087L108.925 134.484H123.818L121.656 149.677Z" fill="white"/>
<path opacity="0.67" d="M108.925 134.484L109.166 136.166L123.398 137.607L123.818 134.484H108.925Z" fill="#8FCAF2"/>
<path d="M124.779 132.923H107.905V135.265H124.779V132.923Z" fill="white"/>
<path d="M409.075 16.8013H391V29.1117H409.075V16.8013Z" fill="white"/>
<path d="M391 29.1118C391.721 28.4512 392.441 27.7907 393.162 27.1301L395.384 25.2085C396.825 23.9474 398.326 22.6863 399.827 21.4253L400.008 21.2451L400.188 21.4253C401.689 22.6863 403.19 23.9474 404.632 25.2085L406.853 27.1301C407.574 27.7907 408.295 28.4512 409.015 29.1118C408.235 28.5713 407.454 27.9708 406.673 27.3703L404.331 25.5688C402.77 24.3678 401.269 23.1667 399.767 21.9057H400.188C398.686 23.1667 397.185 24.3678 395.624 25.5688L393.282 27.3703C392.561 27.9708 391.781 28.5713 391 29.1118Z" fill="#AACFE2"/>
<path d="M391 16.8013L400.008 24.2476L409.075 16.8013" fill="white"/>
<path d="M391 16.8013C391.781 17.3417 392.561 17.9422 393.342 18.5427L395.684 20.3443C397.245 21.5453 398.747 22.7463 400.248 24.0074H399.827C401.329 22.7463 402.83 21.5453 404.391 20.3443L406.733 18.5427C407.514 17.9422 408.295 17.3417 409.075 16.8013C408.355 17.4618 407.634 18.1224 406.913 18.7829L404.692 20.7046C403.25 21.9656 401.749 23.2267 400.248 24.4878L400.068 24.6679L399.888 24.4878C398.386 23.2267 396.885 21.9656 395.444 20.7046L393.222 18.7829C392.441 18.1224 391.721 17.5219 391 16.8013Z" fill="#AACFE2"/>
<path d="M405.352 18.7231C406.38 18.7231 407.214 17.8897 407.214 16.8616C407.214 15.8335 406.38 15 405.352 15C404.324 15 403.491 15.8335 403.491 16.8616C403.491 17.8897 404.324 18.7231 405.352 18.7231Z" fill="#EB5D62"/>
<path d="M404.331 16.7416L405.172 17.6424L406.433 16.2612" stroke="white" stroke-width="0.6674" stroke-miterlimit="10" stroke-linecap="round" stroke-linejoin="round"/>
<path d="M222 15.4414H224.882" stroke="white" stroke-miterlimit="10" stroke-linecap="round"/>
<path d="M223.441 14V16.8824" stroke="white" stroke-miterlimit="10" stroke-linecap="round"/>
<path d="M319.74 132.333H322.623" stroke="white" stroke-miterlimit="10" stroke-linecap="round"/>
<path d="M321.181 130.892V133.775" stroke="white" stroke-miterlimit="10" stroke-linecap="round"/>
<path d="M193.642 24.3211C193.642 25.0417 193.042 25.6422 192.321 25.6422C191.601 25.6422 191 25.0417 191 24.3211C191 23.6005 191.601 23 192.321 23C193.042 23 193.642 23.6005 193.642 24.3211Z" fill="white"/>
<path d="M372.225 36.7923C372.225 37.5129 371.624 38.1134 370.903 38.1134C370.183 38.1134 369.582 37.5129 369.582 36.7923C369.582 36.0717 370.183 35.4712 370.903 35.4712C371.624 35.4712 372.225 36.0717 372.225 36.7923Z" fill="white"/>
<path d="M376.848 90.7181C376.848 91.4387 376.248 92.0392 375.527 92.0392C374.807 92.0392 374.206 91.4387 374.206 90.7181C374.206 89.9975 374.807 89.397 375.527 89.397C376.248 89.397 376.848 89.9975 376.848 90.7181Z" fill="#3F49A5"/>
<path d="M260.41 132.333C260.41 133.054 259.809 133.654 259.089 133.654C258.368 133.654 257.768 133.054 257.768 132.333C257.768 131.613 258.368 131.012 259.089 131.012C259.809 131.012 260.41 131.613 260.41 132.333Z" fill="white"/>
<path d="M193.033 91.8592C193.033 92.5798 192.433 93.1803 191.712 93.1803C190.991 93.1803 190.391 92.5798 190.391 91.8592C190.391 91.1386 190.991 90.5381 191.712 90.5381C192.433 90.5381 193.033 91.1386 193.033 91.8592Z" fill="#3F49A5"/>
<path d="M422 28.4414H424.882" stroke="#3F49A5" stroke-miterlimit="10" stroke-linecap="round"/>
<path d="M423.441 27V29.8824" stroke="#3F49A5" stroke-miterlimit="10" stroke-linecap="round"/>
<path d="M369.462 19.498H372.345" stroke="white" stroke-miterlimit="10" stroke-linecap="round"/>
<path d="M370.903 18.0566V20.9391" stroke="white" stroke-miterlimit="10" stroke-linecap="round"/>
<path d="M374.026 125.667H376.968" stroke="#3F49A5" stroke-miterlimit="10" stroke-linecap="round"/>
<path d="M375.527 124.227V127.109" stroke="#3F49A5" stroke-miterlimit="10" stroke-linecap="round"/>
<path d="M173.817 123.266H176.699" stroke="white" stroke-miterlimit="10" stroke-linecap="round"/>
<path d="M175.258 121.824V124.707" stroke="white" stroke-miterlimit="10" stroke-linecap="round"/>
</svg>
