<svg width="285" height="50" viewBox="0 0 285 50" fill="none" xmlns="http://www.w3.org/2000/svg">
<path d="M73.8289 20.3088H68.4726C68.4452 20.0819 68.4313 19.9141 68.4313 19.8052C68.3033 18.4351 67.9473 17.5731 67.3578 17.2192C66.7682 16.8653 65.3739 16.6929 63.1806 16.6929C60.5938 16.6929 58.9028 16.8971 58.1076 17.3009C57.3124 17.7047 56.915 18.5576 56.915 19.8551C56.915 21.3931 57.2397 22.314 57.884 22.6226C58.5328 22.9311 60.6714 23.1715 64.3049 23.3393C68.5961 23.5435 71.3746 24.0607 72.6359 24.8954C73.8971 25.7302 74.528 27.4633 74.528 30.0946C74.528 33.3339 73.7876 35.4253 72.3067 36.3736C70.8264 37.3217 67.5584 37.7936 62.5044 37.7936C57.9572 37.7936 54.9408 37.3263 53.4555 36.3962C51.9657 35.4662 51.2208 33.5789 51.2208 30.7434L51.1979 29.8497H56.5311L56.554 30.3714C56.554 32.0863 56.9061 33.1343 57.6141 33.5199C58.3182 33.901 60.2467 34.0961 63.3952 34.0961C65.8495 34.0961 67.417 33.8738 68.0932 33.4337C68.7699 32.9937 69.108 31.9728 69.108 30.3804C69.108 29.2009 68.8521 28.416 68.3357 28.0304C67.8194 27.6448 66.7084 27.4088 65.004 27.3272L61.983 27.1638C57.418 26.937 54.4975 26.4017 53.227 25.5578C51.9566 24.714 51.3259 22.8947 51.3259 20.1092C51.3259 17.2601 52.0937 15.3637 53.6246 14.42C55.1556 13.4718 58.2132 13 62.8011 13C67.1471 13 70.0764 13.431 71.5847 14.3021C73.0974 15.1686 73.8513 16.8653 73.8513 19.3878L73.8289 20.3088Z" fill="white"/>
<path d="M89.8968 17.3689V37.5848H84.3946V17.3689H76.0542V13.2087H98.4932V17.3689H89.8968Z" fill="white"/>
<path d="M106.221 17.1148V23.3802H119.725V26.7827H106.221V33.6787H120.617V37.5848H100.714V13.2087H120.489V17.1148H106.221Z" fill="white"/>
<path d="M130.181 13.2087V33.4246H143.732V37.5848H124.679V13.2087H130.181Z" fill="white"/>
<path d="M151.989 13.2087V33.4246H165.54V37.5848H146.483V13.2087H151.989Z" fill="white"/>
<path d="M185.776 32.9211H173.304L171.504 37.5848H165.704L175.315 13.2087H183.55L193.312 37.5848H187.617L185.776 32.9211ZM184.505 29.5139L179.51 16.8018L174.602 29.5185H184.505V29.5139Z" fill="white"/>
<path d="M220.156 13.2087L211.478 25.018L220.727 37.5849H214.288L210.138 31.7279C209.504 30.8251 208.896 29.9087 208.315 28.9786L207.721 28.0123L207.108 27.0686H207.026L206.414 28.0304C205.678 29.1964 204.846 30.4258 203.914 31.7234L199.742 37.5804H193.138L202.621 25.0134L193.815 13.2042H200.359L204.211 18.6393C204.819 19.4967 205.391 20.3451 205.925 21.1753L206.455 22.0328L206.985 22.8902H207.068C207.31 22.5092 207.483 22.2233 207.598 22.0328L208.128 21.1935C208.58 20.454 209.147 19.6101 209.823 18.6574L213.676 13.2042H220.156V13.2087Z" fill="white"/>
<path d="M228.62 13.2087H223.118V37.5848H228.62V13.2087Z" fill="white"/>
<path d="M252.311 13.2087H257.813V29.4277C257.813 32.8167 257.041 35.0624 255.496 36.1558C253.951 37.2537 250.793 37.7981 246.023 37.7981C240.981 37.7981 237.682 37.2809 236.115 36.2465C234.547 35.2121 233.765 33.0299 233.765 29.6999V13.2087H239.268V29.6954C239.268 31.4965 239.647 32.6397 240.406 33.1207C241.164 33.6016 242.951 33.8466 245.767 33.8466C248.65 33.8466 250.46 33.6016 251.2 33.1116C251.941 32.6216 252.306 31.4239 252.306 29.5185V13.2087H252.311Z" fill="white"/>
<path d="M284.296 20.3088H278.94C278.913 20.0819 278.899 19.9141 278.899 19.8052C278.771 18.4351 278.415 17.5731 277.825 17.2192C277.236 16.8653 275.841 16.6929 273.648 16.6929C271.061 16.6929 269.371 16.8971 268.576 17.3009C267.78 17.7047 267.383 18.5576 267.383 19.8551C267.383 21.3931 267.707 22.314 268.356 22.6226C269.005 22.9311 271.144 23.1715 274.777 23.3393C279.068 23.5435 281.847 24.0607 283.108 24.8954C284.369 25.7302 285 27.4633 285 30.0946C285 33.3339 284.26 35.4253 282.779 36.3736C281.298 37.3217 278.031 37.7936 272.976 37.7936C268.434 37.7936 265.413 37.3263 263.928 36.3962C262.438 35.4662 261.693 33.5789 261.693 30.7434L261.67 29.8497H267.003L267.026 30.3714C267.026 32.0863 267.378 33.1343 268.087 33.5199C268.79 33.901 270.719 34.0961 273.868 34.0961C276.321 34.0961 277.889 33.8738 278.566 33.4337C279.242 32.9937 279.584 31.9728 279.584 30.3804C279.584 29.2009 279.324 28.416 278.812 28.0304C278.296 27.6448 277.185 27.4088 275.48 27.3272L272.46 27.1638C267.894 26.937 264.974 26.4017 263.704 25.5578C262.433 24.714 261.803 22.8947 261.803 20.1092C261.803 17.2601 262.57 15.3637 264.101 14.42C265.632 13.4718 268.69 13 273.278 13C277.624 13 280.553 13.431 282.062 14.3021C283.569 15.1686 284.328 16.8653 284.328 19.3878L284.296 20.3088Z" fill="white"/>
<path d="M20.9719 34.1031C33.1875 36.1809 38.8864 34.6928 41.537 32.9825C41.3542 32.7965 41.1668 32.5968 40.9749 32.3836C38.2694 34.0532 32.5614 35.4641 20.5423 33.418C10.2689 31.6668 4.61579 32.4426 1.49447 33.7492C1.41678 34.0758 1.34823 34.3979 1.28882 34.7201C4.25019 33.2502 9.96731 32.2248 20.9719 34.1031Z" fill="white"/>
<path d="M23.8373 1.28845C23.1883 1.67408 22.384 2.04156 21.3694 2.35006C21.3923 2.59959 21.406 2.86272 21.4197 3.144C22.7496 2.77199 23.755 2.3047 24.509 1.81926C24.2806 1.62417 24.0521 1.44724 23.8373 1.28845Z" fill="white"/>
<path d="M34.0421 19.3766C33.9506 19.1225 33.8638 18.8504 33.7724 18.5872C31.2452 20.284 25.7932 21.8129 14.0665 19.9482C13.8334 20.1161 13.6003 20.284 13.3582 20.4473C13.413 20.4564 13.4632 20.4654 13.5135 20.4745C25.6743 22.5433 31.3777 21.0779 34.0421 19.3766Z" fill="white"/>
<path d="M25.5602 2.79922C24.6735 3.45706 23.3666 4.11036 21.4517 4.56857C21.4471 4.82264 21.4425 5.08577 21.4288 5.35344C23.6864 4.868 25.158 4.12851 26.1085 3.38901C25.9212 3.18032 25.7384 2.9807 25.5602 2.79922Z" fill="white"/>
<path d="M32.534 15.0486C32.4335 14.7809 32.3329 14.5223 32.2324 14.2592C30.3587 15.8153 26.2823 17.4622 17.453 16.7363C17.293 16.9404 17.133 17.1401 16.9548 17.3397C26.2274 18.238 30.5369 16.6229 32.534 15.0486Z" fill="white"/>
<path d="M19.9024 32.1522C31.524 34.1303 37.2456 32.8827 40.0562 31.2812C39.8962 31.0725 39.7363 30.8547 39.5717 30.6279C36.7383 32.2112 31.0121 33.4316 19.4728 31.4672C10.9863 30.0245 5.65311 30.3058 2.28956 31.1814C2.17074 31.4808 2.06106 31.7848 1.96509 32.0842C5.26464 31.0453 10.7532 30.5961 19.9024 32.1522Z" fill="white"/>
<path d="M33.3063 17.2125C33.2149 16.9448 33.1235 16.6727 33.0367 16.4141C30.8613 18.0473 26.1359 19.6578 15.9174 18.4102C15.7209 18.5962 15.5244 18.7868 15.3187 18.9637C25.9988 20.4155 30.9847 18.8594 33.3063 17.2125Z" fill="white"/>
<path d="M18.8422 30.206C30.1667 32.1342 35.8883 30.9954 38.7766 29.4574C38.6349 29.2352 38.4932 29.0083 38.347 28.7724C35.4587 30.3104 29.7371 31.4491 18.4126 29.521C11.5804 28.3595 6.79102 28.3187 3.42748 28.7996C3.26753 29.0718 3.12129 29.3485 2.98419 29.6253C6.37514 28.9992 11.393 28.9403 18.8422 30.206Z" fill="white"/>
<path d="M21.0496 0C21.0496 0 21.1272 0.340259 21.2141 0.930044C21.6574 0.775795 22.0595 0.607928 22.4252 0.435532C21.5614 0.0272208 21.0496 0 21.0496 0Z" fill="white"/>
<path d="M26.9906 4.45511C25.9578 5.33524 24.2257 6.25624 21.3284 6.76435C21.3009 7.0184 21.2735 7.27701 21.2369 7.54012C24.5091 7.04107 26.3919 6.03846 27.4704 5.09026C27.3105 4.87249 27.1506 4.65926 26.9906 4.45511Z" fill="white"/>
<path d="M17.7729 28.2597C28.9968 30.1697 34.7185 29.0673 37.6296 27.5474C37.5016 27.3206 37.3737 27.0847 37.2457 26.8442C34.3438 28.3731 28.6267 29.4983 17.3433 27.5792C12.0969 26.6809 8.05242 26.4495 4.93569 26.6083C4.73461 26.8578 4.54267 27.1073 4.36444 27.3614C7.59999 27.0892 11.9461 27.2707 17.7729 28.2597Z" fill="white"/>
<path d="M23.1014 37.9911C38.5344 40.6179 43.5706 37.551 45.1929 35.5412C44.9782 35.4641 44.7268 35.3552 44.448 35.2146C42.524 37.2017 37.2137 39.7877 22.6719 37.3106C8.11177 34.8335 2.80601 37.424 0.891174 39.4157C0.89574 39.8149 0.909453 40.196 0.932304 40.5498C2.46783 38.5401 7.40799 35.3235 23.1014 37.9911Z" fill="white"/>
<path d="M30.4134 10.0853C28.9967 11.4327 25.9988 12.9525 19.7104 13.0115C19.6099 13.2384 19.5048 13.4698 19.3906 13.6966C26.0856 13.7556 29.2709 12.213 30.7699 10.8339C30.6556 10.5753 30.5322 10.3303 30.4134 10.0853Z" fill="white"/>
<path d="M29.3761 8.11179C28.1148 9.32762 25.5693 10.6977 20.4737 11.0062C20.396 11.2467 20.3137 11.4826 20.2269 11.7231C25.7246 11.5053 28.4392 10.0898 29.7691 8.83312C29.6411 8.57906 29.5086 8.34317 29.3761 8.11179Z" fill="white"/>
<path d="M34.8327 21.4953C34.7367 21.2458 34.6361 20.9918 34.5402 20.7286C31.8119 22.3936 26.0948 23.7728 14.1488 21.7403C13.3307 21.5997 12.5492 21.4817 11.7906 21.3728C11.585 21.4817 11.3839 21.5997 11.1691 21.7041C11.0594 21.7585 10.9589 21.8174 10.8538 21.8719C12.0237 22.0171 13.2622 22.1986 14.5783 22.4254C26.3324 24.4215 32.0541 23.1195 34.8327 21.4953Z" fill="white"/>
<path d="M31.3641 12.1359C29.7463 13.5922 26.2411 15.2118 18.7143 14.9215C18.5817 15.1392 18.4537 15.3525 18.3121 15.5657C26.2548 16.0012 29.9702 14.3952 31.6885 12.9117C31.5788 12.6531 31.4737 12.39 31.3641 12.1359Z" fill="white"/>
<path d="M35.6781 23.5641C35.5731 23.3191 35.468 23.0651 35.3628 22.8156C32.5477 24.4125 26.8214 25.6601 15.2136 23.6866C12.956 23.301 10.9315 23.0469 9.09892 22.8836C8.80644 23.0742 8.52769 23.2692 8.25348 23.4643C10.406 23.6049 12.8509 23.8953 15.6386 24.3717C27.1002 26.3179 32.8219 25.1293 35.6781 23.5641Z" fill="white"/>
<path d="M16.7079 26.3135C27.9868 28.237 33.7084 27.1119 36.6104 25.583C36.4916 25.3471 36.3773 25.1066 36.2585 24.8571C33.384 26.4087 27.6623 27.5701 16.2784 25.6329C12.5401 24.9977 9.41881 24.6984 6.80017 24.6349C6.55339 24.8571 6.31572 25.0794 6.08722 25.3063C8.9252 25.2972 12.4076 25.583 16.7079 26.3135Z" fill="white"/>
<path d="M28.2473 6.22906C27.1093 7.29518 24.9751 8.46117 21.0038 8.9194C20.9535 9.16434 20.8987 9.4139 20.8393 9.6634C25.1945 9.25512 27.4841 8.02562 28.6768 6.90956C28.5352 6.67368 28.3889 6.45134 28.2473 6.22906Z" fill="white"/>
<path d="M22.0321 36.0494C35.34 38.3178 40.9109 36.3443 43.237 34.4706C43.0314 34.3209 42.812 34.1484 42.5881 33.9579C40.134 35.7772 34.5037 37.5602 21.6025 35.3643C9.36862 33.2819 3.66981 34.7791 1.02377 36.4894C0.982639 36.8524 0.950652 37.2017 0.932373 37.542C3.31792 35.6955 8.92536 33.8173 22.0321 36.0494Z" fill="white"/>
<path d="M0 9.92201C0 9.92201 4.47862 4.6321 22.1646 9.55907C39.8505 14.486 44.3292 9.20068 44.3292 9.20068C44.3292 9.20068 49.9366 14.1095 33.4571 29.6026C16.973 45.0912 22.5804 50 22.5804 50C22.5804 50 8.26718 44.4878 11.2925 29.961C14.3178 15.4342 0 9.92201 0 9.92201Z" fill="white"/>
<path d="M1.08765 10.4256C1.08765 10.4256 5.33776 5.32165 22.1234 10.0807C38.9091 14.8444 43.1592 9.7405 43.1592 9.7405C43.1592 9.7405 48.4787 14.4814 32.8447 29.4302C17.2061 44.3789 22.5256 49.1153 22.5256 49.1153C22.5256 49.1153 8.93895 43.7937 11.8089 29.7705C14.6743 15.7472 1.08765 10.4256 1.08765 10.4256Z" fill="url(#paint0_linear)"/>
<defs>
<linearGradient id="paint0_linear" x1="1.08765" y1="8.05145" x2="1.90504" y2="49.9374" gradientUnits="userSpaceOnUse">
<stop stop-color="#F41E3D"/>
<stop offset="1" stop-color="#D5122E"/>
</linearGradient>
</defs>
</svg>
