<svg width="670" height="522" viewBox="0 0 670 522" fill="none" xmlns="http://www.w3.org/2000/svg">
<path d="M234.097 121.229H130.437V399.441H234.097V121.229Z" fill="#DAF1FF"/>
<path d="M580.959 91.4623H477.299V399.607H580.959V91.4623Z" fill="#DAF1FF"/>
<path d="M401.381 0H312.506V399.607H401.381V0Z" fill="#DAF1FF"/>
<path d="M657.873 175.94H568.998V399.441H657.873V175.94Z" fill="#DAF1FF"/>
<path d="M133.76 58.5359H26.6111V399.607H133.76V58.5359Z" fill="#DAF1FF"/>
<path d="M497.898 155.652H390.75V399.607H497.898V155.652Z" fill="#DAF1FF"/>
<path d="M317.822 50.2211H229.612V399.607H317.822V50.2211Z" fill="#DAF1FF"/>
<path d="M96.0499 511.524C96.0499 515.681 76.2815 519.007 51.6955 519.007C27.2756 519.007 7.34098 515.681 7.34098 511.524C7.34098 507.366 27.1095 504.04 51.6955 504.04C76.1153 504.04 96.0499 507.366 96.0499 511.524Z" fill="#636363" fill-opacity="0.09"/>
<path d="M661.362 513.02C661.362 517.177 641.593 520.503 617.007 520.503C592.587 520.503 572.653 517.177 572.653 513.02C572.653 508.863 592.421 505.537 617.007 505.537C641.593 505.537 661.362 508.863 661.362 513.02Z" fill="#636363" fill-opacity="0.09"/>
<path d="M585.776 513.685C585.776 517.843 566.008 521.169 541.422 521.169C516.836 521.169 497.067 517.843 497.067 513.685C497.067 509.528 516.836 506.202 541.422 506.202C566.008 506.202 585.776 509.694 585.776 513.685Z" fill="#636363" fill-opacity="0.09"/>
<path d="M519.826 510.027C519.826 514.184 500.058 517.51 475.472 517.51C451.052 517.51 431.117 514.184 431.117 510.027C431.117 505.869 450.886 502.544 475.472 502.544C500.058 502.544 519.826 505.869 519.826 510.027Z" fill="#636363" fill-opacity="0.09"/>
<path d="M445.736 511.524C445.736 515.681 425.967 519.007 401.381 519.007C376.961 519.007 357.027 515.681 357.027 511.524C357.027 507.366 376.795 504.04 401.381 504.04C425.801 504.04 445.736 507.366 445.736 511.524Z" fill="#636363" fill-opacity="0.09"/>
<path d="M358.854 512.189C358.854 516.346 339.086 519.672 314.5 519.672C290.08 519.672 270.145 516.346 270.145 512.189C270.145 508.031 289.914 504.705 314.5 504.705C338.92 504.705 358.854 508.198 358.854 512.189Z" fill="#636363" fill-opacity="0.09"/>
<path d="M302.705 511.524C302.705 515.681 282.937 519.007 258.351 519.007C233.931 519.007 213.996 515.681 213.996 511.524C213.996 507.366 233.765 504.04 258.351 504.04C282.771 504.04 302.705 507.366 302.705 511.524Z" fill="#636363" fill-opacity="0.09"/>
<path d="M229.944 510.692C229.944 514.849 210.175 518.175 185.589 518.175C161.17 518.175 141.235 514.849 141.235 510.692C141.235 506.535 161.003 503.209 185.589 503.209C210.175 503.209 229.944 506.535 229.944 510.692Z" fill="#636363" fill-opacity="0.09"/>
<path d="M152.863 514.517C152.863 518.674 133.095 522 108.509 522C84.0891 522 64.1546 518.674 64.1546 514.517C64.1546 510.359 83.923 507.034 108.509 507.034C133.095 507.034 152.863 510.359 152.863 514.517Z" fill="#636363" fill-opacity="0.09"/>
<path d="M57.1775 81.9835H43.8877V95.2871H57.1775V81.9835Z" fill="#EFF8FF"/>
<path d="M77.2782 81.9835H63.9884V95.2871H77.2782V81.9835Z" fill="#EFF8FF"/>
<path d="M97.2128 81.9835H83.923V95.2871H97.2128V81.9835Z" fill="#EFF8FF"/>
<path d="M117.147 81.9835H103.858V95.2871H117.147V81.9835Z" fill="#EFF8FF"/>
<path d="M150.372 140.686H141.235V163.634H150.372V140.686Z" fill="#EFF8FF"/>
<path d="M171.967 140.686H162.831V163.634H171.967V140.686Z" fill="#EFF8FF"/>
<path d="M193.563 140.686H184.427V163.634H193.563V140.686Z" fill="#EFF8FF"/>
<path d="M215.159 140.686H206.022V163.634H215.159V140.686Z" fill="#EFF8FF"/>
<path d="M416.997 167.792H408.857V193.9H416.997V167.792Z" fill="#EFF8FF"/>
<path d="M436.433 167.792H428.293V193.9H436.433V167.792Z" fill="#EFF8FF"/>
<path d="M455.869 167.792H447.729V193.9H455.869V167.792Z" fill="#EFF8FF"/>
<path d="M475.139 167.792H466.999V193.9H475.139V167.792Z" fill="#EFF8FF"/>
<path d="M591.092 188.08H582.952V200.884H591.092V188.08Z" fill="#EFF8FF"/>
<path d="M610.528 188.08H602.388V200.884H610.528V188.08Z" fill="#EFF8FF"/>
<path d="M629.799 188.08H621.659V200.884H629.799V188.08Z" fill="#EFF8FF"/>
<path d="M649.235 188.08H641.095V200.884H649.235V188.08Z" fill="#EFF8FF"/>
<path d="M591.092 212.359H582.952V225.163H591.092V212.359Z" fill="#EFF8FF"/>
<path d="M610.528 212.359H602.388V225.163H610.528V212.359Z" fill="#EFF8FF"/>
<path d="M629.799 212.359H621.659V225.163H629.799V212.359Z" fill="#EFF8FF"/>
<path d="M649.235 212.359H641.095V225.163H649.235V212.359Z" fill="#EFF8FF"/>
<path d="M591.092 236.638H582.952V249.443H591.092V236.638Z" fill="#EFF8FF"/>
<path d="M610.528 236.638H602.388V249.443H610.528V236.638Z" fill="#EFF8FF"/>
<path d="M629.799 236.638H621.659V249.443H629.799V236.638Z" fill="#EFF8FF"/>
<path d="M649.235 236.638H641.095V249.443H649.235V236.638Z" fill="#EFF8FF"/>
<path d="M591.092 260.917H582.952V273.721H591.092V260.917Z" fill="#EFF8FF"/>
<path d="M610.528 260.917H602.388V273.721H610.528V260.917Z" fill="#EFF8FF"/>
<path d="M629.799 260.917H621.659V273.721H629.799V260.917Z" fill="#EFF8FF"/>
<path d="M649.235 260.917H641.095V273.721H649.235V260.917Z" fill="#EFF8FF"/>
<path d="M591.092 285.196H582.952V298.001H591.092V285.196Z" fill="#EFF8FF"/>
<path d="M610.528 285.196H602.388V298.001H610.528V285.196Z" fill="#EFF8FF"/>
<path d="M629.799 285.196H621.659V298.001H629.799V285.196Z" fill="#EFF8FF"/>
<path d="M649.235 285.196H641.095V298.001H649.235V285.196Z" fill="#EFF8FF"/>
<path d="M591.092 309.475H582.952V322.28H591.092V309.475Z" fill="#B4DBF7"/>
<path d="M610.528 309.475H602.388V322.28H610.528V309.475Z" fill="#B4DBF7"/>
<path d="M629.799 309.475H621.659V322.28H629.799V309.475Z" fill="#B4DBF7"/>
<path d="M649.235 309.475H641.095V322.28H649.235V309.475Z" fill="#B4DBF7"/>
<path d="M591.092 333.754H582.952V346.559H591.092V333.754Z" fill="#EFF8FF"/>
<path d="M610.528 333.754H602.388V346.559H610.528V333.754Z" fill="#EFF8FF"/>
<path d="M629.799 333.754H621.659V346.559H629.799V333.754Z" fill="#EFF8FF"/>
<path d="M649.235 333.754H641.095V346.559H649.235V333.754Z" fill="#EFF8FF"/>
<path d="M591.092 357.867H582.952V370.672H591.092V357.867Z" fill="#EFF8FF"/>
<path d="M610.528 357.867H602.388V370.672H610.528V357.867Z" fill="#EFF8FF"/>
<path d="M629.799 357.867H621.659V370.672H629.799V357.867Z" fill="#EFF8FF"/>
<path d="M649.235 357.867H641.095V370.672H649.235V357.867Z" fill="#EFF8FF"/>
<path d="M416.997 203.545H408.857V229.653H416.997V203.545Z" fill="#EFF8FF"/>
<path d="M436.433 203.545H428.293V229.653H436.433V203.545Z" fill="#EFF8FF"/>
<path d="M455.869 203.545H447.729V229.653H455.869V203.545Z" fill="#EFF8FF"/>
<path d="M475.139 203.545H466.999V229.653H475.139V203.545Z" fill="#EFF8FF"/>
<path d="M416.997 239.465H408.857V265.573H416.997V239.465Z" fill="#EFF8FF"/>
<path d="M436.433 239.465H428.293V265.573H436.433V239.465Z" fill="#EFF8FF"/>
<path d="M455.869 239.465H447.729V265.573H455.869V239.465Z" fill="#EFF8FF"/>
<path d="M475.139 239.465H466.999V265.573H475.139V239.465Z" fill="#EFF8FF"/>
<path d="M416.997 275.218H408.857V301.326H416.997V275.218Z" fill="#EFF8FF"/>
<path d="M436.433 275.218H428.293V301.326H436.433V275.218Z" fill="#EFF8FF"/>
<path d="M455.869 275.218H447.729V301.326H455.869V275.218Z" fill="#EFF8FF"/>
<path d="M475.139 275.218H466.999V301.326H475.139V275.218Z" fill="#EFF8FF"/>
<path d="M416.997 311.138H408.857V337.246H416.997V311.138Z" fill="#EFF8FF"/>
<path d="M436.433 311.138H428.293V337.246H436.433V311.138Z" fill="#EFF8FF"/>
<path d="M455.869 311.138H447.729V337.246H455.869V311.138Z" fill="#EFF8FF"/>
<path d="M475.139 311.138H466.999V337.246H475.139V311.138Z" fill="#EFF8FF"/>
<path d="M416.997 346.891H408.857V373H416.997V346.891Z" fill="#EFF8FF"/>
<path d="M436.433 346.891H428.293V373H436.433V346.891Z" fill="#EFF8FF"/>
<path d="M455.869 346.891H447.729V373H455.869V346.891Z" fill="#EFF8FF"/>
<path d="M475.139 346.891H466.999V373H475.139V346.891Z" fill="#EFF8FF"/>
<path d="M150.372 181.428H141.235V204.377H150.372V181.428Z" fill="#EFF8FF"/>
<path d="M171.967 181.428H162.831V204.377H171.967V181.428Z" fill="#EFF8FF"/>
<path d="M193.563 181.428H184.427V204.377H193.563V181.428Z" fill="#EFF8FF"/>
<path d="M215.159 181.428H206.022V204.377H215.159V181.428Z" fill="#EFF8FF"/>
<path d="M150.372 222.004H141.235V244.953H150.372V222.004Z" fill="#EFF8FF"/>
<path d="M171.967 222.004H162.831V244.953H171.967V222.004Z" fill="#EFF8FF"/>
<path d="M193.563 222.004H184.427V244.953H193.563V222.004Z" fill="#EFF8FF"/>
<path d="M215.159 222.004H206.022V244.953H215.159V222.004Z" fill="#EFF8FF"/>
<path d="M150.372 262.746H141.235V285.695H150.372V262.746Z" fill="#EFF8FF"/>
<path d="M171.967 262.746H162.831V285.695H171.967V262.746Z" fill="#EFF8FF"/>
<path d="M193.563 262.746H184.427V285.695H193.563V262.746Z" fill="#EFF8FF"/>
<path d="M215.159 262.746H206.022V285.695H215.159V262.746Z" fill="#EFF8FF"/>
<path d="M150.372 303.322H141.235V326.271H150.372V303.322Z" fill="#EFF8FF"/>
<path d="M171.967 303.322H162.831V326.271H171.967V303.322Z" fill="#EFF8FF"/>
<path d="M193.563 303.322H184.427V326.271H193.563V303.322Z" fill="#EFF8FF"/>
<path d="M215.159 303.322H206.022V326.271H215.159V303.322Z" fill="#EFF8FF"/>
<path d="M150.372 344.064H141.235V367.013H150.372V344.064Z" fill="#EFF8FF"/>
<path d="M171.967 344.064H162.831V367.013H171.967V344.064Z" fill="#EFF8FF"/>
<path d="M193.563 344.064H184.427V367.013H193.563V344.064Z" fill="#EFF8FF"/>
<path d="M215.159 344.064H206.022V367.013H215.159V344.064Z" fill="#EFF8FF"/>
<path d="M57.1775 107.925H43.8877V121.229H57.1775V107.925Z" fill="#EFF8FF"/>
<path d="M77.2782 107.925H63.9884V121.229H77.2782V107.925Z" fill="#EFF8FF"/>
<path d="M97.2128 107.925H83.923V121.229H97.2128V107.925Z" fill="#EFF8FF"/>
<path d="M117.147 107.925H103.858V121.229H117.147V107.925Z" fill="#EFF8FF"/>
<path d="M57.1775 134.034H43.8877V147.337H57.1775V134.034Z" fill="#EFF8FF"/>
<path d="M77.2782 134.034H63.9884V147.337H77.2782V134.034Z" fill="#EFF8FF"/>
<path d="M97.2128 134.034H83.923V147.337H97.2128V134.034Z" fill="#EFF8FF"/>
<path d="M117.147 134.034H103.858V147.337H117.147V134.034Z" fill="#EFF8FF"/>
<path d="M57.1775 160.142H43.8877V173.446H57.1775V160.142Z" fill="#EFF8FF"/>
<path d="M77.2782 160.142H63.9884V173.446H77.2782V160.142Z" fill="#EFF8FF"/>
<path d="M97.2128 160.142H83.923V173.446H97.2128V160.142Z" fill="#EFF8FF"/>
<path d="M117.147 160.142H103.858V173.446H117.147V160.142Z" fill="#EFF8FF"/>
<path d="M506.702 103.768H493.413V117.072H506.702V103.768Z" fill="#EFF8FF"/>
<path d="M526.637 103.768H513.347V117.072H526.637V103.768Z" fill="#EFF8FF"/>
<path d="M546.738 103.768H533.448V117.072H546.738V103.768Z" fill="#EFF8FF"/>
<path d="M566.672 103.768H553.383V117.072H566.672V103.768Z" fill="#EFF8FF"/>
<path d="M506.702 127.049H493.413V140.353H506.702V127.049Z" fill="#EFF8FF"/>
<path d="M526.637 127.049H513.347V140.353H526.637V127.049Z" fill="#EFF8FF"/>
<path d="M546.738 127.049H533.448V140.353H546.738V127.049Z" fill="#EFF8FF"/>
<path d="M566.672 127.049H553.383V140.353H566.672V127.049Z" fill="#EFF8FF"/>
<path d="M506.702 150.164H493.413V163.468H506.702V150.164Z" fill="#EFF8FF"/>
<path d="M526.637 150.164H513.347V163.468H526.637V150.164Z" fill="#EFF8FF"/>
<path d="M546.738 150.164H533.448V163.468H546.738V150.164Z" fill="#EFF8FF"/>
<path d="M566.672 150.164H553.383V163.468H566.672V150.164Z" fill="#EFF8FF"/>
<path d="M506.702 173.279H493.413V186.583H506.702V173.279Z" fill="#EFF8FF"/>
<path d="M526.637 173.279H513.347V186.583H526.637V173.279Z" fill="#EFF8FF"/>
<path d="M546.738 173.279H533.448V186.583H546.738V173.279Z" fill="#EFF8FF"/>
<path d="M566.672 173.279H553.383V186.583H566.672V173.279Z" fill="#EFF8FF"/>
<path d="M506.702 196.394H493.413V209.698H506.702V196.394Z" fill="#EFF8FF"/>
<path d="M526.637 196.394H513.347V209.698H526.637V196.394Z" fill="#EFF8FF"/>
<path d="M546.738 196.394H533.448V209.698H546.738V196.394Z" fill="#EFF8FF"/>
<path d="M566.672 196.394H553.383V209.698H566.672V196.394Z" fill="#EFF8FF"/>
<path d="M506.702 219.676H493.413V232.979H506.702V219.676Z" fill="#EFF8FF"/>
<path d="M526.637 219.676H513.347V232.979H526.637V219.676Z" fill="#EFF8FF"/>
<path d="M546.738 219.676H533.448V232.979H546.738V219.676Z" fill="#EFF8FF"/>
<path d="M566.672 219.676H553.383V232.979H566.672V219.676Z" fill="#EFF8FF"/>
<path d="M506.702 242.791H493.413V256.094H506.702V242.791Z" fill="#EFF8FF"/>
<path d="M526.637 242.791H513.347V256.094H526.637V242.791Z" fill="#EFF8FF"/>
<path d="M546.738 242.791H533.448V256.094H546.738V242.791Z" fill="#EFF8FF"/>
<path d="M566.672 242.791H553.383V256.094H566.672V242.791Z" fill="#EFF8FF"/>
<path d="M506.702 265.906H493.413V279.209H506.702V265.906Z" fill="#EFF8FF"/>
<path d="M526.637 265.906H513.347V279.209H526.637V265.906Z" fill="#EFF8FF"/>
<path d="M546.738 265.906H533.448V279.209H546.738V265.906Z" fill="#EFF8FF"/>
<path d="M566.672 265.906H553.383V279.209H566.672V265.906Z" fill="#EFF8FF"/>
<path d="M506.702 289.021H493.413V302.324H506.702V289.021Z" fill="#EFF8FF"/>
<path d="M526.637 289.021H513.347V302.324H526.637V289.021Z" fill="#EFF8FF"/>
<path d="M546.738 289.021H533.448V302.324H546.738V289.021Z" fill="#EFF8FF"/>
<path d="M566.672 289.021H553.383V302.324H566.672V289.021Z" fill="#EFF8FF"/>
<path d="M506.702 312.302H493.413V325.606H506.702V312.302Z" fill="#EFF8FF"/>
<path d="M526.637 312.302H513.347V325.606H526.637V312.302Z" fill="#EFF8FF"/>
<path d="M546.738 312.302H533.448V325.606H546.738V312.302Z" fill="#EFF8FF"/>
<path d="M566.672 312.302H553.383V325.606H566.672V312.302Z" fill="#EFF8FF"/>
<path d="M506.702 335.417H493.413V348.72H506.702V335.417Z" fill="#EFF8FF"/>
<path d="M526.637 335.417H513.347V348.72H526.637V335.417Z" fill="#EFF8FF"/>
<path d="M546.738 335.417H533.448V348.72H546.738V335.417Z" fill="#EFF8FF"/>
<path d="M566.672 335.417H553.383V348.72H566.672V335.417Z" fill="#EFF8FF"/>
<path d="M506.702 358.532H493.413V371.836H506.702V358.532Z" fill="#EFF8FF"/>
<path d="M526.637 358.532H513.347V371.836H526.637V358.532Z" fill="#EFF8FF"/>
<path d="M546.738 358.532H533.448V371.836H546.738V358.532Z" fill="#EFF8FF"/>
<path d="M566.672 358.532H553.383V371.836H566.672V358.532Z" fill="#EFF8FF"/>
<path d="M57.1775 186.084H43.8877V199.388H57.1775V186.084Z" fill="#EFF8FF"/>
<path d="M77.2782 186.084H63.9884V199.388H77.2782V186.084Z" fill="#EFF8FF"/>
<path d="M97.2128 186.084H83.923V199.388H97.2128V186.084Z" fill="#EFF8FF"/>
<path d="M117.147 186.084H103.858V199.388H117.147V186.084Z" fill="#EFF8FF"/>
<path d="M57.1775 212.192H43.8877V225.496H57.1775V212.192Z" fill="#EFF8FF"/>
<path d="M77.2782 212.192H63.9884V225.496H77.2782V212.192Z" fill="#EFF8FF"/>
<path d="M97.2128 212.192H83.923V225.496H97.2128V212.192Z" fill="#EFF8FF"/>
<path d="M117.147 212.192H103.858V225.496H117.147V212.192Z" fill="#EFF8FF"/>
<path d="M57.1775 238.301H43.8877V251.604H57.1775V238.301Z" fill="#B4DBF7"/>
<path d="M77.2782 238.301H63.9884V251.604H77.2782V238.301Z" fill="#B4DBF7"/>
<path d="M97.2128 238.301H83.923V251.604H97.2128V238.301Z" fill="#B4DBF7"/>
<path d="M117.147 238.301H103.858V251.604H117.147V238.301Z" fill="#B4DBF7"/>
<path d="M57.1775 264.243H43.8877V277.546H57.1775V264.243Z" fill="#EFF8FF"/>
<path d="M77.2782 264.243H63.9884V277.546H77.2782V264.243Z" fill="#EFF8FF"/>
<path d="M97.2128 264.243H83.923V277.546H97.2128V264.243Z" fill="#EFF8FF"/>
<path d="M117.147 264.243H103.858V277.546H117.147V264.243Z" fill="#EFF8FF"/>
<path d="M57.1775 290.351H43.8877V303.655H57.1775V290.351Z" fill="#EFF8FF"/>
<path d="M77.2782 290.351H63.9884V303.655H77.2782V290.351Z" fill="#EFF8FF"/>
<path d="M97.2128 290.351H83.923V303.655H97.2128V290.351Z" fill="#EFF8FF"/>
<path d="M117.147 290.351H103.858V303.655H117.147V290.351Z" fill="#EFF8FF"/>
<path d="M57.1775 316.459H43.8877V329.763H57.1775V316.459Z" fill="#EFF8FF"/>
<path d="M77.2782 316.459H63.9884V329.763H77.2782V316.459Z" fill="#EFF8FF"/>
<path d="M97.2128 316.459H83.923V329.763H97.2128V316.459Z" fill="#EFF8FF"/>
<path d="M117.147 316.459H103.858V329.763H117.147V316.459Z" fill="#EFF8FF"/>
<path d="M57.1775 342.568H43.8877V355.871H57.1775V342.568Z" fill="#EFF8FF"/>
<path d="M77.2782 342.568H63.9884V355.871H77.2782V342.568Z" fill="#EFF8FF"/>
<path d="M97.2128 342.568H83.923V355.871H97.2128V342.568Z" fill="#EFF8FF"/>
<path d="M117.147 342.568H103.858V355.871H117.147V342.568Z" fill="#EFF8FF"/>
<path d="M247.054 71.0079H238.748V79.3227H247.054V71.0079Z" fill="#EFF8FF"/>
<path d="M259.347 71.0079H251.041V79.3227H259.347V71.0079Z" fill="#EFF8FF"/>
<path d="M271.807 71.0079H263.5V79.3227H271.807V71.0079Z" fill="#EFF8FF"/>
<path d="M284.1 71.0079H275.793V79.3227H284.1V71.0079Z" fill="#EFF8FF"/>
<path d="M296.06 71.0079H287.754V79.3227H296.06V71.0079Z" fill="#EFF8FF"/>
<path d="M307.855 71.0079H299.549V79.3227H307.855V71.0079Z" fill="#EFF8FF"/>
<path d="M247.054 90.2982H238.748V98.613H247.054V90.2982Z" fill="#EFF8FF"/>
<path d="M259.347 90.2982H251.041V98.613H259.347V90.2982Z" fill="#EFF8FF"/>
<path d="M271.807 90.2982H263.5V98.613H271.807V90.2982Z" fill="#EFF8FF"/>
<path d="M284.1 90.2982H275.793V98.613H284.1V90.2982Z" fill="#EFF8FF"/>
<path d="M296.06 90.2982H287.754V98.613H296.06V90.2982Z" fill="#EFF8FF"/>
<path d="M307.855 90.2982H299.549V98.613H307.855V90.2982Z" fill="#EFF8FF"/>
<path d="M247.054 109.755H238.748V118.069H247.054V109.755Z" fill="#EFF8FF"/>
<path d="M259.347 109.755H251.041V118.069H259.347V109.755Z" fill="#EFF8FF"/>
<path d="M271.807 109.755H263.5V118.069H271.807V109.755Z" fill="#EFF8FF"/>
<path d="M284.1 109.755H275.793V118.069H284.1V109.755Z" fill="#EFF8FF"/>
<path d="M296.06 109.755H287.754V118.069H296.06V109.755Z" fill="#EFF8FF"/>
<path d="M307.855 109.755H299.549V118.069H307.855V109.755Z" fill="#EFF8FF"/>
<path d="M247.054 129.211H238.748V137.526H247.054V129.211Z" fill="#EFF8FF"/>
<path d="M259.347 129.211H251.041V137.526H259.347V129.211Z" fill="#EFF8FF"/>
<path d="M271.807 129.211H263.5V137.526H271.807V129.211Z" fill="#EFF8FF"/>
<path d="M284.1 129.211H275.793V137.526H284.1V129.211Z" fill="#EFF8FF"/>
<path d="M296.06 129.211H287.754V137.526H296.06V129.211Z" fill="#EFF8FF"/>
<path d="M307.855 129.211H299.549V137.526H307.855V129.211Z" fill="#EFF8FF"/>
<path d="M247.054 148.668H238.748V156.982H247.054V148.668Z" fill="#EFF8FF"/>
<path d="M259.347 148.668H251.041V156.982H259.347V148.668Z" fill="#EFF8FF"/>
<path d="M271.807 148.668H263.5V156.982H271.807V148.668Z" fill="#EFF8FF"/>
<path d="M284.1 148.668H275.793V156.982H284.1V148.668Z" fill="#EFF8FF"/>
<path d="M296.06 148.668H287.754V156.982H296.06V148.668Z" fill="#EFF8FF"/>
<path d="M307.855 148.668H299.549V156.982H307.855V148.668Z" fill="#EFF8FF"/>
<path d="M247.054 167.958H238.748V176.273H247.054V167.958Z" fill="#EFF8FF"/>
<path d="M259.347 167.958H251.041V176.273H259.347V167.958Z" fill="#EFF8FF"/>
<path d="M271.807 167.958H263.5V176.273H271.807V167.958Z" fill="#EFF8FF"/>
<path d="M284.1 167.958H275.793V176.273H284.1V167.958Z" fill="#EFF8FF"/>
<path d="M296.06 167.958H287.754V176.273H296.06V167.958Z" fill="#EFF8FF"/>
<path d="M307.855 167.958H299.549V176.273H307.855V167.958Z" fill="#EFF8FF"/>
<path d="M247.054 187.414H238.748V195.729H247.054V187.414Z" fill="#EFF8FF"/>
<path d="M259.347 187.414H251.041V195.729H259.347V187.414Z" fill="#EFF8FF"/>
<path d="M271.807 187.414H263.5V195.729H271.807V187.414Z" fill="#EFF8FF"/>
<path d="M284.1 187.414H275.793V195.729H284.1V187.414Z" fill="#EFF8FF"/>
<path d="M296.06 187.414H287.754V195.729H296.06V187.414Z" fill="#EFF8FF"/>
<path d="M307.855 187.414H299.549V195.729H307.855V187.414Z" fill="#EFF8FF"/>
<path d="M247.054 206.871H238.748V215.186H247.054V206.871Z" fill="#EFF8FF"/>
<path d="M259.347 206.871H251.041V215.186H259.347V206.871Z" fill="#EFF8FF"/>
<path d="M271.807 206.871H263.5V215.186H271.807V206.871Z" fill="#EFF8FF"/>
<path d="M284.1 206.871H275.793V215.186H284.1V206.871Z" fill="#EFF8FF"/>
<path d="M296.06 206.871H287.754V215.186H296.06V206.871Z" fill="#EFF8FF"/>
<path d="M307.855 206.871H299.549V215.186H307.855V206.871Z" fill="#EFF8FF"/>
<path d="M247.054 226.161H238.748V234.476H247.054V226.161Z" fill="#EFF8FF"/>
<path d="M259.347 226.161H251.041V234.476H259.347V226.161Z" fill="#EFF8FF"/>
<path d="M271.807 226.161H263.5V234.476H271.807V226.161Z" fill="#EFF8FF"/>
<path d="M284.1 226.161H275.793V234.476H284.1V226.161Z" fill="#EFF8FF"/>
<path d="M296.06 226.161H287.754V234.476H296.06V226.161Z" fill="#EFF8FF"/>
<path d="M307.855 226.161H299.549V234.476H307.855V226.161Z" fill="#EFF8FF"/>
<path d="M247.054 245.618H238.748V253.932H247.054V245.618Z" fill="#EFF8FF"/>
<path d="M259.347 245.618H251.041V253.932H259.347V245.618Z" fill="#EFF8FF"/>
<path d="M271.807 245.618H263.5V253.932H271.807V245.618Z" fill="#EFF8FF"/>
<path d="M284.1 245.618H275.793V253.932H284.1V245.618Z" fill="#EFF8FF"/>
<path d="M296.06 245.618H287.754V253.932H296.06V245.618Z" fill="#EFF8FF"/>
<path d="M307.855 245.618H299.549V253.932H307.855V245.618Z" fill="#EFF8FF"/>
<path d="M247.054 265.074H238.748V273.389H247.054V265.074Z" fill="#EFF8FF"/>
<path d="M259.347 265.074H251.041V273.389H259.347V265.074Z" fill="#EFF8FF"/>
<path d="M271.807 265.074H263.5V273.389H271.807V265.074Z" fill="#EFF8FF"/>
<path d="M284.1 265.074H275.793V273.389H284.1V265.074Z" fill="#EFF8FF"/>
<path d="M296.06 265.074H287.754V273.389H296.06V265.074Z" fill="#EFF8FF"/>
<path d="M307.855 265.074H299.549V273.389H307.855V265.074Z" fill="#EFF8FF"/>
<path d="M247.054 284.365H238.748V292.679H247.054V284.365Z" fill="#EFF8FF"/>
<path d="M259.347 284.365H251.041V292.679H259.347V284.365Z" fill="#EFF8FF"/>
<path d="M271.807 284.365H263.5V292.679H271.807V284.365Z" fill="#EFF8FF"/>
<path d="M284.1 284.365H275.793V292.679H284.1V284.365Z" fill="#EFF8FF"/>
<path d="M296.06 284.365H287.754V292.679H296.06V284.365Z" fill="#EFF8FF"/>
<path d="M307.855 284.365H299.549V292.679H307.855V284.365Z" fill="#EFF8FF"/>
<path d="M247.054 303.821H238.748V312.136H247.054V303.821Z" fill="#EFF8FF"/>
<path d="M259.347 303.821H251.041V312.136H259.347V303.821Z" fill="#EFF8FF"/>
<path d="M271.807 303.821H263.5V312.136H271.807V303.821Z" fill="#EFF8FF"/>
<path d="M284.1 303.821H275.793V312.136H284.1V303.821Z" fill="#EFF8FF"/>
<path d="M296.06 303.821H287.754V312.136H296.06V303.821Z" fill="#EFF8FF"/>
<path d="M307.855 303.821H299.549V312.136H307.855V303.821Z" fill="#EFF8FF"/>
<path d="M247.054 323.277H238.748V331.592H247.054V323.277Z" fill="#EFF8FF"/>
<path d="M259.347 323.277H251.041V331.592H259.347V323.277Z" fill="#EFF8FF"/>
<path d="M271.807 323.277H263.5V331.592H271.807V323.277Z" fill="#EFF8FF"/>
<path d="M284.1 323.277H275.793V331.592H284.1V323.277Z" fill="#EFF8FF"/>
<path d="M296.06 323.277H287.754V331.592H296.06V323.277Z" fill="#EFF8FF"/>
<path d="M307.855 323.277H299.549V331.592H307.855V323.277Z" fill="#EFF8FF"/>
<path d="M247.054 342.734H238.748V351.049H247.054V342.734Z" fill="#EFF8FF"/>
<path d="M259.347 342.734H251.041V351.049H259.347V342.734Z" fill="#EFF8FF"/>
<path d="M271.807 342.734H263.5V351.049H271.807V342.734Z" fill="#EFF8FF"/>
<path d="M284.1 342.734H275.793V351.049H284.1V342.734Z" fill="#EFF8FF"/>
<path d="M296.06 342.734H287.754V351.049H296.06V342.734Z" fill="#EFF8FF"/>
<path d="M307.855 342.734H299.549V351.049H307.855V342.734Z" fill="#EFF8FF"/>
<path d="M247.054 362.024H238.748V370.339H247.054V362.024Z" fill="#EFF8FF"/>
<path d="M259.347 362.024H251.041V370.339H259.347V362.024Z" fill="#EFF8FF"/>
<path d="M271.807 362.024H263.5V370.339H271.807V362.024Z" fill="#EFF8FF"/>
<path d="M284.1 362.024H275.793V370.339H284.1V362.024Z" fill="#EFF8FF"/>
<path d="M296.06 362.024H287.754V370.339H296.06V362.024Z" fill="#EFF8FF"/>
<path d="M307.855 362.024H299.549V370.339H307.855V362.024Z" fill="#EFF8FF"/>
<path d="M331.112 13.8025H322.806V22.1172H331.112V13.8025Z" fill="#EFF8FF"/>
<path d="M343.571 13.8025H335.265V22.1172H343.571V13.8025Z" fill="#EFF8FF"/>
<path d="M356.03 13.8025H347.724V22.1172H356.03V13.8025Z" fill="#EFF8FF"/>
<path d="M368.323 13.8025H360.017V22.1172H368.323V13.8025Z" fill="#EFF8FF"/>
<path d="M380.284 13.8025H371.978V22.1172H380.284V13.8025Z" fill="#EFF8FF"/>
<path d="M392.079 13.8025H383.772V22.1172H392.079V13.8025Z" fill="#EFF8FF"/>
<path d="M331.112 33.259H322.806V41.5738H331.112V33.259Z" fill="#EFF8FF"/>
<path d="M343.571 33.259H335.265V41.5738H343.571V33.259Z" fill="#EFF8FF"/>
<path d="M356.03 33.259H347.724V41.5738H356.03V33.259Z" fill="#EFF8FF"/>
<path d="M368.323 33.259H360.017V41.5738H368.323V33.259Z" fill="#EFF8FF"/>
<path d="M380.284 33.259H371.978V41.5738H380.284V33.259Z" fill="#EFF8FF"/>
<path d="M392.079 33.259H383.772V41.5738H392.079V33.259Z" fill="#EFF8FF"/>
<path d="M331.112 52.7155H322.806V61.0302H331.112V52.7155Z" fill="#EFF8FF"/>
<path d="M343.571 52.7155H335.265V61.0302H343.571V52.7155Z" fill="#EFF8FF"/>
<path d="M356.03 52.7155H347.724V61.0302H356.03V52.7155Z" fill="#EFF8FF"/>
<path d="M368.323 52.7155H360.017V61.0302H368.323V52.7155Z" fill="#EFF8FF"/>
<path d="M380.284 52.7155H371.978V61.0302H380.284V52.7155Z" fill="#EFF8FF"/>
<path d="M392.079 52.7155H383.772V61.0302H392.079V52.7155Z" fill="#EFF8FF"/>
<path d="M331.112 327.934H322.806V336.248H331.112V327.934Z" fill="#B4DBF7"/>
<path d="M343.571 327.934H335.265V336.248H343.571V327.934Z" fill="#B4DBF7"/>
<path d="M356.03 327.934H347.724V336.248H356.03V327.934Z" fill="#B4DBF7"/>
<path d="M368.323 327.934H360.017V336.248H368.323V327.934Z" fill="#B4DBF7"/>
<path d="M380.284 327.934H371.978V336.248H380.284V327.934Z" fill="#B4DBF7"/>
<path d="M392.079 327.934H383.772V336.248H392.079V327.934Z" fill="#B4DBF7"/>
<path d="M331.112 351.381H322.806V359.696H331.112V351.381Z" fill="#EFF8FF"/>
<path d="M343.571 351.381H335.265V359.696H343.571V351.381Z" fill="#EFF8FF"/>
<path d="M356.03 351.381H347.724V359.696H356.03V351.381Z" fill="#EFF8FF"/>
<path d="M368.323 351.381H360.017V359.696H368.323V351.381Z" fill="#EFF8FF"/>
<path d="M380.284 351.381H371.978V359.696H380.284V351.381Z" fill="#EFF8FF"/>
<path d="M392.079 351.381H383.772V359.696H392.079V351.381Z" fill="#EFF8FF"/>
<path d="M331.112 72.1721H322.806V80.4869H331.112V72.1721Z" fill="#EFF8FF"/>
<path d="M343.571 72.1721H335.265V80.4869H343.571V72.1721Z" fill="#EFF8FF"/>
<path d="M356.03 72.1721H347.724V80.4869H356.03V72.1721Z" fill="#EFF8FF"/>
<path d="M368.323 72.1721H360.017V80.4869H368.323V72.1721Z" fill="#EFF8FF"/>
<path d="M380.284 72.1721H371.978V80.4869H380.284V72.1721Z" fill="#EFF8FF"/>
<path d="M392.079 72.1721H383.772V80.4869H392.079V72.1721Z" fill="#EFF8FF"/>
<path d="M331.112 91.4623H322.806V99.777H331.112V91.4623Z" fill="#EFF8FF"/>
<path d="M343.571 91.4623H335.265V99.777H343.571V91.4623Z" fill="#EFF8FF"/>
<path d="M356.03 91.4623H347.724V99.777H356.03V91.4623Z" fill="#EFF8FF"/>
<path d="M368.323 91.4623H360.017V99.777H368.323V91.4623Z" fill="#EFF8FF"/>
<path d="M380.284 91.4623H371.978V99.777H380.284V91.4623Z" fill="#EFF8FF"/>
<path d="M392.079 91.4623H383.772V99.777H392.079V91.4623Z" fill="#EFF8FF"/>
<path d="M331.112 110.919H322.806V119.233H331.112V110.919Z" fill="#EFF8FF"/>
<path d="M343.571 110.919H335.265V119.233H343.571V110.919Z" fill="#EFF8FF"/>
<path d="M356.03 110.919H347.724V119.233H356.03V110.919Z" fill="#EFF8FF"/>
<path d="M368.323 110.919H360.017V119.233H368.323V110.919Z" fill="#EFF8FF"/>
<path d="M380.284 110.919H371.978V119.233H380.284V110.919Z" fill="#EFF8FF"/>
<path d="M392.079 110.919H383.772V119.233H392.079V110.919Z" fill="#EFF8FF"/>
<path d="M331.112 130.375H322.806V138.69H331.112V130.375Z" fill="#EFF8FF"/>
<path d="M343.571 130.375H335.265V138.69H343.571V130.375Z" fill="#EFF8FF"/>
<path d="M356.03 130.375H347.724V138.69H356.03V130.375Z" fill="#EFF8FF"/>
<path d="M368.323 130.375H360.017V138.69H368.323V130.375Z" fill="#EFF8FF"/>
<path d="M380.284 130.375H371.978V138.69H380.284V130.375Z" fill="#EFF8FF"/>
<path d="M392.079 130.375H383.772V138.69H392.079V130.375Z" fill="#EFF8FF"/>
<path d="M331.112 149.666H322.806V157.98H331.112V149.666Z" fill="#EFF8FF"/>
<path d="M343.571 149.666H335.265V157.98H343.571V149.666Z" fill="#EFF8FF"/>
<path d="M356.03 149.666H347.724V157.98H356.03V149.666Z" fill="#EFF8FF"/>
<path d="M368.323 149.666H360.017V157.98H368.323V149.666Z" fill="#EFF8FF"/>
<path d="M380.284 149.666H371.978V157.98H380.284V149.666Z" fill="#EFF8FF"/>
<path d="M392.079 149.666H383.772V157.98H392.079V149.666Z" fill="#EFF8FF"/>
<path d="M331.112 169.122H322.806V177.437H331.112V169.122Z" fill="#EFF8FF"/>
<path d="M343.571 169.122H335.265V177.437H343.571V169.122Z" fill="#EFF8FF"/>
<path d="M356.03 169.122H347.724V177.437H356.03V169.122Z" fill="#EFF8FF"/>
<path d="M368.323 169.122H360.017V177.437H368.323V169.122Z" fill="#EFF8FF"/>
<path d="M380.284 169.122H371.978V177.437H380.284V169.122Z" fill="#EFF8FF"/>
<path d="M392.079 169.122H383.772V177.437H392.079V169.122Z" fill="#EFF8FF"/>
<path d="M331.112 188.579H322.806V196.893H331.112V188.579Z" fill="#EFF8FF"/>
<path d="M343.571 188.579H335.265V196.893H343.571V188.579Z" fill="#EFF8FF"/>
<path d="M356.03 188.579H347.724V196.893H356.03V188.579Z" fill="#EFF8FF"/>
<path d="M368.323 188.579H360.017V196.893H368.323V188.579Z" fill="#EFF8FF"/>
<path d="M380.284 188.579H371.978V196.893H380.284V188.579Z" fill="#EFF8FF"/>
<path d="M392.079 188.579H383.772V196.893H392.079V188.579Z" fill="#EFF8FF"/>
<path d="M331.112 208.035H322.806V216.35H331.112V208.035Z" fill="#EFF8FF"/>
<path d="M343.571 208.035H335.265V216.35H343.571V208.035Z" fill="#EFF8FF"/>
<path d="M356.03 208.035H347.724V216.35H356.03V208.035Z" fill="#EFF8FF"/>
<path d="M368.323 208.035H360.017V216.35H368.323V208.035Z" fill="#EFF8FF"/>
<path d="M380.284 208.035H371.978V216.35H380.284V208.035Z" fill="#EFF8FF"/>
<path d="M392.079 208.035H383.772V216.35H392.079V208.035Z" fill="#EFF8FF"/>
<path d="M331.112 227.325H322.806V235.64H331.112V227.325Z" fill="#EFF8FF"/>
<path d="M343.571 227.325H335.265V235.64H343.571V227.325Z" fill="#EFF8FF"/>
<path d="M356.03 227.325H347.724V235.64H356.03V227.325Z" fill="#EFF8FF"/>
<path d="M368.323 227.325H360.017V235.64H368.323V227.325Z" fill="#EFF8FF"/>
<path d="M380.284 227.325H371.978V235.64H380.284V227.325Z" fill="#EFF8FF"/>
<path d="M392.079 227.325H383.772V235.64H392.079V227.325Z" fill="#EFF8FF"/>
<path d="M331.112 246.782H322.806V255.097H331.112V246.782Z" fill="#EFF8FF"/>
<path d="M343.571 246.782H335.265V255.097H343.571V246.782Z" fill="#EFF8FF"/>
<path d="M356.03 246.782H347.724V255.097H356.03V246.782Z" fill="#EFF8FF"/>
<path d="M368.323 246.782H360.017V255.097H368.323V246.782Z" fill="#EFF8FF"/>
<path d="M380.284 246.782H371.978V255.097H380.284V246.782Z" fill="#EFF8FF"/>
<path d="M392.079 246.782H383.772V255.097H392.079V246.782Z" fill="#EFF8FF"/>
<path d="M331.112 266.238H322.806V274.553H331.112V266.238Z" fill="#EFF8FF"/>
<path d="M343.571 266.238H335.265V274.553H343.571V266.238Z" fill="#EFF8FF"/>
<path d="M356.03 266.238H347.724V274.553H356.03V266.238Z" fill="#EFF8FF"/>
<path d="M368.323 266.238H360.017V274.553H368.323V266.238Z" fill="#EFF8FF"/>
<path d="M380.284 266.238H371.978V274.553H380.284V266.238Z" fill="#EFF8FF"/>
<path d="M392.079 266.238H383.772V274.553H392.079V266.238Z" fill="#EFF8FF"/>
<path d="M331.112 285.528H322.806V293.843H331.112V285.528Z" fill="#EFF8FF"/>
<path d="M343.571 285.528H335.265V293.843H343.571V285.528Z" fill="#EFF8FF"/>
<path d="M356.03 285.528H347.724V293.843H356.03V285.528Z" fill="#EFF8FF"/>
<path d="M368.323 285.528H360.017V293.843H368.323V285.528Z" fill="#EFF8FF"/>
<path d="M380.284 285.528H371.978V293.843H380.284V285.528Z" fill="#EFF8FF"/>
<path d="M392.079 285.528H383.772V293.843H392.079V285.528Z" fill="#EFF8FF"/>
<path d="M331.112 304.985H322.806V313.3H331.112V304.985Z" fill="#EFF8FF"/>
<path d="M343.571 304.985H335.265V313.3H343.571V304.985Z" fill="#EFF8FF"/>
<path d="M356.03 304.985H347.724V313.3H356.03V304.985Z" fill="#EFF8FF"/>
<path d="M368.323 304.985H360.017V313.3H368.323V304.985Z" fill="#EFF8FF"/>
<path d="M380.284 304.985H371.978V313.3H380.284V304.985Z" fill="#EFF8FF"/>
<path d="M392.079 304.985H383.772V313.3H392.079V304.985Z" fill="#EFF8FF"/>
<path d="M628.47 112.582C627.639 107.094 623.652 102.937 618.835 102.937C618.004 102.937 617.339 103.103 616.509 103.269C614.848 92.959 607.372 85.3094 598.568 85.3094C591.424 85.3094 585.112 90.2983 582.122 97.6153C581.125 97.2827 579.962 97.1164 578.799 97.1164C573.816 97.1164 569.496 99.9434 566.672 104.267C565.177 103.269 563.682 102.77 561.855 102.77C557.037 102.77 553.05 106.928 552.22 112.416H628.47V112.582Z" fill="white"/>
<path d="M86.9132 145.841C86.0826 140.353 82.0957 136.196 77.2782 136.196C76.4476 136.196 75.7831 136.362 74.9525 136.528C73.2913 126.218 65.8158 118.568 57.0113 118.568C49.8681 118.568 43.5555 123.557 40.5653 130.874C39.5686 130.542 38.4057 130.375 37.2429 130.375C32.2592 130.375 27.9401 133.202 25.116 137.526C23.6209 136.528 22.1258 136.029 20.2985 136.029C15.4809 136.029 11.494 140.187 10.6634 145.674H86.9132V145.841Z" fill="white"/>
<path d="M229.778 94.6218C228.947 89.633 225.459 85.9745 221.306 85.9745C220.641 85.9745 219.977 86.1408 219.312 86.3071C217.817 77.1609 211.172 70.3428 203.364 70.3428C197.052 70.3428 191.404 74.8327 188.746 81.3182C187.749 80.9857 186.752 80.9857 185.756 80.9857C181.436 80.9857 177.449 83.4801 174.958 87.3049C173.629 86.4734 172.3 85.9745 170.638 85.9745C166.319 85.9745 162.831 89.633 162.166 94.6218H229.778Z" fill="#C2E6FC"/>
<path d="M470.654 129.876C470.156 126.384 467.664 123.724 464.674 123.724C464.175 123.724 463.677 123.724 463.179 123.89C462.182 117.571 457.53 112.748 451.882 112.748C447.397 112.748 443.576 115.908 441.583 120.398C440.918 120.231 440.254 120.065 439.423 120.065C436.433 120.065 433.609 121.894 431.948 124.555C431.117 123.89 430.12 123.557 428.958 123.557C425.967 123.557 423.476 126.218 422.977 129.71H470.654V129.876Z" fill="#C2E6FC"/>
<path d="M89.9034 259.751V383.641H51.1971V259.751H0.197754V225.827H140.903V259.751H89.9034Z" fill="white"/>
<path d="M282.106 383.476H159.176V225.662H281.275V259.088H198.049V288.688H274.464V320.284H198.049V349.885H282.106V383.476Z" fill="white"/>
<path d="M422.645 383.476L411.515 354.707H345.232L334.102 383.476H292.572L358.522 225.662H398.225L464.175 383.476H422.645ZM378.457 269.564L358.522 321.448H398.723L378.457 269.564Z" fill="white"/>
<path d="M659.534 383.476H621.825V299.331L577.636 383.476H559.695L515.175 298.998V383.476H477.465V225.662H515.507L568.5 325.772L621.492 225.662H659.368V383.476H659.534Z" fill="white"/>
<path d="M127.779 412.91C126.949 416.236 122.962 420.227 119.639 419.23C116.317 418.398 114.822 413.077 115.652 409.585C116.483 406.259 119.971 404.263 123.294 405.095C126.616 406.092 128.61 409.585 127.779 412.91Z" fill="#FFCFD3"/>
<path d="M96.3822 383.144C96.3822 384.807 95.0532 385.971 93.5581 385.971C91.8969 385.971 90.734 384.64 90.734 383.144C90.734 381.647 92.063 380.317 93.5581 380.317C95.0532 380.15 96.3822 381.481 96.3822 383.144Z" fill="#FFCFD3"/>
<path d="M99.5385 510.027L106.516 508.696L106.848 509.528L96.7144 513.519L95.7177 511.357L99.5385 510.027Z" fill="#0A3A7F"/>
<path d="M127.945 452.821L122.795 481.757L123.958 513.02H111.831L111.167 510.692L119.473 509.528L115.154 481.923L112.828 453.985L127.945 452.821Z" fill="#0A3A7F"/>
<path d="M131.932 452.323L133.095 476.103L151.701 500.714L149.375 512.355H143.893L147.215 509.861L147.714 502.377L130.105 482.422L115.652 453.32L131.932 452.323Z" fill="#0A3A7F"/>
<path d="M93.5581 385.971L96.3822 383.144L105.187 404.263L115.818 417.068L125.121 421.392L132.929 454.484L112.33 456.314L109.838 422.556L97.3789 406.924L93.5581 385.971Z" fill="#E06170"/>
<path d="M123.792 411.414C123.792 412.079 123.626 412.744 123.626 413.409C124.457 413.243 125.121 414.407 124.789 415.072C124.457 415.904 123.626 416.236 122.629 416.236C122.795 417.068 122.962 418.066 122.795 418.897C124.623 418.066 126.284 417.068 127.447 415.571C128.61 414.075 129.274 411.913 128.776 410.083C128.61 409.585 128.277 408.919 127.945 408.421C127.447 407.589 127.115 406.924 126.616 406.092C126.284 405.427 125.952 404.928 125.287 404.429C124.789 404.097 123.958 404.097 123.294 404.097C122.131 404.097 118.642 403.931 119.639 405.76C121.134 407.755 122.629 409.585 123.792 411.414Z" fill="#0A3A7F"/>
<path d="M60.8321 462.134L65.6497 484.916L62.8256 513.852L66.6464 514.35L74.4541 483.918L70.9655 457.311L59.5032 457.81L60.8321 462.134Z" fill="#0A3A7F"/>
<path d="M82.0957 456.812L70.9656 457.311L95.7177 511.357L99.5385 510.027L82.0957 456.812Z" fill="#0A3A7F"/>
<path d="M59.5032 457.81L56.0146 423.055L51.6954 385.804L55.0179 385.306L62.8256 420.56L74.9525 421.558L87.4116 385.804L90.734 386.303L81.5973 424.385L82.0957 456.812L59.5032 457.81Z" fill="#C2F8BE"/>
<path d="M76.2814 411.414C76.2814 414.906 73.4574 419.729 69.9688 419.729C66.4803 419.729 63.6562 414.906 63.6562 411.414C63.6562 407.922 66.4803 405.095 69.9688 405.095C73.4574 405.095 76.2814 407.922 76.2814 411.414Z" fill="#FFCFD3"/>
<path d="M57.0113 383.809C57.0113 385.472 55.6824 386.636 54.1873 386.636C52.6922 386.636 51.3632 385.306 51.3632 383.809C51.3632 382.146 52.6922 380.982 54.1873 380.982C55.6824 380.982 57.0113 382.312 57.0113 383.809Z" fill="#FFCFD3"/>
<path d="M90.734 384.807C90.734 386.47 89.4051 387.634 87.91 387.634C86.2487 387.634 85.0859 386.303 85.0859 384.807C85.0859 383.144 86.4149 381.98 87.91 381.98C89.5712 381.98 90.734 383.31 90.734 384.807Z" fill="#FFCFD3"/>
<path d="M72.4606 408.421C73.1251 408.421 74.288 408.254 74.7864 407.755C74.7864 407.755 74.7863 407.589 74.9525 407.589C73.7896 406.092 72.1284 405.261 70.1349 405.261C66.6464 405.261 63.8223 408.088 63.8223 411.58C63.8223 414.075 65.3174 417.234 67.3109 418.731C67.477 418.066 67.477 417.401 67.477 416.735C67.477 414.075 67.477 411.248 67.3109 408.587C68.9721 408.587 70.7994 408.421 72.4606 408.421Z" fill="#0A3A7F"/>
<path d="M66.6464 514.35H72.7929C72.7929 514.35 72.959 515.515 72.7929 515.348C72.6268 515.348 62.4934 515.515 62.4934 515.515L62.8256 513.685L66.6464 514.35Z" fill="#0A3A7F"/>
<path d="M67.477 412.245C67.1448 411.746 66.6464 411.58 65.9819 411.58C65.8158 411.58 65.6497 411.58 65.6497 411.747C65.3174 411.913 65.1513 412.245 65.1513 412.578C64.9852 413.576 65.4835 414.574 66.3141 415.072C66.4803 415.239 66.8125 415.405 67.1448 415.405C67.477 415.405 67.6431 415.405 67.9754 415.239C68.6398 414.407 67.9754 412.911 67.477 412.245Z" fill="#FFCFD3"/>
<path d="M167.316 457.81L168.645 439.351L166.652 425.715L159.508 385.804L162.997 385.306L170.638 420.56L182.765 421.558L195.225 385.804L198.713 386.303L189.576 424.385L186.254 439.019L186.586 456.812L167.316 457.81Z" fill="#9C8989"/>
<path d="M184.094 411.414C184.094 414.906 181.27 419.729 177.782 419.729C174.293 419.729 171.469 414.906 171.469 411.414C171.469 407.922 174.293 405.095 177.782 405.095C181.436 405.095 184.094 407.922 184.094 411.414Z" fill="#FFCFD3"/>
<path d="M164.824 383.809C164.824 385.472 163.495 386.636 162 386.636C160.505 386.636 159.176 385.306 159.176 383.809C159.176 382.146 160.505 380.982 162 380.982C163.495 380.982 164.824 382.312 164.824 383.809Z" fill="#FFCFD3"/>
<path d="M175.29 412.245C174.958 411.746 174.459 411.58 173.795 411.58C173.629 411.58 173.463 411.58 173.463 411.747C173.13 411.913 172.964 412.245 172.964 412.578C172.798 413.576 173.296 414.574 174.127 415.072C174.293 415.239 174.625 415.405 174.958 415.405C175.29 415.405 175.456 415.405 175.788 415.239C176.453 414.407 175.788 412.911 175.29 412.245Z" fill="#FFCFD3"/>
<path d="M175.29 411.913C175.124 411.913 174.958 412.079 174.792 411.913C174.625 411.913 174.625 411.746 174.459 411.58C174.127 411.081 173.296 411.081 172.798 411.58C172.3 412.079 172.3 412.744 172.632 413.243C172.964 413.742 173.463 414.075 174.127 414.241C174.459 415.738 174.625 417.234 174.625 418.731C173.629 418.731 172.632 418.897 171.635 418.897C171.469 418.897 171.303 418.897 171.137 418.731C170.971 418.565 170.971 418.398 170.971 418.232C170.639 416.569 170.472 414.74 170.472 413.077C170.472 411.414 170.638 409.585 171.635 408.088C172.632 406.259 176.951 403.432 179.111 405.095C181.27 406.924 176.951 411.081 175.29 411.913Z" fill="#0A3A7F"/>
<path d="M180.606 409.418C181.603 410.915 182.931 412.079 184.593 412.578C185.091 410.749 184.593 408.587 183.43 407.09C182.765 406.259 180.44 404.097 179.111 404.596C177.948 405.095 179.941 408.421 180.606 409.418Z" fill="#0A3A7F"/>
<path d="M167.981 444.673L186.42 443.841L200.707 507.532L207.185 503.541L199.211 513.186L180.274 460.804L180.606 484.584L167.814 501.546L166.984 507.699L166.652 510.359L164.326 510.027L163.994 500.714L173.795 484.584L166.818 457.81L167.981 444.673Z" fill="#0A3A7F"/>
<path d="M166.818 403.099L162.831 404.429L159.508 385.804L162.997 385.306L166.818 403.099Z" fill="#FFCFD3"/>
<path d="M190.075 400.605L194.726 402.434L198.713 386.303L195.224 385.805L190.075 400.605Z" fill="#FFCFD3"/>
<path d="M174.459 420.893L177.948 427.046L179.609 421.225L174.459 420.893Z" fill="#FFCFD3"/>
<path d="M303.868 462.134L308.686 484.916L305.695 513.852L309.682 514.35L317.324 483.918L314.001 457.311L302.373 457.81L303.868 462.134Z" fill="#0A3A7F"/>
<path d="M325.132 456.812L314.001 457.311L338.587 511.357L342.408 510.027L325.132 456.812Z" fill="#0A3A7F"/>
<path d="M302.373 457.81L299.05 423.055L294.565 385.804L298.054 385.306L305.695 420.56L317.822 421.558L330.281 385.804L333.77 386.303L324.633 424.385L325.132 456.812L302.373 457.81Z" fill="#E06170"/>
<path d="M319.317 411.414C319.317 414.906 316.493 419.729 313.005 419.729C309.516 419.729 306.692 414.906 306.692 411.414C306.692 407.922 309.516 405.095 313.005 405.095C316.493 405.095 319.317 407.922 319.317 411.414Z" fill="#FFCFD3"/>
<path d="M299.881 383.809C299.881 385.472 298.552 386.636 297.057 386.636C295.562 386.636 294.233 385.306 294.233 383.809C294.233 382.146 295.562 380.982 297.057 380.982C298.552 380.982 299.881 382.312 299.881 383.809Z" fill="#FFCFD3"/>
<path d="M333.77 384.807C333.77 386.47 332.441 387.634 330.946 387.634C329.451 387.634 328.122 386.303 328.122 384.807C328.122 383.144 329.451 381.98 330.946 381.98C332.441 381.98 333.77 383.31 333.77 384.807Z" fill="#FFCFD3"/>
<path d="M315.497 408.421C316.161 408.421 317.324 408.254 317.822 407.755C317.822 407.755 317.822 407.589 317.988 407.589C316.826 406.092 315.164 405.261 313.171 405.261C309.682 405.261 306.858 408.088 306.858 411.58C306.858 414.075 308.353 417.234 310.347 418.731C310.513 418.066 310.513 417.401 310.513 416.735C310.513 414.075 310.513 411.248 310.347 408.587C312.008 408.587 313.669 408.421 315.497 408.421Z" fill="#0A3A7F"/>
<path d="M310.347 412.245C310.015 411.746 309.516 411.58 308.852 411.58C308.686 411.58 308.519 411.58 308.519 411.747C308.187 411.913 308.021 412.245 308.021 412.578C307.855 413.576 308.353 414.574 309.184 415.072C309.35 415.239 309.682 415.405 310.015 415.405C310.347 415.405 310.513 415.405 310.845 415.239C311.51 414.407 310.845 412.911 310.347 412.245Z" fill="#FFCFD3"/>
<path d="M342.408 510.027H349.718V511.357L338.92 513.02L338.587 511.357L342.408 510.027Z" fill="#0A3A7F"/>
<path d="M284.93 403.764C285.428 403.432 286.093 403.764 286.591 404.097C287.09 404.43 287.422 404.928 288.086 405.095C288.253 405.095 288.585 405.095 288.751 405.261C289.748 405.427 290.246 406.758 289.748 407.589C289.582 407.755 289.415 407.922 289.415 408.254C289.249 408.753 289.914 409.086 290.246 409.585C290.911 410.582 289.914 412.079 290.412 413.243C290.578 413.742 291.077 414.075 291.575 414.574C291.907 414.906 292.406 415.571 292.24 416.07C292.073 416.735 291.077 416.902 290.412 416.735C289.748 416.569 289.083 416.07 288.253 416.07C287.92 416.07 287.422 416.236 287.09 416.236C286.259 416.236 285.595 415.571 285.262 414.74C284.93 414.075 284.764 413.243 284.598 412.412C284.266 411.414 283.767 410.416 283.103 409.585C282.604 408.919 281.774 408.088 282.106 407.257C282.272 406.758 282.937 406.425 283.435 406.092C283.933 405.76 284.266 405.261 284.1 404.596C284.432 404.43 284.598 404.097 284.93 403.764Z" fill="#0A3A7F"/>
<path d="M293.735 457.81L292.406 439.351L294.399 425.715L301.376 385.804L298.054 385.306L290.246 420.56L278.285 421.558L265.66 385.804L262.338 386.303L271.474 424.385L274.797 439.019L274.298 456.812L293.735 457.81Z" fill="#EDB44F"/>
<path d="M276.79 411.414C276.79 414.906 279.614 419.729 283.103 419.729C286.591 419.729 289.415 414.906 289.415 411.414C289.415 407.922 286.591 405.095 283.103 405.095C279.614 405.095 276.79 407.922 276.79 411.414Z" fill="#FFCFD3"/>
<path d="M296.06 383.809C296.06 385.472 297.389 386.636 298.884 386.636C300.379 386.636 301.708 385.306 301.708 383.809C301.708 382.146 300.379 380.982 298.884 380.982C297.389 380.982 296.06 382.312 296.06 383.809Z" fill="#FFCFD3"/>
<path d="M285.761 412.245C286.093 411.746 286.591 411.58 287.256 411.58C287.422 411.58 287.588 411.58 287.588 411.747C287.92 411.913 288.086 412.245 288.086 412.578C288.253 413.576 287.754 414.574 286.924 415.072C286.758 415.239 286.425 415.405 286.093 415.405C285.761 415.405 285.595 415.405 285.262 415.239C284.598 414.407 285.262 412.911 285.761 412.245Z" fill="#FFCFD3"/>
<path d="M274.465 444.673L292.904 443.841L307.024 507.532L319.317 513.02L305.695 513.186L286.757 460.804L287.09 484.584L274.132 501.546L273.468 507.699L272.969 510.359L270.81 510.027L270.311 500.714L280.279 484.584L273.302 457.81L274.465 444.673Z" fill="#0A3A7F"/>
<path d="M294.233 403.099L298.22 404.429L301.376 385.804L298.054 385.306L294.233 403.099Z" fill="#FFCFD3"/>
<path d="M270.81 400.605L266.158 402.434L262.338 386.303L265.66 385.805L270.81 400.605Z" fill="#FFCFD3"/>
<path d="M260.842 383.809C260.842 385.472 262.171 386.636 263.667 386.636C265.328 386.636 266.491 385.306 266.491 383.809C266.491 382.146 265.162 380.982 263.667 380.982C262.171 380.982 260.842 382.312 260.842 383.809Z" fill="#FFCFD3"/>
<path d="M286.259 407.256C285.927 407.922 285.262 408.088 284.598 408.421C283.933 408.753 283.269 409.086 283.269 409.751C283.103 410.582 283.933 411.248 283.767 412.079C283.435 413.077 281.608 413.243 281.442 414.407C281.442 414.74 281.608 415.072 281.774 415.405C281.94 415.904 282.106 416.569 281.608 417.068C281.275 417.4 280.943 417.4 280.445 417.567C280.113 417.733 279.614 418.066 279.614 418.398C279.614 418.897 280.113 419.23 279.947 419.729C279.78 420.061 279.282 420.061 278.95 419.895C278.285 419.729 277.621 419.562 277.122 419.063C276.956 418.731 276.956 418.398 276.79 418.066C276.292 416.902 274.631 416.735 273.634 415.904C272.471 414.906 272.637 412.91 273.8 412.079C274.298 411.746 274.797 411.58 275.295 411.081C275.793 410.582 275.96 409.751 275.793 408.919C275.627 408.254 275.461 407.423 275.295 406.758C275.295 406.259 275.129 405.926 275.461 405.593C275.793 405.095 276.458 405.095 277.122 405.261C277.621 405.427 278.285 405.76 278.784 405.76C280.279 405.76 281.109 403.931 282.604 403.931C283.601 403.931 284.432 404.762 285.096 405.261C285.927 405.593 286.924 406.092 286.259 407.256Z" fill="#0A3A7F"/>
<path d="M555.044 376.658C555.21 377.157 539.595 403.099 539.595 403.099L530.458 421.392L536.937 421.558L544.91 401.104L555.542 379.818L555.044 376.658Z" fill="#D8972E"/>
<path d="M532.119 409.086C531.122 412.412 532.451 417.733 535.774 418.731C539.096 419.729 543.083 415.904 544.08 412.744C545.077 409.418 543.249 405.926 539.927 404.928C536.604 403.931 533.116 405.76 532.119 409.086Z" fill="#FFCFD3"/>
<path d="M527.634 452.821L532.784 481.757L531.621 513.02H543.748L544.412 510.692L536.106 509.528L540.591 481.923L539.927 453.32L527.634 452.821Z" fill="#0A3A7F"/>
<path d="M523.647 452.323L522.484 476.103L504.044 500.714L506.204 512.355H511.686L508.364 509.861L507.865 502.377L525.64 482.422L539.927 453.32L523.647 452.323Z" fill="#0A3A7F"/>
<path d="M535.94 407.256C535.608 407.922 535.608 411.081 535.275 411.58C534.611 411.081 533.448 411.58 533.282 412.412C533.116 413.243 533.78 414.075 534.445 414.407C533.78 415.072 533.282 415.737 532.95 416.569C531.953 414.906 530.956 413.243 530.79 411.247C530.458 409.252 531.122 407.256 532.617 405.926C533.116 405.593 533.614 405.261 534.113 404.928C534.943 404.429 535.608 404.097 536.438 403.598C537.103 403.265 537.767 402.933 538.432 402.933C539.096 402.933 539.761 403.265 540.259 403.598C541.256 404.263 544.412 405.926 542.419 406.924C540.425 408.254 538.099 406.425 535.94 407.256Z" fill="#0A3A7F"/>
<path d="M558.034 378.986L554.545 378.82L541.422 407.09L536.438 416.735L530.458 421.392L523.647 452.322L539.927 453.32L541.09 423.221L546.239 408.421L558.034 378.986Z" fill="#EDB44F"/>
<path d="M559.529 377.988C559.529 379.651 558.2 380.815 556.705 380.815C555.044 380.815 553.881 379.485 553.881 377.988C553.881 376.492 555.21 375.161 556.705 375.161C558.366 375.161 559.529 376.492 559.529 377.988Z" fill="#FFCFD3"/>
<path d="M486.103 457.81L487.432 439.351L485.439 425.715L478.296 385.804L481.784 385.306L489.426 420.56L501.553 421.558L514.012 385.804L517.5 386.303L508.364 424.385L505.041 439.019L505.374 456.812L486.103 457.81Z" fill="#9084D7"/>
<path d="M502.882 411.414C502.882 414.906 500.058 419.729 496.569 419.729C493.08 419.729 490.256 414.906 490.256 411.414C490.256 407.922 493.08 405.095 496.569 405.095C500.058 405.095 502.882 407.922 502.882 411.414Z" fill="#FFCFD3"/>
<path d="M494.077 412.245C493.745 411.746 493.247 411.58 492.582 411.58C492.416 411.58 492.25 411.58 492.25 411.747C491.918 411.913 491.751 412.245 491.751 412.578C491.585 413.576 492.084 414.574 492.914 415.072C493.08 415.239 493.413 415.405 493.745 415.405C494.077 415.405 494.243 415.405 494.576 415.239C495.24 414.407 494.576 412.911 494.077 412.245Z" fill="#FFCFD3"/>
<path d="M494.077 411.913C493.911 411.913 493.745 412.079 493.579 411.913C493.413 411.913 493.413 411.746 493.247 411.58C492.914 411.081 492.084 411.081 491.585 411.58C491.087 412.079 491.087 412.744 491.419 413.243C491.752 413.742 492.25 414.075 492.914 414.241C493.247 415.738 493.413 417.234 493.413 418.731C492.416 418.731 491.419 418.897 490.423 418.897C490.256 418.897 490.09 418.897 489.924 418.731C489.758 418.565 489.758 418.398 489.758 418.232C489.426 416.569 489.26 414.74 489.26 413.077C489.26 411.414 489.426 409.585 490.423 408.088C491.419 406.259 495.738 403.432 497.898 405.095C500.058 406.924 495.738 411.081 494.077 411.913Z" fill="#0A3A7F"/>
<path d="M499.393 409.418C500.39 410.915 501.719 412.079 503.38 412.578C503.878 410.749 503.38 408.587 502.217 407.09C501.553 406.259 499.227 404.097 497.898 404.596C496.569 405.095 498.729 408.421 499.393 409.418Z" fill="#0A3A7F"/>
<path d="M486.768 444.673L505.207 443.841L519.494 507.532L525.973 503.541L517.999 513.186L499.061 460.804L499.393 484.584L486.602 501.546L485.771 507.699L485.439 510.359L483.113 510.027L482.781 500.714L492.582 484.584L485.605 457.81L486.768 444.673Z" fill="#0A3A7F"/>
<path d="M485.605 403.099L481.618 404.429L478.296 385.804L481.784 385.306L485.605 403.099Z" fill="#FFCFD3"/>
<path d="M508.862 400.605L513.513 402.434L517.5 386.303L514.012 385.805L508.862 400.605Z" fill="#FFCFD3"/>
<path d="M493.247 420.893L496.735 427.046L498.396 421.225L493.247 420.893Z" fill="#FFCFD3"/>
<path d="M518.995 383.809C518.995 385.472 517.666 386.636 516.171 386.636C514.676 386.636 513.347 385.306 513.347 383.809C513.347 382.146 514.676 380.982 516.171 380.982C517.666 380.982 518.995 382.312 518.995 383.809Z" fill="#FFCFD3"/>
<path d="M482.615 384.474C482.615 386.137 481.286 387.301 479.791 387.301C478.13 387.301 476.967 385.971 476.967 384.474C476.967 382.811 478.296 381.647 479.791 381.647C481.286 381.481 482.615 382.811 482.615 384.474Z" fill="#FFCFD3"/>
<path d="M564.014 383.476C564.014 383.975 563.35 400.438 563.35 400.438L559.695 421.392L566.174 421.558L568.167 400.272L567.669 383.476H564.014Z" fill="#79BAE2"/>
<path d="M561.356 409.086C560.36 412.412 561.689 417.733 565.011 418.731C568.334 419.729 572.32 415.904 573.317 412.744C574.314 409.418 572.487 405.926 569.164 404.928C565.842 403.931 562.353 405.76 561.356 409.086Z" fill="#FFCFD3"/>
<path d="M555.376 450.161L562.021 481.757L549.063 513.02H561.19L561.855 510.692L553.549 509.528L569.663 481.923L567.669 449.163L555.376 450.161Z" fill="#0A3A7F"/>
<path d="M564.513 411.58C563.848 411.081 562.685 411.58 562.519 412.412C562.353 413.243 563.018 414.075 563.682 414.407C563.018 415.072 562.519 415.737 562.187 416.569C561.19 414.906 560.194 413.243 560.027 411.247C559.695 409.252 560.36 407.256 561.855 405.926C562.353 405.593 562.852 405.261 563.35 404.928C564.181 404.429 564.845 404.097 565.676 403.598C566.34 403.265 567.005 402.933 567.669 402.933C568.334 402.933 568.998 403.265 569.496 403.598C570.493 404.263 573.649 405.926 571.656 406.924C569.663 408.254 564.845 411.081 564.513 411.58Z" fill="#0A3A7F"/>
<path d="M572.819 383.643L569.33 383.476L569.164 404.762L565.676 416.569L559.695 421.392L560.027 440.848L555.542 450.161L570.659 448.83L567.835 441.68L568.832 435.527L570.327 432.034L571.49 429.873C572.32 428.542 572.32 426.879 571.656 425.549L570.493 423.387L574.978 408.088L572.819 383.643Z" fill="white"/>
<path d="M573.317 381.98C573.317 383.642 571.988 384.807 570.493 384.807C568.832 384.807 567.669 383.476 567.669 381.98C567.669 380.483 568.998 379.152 570.493 379.152C572.154 378.986 573.317 380.317 573.317 381.98Z" fill="#FFCFD3"/>
<path d="M558.865 410.915C560.7 410.915 562.187 409.426 562.187 407.589C562.187 405.752 560.7 404.263 558.865 404.263C557.03 404.263 555.542 405.752 555.542 407.589C555.542 409.426 557.03 410.915 558.865 410.915Z" fill="#0A3A7F"/>
<path d="M558.532 413.243C558.366 414.74 559.363 416.403 560.858 416.569C561.356 416.569 561.855 416.403 562.021 416.07C562.187 415.737 562.021 415.239 561.855 414.74C561.523 413.908 561.855 412.91 561.855 411.913C562.353 407.589 558.865 410.749 558.532 413.243Z" fill="#0A3A7F"/>
<path d="M570.493 448.996L582.454 477.267L572.154 499.716H579.63L579.298 500.714L567.337 501.379L575.643 478.431C575.643 478.431 560.194 450.659 560.36 450.161C560.526 449.828 570.493 448.996 570.493 448.996Z" fill="#0A3A7F"/>
<path d="M395.567 423.387C395.899 423.387 396.232 423.387 396.564 423.221C396.896 423.054 397.062 422.722 397.062 422.389C398.723 417.733 398.059 412.411 397.062 407.423C396.896 406.757 396.73 405.926 396.398 405.261C395.567 404.097 393.906 403.764 392.411 403.764C391.746 403.764 391.082 403.764 390.417 404.097C389.088 404.762 388.258 406.259 388.092 407.755C387.926 409.252 388.424 410.749 388.756 412.245C389.421 414.906 390.085 417.567 390.75 420.061C390.916 420.893 390.916 422.555 391.746 423.054C392.743 423.553 394.57 423.221 395.567 423.387Z" fill="#0A3A7F"/>
<path d="M388.092 412.91C388.922 416.236 392.909 420.227 396.232 419.23C399.554 418.398 401.049 413.077 400.219 409.585C399.388 406.259 395.899 404.263 392.577 405.095C389.254 406.092 387.261 409.585 388.092 412.91Z" fill="#FFCFD3"/>
<path d="M419.489 383.144C419.489 384.807 420.818 385.971 422.313 385.971C423.808 385.971 425.137 384.64 425.137 383.144C425.137 381.647 423.808 380.317 422.313 380.317C420.818 380.317 419.489 381.481 419.489 383.144Z" fill="#FFCFD3"/>
<path d="M390.916 448.331L393.075 481.757L391.912 513.02H404.039L404.538 510.692L395.401 510.526L399.056 481.923L402.876 449.828L390.916 448.331Z" fill="#FFCFD3"/>
<path d="M387.095 447.832L384.437 476.103L370.151 504.872L372.975 512.355H378.623L375.3 509.86L373.639 504.04L387.427 482.422L400.219 449.495L387.095 447.832Z" fill="#FFCFD3"/>
<path d="M422.313 385.971L419.489 383.144L413.342 405.095L400.052 417.068L390.75 421.391L390.584 438.354L387.095 447.832L402.877 449.828L402.544 437.522L402.877 423.886L418.492 406.924L422.313 385.971Z" fill="#E06170"/>
<path d="M395.069 408.088C394.903 409.418 394.404 410.582 393.74 411.746C393.241 410.915 391.912 410.915 391.248 411.58C390.583 412.245 390.583 413.409 391.248 414.075C391.746 414.74 392.909 415.072 393.74 414.906C393.906 418.398 393.74 421.724 393.241 425.216C391.248 425.216 389.421 425.05 387.427 425.05C386.763 420.227 386.264 415.239 386.763 410.416C386.929 409.418 387.095 408.421 387.427 407.423C387.759 406.425 388.424 405.594 389.421 405.095C390.085 404.762 390.916 404.596 391.58 404.596C392.079 404.596 393.075 404.429 393.574 404.596C395.069 405.095 395.235 407.256 395.069 408.088Z" fill="#0A3A7F"/>
<path d="M387.095 447.832L384.437 476.103L399.056 481.923L402.876 449.828L387.095 447.832Z" fill="#0A3A7F"/>
<path d="M404.538 510.692L404.039 513.02H391.912L392.079 507.366H395.733L395.401 510.526L404.538 510.692Z" fill="#0A3A7F"/>
<path d="M371.978 501.047L374.636 502.544L373.639 504.04L375.3 509.861L378.623 512.355H372.975L370.151 504.872L371.978 501.047Z" fill="#0A3A7F"/>
<path d="M456.368 457.81L459.69 423.055L464.175 385.804L460.687 385.306L453.045 420.56L440.918 421.558L428.459 385.804L424.971 386.303L434.107 424.385L433.775 456.812L456.368 457.81Z" fill="white"/>
<path d="M452.049 411.414C452.049 414.906 449.224 419.729 445.736 419.729C442.247 419.729 439.423 414.906 439.423 411.414C439.423 407.922 442.247 405.095 445.736 405.095C449.224 405.095 452.049 407.922 452.049 411.414Z" fill="#FFCFD3"/>
<path d="M458.859 383.809C458.859 385.472 460.188 386.636 461.684 386.636C463.179 386.636 464.508 385.306 464.508 383.809C464.508 382.146 463.179 380.982 461.684 380.982C460.188 380.982 458.859 382.312 458.859 383.809Z" fill="#FFCFD3"/>
<path d="M424.971 384.807C424.971 386.47 426.3 387.634 427.795 387.634C429.29 387.634 430.619 386.303 430.619 384.807C430.619 383.144 429.29 381.98 427.795 381.98C426.3 381.98 424.971 383.31 424.971 384.807Z" fill="#FFCFD3"/>
<path d="M448.228 408.421C448.892 408.421 450.055 408.254 450.553 407.755C450.553 407.755 450.553 407.589 450.719 407.589C449.557 406.092 447.895 405.261 445.902 405.261C442.413 405.261 439.589 408.088 439.589 411.58C439.589 414.075 441.084 417.234 443.078 418.731C443.244 418.066 443.244 417.401 443.244 416.735C443.244 414.075 443.244 411.248 443.078 408.587C444.739 408.587 446.566 408.421 448.228 408.421Z" fill="#0A3A7F"/>
<path d="M443.078 412.245C442.746 411.746 442.247 411.58 441.583 411.58C441.417 411.58 441.251 411.58 441.251 411.747C440.918 411.913 440.752 412.245 440.752 412.578C440.586 413.576 441.084 414.574 441.915 415.072C442.081 415.239 442.413 415.405 442.746 415.405C443.078 415.405 443.244 415.405 443.576 415.239C444.241 414.407 443.576 412.911 443.078 412.245Z" fill="#FFCFD3"/>
<path d="M433.775 456.812L437.098 510.193H440.752L443.909 457.311L447.231 457.478L449.224 511.523L452.048 511.357L456.368 457.81L457.032 451.158L433.775 451.491V456.812Z" fill="#0A3A7F"/>
<path d="M437.098 510.193L428.958 511.025L429.29 512.355H441.084L440.752 510.193H437.098Z" fill="#0A3A7F"/>
<path d="M449.224 511.523V513.02L460.355 513.353V512.022L452.048 511.357L449.224 511.523Z" fill="#0A3A7F"/>
<path d="M622.655 462.134L627.473 484.916L624.483 513.851L628.47 514.35L636.111 483.918L632.789 457.311L621.16 457.81L622.655 462.134Z" fill="#0A3A7F"/>
<path d="M643.919 456.812L632.789 457.311L657.375 511.357L661.196 510.027L643.919 456.812Z" fill="#0A3A7F"/>
<path d="M621.16 457.81L617.838 423.054L625.147 383.31L628.636 383.476L624.483 420.56L636.61 421.558L649.069 385.804L652.557 386.303L643.421 424.385L643.919 456.812L621.16 457.81Z" fill="white"/>
<path d="M638.105 411.414C638.105 414.906 635.281 419.729 631.792 419.729C628.304 419.729 625.479 414.906 625.479 411.414C625.479 407.922 628.304 405.095 631.792 405.095C635.281 405.095 638.105 407.922 638.105 411.414Z" fill="#FFCFD3"/>
<path d="M623.652 382.811C623.486 381.148 624.649 379.818 626.31 379.651C627.971 379.485 629.3 380.649 629.466 382.312C629.632 383.975 628.47 385.305 626.808 385.472C625.313 385.472 623.818 384.308 623.652 382.811Z" fill="#FFCFD3"/>
<path d="M652.557 384.807C652.557 386.47 651.228 387.634 649.733 387.634C648.072 387.634 646.909 386.303 646.909 384.807C646.909 383.144 648.238 381.98 649.733 381.98C651.228 381.98 652.557 383.31 652.557 384.807Z" fill="#FFCFD3"/>
<path d="M634.284 408.42C634.948 408.42 636.111 408.254 636.61 407.755C636.61 407.755 636.61 407.589 636.776 407.589C635.613 406.092 633.952 405.261 631.958 405.261C628.47 405.261 625.646 408.088 625.646 411.58C625.646 414.075 627.141 417.234 629.134 418.731C629.3 418.066 629.3 417.4 629.3 416.735C629.3 414.075 629.3 411.247 629.134 408.587C630.795 408.587 632.457 408.42 634.284 408.42Z" fill="#0A3A7F"/>
<path d="M629.134 412.245C628.802 411.746 628.303 411.58 627.639 411.58C627.473 411.58 627.307 411.58 627.307 411.746C626.974 411.913 626.808 412.245 626.808 412.578C626.642 413.576 627.141 414.573 627.971 415.072C628.137 415.239 628.47 415.405 628.802 415.405C629.134 415.405 629.3 415.405 629.632 415.239C630.297 414.407 629.632 412.91 629.134 412.245Z" fill="#FFCFD3"/>
<path d="M657.707 513.186V514.35L670 508.696L669.003 507.865L661.195 510.027L657.375 511.357L657.707 513.186Z" fill="#0A3A7F"/>
<path d="M628.47 514.35L633.453 515.681V516.18C633.453 516.18 624.483 515.847 624.483 515.681C624.483 515.514 624.483 513.852 624.483 513.852L628.47 514.35Z" fill="#0A3A7F"/>
<path d="M210.84 383.144C211.006 383.643 210.342 400.605 210.342 400.605L206.687 421.558L213.166 421.724L215.159 400.438L214.661 382.811L210.84 383.144Z" fill="white"/>
<path d="M208.348 409.086C207.351 412.412 208.68 417.733 212.003 418.731C215.325 419.729 219.312 415.904 220.309 412.744C221.306 409.418 219.478 405.926 216.156 404.928C212.833 403.931 209.345 405.76 208.348 409.086Z" fill="#FFCFD3"/>
<path d="M203.863 452.821L209.013 481.757L207.85 513.02H219.977L220.641 510.692L212.335 509.528L216.82 481.923L216.156 453.32L203.863 452.821Z" fill="#0A3A7F"/>
<path d="M199.876 452.322L198.713 476.103L180.274 500.714L182.433 512.355H187.915L184.593 509.86L184.094 502.377L201.869 482.422L216.156 453.32L199.876 452.322Z" fill="#0A3A7F"/>
<path d="M212.169 407.256C211.837 407.922 211.837 411.081 211.504 411.58C210.84 411.081 209.677 411.58 209.511 412.412C209.345 413.243 210.009 414.075 210.674 414.407C210.009 415.072 209.511 415.737 209.179 416.569C208.182 414.906 207.185 413.243 207.019 411.247C206.687 409.252 207.351 407.256 208.846 405.926C209.345 405.593 209.843 405.261 210.342 404.928C211.172 404.429 211.837 404.097 212.667 403.598C213.332 403.265 213.996 402.933 214.661 402.933C215.325 402.933 215.99 403.265 216.488 403.598C217.485 404.263 220.641 405.926 218.648 406.924C216.654 408.254 214.328 406.425 212.169 407.256Z" fill="#0A3A7F"/>
<path d="M219.81 383.643L216.322 383.476L216.156 404.928L212.667 416.735L206.687 421.392L199.876 452.322L216.156 453.32L217.319 423.221L221.804 408.088L219.81 383.643Z" fill="#835D91"/>
<path d="M220.475 381.98C220.475 383.642 219.146 384.807 217.651 384.807C215.99 384.807 214.827 383.476 214.827 381.98C214.827 380.483 216.156 379.152 217.651 379.152C219.146 378.986 220.475 380.317 220.475 381.98Z" fill="#FFCFD3"/>
<path d="M200.208 383.809C200.208 385.472 198.879 386.636 197.384 386.636C195.723 386.636 194.56 385.305 194.56 383.809C194.56 382.146 195.889 380.982 197.384 380.982C198.879 380.982 200.208 382.312 200.208 383.809Z" fill="#FFCFD3"/>
<path d="M603.717 403.764C604.216 403.432 604.88 403.764 605.379 404.097C605.877 404.43 606.209 404.928 606.874 405.095C607.04 405.095 607.372 405.095 607.538 405.261C608.535 405.427 609.033 406.758 608.535 407.589C608.369 407.755 608.203 407.922 608.203 408.254C608.037 408.753 608.701 409.086 609.033 409.585C609.698 410.582 608.701 412.079 609.2 413.243C609.366 413.742 609.864 414.075 610.362 414.574C610.695 414.906 611.193 415.571 611.027 416.07C610.861 416.735 609.864 416.902 609.2 416.735C608.535 416.569 607.871 416.07 607.04 416.07C606.708 416.07 606.209 416.236 605.877 416.236C605.046 416.236 604.382 415.571 604.05 414.74C603.717 414.075 603.551 413.243 603.385 412.412C603.053 411.414 602.555 410.416 601.89 409.585C601.226 408.919 600.561 408.088 600.893 407.257C601.06 406.758 601.724 406.425 602.222 406.092C602.721 405.76 603.053 405.261 602.887 404.596C603.219 404.43 603.385 404.097 603.717 403.764Z" fill="#0A3A7F"/>
<path d="M612.522 457.81L611.193 439.351L613.186 425.715L623.486 383.809L620.164 383.31L609.033 420.56L597.073 421.558L581.291 384.474L577.803 384.973L590.262 424.385L593.584 439.019L593.086 456.812L612.522 457.81Z" fill="#E06170"/>
<path d="M595.578 411.414C595.578 414.906 598.402 419.729 601.89 419.729C605.379 419.729 608.203 414.906 608.203 411.414C608.203 407.922 605.379 405.095 601.89 405.095C598.402 405.095 595.578 407.922 595.578 411.414Z" fill="#FFCFD3"/>
<path d="M619.831 382.146C619.831 383.809 621.16 384.973 622.655 384.973C624.317 384.973 625.479 383.643 625.479 382.146C625.479 380.649 624.15 379.319 622.655 379.319C620.994 379.153 619.831 380.483 619.831 382.146Z" fill="#FFCFD3"/>
<path d="M604.548 412.245C604.88 411.746 605.379 411.58 606.043 411.58C606.209 411.58 606.375 411.58 606.375 411.747C606.708 411.913 606.874 412.245 606.874 412.578C607.04 413.576 606.541 414.574 605.711 415.072C605.545 415.239 605.213 415.405 604.88 415.405C604.548 415.405 604.382 415.405 604.05 415.239C603.385 414.407 604.05 412.911 604.548 412.245Z" fill="#FFCFD3"/>
<path d="M593.252 444.673L611.691 443.841L625.812 507.532L638.105 513.02L624.483 513.186L605.545 460.803L605.877 484.584L592.92 501.546L592.255 507.699L591.757 510.359L589.597 510.027L589.099 500.714L599.066 484.584L592.089 457.81L593.252 444.673Z" fill="#0A3A7F"/>
<path d="M614.183 403.432L618.336 404.928L623.486 383.809L620.163 383.31L614.183 403.432Z" fill="#FFCFD3"/>
<path d="M588.434 401.27L583.617 403.099L577.803 384.973L581.291 384.474L588.434 401.27Z" fill="#FFCFD3"/>
<path d="M576.307 382.479C576.307 384.141 577.636 385.306 579.131 385.306C580.627 385.306 581.956 383.975 581.956 382.479C581.956 380.816 580.627 379.651 579.131 379.651C577.636 379.651 576.307 380.816 576.307 382.479Z" fill="#FFCFD3"/>
<path d="M605.046 407.256C604.714 407.922 604.05 408.088 603.385 408.421C602.721 408.753 602.056 409.086 602.056 409.751C601.89 410.582 602.721 411.248 602.555 412.079C602.222 413.077 600.395 413.243 600.229 414.407C600.229 414.74 600.395 415.072 600.561 415.405C600.727 415.904 600.893 416.569 600.395 417.068C600.063 417.4 599.731 417.4 599.232 417.567C598.9 417.733 598.402 418.066 598.402 418.398C598.402 418.897 598.9 419.23 598.734 419.729C598.568 420.061 598.069 420.061 597.737 419.895C597.073 419.729 596.408 419.562 595.91 419.063C595.744 418.731 595.744 418.398 595.577 418.066C595.079 416.902 593.418 416.735 592.421 415.904C591.258 414.906 591.424 412.91 592.587 412.079C593.086 411.746 593.584 411.58 594.082 411.081C594.581 410.582 594.747 409.751 594.581 408.919C594.415 408.254 594.249 407.423 594.082 406.758C594.082 406.259 593.916 405.926 594.249 405.593C594.581 405.095 595.245 405.095 595.91 405.261C596.408 405.427 597.073 405.76 597.571 405.76C599.066 405.76 599.897 403.931 601.392 403.931C602.388 403.931 603.219 404.762 603.884 405.261C604.714 405.593 605.711 406.092 605.046 407.256Z" fill="#0A3A7F"/>
<path d="M604.382 425.549C604.382 426.214 603.884 426.713 603.219 426.713C602.555 426.713 602.056 426.214 602.056 425.549C602.056 424.884 602.555 424.385 603.219 424.385C603.884 424.385 604.382 424.884 604.382 425.549Z" fill="#0A3A7F"/>
<path d="M603.219 433.531C603.861 433.531 604.382 433.01 604.382 432.367C604.382 431.724 603.861 431.203 603.219 431.203C602.577 431.203 602.056 431.724 602.056 432.367C602.056 433.01 602.577 433.531 603.219 433.531Z" fill="#0A3A7F"/>
<path d="M245.061 383.144C245.227 383.643 244.563 400.605 244.563 400.605L240.908 421.558L247.387 421.724L249.38 400.438L248.882 382.811L245.061 383.144Z" fill="#79BAE2"/>
<path d="M242.569 409.086C241.572 412.411 242.901 417.733 246.224 418.731C249.546 419.728 253.533 415.904 254.53 412.744C255.527 409.418 253.699 405.926 250.377 404.928C247.054 403.93 243.566 405.76 242.569 409.086Z" fill="#FFCFD3"/>
<path d="M238.25 451.657L253.201 480.094L241.905 513.02H254.032L254.696 510.692L246.39 509.528L260.843 480.26L250.875 450.161L238.25 451.657Z" fill="#0A3A7F"/>
<path d="M245.725 411.58C245.061 411.081 243.898 411.58 243.732 412.412C243.566 413.243 244.23 414.075 244.895 414.407C244.23 415.072 243.732 415.737 243.4 416.569C242.403 414.906 241.406 413.243 241.24 411.247C240.908 409.252 241.572 407.256 243.068 405.926C243.566 405.593 244.064 405.261 244.563 404.928C245.393 404.429 246.058 404.097 246.888 403.598C247.553 403.265 248.217 402.933 248.882 402.933C249.546 402.933 250.211 403.265 250.709 403.598C251.706 404.263 254.862 405.926 252.869 406.924C250.875 408.254 246.058 411.081 245.725 411.58Z" fill="#0A3A7F"/>
<path d="M254.032 383.642L250.543 383.476L250.377 404.762L246.888 416.569L240.908 421.391L239.247 433.531L238.416 451.657L251.041 450.161L250.045 435.527L251.54 432.034L252.703 429.873C253.533 428.542 253.533 426.879 252.869 425.549L251.706 423.387L256.191 408.088L254.032 383.642Z" fill="#E06170"/>
<path d="M254.53 381.979C254.53 383.642 253.201 384.806 251.706 384.806C250.211 384.806 248.882 383.476 248.882 381.979C248.882 380.483 250.211 379.152 251.706 379.152C253.201 379.152 254.53 380.317 254.53 381.979Z" fill="#FFCFD3"/>
<path d="M239.745 413.243C239.579 414.74 240.576 416.403 242.071 416.569C242.569 416.569 243.068 416.403 243.234 416.07C243.4 415.737 243.234 415.239 243.068 414.74C242.735 413.908 243.068 412.91 243.068 411.913C243.566 407.589 240.077 410.749 239.745 413.243Z" fill="#0A3A7F"/>
<path d="M245.061 409.584C246.058 409.252 247.221 409.751 248.383 409.751C248.716 409.751 248.882 409.751 249.214 409.751C249.546 407.922 250.045 406.092 250.377 404.429C249.38 403.598 248.383 403.598 246.888 403.93C244.895 404.429 242.901 404.928 241.739 406.591C241.406 407.09 241.24 407.755 240.908 408.254C240.243 409.252 239.247 409.917 238.582 410.749C238.084 411.414 237.918 412.245 237.918 413.243C237.918 414.241 238.416 415.405 238.084 416.403C237.585 417.733 235.758 418.065 235.426 419.396C235.094 420.56 236.423 421.724 236.589 422.888C236.755 424.218 235.592 425.549 235.592 426.879C235.592 428.043 236.589 429.207 237.752 429.54C238.914 430.039 240.077 430.039 241.406 430.039C242.569 430.039 243.898 430.039 244.895 429.374C245.559 428.875 246.058 428.209 246.39 427.544C247.221 425.881 247.387 423.886 247.553 421.89C247.719 420.394 247.719 418.731 247.719 417.234C247.719 416.569 247.553 415.904 247.221 415.405C246.722 414.906 245.892 414.906 245.227 414.74C244.23 414.407 243.4 413.243 243.4 412.079C243.4 410.915 243.898 409.917 245.061 409.584Z" fill="#0A3A7F"/>
<path d="M236.589 478.597L238.25 451.657L250.875 450.161L243.566 482.422L226.455 502.377L225.126 508.53L226.455 509.694L225.957 511.357L222.801 509.362L221.804 501.047L224.296 500.548L236.589 478.597Z" fill="#0A3A7F"/>
</svg>
