<svg width="616" height="310" viewBox="0 0 616 310" fill="none" xmlns="http://www.w3.org/2000/svg">
<path d="M592.227 155.088C689.126 279.018 464.841 310 367.118 310C269.395 310 163.432 257.094 238.249 155.088C284.721 91.6795 327.073 55.8397 415.238 22.1005C618.759 -55.8805 543.448 92.7297 592.227 155.088Z" fill="url(#paint0_linear)"/>
<path d="M105 284.277C105 295.799 93.993 309.392 82 305.156C71.5205 301.431 59 295.822 59 284.277C58.9771 272.732 69.2961 263.399 82 263.399C94.7039 263.399 105 272.732 105 284.277Z" fill="url(#paint1_linear)"/>
<path d="M125.801 268.243C130.838 270.916 134.227 279.009 129.592 283.407C125.533 287.245 120.175 291.562 115.128 288.883C110.075 286.215 108.389 279.419 111.336 273.719C114.284 268.018 120.754 265.564 125.801 268.243Z" fill="url(#paint2_linear)"/>
<path d="M333.801 35.2364C338.838 37.9096 342.227 46.0023 337.592 50.4006C333.533 54.2387 328.175 58.5551 323.128 55.8764C318.075 53.2081 316.389 46.4124 319.336 40.7122C322.284 35.012 328.754 32.5578 333.801 35.2364Z" fill="url(#paint3_linear)"/>
<path d="M423 161.167C423 231.702 321.829 314.996 211.586 288.885C115.037 266.201 0 231.82 0 161.167C0 90.6323 25.1643 -17.4737 211.414 33.4484C320.117 63.1036 423 90.6323 423 161.167Z" fill="url(#paint4_linear)"/>
<path d="M349.044 215.784H280.844V255.395H349.044V215.784Z" fill="white"/>
<path opacity="0.36" d="M349.044 215.784H280.844V232.399H349.044V215.784Z" fill="#D6BDF1"/>
<path d="M355.044 255.294H274.844C273.844 255.294 273.044 254.484 273.044 253.471V253.369C273.044 252.356 273.844 251.546 274.844 251.546H355.044C356.044 251.546 356.844 252.356 356.844 253.369V253.471C356.744 254.484 355.944 255.294 355.044 255.294Z" fill="white"/>
<path d="M417.044 89.4542H212.844V228.65H417.044V89.4542Z" fill="white"/>
<path d="M417.044 89.4542H212.844V210.212H417.044V89.4542Z" fill="url(#paint5_linear)"/>
<path d="M410.744 96.3431H219.144V203.627H410.744V96.3431Z" fill="white"/>
<path d="M234.044 163.409H279.944C282.644 163.409 284.844 165.637 284.844 168.373V189.951C284.844 192.686 282.644 194.915 279.944 194.915H234.044C231.344 194.915 229.144 192.686 229.144 189.951V168.373C229.244 165.637 231.344 163.409 234.044 163.409Z" fill="#E2F1FF"/>
<path d="M234.244 105.157H279.944C282.644 105.157 284.844 107.386 284.844 110.121V136.056C284.844 138.791 282.644 141.02 279.944 141.02H234.244C231.544 141.02 229.344 138.791 229.344 136.056V110.121C229.444 107.386 231.544 105.157 234.244 105.157Z" fill="#E2F1FF"/>
<path d="M293.944 150.846L347.244 144.768C349.944 144.464 352.344 146.389 352.644 149.124L355.544 174.957C355.844 177.693 353.944 180.124 351.244 180.428L297.944 186.506C295.244 186.81 292.844 184.886 292.544 182.15L289.644 156.317C289.444 153.582 291.344 151.15 293.944 150.846Z" fill="#E2F1FF"/>
<path d="M303.944 142.235H294.444V126.026H303.944V142.235ZM318.944 120.353H309.444V142.134H318.944V120.353ZM333.844 112.552H324.344V142.134H333.844V112.552ZM349.844 105.157H340.344V142.134H349.844V105.157Z" fill="#E2F1FF"/>
<path d="M380.244 190.66C388.087 190.66 394.444 184.219 394.444 176.274C394.444 168.33 388.087 161.889 380.244 161.889C372.402 161.889 366.044 168.33 366.044 176.274C366.044 184.219 372.402 190.66 380.244 190.66Z" fill="#E2F1FF"/>
<path d="M392.744 169.588C393.744 171.614 394.344 173.843 394.344 176.274C394.344 184.176 388.044 190.66 380.144 190.66C372.244 190.66 365.944 184.278 365.944 176.274C365.944 168.271 372.244 161.889 380.144 161.889V176.274L392.744 169.588Z" fill="#B0D4FF"/>
<path d="M394.307 146.436C395.564 138.593 390.307 131.204 382.565 129.931C374.824 128.658 367.53 133.984 366.274 141.826C365.017 149.669 370.275 157.058 378.016 158.331C385.757 159.604 393.051 154.278 394.307 146.436Z" fill="#E2F1FF"/>
<path d="M394.444 144.16C394.444 152.062 388.144 158.546 380.244 158.546C372.344 158.546 366.044 152.163 366.044 144.16C366.044 136.258 372.344 129.774 380.244 129.774V144.16H394.444Z" fill="#B0D4FF"/>
<path d="M359.544 122.278H399.244C399.944 122.278 400.544 122.886 400.544 123.595C400.544 124.304 399.944 124.912 399.244 124.912H359.444C358.744 124.912 358.144 124.304 358.144 123.595C358.144 122.886 358.744 122.278 359.544 122.278ZM359.544 119.34H399.244C399.944 119.34 400.544 118.732 400.544 118.023C400.544 117.314 399.944 116.706 399.244 116.706H359.444C358.744 116.706 358.144 117.314 358.144 118.023C358.144 118.631 358.744 119.34 359.544 119.34ZM359.544 113.565H399.244C399.944 113.565 400.544 112.957 400.544 112.248C400.544 111.539 399.944 110.931 399.244 110.931H359.444C358.744 110.931 358.144 111.539 358.144 112.248C358.144 112.957 358.744 113.565 359.544 113.565ZM359.544 107.892H399.244C399.944 107.892 400.544 107.284 400.544 106.575C400.544 105.866 399.944 105.258 399.244 105.258H359.444C358.744 105.258 358.144 105.866 358.144 106.575C358.144 107.284 358.744 107.892 359.544 107.892Z" fill="#E2F1FF"/>
<path d="M230.644 152.67H283.544C284.244 152.67 284.744 152.163 284.744 151.454V151.252C284.744 150.542 284.244 150.036 283.544 150.036H230.644C229.944 150.036 229.444 150.542 229.444 151.252V151.454C229.444 152.062 229.944 152.67 230.644 152.67Z" fill="#E2F1FF"/>
<path d="M230.644 158.141H283.544C284.244 158.141 284.744 157.634 284.744 156.925V156.621C284.744 155.912 284.244 155.405 283.544 155.405H230.644C229.944 155.405 229.444 155.912 229.444 156.621V156.824C229.444 157.634 229.944 158.141 230.644 158.141Z" fill="#E2F1FF"/>
<path d="M153.144 111.337H176.244C178.344 111.337 180.044 109.614 180.044 107.487V91.8856C180.044 89.7581 178.344 88.0359 176.244 88.0359H153.144C151.044 88.0359 149.344 89.7581 149.344 91.8856V107.487C149.344 109.614 151.044 111.337 153.144 111.337Z" fill="white"/>
<path d="M173.744 110.222L178.644 115.186L165.944 110.222" fill="white"/>
<path d="M176.744 95.9378H152.744C152.244 95.9378 151.844 95.5326 151.844 95.0261C151.844 94.5195 152.244 94.1143 152.744 94.1143H176.744C177.244 94.1143 177.644 94.5195 177.644 95.0261C177.644 95.5326 177.244 95.9378 176.744 95.9378ZM177.644 99.6862C177.644 99.1797 177.244 98.7744 176.744 98.7744H152.744C152.244 98.7744 151.844 99.1797 151.844 99.6862C151.844 100.193 152.244 100.598 152.744 100.598H176.744C177.244 100.598 177.644 100.193 177.644 99.6862ZM177.644 104.448C177.644 103.941 177.244 103.536 176.744 103.536H152.744C152.244 103.536 151.844 103.941 151.844 104.448C151.844 104.954 152.244 105.359 152.744 105.359H176.744C177.244 105.359 177.644 104.954 177.644 104.448Z" fill="#E2F1FF"/>
<path d="M294.944 174.451C294.244 172.425 294.044 170.905 293.644 170.804C293.244 170.703 292.844 172.425 292.844 172.425C292.244 172.425 291.044 168.474 290.844 168.271C290.244 167.765 289.744 173.033 292.044 174.957C294.344 176.781 294.944 174.451 294.944 174.451Z" fill="#FFC9C5"/>
<path d="M320.844 170.095C320.644 171.31 320.344 173.742 320.444 174.451C320.644 175.363 323.744 174.654 323.744 174.654L323.544 169.69L320.844 170.095Z" fill="#FBA394"/>
<path d="M319.444 168.575C319.944 169.69 320.944 170.5 322.144 170.601C323.344 170.703 324.544 170.196 325.144 169.183C325.944 168.069 325.944 166.549 325.744 165.232C325.444 163.105 324.644 160.977 323.144 159.458L318.144 162.497L316.944 165.84L319.444 168.575Z" fill="#FFC9C5"/>
<path d="M322.644 161.889C323.544 161.382 326.444 159.559 326.244 158.141C325.044 158.748 322.744 157.026 319.644 157.533C318.844 157.634 318.144 157.735 317.544 158.242C316.444 159.052 315.644 160.572 316.044 161.889C314.844 162.092 313.944 163.307 313.744 164.523C313.344 166.346 314.144 168.271 315.444 169.487C316.844 170.703 318.844 171.108 320.544 170.703C320.744 170.703 320.944 170.601 321.044 170.399C321.244 170.095 321.044 169.791 320.744 169.487C320.144 168.778 319.544 168.069 318.944 167.258C318.844 167.056 318.644 166.853 318.644 166.65C318.444 165.637 320.244 166.853 320.544 166.549C321.244 165.84 320.244 165.536 320.444 164.32C320.644 162.699 321.244 162.801 322.644 161.889Z" fill="#241D9E"/>
<path d="M320.544 252.052L323.844 255.294H317.044L317.444 252.052H320.544Z" fill="#030478"/>
<path d="M331.444 252.052L339.944 255.294H328.044L328.444 252.052H331.444Z" fill="#030478"/>
<path d="M332.044 252.255L330.944 205.046L320.444 204.134C320.444 204.134 320.444 204.438 320.544 204.843H314.644C314.644 205.552 316.844 252.458 316.844 252.458H321.244L322.644 212.137C324.944 226.219 328.244 252.458 328.244 252.458L332.044 252.255Z" fill="url(#paint6_linear)"/>
<path d="M350.344 170.703C351.044 168.676 351.244 167.157 351.644 167.056C352.044 166.954 352.444 168.676 352.444 168.676C353.044 168.676 354.244 164.726 354.444 164.523C355.044 164.016 355.544 169.284 353.244 171.209C350.944 173.033 350.344 170.703 350.344 170.703Z" fill="#FFC9C5"/>
<path d="M349.844 170.196C348.244 172.83 342.744 177.997 338.344 179.516C338.344 179.516 332.044 176.781 328.644 174.147C326.444 172.425 320.444 171.31 316.244 173.742C312.544 175.869 306.044 180.935 306.044 180.935C303.544 180.327 299.044 176.984 294.644 173.742L292.544 175.464C292.544 175.464 299.044 184.075 305.444 186.608C308.044 187.621 312.244 183.67 314.844 182.15C314.344 184.683 313.544 193.699 313.444 207.376C317.844 208.49 327.744 207.173 333.044 206.565C331.744 196.333 328.944 184.177 328.944 180.732C332.144 183.67 336.144 185.696 339.344 184.582C345.144 182.556 351.844 172.222 351.844 172.222L349.844 170.196Z" fill="url(#paint7_linear)"/>
<path d="M480.244 204.033H434.644C433.144 204.033 431.844 202.716 431.844 201.196V175.869C431.844 174.35 433.144 173.033 434.644 173.033H480.244C481.744 173.033 483.044 174.35 483.044 175.869V201.196C483.044 202.817 481.744 204.033 480.244 204.033Z" fill="white"/>
<g opacity="0.52">
<path opacity="0.52" d="M435.244 188.634V188.431C435.244 183.873 438.844 180.226 443.344 180.226C443.444 180.226 443.544 180.226 443.544 180.226C448.044 180.226 451.644 183.873 451.644 188.431V188.634C451.644 193.193 448.044 196.84 443.544 196.84C443.444 196.84 443.344 196.84 443.344 196.84C438.844 196.84 435.244 193.193 435.244 188.634Z" fill="#B0D4FF"/>
<path opacity="0.52" d="M479.244 183.771H454.844C454.644 183.771 454.444 183.569 454.444 183.366C454.444 183.163 454.644 182.961 454.844 182.961H479.244C479.444 182.961 479.644 183.163 479.644 183.366C479.644 183.569 479.444 183.771 479.244 183.771ZM479.644 185.899C479.644 185.696 479.444 185.493 479.244 185.493H454.844C454.644 185.493 454.444 185.696 454.444 185.899C454.444 186.101 454.644 186.304 454.844 186.304H479.244C479.444 186.405 479.644 186.203 479.644 185.899ZM479.644 188.533C479.644 188.33 479.444 188.127 479.244 188.127H454.844C454.644 188.127 454.444 188.33 454.444 188.533C454.444 188.735 454.644 188.938 454.844 188.938H479.244C479.444 188.938 479.644 188.735 479.644 188.533ZM479.644 191.167C479.644 190.964 479.444 190.761 479.244 190.761H454.844C454.644 190.761 454.444 190.964 454.444 191.167C454.444 191.369 454.644 191.572 454.844 191.572H479.244C479.444 191.572 479.644 191.369 479.644 191.167ZM479.644 193.801C479.644 193.598 479.444 193.395 479.244 193.395H454.844C454.644 193.395 454.444 193.598 454.444 193.801C454.444 194.003 454.644 194.206 454.844 194.206H479.244C479.444 194.206 479.644 194.003 479.644 193.801Z" fill="#B0D4FF"/>
</g>
<path opacity="0.36" d="M152.1 228.549H107.9C106 228.549 104.4 226.928 104.4 225.003V201.095C104.4 199.17 106 197.549 107.9 197.549H152.1C154 197.549 155.6 199.17 155.6 201.095V225.003C155.7 227.029 154.1 228.549 152.1 228.549Z" fill="#D6BDF1"/>
<path d="M150.4 228.549H104.8C103.3 228.549 102 227.232 102 225.712V200.386C102 198.866 103.3 197.549 104.8 197.549H150.4C151.9 197.549 153.2 198.866 153.2 200.386V225.814C153.2 227.333 151.9 228.549 150.4 228.549Z" fill="white"/>
<g opacity="0.52">
<path opacity="0.52" d="M105.4 213.15V212.948C105.4 208.389 109 204.742 113.5 204.742C113.6 204.742 113.7 204.742 113.7 204.742C118.2 204.742 121.8 208.389 121.8 212.948V213.15C121.8 217.709 118.2 221.356 113.7 221.356C113.6 221.356 113.5 221.356 113.5 221.356C109 221.356 105.4 217.709 105.4 213.15Z" fill="#B0D4FF"/>
<path opacity="0.52" d="M149.4 208.288H125C124.8 208.288 124.6 208.085 124.6 207.882C124.6 207.68 124.8 207.477 125 207.477H149.4C149.6 207.477 149.8 207.68 149.8 207.882C149.8 208.085 149.6 208.288 149.4 208.288ZM149.8 210.415C149.8 210.213 149.6 210.01 149.4 210.01H125C124.8 210.01 124.6 210.213 124.6 210.415C124.6 210.618 124.8 210.82 125 210.82H149.4C149.6 210.82 149.8 210.719 149.8 210.415ZM149.8 213.049C149.8 212.847 149.6 212.644 149.4 212.644H125C124.8 212.644 124.6 212.847 124.6 213.049C124.6 213.252 124.8 213.454 125 213.454H149.4C149.6 213.454 149.8 213.252 149.8 213.049ZM149.8 215.683C149.8 215.481 149.6 215.278 149.4 215.278H125C124.8 215.278 124.6 215.481 124.6 215.683C124.6 215.886 124.8 216.088 125 216.088H149.4C149.6 216.088 149.8 215.886 149.8 215.683ZM149.8 218.317C149.8 218.114 149.6 217.912 149.4 217.912H125C124.8 217.912 124.6 218.114 124.6 218.317C124.6 218.52 124.8 218.722 125 218.722H149.4C149.6 218.722 149.8 218.52 149.8 218.317Z" fill="#B0D4FF"/>
</g>
<path opacity="0.36" d="M238.144 124.203H261.844C263.744 124.203 265.244 125.722 265.244 127.647V143.957C265.244 145.882 263.744 147.402 261.844 147.402H260.144L259.544 152.771L254.144 147.402H238.144C236.244 147.402 234.744 145.882 234.744 143.957V127.647C234.744 125.722 236.244 124.203 238.144 124.203Z" fill="#B0BDF1"/>
<path d="M236.244 144.667H259.044C261.144 144.667 262.844 142.944 262.844 140.817V125.317C262.844 123.19 261.144 121.467 259.044 121.467H236.244C234.144 121.467 232.444 123.19 232.444 125.317V140.817C232.444 142.944 234.144 144.667 236.244 144.667Z" fill="white"/>
<path d="M256.644 143.552L257.144 151.556L248.844 143.552" fill="white"/>
<path d="M259.544 129.369H235.744C235.244 129.369 234.844 128.964 234.844 128.458C234.844 127.951 235.244 127.546 235.744 127.546H259.544C260.044 127.546 260.444 127.951 260.444 128.458C260.444 128.964 260.044 129.369 259.544 129.369ZM260.444 133.118C260.444 132.611 260.044 132.206 259.544 132.206H235.744C235.244 132.206 234.844 132.611 234.844 133.118C234.844 133.624 235.244 134.029 235.744 134.029H259.544C260.044 134.029 260.444 133.624 260.444 133.118ZM260.444 137.879C260.444 137.373 260.044 136.967 259.544 136.967H235.744C235.244 136.967 234.844 137.373 234.844 137.879C234.844 138.386 235.244 138.791 235.744 138.791H259.544C260.044 138.791 260.444 138.386 260.444 137.879Z" fill="#E2F1FF"/>
<path d="M508.244 121.974H485.444C483.344 121.974 481.644 120.252 481.644 118.124V102.725C481.644 100.598 483.344 98.8757 485.444 98.8757H508.244C510.344 98.8757 512.044 100.598 512.044 102.725V118.225C512.044 120.252 510.344 121.974 508.244 121.974Z" fill="white"/>
<path d="M487.844 120.859L482.944 125.823L495.644 120.859" fill="white"/>
<path d="M484.044 105.765C484.044 105.258 484.444 104.853 484.944 104.853H508.744C509.244 104.853 509.644 105.258 509.644 105.765C509.644 106.271 509.244 106.676 508.744 106.676H484.944C484.444 106.575 484.044 106.17 484.044 105.765ZM484.944 111.337H508.744C509.244 111.337 509.644 110.931 509.644 110.425C509.644 109.918 509.244 109.513 508.744 109.513H484.944C484.444 109.513 484.044 109.918 484.044 110.425C484.044 110.931 484.444 111.337 484.944 111.337ZM484.944 115.997H508.744C509.244 115.997 509.644 115.591 509.644 115.085C509.644 114.578 509.244 114.173 508.744 114.173H484.944C484.444 114.173 484.044 114.578 484.044 115.085C484.044 115.591 484.444 115.997 484.944 115.997Z" fill="#E2F1FF"/>
<path d="M460.244 168.919C458.444 171.249 459.144 174.592 460.644 174.187C462.144 173.781 476.544 174.794 477.444 173.984C478.444 173.174 478.844 168.919 475.344 168.108C472.844 167.602 460.244 168.919 460.244 168.919Z" fill="#FFBA49"/>
<path d="M473.744 202.147C473.344 204.579 472.644 208.327 473.544 208.53C474.444 208.732 476.944 208.732 476.944 207.922C476.944 207.111 476.244 202.35 476.144 201.843C476.044 201.236 473.744 202.147 473.744 202.147Z" fill="#241D9E"/>
<path d="M463.044 203.16C462.644 205.592 461.944 209.34 462.844 209.543C463.744 209.745 466.244 209.745 466.244 208.935C466.244 208.124 465.544 203.363 465.444 202.856C465.344 202.249 463.044 203.16 463.044 203.16Z" fill="#241D9E"/>
<path d="M475.944 129.307C476.244 132.043 476.844 137.919 474.744 138.02C471.944 138.121 464.444 138.02 464.044 138.02C462.044 137.919 463.344 129.713 463.344 128.7C463.244 121.304 474.844 121.203 475.944 129.307Z" fill="#241D9E"/>
<path d="M461.844 148.657L460.244 159.396L458.244 166.487L462.344 165.879L465.344 160.611L465.644 146.935L461.844 148.657Z" fill="#FFDEDE"/>
<path d="M467.844 138.02C463.544 138.83 461.644 143.085 460.644 149.265L467.944 150.075L467.744 143.794" fill="white"/>
<path d="M478.544 145.719C479.644 152.709 479.944 159.902 479.644 166.994L475.544 166.386L475.144 157.674L474.844 143.997L478.544 145.719Z" fill="#FFDEDE"/>
<path d="M472.944 138.02C477.244 138.83 479.144 143.085 480.144 149.265L472.844 150.075L473.044 143.794" fill="white"/>
<path d="M477.244 156.255C476.344 141.363 475.544 136.602 468.244 137.919C462.244 139.033 463.144 155.647 462.644 157.674C462.144 159.7 459.444 169.729 459.444 169.729C465.844 169.526 473.244 169.628 477.644 169.628C477.644 169.628 477.444 159.598 477.244 156.255Z" fill="url(#paint8_linear)"/>
<path d="M460.144 172.363C459.244 182.089 462.244 204.376 462.244 204.376L466.044 203.971C466.344 202.553 467.744 181.379 467.844 172.262C467.944 167.906 460.644 166.994 460.144 172.363Z" fill="url(#paint9_linear)"/>
<path d="M470.944 172.363C470.044 182.089 473.044 204.376 473.044 204.376L476.844 203.971C477.144 202.553 478.544 181.379 478.644 172.262C478.644 167.906 471.444 166.994 470.944 172.363Z" fill="url(#paint10_linear)"/>
<path d="M473.044 131.131C472.744 129.105 471.844 128.497 469.744 129.51C468.444 130.219 465.844 130.726 464.744 130.118C464.744 130.625 464.844 131.232 464.944 131.739C464.844 131.739 464.844 131.739 464.744 131.739C464.644 131.84 464.544 131.942 464.444 132.043C464.144 132.549 464.344 133.157 464.644 133.562C464.844 133.866 465.244 133.968 465.544 134.069C466.144 135.791 467.144 137.108 468.444 137.21C468.544 137.716 468.544 138.223 468.444 138.932C468.544 139.438 470.544 139.337 471.144 138.83C471.044 138.121 470.844 137.615 470.844 137.007C472.244 136.804 472.844 134.981 473.344 133.056C475.444 131.942 473.944 129.713 473.044 131.131Z" fill="#FFDEDE"/>
<path d="M479.844 168.007H458.244C457.144 168.007 456.244 167.095 456.244 165.981V152.405C456.244 151.291 457.144 150.379 458.244 150.379H479.844C480.944 150.379 481.844 151.291 481.844 152.405V166.082C481.744 167.095 480.944 168.007 479.844 168.007Z" fill="url(#paint11_linear)"/>
<path d="M480.944 170.033H457.144C456.644 170.033 456.244 169.628 456.244 169.121V168.919C456.244 168.412 456.644 168.007 457.144 168.007H480.944C481.444 168.007 481.844 168.412 481.844 168.919V169.121C481.744 169.628 481.344 170.033 480.944 170.033Z" fill="url(#paint12_linear)"/>
<path d="M159.744 173.843L158.044 175.768L151.744 176.781L160.144 179.01L162.444 175.059L159.744 173.843Z" fill="#030478"/>
<path d="M201.544 141.729C204.144 149.124 201.544 151.15 197.044 152.67C195.244 153.278 180.544 151.859 176.144 153.278C171.744 154.696 162.444 176.578 162.444 176.578L158.444 174.147C158.444 174.147 167.644 148.516 168.944 147.605C171.044 146.186 183.144 144.971 186.644 143.957C190.144 143.046 192.844 139.399 192.844 139.399L201.544 141.729Z" fill="url(#paint13_linear)"/>
<path d="M200.344 124.912C200.344 124.912 199.344 135.346 198.144 137.474C196.944 139.601 182.944 144.363 181.744 144.464C180.544 144.565 178.544 143.552 178.544 143.552C178.544 143.552 175.444 144.667 174.944 144.363C174.444 144.059 177.744 141.729 178.944 141.526C180.244 141.323 182.144 142.235 182.144 142.235C182.144 142.235 192.944 137.676 194.144 135.752C195.344 133.827 196.244 124.101 196.244 124.101L200.344 124.912Z" fill="#F8C3C7"/>
<path d="M198.844 113.261L200.044 118.225L196.644 119.036L196.044 114.984L198.844 113.261Z" fill="#FFCCCC"/>
<path d="M199.044 112.046C199.044 112.147 198.944 112.248 198.944 112.451C198.844 113.363 198.544 114.274 198.044 114.984C197.444 115.794 196.644 116.402 195.644 116.503C194.744 116.604 193.944 116.199 193.244 115.591C192.644 114.984 192.144 114.173 191.844 113.363C191.344 112.046 190.844 110.425 191.544 109.209C191.944 108.601 193.844 107.689 195.144 107.082C195.944 106.676 196.944 106.879 197.544 107.588L198.844 109.108C199.344 109.716 199.544 110.425 199.244 111.134L199.044 112.046Z" fill="#FFCCCC"/>
<path d="M197.144 108.399C197.544 108.297 197.944 108.601 198.144 108.905C198.344 109.31 198.244 109.716 198.044 110.121C197.844 110.526 197.544 110.83 197.344 111.134C197.844 111.944 198.744 112.856 198.644 113.768C199.344 113.363 199.344 112.755 199.844 112.147C200.844 110.931 202.444 106.17 198.844 104.853C194.944 99.6862 189.344 107.588 188.444 107.183C188.444 108.196 189.444 109.918 191.544 110.222C192.444 110.323 193.444 110.222 194.244 109.716C194.644 109.513 195.044 109.209 195.444 109.006C195.744 108.905 196.144 110.323 196.344 110.222C196.644 110.121 196.744 108.5 197.144 108.399Z" fill="#241D9E"/>
<path d="M161.044 175.059L159.344 176.984L153.144 177.895L161.544 180.226L163.844 176.173L161.044 175.059Z" fill="#030478"/>
<path d="M201.144 140.513C203.744 147.908 202.844 152.366 198.344 153.886C196.544 154.493 175.844 154.696 175.844 154.696L163.844 177.895L159.844 175.464C159.844 175.464 169.844 149.631 170.944 148.618C172.144 147.706 184.144 145.984 187.644 144.971C191.144 144.059 192.644 138.183 192.644 138.183L201.144 140.513Z" fill="url(#paint14_linear)"/>
<path d="M195.244 118.529C198.544 115.693 203.044 117.212 203.344 126.634C203.644 135.549 203.544 147.199 203.544 147.199C197.844 148.516 191.844 146.591 186.844 144.261C186.844 144.261 191.544 138.284 192.544 132.51C193.244 127.748 192.544 120.859 195.244 118.529Z" fill="#5EB6FF"/>
<path d="M197.844 125.621C198.944 125.824 199.644 126.837 199.544 127.951C199.244 131.091 198.444 136.967 197.544 138.588C196.344 140.716 185.144 145.072 183.944 145.173C183.144 145.274 182.044 144.869 181.444 144.565C181.044 144.363 180.544 144.363 180.044 144.565C179.144 144.869 177.544 145.376 177.144 145.173C176.644 144.869 179.944 142.539 181.144 142.337C181.844 142.235 182.844 142.438 183.544 142.742C184.144 142.944 184.744 142.944 185.244 142.641C187.344 141.526 192.644 138.588 193.544 137.069C194.344 135.752 195.044 130.585 195.444 127.647C195.544 126.229 196.644 125.418 197.844 125.621Z" fill="#FFCCCC"/>
<path d="M198.544 118.935C202.744 120.049 200.744 128.964 200.744 128.964C198.844 129.673 196.444 129.369 193.844 128.66C194.644 126.533 194.844 117.922 198.544 118.935Z" fill="white"/>
<path d="M170.344 145.882H186.644C187.144 145.882 187.544 145.477 187.544 144.971C187.544 144.464 187.144 144.059 186.644 144.059H171.144L168.944 129.471C168.844 128.964 168.344 128.559 167.844 128.66C167.344 128.761 166.944 129.268 167.044 129.774L169.344 145.173C169.544 145.578 169.944 145.882 170.344 145.882Z" fill="url(#paint15_linear)"/>
<path d="M177.644 255.294H233.944C236.044 255.294 237.844 253.572 237.844 251.343V158.039C237.844 155.912 236.144 154.088 233.944 154.088H177.644C175.544 154.088 173.744 155.81 173.744 158.039V251.343C173.844 253.572 175.544 255.294 177.644 255.294Z" fill="url(#paint16_linear)"/>
<path d="M173.794 248.485H237.794V160.956H173.794V248.485Z" fill="white"/>
<path opacity="0.69" d="M178.444 166.245C178.444 165.536 179.044 165.029 179.644 165.029H231.944C232.644 165.029 233.144 165.637 233.144 166.245C233.144 166.954 232.544 167.461 231.944 167.461H179.644C178.944 167.461 178.444 166.954 178.444 166.245Z" fill="#E2F1FF"/>
<path opacity="0.69" d="M178.444 171.716C178.444 171.006 179.044 170.5 179.644 170.5H231.944C232.644 170.5 233.144 171.108 233.144 171.716C233.144 172.425 232.544 172.931 231.944 172.931H179.644C178.944 173.033 178.444 172.425 178.444 171.716Z" fill="#E2F1FF"/>
<path opacity="0.69" d="M178.444 177.288C178.444 176.578 179.044 176.072 179.644 176.072H231.944C232.644 176.072 233.144 176.68 233.144 177.288C233.144 177.997 232.544 178.503 231.944 178.503H179.644C178.944 178.503 178.444 177.895 178.444 177.288Z" fill="#E2F1FF"/>
<path opacity="0.69" d="M178.444 182.758C178.444 182.049 179.044 181.542 179.644 181.542H231.944C232.644 181.542 233.144 182.15 233.144 182.758C233.144 183.467 232.544 183.974 231.944 183.974H179.644C178.944 183.974 178.444 183.467 178.444 182.758Z" fill="#E2F1FF"/>
<path d="M182.944 229.056H228.644C231.144 229.056 233.244 227.029 233.244 224.395V191.369C233.244 188.837 231.244 186.709 228.644 186.709H182.944C180.444 186.709 178.344 188.735 178.344 191.369V224.497C178.444 227.029 180.444 229.056 182.944 229.056Z" fill="#E2F1FF"/>
<path d="M181.044 237.261H230.644C232.044 237.261 233.244 238.477 233.244 239.895V241.212C233.244 242.631 232.044 243.846 230.644 243.846H181.044C179.644 243.846 178.444 242.631 178.444 241.212V239.895C178.444 238.376 179.544 237.261 181.044 237.261ZM178.444 233.513C178.444 234.222 178.944 234.729 179.644 234.729H232.044C232.744 234.729 233.244 234.222 233.244 233.513C233.244 232.804 232.744 232.297 232.044 232.297H179.644C178.944 232.297 178.444 232.804 178.444 233.513Z" fill="#E2F1FF"/>
<path d="M255.144 208.592C256.244 208.794 262.744 206.971 265.444 204.641C265.444 204.641 261.844 191.167 261.944 187.824C262.044 184.48 260.244 177.49 257.944 182.758C255.644 188.026 255.144 208.592 255.144 208.592Z" fill="url(#paint17_linear)"/>
<path d="M255.344 250.026L255.244 252.255L260.144 255.294H251.744L252.944 249.317L255.344 250.026Z" fill="#030478"/>
<path d="M250.044 202.614C249.944 206.667 252.444 251.647 252.444 251.647L255.644 252.255L260.244 203.121L250.044 202.614Z" fill="url(#paint18_linear)"/>
<path d="M259.644 250.026L259.544 252.255L264.444 255.294H256.044L257.244 249.317L259.644 250.026Z" fill="#030478"/>
<path d="M254.344 202.614C254.244 206.667 256.744 251.647 256.744 251.647L259.944 252.255L263.044 202.716L254.344 202.614Z" fill="url(#paint19_linear)"/>
<path d="M252.844 205.248C259.744 205.451 263.044 203.526 263.444 202.918C263.844 202.209 263.344 201.804 263.044 200.892C262.144 197.346 259.844 188.127 259.944 185.493C260.044 182.15 258.244 175.16 255.944 180.428C253.544 185.696 252.844 205.248 252.844 205.248Z" fill="white"/>
<path d="M288.944 189.343L271.544 204.033L267.244 195.928L282.344 184.582L288.944 189.343Z" fill="#030478"/>
<path d="M287.644 189.444L271.644 202.614L267.844 196.029L282.244 185.19L287.644 189.444Z" fill="white"/>
<path d="M288.144 188.026L287.444 188.533L283.144 185.493L283.744 185.088L288.144 188.026Z" fill="#00D1FF"/>
<path d="M277.244 179.82L277.544 182.859C277.544 182.859 266.044 195.219 255.544 183.467L256.344 176.477C256.344 176.477 262.944 190.559 277.244 179.82Z" fill="url(#paint20_linear)"/>
<path d="M277.244 179.82C278.644 179.314 279.244 177.794 280.044 179.415C281.544 182.454 277.544 182.86 277.544 182.86L277.244 179.82Z" fill="#FFCCCC"/>
<path d="M278.344 173.64L280.644 182.556L280.544 183.771L279.844 182.859L277.544 173.944C277.544 173.235 278.044 173.033 278.344 173.64Z" fill="#030478"/>
<path d="M278.544 180.327C278.544 180.327 280.244 180.935 280.444 180.631C280.644 180.327 279.144 179.618 278.744 179.111C278.444 178.605 277.744 180.023 277.744 180.023L278.544 180.327Z" fill="#FFCCCC"/>
<path d="M259.544 171.716L257.844 175.667L256.244 174.35L256.044 169.892L259.544 171.716Z" fill="#FFCCCC"/>
<path d="M262.844 165.232C263.544 169.69 263.344 172.628 260.144 172.83C257.144 173.033 254.644 168.271 254.644 168.271C252.344 163.206 261.644 157.634 262.844 165.232Z" fill="#FFCCCC"/>
<path d="M265.144 160.876C262.144 165.232 257.944 165.941 256.644 165.435C256.044 165.232 256.044 165.941 256.244 167.258C254.544 166.448 255.144 168.575 256.344 169.386C256.744 170.196 256.844 171.31 256.844 171.31C256.844 171.31 252.744 168.575 252.744 165.738C252.744 162.294 255.244 162.598 255.244 162.598C255.244 162.598 256.744 157.938 260.944 159.356C265.144 160.876 265.144 160.876 265.144 160.876Z" fill="#241D9E"/>
<path d="M259.344 174.552L255.244 172.222L254.144 174.35L260.044 177.693L259.344 174.552Z" fill="white"/>
<path d="M278.744 195.928L278.244 199.676C278.344 199.778 265.544 204.641 260.044 190.154C260.044 190.154 261.444 199.879 263.444 206.971C263.444 206.971 257.144 210.01 248.844 208.591C248.844 208.591 247.744 182.859 253.344 174.856C256.344 170.601 260.544 177.591 261.544 181.846C262.844 187.216 265.944 199.373 278.744 195.928Z" fill="url(#paint21_linear)"/>
<path d="M278.744 195.928C278.744 195.928 280.944 195.32 281.744 195.827C282.544 196.333 281.444 198.157 280.444 199.17C279.444 200.183 278.244 199.575 278.244 199.575L278.744 195.928Z" fill="#FFCCCC"/>
<defs>
<linearGradient id="paint0_linear" x1="225.265" y1="37.2" x2="625.702" y2="75.5027" gradientUnits="userSpaceOnUse">
<stop stop-color="#EBEDFB"/>
<stop offset="1" stop-color="#EFECFB"/>
</linearGradient>
<linearGradient id="paint1_linear" x1="60.4" y1="268.505" x2="106.236" y2="272.151" gradientUnits="userSpaceOnUse">
<stop stop-color="#EBEDFB"/>
<stop offset="1" stop-color="#EFECFB"/>
</linearGradient>
<linearGradient id="paint2_linear" x1="108.557" y1="284.595" x2="121.055" y2="265.047" gradientUnits="userSpaceOnUse">
<stop stop-color="#EBEDFB"/>
<stop offset="1" stop-color="#EFECFB"/>
</linearGradient>
<linearGradient id="paint3_linear" x1="316.557" y1="51.5887" x2="329.055" y2="32.0404" gradientUnits="userSpaceOnUse">
<stop stop-color="#EBEDFB"/>
<stop offset="1" stop-color="#EFECFB"/>
</linearGradient>
<linearGradient id="paint4_linear" x1="12.8739" y1="53.0849" x2="431.608" y2="100.731" gradientUnits="userSpaceOnUse">
<stop stop-color="#EBEDFB"/>
<stop offset="1" stop-color="#E5DFFC"/>
</linearGradient>
<linearGradient id="paint5_linear" x1="353.72" y1="54.6051" x2="282.986" y2="223.825" gradientUnits="userSpaceOnUse">
<stop stop-color="#085EFF"/>
<stop offset="0.9981" stop-color="#0E0092"/>
</linearGradient>
<linearGradient id="paint6_linear" x1="323.319" y1="197.329" x2="323.319" y2="253.181" gradientUnits="userSpaceOnUse">
<stop stop-color="#085EFF"/>
<stop offset="0.9981" stop-color="#0E0092"/>
</linearGradient>
<linearGradient id="paint7_linear" x1="322.323" y1="163.486" x2="322.323" y2="207.891" gradientUnits="userSpaceOnUse">
<stop stop-color="#FFC504"/>
<stop offset="0.2528" stop-color="#FFB504"/>
<stop offset="0.7431" stop-color="#FF8C05"/>
<stop offset="1" stop-color="#FF7406"/>
</linearGradient>
<linearGradient id="paint8_linear" x1="468.594" y1="128.962" x2="468.594" y2="160.866" gradientUnits="userSpaceOnUse">
<stop stop-color="#FF6570"/>
<stop offset="1" stop-color="#EC374F"/>
</linearGradient>
<linearGradient id="paint9_linear" x1="463.933" y1="166.954" x2="463.933" y2="200.967" gradientUnits="userSpaceOnUse">
<stop stop-color="#FFC504"/>
<stop offset="0.2528" stop-color="#FFB504"/>
<stop offset="0.7431" stop-color="#FF8C05"/>
<stop offset="1" stop-color="#FF7406"/>
</linearGradient>
<linearGradient id="paint10_linear" x1="474.684" y1="166.954" x2="474.684" y2="200.967" gradientUnits="userSpaceOnUse">
<stop stop-color="#FFC504"/>
<stop offset="0.2528" stop-color="#FFB504"/>
<stop offset="0.7431" stop-color="#FF8C05"/>
<stop offset="1" stop-color="#FF7406"/>
</linearGradient>
<linearGradient id="paint11_linear" x1="469.019" y1="178.062" x2="469.019" y2="148.866" gradientUnits="userSpaceOnUse">
<stop offset="0.00102163" stop-color="#2212BB"/>
<stop offset="0.4428" stop-color="#7812DA"/>
<stop offset="1" stop-color="#E112FF"/>
</linearGradient>
<linearGradient id="paint12_linear" x1="469.019" y1="178.154" x2="469.019" y2="159.912" gradientUnits="userSpaceOnUse">
<stop offset="0.00102163" stop-color="#2212BB"/>
<stop offset="0.4428" stop-color="#7812DA"/>
<stop offset="1" stop-color="#E112FF"/>
</linearGradient>
<linearGradient id="paint13_linear" x1="189.401" y1="141.962" x2="170.347" y2="172.426" gradientUnits="userSpaceOnUse">
<stop stop-color="#085EFF"/>
<stop offset="0.9981" stop-color="#0E0092"/>
</linearGradient>
<linearGradient id="paint14_linear" x1="188.434" y1="146.31" x2="162.137" y2="189.341" gradientUnits="userSpaceOnUse">
<stop stop-color="#085EFF"/>
<stop offset="0.9981" stop-color="#0E0092"/>
</linearGradient>
<linearGradient id="paint15_linear" x1="167.12" y1="137.246" x2="187.586" y2="137.246" gradientUnits="userSpaceOnUse">
<stop stop-color="#FFC504"/>
<stop offset="0.2528" stop-color="#FFB504"/>
<stop offset="0.7431" stop-color="#FF8C05"/>
<stop offset="1" stop-color="#FF7406"/>
</linearGradient>
<linearGradient id="paint16_linear" x1="257.371" y1="172.666" x2="137.497" y2="245.315" gradientUnits="userSpaceOnUse">
<stop stop-color="#085EFF"/>
<stop offset="0.9981" stop-color="#0E0092"/>
</linearGradient>
<linearGradient id="paint17_linear" x1="253.217" y1="180.161" x2="262.282" y2="207.576" gradientUnits="userSpaceOnUse">
<stop stop-color="#FF6570"/>
<stop offset="1" stop-color="#EC374F"/>
</linearGradient>
<linearGradient id="paint18_linear" x1="255.094" y1="192.918" x2="255.094" y2="239.655" gradientUnits="userSpaceOnUse">
<stop stop-color="#085EFF"/>
<stop offset="0.9981" stop-color="#0E0092"/>
</linearGradient>
<linearGradient id="paint19_linear" x1="258.656" y1="200.426" x2="258.656" y2="253.391" gradientUnits="userSpaceOnUse">
<stop stop-color="#085EFF"/>
<stop offset="0.9981" stop-color="#0E0092"/>
</linearGradient>
<linearGradient id="paint20_linear" x1="286.391" y1="180.746" x2="255.743" y2="182.827" gradientUnits="userSpaceOnUse">
<stop stop-color="#FF6570"/>
<stop offset="1" stop-color="#EC374F"/>
</linearGradient>
<linearGradient id="paint21_linear" x1="263.742" y1="176.727" x2="263.742" y2="212.58" gradientUnits="userSpaceOnUse">
<stop stop-color="#FF6570"/>
<stop offset="1" stop-color="#EC374F"/>
</linearGradient>
</defs>
</svg>
