<svg width="291" height="209" viewBox="0 0 291 209" fill="none" xmlns="http://www.w3.org/2000/svg">
<path d="M284.029 57.9111C296.329 66.9111 287.829 94.9111 282.129 95.6111C278.629 96.0111 277.929 86.0111 265.529 73.5111C259.329 67.2111 255.629 65.9111 256.029 63.1111C256.929 57.4111 274.829 51.2111 284.029 57.9111Z" fill="#B1C7F2"/>
<path d="M280.07 148.311C279.77 156.511 278.67 164.411 276.97 171.611C276.07 175.411 274.97 179.011 273.77 182.611C273.37 183.811 272.97 184.911 272.47 186.011H246.67H246.57C246.57 186.011 246.57 186.011 246.47 186.011C246.37 186.011 246.37 186.011 246.27 186.011H246.17C246.07 186.011 245.97 186.011 245.87 186.011C245.77 186.011 245.57 186.011 245.37 186.011C245.07 186.011 244.57 186.011 244.07 185.911C243.77 185.911 243.37 185.911 242.97 185.911C242.67 185.911 242.47 185.911 242.17 185.911C241.87 185.911 241.57 185.911 241.27 185.911C240.67 185.911 240.07 185.911 239.37 185.911C238.37 185.911 237.17 185.911 235.97 185.811C234.87 185.811 233.77 185.811 232.57 185.811C229.47 185.811 226.07 185.711 222.17 185.711C221.27 185.711 220.37 185.711 219.37 185.711C218.87 185.711 218.27 185.711 217.77 185.711C216.77 185.711 215.87 185.711 214.87 185.711C174.57 185.511 104.67 185.711 57.3703 185.711C60.9703 179.011 64.1703 171.711 62.5703 162.111C57.4703 130.811 10.2703 130.811 1.8703 103.211C1.7703 102.711 1.5703 102.211 1.4703 101.711C-1.2297 90.8111 2.4703 77.8111 9.87031 64.8111C12.7703 59.7111 16.2703 54.7111 20.0703 49.7111C37.7703 27.2111 63.9703 7.51112 83.8703 2.31112C90.9703 0.411119 97.3703 0.511118 102.17 2.91112C122.27 13.1111 104.77 55.3111 130.47 74.0111C162.17 97.1111 209.87 47.4111 248.37 68.9111C272.17 82.0111 281.37 116.911 280.07 148.311Z" fill="#D0DDF7"/>
<path d="M71.5703 127.611C54.5703 115.211 66.2703 76.4111 74.1703 75.4111C78.9703 74.8111 79.9703 88.7111 97.0703 105.911C105.67 114.611 110.77 116.411 110.27 120.311C109.07 128.311 84.2703 136.911 71.5703 127.611Z" fill="#B1C7F2"/>
<path d="M44.729 173.729C52.227 166.231 52.227 154.074 44.729 146.576C37.231 139.078 25.0743 139.078 17.5763 146.576C10.0783 154.074 10.0783 166.231 17.5763 173.729C25.0743 181.227 37.231 181.227 44.729 173.729Z" fill="#B1C7F2"/>
<path d="M149.701 23.6741C150.556 18.3855 146.963 13.4047 141.674 12.5491C136.385 11.6936 131.405 15.2873 130.549 20.5759C129.694 25.8645 133.287 30.8453 138.576 31.7008C143.864 32.5564 148.845 28.9627 149.701 23.6741Z" fill="#B1C7F2"/>
<path d="M154.599 208.842C136.968 208.842 119.438 208.684 101.807 209C99.0018 209 98 207.893 98 203.149C98.1002 152.228 98 101.307 98 50.386C98 41.8465 99.9033 39 105.413 39C138.471 39 171.629 39 204.687 39C209.496 39 212 42.7953 212 50.386C212 100.516 212 150.805 212 200.935C212 208.209 211.499 208.842 207.091 208.842C189.46 208.842 172.03 208.842 154.599 208.842Z" fill="white"/>
<path d="M124.5 65.6C124.5 68.3 124.5 70.9 124.5 73.6C124.5 75.6 123.7 76.6 121.6 76.6C116.1 76.6 110.7 76.6 105.2 76.6C103.4 76.6 102.7 75.8 102.7 74.1C102.7 68.5 102.8 63.0001 102.7 57.4001C102.7 55.5001 103.6 54.5001 105.3 54.4001C111 54.3001 116.7 54.3 122.4 54.3C124.2 54.3 124.4 55.5001 124.4 56.9001C124.5 59.8001 124.5 62.7 124.5 65.6Z" fill="#EDD366"/>
<path d="M102.8 96.2999C102.8 93.6999 102.9 91.1999 102.8 88.5999C102.7 86.5999 103.4 85.5999 105.6 85.6999C111.1 85.7999 116.5 85.7999 122 85.6999C124 85.6999 124.6 86.5999 124.6 88.3999C124.5 93.6999 124.5 99.0999 124.6 104.4C124.6 106.4 124.1 107.4 121.9 107.3C116.4 107.2 111 107.2 105.5 107.3C103.5 107.3 102.9 106.4 102.9 104.6C102.9 101.8 102.8 99.0999 102.8 96.2999Z" fill="#C5CFEF"/>
<path d="M102.8 127.7C102.8 125.1 102.9 122.6 102.8 120C102.7 118 103.4 117 105.6 117.1C111.1 117.2 116.5 117.2 122 117.1C123.7 117.1 124.5 117.8 124.5 119.6C124.5 125.1 124.5 130.5 124.5 136C124.5 138.1 123.5 138.9 121.5 138.8C116.2 138.8 110.8 138.7 105.5 138.8C103.5 138.8 102.8 138 102.9 136.1C102.9 133.2 102.8 130.4 102.8 127.7Z" fill="#C5CFEF"/>
<path d="M155.2 46.6C144.7 46.6 134.3 46.6 123.8 46.6C121.5 46.6 118.2 46.7 118.3 44C118.3 41.1 121.5 41 124.1 41C144.9 41 165.7 41 186.5 41C187.2 41 187.9 41 188.6 41C190.5 41.1 191.3 42.4 191.4 44C191.5 45.7 190.2 46.4 188.7 46.5C187.2 46.6 185.7 46.5 184.2 46.5C174.4 46.6 164.8 46.6 155.2 46.6Z" fill="#F3F4F4"/>
<path d="M163.2 133.2C152.7 133.2 142.3 133.2 131.8 133.2C130.8 133.2 129.1 133.8 129 132.1C128.9 130.3 130.6 130.4 131.9 130.4C152.9 130.4 174 130.4 195 130.4C196.1 130.4 197.7 130.1 197.6 131.8C197.6 133.5 196 133.2 194.9 133.2C184.4 133.2 173.8 133.2 163.2 133.2Z" fill="#C5CFEF"/>
<path d="M163.7 71C153.3 71 143 71 132.6 71C131.5 71 129.6 71.7 129.6 69.7C129.6 68 131.4 68.2 132.6 68.2C153.4 68.2 174.2 68.2 195.1 68.2C196.2 68.2 197.9 67.9 198 69.4C198.1 71.3 196.3 70.9 195.1 70.9C184.7 71.1 174.2 71 163.7 71Z" fill="#C5CFEF"/>
<path d="M163.6 94.1C174.1 94.1 184.5 94.1 195 94.1C196.1 94.1 197.8 93.6 197.9 95.2C198 96.8 196.3 96.9001 195 96.9001C174.1 96.9001 153.2 96.9001 132.3 96.9001C130.9 96.9001 129.4 96.6001 129.5 95.0001C129.5 93.3001 153.2 94.1 163.6 94.1Z" fill="#C5CFEF"/>
<path d="M163.2 127.6C152.9 127.6 142.5 127.6 132.2 127.6C131.1 127.6 129.4 128 129.3 126.5C129.2 124.9 130.9 124.8 132.2 124.8C153.2 124.8 174.2 124.8 195.3 124.8C196.3 124.8 197.7 124.7 197.6 126.2C197.5 127.9 196 127.5 194.9 127.5C184.4 127.6 173.8 127.6 163.2 127.6Z" fill="#C5CFEF"/>
<path d="M163.7 136C174 136 184.4 136 194.7 136C195.7 136 197.4 135.4 197.5 137.1C197.6 138.9 195.8 138.7 194.6 138.7C173.9 138.7 153.2 138.7 132.5 138.7C131.6 138.7 130.6 138.8 129.8 138.1C128.8 137.3 128.8 136.5 130.1 136.1C131 135.9 131.9 135.9 132.9 135.9C143.2 136 153.5 136 163.7 136Z" fill="#C5CFEF"/>
<path d="M163.5 107.4C153.2 107.4 142.8 107.4 132.5 107.4C131.5 107.4 129.8 108 129.7 106.3C129.6 104.5 131.3 104.7 132.6 104.7C153.3 104.7 174 104.7 194.7 104.7C195.6 104.7 196.6 104.7 197.4 105.3C198.4 106.1 198.4 106.9 197.1 107.3C196.2 107.5 195.3 107.5 194.3 107.5C184 107.4 173.8 107.4 163.5 107.4Z" fill="#C5CFEF"/>
<path d="M163.6 65.5C153.4 65.5 143.2 65.5 132.9 65.5C131.7 65.5 129.7 66.4 129.7 64.2C129.7 62.5 131.5 62.8 132.8 62.8C153.4 62.8 173.9 62.8 194.5 62.8C195.7 62.8 197.6 62.5 197.6 64.2C197.6 66.4 195.5 65.5 194.4 65.5C184.1 65.5 173.8 65.5 163.6 65.5Z" fill="#C5CFEF"/>
<path d="M163.7 73.8001C174 73.8001 184.4 73.8001 194.7 73.8001C195.7 73.8001 197.4 73.3001 197.5 74.9001C197.6 76.7001 195.8 76.5001 194.6 76.5001C173.9 76.5001 153.3 76.5001 132.6 76.5001C131.4 76.5001 129.6 76.7001 129.6 75.0001C129.7 73.1001 131.6 73.8001 132.7 73.8001C143.1 73.8001 153.4 73.8001 163.7 73.8001Z" fill="#C5CFEF"/>
<path d="M163.8 99.6C174.1 99.6 184.5 99.6 194.8 99.6C195.8 99.6 197.6 99 197.5 100.7C197.4 102.8 195.7 101.8 194.6 101.8C181.5 101.8 168.3 101.7 155.2 101.8C147.9 101.9 129.5 102.2 129.7 100.5C129.9 99.2001 131.4 99.6 132.4 99.6C142.9 99.6 153.3 99.6 163.8 99.6Z" fill="#C5CFEF"/>
<path d="M144.3 120.9C140.2 120.9 136.2 120.9 132.2 120.9C131 120.9 129.4 120.9 129.3 119.1C129.2 117.2 130.7 116.8 132.1 116.8C140 116.7 147.8 116.8 155.7 116.8C157.2 116.8 158.6 117.3 158.5 119.1C158.4 121 156.8 121 155.4 121C151.7 121 148 121 144.3 121C144.3 121 144.3 121 144.3 120.9Z" fill="#9AA9D1"/>
<path d="M141.4 85.5C144.4 85.5 147.4 85.5 150.4 85.5C151.8 85.5 153.1 85.8 153.1 87.5C153.1 89.1 151.9 89.6 150.5 89.6C144.4 89.6 138.2 89.6 132.1 89.6C130.6 89.6 129.2 89.1 129.3 87.3C129.3 85.5 130.9 85.5 132.1 85.5C135.1 85.4 138.2 85.5 141.4 85.5Z" fill="#9AA9D1"/>
<path d="M102.8 159.844C102.8 157.244 102.9 154.744 102.8 152.144C102.7 150.144 103.4 149.144 105.6 149.244C111.1 149.344 116.5 149.344 122 149.244C124 149.244 124.6 150.144 124.6 151.944C124.5 157.244 124.5 162.644 124.6 167.944C124.6 169.944 124.1 170.944 121.9 170.844C116.4 170.744 111 170.744 105.5 170.844C103.5 170.844 102.9 169.944 102.9 168.144C102.9 165.344 102.8 162.644 102.8 159.844Z" fill="#C5CFEF"/>
<path d="M102.8 191.244C102.8 188.644 102.9 186.144 102.8 183.544C102.7 181.544 103.4 180.544 105.6 180.644C111.1 180.744 116.5 180.744 122 180.644C123.7 180.644 124.5 181.344 124.5 183.144C124.5 188.644 124.5 194.044 124.5 199.544C124.5 201.644 123.5 202.444 121.5 202.344C116.2 202.344 110.8 202.244 105.5 202.344C103.5 202.344 102.8 201.544 102.9 199.644C102.9 196.744 102.8 193.944 102.8 191.244Z" fill="#C5CFEF"/>
<path d="M163.2 196.744C152.7 196.744 142.3 196.744 131.8 196.744C130.8 196.744 129.1 197.344 129 195.644C128.9 193.844 130.6 193.944 131.9 193.944C152.9 193.944 174 193.944 195 193.944C196.1 193.944 197.7 193.644 197.6 195.344C197.6 197.044 196 196.744 194.9 196.744C184.4 196.744 173.8 196.744 163.2 196.744Z" fill="#C5CFEF"/>
<path d="M163.6 157.644C174.1 157.644 184.5 157.644 195 157.644C196.1 157.644 197.8 157.144 197.9 158.744C198 160.344 196.3 160.444 195 160.444C174.1 160.444 153.2 160.444 132.3 160.444C130.9 160.444 129.4 160.144 129.5 158.544C129.5 156.844 153.2 157.644 163.6 157.644Z" fill="#C5CFEF"/>
<path d="M163.2 191.144C152.9 191.144 142.5 191.144 132.2 191.144C131.1 191.144 129.4 191.544 129.3 190.044C129.2 188.444 130.9 188.344 132.2 188.344C153.2 188.344 174.2 188.344 195.3 188.344C196.3 188.344 197.7 188.244 197.6 189.744C197.5 191.444 196 191.044 194.9 191.044C184.4 191.144 173.8 191.144 163.2 191.144Z" fill="#C5CFEF"/>
<path d="M163.7 199.544C174 199.544 184.4 199.544 194.7 199.544C195.7 199.544 197.4 198.944 197.5 200.644C197.6 202.444 195.8 202.244 194.6 202.244C173.9 202.244 153.2 202.244 132.5 202.244C131.6 202.244 130.6 202.344 129.8 201.644C128.8 200.844 128.8 200.044 130.1 199.644C131 199.444 131.9 199.444 132.9 199.444C143.2 199.544 153.5 199.544 163.7 199.544Z" fill="#C5CFEF"/>
<path d="M163.5 170.944C153.2 170.944 142.8 170.944 132.5 170.944C131.5 170.944 129.8 171.544 129.7 169.844C129.6 168.044 131.3 168.244 132.6 168.244C153.3 168.244 174 168.244 194.7 168.244C195.6 168.244 196.6 168.244 197.4 168.844C198.4 169.644 198.4 170.444 197.1 170.844C196.2 171.044 195.3 171.044 194.3 171.044C184 170.944 173.8 170.944 163.5 170.944Z" fill="#C5CFEF"/>
<path d="M163.8 163.144C174.1 163.144 184.5 163.144 194.8 163.144C195.8 163.144 197.6 162.544 197.5 164.244C197.4 166.344 195.7 165.344 194.6 165.344C181.5 165.344 168.3 165.244 155.2 165.344C147.9 165.444 129.5 165.744 129.7 164.044C129.9 162.744 131.4 163.144 132.4 163.144C142.9 163.144 153.3 163.144 163.8 163.144Z" fill="#C5CFEF"/>
<path d="M144.3 184.444C140.2 184.444 136.2 184.444 132.2 184.444C131 184.444 129.4 184.444 129.3 182.644C129.2 180.744 130.7 180.344 132.1 180.344C140 180.244 147.8 180.344 155.7 180.344C157.2 180.344 158.6 180.844 158.5 182.644C158.4 184.544 156.8 184.544 155.4 184.544C151.7 184.544 148 184.544 144.3 184.544C144.3 184.544 144.3 184.544 144.3 184.444Z" fill="#9AA9D1"/>
<path d="M141.4 149.044C144.4 149.044 147.4 149.044 150.4 149.044C151.8 149.044 153.1 149.344 153.1 151.044C153.1 152.644 151.9 153.144 150.5 153.144C144.4 153.144 138.2 153.144 132.1 153.144C130.6 153.144 129.2 152.644 129.3 150.844C129.3 149.044 130.9 149.044 132.1 149.044C135.1 148.944 138.2 149.044 141.4 149.044Z" fill="#9AA9D1"/>
<path d="M108.2 42.5C108.1 43.3 107.8 43.8 107 43.9C106.2 44 105.7 43.5 105.7 42.7C105.7 41.9 106.1 41.4 106.9 41.3C107.7 41.2 108.1 41.7 108.2 42.5Z" fill="#E1C68A"/>
<path d="M109.8 42.6C109.9 41.7 110.4 41.3 111.2 41.4C112 41.4 112.5 41.9 112.4 42.7C112.3 43.4 111.9 43.9 111.1 43.9C110.2 43.8 109.8 43.3 109.8 42.6Z" fill="#86D18A"/>
<path d="M103.8 43.1C103.8 43.4 103.3 43.9 102.5 43.8C101.9 43.8 101.4 43.3 101.4 42.7C101.4 41.9 101.9 41.4 102.7 41.5C103.4 41.5 103.8 41.9 103.8 43.1Z" fill="#A95961"/>
<path d="M149.7 54.7001C155.2 54.7001 160.6 54.7001 166.1 54.7001C167.6 54.7001 169.5 54.4001 169.5 56.6001C169.5 58.7001 167.5 58.6001 166.1 58.6001C154.8 58.6001 143.5 58.6001 132.3 58.6001C131 58.6001 129.2 58.7001 129.3 56.6001C129.3 54.5001 131 54.7001 132.4 54.7001C138.1 54.7001 143.9 54.8001 149.7 54.7001Z" fill="#9AA9D1"/>
<path d="M220 42C221.1 38.7 223.3 36.9 224.7 34.6C225.3 33.5 225.6 32.4 225.6 31.2C225.6 23.8 225.6 16.3 225.6 8.9C225.6 5.9 229.2 5.4 229.2 5.4L266 5C266 5 270.2 5.7 270.2 9.2C270.2 17.5 270.2 25.7 270.2 34C270.2 37.2 266.5 37.7 266.5 37.7L234.9 37.6C234.9 37.6 227.1 38.4 223.6 40.3C222.6 40.8 221.6 41.2 220 42Z" fill="#F0F4FC"/>
<path d="M261.5 21.2C262.4 21.6 263.2 22.1 264.1 22.5C266.2 23.6 266.2 25.6 266 27.6C265.8 29.4 264.2 29.1 263 29.3C260.5 29.8 257.9 29.7 255.3 29.3C254.1 29.1 252.3 29.4 252.2 27.4C252.1 25.4 252 23.4 254.2 22.3C255.1 21.9 255.9 21.4 256.8 21C258.5 21 260 21 261.5 21.2Z" fill="#7292F7"/>
<path d="M257.4 20.4C256.1 18.8 255.9 17 256.1 15.1C256.2 13.4 257.3 12.4 258.9 12.5C260.4 12.6 262 13.1 262.2 15.2C262.4 17.1 262 18.7 261 20.3C259.5 22.1 259.1 22.1 257.4 20.4Z" fill="#7292F7"/>
<path d="M236 15.8C234.5 15.8 233 15.8 231.5 15.8C230.5 15.8 229.8 15.2 229.8 14.1C229.8 13 230.5 12.4 231.6 12.4C234.6 12.4 237.7 12.4 240.7 12.4C241.7 12.4 242.5 12.8 242.6 13.9C242.6 15.2 241.9 15.7 240.7 15.7C239 15.8 237.5 15.8 236 15.8Z" fill="#C5CFEF"/>
<path d="M238.3 22.6C240.9 22.6 243.4 22.6 246 22.6C246.8 22.6 247.6 22.7 247.6 23.7C247.6 24.7 246.8 24.9 246 24.9C240.8 24.9 235.6 24.9 230.3 24.9C229.5 24.9 228.7 24.6 228.8 23.6C228.8 22.7 229.6 22.6 230.3 22.6C233 22.6 235.7 22.6 238.3 22.6Z" fill="#C5CFEF"/>
<path d="M238.1 28.5C235.8 28.5 233.4 28.5 231.1 28.5C230.2 28.5 229 28.6 228.9 27.4C228.8 26.1 230 26.2 230.9 26.2C235.9 26.2 240.9 26.2 245.9 26.2C246.8 26.2 247.8 26.2 247.7 27.3C247.7 28.4 246.7 28.4 245.8 28.4C243.2 28.5 240.6 28.5 238.1 28.5Z" fill="#C5CFEF"/>
<path d="M90.2 58C89.1 54.7 86.9 52.9 85.5 50.6C84.9 49.5 84.6 48.4 84.6 47.2C84.6 39.8 84.6 32.3 84.6 24.9C84.6 21.9 81 21.4 81 21.4L44.2 21C44.2 21 40 21.7 40 25.2C40 33.5 40 41.7 40 50C40 53.2 43.7 53.7 43.7 53.7L75.3 53.6C75.3 53.6 83.1 54.4 86.6 56.3C87.6 56.9 88.6 57.3 90.2 58Z" fill="#F0F4FC"/>
<path d="M48.7 37.3C47.8 37.7 47 38.2 46.1 38.6C44 39.7 44 41.7 44.2 43.7C44.4 45.5 46 45.2 47.2 45.4C49.7 45.9 52.3 45.8 54.9 45.4C56.1 45.2 57.9 45.5 58 43.5C58.1 41.5 58.2 39.5 56 38.4C55.1 38 54.3 37.5 53.4 37.1C51.7 37.1 50.2 37 48.7 37.3Z" fill="#C5CFEF"/>
<path d="M52.8 36.5C54.1 34.9 54.3 33.1 54.1 31.2C54 29.5 52.9 28.5 51.3 28.6C49.8 28.7 48.2 29.2 48 31.3C47.8 33.2 48.2 34.8 49.2 36.4C50.7 38.1 51.1 38.1 52.8 36.5Z" fill="#C5CFEF"/>
<path d="M74.3 31.8C75.8 31.8 77.3 31.8 78.8 31.8C79.8 31.8 80.5 31.2 80.5 30.1C80.5 29 79.8 28.4 78.7 28.4C75.7 28.4 72.6 28.4 69.6 28.4C68.6 28.4 67.8 28.8 67.7 29.9C67.7 31.2 68.4 31.7 69.6 31.7C71.2 31.9 72.7 31.8 74.3 31.8Z" fill="#C5CFEF"/>
<path d="M71.9 38.6C69.3 38.6 66.8 38.6 64.2 38.6C63.4 38.6 62.6 38.7 62.6 39.7C62.6 40.7 63.4 40.9 64.2 40.9C69.4 40.9 74.6 40.9 79.9 40.9C80.7 40.9 81.5 40.6 81.4 39.6C81.4 38.7 80.6 38.6 79.9 38.6C77.2 38.6 74.6 38.6 71.9 38.6Z" fill="#C5CFEF"/>
<path d="M72.1 44.5C74.4 44.5 76.8 44.5 79.1 44.5C80 44.5 81.2 44.6 81.3 43.4C81.4 42.1 80.2 42.2 79.3 42.2C74.3 42.2 69.3 42.2 64.3 42.2C63.4 42.2 62.4 42.2 62.5 43.3C62.5 44.4 63.5 44.4 64.4 44.4C67 44.5 69.6 44.5 72.1 44.5Z" fill="#C5CFEF"/>
</svg>
