<svg width="1920" height="126" viewBox="0 0 1920 126" fill="none" xmlns="http://www.w3.org/2000/svg">
<path d="M10 123C17.1667 104 47.0158 72.5754 97.5 52.4999C183 18.5 283.167 80.4999 343 102.5C402.833 124.5 515.6 115.9 764 65.4999C1074.5 2.49995 1391.5 -24 1624.5 26.5C1810.9 66.9 1818.5 80.7756 1878.5 102.5C1895.33 108.594 1917.04 112.642 1920 87.9839V75C1920.47 80.0204 1920.44 84.3191 1920 87.9839V123H552L421.5 123.5L339 123H10Z" fill="#15A0DB"/>
<path d="M0 126C7.16667 107 37.0158 86.5754 87.5 66.4999C173 32.5 273.167 85.4999 333 107.5C392.833 129.5 505.6 129.9 754 79.4999C1064.5 16.4999 1381.5 -10 1614.5 40.5C1800.9 80.9 1808.5 94.7756 1868.5 116.5C1885.98 122.829 1916.9 126.952 1920 98.9983V89C1920.34 92.7164 1920.33 96.0373 1920 98.9983V126H0Z" fill="white"/>
</svg>
