<svg width="1920" height="126" viewBox="0 0 1920 126" fill="none" xmlns="http://www.w3.org/2000/svg">
<path d="M1822.53 52.4931C1873 72.5686 1902.84 103.993 1910 122.993H1581.12L1498.65 123.493L1368.2 122.993H0V74.9932C2 113 22.8381 109.493 42.1647 102.493C102.143 80.7688 109.741 66.8931 296.075 26.4931C528.992 -24.0069 845.88 2.49311 1156.27 65.4931C1404.58 115.893 1517.31 124.493 1577.12 102.493C1636.93 80.4931 1737.06 18.4932 1822.53 52.4931Z" fill="#15A0DB"/>
<path d="M1920 125.993C1912.84 106.993 1883 86.5686 1832.53 66.4931C1747.06 32.4932 1646.93 85.4931 1587.12 107.493C1527.31 129.493 1414.58 129.893 1166.27 79.4931C855.877 16.4931 538.989 -10.0069 306.071 40.4931C119.737 80.8931 112.14 94.7688 52.1611 116.493C34.6534 122.834 3.1073 126.96 0 98.8361V88.9932C-0.338623 92.6447 -0.322754 95.9144 0 98.8361V125.993H1920Z" fill="white"/>
</svg>
