<svg width="445" height="250" viewBox="0 0 445 250" fill="none" xmlns="http://www.w3.org/2000/svg">
<g clip-path="url(#clip0)">
<path d="M432.2 249C425.2 236.3 413 240.3 402.6 235.2C389.5 228.7 394.4 214 374.7 198.8C358.3 186.1 342.5 200.3 323.7 191.1C304.9 181.9 307.1 168.8 283.9 152.3C264.5 138.5 238.3 124.9 190 153.9C175.3 162.7 167.9 186.2 139.6 183.3C129 182.2 120.3 175.1 110.1 172.9C99.3 170.6 88.2 175.2 80.6 183.1C69 195.2 74.0001 215.1 62.2001 226.5C61.5001 227.2 60.7001 227.8 59.9001 228.4C45.7001 239 15.1 236.8 9.80005 249" stroke="#B6C2FF" stroke-miterlimit="10" stroke-dasharray="3 3"/>
<path d="M161.1 154.8C161.3 153.5 161.3 152.2 161.1 150.9C160.9 149.6 160.6 148.3 160.2 147.1L156.8 148C156.4 146.9 155.8 145.9 155.1 145L157.7 142.6C156.1 140.6 154 138.9 151.7 137.8L149.9 140.9C148.8 140.4 147.7 140.1 146.6 139.9L146.7 136.4C145.4 136.2 144.1 136.2 142.8 136.4C141.5 136.6 140.2 136.9 139 137.3L139.9 140.7C138.8 141.1 137.8 141.7 136.9 142.4L134.5 139.8C131.6 141.7 130.5 143.6 129.7 145.8L132.8 147.6C132.3 148.7 132 149.8 131.8 150.9L128.3 150.8C128.1 152.1 128.1 153.4 128.3 154.7C128.5 156 128.8 157.3 129.2 158.5L132.6 157.6C133 158.7 133.6 159.7 134.3 160.6L131.7 163C133.3 165 135.4 166.7 137.7 167.8L139.5 164.7C140.6 165.2 141.7 165.5 142.8 165.7L142.7 169.2C144 169.4 145.3 169.4 146.6 169.2C147.9 169 149.2 168.7 150.4 168.3L149.5 164.9C150.6 164.5 151.6 163.9 152.5 163.2L154.9 165.8C156.9 164.2 158.6 162.1 159.7 159.8L156.6 158C157.1 156.9 157.4 155.8 157.6 154.7L161.1 154.8ZM145.6 160.7C141.2 161.2 137.3 158.1 136.8 153.7C136.3 149.3 139.4 145.4 143.8 144.9C148.2 144.4 152.1 147.5 152.6 151.9C153.1 156.2 150 160.2 145.6 160.7Z" fill="#D9DDF9"/>
<path d="M199 209.1C199.2 207.1 199.3 205 199 202.9C198.8 200.8 198.3 198.8 197.6 196.8L192.1 198.2C191.4 196.4 190.5 194.8 189.4 193.3L193.5 189.4C190.9 186.1 187.6 183.5 183.8 181.7L181 186.6C179.3 185.9 177.5 185.3 175.6 185.1L175.8 179.4C173.8 179.2 171.7 179.1 169.6 179.4C167.5 179.6 165.5 180.1 163.5 180.8L164.9 186.3C163.1 187 161.5 187.9 160 189L156.1 184.9C151.5 187.9 149.7 191 148.4 194.6L153.3 197.4C152.6 199.1 152 200.9 151.8 202.8L146.1 202.6C145.9 204.6 145.8 206.7 146.1 208.8C146.3 210.9 146.8 212.9 147.5 214.9L153 213.5C153.7 215.3 154.6 216.9 155.7 218.4L151.6 222.3C154.2 225.6 157.5 228.2 161.3 230L164.1 225.1C165.8 225.8 167.6 226.4 169.5 226.6L169.3 232.3C171.3 232.5 173.4 232.6 175.5 232.3C177.6 232.1 179.6 231.6 181.6 230.9L180.2 225.4C182 224.7 183.6 223.8 185.1 222.7L189 226.8C192.3 224.2 194.9 220.9 196.7 217.1L191.8 214.3C192.5 212.6 193.1 210.8 193.3 208.9L199 209.1ZM174.1 218.6C167.1 219.4 160.7 214.4 159.9 207.3C159.1 200.3 164.1 193.9 171.2 193.1C178.2 192.3 184.6 197.3 185.4 204.4C186.1 211.5 181.1 217.8 174.1 218.6Z" fill="#D9DDF9"/>
<path d="M180.9 205C181.4 209.6 178.1 213.8 173.5 214.3C168.9 214.8 164.7 211.5 164.2 206.9C163.7 202.3 167 198.1 171.6 197.6C176.3 197.1 180.4 200.4 180.9 205Z" fill="#D9DDF9"/>
<path d="M419.4 112.3C419.6 110.8 419.6 109.3 419.4 107.7C419.2 106.2 418.9 104.7 418.4 103.3L414.4 104.4C413.9 103.1 413.2 101.9 412.4 100.8L415.4 98C413.5 95.6 411.1 93.7 408.3 92.4L406.2 96C405 95.5 403.6 95.1 402.3 94.9L402.4 90.8C400.9 90.6 399.4 90.6 397.8 90.8C396.3 91 394.8 91.3 393.4 91.8L394.5 95.8C393.2 96.3 392 97 390.9 97.8L388.1 94.8C384.7 97 383.4 99.2 382.5 101.9L386.1 104C385.6 105.2 385.2 106.6 385 107.9L380.9 107.8C380.7 109.3 380.7 110.8 380.9 112.4C381.1 113.9 381.4 115.4 381.9 116.8L385.9 115.7C386.4 117 387.1 118.2 387.9 119.3L384.9 122.1C386.8 124.5 389.2 126.4 392 127.7L394.1 124.1C395.3 124.6 396.7 125 398 125.2L397.9 129.3C399.4 129.5 400.9 129.5 402.5 129.3C404 129.1 405.5 128.8 406.9 128.3L405.8 124.3C407.1 123.8 408.3 123.1 409.4 122.3L412.2 125.3C414.6 123.4 416.5 121 417.8 118.2L414.2 116.1C414.7 114.9 415.1 113.5 415.3 112.2L419.4 112.3ZM401.1 119.3C396 119.9 391.3 116.2 390.7 111.1C390.1 106 393.8 101.3 398.9 100.7C404 100.1 408.7 103.8 409.3 108.9C410 114 406.3 118.7 401.1 119.3Z" fill="#E6E8FC"/>
<path d="M406.2 109.3C406.6 112.7 404.2 115.7 400.8 116.1C397.4 116.5 394.4 114.1 394 110.7C393.6 107.3 396 104.3 399.4 103.9C402.7 103.5 405.8 105.9 406.2 109.3Z" fill="#E6E8FC"/>
<path d="M431.9 191.4L418.3 194.9L411 191.9L424.5 188.4L431.9 191.4Z" stroke="#B6C2FF" stroke-miterlimit="10" stroke-linecap="round" stroke-linejoin="round"/>
<path d="M428.2 176.7L414.6 180.2L407.3 177.2L420.9 173.7L428.2 176.7Z" stroke="#B6C2FF" stroke-miterlimit="10" stroke-linecap="round" stroke-linejoin="round"/>
<path d="M428.2 176.7L431.9 191.4" stroke="#B6C2FF" stroke-miterlimit="10" stroke-linecap="round" stroke-linejoin="round"/>
<path d="M414.5 180.3L418.3 194.9" stroke="#B6C2FF" stroke-miterlimit="10" stroke-linecap="round" stroke-linejoin="round"/>
<path d="M407.1 177.3L411 191.9" stroke="#B6C2FF" stroke-miterlimit="10" stroke-linecap="round" stroke-linejoin="round"/>
<path d="M420.7 173.8L424.5 188.4" stroke="#B6C2FF" stroke-miterlimit="10" stroke-linecap="round" stroke-linejoin="round"/>
<path d="M187.7 249.4L193.1 189.8" stroke="#202263" stroke-width="1.5" stroke-miterlimit="10"/>
<path d="M255.9 249.4L250.5 189.8" stroke="#202263" stroke-width="1.5" stroke-miterlimit="10"/>
<path d="M289.2 13.2H154.4V193.2H289.2V13.2Z" fill="white" stroke="#98A7F4" stroke-miterlimit="10"/>
<path d="M281.781 185.798L281.703 20.5977L161.703 20.6539L161.781 185.854L281.781 185.798Z" fill="#E4E7F9" stroke="#8693F2" stroke-miterlimit="10"/>
<path d="M221.7 39.1C221.7 39.1 191.4 55 191.4 85.7C191.4 112 202.7 153.7 202.7 153.7H221.8H240.9C240.9 153.7 252.1 111.9 252.1 85.7C252.1 54.9 221.7 39.1 221.7 39.1Z" fill="white" stroke="#F2311D" stroke-miterlimit="10"/>
<path d="M186.7 137.1C185 144.4 184.8 168.7 184.8 174.6C184.8 174.9 185.2 174.9 185.3 174.7C187.3 169.4 195.6 148.2 200.4 145.3C202.9 135.4 201.4 126.1 200.4 123.1C200.5 123.1 189.7 124.2 186.7 137.1Z" fill="#B6C2FF" stroke="#F2311D" stroke-miterlimit="10"/>
<path d="M256.8 137.1C258.5 144.4 258.7 168.7 258.7 174.6C258.7 174.9 258.3 174.9 258.2 174.7C256.2 169.4 247.8 148.2 243 145.3C240.5 135.4 242.3 126.1 243 123.1C243.1 123.1 253.8 124.2 256.8 137.1Z" fill="#B6C2FF" stroke="#F2311D" stroke-miterlimit="10"/>
<path d="M204.1 140.7C204.1 141 203.8 141.3 203.5 141.3C203.2 141.3 202.9 141 202.9 140.7C202.9 140.4 203.2 140.1 203.5 140.1C203.9 140.1 204.1 140.3 204.1 140.7Z" fill="#CE1515"/>
<path d="M209.7 140.4H205.2V141H209.7V140.4Z" fill="#CE1515"/>
<path d="M204.1 142.8C204.1 143.1 203.8 143.4 203.5 143.4C203.2 143.4 202.9 143.1 202.9 142.8C202.9 142.5 203.2 142.2 203.5 142.2C203.9 142.3 204.1 142.5 204.1 142.8Z" fill="#CE1515"/>
<path d="M209.7 142.5H205.2V143.1H209.7V142.5Z" fill="#CE1515"/>
<path d="M204.1 145C204.1 145.3 203.8 145.6 203.5 145.6C203.2 145.6 202.9 145.3 202.9 145C202.9 144.7 203.2 144.4 203.5 144.4C203.9 144.4 204.1 144.7 204.1 145Z" fill="#CE1515"/>
<path d="M209.7 144.7H205.2V145.3H209.7V144.7Z" fill="#CE1515"/>
<path d="M236.8 58.8C236.8 59.1 237.1 59.4 237.4 59.4C237.7 59.4 238 59.1 238 58.8C238 58.5 237.7 58.2 237.4 58.2C237.1 58.3 236.8 58.5 236.8 58.8Z" fill="#CE1515"/>
<path d="M235.8 58.5H231.3V59.1H235.8V58.5Z" fill="#CE1515"/>
<path d="M236.8 61C236.8 61.3 237.1 61.6 237.4 61.6C237.7 61.6 238 61.3 238 61C238 60.7 237.7 60.4 237.4 60.4C237.1 60.4 236.8 60.7 236.8 61Z" fill="#CE1515"/>
<path d="M235.8 60.7H231.3V61.3H235.8V60.7Z" fill="#CE1515"/>
<path d="M236.8 63.2C236.8 63.5 237.1 63.8 237.4 63.8C237.7 63.8 238 63.5 238 63.2C238 62.9 237.7 62.6 237.4 62.6C237.1 62.6 236.8 62.8 236.8 63.2Z" fill="#CE1515"/>
<path d="M235.8 62.9H231.3V63.5H235.8V62.9Z" fill="#CE1515"/>
<path d="M238.6 85C238.6 94.3 231.1 101.9 221.7 101.9C212.4 101.9 204.8 94.4 204.8 85C204.8 75.7 212.3 68.1 221.7 68.1C231.1 68.1 238.6 75.7 238.6 85Z" fill="#202263"/>
<path d="M232.621 95.9177C238.635 89.9037 238.635 80.1531 232.621 74.139C226.607 68.125 216.856 68.125 210.842 74.139C204.828 80.1531 204.828 89.9037 210.842 95.9177C216.856 101.932 226.607 101.932 232.621 95.9177Z" stroke="#F2311D" stroke-width="1.5" stroke-miterlimit="10" stroke-linecap="round"/>
<path d="M231.111 95.2883C236.779 90.1103 237.176 81.3181 231.998 75.6504C226.82 69.9826 218.027 69.5856 212.36 74.7636C206.692 79.9415 206.295 88.7337 211.473 94.4015C216.651 100.069 225.443 100.466 231.111 95.2883Z" fill="#B6C2FF"/>
<g opacity="0.65">
<path opacity="0.65" d="M237.101 75.4383L232.21 71.007L208.912 96.7232L213.803 101.154L237.101 75.4383Z" fill="white"/>
<path opacity="0.65" d="M239.205 77.3285L238.242 76.4557L214.944 102.172L215.907 103.045L239.205 77.3285Z" fill="white"/>
<path opacity="0.65" d="M230.575 69.8885L229.018 68.4786L205.721 94.1948L207.277 95.6047L230.575 69.8885Z" fill="white"/>
</g>
<path d="M221.8 126.1C219.3 125.7 215.9 135 215.9 143.5C215.9 150.8 220.4 169.7 221.6 174.7C221.7 174.9 222 174.9 222 174.7C222.4 167 225.1 126.7 221.8 126.1Z" fill="#B6C2FF" stroke="#F2311D" stroke-miterlimit="10"/>
<path d="M205 52.5H238.4C230.3 43.6 221.7 39.1 221.7 39.1C221.7 39.1 213.1 43.6 205 52.5Z" fill="#B6C2FF" stroke="#F2311D" stroke-miterlimit="10"/>
<path d="M249.7 28H261.9" stroke="white" stroke-miterlimit="10" stroke-linejoin="round"/>
<path d="M249.7 30.3H269.1" stroke="white" stroke-miterlimit="10" stroke-linejoin="round"/>
<path d="M249.7 32.5H269.1" stroke="white" stroke-miterlimit="10" stroke-linejoin="round"/>
<path d="M249.7 34.7H269.1" stroke="white" stroke-miterlimit="10" stroke-linejoin="round"/>
<path d="M172.6 50.3H184.8" stroke="white" stroke-miterlimit="10" stroke-linejoin="round"/>
<path d="M172.6 52.5H192.1" stroke="white" stroke-miterlimit="10" stroke-linejoin="round"/>
<path d="M172.6 54.7H192.1" stroke="white" stroke-miterlimit="10" stroke-linejoin="round"/>
<path d="M172.6 57H192.1" stroke="white" stroke-miterlimit="10" stroke-linejoin="round"/>
<path d="M267.5 76.4H274.3" stroke="white" stroke-miterlimit="10" stroke-linejoin="round"/>
<path d="M254.8 78.6H274.2" stroke="white" stroke-miterlimit="10" stroke-linejoin="round"/>
<path d="M254.8 80.9L274.2 80.8" stroke="white" stroke-miterlimit="10" stroke-linejoin="round"/>
<path d="M254.8 83.1H274.2" stroke="white" stroke-miterlimit="10" stroke-linejoin="round"/>
<path d="M180.7 114.3H187.5" stroke="white" stroke-miterlimit="10" stroke-linejoin="round"/>
<path d="M168 116.6H187.4" stroke="white" stroke-miterlimit="10" stroke-linejoin="round"/>
<path d="M168 118.8H187.4" stroke="white" stroke-miterlimit="10" stroke-linejoin="round"/>
<path d="M168 121H187.4" stroke="white" stroke-miterlimit="10" stroke-linejoin="round"/>
<path d="M241 170.4H228.9" stroke="white" stroke-miterlimit="10" stroke-linejoin="round"/>
<path d="M248.4 172.6H229" stroke="white" stroke-miterlimit="10" stroke-linejoin="round"/>
<path d="M248.4 174.9H229" stroke="white" stroke-miterlimit="10" stroke-linejoin="round"/>
<path d="M248.4 177.1H229" stroke="white" stroke-miterlimit="10" stroke-linejoin="round"/>
<path d="M221.4 140.5H237.8V166.8" stroke="#8693F2" stroke-miterlimit="10"/>
<path d="M221.4 139.6C220.9 139.6 220.4 140 220.4 140.6C220.4 141.1 220.8 141.6 221.4 141.6C221.9 141.6 222.4 141.2 222.4 140.6C222.4 140 221.9 139.6 221.4 139.6Z" fill="#8693F2"/>
<path d="M227.5 46.9V32.5H246.5" stroke="#8693F2" stroke-miterlimit="10"/>
<path d="M197 90.8H180.7V61" stroke="#8693F2" stroke-miterlimit="10"/>
<path d="M188.8 152.5H176.4L176.3 124.2" stroke="#8693F2" stroke-miterlimit="10"/>
<path d="M188.8 151.5C188.3 151.5 187.8 151.9 187.8 152.5C187.8 153 188.2 153.5 188.8 153.5C189.3 153.5 189.8 153.1 189.8 152.5C189.8 151.9 189.4 151.5 188.8 151.5Z" fill="#8693F2"/>
<path d="M224.5 94.4H264.5V87.4" stroke="#8693F2" stroke-miterlimit="10"/>
<path d="M197 89.8C196.5 89.8 196 90.2 196 90.8C196 91.3 196.4 91.8 197 91.8C197.5 91.8 198 91.4 198 90.8C197.9 90.3 197.5 89.8 197 89.8Z" fill="#8693F2"/>
<path d="M224.6 93.5C224.1 93.5 223.6 93.9 223.6 94.5C223.6 95 224 95.5 224.6 95.5C225.1 95.5 225.6 95.1 225.6 94.5C225.5 93.9 225.1 93.5 224.6 93.5Z" fill="#8693F2"/>
<path d="M227.5 46C227 46 226.5 46.4 226.5 47C226.5 47.5 226.9 48 227.5 48C228 48 228.5 47.6 228.5 47C228.5 46.4 228 46 227.5 46Z" fill="#8693F2"/>
<path d="M95.4 38.5H35.4V135.5H111.6V55.9L95.4 38.5Z" fill="white" stroke="#C0CBF9" stroke-miterlimit="10"/>
<path d="M95.4 42.7H39.6V131.3H107.4V55.7" fill="white"/>
<path d="M95.4 42.7H39.6V131.3H107.4V55.7" stroke="#C0CBF9" stroke-miterlimit="10"/>
<path d="M95.4 38.5V55.9H111.6" stroke="#C0CBF9" stroke-miterlimit="10"/>
<path d="M90.4001 93C90.4001 102.3 82.9001 109.9 73.5001 109.9C64.2001 109.9 56.6001 102.4 56.6001 93C56.6001 83.7 64.1001 76.1 73.5001 76.1C82.9001 76.1 90.4001 83.6 90.4001 93Z" fill="#F2311D"/>
<path d="M84.1706 104.139C90.3232 98.2664 90.5501 88.5179 84.6772 82.3652C78.8044 76.2126 69.0558 75.9857 62.9032 81.8585C56.7505 87.7314 56.5237 97.48 62.3965 103.633C68.2693 109.785 78.0179 110.012 84.1706 104.139Z" stroke="white" stroke-width="1.5" stroke-miterlimit="10" stroke-linecap="round"/>
<path d="M87.2181 95.5031C88.6107 87.9537 83.6197 80.7049 76.0703 79.3123C68.521 77.9198 61.2722 82.9108 59.8796 90.4601C58.4871 98.0095 63.4781 105.258 71.0274 106.651C78.5767 108.043 85.8256 103.052 87.2181 95.5031Z" fill="#DBF1FE"/>
<g opacity="0.65">
<path opacity="0.65" d="M88.8111 83.3864L83.9198 78.9551L60.6222 104.671L65.5135 109.103L88.8111 83.3864Z" fill="white"/>
<path opacity="0.65" d="M90.9974 85.3452L90.0339 84.4724L66.7364 110.189L67.6998 111.061L90.9974 85.3452Z" fill="white"/>
<path opacity="0.65" d="M82.3531 77.9084L80.7968 76.4984L57.4992 102.215L59.0555 103.625L82.3531 77.9084Z" fill="white"/>
</g>
<g opacity="0.45">
<path opacity="0.45" d="M56.2001 47.2H90.8001" stroke="#C0CBF9" stroke-miterlimit="10"/>
<path opacity="0.45" d="M54.2001 49.4H92.8001" stroke="#C0CBF9" stroke-miterlimit="10"/>
</g>
<path d="M93.5001 62.4H100.1" stroke="#C0CBF9" stroke-miterlimit="10"/>
<path d="M93.5001 64.6H104" stroke="#C0CBF9" stroke-miterlimit="10"/>
<path d="M93.5001 66.8H104" stroke="#C0CBF9" stroke-miterlimit="10"/>
<path d="M93.5001 69.1H104" stroke="#C0CBF9" stroke-miterlimit="10"/>
<path d="M87.2001 85.6H93.8001V71.5" stroke="#8693F2" stroke-width="0.75" stroke-miterlimit="10"/>
<path d="M87.2001 84.6C86.7001 84.6 86.2001 85 86.2001 85.6C86.2001 86.1 86.6001 86.6 87.2001 86.6C87.7001 86.6 88.2001 86.2 88.2001 85.6C88.2001 85 87.8001 84.6 87.2001 84.6Z" fill="#8693F2"/>
<path d="M53.8 59.1H47.3" stroke="#C0CBF9" stroke-miterlimit="10"/>
<path d="M53.8 61.3H43.4" stroke="#C0CBF9" stroke-miterlimit="10"/>
<path d="M53.8 63.5H43.4" stroke="#C0CBF9" stroke-miterlimit="10"/>
<path d="M53.8 65.8H43.4" stroke="#C0CBF9" stroke-miterlimit="10"/>
<path d="M65 86.5H53.6V68.2" stroke="#8693F2" stroke-width="0.75" stroke-miterlimit="10"/>
<path d="M65 85.6C65.5 85.6 66 86 66 86.6C66 87.1 65.6 87.6 65 87.6C64.5 87.6 64 87.2 64 86.6C64.1 86 64.5 85.6 65 85.6Z" fill="#8693F2"/>
<path d="M62.3 113.9H55.8" stroke="#C0CBF9" stroke-miterlimit="10"/>
<path d="M62.3 116.2H51.9" stroke="#C0CBF9" stroke-miterlimit="10"/>
<path d="M62.3 118.4H51.9" stroke="#C0CBF9" stroke-miterlimit="10"/>
<path d="M62.3 120.6H51.8" stroke="#C0CBF9" stroke-miterlimit="10"/>
<path d="M68.7 103.9V122.7H50.4" stroke="#8693F2" stroke-width="0.75" stroke-miterlimit="10"/>
<path d="M67.8 103.9C67.8 103.4 68.2 102.9 68.8 102.9C69.3 102.9 69.8 103.3 69.8 103.9C69.8 104.4 69.4 104.9 68.8 104.9C68.2 104.8 67.8 104.4 67.8 103.9Z" fill="#8693F2"/>
<path d="M351.5 39.4H309.3V107.7H362.9V51.7L351.5 39.4Z" fill="white" stroke="#C0CBF9" stroke-miterlimit="10"/>
<path d="M351.5 42.3H312.2V104.8H360V51.5" fill="white"/>
<path d="M351.5 42.3H312.2V104.8H360V51.5" stroke="#C0CBF9" stroke-miterlimit="10"/>
<path d="M351.5 39.4V51.6L362.9 51.7" stroke="#C0CBF9" stroke-miterlimit="10"/>
<path d="M324.4 72.5H347.8C342.1 66.3 336.1 63.2 336.1 63.2C336.1 63.2 330.1 66.4 324.4 72.5Z" fill="#F2311D"/>
<path d="M349.1 72H323.7V73H349.1V72Z" fill="#F2311D"/>
<path d="M346 74.4C346 74.6 346.2 74.8 346.4 74.8C346.6 74.8 346.8 74.6 346.8 74.4C346.8 74.2 346.6 74 346.4 74C346.1 74 346 74.2 346 74.4Z" fill="#B6C2FF"/>
<path d="M345.3 74.2H342.4V74.6H345.3V74.2Z" fill="#B6C2FF"/>
<path d="M346 75.8C346 76 346.2 76.2 346.4 76.2C346.6 76.2 346.8 76 346.8 75.8C346.8 75.6 346.6 75.4 346.4 75.4C346.1 75.4 346 75.6 346 75.8Z" fill="#B6C2FF"/>
<path d="M345.3 75.6H342.4V76H345.3V75.6Z" fill="#B6C2FF"/>
<path d="M346 77.2C346 77.4 346.2 77.6 346.4 77.6C346.6 77.6 346.8 77.4 346.8 77.2C346.8 77 346.6 76.8 346.4 76.8C346.2 76.9 346 77 346 77.2Z" fill="#B6C2FF"/>
<path d="M345.3 77H342.4V77.4H345.3V77Z" fill="#B6C2FF"/>
<path d="M353.5 82.6C348.1 70.3 336.1 64.1 336.1 64.1C336.1 64.1 324.1 70.4 318.7 82.6H353.5Z" stroke="#F2311D" stroke-miterlimit="10"/>
<path d="M347.9 57H353.1" stroke="#C0CBF9" stroke-miterlimit="10"/>
<path d="M347.9 59.2L356.3 59.1" stroke="#C0CBF9" stroke-miterlimit="10"/>
<path d="M347.9 61.3H356.3" stroke="#C0CBF9" stroke-miterlimit="10"/>
<path d="M347.9 63.4H356.3" stroke="#C0CBF9" stroke-miterlimit="10"/>
<path d="M341.2 74.9V61.3H346" stroke="#8693F2" stroke-width="0.75" stroke-miterlimit="10"/>
<path d="M341.2 74C340.7 74 340.3 74.4 340.3 74.9C340.3 75.4 340.7 75.8 341.2 75.8C341.7 75.8 342.1 75.4 342.1 74.9C342.1 74.4 341.7 74 341.2 74Z" fill="#8693F2"/>
<path d="M324.3 51H319" stroke="#C0CBF9" stroke-miterlimit="10"/>
<path d="M324.3 53.1H315.9" stroke="#C0CBF9" stroke-miterlimit="10"/>
<path d="M324.3 55.2H315.9" stroke="#C0CBF9" stroke-miterlimit="10"/>
<path d="M324.3 57.3H315.9" stroke="#C0CBF9" stroke-miterlimit="10"/>
<path d="M330.9 68.8V62.4H316V59.2" stroke="#8693F2" stroke-width="0.75" stroke-miterlimit="10"/>
<path d="M330.9 67.9C331.4 67.9 331.8 68.3 331.8 68.8C331.8 69.3 331.4 69.7 330.9 69.7C330.4 69.7 330 69.3 330 68.8C330 68.3 330.4 67.9 330.9 67.9Z" fill="#8693F2"/>
<path d="M341.8 97.8H347" stroke="#C0CBF9" stroke-miterlimit="10"/>
<path d="M341.8 95.7H350.2" stroke="#C0CBF9" stroke-miterlimit="10"/>
<path d="M341.8 93.6H350.2" stroke="#C0CBF9" stroke-miterlimit="10"/>
<path d="M341.8 91.5H350.2" stroke="#C0CBF9" stroke-miterlimit="10"/>
<path d="M333.8 79.8V97.7H339.6" stroke="#8693F2" stroke-width="0.75" stroke-miterlimit="10"/>
<path d="M333.8 80.7C333.3 80.7 332.9 80.3 332.9 79.8C332.9 79.3 333.3 78.9 333.8 78.9C334.3 78.9 334.7 79.3 334.7 79.8C334.7 80.3 334.3 80.7 333.8 80.7Z" fill="#8693F2"/>
<path d="M28 193.3L32.4 198.7L31.3 202.1L27.5 202.7L23.1 197.3C22.3 199.4 22.6 201.8 24.1 203.6C26.3 206.3 30.3 206.7 33.1 204.5C35.8 202.3 36.2 198.3 34 195.5C32.5 193.7 30.2 192.9 28 193.3Z" fill="#D7DEF9"/>
<path d="M34.8154 201.612L29.938 205.6L46.8997 226.348L51.7772 222.361L34.8154 201.612Z" fill="#D7DEF9"/>
<path d="M48.1 222.8C45.4 225 45 229 47.2 231.8C49.4 234.5 53.4 234.9 56.2 232.7C58.9 230.5 59.3 226.5 57.1 223.7C54.8 221 50.8 220.6 48.1 222.8ZM55.8 227.2L54.5 230.7L50.8 231.3L48.5 228.4L49.8 224.9L53.5 224.3L55.8 227.2Z" fill="#D7DEF9"/>
<path d="M72.1 237.6L74.2 230.4L77.9 229.2L80.7 232.2L78.6 239.4C80.9 238.8 82.9 237.1 83.6 234.6C84.6 230.9 82.5 227.1 78.9 226.1C75.2 225.1 71.4 227.2 70.4 230.8C69.7 233.3 70.4 235.8 72.1 237.6Z" fill="#D7DEF9"/>
<path d="M83.3532 198.461L75.3724 226.341L81.91 228.213L89.8908 200.332L83.3532 198.461Z" fill="#D7DEF9"/>
<path d="M86 201.5C89.7 202.5 93.5 200.4 94.5 196.8C95.5 193.1 93.4 189.3 89.8 188.3C86.1 187.3 82.3 189.4 81.3 193C80.2 196.6 82.3 200.4 86 201.5ZM85.1 192L89 191L91.8 193.9L90.7 197.7L86.8 198.7L84 195.8L85.1 192Z" fill="#D7DEF9"/>
<path d="M32.6001 186.6L48.8001 182.4L62.4001 237.6C62.4001 237.6 61.4001 241 56.4001 242.3C51.4001 243.6 48.2001 241.4 48.2001 241.4L32.6001 186.6Z" fill="#E4E7F9"/>
<path d="M38.2001 178.7C38.2001 178.7 46.3001 176.8 48.6001 180.9C50.8001 185.1 46.6001 187.8 42.9001 189.1C39.2001 190.3 32.0001 190.5 33.0001 185.2C33.8001 180.5 41.4001 180 43.2001 181.1C45.0001 182.2 45.4001 185.3 40.6001 186.3C35.7001 187.3 37.2001 183 39.7001 182.7" fill="#F0F4FF"/>
<path d="M37.4001 185.8C37.4001 185.8 39.1001 187.6 42.3001 186C45.8001 184.2 45.2001 178.4 37.1001 181.1C29.0001 183.9 32.9001 190.5 38.6001 190L37.4001 185.8Z" fill="#E6EBFC"/>
<path d="M40.3 186.8L39.2001 182.8C39.2001 182.8 36.8 183.9 37.1 185.4C37.5 187.2 40.3 186.8 40.3 186.8Z" fill="white"/>
<path d="M37.1001 185.5L38.3001 190.1C42.3001 190 45.6001 187.9 45.6001 187.9L44.2001 182.7C44.2001 182.7 44.6001 185.2 41.5001 186.3C38.4001 187.4 37.1001 185.5 37.1001 185.5Z" fill="#D7DEF9"/>
<path d="M62.9 184L78 186.9L67.6 237.8C67.6 237.8 65.5 240.2 60.8 239.3C56.1 238.4 54.4 235.3 54.4 235.3L62.9 184Z" fill="#E4E7F9"/>
<path d="M70.5 179.6C70.5 179.6 78 181.2 78.2 185.5C78.4 189.8 73.8 190.4 70.3 190C66.8 189.6 60.8 186.9 63.6 182.9C66.1 179.4 72.6 181.8 73.6 183.5C74.6 185.2 73.8 187.8 69.4 186.8C65 185.8 67.9 182.8 70.1 183.5" fill="#F0F4FF"/>
<path d="M67.1 185.2C67.1 185.2 67.8 187.4 71.1 187.3C74.7 187.2 76.4 182.1 68.7 181.3C60.9 180.4 61.5 187.5 66.4 189.2L67.1 185.2Z" fill="#E6EBFC"/>
<path d="M69.1001 187.1L69.8001 183.4C69.8001 183.4 67.4001 183.4 67.0001 184.7C66.7001 186.3 69.1001 187.1 69.1001 187.1Z" fill="white"/>
<path d="M67.0001 184.8L66.2001 189.1C69.5001 190.6 73.1001 190.2 73.1001 190.2L74.0001 185.4C74.0001 185.4 73.4001 187.7 70.3001 187.3C67.3001 186.8 67.0001 184.8 67.0001 184.8Z" fill="#D7DEF9"/>
<path d="M111.8 183.9L126.4 188.6L109.7 237.8C109.7 237.8 107.3 239.9 102.7 238.5C98.2 237.1 96.8 233.8 96.8 233.8L111.8 183.9Z" fill="#E4E7F9"/>
<path d="M120 180.6C120 180.6 127.2 183.1 126.9 187.4C126.6 191.7 121.9 191.7 118.5 190.9C115.1 190 109.4 186.7 112.8 183C115.7 179.8 121.8 183.1 122.7 184.9C123.5 186.7 122.4 189.2 118.1 187.6C113.8 186 117.1 183.4 119.2 184.4" fill="#F0F4FF"/>
<path d="M115.9 185.7C115.9 185.7 116.3 188 119.6 188.2C123.2 188.5 125.5 183.8 118 181.9C110.4 180 110.1 187.1 114.8 189.5L115.9 185.7Z" fill="#E6EBFC"/>
<path d="M117.7 187.8L118.8 184.2C118.8 184.2 116.4 183.9 115.9 185.2C115.3 186.8 117.7 187.8 117.7 187.8Z" fill="white"/>
<path d="M115.9 185.3L114.6 189.4C117.7 191.3 121.3 191.3 121.3 191.3L122.8 186.6C122.8 186.6 121.9 188.8 118.9 188C115.9 187.4 115.9 185.3 115.9 185.3Z" fill="#D7DEF9"/>
<path d="M89.9 218.5H38V249.5H89.9V218.5Z" fill="#EBEEFC" stroke="#8693F2" stroke-miterlimit="10"/>
<path d="M117.7 218.5H89.2999V249.5H117.7V218.5Z" fill="#E4E7F9" stroke="#8693F2" stroke-miterlimit="10"/>
<path d="M78.2 233.4H26.6L37.7 218.5H89.3L78.2 233.4Z" fill="white" stroke="#98A7F4" stroke-miterlimit="10"/>
<path d="M95.6 233.4H124.2L117.7 218.5H89.2L95.6 233.4Z" fill="white" stroke="#98A7F4" stroke-miterlimit="10"/>
<path d="M17.1 160.3H25.7" stroke="#B6C2FF" stroke-miterlimit="10" stroke-linecap="round" stroke-linejoin="round"/>
<path d="M219.9 208.2H228.6" stroke="#B6C2FF" stroke-miterlimit="10" stroke-linecap="round" stroke-linejoin="round"/>
<path d="M233.9 208.2H241.1" stroke="#B6C2FF" stroke-miterlimit="10" stroke-linecap="round" stroke-linejoin="round"/>
<path d="M24.9 156.6H30.1" stroke="#B6C2FF" stroke-miterlimit="10" stroke-linecap="round" stroke-linejoin="round"/>
<path d="M395.6 55.8H404.2" stroke="#B6C2FF" stroke-miterlimit="10" stroke-linecap="round" stroke-linejoin="round"/>
<path d="M387.2 55.8H392.3" stroke="#B6C2FF" stroke-miterlimit="10" stroke-linecap="round" stroke-linejoin="round"/>
<path d="M433.8 140.3C433.8 141.2 433.1 141.9 432.2 141.9C431.3 141.9 430.6 141.2 430.6 140.3C430.6 139.4 431.3 138.7 432.2 138.7C433.1 138.7 433.8 139.4 433.8 140.3Z" stroke="#B6C2FF" stroke-miterlimit="10" stroke-linecap="round" stroke-linejoin="round"/>
<path d="M302.4 28.7C303.284 28.7 304 27.9837 304 27.1C304 26.2163 303.284 25.5 302.4 25.5C301.516 25.5 300.8 26.2163 300.8 27.1C300.8 27.9837 301.516 28.7 302.4 28.7Z" stroke="#B6C2FF" stroke-miterlimit="10" stroke-linecap="round" stroke-linejoin="round"/>
<path d="M20.3 119.1C20.3 120 19.6 120.7 18.7 120.7C17.8 120.7 17.1 120 17.1 119.1C17.1 118.2 17.8 117.5 18.7 117.5C19.6 117.6 20.3 118.3 20.3 119.1Z" stroke="#B6C2FF" stroke-miterlimit="10" stroke-linecap="round" stroke-linejoin="round"/>
<path d="M89.3999 27.2C90.2836 27.2 90.9999 26.4837 90.9999 25.6C90.9999 24.7163 90.2836 24 89.3999 24C88.5163 24 87.7999 24.7163 87.7999 25.6C87.7999 26.4837 88.5163 27.2 89.3999 27.2Z" stroke="#B6C2FF" stroke-miterlimit="10" stroke-linecap="round" stroke-linejoin="round"/>
<path d="M223.2 224.7C224.084 224.7 224.8 223.984 224.8 223.1C224.8 222.216 224.084 221.5 223.2 221.5C222.316 221.5 221.6 222.216 221.6 223.1C221.6 223.984 222.316 224.7 223.2 224.7Z" stroke="#B6C2FF" stroke-miterlimit="10" stroke-linecap="round" stroke-linejoin="round"/>
<path d="M176.3 3.7C177.184 3.7 177.9 2.98366 177.9 2.1C177.9 1.21634 177.184 0.5 176.3 0.5C175.416 0.5 174.7 1.21634 174.7 2.1C174.7 2.98366 175.416 3.7 176.3 3.7Z" stroke="#B6C2FF" stroke-miterlimit="10" stroke-linecap="round" stroke-linejoin="round"/>
<path d="M381.1 68.5V72.9" stroke="#B6C2FF" stroke-miterlimit="10" stroke-linecap="round" stroke-linejoin="round"/>
<path d="M383.3 70.7H378.9" stroke="#B6C2FF" stroke-miterlimit="10" stroke-linecap="round" stroke-linejoin="round"/>
<path d="M341.2 123.6V128" stroke="#B6C2FF" stroke-miterlimit="10" stroke-linecap="round" stroke-linejoin="round"/>
<path d="M343.4 125.8H339" stroke="#B6C2FF" stroke-miterlimit="10" stroke-linecap="round" stroke-linejoin="round"/>
<path d="M142.6 223.7V228.2" stroke="#B6C2FF" stroke-miterlimit="10" stroke-linecap="round" stroke-linejoin="round"/>
<path d="M144.8 225.9H140.3" stroke="#B6C2FF" stroke-miterlimit="10" stroke-linecap="round" stroke-linejoin="round"/>
<path d="M133.9 48.1V52.5" stroke="#B6C2FF" stroke-miterlimit="10" stroke-linecap="round" stroke-linejoin="round"/>
<path d="M136.1 50.3H131.7" stroke="#B6C2FF" stroke-miterlimit="10" stroke-linecap="round" stroke-linejoin="round"/>
<path d="M367.4 249.3H365.9L368 203.5H371.5L367.4 249.3Z" fill="#172BCE"/>
<path d="M385.6 203.5L395.1 249.4" stroke="#202263" stroke-width="0.75" stroke-miterlimit="10"/>
<path d="M352.1 203.5L342.6 249.4" stroke="#202263" stroke-width="0.75" stroke-miterlimit="10"/>
<path d="M356.6 182.9C356.6 185.2 356.7 191.9 354.5 194.7C352 197.7 349.1 196.3 344.1 198.6C340.8 200.1 341.3 207.8 347.1 207.8C359.4 207.8 369.5 207.8 387 207.8C404.5 207.8 407.4 185.8 405.4 164.8C403.4 145.1 392.6 137.9 380.3 138.4C365.4 138.8 356.6 157.3 356.6 182.9Z" fill="#F2311D"/>
<path d="M353.018 249.293L373.818 249.277L373.818 248.377L353.018 248.393L353.018 249.293Z" fill="#103BB2"/>
<path d="M370.9 240.6L372.7 241C372.7 241 373.4 243.4 373.7 245C374 246.6 373.9 248.3 373.9 248.3H353.1C353.1 248.3 353.6 246.5 358.6 243.6C360.6 242.5 361.6 241.1 361.6 241.1L370.9 240.6Z" fill="#22252D"/>
<path d="M359.5 243L360.8 244.5" stroke="#1F38B2" stroke-width="0.75" stroke-miterlimit="10"/>
<path d="M357.9 244L359.2 245.5" stroke="#1F38B2" stroke-width="0.75" stroke-miterlimit="10"/>
<path d="M356.5 244.9L357.8 246.5" stroke="#1F38B2" stroke-width="0.75" stroke-miterlimit="10"/>
<path d="M373 233.1L372.7 241C372.7 241 371.8 242.1 368.3 242.1C364.8 242.1 361.5 241.1 361.5 241.1L360.8 230.4" fill="#F2B18F"/>
<path d="M329.89 249.379L350.285 245.294L350.108 244.412L329.714 248.497L329.89 249.379Z" fill="#103BB2"/>
<path d="M345.7 237.5L347.6 237.6C347.6 237.6 348.7 239.8 349.3 241.3C349.9 242.9 350.1 244.5 350.1 244.5L329.7 248.6C329.7 248.6 329.9 246.7 334.2 242.9C335.9 241.4 336.6 239.9 336.6 239.9L345.7 237.5Z" fill="#22252D"/>
<path d="M335.5 241.4L337.1 242.7" stroke="#1F38B2" stroke-width="0.75" stroke-miterlimit="10"/>
<path d="M334.2 242.8L335.8 244" stroke="#1F38B2" stroke-width="0.75" stroke-miterlimit="10"/>
<path d="M333 244L334.6 245.2" stroke="#1F38B2" stroke-width="0.75" stroke-miterlimit="10"/>
<path d="M344.7 230.2L347.5 237.5C347.5 237.5 346.8 238.7 343.4 239.4C339.9 240.1 336.6 239.8 336.6 239.8L332 230.1" fill="#F2B18F"/>
<path d="M362.2 175.1C362.2 175.1 332.6 178.1 324 189.5C315.4 200.8 330.1 239.1 330.1 239.1L346.7 233.5C346.7 233.5 338 206.1 340.7 200.4C343.4 194.7 368.6 195.9 368.6 195.9L385.1 173.5" fill="#A9C4FF"/>
<path d="M392.9 175.1C392.9 175.1 397.1 182.9 393.9 191.6C391.1 199.2 381.5 194.9 376.4 198.1C371.2 201.3 374 237.9 374 237.9L356.4 238C356.4 238 351.2 203 355.6 191.6C360 180.1 375.3 176.2 375.3 176.2" fill="#A9C4FF"/>
<path d="M382.2 178.1C382.9 181.7 390.1 181 390.1 181" stroke="#4C82FC" stroke-width="0.75" stroke-miterlimit="10" stroke-linejoin="round"/>
<path d="M369.7 178.1C358.2 183.8 354.9 189.9 354.3 195.8" stroke="#6F9BFD" stroke-width="0.75" stroke-miterlimit="10" stroke-linejoin="round"/>
<path d="M388.2 176.8C388.2 176.8 392.6 182.9 389.4 188.8C386.2 194.7 375.1 190.9 372.1 196.9C369.1 202.9 371.7 237.7 371.7 237.7" stroke="#4C82FC" stroke-width="0.75" stroke-miterlimit="10" stroke-linejoin="round"/>
<path d="M355.5 190.7C355.5 190.7 339.5 193.5 337.2 199.5C334.9 205.4 344.4 234.3 344.4 234.3" stroke="#4C82FC" stroke-width="0.75" stroke-miterlimit="10" stroke-linejoin="round"/>
<path d="M366.6 116.4C366.6 116.4 362.7 123.3 364.6 126.1C365.6 127.6 369.2 128.4 371 127.4C372.3 126.7 375 121.3 374.5 120.2C372.7 116 366.6 116.4 366.6 116.4Z" fill="#F2B18F"/>
<path d="M374.7 125L375.4 133.1C375.4 133.1 369.5 137.6 366 132.5L366.5 126.1L374.7 125Z" fill="#F2B18F"/>
<path d="M376.8 123.8C377.3 122.3 377.8 121.5 378 119.6C378.2 117.7 376.6 117.2 376.6 117.2C376.6 117.2 376.9 117.4 376 115.8C375.1 114.3 372.5 114.5 370.9 114.3C368.8 114.1 366.8 112.8 365.6 113.6C365.1 114 364 116.8 365.8 117.7C366.8 118.2 368.4 117.8 369.5 117.9C371.6 118.1 373.2 118.7 373.5 120C373.7 120.7 373.5 121.4 373.3 121.9C373.2 122.2 373.2 122.4 373.1 122.5L374 123.1C375.1 123.8 372.9 125.7 373.1 126.6C373.2 127.1 374.2 127.2 375 126.8C375.7 126.5 376.2 125.4 376.8 123.8Z" fill="#212237"/>
<path d="M373.4 123.3C374.3 122.3 375 122.5 375.3 123.1C375.8 123.9 374.7 125.5 374.2 125.7C373.2 126.2 372.5 126.1 372.4 125.3" fill="#F2B18F"/>
<path d="M366.4 127.6C369.4 128.3 371.4 127.1 371.4 127.1" stroke="#E88872" stroke-width="0.75" stroke-miterlimit="10" stroke-linejoin="round"/>
<path fill-rule="evenodd" clip-rule="evenodd" d="M349.8 140.2C349.8 140.2 340.1 147.1 338.3 147.1C336.5 147.1 325.5 132.4 325.5 132.4L320.3 135.7C320.3 135.7 331 159.8 338.3 159.9C345.7 160.1 357.5 150.3 357.5 150.3L354.5 137.5" fill="#F2B18F"/>
<path fill-rule="evenodd" clip-rule="evenodd" d="M322.1 137.9L326.6 134.2C325.1 130.7 320.1 122.2 319.4 122.6C318.6 122.9 320.6 126.7 321 127.6C320.7 127 318.9 127.1 319.1 128.3C319 128 318.4 128.1 318.2 128.2C317.7 128.4 317.5 128.9 317.5 129.4C317.3 129.2 317 129.3 316.8 129.4C315.6 130.4 316.4 133 316.9 133.2C317.4 133.3 317.4 131.1 317.4 131.1C317.4 131.1 318.3 132.9 318.4 133.1C318.7 133.6 319 134.2 319.4 134.7C320.3 135.7 321.2 136.8 322.1 137.9Z" fill="#F2B18F"/>
<path d="M323.9 130C323.2 128.6 322.1 126.8 321.6 127.3C321.1 127.9 322 129.5 322 130.7C321.6 132 322 133.8 322.6 134.2" stroke="#E2845A" stroke-width="0.75" stroke-miterlimit="10"/>
<path d="M365.9 131.5C365.9 131.5 358.8 131.5 347.6 141.1L356.5 153.7L363.4 143.3" fill="#4A63FE"/>
<path d="M355.9 176C378.3 181.9 395.2 176.8 395.2 176.8C395.2 176.8 395.3 133.3 375.4 131.6C374.4 132.6 372.9 133.6 369.5 133.2C367.7 133 366 131.5 366 131.5C366 131.5 356.2 141.2 356.2 150.4C356.3 162.1 355.1 172 355.9 176Z" fill="#4A63FE"/>
<path d="M356.5 152.8C356.7 147.9 358.4 142.3 358.4 142.1" stroke="#1F38B2" stroke-width="0.75" stroke-miterlimit="10"/>
<path d="M363.3 172.6H335.6C334.8 172.6 334.1 172.1 333.9 171.3L329.7 154.9C329.4 153.7 330.3 152.4 331.6 152.4H356.6C357.5 152.4 358.3 153 358.5 153.9L363.3 172.6Z" fill="#C0D7FF"/>
<path d="M346.7 162.5C346.7 163.5 345.6 164.3 344.3 164.3C343 164.3 341.9 163.5 341.9 162.5C341.9 161.5 343 160.7 344.3 160.7C345.7 160.7 346.7 161.5 346.7 162.5Z" fill="#EBF3FF"/>
<path d="M357.5 169.8C356.4 169.9 355.2 170 354.1 170.1C352.3 170.3 346.8 170.5 346.7 171C346.6 171.5 348.5 171.4 348.8 171.4C349.1 171.4 349.5 171.5 349.5 171.9C349.5 172.2 348.7 172.3 347.6 172.3C345.7 172.4 343.3 172.3 343.3 172.3C343.9 173.3 349.3 175 350.5 175C355.2 175 358.5 174.8 363.3 174.2" fill="#F2B18F"/>
<path d="M389.2 151.1C389.2 151.1 387 166.7 383.9 170.8C379.9 176.1 356.5 175 356.5 175L355.3 170.2C355.3 170.2 371.1 166.3 372.7 164.6C374.3 162.9 376 149.9 376 149.9" fill="#F2B18F"/>
<path d="M375.3 131.6C386.7 132.8 390.6 142.7 389.7 154.8L374.1 153.6L374.5 143.7" fill="#4A63FE"/>
<path d="M374.7 153.7C375.2 150.3 375.8 144.7 375.8 144.7" stroke="#1F38B2" stroke-width="0.75" stroke-miterlimit="10"/>
<path d="M389.2 154.8C389.6 152.8 389.8 148.4 389.8 148.4" stroke="#1F38B2" stroke-width="0.75" stroke-miterlimit="10"/>
<path d="M307.8 115.1C307.8 115.1 311.9 123.4 311.6 131.8C311.5 136.1 303 154.8 303 154.8C303 154.8 297.1 142.5 296.6 142.1C296.1 141.6 301.3 128.1 301.3 127.5C301.3 126.9 296.6 116.9 296.6 116.9" fill="#F2B18F"/>
<path d="M272.6 170.5L275.3 241.4L268.8 245.5C268.8 245.5 286.6 246.5 287.2 245.9C287.8 245.3 286.5 241.3 286.5 241.3L292 171.6L272.6 170.5Z" fill="#F2B18F"/>
<path d="M284.3 245.8L287 243.2L286.6 241.8L282.5 245.8H280.5L273.6 242.4L266.1 247.1C265.2 247.6 265.6 249 266.6 249H276.7L279.9 246.8H280.8V249H287.4V245.9L284.3 245.8Z" fill="#212237"/>
<path d="M290.6 171.3L299.6 241.5L293.1 245.6C293.1 245.6 310.9 246.7 311.5 246.1C312.1 245.5 310.8 241.5 310.8 241.5L310.3 171.9L290.6 171.3Z" fill="#F2B18F"/>
<path d="M308.6 245.9L311.3 243.3L310.9 241.9L306.8 245.9H304.8L297.9 242.4L290.4 247C289.5 247.5 289.9 248.9 290.9 248.9H301L304.2 246.7H305.1V248.9H311.7V245.8L308.6 245.9Z" fill="#212237"/>
<path d="M303.6 140.3C306.1 141.9 309 148.1 310.4 153.3C313.7 165.5 311.8 184.7 311.8 184.7H271.9C271.9 184.7 271 151.2 274.5 140.3" fill="#232868"/>
<path d="M278 138.9C274.5 154.7 274.9 184.7 274.9 184.7" stroke="#2944B7" stroke-width="0.75" stroke-miterlimit="10" stroke-linejoin="round"/>
<path d="M291.6 101.2C291.6 101.2 290.4 102.4 287.6 102.5C285.2 102.5 284.2 101.5 284.2 101.5C284.2 101.5 278 101.8 275.3 105.4C270.6 111.6 274.6 140.4 274.6 140.4C274.6 140.4 296.2 140.4 303.7 140.4C303.7 123.4 309.9 105.4 291.6 101.2Z" fill="#F2311D"/>
<path d="M244.1 113.3C242.5 111.8 236.6 104.8 236.2 104.9C235.8 105 237.1 106.9 236.7 106.9C236.3 106.9 233.8 103.9 233.4 104.1C232.9 104.4 235.6 107.4 235.6 107.4C235.6 107.4 235 106.8 234.6 107.2C234.3 107.5 234.9 108.5 234.9 108.5C234.9 108.5 234.2 108.2 234 108.5C233.7 108.8 234.3 109.6 234.3 109.6C234.3 109.6 233.8 109.5 233.6 109.8C233.4 110.1 234.5 112.4 237.5 116" fill="#F2B18F"/>
<path fill-rule="evenodd" clip-rule="evenodd" d="M266.3 113C266.3 113 258.4 121.9 256.6 122.3C254.8 122.7 240.9 110.7 240.9 110.7L236.6 115C236.6 115 252.2 136.2 259.5 134.7C266.7 133.3 276.2 121.2 276.2 121.2L270.5 109.4" fill="#F2B18F"/>
<path d="M284.1 101.4C284.1 101.4 274.8 101.6 265.6 113L274.8 123.4L282.3 115.5" fill="#F2311D"/>
<path d="M296 102.5C303.4 104.8 309.1 116.2 309.1 116.2L302.8 122.1" fill="#F2311D"/>
<path d="M274.9 123.4L281.1 118.2" stroke="#BA140C" stroke-width="0.75" stroke-miterlimit="10"/>
<path d="M304.7 120.2C304.7 116.5 303.9 111.8 303.9 111.8" stroke="#BA140C" stroke-width="0.75" stroke-miterlimit="10"/>
<path d="M284.3 96.9L284 101.4C284 101.4 285.6 103.3 288.3 103.2C291.7 103.1 292.6 101.2 292.6 101.2L290.5 92.1" fill="#F2B18F"/>
<path d="M283.4 86.3C281.4 88.5 278.2 96.1 282 98C285.9 99.9 291.1 98.7 292.4 93.6C293.7 88.1 288.7 80.6 283.4 86.3Z" fill="#F2B18F"/>
<path d="M284.2 98.8C284.2 98.8 287.5 99.3 289.7 96.8" stroke="#E2845A" stroke-width="0.75" stroke-miterlimit="10"/>
<path d="M291.2 92.1C291.2 92.2 291.1 92.2 291.2 92.1C291.2 92.2 291.2 92.2 291.2 92.2C291.2 92.2 291.2 92.2 291.2 92.1C291.2 92.2 291.2 92.2 291.2 92.1C291.2 92.1 291.2 92.2 291.2 92.1Z" fill="#FF855A"/>
<path d="M283.6 87.5C282.6 87.9 282 88.1 281.2 87.9C281.6 85.4 284.1 83 286.7 84C289.2 82.8 292.5 84.1 294 86.2C295.4 88.2 295.3 91 294.8 93.4C294.4 95.4 292.7 97.7 291.4 97.8C290.2 97.1 289.1 96.4 288.2 93.8C286.1 91.1 283.9 88.4 283.6 87.5Z" fill="#212237"/>
<path d="M286.8 92.3C286.8 92.1 287.1 91.7 287.7 91.5C288.7 91.3 289.1 92.6 288.9 93.5C288.7 94.1 288.5 94.5 288 94.9C287.4 95.4 286.6 95.5 286.4 94.7" fill="#F2B18F"/>
<path d="M291.8 96.8C291.8 96.8 295.6 98.5 296.2 101.6C296.8 104.7 294.5 106.9 291.8 105.6C289.1 104.3 290.7 96.4 290.7 96.4" fill="#212237"/>
<path d="M444.6 249H0V250H444.6V249Z" fill="#8693F2"/>
<path d="M106.3 93.9L106.7 99.3C106.7 99.3 105.4 102.2 102.2 101.8C98.8 101.5 98.2 99.6 98.2 99.6L99.8 89.4" fill="#F2B18F"/>
<path d="M107.3 82.6C109.3 84.8 112 93.1 108.4 95C104.5 97 99.8999 95.5 98.4999 90.2C97.0999 84.6 102 76.7 107.3 82.6Z" fill="#F2B18F"/>
<path d="M106.7 95.9C106.7 95.9 103.9 96.3 102.2 94.7" stroke="#E2845A" stroke-width="0.75" stroke-miterlimit="10"/>
<path d="M98.9 89.6C99 89.7 99 89.7 98.9 89.6C99 89.6 99 89.6 98.9 89.6C99 89.6 99 89.6 98.9 89.6C99 89.5 99 89.5 98.9 89.6C98.9 89.6 98.9 89.5 98.9 89.6Z" fill="#FF855A"/>
<path d="M99.5999 89.9C99.4999 89.7 99.1999 89.3 98.5999 89.3C97.5999 89.3 97.3999 90.7 97.8999 91.6C98.1999 92.2 98.4999 92.6 99.0999 92.9C99.7999 93.3 100.5 93.2 100.6 92.4" fill="#F2B18F"/>
<path d="M100.6 90.8C101.6 90.8 101.1 88.2 101.1 88.2C101.1 88.2 102.3 88.4 103.1 87.5C104 86.6 102.9 85.8 102.9 85.8C102.9 85.8 104.8 87.1 106.3 86.4C107.6 85.8 107.3 84.7 107.3 84.7C107.3 84.7 108.6 85.7 109.3 85C110.4 83.7 110 82.2 108.6 80.9C107.2 79.7 106 80.2 106 80.2C106 80.2 104 78 101.7 78.5C99.6 79 97.4 80.2 97.4 82.9C97.4 82.9 95.6 82.4 94.9 84.8C94.3 87 95.4 87.8 95.4 87.8C95.4 87.8 94.6 89.5 95.3 90.9C96 92.4 97.7 92.8 97.7 92.8C97.7 92.8 97 94.3 98.7 94.5C100.4 94.6 100.4 93.4 99.8 93C98.3 92.1 97.2 90.8 98.3 89.4C99.3 88.1 100.6 90.8 100.6 90.8Z" fill="#212237"/>
<path d="M129.1 249.1H108.3V250H129.1V249.1Z" fill="#103BB2"/>
<path d="M111.3 241.3L109.5 241.7C109.5 241.7 108.8 244.1 108.5 245.7C108.2 247.3 108.3 249 108.3 249H129.1C129.1 249 128.6 247.2 123.6 244.3C121.6 243.2 120.6 241.8 120.6 241.8L111.3 241.3Z" fill="#F2311D"/>
<path d="M108.6 232.6L109.5 241.8C109.5 241.8 110.4 242.9 113.9 242.9C117.4 242.9 120.7 241.9 120.7 241.9L121.1 231.6" fill="#F2B18F"/>
<path d="M122.3 243.4L120.9 245.2" stroke="#103BB2" stroke-width="0.75" stroke-miterlimit="10"/>
<path d="M123.6 244.3L122.4 246.1" stroke="#103BB2" stroke-width="0.75" stroke-miterlimit="10"/>
<path d="M124.9 245.1L123.8 246.8" stroke="#103BB2" stroke-width="0.75" stroke-miterlimit="10"/>
<path d="M120 149.7C124 196.6 123.1 237.2 123.1 237.2L107.4 237.7C107.4 237.7 102.2 172.1 98.5001 162.7C96.8001 158.3 96.2001 147.5 98.2001 139.8" fill="#202263"/>
<path d="M104.5 177.8C108.3 194.8 110.6 237.4 110.6 237.4" stroke="#2944B7" stroke-width="0.75" stroke-miterlimit="10" stroke-linejoin="round"/>
<path d="M97.2 249.1H76.4V250H97.2V249.1Z" fill="#103BB2"/>
<path d="M79.3001 241.3L77.5001 241.7C77.5001 241.7 76.8001 244.1 76.5001 245.7C76.2001 247.3 76.3001 249 76.3001 249H97.1001C97.1001 249 96.6001 247.2 91.6001 244.3C89.6001 243.2 88.6001 241.8 88.6001 241.8L79.3001 241.3Z" fill="#F2311D"/>
<path d="M78.4001 233.8L77.6001 241.7C77.6001 241.7 78.5001 242.8 82.0001 242.8C85.5001 242.8 88.8001 241.8 88.8001 241.8L90.9001 231.5" fill="#F2B18F"/>
<path d="M90.3 243.4L88.9 245.2" stroke="#103BB2" stroke-width="0.75" stroke-miterlimit="10"/>
<path d="M91.6 244.3L90.4 246.1" stroke="#103BB2" stroke-width="0.75" stroke-miterlimit="10"/>
<path d="M92.9 245.1L91.8 246.8" stroke="#103BB2" stroke-width="0.75" stroke-miterlimit="10"/>
<path d="M110.7 152.2C110.8 161.5 107.4 160.9 107.4 160.9" stroke="#2944B7" stroke-width="0.75" stroke-miterlimit="10" stroke-linejoin="round"/>
<path d="M86.5 140.7C82.6 154.6 84.6 158.5 84.4 164.1C84.1 174.4 76.5 237.3 76.5 237.3L93.9 237.6C92.4 245.4 112.6 153.4 107.9 138.2" fill="#202263"/>
<path d="M95.6 152.2C95.2 156 89.8 156.9 89.8 156.9" stroke="#2944B7" stroke-width="0.75" stroke-miterlimit="10" stroke-linejoin="round"/>
<path d="M117 152.2C117.4 156.3 120.5 156 120.5 156" stroke="#2944B7" stroke-width="0.75" stroke-miterlimit="10" stroke-linejoin="round"/>
<path d="M90 151.2C90 169.9 80 237.3 80 237.3" stroke="#2944B7" stroke-width="0.75" stroke-miterlimit="10" stroke-linejoin="round"/>
<path d="M103 191.1C106.7 171.3 108.3 151.2 108.3 151.2" stroke="#2944B7" stroke-width="0.75" stroke-miterlimit="10" stroke-linejoin="round"/>
<path fill-rule="evenodd" clip-rule="evenodd" d="M124.8 111.4C124.8 111.4 129 118.4 130.2 119.7C131.5 121 141.2 102.8 141.2 102.8L146.8 108C146.8 108 139.6 133.3 132.3 134.5C125 135.7 114.8 123.9 114.8 123.9L111.1 113.2" fill="#F2B18F"/>
<path fill-rule="evenodd" clip-rule="evenodd" d="M145.7 111.7L139 107C141 102.3 145.2 94.6 146 94.9C146.8 95.1 145.4 99.2 145.1 100.1C145.3 99.4 147.2 99.3 147.1 100.5C147.1 100.2 147.7 100.2 147.9 100.3C148.5 100.4 148.7 100.9 148.8 101.3C148.9 101.1 149.3 101.1 149.5 101.2C150.8 102 150.4 104.7 149.9 104.9C149.4 105.1 149.1 102.9 149.1 102.9C149.1 102.9 148.5 104.8 148.3 105.1C148.1 105.7 147.8 106.2 147.6 106.8C147 108 145.7 111.7 145.7 111.7Z" fill="#F2B18F"/>
<path d="M142.6 102.8C143.1 101.3 144 99.4 144.5 99.8C145.1 100.4 144.4 102 144.6 103.2C145.2 104.5 145 106.2 144.5 106.8" stroke="#E2845A" stroke-width="0.75" stroke-miterlimit="10"/>
<path d="M106.7 98.8C106.7 98.8 112.9 97.9 117.1 100.5C121.7 103.3 125.9 112.7 125.9 112.7L117.8 115.4" fill="#4A63FE"/>
<path d="M98.3999 98.5C98.3999 98.5 98.6999 100.7 102.6 101C106.1 101.3 106.8 98.9 106.8 98.9C106.8 98.9 116 101.7 118 112.8C120.2 124.3 121.7 153.4 121.7 153.4H83.8999C83.8999 153.4 84.2999 119.5 88.0999 109.5C91.8999 99.5 98.3999 98.5 98.3999 98.5Z" fill="#4A63FE"/>
<path d="M102.8 141H130.5C131.3 141 132 140.5 132.2 139.7L136.4 123.3C136.7 122.1 135.8 120.8 134.5 120.8H109.5C108.6 120.8 107.8 121.4 107.6 122.3L102.8 141Z" fill="#F2311D"/>
<path d="M118 130.9C118 131.9 119.1 132.7 120.4 132.7C121.7 132.7 122.8 131.9 122.8 130.9C122.8 129.9 121.7 129.1 120.4 129.1C119.1 129.1 118 129.9 118 130.9Z" fill="#FF756E"/>
<path d="M108.8 138.1C109.9 138.2 111.1 138.3 112.2 138.4C114 138.6 119.5 138.8 119.6 139.3C119.7 139.8 117.8 139.7 117.5 139.7C117.2 139.7 116.8 139.8 116.8 140.2C116.8 140.5 117.6 140.6 118.7 140.6C120.6 140.7 124.5 140.9 124.5 140.9C123.3 142.4 117.1 143.2 115.8 143.3C110.8 143.6 105.6 143.6 100.8 143.3" fill="#F2B18F"/>
<path d="M80.2 119C80.2 119 80.7 135.1 83.8 139.2C87.8 144.5 109.9 143.4 109.9 143.4L111.1 138.6C111.1 138.6 96.2 135.5 94.5 133.9C92.9 132.3 93.6 117.9 93.6 117.9" fill="#F2B18F"/>
<path d="M98.4 98.5C84.4 100 78.9999 106.4 79.9999 120L94.5999 119.1L93.9999 109.3" fill="#4A63FE"/>
<path d="M94 119.1C94 113.9 94 112.3 94 112.3" stroke="#1F38B2" stroke-width="0.75" stroke-miterlimit="10"/>
<path d="M118.5 115C118.5 115 118 111.5 116.7 108.4" stroke="#1F38B2" stroke-width="0.75" stroke-miterlimit="10"/>
</g>
<defs>
<clipPath id="clip0">
<rect width="444.6" height="250" fill="white"/>
</clipPath>
</defs>
</svg>
