<svg width="244" height="165" viewBox="0 0 244 165" fill="none" xmlns="http://www.w3.org/2000/svg">
<path d="M121.43 59.2099H117.31V49.4899H121.43C123.42 49.4899 125.04 51.1099 125.04 53.0999V55.5999C125.04 57.5899 123.42 59.2099 121.43 59.2099ZM118.73 57.7999H121.43C122.64 57.7999 123.63 56.8099 123.63 55.5999V53.0999C123.63 51.8899 122.64 50.8999 121.43 50.8999H118.73V57.7999Z" fill="#51A0A3"/>
<path d="M116.54 1.02994C114.56 1.58994 113.18 2.74994 112.18 4.09994C111.19 5.44994 110.56 6.99994 110.37 8.46994C109.91 11.5999 110.73 14.9699 111.81 18.5599C112.07 19.4699 112.37 20.3999 112.66 21.3599C112.93 22.3199 113.23 23.3099 113.48 24.3299C113.98 26.3699 114.36 28.5599 114.34 30.8299C114.32 33.1399 113.85 35.4299 112.82 37.4999C111.8 39.5499 110.14 41.3799 108.06 42.1999L107.62 41.6899C108.69 39.9599 109.15 38.1999 109.29 36.4399C109.43 34.6899 109.26 32.9399 108.87 31.2799C108.11 27.8599 106.51 24.4299 105.27 20.3999C104.98 19.3799 104.7 18.3399 104.48 17.2599C104.28 16.1799 104.11 15.0699 104.05 13.9299C103.92 11.6599 104.17 9.20994 105.08 6.94994C106.03 4.59994 107.67 2.65994 109.74 1.37994C110.78 0.749945 111.92 0.289945 113.11 0.0899449C114.29 -0.110055 115.51 -0.0300551 116.57 0.359945L116.54 1.02994Z" fill="#DADEFE"/>
<path d="M114.19 46.6199H103.3V59.0899C103.3 60.3199 103.85 61.4199 104.71 62.1599C105.42 62.7799 106.35 63.1599 107.37 63.1599H113.94C116.19 63.1599 118.01 61.3399 118.01 59.0899V46.6199H114.19Z" fill="#62C1C5"/>
<path d="M114.19 46.6199V58.0999C114.19 60.3499 112.37 62.1699 110.12 62.1699H104.71C105.42 62.7899 106.35 63.1699 107.37 63.1699H113.94C116.19 63.1699 118.01 61.3499 118.01 59.0999V46.6199H114.19Z" fill="#51A0A3"/>
<path d="M192.25 100.66H188.29V162.75H192.25V100.66Z" fill="#346669"/>
<path d="M194.83 102.56L151.36 101.97L147.71 39.5599C147.28 31.5799 153.66 24.8799 161.65 24.9299L187.55 24.6699C198.91 24.6699 204.98 35.1399 203.35 46.3799L194.83 102.56Z" fill="#62C1C5"/>
<path d="M194.9 102.64H140.09V100.04C140.09 92.1699 146.47 85.7999 154.33 85.7999H180.65C188.52 85.7999 194.89 92.1799 194.89 100.04V102.64H194.9Z" fill="#428285"/>
<path d="M146.69 100.66H142.73V162.75H146.69V100.66Z" fill="#346669"/>
<path d="M185.87 59.3699H143.61V63.1699H185.87V59.3699Z" fill="#9FB4B8"/>
<path d="M177.86 63.1499H143.19L133.88 43.1199C133.68 42.6799 134 42.1899 134.48 42.1899H165.77C167.2 42.1899 168.51 43.0199 169.11 44.3199L177.86 63.1499Z" fill="#CCE8EC"/>
<path d="M243.11 67.4499H47.95L49.5099 63.1199H241.54L243.11 67.4499Z" fill="#BD9C35"/>
<path d="M216.27 67.2999H211.55V164.91H216.27V67.2999Z" fill="#69571D"/>
<path d="M6.69 164.52H0L7.87 97.2399H14.56L6.69 164.52Z" fill="#438487"/>
<path d="M44.4501 164.52H51.1401L43.2701 97.2399H36.5901L44.4501 164.52Z" fill="#438487"/>
<path d="M28.03 96.6499H21.54V164.22H28.03V96.6499Z" fill="#346669"/>
<path d="M47.31 100.98H5.60998C3.33998 100.98 1.47998 98.8999 1.47998 96.3599C1.47998 93.8199 3.33998 91.7399 5.60998 91.7399H47.31C49.58 91.7399 51.44 93.8199 51.44 96.3599C51.44 98.8999 49.58 100.98 47.31 100.98Z" fill="#62C1C5"/>
<path d="M91.47 36.7599L96.48 37.6399L87.04 63.02L81.73 62.8699L91.47 36.7599Z" fill="#CCE8EC"/>
<path d="M87.0401 59.21H55.0801V63.02H87.0401V59.21Z" fill="#8FB9BC"/>
<path d="M64.4199 67.2999H59.7V164.91H64.4199V67.2999Z" fill="#69571D"/>
</svg>
