<svg width="1920" height="89" viewBox="0 0 1920 89" fill="none" xmlns="http://www.w3.org/2000/svg">
<path d="M538.5 58.5C318.1 92.5 88.8333 50.6667 0 25V0H1920V25C1844 77.8 1741.83 77.3333 1700 69.5C1564 45.6667 1255.9 10.1 1111.5 58.5C967.1 106.9 922.5 87.5 891 69.5C865.333 51.6667 758.9 24.5 538.5 58.5Z" fill="#15A0DB"/>
<path d="M538.5 33.5C318.1 67.5 88.8333 25.6667 0 0H1920C1844 52.8 1741.83 52.3333 1700 44.5C1564 20.6667 1255.9 -14.9 1111.5 33.5C967.1 81.9 922.5 62.5 891 44.5C865.333 26.6667 758.9 -0.5 538.5 33.5Z" fill="white"/>
</svg>
