<svg width="133" height="32" viewBox="0 0 133 32" fill="none" xmlns="http://www.w3.org/2000/svg">
<path fill-rule="evenodd" clip-rule="evenodd" d="M12.5 32C19.4036 32 25 26.6274 25 20C25 13.3726 19.4036 8 12.5 8C5.59644 8 0 13.3726 0 20C0 26.6274 5.59644 32 12.5 32ZM12.5 26C16.0899 26 19 23.3137 19 20C19 16.6863 16.0899 14 12.5 14C8.91015 14 6 16.6863 6 20C6 23.3137 8.91015 26 12.5 26Z" fill="#1B1B1B"/>
<rect x="104" width="6" height="31" rx="3" fill="#1B1B1B"/>
<path d="M123.5 30.5V1C126.7 3 129.167 5.83333 130 7C131.167 8.66667 133.3 13.4 132.5 19C131.7 24.6 126.167 29 123.5 30.5Z" fill="#177CDD"/>
<path d="M116 30V2C119.139 3.89831 121.558 6.58757 122.376 7.69492C123.52 9.27684 125.613 13.7695 124.828 19.0847C124.043 24.4 118.616 28.5763 116 30Z" fill="#177CDD"/>
<path fill-rule="evenodd" clip-rule="evenodd" d="M90 8C88.1667 8 83.8 8.9 81 12.5C78.2 16.1 78.1667 20 78.5 21.5C78.8333 23.8333 80.7 28.9 85.5 30.5C90.3 32.1 94.8333 30.8333 96.5 30C97.1667 29.6667 98.6 28.8 99 28C99.4 27.2 99.1667 26 99 25.5C98.8333 25 98.1 24.1 96.5 24.5C94.9 24.9 92 26 92 26C92 26 89.5 27 87 25.5C84.5746 24.0448 84.8333 22.3333 85 22H98.5C99.5 21.8333 101.4 20.9 101 18.5C100.988 18.4275 100.976 18.3523 100.963 18.2746C100.447 15.1417 99.2703 8 90 8ZM85 18.0001H94C94 16.8334 93.5 14.3001 91.5 13.5001C89.5 12.7001 88 13.1667 87.5 13.5001C86.5 14.0001 84.6 15.6001 85 18.0001Z" fill="#1B1B1B"/>
<rect x="66" y="2" width="6" height="25" rx="3" fill="#1B1B1B"/>
<path d="M70.5 31C66.5 29.8 65.8333 26.1667 66 24.5C67 23.5 70.8593 20.7573 71.5 22.9999C72.5 26.5 73.5 25 76.5 26C78.9 26.8 78.5 28.6667 78 29.5C77.1667 30.5 74.5 32.2 70.5 31Z" fill="#1B1B1B"/>
<rect x="78" y="8" width="6" height="15" rx="3" transform="rotate(90 78 8)" fill="#1B1B1B"/>
<rect x="27" y="8" width="6" height="24" rx="3" fill="#1B1B1B"/>
<rect x="41" y="12" width="6" height="20" rx="3" fill="#1B1B1B"/>
<rect x="56" y="12" width="6" height="20" rx="3" fill="#1B1B1B"/>
<path d="M37.5 8.49988C34.3 9.29988 32.8333 11.8332 32.5 12.9999V20.5C32.6667 18.1667 33.8 13.5 37 13.5C40.2 13.5 40.8333 15.8333 41 17L43.5 18L47 20C47 18 47.0949 16.8103 47.5 16C48 15 49.6716 14 52.5 14C55.5 14 55.8333 16.8333 56 18L62 15C62 12.6 60.8333 11.3333 60.5 11C60 10.1666 58.1 8.39988 54.5 7.99985C50.9 7.59982 48 10.1665 47 11.4999C46.2 10.2998 44.6667 9.3332 44 8.99988C43.1667 8.49988 40.7 7.69988 37.5 8.49988Z" fill="#1B1B1B"/>
</svg>
