<svg width="448" height="298" viewBox="0 0 448 298" fill="none" xmlns="http://www.w3.org/2000/svg">
<g clip-path="url(#clip0)">
<path d="M350.9 271.6C356.3 272.1 361.7 273.7 366.5 276.3C368.2 277.2 369.9 278.3 371.9 278.8C373.8 279.3 376 279.1 377.5 277.7C378.3 276.9 378.8 275.9 379.6 275.1C381 273.9 383.2 274 384.9 274.7C386.6 275.4 388.1 276.7 389.6 277.8C392.6 279.9 396.2 281.4 399.9 281.4C403.6 281.4 407.4 279.7 409.4 276.6C411.4 273.5 411.3 269 408.7 266.4C404.7 262.4 396.6 263.7 393.8 258.8C393.2 257.8 393 256.6 392.5 255.6C390.9 251.8 386.4 249.5 382.4 250.3C378.5 251.1 375.1 254.5 371.1 254.3C369.5 254.2 367.9 253.5 366.4 253.1C360.4 251.4 353.8 253.2 348.6 256.6C343.4 260.1 339.4 265 335.6 270" fill="#E6F0FF"/>
<path d="M338.6 266.7C349 264.7 359.6 263 370.2 263.5C380.8 264 396.5 268.1 407.2 279" stroke="white" stroke-miterlimit="10" stroke-linejoin="round"/>
<path d="M357.6 263.8C362.8 266.4 370 271.4 373.9 279" stroke="white" stroke-miterlimit="10" stroke-linejoin="round"/>
<path d="M368.9 263.5C373.1 266.4 377.3 269.5 380.5 274.5" stroke="white" stroke-miterlimit="10" stroke-linejoin="round"/>
<path d="M378.5 264.4C380.8 266.8 385 271.6 386.6 275.8" stroke="white" stroke-miterlimit="10" stroke-linejoin="round"/>
<path d="M384.6 265.7C389.4 270.5 393.6 276.3 395.7 281.4" stroke="white" stroke-miterlimit="10" stroke-linejoin="round"/>
<path d="M362.5 263.5C371.4 259 383.6 256.2 393.6 256.5" stroke="white" stroke-miterlimit="10" stroke-linejoin="round"/>
<path d="M377.3 264.1C383.6 261.3 390.5 260 397.3 260.2" stroke="white" stroke-miterlimit="10" stroke-linejoin="round"/>
<path d="M390.1 267.5C394.7 266.6 402.2 265.7 408.4 265.3" stroke="white" stroke-miterlimit="10" stroke-linejoin="round"/>
<path d="M352.5 264.4C352.5 264.4 355.3 256.5 368.9 251.9" stroke="white" stroke-miterlimit="10" stroke-linejoin="round"/>
<path d="M221.2 277.5C217.3 273.9 213.4 270.3 209.4 266.8C207 264.6 204.5 262.3 203.7 259.2C203.2 257.3 203.3 255.4 203 253.4C202.4 249.4 198.1 246.8 195.7 243.7C193 240.1 190.8 236.1 189.3 231.9C188 228.4 187.3 224.3 189.1 221.1C190.1 219.4 191.7 218.2 192.6 216.4C194 213.5 192.9 210 191 207.5C189 205 186.3 203.3 183.7 201.5C177.7 197.2 172.2 191.7 170.1 184.7C169.1 181.2 169.1 176.9 171.9 174.6C173.8 173 176.4 172.6 178.6 171.4C182.1 169.4 183.7 165.1 183.9 161.1C184.1 157.1 183.1 153.1 182.4 149.2C181.5 143.5 181.3 137.7 181.8 132C182.2 128.3 182.9 124.5 185 121.4C187.1 118.4 191 116.3 194.6 117.2C197.4 117.9 199.6 120.4 200.8 123.1C202 125.8 202.2 128.8 202.5 131.7C202.9 136 203.3 140.2 203.7 144.5C204.2 149.7 204.9 155.4 208.5 159.2C212.2 163.2 218.6 164.6 220.9 169.4C225.2 178.2 212.7 188.4 216.2 197.5C217.3 200.3 219.7 202.4 221.7 204.6C230 213.7 232.4 226.7 232.5 239C232.5 249.8 231.1 261.2 236 270.8" fill="#E6F0FF"/>
<path d="M193.1 116.5C193.1 159.5 207.3 222.6 223.6 261.2" stroke="white" stroke-miterlimit="10" stroke-linejoin="round"/>
<path d="M179.9 131.5C183 139.3 191.8 152 196.6 159.3" stroke="white" stroke-miterlimit="10" stroke-linejoin="round"/>
<path d="M182.1 147C187.3 154.2 191.9 161.9 197.9 167.9" stroke="white" stroke-miterlimit="10" stroke-linejoin="round"/>
<path d="M175.5 172.5C182.2 181.9 195.5 196.9 205.6 205" stroke="white" stroke-miterlimit="10" stroke-linejoin="round"/>
<path d="M215.5 163.9C209.6 177.2 206.7 184.7 203.7 196.8" stroke="white" stroke-miterlimit="10" stroke-linejoin="round"/>
<path d="M221.1 169.3C215.5 184.2 209.9 194.5 206.3 207.7" stroke="white" stroke-miterlimit="10" stroke-linejoin="round"/>
<path d="M223.5 204.2C217.9 213.4 214.9 223.2 213.7 233.8" stroke="white" stroke-miterlimit="10" stroke-linejoin="round"/>
<path d="M224.2 222.1C221.1 233.2 218 239.7 218.1 246.9" stroke="white" stroke-miterlimit="10" stroke-linejoin="round"/>
<path d="M313.3 262C321.9 262 329.7 256 331.1 248.4C331.7 245.4 331.4 242.2 333.1 239.6C335.6 235.7 340.8 234.6 342.8 230.4C344.7 226.3 343.2 221.2 343.5 216.9C343.8 212.6 346.8 208.9 349.7 205.6C351.3 203.8 352.9 201.9 353.8 199.7C355.6 195.5 354.8 190.7 353.1 186.3C352.1 184 350.9 181.7 350.6 179.2C350.3 176.9 351.2 174.6 351.5 172.3C351.9 167.9 350.9 163.4 348.6 159.4C347 156.6 344.6 154.1 341.6 152.6C338.6 151.1 334.7 150.8 331.8 152.3C326.7 154.9 326.2 161.4 326.8 166.8C327.4 172.2 328.2 178.4 324.4 182.3C321.8 185 317.7 185.9 314.5 188C311.3 190.1 309 194 310.7 197.5C311.9 199.9 314.9 201.9 314.7 204.5C314.4 207.1 311.2 208.2 309.2 210.1C306.1 213.1 306.7 218 308.7 221.8C310.7 225.6 313.8 228.9 315.8 232.7C318.9 238.6 318.8 245.6 315.7 251.3" fill="#BBCFF2"/>
<path d="M337.7 151.4C340.2 169.7 338.8 181.2 336.6 193.8C333.4 212.4 326 239.5 315.8 259.8" stroke="white" stroke-miterlimit="10" stroke-linejoin="round"/>
<path d="M350.4 163.6C347 170.4 342.8 176.7 338.3 181.8" stroke="white" stroke-miterlimit="10" stroke-linejoin="round"/>
<path d="M352.3 170.5C348.3 178.8 342.6 185.1 337.2 190.5" stroke="white" stroke-miterlimit="10" stroke-linejoin="round"/>
<path d="M353.2 184.7C347.9 191 341.4 196 335.6 199.1" stroke="white" stroke-miterlimit="10" stroke-linejoin="round"/>
<path d="M354.2 198.4C347.2 205.8 336.5 212 331.9 215.3" stroke="white" stroke-miterlimit="10" stroke-linejoin="round"/>
<path d="M343.8 217.4C337.3 223.5 332.8 225.9 328.1 228.5" stroke="white" stroke-miterlimit="10" stroke-linejoin="round"/>
<path d="M314.5 204.4C318.4 211.4 324.6 220.9 328 228.5" stroke="white" stroke-miterlimit="10" stroke-linejoin="round"/>
<path d="M320 185.1C323.2 191.9 330 207.5 331.9 215.2" stroke="white" stroke-miterlimit="10" stroke-linejoin="round"/>
<path d="M325.4 173.8C328.8 180.2 333.3 189.7 335.7 199.1" stroke="white" stroke-miterlimit="10" stroke-linejoin="round"/>
<path d="M201 269.6C187.4 246 160.3 234.1 138.7 217.4C135.4 214.8 132.1 212 129.9 208.5C127.7 204.9 126.6 200.4 128 196.5C129.9 190.9 136.2 187.7 142.2 187.2C151.2 186.4 159.9 190.1 167.5 194.9C191.6 210.3 212.4 239.1 220.5 272.2" fill="white"/>
<path d="M201 269.6C187.4 246 160.3 234.1 138.7 217.4C135.4 214.8 132.1 212 129.9 208.5C127.7 204.9 126.6 200.4 128 196.5C129.9 190.9 136.2 187.7 142.2 187.2C151.2 186.4 159.9 190.1 167.5 194.9C191.6 210.3 212.4 239.1 220.5 272.2" stroke="#BBD5F9" stroke-miterlimit="10" stroke-linejoin="round"/>
<path d="M129.7 192.9C167.8 206.4 194.8 235 212.3 271.1" stroke="#BBD5F9" stroke-miterlimit="10" stroke-linejoin="round"/>
<path d="M187.4 270C185.2 264.1 182.9 258 179.2 253C175.5 248 170.1 244 164.2 243.6C162.2 243.5 160.2 243.8 158.2 243.4C153.3 242.4 150 237.7 146.4 234C140.5 228 132.5 224.3 124.4 223.7C122.7 223.6 120.8 223.7 119.6 224.9C116.7 227.8 120 233.7 117.4 236.9C115.9 238.8 113.1 238.7 110.8 238.5C102.6 237.8 93.9 238.2 86.7 242.4C85.4 243.1 84.2001 244 83.4001 245.3C81.9001 248 82.9001 251.7 85.1001 253.8C87.5001 256.2 91.7001 257.3 94.9001 258.2C99.0001 259.3 103.4 259.5 107.6 259.3C109.2 259.2 110.7 259.4 112.3 259.4C114.3 259.4 116.2 258.8 118.2 259.3C120.4 259.8 122.4 261.5 122.7 263.7C122.8 264.8 122.5 265.9 122.7 267C123 268.6 124.4 269.8 126 270.4C127.5 271 129.2 271 130.9 270.9C134.7 270.9 148.9 266.2 150.7 272C151.1 273.3 150.5 274.6 150.4 276C150.3 283.7 166.6 281 171 281.5C174.9 281.9 178.7 283.2 182 285.3" fill="#BBCFF2"/>
<path d="M83.3 245.5C130.2 244.3 164 260.7 190.1 285.8" stroke="white" stroke-miterlimit="10" stroke-linejoin="round"/>
<path d="M127.8 222.7C135.1 230.8 145.9 251.9 148.5 257.5" stroke="white" stroke-miterlimit="10" stroke-linejoin="round"/>
<path d="M102.2 259.8C111.5 255.5 124.5 252.7 134.6 252.3" stroke="white" stroke-miterlimit="10" stroke-linejoin="round"/>
<path d="M90.6001 257.2C97.2001 254.4 113.9 249.5 120.9 248.7" stroke="white" stroke-miterlimit="10" stroke-linejoin="round"/>
<path d="M117.1 237.1C123.3 241.3 126.6 245.3 129.4 250.7" stroke="white" stroke-miterlimit="10" stroke-linejoin="round"/>
<path d="M135.5 274.7C141.9 269.2 154.5 265.7 162.7 264.9" stroke="white" stroke-miterlimit="10" stroke-linejoin="round"/>
<path d="M158.2 241.6C162.8 249.9 167.4 260.5 168.5 268.4" stroke="white" stroke-miterlimit="10" stroke-linejoin="round"/>
<path d="M320.5 265.8C326.4 239.9 340.2 214.2 364.9 199.6C376.3 192.9 390.4 188.8 403.7 191.3C408.8 192.3 414 194.4 416.8 198.4C420.2 203.2 419.3 209.8 415.9 214.6C412.6 219.5 407.3 223 401.9 226C391.9 231.6 381.2 236.2 371.3 241.9C361.4 247.6 345.6 257.8 337.3 272.1" fill="white"/>
<path d="M320.5 265.8C326.4 239.9 340.2 214.2 364.9 199.6C376.3 192.9 390.4 188.8 403.7 191.3C408.8 192.3 414 194.4 416.8 198.4C420.2 203.2 419.3 209.8 415.9 214.6C412.6 219.5 407.3 223 401.9 226C391.9 231.6 381.2 236.2 371.3 241.9C361.4 247.6 345.6 257.8 337.3 272.1" stroke="#BBD5F9" stroke-miterlimit="10" stroke-linejoin="round"/>
<path d="M327.4 273.2C331.8 253.9 347 237.6 363.1 224.8C378.7 212.3 395.6 201.2 416.8 198.5" stroke="#BBD5F9" stroke-miterlimit="10" stroke-linejoin="round"/>
<path d="M344.7 75.3C345.1 73.7 345.3 72.1 345.3 70.4C345.3 68.7 345.1 67.1 344.7 65.5L340.3 66.1C339.9 64.6 339.3 63.3 338.6 62L342.2 59.3C340.5 56.5 338.1 54.1 335.3 52.4L332.6 56C331.3 55.3 330 54.7 328.5 54.3L329.1 49.9C327.5 49.5 325.9 49.3 324.2 49.3C322.5 49.3 320.9 49.5 319.3 49.9L319.9 54.3C318.5 54.7 317.1 55.3 315.8 56L313.1 52.4C310.3 54.1 307.9 56.5 306.2 59.3L309.8 62C309.1 63.3 308.5 64.6 308.1 66.1L303.7 65.5C303.3 67.1 303.1 68.7 303.1 70.4C303.1 72.1 303.3 73.7 303.7 75.3L308.1 74.7C308.5 76.2 309.1 77.5 309.8 78.8L306.2 81.5C307.9 84.3 310.3 86.7 313.1 88.4L315.8 84.8C317.1 85.5 318.4 86.1 319.9 86.5L319.3 90.9C320.9 91.3 322.5 91.5 324.2 91.5C325.9 91.5 327.5 91.3 329.1 90.9L328.5 86.5C330 86.1 331.3 85.5 332.6 84.8L335.3 88.4C338.1 86.7 340.5 84.3 342.2 81.5L338.6 78.8C339.3 77.5 339.9 76.2 340.3 74.7L344.7 75.3ZM324.2 80.5C318.6 80.5 314 76 314 70.3C314 64.7 318.5 60.1 324.2 60.1C329.8 60.1 334.4 64.6 334.4 70.3C334.4 76 329.8 80.5 324.2 80.5Z" fill="#EBF3FF"/>
<path d="M208.3 74.4C208.9 72 209.2 69.6 209.2 67.1C209.2 64.6 208.9 62.1 208.3 59.8L201.6 60.8C201 58.6 200.2 56.6 199.1 54.7L204.5 50.7C201.9 46.5 198.3 42.9 194.1 40.3L190.1 45.7C188.2 44.6 186.1 43.7 184 43.2L185 36.5C182.6 35.9 180.2 35.6 177.7 35.6C175.2 35.6 172.7 35.9 170.4 36.5L171.4 43.2C169.2 43.8 167.2 44.6 165.3 45.7L161.3 40.3C157.1 42.9 153.5 46.5 150.9 50.7L156.3 54.7C155.2 56.6 154.3 58.7 153.8 60.8L147.1 59.8C146.5 62.2 146.2 64.6 146.2 67.1C146.2 69.6 146.5 72.1 147.1 74.4L153.8 73.4C154.4 75.6 155.2 77.6 156.3 79.5L150.9 83.5C153.5 87.7 157.1 91.3 161.3 93.9L165.3 88.5C167.2 89.6 169.3 90.5 171.4 91L170.4 97.7C172.8 98.3 175.2 98.6 177.7 98.6C180.2 98.6 182.7 98.3 185 97.7L184 91C186.2 90.4 188.2 89.6 190.1 88.5L194.1 93.9C198.3 91.3 201.9 87.7 204.5 83.5L199.1 79.5C200.2 77.6 201.1 75.5 201.6 73.4L208.3 74.4ZM177.6 82.2C169.2 82.2 162.4 75.4 162.4 67C162.4 58.6 169.2 51.8 177.6 51.8C186 51.8 192.8 58.6 192.8 67C192.8 75.4 186 82.2 177.6 82.2Z" fill="#EBF3FF"/>
<path d="M237.8 25.1C238.2 23.6 238.3 22.1 238.3 20.5C238.3 18.9 238.1 17.4 237.8 15.9L233.6 16.5C233.2 15.1 232.7 13.8 232 12.7L235.4 10.2C233.8 7.50001 231.5 5.30001 228.9 3.70001L226.4 7.00001C225.2 6.30001 223.9 5.80001 222.6 5.40001L223.2 1.20001C221.7 0.800012 220.2 0.700012 218.6 0.700012C217 0.700012 215.5 0.900012 214 1.20001L214.6 5.40001C213.2 5.80001 211.9 6.30001 210.8 7.00001L208.3 3.60001C205.6 5.20001 203.4 7.50001 201.8 10.1L205.2 12.6C204.5 13.8 204 15.1 203.6 16.4L199.4 15.8C199 17.3 198.9 18.8 198.9 20.4C198.9 22 199.1 23.5 199.4 25L203.6 24.4C204 25.8 204.5 27.1 205.2 28.2L201.8 30.7C203.4 33.4 205.7 35.6 208.3 37.2L210.8 33.8C212 34.5 213.3 35 214.6 35.4L214 39.6C215.5 40 217 40.1 218.6 40.1C220.2 40.1 221.7 39.9 223.2 39.6L222.6 35.4C224 35 225.3 34.5 226.4 33.8L228.9 37.2C231.6 35.6 233.8 33.3 235.4 30.7L232 28.2C232.7 27 233.2 25.7 233.6 24.4L237.8 25.1ZM218.6 30C213.3 30 209.1 25.7 209.1 20.5C209.1 15.2 213.4 11 218.6 11C223.8 11 228.1 15.3 228.1 20.5C228.1 25.7 223.8 30 218.6 30Z" fill="#EBF3FF"/>
<path d="M366.5 91.4C366.5 92.6 365.6 93.5 364.4 93.5C363.2 93.5 362.3 92.6 362.3 91.4C362.3 90.2 363.2 89.3 364.4 89.3C365.6 89.3 366.5 90.3 366.5 91.4Z" stroke="#BBD5F9" stroke-miterlimit="10" stroke-linejoin="round"/>
<path d="M420.8 188.9C420.8 190.1 419.9 191 418.7 191C417.5 191 416.6 190.1 416.6 188.9C416.6 187.7 417.5 186.8 418.7 186.8C419.9 186.8 420.8 187.7 420.8 188.9Z" stroke="#BBD5F9" stroke-miterlimit="10" stroke-linejoin="round"/>
<path d="M174.6 70.4C174.6 71.6 173.7 72.5 172.5 72.5C171.3 72.5 170.4 71.6 170.4 70.4C170.4 69.2 171.3 68.3 172.5 68.3C173.6 68.3 174.6 69.2 174.6 70.4Z" stroke="#BBD5F9" stroke-miterlimit="10" stroke-linejoin="round"/>
<path d="M100.1 131.5C100.1 132.7 99.2001 133.6 98.0001 133.6C96.8001 133.6 95.9001 132.7 95.9001 131.5C95.9001 130.3 96.8001 129.4 98.0001 129.4C99.2001 129.5 100.1 130.4 100.1 131.5Z" stroke="#BBD5F9" stroke-miterlimit="10" stroke-linejoin="round"/>
<path d="M422.7 244.4V249.2" stroke="#BBD5F9" stroke-miterlimit="10" stroke-linejoin="round"/>
<path d="M425.1 246.8H420.3" stroke="#BBD5F9" stroke-miterlimit="10" stroke-linejoin="round"/>
<path d="M312.7 25.2V30" stroke="#BBD5F9" stroke-miterlimit="10" stroke-linejoin="round"/>
<path d="M315.1 27.6H310.3" stroke="#BBD5F9" stroke-miterlimit="10" stroke-linejoin="round"/>
<path d="M57.3 209.2V214" stroke="#BBD5F9" stroke-miterlimit="10" stroke-linejoin="round"/>
<path d="M59.7001 211.6H54.9001" stroke="#BBD5F9" stroke-miterlimit="10" stroke-linejoin="round"/>
<path d="M154.8 127.1V131.9" stroke="#BBD5F9" stroke-miterlimit="10" stroke-linejoin="round"/>
<path d="M157.2 129.5H152.4" stroke="#BBD5F9" stroke-miterlimit="10" stroke-linejoin="round"/>
<path d="M186.3 18.1V22.9" stroke="#BBD5F9" stroke-miterlimit="10" stroke-linejoin="round"/>
<path d="M188.7 20.5H183.9" stroke="#BBD5F9" stroke-miterlimit="10" stroke-linejoin="round"/>
<path d="M390.4 114.5C392.9 120.3 390.2 127 384.4 129.5C378.6 132 371.9 129.3 369.4 123.5C366.9 117.7 369.6 111 375.4 108.5C381.1 106.1 387.9 108.8 390.4 114.5Z" stroke="#BBD5F9" stroke-miterlimit="10" stroke-linejoin="round"/>
<path d="M382.3 124.7C373.2 128.6 362.8 130.8 361.2 127.1C360 124.2 365.5 119.9 368.5 117.9L368.4 119.6C363.4 122.9 363.5 124.8 364 125.9C364.9 128 371.5 128 381.8 123.5C392.1 119.1 396.6 114.3 395.7 112.2C395.2 111 393.9 109.7 388.1 111.1L386.9 110.1C392.9 108.7 397.7 108.9 398.6 111C400.1 114.7 391.4 120.8 382.3 124.7Z" fill="white" stroke="#BBD5F9" stroke-miterlimit="10" stroke-linejoin="round"/>
<path d="M118.8 89.6C116.7 94.4 111.1 96.6 106.3 94.5C101.5 92.4 99.3002 86.8 101.4 82C103.5 77.2 109.1 75 113.9 77.1C118.7 79.3 120.9 84.9 118.8 89.6Z" stroke="#BBD5F9" stroke-miterlimit="10" stroke-linejoin="round"/>
<path d="M108.1 90.5C100.6 87.2 93.4001 82.1 94.7001 79C95.7001 76.6 101.5 77.5 104.4 78.3L103.4 79.2C98.6001 78 97.5001 79.1 97.1001 80.1C96.3001 81.8 100.1 85.8 108.6 89.5C117.1 93.2 122.5 93.3 123.3 91.6C123.7 90.6 123.8 89.1 119.7 86.3V85C124 87.8 126.5 90.8 125.7 92.6C124.2 95.7 115.5 93.8 108.1 90.5Z" fill="white" stroke="#BBD5F9" stroke-miterlimit="10" stroke-linejoin="round"/>
<path d="M24.2001 176.7L27.6 173.4L28.2001 178.1L32.4001 180.3L28.1 182.4L27.3 187.1L24 183.6L19.3 184.3L21.6 180.1L19.4 175.8L24.2001 176.7Z" stroke="#BBD5F9" stroke-miterlimit="10" stroke-linejoin="round"/>
<path d="M322.2 68.6L322.6 64.7L325.5 67.4L329.3 66.6L327.7 70.1L329.7 73.5L325.7 73L323.1 76L322.4 72.1L318.8 70.5L322.2 68.6Z" stroke="#BBD5F9" stroke-miterlimit="10" stroke-linejoin="round"/>
<path d="M27.5 241.4H35.9" stroke="#BBD5F9" stroke-miterlimit="10" stroke-linejoin="round"/>
<path d="M326.7 130.9H335.1" stroke="#BBD5F9" stroke-miterlimit="10" stroke-linejoin="round"/>
<path d="M338.4 130.9H344.4" stroke="#BBD5F9" stroke-miterlimit="10" stroke-linejoin="round"/>
<path d="M40.4001 241.4H46.3001" stroke="#BBD5F9" stroke-miterlimit="10" stroke-linejoin="round"/>
<path d="M139.7 116.5H149.8" stroke="#BBD5F9" stroke-miterlimit="10" stroke-linejoin="round"/>
<path d="M130.8 116.5H137.2" stroke="#BBD5F9" stroke-miterlimit="10" stroke-linejoin="round"/>
<path d="M271.4 283.6C271.4 286.6 268.9 289.1 265.9 289.1C262.9 289.1 260.4 286.6 260.4 283.6C260.4 280.6 262.9 278.1 265.9 278.1C268.9 278.1 271.4 280.6 271.4 283.6Z" stroke="white" stroke-miterlimit="10" stroke-linecap="round" stroke-linejoin="round"/>
<path d="M256.9 112H274.8" stroke="#6CA0FF" stroke-miterlimit="10" stroke-linecap="round" stroke-linejoin="round"/>
<path d="M250.2 112H253.5" stroke="#6CA0FF" stroke-miterlimit="10" stroke-linecap="round" stroke-linejoin="round"/>
<path d="M290.6 85.4L212.4 298H235.1L313.4 85.4H290.6Z" fill="url(#paint0_linear)"/>
<path d="M320.4 85.4L242.1 298H251.8L330 85.4H320.4Z" fill="url(#paint1_linear)"/>
<path d="M238.9 153.7H226.7C224.9 153.7 223.4 152.2 223.4 150.4V138.2C223.4 136.4 224.9 134.9 226.7 134.9H238.9C240.7 134.9 242.2 136.4 242.2 138.2V150.4C242.2 152.2 240.8 153.7 238.9 153.7Z" fill="#F5F6FF"/>
<path d="M227.3 157.5H238.4" stroke="#F5F6FF" stroke-miterlimit="10" stroke-linejoin="round"/>
<path d="M271.9 153.7H259.7C257.9 153.7 256.4 152.2 256.4 150.4V138.2C256.4 136.4 257.9 134.9 259.7 134.9H271.9C273.7 134.9 275.2 136.4 275.2 138.2V150.4C275.2 152.2 273.8 153.7 271.9 153.7Z" fill="#F5F6FF"/>
<path d="M260.3 157.5H271.4" stroke="#F5F6FF" stroke-miterlimit="10" stroke-linejoin="round"/>
<path d="M304.9 153.7H292.7C290.9 153.7 289.4 152.2 289.4 150.4V138.2C289.4 136.4 290.9 134.9 292.7 134.9H304.9C306.7 134.9 308.2 136.4 308.2 138.2V150.4C308.2 152.2 306.8 153.7 304.9 153.7Z" fill="#F5F6FF"/>
<path d="M293.3 157.5H304.4" stroke="#F5F6FF" stroke-miterlimit="10" stroke-linejoin="round"/>
<path d="M125.2 295.3C127.7 291.5 131.9 289.2 136.4 289.2C138.6 289.2 140.7 289.7 142.6 290.7C142.7 290.7 142.8 290.8 142.8 290.8C142.9 290.8 143 290.8 143 290.7C143.1 290.6 143.2 290.5 143.3 290.3C143.5 284.7 148.1 280.3 153.7 280.3C156.4 280.3 158.9 281.3 160.8 283.2C160.9 283.3 161 283.3 161.1 283.3C161.2 283.3 161.2 283.3 161.3 283.3C161.5 283.2 161.6 283.1 161.6 282.9C163.3 268.7 175.4 257.9 189.8 257.9C195.4 257.9 200.8 259.5 205.5 262.6C205.6 262.7 205.7 262.7 205.8 262.7C205.9 262.7 205.9 262.7 206 262.7C206.2 262.6 206.3 262.5 206.3 262.3C207.9 255 214.4 249.8 221.8 249.8C227.1 249.8 232.1 252.5 235 256.9C235.1 257 235.3 257.1 235.4 257.1C235.4 257.1 235.4 257.1 235.5 257.1C235.7 257.1 235.8 257 235.9 256.8C240.7 243.6 252.2 187.6 252.1 143.3H278.1C277.9 187.9 289.6 244.1 294.4 257.3C294.5 257.5 294.6 257.6 294.8 257.6C294.8 257.6 294.8 257.6 294.9 257.6C295.1 257.6 295.2 257.5 295.3 257.4C297.4 254.3 300.8 252.4 304.6 252.4C308.9 252.4 312.8 254.9 314.6 258.8C314.7 258.9 314.8 259 315 259.1H315.1C315.2 259.1 315.3 259.1 315.4 259C320.1 254.6 326.3 252.1 332.8 252.1C346.4 252.1 357.6 262.7 358.2 276.3C358.2 276.5 358.3 276.6 358.5 276.7C358.6 276.7 358.7 276.8 358.7 276.8C358.8 276.8 358.9 276.8 359 276.7C360.7 275.7 362.6 275.2 364.6 275.2C370.4 275.2 375.2 279.7 375.7 285.4C375.7 285.6 375.8 285.7 375.9 285.8C376 285.8 376.1 285.9 376.2 285.9C376.3 285.9 376.3 285.9 376.4 285.9C378.3 285.1 380.4 284.6 382.5 284.6C389.2 284.6 395 289 397 295.3H125.2Z" fill="white"/>
<path d="M277.6 143.9C277.5 188.5 289.2 244.4 294 257.6C294.1 258 294.4 258.2 294.8 258.2H294.9C295.2 258.2 295.5 258 295.7 257.8C297.7 254.8 301 253 304.6 253C308.7 253 312.5 255.4 314.2 259.1C314.3 259.4 314.6 259.6 314.9 259.7C315 259.7 315 259.7 315.1 259.7C315.4 259.7 315.6 259.6 315.8 259.4C320.4 255.1 326.5 252.7 332.8 252.7C346.1 252.7 357.1 263.1 357.7 276.4C357.7 276.7 357.9 277.1 358.2 277.2C358.3 277.3 358.5 277.3 358.7 277.3C358.9 277.3 359 277.3 359.2 277.2C360.8 276.3 362.7 275.8 364.5 275.8C370 275.8 374.6 280.1 375.1 285.6C375.1 285.9 375.3 286.2 375.6 286.4C375.8 286.5 375.9 286.5 376.1 286.5C376.2 286.5 376.4 286.5 376.5 286.4C378.4 285.6 380.3 285.2 382.4 285.2C388.6 285.2 394.1 289.1 396.2 294.9H126.2C128.6 291.7 132.4 289.8 136.5 289.8C138.6 289.8 140.6 290.3 142.5 291.3C142.6 291.4 142.8 291.4 143 291.4C143.2 291.4 143.3 291.4 143.5 291.3C143.8 291.1 144 290.8 144 290.5C144.2 285.2 148.6 281 153.9 281C156.4 281 158.8 282 160.7 283.7C160.9 283.9 161.1 284 161.4 284C161.5 284 161.6 284 161.7 283.9C162.1 283.8 162.3 283.5 162.4 283.1C164.1 269.1 176 258.6 190.1 258.6C195.6 258.6 200.9 260.2 205.5 263.2C205.7 263.3 205.9 263.4 206.1 263.4C206.2 263.4 206.4 263.4 206.5 263.3C206.8 263.2 207 262.9 207.1 262.6C208.6 255.6 214.9 250.5 222.1 250.5C227.3 250.5 232.1 253.1 234.9 257.4C235.1 257.7 235.4 257.8 235.7 257.8H235.8C236.2 257.8 236.5 257.5 236.6 257.1C241.4 243.9 252.9 188.2 252.8 143.9H277.6V143.9ZM278.6 142.9H251.6C251.8 187.9 240.1 244.1 235.5 256.7C232.6 252.3 227.6 249.4 221.8 249.4C213.9 249.4 207.4 254.9 205.8 262.3C201.2 259.3 195.7 257.5 189.8 257.5C175 257.5 162.9 268.6 161.1 282.9C159.1 281.1 156.5 279.9 153.6 279.9C147.7 279.9 143 284.5 142.7 290.3C140.8 289.3 138.6 288.7 136.2 288.7C131 288.7 126.4 291.6 124.1 295.8H397.3C395.5 289.1 389.4 284.1 382.2 284.1C380 284.1 377.8 284.6 375.9 285.4C375.4 279.4 370.4 274.7 364.3 274.7C362.2 274.7 360.2 275.3 358.5 276.3C357.9 262.6 346.5 251.6 332.6 251.6C325.7 251.6 319.5 254.3 314.9 258.6C313 254.6 309 251.9 304.4 251.9C300.3 251.9 296.8 254 294.7 257.1C290.5 244.9 278.4 188.4 278.6 142.9Z" fill="#BBD5F9"/>
<path d="M232.7 262.2C226.9 262.2 222 266.1 220.5 271.5C216.4 267.9 211.1 265.6 205.2 265.6C193.5 265.6 183.8 274.4 182.4 285.7C180.4 284.6 178.2 284 175.8 284C168.8 284 163 289.2 162.1 296H368.3C366.8 291.1 362.2 287.5 356.8 287.5C354.3 287.5 351.9 288.3 350 289.6C349.4 284.8 345.4 281.1 340.5 281.1C338.4 281.1 336.5 281.8 334.9 282.9C333.6 273.3 325.4 266 315.5 266C309.7 266 304.6 268.5 301 272.4C299.8 268.1 295.8 264.9 291.1 264.9C289.9 264.9 288.7 265.1 287.6 265.5C283.8 249.7 275.5 192.6 275.7 146.8H255.5C255.7 194.1 247 252 243.2 267C240.5 264.2 236.8 262.2 232.7 262.2Z" fill="#E6F0FF"/>
<path d="M292.8 276.3C287.5 275.7 282.5 277.9 279.2 281.7C281.8 276 287.8 272.3 294.4 273C302.7 273.9 308.7 281.3 307.8 289.5C307.7 290.9 307.3 292.2 306.8 293.5C307.7 284.8 301.4 277.2 292.8 276.3Z" fill="white"/>
<path d="M227.4 278.9C223.6 281.6 221.6 285.8 221.6 290.2C220 285 221.9 279.1 226.6 275.8C232.5 271.6 240.6 273 244.8 278.9C245.5 279.9 246 281 246.4 282C242 275.9 233.5 274.5 227.4 278.9Z" fill="white"/>
<path d="M273.9 273.7C269.8 273.3 266.1 275.9 265 279.7C265 279.2 265 278.7 265 278.2C265.5 273.6 269.6 270.3 274.2 270.8C278.3 271.2 281.4 274.6 281.7 278.6L281 279.4C280 276.4 277.3 274.1 273.9 273.7Z" fill="white"/>
<path d="M221.3 122C219.2 132.7 229 177.5 229 177.5C229 177.5 235.3 130.1 243.5 127.1C246.2 114.2 242.4 104.5 242.6 99.8C242.5 99.8 225.9 98.6 221.3 122Z" fill="#F2311D"/>
<path d="M310.4 122C312.5 132.7 302.7 177.5 302.7 177.5C302.7 177.5 296.4 130.1 288.2 127.1C285.5 114.2 289.3 104.5 289.1 99.8C289.2 99.8 305.8 98.6 310.4 122Z" fill="#F2311D"/>
<path d="M265.8 1.59998C265.8 1.59998 226.5 22.1 226.5 61.9C226.5 95.9 241.1 150 241.1 150H265.8H290.5C290.5 150 305.1 95.9 305.1 61.9C305.1 22.1 265.8 1.59998 265.8 1.59998Z" fill="#3E7EFF"/>
<path d="M265.8 82.8C277.84 82.8 287.6 73.0398 287.6 61C287.6 48.9602 277.84 39.2 265.8 39.2C253.76 39.2 244 48.9602 244 61C244 73.0398 253.76 82.8 265.8 82.8Z" fill="white"/>
<path d="M285.497 63.9879C287.116 53.1173 279.616 42.9924 268.746 41.3735C257.875 39.7546 247.75 47.2547 246.131 58.1254C244.512 68.9961 252.012 79.1208 262.883 80.7397C273.754 82.3586 283.879 74.8586 285.497 63.9879Z" stroke="#4A63FE" stroke-width="2" stroke-linecap="round" stroke-linejoin="round"/>
<path d="M265.8 79C275.741 79 283.8 70.9411 283.8 61C283.8 51.0589 275.741 43 265.8 43C255.859 43 247.8 51.0589 247.8 61C247.8 70.9411 255.859 79 265.8 79Z" fill="#202263"/>
<mask id="mask0" mask-type="alpha" maskUnits="userSpaceOnUse" x="244" y="39" width="44" height="44">
<path d="M265.8 82.8C277.84 82.8 287.6 73.0398 287.6 61C287.6 48.9602 277.84 39.2 265.8 39.2C253.76 39.2 244 48.9602 244 61C244 73.0398 253.76 82.8 265.8 82.8Z" fill="white"/>
</mask>
<g mask="url(#mask0)">
<g opacity="0.65">
<path opacity="0.25" d="M285.75 48.7519L279.379 42.9753L249.153 76.3113L255.524 82.0879L285.75 48.7519Z" fill="white"/>
<path opacity="0.25" d="M288.389 51.1302L287.203 50.0555L256.977 83.3915L258.162 84.4662L288.389 51.1302Z" fill="white"/>
<path opacity="0.25" d="M277.369 41.4713L275.295 39.5905L245.069 72.9265L247.143 74.8073L277.369 41.4713Z" fill="white"/>
</g>
</g>
<path d="M242.7 18.3H288.9C277.7 6.2 265.8 0 265.8 0C265.8 0 254 6.2 242.7 18.3Z" fill="#F2311D"/>
<path d="M295.4 142.5H236.9V146.5H295.4V142.5Z" fill="#202263"/>
<path d="M241.5 15H291.6" stroke="white" stroke-width="1.5" stroke-miterlimit="10" stroke-linejoin="round"/>
<path d="M265.8 102.4C252.1 104.5 265.8 182 265.8 182C265.8 182 279.6 104.5 265.8 102.4Z" fill="#F2311D"/>
<path d="M447.6 295.1H0V296.1H447.6V295.1Z" fill="#BBCFF2"/>
<path d="M383.3 232.5C383.3 232.5 387.4 246.7 394 256.2C403.7 270 420.4 278.9 420.4 278.9L426.7 272.3C426.7 272.3 410.8 258.6 404.4 247.7C400.7 241.3 397.8 227.1 397.8 227.1" fill="#F2B18F"/>
<path d="M420.9 276L419.1 285.4C419.1 285.4 429.9 275.1 429.9 274.4C429.9 273.7 426.7 272.2 426.7 272.2" fill="#F2B18F"/>
<path d="M428.2 276.1L428.1 273L427.1 272.4L427.2 277.2L426.1 278.4L420 280.6L418.5 287.9C418.3 288.7 419.4 289.3 420 288.7L425.8 282.6L426.3 279.4L426.8 278.8L428.2 280.1L432 276.1L430.1 274.3L428.2 276.1Z" fill="#202263"/>
<path d="M382.2 197.5L367.2 201C365 228.3 364.9 228.3 366.5 247C368.5 270.2 372.4 289.6 372.4 289.6L367 293.1C367 293.1 381.9 293.8 382.4 293.3C382.9 292.8 381.8 289.5 381.8 289.5C381.8 289.5 380.3 254.6 380 245.5C379.7 236.5 382.2 197.5 382.2 197.5Z" fill="#F2B18F"/>
<path d="M380 293.3L382.2 291.1L381.9 290L378.5 293.4H376.9L371.1 290.6L364.8 294.6C364.1 295.1 364.4 296.2 365.3 296.2L373.7 296.1L376.4 294.2H377.2V296.1L382.7 296V293.4L380 293.3Z" fill="#202263"/>
<path d="M391.5 168.7C391.5 168.7 396.7 165.1 398.7 162.7C403.2 157.4 407.4 143.1 407.4 143.1L414.7 145C414.7 145 412.1 161.4 407.3 168.7C404.1 173.5 397 180.2 397 180.2" fill="#F2B18F"/>
<path d="M406.5 147.1C406.5 147.1 408.8 136 409.4 135.8C410 135.7 409.5 137.8 409.9 137.6C410.3 137.4 411.4 132.5 411.9 132.5C412.7 132.5 411.7 137 411.7 137C411.7 137 413.1 132.2 413.8 132.4C414.3 132.6 413.4 136.3 413.2 137.8C413.6 136.2 414.5 133.8 415 133.9C415.5 134.1 415 136.6 414.6 138.6C414.9 137.4 415.6 135.2 416.1 135.4C416.6 135.5 414.9 144.5 413.5 150.8" fill="#F2B18F"/>
<path d="M414.5 139.4C413.9 140.2 413.3 140.4 412.8 141C412.3 141.6 411.9 142.3 411.8 143.1" stroke="#E2845A" stroke-width="0.5" stroke-miterlimit="10" stroke-linejoin="round"/>
<path d="M410 138.6C410 139.1 410.5 140.2 409.9 141.7" stroke="#E2845A" stroke-width="0.5" stroke-miterlimit="10" stroke-linejoin="round"/>
<path d="M351 199.5C349.8 199.5 348.7 199.6 347.5 199.8C347.4 199.8 347.3 199.8 347.2 199.9C347.1 200.1 347.3 200.3 347.4 200.4C347.8 200.6 348.4 200.6 348.8 200.9C348.9 201 348.4 201.2 348.4 201.2C348.1 201.3 347.8 201.2 347.5 201.2C347.2 201.2 345.6 200.6 345.9 201.3V201.4C345.9 201.6 345.7 201.7 345.8 201.9C345.8 202.1 346.1 202.3 346.2 202.5C346.6 202.9 347 203.3 347.4 203.5C348.3 204.1 349.4 204.3 350.4 204.5C353.7 204.9 357 204.9 360.3 204.8C362.3 204.8 364.3 204.8 366.3 204.3C366.6 204.2 366.9 204.2 367.1 204C369.1 202.5 369.2 199.2 369.6 197C370.4 192.8 370.1 188.6 370.6 184.4C370.6 184.4 363 184.7 362.9 184.7C362.8 184.7 361.9 190.3 361.8 190.7C361.5 192.2 361.1 193.8 360.6 195.3C360.3 196.2 360 197.7 359.3 198.3C358.3 199.1 356.5 199.3 355.3 199.4C353.9 199.5 352.4 199.5 351 199.5Z" fill="#F2B18F"/>
<path d="M346.6 201.8C347.1 201.9 347.5 202.1 348 202.2C348.5 202.3 348.9 202.4 349.4 202.4H349.3C349.9 202.3 350.5 202.3 351.1 202.4C351.7 202.5 352.3 202.7 352.7 203.2C352.2 202.9 351.6 202.8 351.1 202.8C350.6 202.8 350 202.8 349.5 202.9H349.4C348.3 202.8 347.3 202.4 346.6 201.8Z" fill="#E2845A"/>
<path d="M346.6 201.1C346.6 201.1 346.8 201.2 347.1 201.3C347.4 201.4 347.7 201.5 348.1 201.5C348.5 201.6 348.9 201.6 349.2 201.6C349.5 201.6 349.7 201.7 349.7 201.7C349.7 201.7 349.5 201.7 349.2 201.8C348.9 201.8 348.5 201.8 348.1 201.8C347.7 201.7 347.3 201.6 347.1 201.5C346.8 201.2 346.6 201.1 346.6 201.1Z" fill="#E2845A"/>
<path d="M368.1 199.3C368.1 199.3 364.2 211.2 365.4 239.4C381.3 241.2 401.8 238.5 401.8 238.5C401.8 238.5 399.4 220 397.4 214.3C394 204.5 390.9 201.1 390.9 201.1L368.1 199.3Z" fill="#232868"/>
<path d="M393.1 183.4C391.5 194.4 390.9 201.1 390.9 201.1C390.9 201.1 383.2 201.6 376.6 201.6C371.4 201.6 367.8 200.7 367.8 200.7C367.8 200.7 368.4 199.3 366.2 188.6C363.7 183.9 365.2 179.8 368.7 177.3C372.1 174.8 377.1 169.4 377.1 169.4C377.1 169.4 377.4 170.5 379.4 170.7C381.4 170.8 382.8 170.1 383.6 169.4C387.7 168.3 391.1 168.1 395.4 165.7C400.7 168.6 403.2 175.3 403.2 175.3L393.1 183.4Z" fill="#F2311D"/>
<path d="M379.4 170.6L378.5 180.5" stroke="#2941B7" stroke-width="0.5" stroke-miterlimit="10" stroke-linejoin="round"/>
<path d="M377.1 169.3C377.1 169.3 371.5 169 367.4 173.1C364.1 176.4 362.3 186.7 362.3 186.7L371.9 190.1L374.3 180.3" fill="#F2311D"/>
<path d="M370.5 177.2C370.5 177.2 364.6 181.7 367.5 187.9" stroke="#BA140C" stroke-width="0.5" stroke-miterlimit="10" stroke-linejoin="round"/>
<path d="M372.4 202H348.3L344.6 187.3C344.3 186.3 345.1 185.3 346.2 185.3H366.9C367.6 185.3 368.3 185.8 368.5 186.5L372.4 202Z" fill="#3E7EFF"/>
<path d="M358.5 195.2C359.605 195.2 360.5 194.529 360.5 193.7C360.5 192.872 359.605 192.2 358.5 192.2C357.395 192.2 356.5 192.872 356.5 193.7C356.5 194.529 357.395 195.2 358.5 195.2Z" fill="#66A1FF"/>
<path d="M382.6 202H366.2V201.1C366.2 201.1 380.1 201.1 381.1 201.1C382.3 201.1 382.6 202 382.6 202Z" fill="#3E7EFF"/>
<path d="M393.1 183.4C393.1 183.4 390.6 185.6 390.2 186.7" stroke="#BA140C" stroke-width="0.5" stroke-miterlimit="10" stroke-linejoin="round"/>
<path d="M384.9 155.6C385.9 156.3 386.9 157.1 387.5 158.2C387.9 158.9 388 159.7 388.2 160.4C388.4 161.3 388.9 161.7 389.3 162.5C389.7 163.2 389.4 163.9 389 164.5C388.7 165.1 388.2 165.8 388.3 166.5C388.4 166.9 388.6 167.4 388.3 167.6C388.2 167.7 388.1 167.7 387.9 167.7C384.9 168.3 381.8 168.4 378.7 168.3C377.4 168.2 376 168.2 374.8 168.1C374.1 168.1 374.2 167.6 374.3 167.1C374.6 166.1 373.7 165.5 373.3 164.8C372.6 163.8 373.3 162.7 374.3 162C374.8 161.7 375.3 161.5 375.7 161.2C376.5 160.7 376.6 160 376.9 159.2C377.5 157.5 379.1 156.2 380.8 155.9" fill="#212237"/>
<path d="M377.5 165.3L377.2 169.5C377.2 169.5 376.9 170.8 379.4 170.5C382 170.2 383.7 169.3 383.7 169.3L382.6 161.8" fill="#F2B18F"/>
<path d="M376.6 156.5C375 158.2 372.9 164.7 375.8 166.2C378.8 167.8 382.4 166.6 383.5 162.4C384.5 158.1 380.7 151.9 376.6 156.5Z" fill="#F2B18F"/>
<path d="M377.4 166.8C377.4 166.8 379.8 167.5 381.6 165.6" stroke="#E2845A" stroke-width="0.5" stroke-miterlimit="10" stroke-linejoin="round"/>
<path d="M383 161.9C383 162 383 162 383 162C383 162 383.1 162 383 161.9C383.1 162 383.1 162 383 161.9C383.1 161.9 383.1 161.9 383 161.9C383 161.9 383.1 161.9 383 161.9Z" fill="#FF855A"/>
<path d="M382.1 163C381.5 161.1 380.8 158.7 380.7 158.3C379.4 158.3 378.1 158.2 376.8 158C376.2 157.9 375.5 157.7 374.9 157.4C374.3 157.1 374.3 156.9 374.6 156.3C375.6 154.3 377.9 153.5 379.9 154.5C380.7 154 382.2 154.2 382.8 154.3C385.1 154.8 386.9 156.6 387.1 159C387.2 160.4 387.1 164.3 383.1 165.6C383 165.6 382.5 164.4 382.1 163Z" fill="#212237"/>
<path d="M385.4 156.3C384.9 156.2 384.7 154.8 384.8 154.5C385 153.4 385.9 152.7 387 152.9C388.1 153.1 388.7 154.1 388.8 155.2C388.8 156.3 388.2 156.8 387.1 157C386.5 157 386 156.7 385.4 156.3Z" fill="#212237"/>
<path d="M381.9 162.4C381.9 162.3 382.2 161.9 382.7 161.9C383.5 161.9 383.6 163 383.3 163.7C383.1 164.1 382.8 164.5 382.4 164.7C381.8 165 381.3 165 381.2 164.3" fill="#F2B18F"/>
<path d="M383.4 167.7C382.5 169.3 379.4 170.6 379.4 170.6L380.9 173.4C380.9 173.4 383.6 171 384.1 169.1L383.4 167.7Z" fill="white"/>
<path d="M379.4 170.6C379.4 170.6 377.5 169.1 377.3 168.2L376.6 169.3C376.6 169.3 376.6 171.7 378 173.4L379.4 170.6Z" fill="white"/>
<path d="M172.915 295.296L156.432 290.741L156.219 291.512L172.701 296.068L172.915 295.296Z" fill="#103BB2"/>
<path d="M160.5 285.3L159 285.2C159 285.2 157.9 286.9 157.4 288.1C156.8 289.3 156.5 290.6 156.5 290.6L173 295.2C173 295.2 173 293.7 169.7 290.3C168.4 289 167.9 287.7 167.9 287.7L160.5 285.3Z" fill="#202263"/>
<path d="M168.7 289.4L167.7 290.2" stroke="#103BB2" stroke-width="0.5" stroke-miterlimit="10" stroke-linejoin="round"/>
<path d="M169.5 290.3L168.6 291.2" stroke="#103BB2" stroke-width="0.5" stroke-miterlimit="10" stroke-linejoin="round"/>
<path d="M170.3 291.1L169.4 292" stroke="#103BB2" stroke-width="0.5" stroke-miterlimit="10" stroke-linejoin="round"/>
<path d="M161.1 279.7L158.9 285.3C158.9 285.3 159.4 286.4 162.2 287.1C165 287.9 167.7 287.8 167.7 287.8L171.3 280.3" fill="#F2B18F"/>
<path d="M172.9 215.7C172.9 215.7 172.2 221 172.9 223.9C172.2 234.9 164.8 265.6 158.4 283.1L172.5 286.9C172.5 286.9 189.5 250 189.5 215.8" fill="#A9C4FF"/>
<path d="M170.1 286.2C173.2 278.2 186.4 248.3 187.5 214.7" stroke="#6996FD" stroke-width="0.5" stroke-miterlimit="10" stroke-linejoin="round"/>
<path d="M211.7 295.3H194.6V296.1H211.7V295.3Z" fill="#103BB2"/>
<path d="M197 289L195.5 289.3C195.5 289.3 194.9 291.2 194.7 292.6C194.5 293.9 194.5 295.3 194.5 295.3H211.6C211.6 295.3 211.2 293.8 207.1 291.4C205.5 290.5 204.7 289.4 204.7 289.4L197 289Z" fill="#202263"/>
<path d="M206.1 290.7L205.3 291.8" stroke="#103BB2" stroke-width="0.5" stroke-miterlimit="10" stroke-linejoin="round"/>
<path d="M207.1 291.4L206.4 292.4" stroke="#103BB2" stroke-width="0.5" stroke-miterlimit="10" stroke-linejoin="round"/>
<path d="M208 292L207.4 293.1" stroke="#103BB2" stroke-width="0.5" stroke-miterlimit="10" stroke-linejoin="round"/>
<path d="M195.3 282.8L195.5 289.3C195.5 289.3 196.3 290.2 199.2 290.2C202.1 290.2 204.7 289.4 204.7 289.4L205.3 280.6" fill="#F2B18F"/>
<path d="M177.2 212.1C177.2 212.1 176.5 219.9 180.6 224.8C184.7 229.8 188.5 248.8 189.8 257.3C191.3 266.8 193.2 287.9 193.2 287.9H208.8C208.8 287.9 207.1 266.6 204.6 248.4C202.8 235.4 199.8 219.6 198.9 216.5C198 213.4 196.7 208.9 196.7 208.9" fill="#A9C4FF"/>
<path d="M206.8 287.9C206.8 287.9 204.2 263.2 202.1 247.7C200 231.5 197.2 218.9 196.3 215.8" stroke="#6996FD" stroke-width="0.5" stroke-miterlimit="10" stroke-linejoin="round"/>
<path d="M186.6 220.7H192.4" stroke="#6996FD" stroke-width="0.5" stroke-miterlimit="10" stroke-linejoin="round"/>
<path d="M172.5 220.7H175.4" stroke="#6996FD" stroke-width="0.5" stroke-miterlimit="10" stroke-linejoin="round"/>
<path d="M187 242.2L182.6 228.3C182.6 228.3 179.4 224.4 178.2 220.1" stroke="#6996FD" stroke-width="0.5" stroke-miterlimit="10" stroke-linejoin="round"/>
<path d="M174.5 180.2C167.4 174.4 161.3 164.4 158.6 148.5L165.6 144.9C168.8 157.8 172.9 165.1 180 170.9" fill="#F2B18F"/>
<path d="M166.5 147.9C166.5 147.9 164.1 138.4 163.5 138.3C163 138.2 163.5 140.2 163.1 140C162.7 139.8 161.6 135.2 161.1 135.2C160.3 135.2 161.4 139.4 161.4 139.4C161.4 139.4 160 134.9 159.4 135.1C158.9 135.3 159.8 138.7 160 140.1C159.6 138.6 158.7 136.3 158.2 136.5C157.7 136.7 158.3 139.1 158.6 140.9C158.3 139.8 157.6 137.7 157.2 137.9C156.8 138 158.1 146 159.2 151.6" fill="#F2B18F"/>
<path d="M211.6 180.2C219.3 175.2 226.4 165.9 230.8 150.3L224.2 146C219.6 158.5 214.8 165.3 207.1 170.4" fill="#F2B18F"/>
<path d="M192.4 169.8L192.9 176.1C192.9 176.1 191.2 176.3 188.5 176.2C185.8 176.1 184.6 174.4 184.6 174.4L186.3 167" fill="#F2B18F"/>
<path d="M192.7 158.6C193.6 159.3 194.4 160 194.7 160.8C196.1 164.6 196 168.2 194.7 169.5C193.1 171.2 188.2 170.4 184.9 168C181.6 165.6 184 161.6 185.7 159.7C187.4 157.8 192.7 158.6 192.7 158.6Z" fill="#F2B18F"/>
<path d="M195.7 161.4C194.8 161.2 193.4 161 192.7 161.2C192.2 162 192.2 163 192.6 163.8C192.5 164 192.2 164 192 163.9C191.8 163.8 191.6 163.7 191.4 163.7C191.2 163.8 191.1 164.1 191.1 164.3C191.1 165 191.3 165.8 191.8 166.4C192 166.6 192.1 166.7 192.3 166.9C192.6 167.5 192.3 168.4 192.1 168.9C192 169.1 191.8 169.5 191.6 169.7C191.4 170 190.9 170 190.6 170.1C189.2 170.3 187.8 170.3 186.5 170C185.1 169.7 184.9 169 184.4 167.8C184.2 167.4 183.9 167 183.7 166.7C182.7 165.1 182.3 163.1 182.8 161.2C183.2 159.9 184 158.7 185.1 157.9C186.4 156.9 189.1 156.4 190.6 156.9C194.7 156.3 196.1 160.3 195.7 161.4Z" fill="#212237"/>
<path d="M177.6 183.1C178.4 181.8 179.7 174.4 185.5 172.6C195.3 174.4 203.8 171.1 209.7 168C214.5 171.6 215.7 178.7 215.7 178.7C215.7 178.7 206.3 186.7 194.8 187.2" fill="#4A63FE"/>
<path d="M201.9 183.7L202 217.7H170.4C170.4 217.7 172.4 198.2 174.4 181.4" fill="#4A63FE"/>
<path d="M189.5 173.3C182.4 173.3 175.6 166.3 175.6 166.3L166.7 173.5C166.7 173.5 171.4 181.7 175.3 185.6C178.1 187.1 186.9 184.7 186.9 184.7L189.5 173.3Z" fill="#4A63FE"/>
<path d="M223 148.9C223 148.9 226.4 139.7 227 139.7C227.5 139.7 226.8 141.6 227.2 141.5C227.6 141.4 229.2 136.9 229.7 137C230.4 137.1 228.9 141.1 228.9 141.1C228.9 141.1 230.8 136.8 231.4 137.1C231.8 137.3 230.6 140.7 230.2 142C230.7 140.6 231.9 138.4 232.3 138.6C232.7 138.8 231.9 141.1 231.4 142.9C231.8 141.8 232.7 139.9 233.2 140C233.6 140.2 231.4 148 229.7 153.4" fill="#F2B18F"/>
<path d="M201.6 186L196.6 187" stroke="#2941B7" stroke-width="0.5" stroke-miterlimit="10" stroke-linejoin="round"/>
<path d="M123 295.3H105.9V296.1H123V295.3Z" fill="#103BB2"/>
<path d="M108.3 289L106.8 289.3C106.8 289.3 106.2 291.2 106 292.6C105.8 293.9 105.8 295.3 105.8 295.3H122.9C122.9 295.3 122.5 293.8 118.4 291.4C116.8 290.5 116 289.4 116 289.4L108.3 289Z" fill="#F2311D"/>
<path d="M117.4 290.7L116.6 291.8" stroke="#103BB2" stroke-width="0.5" stroke-miterlimit="10" stroke-linejoin="round"/>
<path d="M118.4 291.4L117.7 292.4" stroke="#103BB2" stroke-width="0.5" stroke-miterlimit="10" stroke-linejoin="round"/>
<path d="M119.3 292L118.7 293.1" stroke="#103BB2" stroke-width="0.5" stroke-miterlimit="10" stroke-linejoin="round"/>
<path d="M106.6 282.8L106.8 289.3C106.8 289.3 107.6 290.2 110.5 290.2C113.4 290.2 116 289.4 116 289.4L116.6 280.6" fill="#F2B18F"/>
<path d="M56.6366 281.216L45.7986 267.99L45.1798 268.497L56.0178 281.723L56.6366 281.216Z" fill="#103BB2"/>
<path d="M52.2999 265.9L51.0999 265C51.0999 265 49.1999 265.8 48.0999 266.5C46.8999 267.2 45.8999 268.1 45.8999 268.1L56.6999 281.3C56.6999 281.3 57.5999 280 56.7999 275.4C56.4999 273.6 56.7999 272.2 56.7999 272.2L52.2999 265.9Z" fill="#F2311D"/>
<path d="M56.7001 274H55.3" stroke="#103BB2" stroke-width="0.5" stroke-miterlimit="10" stroke-linejoin="round"/>
<path d="M56.8 275.2L55.5 275.3" stroke="#103BB2" stroke-width="0.5" stroke-miterlimit="10" stroke-linejoin="round"/>
<path d="M56.9 276.3L55.7 276.5" stroke="#103BB2" stroke-width="0.5" stroke-miterlimit="10" stroke-linejoin="round"/>
<path d="M55.8999 260.7L50.9999 265C50.9999 265 50.7999 266.2 52.6999 268.4C54.4999 270.6 56.7999 272.1 56.7999 272.1L63.9999 267" fill="#F2B18F"/>
<path d="M113.5 210.2C114.2 210.9 118.4 248.9 118.7 286.8H102.7C102.4 248.8 95.6 210.9 94.8 210.2" fill="#1A1D33"/>
<path d="M104.7 286.9C104.4 248.9 97.6 211 96.8 210.3" stroke="#3F5B8E" stroke-width="0.5" stroke-miterlimit="10" stroke-linejoin="round"/>
<path d="M85 209.6C85 209.6 84 226.9 74.5 238.9C68.7 246.2 52.8 261.2 52.8 261.2L63 273.2C63 273.2 79.6001 261.4 88.3001 250.3C100 235.4 103.1 219.4 104.6 206.6" fill="#1A1D33"/>
<path d="M87.0001 211.6C87.0001 211.6 86.0001 229 76.5001 240.9C70.6001 248.3 54.6001 263.4 54.6001 263.4" stroke="#3F5B8E" stroke-width="0.5" stroke-miterlimit="10" stroke-linejoin="round"/>
<path d="M93.0001 211.6C93.0001 211.6 92.2001 215.9 86.6001 215.3" stroke="#3F5B8E" stroke-width="0.5" stroke-miterlimit="10" stroke-linejoin="round"/>
<path d="M110.1 211.6C110.1 211.6 110.9 215.4 114.3 215.4" stroke="#3F5B8E" stroke-width="0.5" stroke-miterlimit="10" stroke-linejoin="round"/>
<path d="M98.6001 232.3C98.6001 232.3 101.9 223.6 102.9 217.7" stroke="#3F5B8E" stroke-width="0.5" stroke-miterlimit="10" stroke-linejoin="round"/>
<path d="M84.9001 176.8C76.6001 173 68.1001 164.9 61.4001 150.2L67.3001 144.9C73.7001 156.5 79.5001 162.6 87.9001 166.4" fill="#F2B18F"/>
<path d="M68.8001 147.6C68.8001 147.6 64.0001 139.1 63.5001 139.1C63.0001 139.1 64.0001 140.9 63.5001 140.9C63.1001 140.8 60.8001 136.6 60.3001 136.8C59.6001 137 61.7001 140.8 61.7001 140.8C61.7001 140.8 59.2001 136.8 58.6001 137.2C58.2001 137.5 60.0001 140.6 60.5001 141.9C59.8001 140.6 58.3001 138.6 57.9001 138.9C57.5001 139.2 58.7001 141.3 59.5001 143C58.9001 142 57.7001 140.2 57.3001 140.5C56.9001 140.8 60.3001 148.1 62.8001 153.2" fill="#F2B18F"/>
<path d="M60 143.4C60 143.4 61.5 143.7 62.7 144.8" stroke="#E2845A" stroke-width="0.5" stroke-miterlimit="10" stroke-linejoin="round"/>
<path d="M63.8001 142C63.8001 142 63.2001 143.5 63.8001 144.1" stroke="#E2845A" stroke-width="0.5" stroke-miterlimit="10" stroke-linejoin="round"/>
<path d="M117 176.8C125.3 173 133.8 164.9 140.5 150.2L134.6 144.9C128.2 156.5 122.4 162.6 114 166.4" fill="#F2B18F"/>
<path d="M133 147.6C133 147.6 137.8 139.1 138.3 139.1C138.8 139.1 137.8 140.9 138.3 140.9C138.7 140.8 141 136.6 141.5 136.8C142.2 137 140.1 140.8 140.1 140.8C140.1 140.8 142.6 136.8 143.2 137.2C143.6 137.5 141.8 140.6 141.3 141.9C142 140.6 143.5 138.6 143.9 138.9C144.3 139.2 143.1 141.3 142.3 143C142.9 142 144.1 140.2 144.5 140.5C144.9 140.8 141.5 148.1 139 153.2" fill="#F2B18F"/>
<path d="M141.9 143.4C141.9 143.4 140.4 143.7 139.2 144.8" stroke="#E2845A" stroke-width="0.5" stroke-miterlimit="10" stroke-linejoin="round"/>
<path d="M138.1 142C138.1 142 138.7 143.5 138.1 144.1" stroke="#E2845A" stroke-width="0.5" stroke-miterlimit="10" stroke-linejoin="round"/>
<path d="M114.7 173.2L105.4 168.4L98.3 167.8L86.6 178.5C86.6 178.5 84 210 84 211C90.5 212.2 107.5 213.3 116 211C115.3 200.2 114.7 173.2 114.7 173.2Z" fill="#4A63FE"/>
<path d="M98.3001 167.8C98.3001 167.8 89.0001 165.9 82.1001 162.5C77.8001 166.1 73.9001 171.9 73.9001 171.9C73.9001 171.9 80.9001 179.1 88.6001 181.3" fill="#4A63FE"/>
<path d="M105.4 168.5C105.4 168.5 113 167 118.3 163.1C123.8 167 123.4 174.1 123.4 174.1C123.4 174.1 117.5 180.9 110.7 182.7" fill="#4A63FE"/>
<path d="M86.1001 180.9L89.6001 182.7" stroke="#0C1A72" stroke-width="0.5" stroke-miterlimit="10" stroke-linejoin="round"/>
<path d="M115 180.9V176.2" stroke="#0C1A72" stroke-width="0.5" stroke-miterlimit="10" stroke-linejoin="round"/>
<path d="M104.9 154.6C104.9 154.6 108.6 161.1 107 163.8C106.1 165.2 103 166.2 101.4 165.3C100.2 164.7 97.7 159.6 98.1 158.5C99.5 154.4 104.9 154.6 104.9 154.6Z" fill="#F2B18F"/>
<path d="M98.8998 163.2L98.2998 167.9C98.2998 167.9 101.6 171.2 105.4 168.5L105.6 163.7L98.8998 163.2Z" fill="#F2B18F"/>
<path d="M96.0999 162C95.5999 160.6 95.0999 159.8 94.8999 158.1C94.6999 156.3 96.0999 155.8 96.0999 155.8C96.0999 155.8 95.8999 156 96.5999 154.4C97.2999 152.9 99.6999 153 101.1 152.8C103 152.5 104.7 151.2 105.8 152C106.3 152.4 107.3 155 105.8 155.9C104.9 156.4 103.5 156.1 102.5 156.3C100.6 156.6 99.2999 157.2 98.9999 158.5C98.8999 159.2 99.0999 159.8 99.1999 160.4C99.2999 160.6 99.2999 160.8 99.3999 161L98.5999 161.6C97.5999 162.3 99.6999 164.1 99.4999 164.9C99.3999 165.3 98.5999 165.5 97.7999 165.2C97.0999 164.6 96.6999 163.6 96.0999 162Z" fill="#212237"/>
<path d="M99.0999 161.5C98.2999 160.6 97.6999 160.8 97.3999 161.4C96.9999 162.2 97.9999 163.7 98.4999 163.9C99.3999 164.4 99.9999 164.2 100.1 163.5" fill="#F2B18F"/>
<path d="M105.4 165.1C103.7 165.7 101.1 165.1 101.1 165.1" stroke="#E2845A" stroke-width="0.5" stroke-miterlimit="10" stroke-linejoin="round"/>
</g>
<defs>
<linearGradient id="paint0_linear" x1="341.27" y1="113.276" x2="184.447" y2="270.098" gradientUnits="userSpaceOnUse">
<stop offset="0.2704" stop-color="white" stop-opacity="0.4"/>
<stop offset="1" stop-color="white" stop-opacity="0.2"/>
</linearGradient>
<linearGradient id="paint1_linear" x1="361.221" y1="116.551" x2="210.95" y2="266.823" gradientUnits="userSpaceOnUse">
<stop offset="0.2704" stop-color="white" stop-opacity="0.4"/>
<stop offset="1" stop-color="white" stop-opacity="0.2"/>
</linearGradient>
<clipPath id="clip0">
<rect width="447.6" height="298" fill="white"/>
</clipPath>
</defs>
</svg>
