<svg width="540" height="200" viewBox="0 0 540 200" fill="none" xmlns="http://www.w3.org/2000/svg">
<rect width="540" height="200" fill="#15A0DB"/>
<mask id="mask0" mask-type="alpha" maskUnits="userSpaceOnUse" x="0" y="0" width="540" height="200">
<rect width="540" height="200" fill="#15A0DB"/>
</mask>
<g mask="url(#mask0)">
<path d="M491.013 166.7C486.213 160.6 479.213 159.3 472.113 158.2C471.813 158.1 471.113 157.9 471.013 158.6C470.913 159.1 471.413 159.2 471.713 159.3C476.213 161.7 479.513 165.6 482.613 169.5C486.013 173.7 490.313 176.1 495.513 177C495.113 173.1 493.413 169.8 491.013 166.7Z" fill="#548936"/>
<path d="M517.213 193.3C519.913 190 523.713 188.3 527.213 186.3C530.613 184.3 533.513 181.9 534.413 177.7C535.213 174.1 535.913 170.5 536.213 166.9C536.413 164.5 537.113 162 536.113 159.7C535.613 159.6 535.613 160 535.413 160.2C531.813 165.6 528.213 170.9 524.613 176.3C521.313 181.2 517.713 185.9 516.913 192C516.513 192.9 516.213 193.6 515.113 192.5C514.013 191.4 512.813 190.4 511.613 189.5C511.013 189 510.813 188.5 511.213 187.8C512.713 186.7 514.313 185.7 515.813 184.6C518.913 182.3 521.513 179.6 521.413 175.5C521.313 170.9 521.813 166.4 522.313 161.9C522.513 159.9 523.313 157.9 522.713 155.8C516.213 160 515.813 162.1 514.613 166.3C513.613 169.9 513.013 173.6 512.313 177.2C511.713 180.6 510.613 183.9 510.413 187.3C510.113 187.4 509.713 187.8 509.613 187.7C508.113 186.4 506.013 185.6 505.313 183.5C505.813 181 507.313 178.9 508.613 176.7C510.313 173.9 512.313 171.2 511.513 167.6C510.313 162.5 508.913 157.6 506.113 153C505.713 153.5 505.513 153.9 505.413 154.4C505.013 158.3 504.513 162.1 504.313 166C504.113 169.9 503.113 173.8 503.513 177.8C503.013 179.7 504.613 181.4 504.013 183.3C502.413 181.8 500.913 180.3 498.913 179.4C498.813 179.3 498.813 179.1 498.713 179C499.213 177.6 499.513 176.1 500.113 174.8C503.113 167.8 501.113 162 496.213 156.8C495.913 156.4 495.613 156.1 495.113 156.2C494.513 156.4 494.913 156.9 494.913 157.3C494.913 158.1 495.013 158.9 495.113 159.8C495.813 165.8 495.113 172 497.513 177.8C496.813 177.5 496.113 177.2 495.513 177C495.613 177.6 496.313 178.4 495.013 178.6C488.313 177.2 481.813 174.2 474.013 175.6C476.513 177.4 478.413 178.8 480.413 180.2C483.513 182.3 486.813 183.6 490.713 182.8C493.113 182.3 495.413 181.4 497.713 180.5C499.613 180.5 502.113 182.3 502.313 183.8C500.913 183.8 499.513 183.8 498.113 183.9C494.413 184 490.613 184.4 486.913 184.3C481.613 184.2 476.913 185 473.613 189.7C474.213 190 474.813 190.2 475.513 190.2C479.613 190.2 483.713 190.7 487.713 191.3C489.613 191.6 491.413 192.1 493.513 191.6C497.913 190.5 501.013 187.7 504.013 184.6C506.513 186 508.813 187.7 510.513 190.1C506.313 189.5 502.313 190.5 498.313 191.7C491.913 193.7 485.613 195.8 479.213 198C478.013 198.4 476.613 198.4 475.513 199.6C476.013 199.8 476.313 200 476.713 200.1C481.513 201.4 486.313 202 491.213 202.4C495.613 202.8 499.013 201.3 502.213 198.4C504.913 195.9 507.013 192.6 510.713 191.3C512.913 190.5 513.513 192.6 514.913 193.5C513.513 194.5 511.513 193.8 510.713 195.5C509.813 196 508.813 196.3 507.913 196.9C501.513 201.3 494.913 205.4 488.413 209.5C485.613 211.3 482.813 213.2 479.913 215.1C486.313 214.9 492.413 213.8 498.413 212C501.813 211 504.613 209.2 507.013 206.6C510.113 203.3 512.513 199.6 515.213 196C515.613 195.5 515.713 194.4 516.513 194.9C517.313 195.3 516.913 196.2 516.613 196.9C515.013 200.6 513.413 204.2 511.813 208C510.513 211.3 508.813 214.5 509.713 218.7C514.113 214 519.913 210.7 519.113 203.2C519.613 201.2 518.913 199.3 518.613 196.9C520.613 198.8 522.313 200.4 523.913 202C528.213 206.3 532.513 210.7 536.813 215C539.113 218 541.713 220.8 544.713 223.2C542.713 219.8 539.913 217.1 537.213 214.2C532.113 208.3 526.413 202.9 520.813 197.4C520.313 196.9 519.013 196.5 520.613 195.8C523.013 195.8 525.313 196.1 527.713 195.9C531.913 195.5 538.013 190.3 539.213 185.9C534.013 187.7 529.013 189.6 523.913 191.3C522.113 191.9 520.413 192.9 519.213 194.2C518.113 195.4 517.613 194.9 516.813 194C516.913 194 517.113 193.6 517.213 193.3Z" fill="#548936"/>
<path d="M512.6 35.6C512.6 35.5 512.6 35.5 512.6 35.6C512.5 35.6 512.5 35.6 512.6 35.6C512.6 35.6 512.5 35.6 512.6 35.6Z" fill="#78AA57"/>
<path d="M523.7 33.3C530.7 29.9 533.4 23.3 536 16.7C536.1 16.4 536.5 15.8 535.8 15.5C535.3 15.3 535.2 15.8 534.9 16C531.6 19.9 527.1 22.2 522.6 24.5C517.8 26.9 514.6 30.6 512.5 35.5C516.5 36 520.2 35 523.7 33.3Z" fill="#78AA57"/>
<path d="M492.1 53.2C494.7 56.5 495.6 60.6 496.9 64.4C498.2 68.1 499.9 71.5 503.8 73.3C507.1 74.8 510.5 76.3 514 77.3C516.3 78 518.6 79.2 521.1 78.7C521.3 78.2 520.9 78.1 520.7 77.9C516.2 73.2 511.8 68.5 507.3 63.9C503.2 59.7 499.3 55.2 493.6 53C492.8 52.5 492.2 52 493.4 51.2C494.7 50.4 495.9 49.4 497.1 48.4C497.7 47.9 498.3 47.9 498.8 48.4C499.5 50.1 500.2 51.9 500.9 53.6C502.5 57.1 504.6 60.2 508.6 61.1C513.1 62 517.4 63.5 521.7 64.8C523.6 65.4 525.4 66.6 527.6 66.5C524.8 59.3 522.9 58.4 519 56.3C515.7 54.6 512.2 53.2 508.8 51.8C505.6 50.5 502.6 48.8 499.3 47.8C499.2 47.5 499 47 499.1 47C500.7 45.8 501.9 44 504.1 43.7C506.5 44.7 508.2 46.6 510 48.3C512.4 50.5 514.5 53.1 518.3 53.1C523.5 53 528.6 52.7 533.7 50.9C533.3 50.5 533 50.1 532.5 50C528.8 48.8 525.1 47.5 521.4 46.4C517.6 45.4 514 43.6 510 43.1C508.3 42.2 506.2 43.4 504.5 42.4C506.3 41.2 508.1 40 509.4 38.2C509.5 38.2 509.7 38.1 509.8 38.1C511.1 38.8 512.4 39.5 513.6 40.4C519.8 44.8 525.9 44.1 532.1 40.5C532.5 40.3 532.9 40.1 532.9 39.6C532.8 38.9 532.2 39.2 531.8 39.1C531 39 530.2 38.8 529.4 38.8C523.4 38.2 517.5 36.2 511.3 37.3C511.7 36.7 512.1 36.1 512.5 35.5C511.9 35.5 510.9 36 511.1 34.6C513.9 28.3 518.2 22.6 518.4 14.7C516.1 16.8 514.3 18.3 512.6 20C509.8 22.6 507.9 25.5 507.9 29.5C507.9 32 508.3 34.4 508.7 36.9C508.3 38.7 506 40.8 504.5 40.7C504.8 39.3 505.1 37.9 505.4 36.5C506 32.8 506.5 29.1 507.3 25.4C508.5 20.3 508.7 15.5 504.9 11.2C504.5 11.7 504.2 12.2 504 12.9C503.1 16.9 501.8 20.8 500.3 24.6C499.6 26.4 498.7 28.1 498.7 30.2C498.8 34.7 500.9 38.4 503.3 41.9C501.4 44.1 499.3 46 496.5 47.1C498 43.1 497.9 39 497.5 34.9C496.9 28.2 496.2 21.6 495.4 14.9C495.3 13.7 495.5 12.3 494.6 11C494.3 11.5 494 11.7 493.9 12C491.6 16.4 490 21 488.6 25.7C487.3 29.9 488 33.6 490.2 37.3C492 40.5 494.8 43.2 495.4 47.1C495.7 49.5 493.5 49.6 492.4 50.8C491.7 49.2 492.8 47.4 491.4 46.2C491.1 45.2 491 44.1 490.6 43.2C487.6 36 485.1 28.7 482.4 21.4C481.2 18.2 480 15.1 478.8 12C477.6 18.3 477.4 24.5 477.9 30.7C478.2 34.2 479.3 37.4 481.3 40.3C483.8 44 487 47.1 489.9 50.5C490.3 50.9 491.3 51.3 490.7 52C490.1 52.7 489.3 52.1 488.7 51.6C485.4 49.2 482.2 46.9 478.9 44.6C476 42.6 473.2 40.3 468.9 40.2C472.6 45.5 474.6 51.9 482 52.7C483.8 53.6 485.9 53.3 488.3 53.6C486 55.2 484.1 56.5 482.2 57.7C477.1 61 471.9 64.2 466.7 67.5C463.2 69.1 460 71.1 457 73.5C460.8 72.3 464 70.1 467.3 68.1C474.2 64.4 480.6 60 487.1 55.7C487.7 55.3 488.3 54.1 488.7 55.8C488.1 58.1 487.4 60.4 487.1 62.8C486.6 67 490.4 74 494.4 76.1C493.7 70.7 493 65.3 492.4 60C492.2 58.1 491.6 56.3 490.6 54.8C489.7 53.4 490.2 53 491.3 52.5C491.5 52.9 491.8 53 492.1 53.2Z" fill="#78AA57"/>
<path d="M515.5 97.8C523.2 100.7 530.9 101.7 538.9 102.4C539.3 102.4 539.7 102.5 539.6 102.1C539.5 101.7 539.2 101.8 538.8 101.6C533.1 99.7 527.9 96.8 523 93.3C518 89.8 514.3 88.4 508.3 89.4C509.7 93.2 511.6 96.3 515.5 97.8Z" fill="#548936"/>
<path d="M486.5 81.3C484.8 84 481.7 85.3 479.4 87.2C477.1 89.1 476 91 475.9 93.9C475.8 96.4 475.9 98.9 475.9 101.5C475.9 103.2 476 104.9 476.8 106.4C477.1 106.5 477.1 106.1 477.2 106C478.8 102.8 481.9 97.2 483.2 94.5C484.4 92 486.6 83.4 487 82.4C487.9 82 487.4 81.3 488.5 81.7C489.5 82.1 490.9 82.8 492 83.2C492.6 83.4 493 83.9 492.6 84.4C491.7 85.6 490.4 86.4 489.3 87.5C487.1 89.7 485.5 91.5 486.1 94.9C486.7 98.6 487.1 102.2 487 105.9C487 107.5 486.7 109 487 110.6C489.8 108.3 491.6 106.1 492.5 102.6C493.2 99.6 493.5 96.2 493.6 93.2C493.7 90.2 493.9 87.7 493.4 84.8C493.5 84.7 493.9 84.3 493.9 84.4C495.6 85 497.2 85.4 498.5 86.8C498.5 89.2 497.7 91 496.8 93.2C495.6 96 494.4 98.4 495 101.7C495.9 106.2 496.7 111.2 498.4 115.5C498.7 115.1 498.8 114.9 498.9 114.4C499.4 110.6 500.4 107.1 500.9 103.2C501.4 99.3 501.9 95.3 501.1 91.3C501.2 90 499.9 87.5 499.6 86.7C499.4 86.2 499.6 86.7 499.6 86.7C501.2 85.3 503.1 88.1 504.7 88.6C504.8 88.6 505 88.8 505 88.9C505 90.3 504.8 92 504.5 93.3C503.2 100.3 503.4 105.1 506.7 111.3C506.9 111.7 507 111.9 507.4 111.8C507.8 111.6 507.6 111.2 507.7 110.8C507.8 109.9 507.7 109.5 507.8 108.5C508.6 101.2 510.2 96.4 506.2 89.5C506.9 89.5 507.5 89.5 508.2 89.5C507.8 88.7 507.4 88.4 508.2 87.7C517 86 517 85.7 524 80.5C522 80.2 520.4 79.8 518.3 79.4C515 78.7 512.8 79.5 510.3 82C508.7 83.5 507 85.4 505.4 87.1C503.7 87.7 501.9 87.2 500.8 85.7C502 85.3 503.1 84.8 504.2 84.2C507.1 82.7 509.8 80.5 512.4 78.6C516 75.9 517.8 73.5 518.7 69.2C518.2 69.2 517.8 69.3 517.4 69.5C514.8 70.8 511.8 72 509.4 73.5C508.3 74.2 506 75.5 505.4 76.1C504.2 77.3 499.7 85 499.3 85.4C497.8 83.3 494.8 83.8 492.6 82.7C496.1 82.1 499.3 80.4 501.7 78C505.6 74.1 508.6 70.2 512.3 66.3C513 65.6 513.7 65 514.1 64C513.8 64 513.5 64 513.2 64.1C509.7 65.1 506.5 66.4 503.3 68.1C500.4 69.6 498.6 71.7 496.9 74.6C495.5 77.1 494.6 80.1 492.1 81.7C490.5 82.7 489.6 81.4 488.2 81C489.1 80.3 490.6 79.7 491.2 78.9C491.5 78.5 491.2 78.9 491.2 78.9C491.5 78.4 492.7 77.8 493.1 77.2C496.5 72.7 499.9 67.8 502.9 63C504.2 60.9 505.4 59 506.7 57C502.8 59.1 499.3 61.5 495.9 64.6C494 66.3 492.5 68.3 491.4 70.6C489.9 73.5 489 76.5 487.5 79.4C487.3 79.8 487.3 80.5 486.6 80.3C485.9 80.1 486 79.5 486.2 79C486.8 76.2 487.4 73.7 487.7 70.7C487.9 68.1 488.1 65.8 486.9 63.3C484.8 67.3 482.3 70.4 483.3 75.1C483.4 76.6 484 77.9 484.6 79.3C483.1 78.5 481.3 77.6 479.9 76.7C476.1 74.2 472.5 71.7 468.8 69.1C466.8 67.3 464.6 65.7 462.3 64.3C464.2 66.4 466.4 67.9 468.6 69.7C473.1 73.2 477.7 76.4 482.8 79.3C483.3 79.6 484.1 79.7 483.1 80.3C481.2 80.7 479.6 80.5 477.6 81.1C474.1 82.2 471.5 85.2 470.8 88.9C474.1 87 477.5 85.3 481 83.7C482.2 83.1 483.8 82.3 484.4 81.2C485 80.1 486.1 80.7 486.4 81C486.4 81 486.3 80.9 486.4 81C486.5 81.1 486.4 81 486.4 81C486.4 80.8 486.6 81.1 486.5 81.3Z" fill="#548936"/>
<path d="M156.431 190.216C153.631 187.116 152.531 183.016 151.031 179.316C149.531 175.616 147.731 172.416 143.731 170.816C140.331 169.516 136.931 168.216 133.331 167.316C131.031 166.816 128.631 165.616 126.131 166.216C125.931 166.716 126.331 166.816 126.531 167.016C131.231 171.416 135.931 175.816 140.731 180.216C145.031 184.216 149.131 188.516 155.031 190.316C155.831 190.816 156.531 191.216 155.331 192.116C154.131 193.016 152.931 194.016 151.831 195.116C151.231 195.716 150.731 195.716 150.131 195.216C149.331 193.516 148.531 191.816 147.731 190.216C145.931 186.816 143.731 183.816 139.631 183.216C135.131 182.616 130.731 181.316 126.331 180.216C124.431 179.716 122.531 178.616 120.431 178.816C123.631 185.816 125.531 186.616 129.531 188.516C132.931 190.116 136.431 191.216 139.931 192.516C143.131 193.716 146.231 195.216 149.631 196.016C149.731 196.316 149.931 196.816 149.931 196.816C148.331 198.116 147.331 200.016 145.131 200.416C142.731 199.516 140.931 197.716 138.931 196.116C136.431 194.016 134.131 191.516 130.431 191.816C125.231 192.216 120.131 192.816 115.131 194.916C115.531 195.316 115.831 195.616 116.431 195.816C120.231 196.816 123.931 197.916 127.731 198.816C131.631 199.616 135.231 201.216 139.231 201.416C141.031 202.216 142.931 200.916 144.731 201.816C143.031 203.116 141.331 204.416 140.131 206.216C140.031 206.316 139.831 206.316 139.731 206.416C138.431 205.716 137.031 205.216 135.831 204.416C129.431 200.316 123.331 201.416 117.431 205.416C117.031 205.716 116.631 205.916 116.731 206.416C116.831 207.016 117.431 206.816 117.831 206.816C118.631 206.916 119.431 207.016 120.331 207.016C126.331 207.316 132.331 208.916 138.531 207.516C138.131 208.216 137.731 208.816 137.431 209.416C138.031 209.416 139.031 208.816 138.931 210.216C136.431 216.616 132.531 222.616 132.731 230.516C134.931 228.316 136.631 226.616 138.231 224.916C140.831 222.216 142.631 219.116 142.431 215.116C142.231 212.616 141.831 210.216 141.231 207.816C141.531 205.916 143.731 203.716 145.231 203.816C145.031 205.216 144.831 206.616 144.631 208.016C144.231 211.716 144.031 215.516 143.331 219.116C142.331 224.316 142.531 229.116 146.531 233.116C146.931 232.616 147.231 232.016 147.331 231.316C148.031 227.216 149.131 223.316 150.331 219.416C150.931 217.616 151.731 215.816 151.531 213.816C151.131 209.316 148.931 205.816 146.331 202.316C148.131 200.016 150.131 198.016 152.831 196.816C151.531 200.916 151.931 205.016 152.531 209.116C153.531 215.716 154.631 222.316 155.731 228.916C155.931 230.116 155.731 231.516 156.731 232.816C157.031 232.316 157.231 232.016 157.431 231.716C159.431 227.216 160.831 222.516 162.031 217.716C163.131 213.416 162.131 209.816 159.831 206.216C157.831 203.116 154.831 200.616 154.131 196.716C153.731 194.416 155.831 194.116 156.931 192.916C157.731 194.416 156.731 196.316 158.231 197.416C158.531 198.416 158.731 199.416 159.231 200.416C162.631 207.416 165.531 214.616 168.631 221.716C169.931 224.816 171.431 227.916 172.831 230.916C173.631 224.616 173.531 218.416 172.631 212.216C172.131 208.716 170.831 205.616 168.631 202.816C165.931 199.216 162.531 196.316 159.431 193.116C159.031 192.716 157.931 192.416 158.531 191.616C159.031 190.916 159.831 191.416 160.531 191.816C163.931 194.016 167.231 196.216 170.731 198.216C173.731 200.016 176.731 202.116 181.031 202.016C177.031 196.916 174.731 190.716 167.231 190.216C165.331 189.416 163.331 189.816 160.931 189.716C163.131 188.016 164.931 186.616 166.831 185.316C171.831 181.716 176.731 178.216 181.731 174.616C185.131 172.816 188.231 170.616 191.131 168.116C187.431 169.516 184.331 171.916 181.131 174.116C174.431 178.216 168.231 182.916 162.031 187.616C161.431 188.016 160.931 189.316 160.431 187.516C160.831 185.216 161.531 182.916 161.631 180.516C161.831 176.316 157.731 169.516 153.531 167.616C154.531 173.016 155.531 178.316 156.431 183.616C156.731 185.516 157.431 187.316 158.531 188.716C159.531 190.016 159.031 190.416 158.031 191.016C157.031 190.516 156.731 190.416 156.431 190.216Z" fill="#78AA57"/>
<path d="M95.5309 183.516C89.3309 188.916 84.7309 195.116 80.2309 201.816C80.0309 202.116 79.8309 202.516 80.2309 202.616C80.6309 202.716 80.7309 202.416 81.0309 202.116C85.4309 198.016 90.4309 194.916 95.9309 192.216C101.331 189.516 104.431 186.916 106.431 181.116C102.331 180.616 98.6309 180.816 95.5309 183.516Z" fill="#365B1E"/>
<path d="M123.931 165.916C122.431 163.116 122.731 159.716 122.131 156.816C121.531 153.916 120.431 152.016 117.931 150.516C115.831 149.216 113.531 148.116 111.231 146.916C109.731 146.116 108.231 145.416 106.531 145.316C106.331 145.516 106.631 145.716 106.731 145.916C108.731 148.916 112.231 154.216 113.931 156.716C115.531 159.016 122.031 165.016 122.731 165.816C122.631 166.716 123.531 166.716 122.631 167.416C121.731 168.116 120.531 169.016 119.631 169.716C119.131 170.116 118.531 170.316 118.231 169.716C117.631 168.416 117.531 166.816 117.131 165.316C116.231 162.316 115.431 160.016 112.231 158.916C108.731 157.716 105.331 156.316 102.131 154.416C100.731 153.616 99.6309 152.616 98.0309 152.216C98.7309 155.816 99.7309 158.416 102.431 160.916C104.731 163.016 107.631 164.816 110.231 166.416C112.831 167.916 114.931 169.316 117.731 170.316C117.731 170.416 117.931 170.916 117.831 171.016C116.431 172.216 115.331 173.416 113.531 173.816C111.431 172.716 110.231 171.116 108.731 169.216C106.831 166.816 105.331 164.616 102.131 163.616C97.7309 162.216 92.9309 160.616 88.3309 160.016C88.6309 160.416 88.6309 160.716 89.1309 161.016C92.2309 163.316 94.8309 165.816 98.0309 168.116C101.231 170.416 104.431 172.716 108.431 173.916C109.531 174.616 112.331 174.716 113.231 174.816C113.831 174.916 113.231 174.816 113.231 174.816C113.631 176.916 110.331 177.216 109.131 178.416C109.031 178.516 108.831 178.616 108.731 178.516C107.531 177.816 106.131 176.816 105.131 175.916C99.6309 171.416 95.2309 169.316 88.3309 169.216C87.8309 169.216 87.6309 169.116 87.5309 169.616C87.4309 170.016 87.9309 170.116 88.3309 170.316C89.0309 170.816 89.4309 170.916 90.2309 171.516C96.2309 175.616 99.7309 179.416 107.631 179.216C107.331 179.816 107.031 180.316 106.631 180.916C107.531 180.916 108.031 180.716 108.131 181.816C105.331 190.316 105.731 190.516 106.931 199.116C108.131 197.516 109.331 196.316 110.631 194.716C112.831 192.116 113.231 189.916 112.231 186.516C111.631 184.416 110.831 181.916 110.131 179.816C110.431 178.016 111.731 176.616 113.631 176.516C113.431 177.716 113.331 179.016 113.231 180.216C113.131 183.516 113.731 186.916 114.231 190.116C114.931 194.516 116.131 197.216 119.431 200.116C119.631 199.716 119.831 199.316 119.831 198.816C119.931 195.916 120.231 192.716 120.131 189.916C120.131 188.616 120.031 186.016 119.831 185.216C119.331 183.516 114.731 175.916 114.531 175.416C117.031 175.116 118.131 172.316 120.131 170.916C119.031 174.216 118.931 177.916 119.831 181.116C121.331 186.416 123.331 190.916 125.031 196.016C125.331 197.016 125.431 197.916 126.131 198.616C126.231 198.316 126.431 198.016 126.431 197.816C127.231 194.216 127.631 190.816 127.631 187.216C127.731 183.916 126.731 181.416 125.031 178.516C123.531 176.016 121.331 173.916 121.031 170.816C120.931 169.016 122.531 168.816 123.531 167.716C123.631 168.816 123.431 170.416 123.931 171.316C124.131 171.816 123.931 171.316 123.931 171.316C124.231 171.816 124.231 173.116 124.531 173.816C126.831 179.016 129.531 184.216 132.231 189.216C133.431 191.416 134.531 193.316 135.731 195.416C135.731 190.916 135.331 186.716 134.231 182.316C133.631 179.816 132.631 177.616 131.131 175.516C129.231 172.816 127.031 170.616 125.231 167.816C125.031 167.416 124.331 167.116 124.831 166.616C125.331 166.116 125.831 166.516 126.231 166.916C128.431 168.816 130.331 170.516 132.831 172.216C135.031 173.716 136.931 175.016 139.731 175.116C137.231 171.316 135.731 167.716 131.131 166.216C129.731 165.616 128.331 165.516 126.831 165.316C128.331 164.416 129.931 163.216 131.431 162.416C135.431 160.316 139.331 158.316 143.431 156.316C146.031 155.416 148.431 154.316 150.831 152.916C148.031 153.516 145.631 154.816 143.031 155.916C137.831 158.116 132.731 160.716 127.831 163.816C127.331 164.116 126.831 164.816 126.731 163.616C127.231 161.716 128.231 160.416 128.631 158.416C129.331 154.816 127.931 151.016 125.031 148.716C125.131 152.516 125.031 156.416 124.731 160.216C124.631 161.616 124.631 163.316 125.231 164.416C125.931 165.516 124.831 166.116 124.431 166.316C124.431 166.316 124.631 166.216 124.431 166.316C124.231 166.416 124.431 166.316 124.431 166.316C124.431 166.016 124.031 166.116 123.931 165.916Z" fill="#365B1E"/>
<path d="M101.531 127.416C93.9309 125.716 87.7309 129.216 81.5309 132.716C81.2309 132.916 80.6309 133.116 80.9309 133.716C81.2309 134.216 81.6309 133.916 81.9309 133.816C86.9309 132.816 91.9309 133.716 96.8309 134.816C102.131 135.916 106.931 135.016 111.631 132.516C108.831 129.716 105.331 128.216 101.531 127.416Z" fill="#548936"/>
<path d="M138.631 131.416C138.631 127.216 140.531 123.516 141.831 119.616C143.131 115.916 143.931 112.216 142.031 108.416C140.331 105.116 138.631 101.916 136.631 98.9155C135.231 96.9155 134.231 94.6155 132.031 93.4155C131.631 93.7155 131.831 94.0155 131.831 94.2155C132.431 100.616 133.031 107.116 133.631 113.516C134.231 119.316 134.431 125.316 137.631 130.516C137.931 131.416 138.131 132.216 136.631 132.016C135.131 131.816 133.531 131.916 132.031 131.916C131.231 131.916 130.731 131.616 130.631 130.816C131.131 129.016 131.731 127.216 132.131 125.416C133.131 121.716 133.431 117.916 130.731 114.716C127.731 111.216 125.331 107.416 122.731 103.616C121.631 102.016 120.931 99.9155 119.231 98.6155C116.931 106.016 117.831 107.816 119.631 111.916C121.131 115.316 123.031 118.516 124.831 121.816C126.431 124.816 127.731 128.016 129.731 130.816C129.631 131.116 129.531 131.616 129.431 131.616C127.431 131.516 125.331 132.216 123.431 131.116C122.231 128.816 122.031 126.316 121.731 123.816C121.231 120.616 121.131 117.216 118.231 114.916C114.131 111.716 109.831 108.816 104.831 107.016C104.831 107.616 104.931 108.016 105.231 108.516C107.431 111.716 109.431 115.116 111.731 118.216C114.031 121.416 115.831 125.016 118.631 127.816C119.431 129.616 121.731 129.916 122.531 131.816C120.431 131.716 118.231 131.416 116.131 132.016C116.031 131.916 115.831 131.916 115.731 131.816C115.231 130.416 114.531 129.116 114.131 127.716C112.031 120.416 106.831 117.216 99.7309 116.216C99.2309 116.116 98.8309 116.016 98.5309 116.416C98.2309 117.016 98.8309 117.116 99.1309 117.416C99.7309 118.016 100.231 118.616 100.831 119.216C105.131 123.416 108.531 128.616 114.131 131.616C113.431 131.816 112.731 132.016 112.031 132.216C112.531 132.616 113.631 132.816 112.631 133.816C106.531 137.016 99.6309 138.816 94.5309 144.816C97.6309 144.616 100.031 144.516 102.331 144.316C106.131 144.016 109.431 142.916 111.931 139.716C113.431 137.716 114.731 135.616 115.931 133.516C117.331 132.316 120.531 132.116 121.531 133.216C120.431 134.116 119.331 135.016 118.231 135.916C115.431 138.416 112.731 141.116 109.831 143.316C105.631 146.516 102.531 150.216 102.931 155.916C103.531 155.816 104.131 155.516 104.731 155.116C107.931 152.516 111.331 150.316 114.931 148.216C116.531 147.216 118.331 146.516 119.631 144.816C122.331 141.216 123.031 137.116 123.331 132.816C126.131 132.316 129.031 132.116 131.831 133.016C128.131 135.216 125.731 138.516 123.431 142.016C119.731 147.616 116.231 153.316 112.631 158.916C111.931 160.016 110.931 160.916 110.831 162.516C111.331 162.416 111.731 162.316 112.031 162.116C116.531 160.116 120.631 157.516 124.731 154.716C128.431 152.216 130.031 148.916 130.731 144.716C131.231 141.116 130.731 137.216 132.831 133.816C134.031 131.816 135.831 133.016 137.531 132.816C137.131 134.516 135.131 135.216 135.531 137.016C135.131 138.016 134.531 138.916 134.231 139.916C132.131 147.416 129.531 154.716 127.131 162.016C126.031 165.216 125.131 168.416 124.131 171.716C128.931 167.516 133.031 162.816 136.431 157.616C138.431 154.616 139.431 151.516 139.731 148.016C140.031 143.516 139.531 139.116 139.331 134.616C139.331 134.016 138.731 133.116 139.631 132.916C140.531 132.716 140.731 133.716 140.931 134.416C142.031 138.316 143.031 142.116 144.231 146.016C145.231 149.416 146.031 152.916 149.331 155.716C149.731 149.316 152.131 143.016 146.831 137.716C145.931 135.916 144.231 134.816 142.431 133.116C145.231 133.316 147.531 133.416 149.731 133.716C155.831 134.316 161.831 135.016 167.931 135.616C171.631 136.516 175.431 137.016 179.231 137.016C175.531 135.616 171.631 135.316 167.731 134.816C160.031 133.416 152.231 132.816 144.431 132.216C143.731 132.116 142.431 132.716 143.231 131.116C145.131 129.616 147.131 128.316 148.831 126.616C151.831 123.616 153.231 115.816 151.431 111.616C148.631 116.316 145.831 120.916 143.031 125.516C142.031 127.116 141.331 128.916 141.231 130.716C141.131 132.316 140.431 132.316 139.231 132.116C138.831 132.016 138.731 131.716 138.631 131.416Z" fill="#548936"/>
<path d="M270.676 55.0898C253.228 58.263 231.507 45.7059 230.651 30.0212C229.895 17.3813 242.933 4.32857 249.373 5.98306C255.403 7.58526 253.366 21.6042 260.798 24.2903C268.36 26.9196 275.215 14.0302 283.17 17.0276C289.448 19.3705 293.112 28.9591 292.098 36.5071C290.464 47.5701 278.853 53.6656 270.676 55.0898Z" fill="white"/>
<path d="M428.571 148.2C429.02 163.434 401.701 173.918 397.648 169.849C395.183 167.332 402.647 160.639 404.899 143.177C406.064 134.415 404.819 130.696 407.274 129.293C412.326 126.503 428.21 136.824 428.571 148.2Z" fill="white"/>
<path d="M458.701 156.674C459.556 151.385 455.963 146.405 450.674 145.549C445.385 144.694 440.405 148.287 439.549 153.576C438.694 158.864 442.287 163.845 447.576 164.701C452.864 165.556 457.845 161.963 458.701 156.674Z" fill="white"/>
<path d="M388.631 140.716C388.331 148.916 387.231 156.816 385.531 164.016C384.631 167.816 383.531 171.416 382.331 175.016C381.931 176.216 381.531 177.316 381.031 178.416H355.231H355.131C355.131 178.416 355.131 178.416 355.031 178.416C354.931 178.416 354.931 178.416 354.831 178.416H354.731C354.631 178.416 354.531 178.416 354.431 178.416C354.331 178.416 354.131 178.416 353.931 178.416C353.631 178.416 353.131 178.416 352.631 178.316C352.331 178.316 351.931 178.316 351.531 178.316C351.231 178.316 351.031 178.316 350.731 178.316C350.431 178.316 350.131 178.316 349.831 178.316C349.231 178.316 348.631 178.316 347.931 178.316C346.931 178.316 345.731 178.316 344.531 178.216C343.431 178.216 342.331 178.216 341.131 178.216C338.031 178.216 334.631 178.116 330.731 178.116C329.831 178.116 328.931 178.116 327.931 178.116C327.431 178.116 326.831 178.116 326.331 178.116C325.331 178.116 324.431 178.116 323.431 178.116C283.131 177.916 213.231 178.116 165.931 178.116C169.531 171.416 172.731 164.116 171.131 154.516C166.031 123.216 118.831 123.216 110.431 95.6155C110.331 95.1155 110.131 94.6155 110.031 94.1155C107.331 83.2155 111.031 70.2155 118.431 57.2155C121.331 52.1155 124.831 47.1155 128.631 42.1155C146.331 19.6155 172.531 -0.084462 192.431 -5.28446C199.531 -7.18446 205.931 -7.08446 210.731 -4.68446C230.831 5.51554 213.331 47.7155 239.031 66.4155C270.731 89.5155 318.431 39.8155 356.931 61.3155C380.731 74.4155 389.931 109.316 388.631 140.716Z" fill="#D0DDF7"/>
<path d="M23.9636 54.9575C23.1899 30.4616 44.6896 3.23484 66.2615 5.1686C83.7772 6.74754 98.9712 27.1454 95.3347 35.5469C91.9457 43.514 73.0856 37.8311 67.9871 47.5864C62.8886 57.3417 79.0772 69.3288 73.4584 79.5932C69.1147 87.822 55.239 90.9644 45.1017 87.9501C30.3363 83.5647 24.3248 66.4427 23.9636 54.9575Z" fill="white"/>
<path d="M210.131 120.016C193.131 107.616 204.831 68.8155 212.731 67.8155C217.531 67.2155 218.531 81.1155 235.631 98.3155C244.231 107.016 249.331 108.816 248.831 112.716C247.631 120.716 222.831 129.316 210.131 120.016Z" fill="#B1C7F2"/>
<path d="M116.729 77.729C124.227 70.231 124.227 58.0743 116.729 50.5763C109.231 43.0783 97.0743 43.0783 89.5763 50.5763C82.0783 58.0743 82.0783 70.231 89.5763 77.729C97.0743 85.227 109.231 85.227 116.729 77.729Z" fill="white"/>
<path d="M36.729 205.729C44.227 198.231 44.227 186.074 36.729 178.576C29.231 171.078 17.0743 171.078 9.57632 178.576C2.07833 186.074 2.07832 198.231 9.57632 205.729C17.0743 213.227 29.231 213.227 36.729 205.729Z" fill="white"/>
<path d="M44.6355 173.364C48.0662 169.934 48.0662 164.372 44.6355 160.941C41.2048 157.51 35.6425 157.51 32.2118 160.941C28.7811 164.372 28.7811 169.934 32.2118 173.364C35.6425 176.795 41.2048 176.795 44.6355 173.364Z" fill="white"/>
<path d="M436.5 113.4C418.9 113.4 401.4 113.3 383.8 113.5C381 113.5 380 112.8 380 109.8C380.1 77.6 380 45.4 380 13.2C380 7.8 381.9 6 387.4 6C420.4 6 453.5 6 486.5 6C491.3 6 493.8 8.4 493.8 13.2C493.8 44.9 493.8 76.7 493.8 108.4C493.8 113 493.3 113.4 488.9 113.4C471.3 113.4 453.9 113.4 436.5 113.4Z" fill="#F0F4FC"/>
<path d="M475.448 20L469.319 23.7097L474.468 28.6914L474.769 26.0246C480.478 26.669 484.596 31.833 483.952 37.5396C483.307 43.2462 478.141 47.3629 472.432 46.7185C466.723 46.0741 462.605 40.9101 463.249 35.2035L459.89 34.8262C459.038 42.3855 464.492 49.2241 472.054 50.0806C479.617 50.9327 486.462 45.4805 487.315 37.9211C488.168 30.3618 482.713 23.5232 475.151 22.6668L475.448 20Z" fill="#FFD670"/>
<path d="M437.097 90.6925C432.626 90.6925 428.287 89.8149 424.203 88.0893C420.259 86.4231 416.717 84.0362 413.676 80.9963C410.635 77.9565 408.247 74.4163 406.58 70.4734C404.854 66.3906 403.976 62.0534 403.976 57.5848C403.976 53.1162 404.854 48.779 406.58 44.6962C408.247 40.7533 410.635 37.2131 413.676 34.1733C416.717 31.1334 420.259 28.7465 424.203 27.0803C428.287 25.3547 432.626 24.4771 437.097 24.4771C441.567 24.4771 445.906 25.3547 449.991 27.0803C453.935 28.7465 457.477 31.1334 460.518 34.1733C463.559 37.2131 465.947 40.7533 467.614 44.6962C469.34 48.779 470.218 53.1162 470.218 57.5848C470.218 62.0534 469.34 66.3906 467.614 70.4734C465.947 74.4163 463.559 77.9565 460.518 80.9963C457.477 84.0362 453.935 86.4231 449.991 88.0893C445.906 89.8191 441.567 90.6925 437.097 90.6925ZM437.097 31.515C422.714 31.515 411.012 43.2123 411.012 57.589C411.012 71.9658 422.714 83.6631 437.097 83.6631C451.479 83.6631 463.181 71.9658 463.181 57.589C463.181 43.2123 451.479 31.515 437.097 31.515Z" fill="url(#paint0_linear)"/>
<path d="M480.733 83.6588V90.6925H462.647C463.767 88.4242 464.751 86.0755 465.582 83.6588H480.733Z" fill="#FFD670"/>
<path d="M465.582 83.6588C464.751 86.0755 463.767 88.4242 462.647 90.6925H410.533V83.6588H465.582Z" fill="#FFD670"/>
<path d="M490 87.1396L479.799 79.2835V95L490 87.1396Z" fill="#FFD670"/>
<path d="M428.097 83.6588H385V90.6925H428.097V83.6588Z" fill="url(#paint1_linear)"/>
<path d="M426.816 46.0698H418.702V46.9008H426.816V46.0698Z" fill="#E0E0E0"/>
<path d="M434.942 52.3234H429.085V53.1543H434.942V52.3234Z" fill="#E0E0E0"/>
<path d="M439.739 52.3234H435.854V53.1543H439.739V52.3234Z" fill="#1487E3"/>
<path d="M447.679 77.4223H443.794V78.2533H447.679V77.4223Z" fill="#1487E3"/>
<path d="M422.68 68.0441H418.795V68.8751H422.68V68.0441Z" fill="#1487E3"/>
<path d="M449.893 52.3234H440.507V53.1543H449.893V52.3234Z" fill="#E0E0E0"/>
<path d="M424.826 64.8983H418.795V65.7292H424.826V64.8983Z" fill="#E0E0E0"/>
<path d="M441.029 71.173H434.997V72.0039H441.029V71.173Z" fill="#E0E0E0"/>
<path d="M430.879 71.173H427.197V72.0039H430.879V71.173Z" fill="#E0E0E0"/>
<path d="M426.09 71.173H418.795V72.0039H426.09V71.173Z" fill="#1487E3"/>
<path d="M422.816 74.2976H418.795V75.1286H422.816V74.2976Z" fill="#E0E0E0"/>
<path d="M434.153 46.0698H428.394V46.9008H434.153V46.0698Z" fill="#78C2FF"/>
<path d="M434.153 55.448H428.394V56.279H434.153V55.448Z" fill="#1487E3"/>
<path d="M427.974 58.5769H425.514V59.4078H427.974V58.5769Z" fill="#E0E0E0"/>
<path d="M428.58 61.7482H423.054V62.5792H428.58V61.7482Z" fill="#78C2FF"/>
<path d="M437.046 61.7482H429.416V62.5792H437.046V61.7482Z" fill="#1487E3"/>
<path d="M424.555 58.5981H418.795V59.429H424.555V58.5981Z" fill="#1487E3"/>
<path d="M422.214 61.7482H418.795V62.5792H422.214V61.7482Z" fill="#1487E3"/>
<path d="M432.355 58.5981H429.131V59.429H432.355V58.5981Z" fill="#FF8761"/>
<path d="M422.112 77.4223H418.889V78.2533H422.112V77.4223Z" fill="#FF8761"/>
<path d="M424.53 52.3234H418.77V53.1543H424.53V52.3234Z" fill="#78C2FF"/>
<path d="M429.623 68.0441H423.864V68.8751H429.623V68.0441Z" fill="#78C2FF"/>
<path d="M429.696 74.2976H423.936V75.1286H429.696V74.2976Z" fill="#78C2FF"/>
<path d="M439.926 74.2976H434.166V75.1286H439.926V74.2976Z" fill="#78C2FF"/>
<path d="M426.981 55.448H418.77V56.279H426.981V55.448Z" fill="#78C2FF"/>
<path d="M442.483 77.4223H436.724V78.2533H442.483V77.4223Z" fill="#78C2FF"/>
<path d="M443.039 46.0698H435.701V46.9008H443.039V46.0698Z" fill="#1487E3"/>
<path d="M430.667 77.4223H423.329V78.2533H430.667V77.4223Z" fill="#1487E3"/>
<path d="M456.255 77.4223H448.918V78.2533H456.255V77.4223Z" fill="#1487E3"/>
<path d="M455.123 71.173H447.785V72.0039H455.123V71.173Z" fill="#1487E3"/>
<path d="M453.074 55.448H445.737V56.279H453.074V55.448Z" fill="#1487E3"/>
<path d="M433.615 71.173H432.033V72.0039H433.615V71.173Z" fill="#FF8761"/>
<path d="M455.801 46.0698H448.464V46.9008H455.801V46.0698Z" fill="#FF8761"/>
<path d="M444.396 55.448H440.095V56.279H444.396V55.448Z" fill="#FF8761"/>
<path d="M441.024 68.0907H436.724V68.9217H441.024V68.0907Z" fill="#FF8761"/>
<path d="M447.081 46.0698H444.396V46.9008H447.081V46.0698Z" fill="#E0E0E0"/>
<path d="M438.386 55.448H435.701V56.279H438.386V55.448Z" fill="#E0E0E0"/>
<path d="M422.905 49.1987H418.702V50.0297H422.905V49.1987Z" fill="#1487E3"/>
<path d="M433.229 64.9194H429.912V65.7504H433.229V64.9194Z" fill="#1487E3"/>
<path d="M425.293 49.1987H423.936V50.0297H425.293V49.1987Z" fill="#1487E3"/>
<path d="M452.243 74.2976H441.029V75.1286H452.243V74.2976Z" fill="#E0E0E0"/>
<path d="M427.672 49.1987H426.29V50.0297H427.672V49.1987Z" fill="#FF8761"/>
<path d="M450.75 49.1987H447.081V50.0297H450.75V49.1987Z" fill="#1487E3"/>
<path d="M454.419 52.3234H450.75V53.1543H454.419V52.3234Z" fill="#FF8761"/>
<path d="M446.229 71.173H442.56V72.0039H446.229V71.173Z" fill="#FF8761"/>
<path d="M435.553 77.4223H431.884V78.2533H435.553V77.4223Z" fill="#FF8761"/>
<path d="M446.11 49.1987H438.306V50.0297H446.11V49.1987Z" fill="#1487E3"/>
<path d="M435.6 68.0907H431.04V68.9217H435.6V68.0907Z" fill="#1487E3"/>
<path d="M433.025 74.2976H430.743V75.1286H433.025V74.2976Z" fill="#1487E3"/>
<path d="M437.194 49.1987H434.51V50.0297H437.194V49.1987Z" fill="#78C2FF"/>
<path d="M428.156 52.3234H425.471V53.1543H428.156V52.3234Z" fill="#FF8761"/>
<path d="M428.69 64.9194H426.006V65.7504H428.69V64.9194Z" fill="#FF8761"/>
<path d="M433.487 49.1987H428.809V50.0297H433.487V49.1987Z" fill="#1487E3"/>
<path d="M417.676 80.6614C417.671 80.6614 417.671 80.6614 417.676 80.6614C417.685 80.6705 417.689 80.6705 417.676 80.6614Z" fill="#323657"/>
<path d="M450.953 39.3118H452.285L451.878 38.4681H450.546L450.953 39.3118Z" fill="url(#paint2_linear)"/>
<path d="M450.33 39.3118H450.648L450.241 38.4681H449.923L450.33 39.3118Z" fill="url(#paint3_linear)"/>
<path d="M445.724 38.3027H451.123L450.941 37.883H445.546L445.724 38.3027Z" fill="url(#paint4_linear)"/>
<path d="M418.085 35.0358H421.432V34.4296H418.085V35.0358Z" fill="white"/>
<path d="M418.085 34.263H421.432V34.1486H418.085V34.263Z" fill="white"/>
<path d="M451.25 46.3623L455.594 42.0209H473.441V41.8004H455.504L451.093 46.2055L451.25 46.3623Z" fill="#FF8761"/>
<path d="M423.647 56.2875L423.804 56.1306L415.504 47.8335H399.798V48.054H415.415L423.647 56.2875Z" fill="#78C2FF"/>
<path d="M440.189 46.3073L440.341 46.1504L433.339 39.1464H423.486V39.3669H433.246L440.189 46.3073Z" fill="#1487E3"/>
<path d="M465.332 36.0768H463.758V40.8592H465.332V36.0768Z" fill="#609AE8"/>
<path d="M470.655 38.379H458.435C458.054 38.379 457.744 38.0695 457.744 37.6879V29.4799C457.744 29.0983 458.054 28.7888 458.435 28.7888H470.655C471.036 28.7888 471.346 29.0983 471.346 29.4799V37.6879C471.35 38.0695 471.036 38.379 470.655 38.379Z" fill="#9CC7FF"/>
<path d="M470.816 29.3357H458.278V36.8781H470.816V29.3357Z" fill="white"/>
<path d="M461.005 41.0397H468.092V40.6793H461.005V41.0397Z" fill="#9CC7FF"/>
<path d="M466.121 36.2779H470.15V31.6227H466.121V36.2779Z" fill="#D7D7E6"/>
<path d="M461.347 32.202H465.5V31.6212H461.347V32.202Z" fill="#D7D7E6"/>
<path d="M461.347 33.3943H465.5V32.8134H461.347V33.3943Z" fill="#D7D7E6"/>
<path d="M461.347 36.2801H465.5V33.8846H461.347V36.2801Z" fill="#D7D7E6"/>
<path d="M458.998 36.2811H460.758V31.4903H458.998V36.2811Z" fill="#D7D7E6"/>
<path d="M459.042 31.1099H470.193V29.9143H459.042V31.1099Z" fill="#D7D7E6"/>
<path d="M425.56 38.1077H431.142C431.507 38.1077 431.804 37.8109 431.804 37.4463V29.0093C431.804 28.6447 431.507 28.3479 431.142 28.3479H425.56C425.195 28.3479 424.899 28.6447 424.899 29.0093V37.4463C424.894 37.8109 425.191 38.1077 425.56 38.1077Z" fill="#9CC7FF"/>
<path d="M425.281 36.8093H431.422V28.8005H425.281V36.8093Z" fill="white"/>
<path d="M425.688 30.4415H431.036V29.3773H425.688V30.4415Z" fill="#D7D7E6"/>
<path d="M428.838 36.0808H431.039V30.8533H428.838V36.0808Z" fill="#D7D7E6"/>
<path d="M425.691 31.4601H428.427V30.8538H425.691V31.4601Z" fill="#D7D7E6"/>
<path d="M425.691 32.5054H428.427V31.8991H425.691V32.5054Z" fill="#D7D7E6"/>
<path d="M425.691 33.5508H428.427V32.9445H425.691V33.5508Z" fill="#D7D7E6"/>
<path d="M425.691 36.0823H428.427V33.9964H425.691V36.0823Z" fill="#D7D7E6"/>
<path d="M402.284 46.498H413.048V39.6764C413.048 39.4093 412.832 39.1931 412.565 39.1931H402.767C402.5 39.1931 402.284 39.4093 402.284 39.6764V46.498V46.498Z" fill="#609AE8"/>
<path d="M402.583 46.1096H412.749V39.5805H402.583V46.1096Z" fill="white"/>
<path d="M401.766 46.498H413.57V46.6125C413.57 46.8457 413.379 47.0365 413.146 47.0365H402.19C401.957 47.0365 401.766 46.8457 401.766 46.6125V46.498Z" fill="#9CC7FF"/>
<path d="M403.009 40.9623H412.315V40.055H403.009V40.9623Z" fill="#D7D7E6"/>
<path d="M409.123 45.6352H412.313V41.4761H409.123V45.6352Z" fill="#D7D7E6"/>
<path d="M405.527 45.6352H408.716V41.4761H405.527V45.6352Z" fill="#D7D7E6"/>
<path d="M403.009 42.07H404.956V41.4765H403.009V42.07Z" fill="#D7D7E6"/>
<path d="M403.009 42.9876H404.956V42.3941H403.009V42.9876Z" fill="#D7D7E6"/>
<path d="M403.009 45.6329H404.956V43.3095H403.009V45.6329Z" fill="#D7D7E6"/>
<path d="M441.372 37.2598L439.574 36.2253V36.9079H436.906V37.6159H439.574V38.2985L441.372 37.2598Z" fill="white"/>
<path d="M436.906 34.9873L438.7 36.026V35.3392H441.372V34.6354H438.7V33.9528L436.906 34.9873Z" fill="white"/>
<path d="M425.387 103.194H421.677L421.061 105H418.541L422.167 95.172H424.925L428.551 105H426.003L425.387 103.194ZM424.771 101.374L423.539 97.734L422.293 101.374H424.771ZM434.115 95.004C435.357 95.004 436.379 95.3073 437.181 95.914C437.984 96.5207 438.483 97.342 438.679 98.378H436.145C435.977 98.0233 435.721 97.7433 435.375 97.538C435.03 97.3233 434.615 97.216 434.129 97.216C433.373 97.216 432.767 97.4727 432.309 97.986C431.852 98.49 431.623 99.176 431.623 100.044C431.623 100.987 431.861 101.71 432.337 102.214C432.823 102.718 433.509 102.97 434.395 102.97C434.965 102.97 435.464 102.816 435.893 102.508C436.323 102.191 436.626 101.743 436.803 101.164H433.779V99.442H438.805V101.808C438.619 102.387 438.32 102.923 437.909 103.418C437.499 103.913 436.971 104.314 436.327 104.622C435.693 104.93 434.965 105.084 434.143 105.084C433.145 105.084 432.272 104.874 431.525 104.454C430.779 104.025 430.2 103.427 429.789 102.662C429.388 101.897 429.187 101.024 429.187 100.044C429.187 99.064 429.388 98.1913 429.789 97.426C430.2 96.6607 430.774 96.068 431.511 95.648C432.258 95.2187 433.126 95.004 434.115 95.004ZM442.539 95.102V105H440.145V95.102H442.539ZM446.586 103.166H449.778V105H444.192V95.102H446.586V103.166ZM453.272 97.006V99.078H456.618V100.884H453.272V103.082H457.038V105H450.878V95.102H457.038V97.006H453.272Z" fill="url(#paint5_linear)"/>
<path d="M437.2 13.6C426.7 13.6 416.3 13.6 405.8 13.6C403.5 13.6 400.2 13.7 400.3 11C400.3 8.1 403.5 8 406.1 8C426.9 8 447.7 8 468.5 8C469.2 8 469.9 8 470.6 8C472.5 8.1 473.3 9.4 473.4 11C473.5 12.7 472.2 13.4 470.7 13.5C469.2 13.6 467.7 13.5 466.2 13.5C456.4 13.6 446.8 13.6 437.2 13.6Z" fill="#F3F4F4"/>
<path d="M390.2 9.49997C390.1 10.3 389.8 10.8 389 10.9C388.2 11 387.7 10.5 387.7 9.69997C387.7 8.89997 388.1 8.39997 388.9 8.29997C389.7 8.19997 390.1 8.69997 390.2 9.49997Z" fill="#E1C68A"/>
<path d="M391.8 9.60001C391.9 8.70001 392.4 8.30001 393.2 8.40001C394 8.40001 394.5 8.90001 394.4 9.70001C394.3 10.4 393.9 10.9 393.1 10.9C392.2 10.8 391.8 10.3 391.8 9.60001Z" fill="#86D18A"/>
<path d="M385.8 10.1C385.8 10.4 385.3 10.9 384.5 10.8C383.9 10.8 383.4 10.3 383.4 9.69998C383.4 8.89998 383.9 8.39998 384.7 8.49998C385.4 8.49998 385.8 8.89998 385.8 10.1Z" fill="#A95961"/>
<path d="M324.831 178.916C327.431 178.016 329.931 176.916 332.631 176.516C334.831 176.216 336.131 175.216 336.531 172.716C336.831 170.716 342.231 153.416 342.831 151.516C343.431 150.516 354.231 146.916 355.931 146.416C356.931 148.116 342.431 180.916 342.331 180.916C341.631 183.316 333.931 186.216 333.831 185.716C333.731 185.216 334.131 184.916 334.431 184.716C335.531 183.816 336.831 183.416 337.931 181.616C333.731 182.516 330.031 183.316 326.331 184.116C325.631 184.316 323.431 183.016 322.631 181.416C322.931 180.116 323.531 179.316 324.831 178.916Z" fill="#C5642E"/>
<path d="M360.831 181.716C357.431 181.716 357.531 179.016 357.231 176.516C356.931 174.216 357.031 171.816 355.431 169.916C354.631 169.716 353.831 169.516 352.931 169.316C354.331 166.816 354.231 162.916 352.031 159.616C351.831 158.716 351.431 157.716 351.031 156.716C350.631 155.716 350.131 154.816 349.631 154.016C348.331 154.216 347.531 153.916 346.931 152.516C344.531 147.116 341.831 141.916 339.431 136.616C339.131 135.816 338.931 134.616 337.631 135.216C336.531 138.116 333.631 147.416 336.931 158.116C338.831 164.016 341.931 168.216 344.131 170.616C344.131 175.416 344.431 180.216 344.431 185.016C344.431 187.216 345.431 187.916 347.231 188.116C351.231 188.616 355.131 187.516 359.031 186.716C359.731 185.116 360.331 183.516 361.031 182.016C360.931 181.916 360.931 181.716 360.831 181.716Z" fill="#EDD366"/>
<path d="M337.631 135.116C339.731 137.416 340.431 140.516 341.831 143.116C341.831 143.116 344.631 148.716 346.931 153.816C353.631 168.816 355.331 182.216 357.631 182.016C358.131 181.916 358.831 181.116 359.431 177.416C358.631 175.516 350.931 158.116 347.331 145.116C344.631 135.316 345.531 132.216 345.531 131.616C345.531 129.216 345.831 126.916 346.431 124.616C346.431 124.516 346.431 124.316 346.331 124.216C344.631 125.216 342.631 125.516 341.031 126.916C338.531 129.016 338.431 132.216 337.631 135.116Z" fill="#EDD366"/>
<path d="M377.531 191.116C377.531 191.216 377.531 191.216 377.431 191.316C377.431 191.416 377.431 191.416 377.331 191.516C377.331 191.616 377.231 191.816 377.131 191.916C376.931 192.316 376.831 192.516 376.731 192.516C377.131 192.116 377.331 191.616 377.531 191.116Z" fill="white"/>
<path d="M377.231 191.916C377.331 191.716 377.331 191.616 377.431 191.516C377.431 191.616 377.331 191.716 377.331 191.716C377.331 191.716 377.331 191.816 377.231 191.916Z" fill="#1D0024"/>
<path d="M376.931 171.916C378.731 167.316 373.431 157.816 365.931 130.416C365.231 127.916 364.731 125.816 364.331 124.316C362.831 124.016 361.331 123.716 359.931 123.516C359.531 124.116 359.131 124.816 358.431 125.616C357.231 127.116 355.831 128.616 354.131 129.516C351.631 130.816 350.431 130.416 349.031 127.816C348.531 126.916 348.231 125.916 347.531 125.116C347.331 124.916 347.131 124.716 346.931 124.616C346.031 126.716 345.231 129.316 344.831 132.216C343.331 142.316 347.131 150.516 348.931 153.916C349.431 155.016 349.931 156.116 350.431 157.216C352.531 162.016 354.231 166.716 355.731 171.316C356.231 174.116 356.731 177.016 356.931 179.816C357.131 182.216 357.831 182.716 359.831 181.916C360.231 181.816 360.631 181.916 361.031 181.916C366.731 181.116 372.331 180.416 378.031 179.616C377.931 177.016 377.431 174.416 376.931 171.916Z" fill="#F0E7E3"/>
<path d="M335.531 104.316C336.631 108.316 336.931 112.616 338.731 116.416C339.631 118.416 340.531 120.516 342.331 121.316C343.131 121.616 344.531 122.016 345.431 121.516C345.531 121.416 345.731 121.316 345.931 121.416C346.531 121.516 346.831 122.616 347.031 123.516C347.531 125.516 346.931 127.116 345.331 128.316C348.431 129.916 351.631 130.616 355.131 129.516C358.231 128.616 361.131 127.416 362.831 124.216C362.931 124.016 363.331 123.916 363.631 123.816C361.531 123.516 360.331 122.216 360.031 119.916C359.631 117.516 359.031 115.116 358.531 112.716C356.831 111.316 356.731 110.116 357.931 108.016C359.531 105.316 358.631 102.716 356.131 101.416C354.831 101.316 353.731 101.916 352.931 103.016C352.031 104.216 351.231 104.416 350.631 102.716C350.231 101.616 349.431 101.116 348.331 101.216C344.331 101.716 340.431 102.616 336.431 102.916C336.031 102.916 335.731 103.116 335.531 103.516C335.431 103.716 335.531 104.016 335.531 104.316Z" fill="#DB844B"/>
<path d="M335.431 103.416C339.631 103.416 343.631 102.616 347.731 101.716C349.131 101.416 349.931 101.616 350.031 103.316C350.031 104.116 350.231 105.116 351.131 105.216C352.031 105.316 352.531 104.516 352.831 103.816C353.631 102.416 354.631 101.716 356.231 101.816C356.831 101.816 357.231 102.116 357.631 102.516C358.431 103.216 358.931 103.016 359.331 102.016C359.831 100.916 358.931 99.7156 359.531 98.6156C360.731 97.0156 361.831 94.7155 360.431 93.2155C358.731 91.3155 357.231 89.0156 354.931 88.0156C352.431 86.9156 349.831 86.9155 347.531 88.9155C347.031 89.4155 346.631 89.2156 346.131 89.0156C342.031 87.7156 338.931 88.9155 336.731 92.7155C336.431 93.3155 336.131 93.4155 335.531 93.4155C333.631 93.4155 332.231 94.3156 331.731 96.3156C331.231 98.5156 331.531 100.516 333.231 102.016C333.731 102.516 334.631 102.916 335.431 103.416Z" fill="#1D0024"/>
<path d="M359.231 101.916C358.131 103.316 357.231 100.916 356.231 101.716C358.831 103.416 358.131 107.516 356.731 108.716C354.531 110.516 355.931 111.216 357.331 112.116C357.631 112.316 358.031 112.416 358.331 112.616C358.331 109.016 359.431 105.516 359.231 101.916Z" fill="#1D0024"/>
<path d="M347.031 123.416C348.231 123.616 350.031 123.716 351.831 123.016C355.531 121.616 358.031 117.516 358.431 112.616C357.931 113.416 354.331 118.216 351.731 119.916C351.431 120.116 351.031 120.316 351.031 120.316C349.331 121.316 347.731 121.816 346.731 122.116C346.731 122.516 346.831 122.916 347.031 123.416Z" fill="#C5642E"/>
<path d="M344.731 129.116C344.731 130.016 344.331 132.716 344.931 132.916C345.431 133.116 345.731 132.616 346.031 132.216C346.531 131.616 347.031 131.016 347.531 130.416C348.031 129.816 348.731 129.216 348.631 128.316C348.631 128.216 348.531 128.116 348.531 127.916C348.031 126.716 347.931 125.416 347.331 124.216C347.231 124.016 347.131 123.816 347.031 123.616C345.831 125.116 344.631 126.816 344.731 129.116Z" fill="#D6CFCC"/>
<path d="M350.831 131.416C351.131 131.316 351.431 131.216 351.631 131.216C351.231 130.516 350.831 129.816 350.431 129.216C350.431 129.216 350.231 129.616 349.931 129.716C349.531 129.816 349.231 129.516 349.131 129.316C348.831 128.916 348.731 128.516 348.731 128.316C348.331 128.916 347.831 129.516 347.431 130.116C348.031 132.416 348.531 132.916 348.831 132.916C349.231 132.916 349.531 131.916 350.831 131.416Z" fill="#F0E7E3"/>
<path d="M388.631 142.816C388.231 150.616 387.131 158.216 385.431 165.216C384.531 168.816 383.431 172.416 382.131 175.816C381.731 176.916 381.231 178.016 380.831 179.116C380.531 179.816 380.231 180.416 379.931 181.116C378.831 181.216 378.231 180.716 378.231 179.116V179.016C378.231 178.016 377.831 177.016 377.731 176.016C376.431 173.116 375.531 170.116 376.031 167.016C376.031 166.716 376.131 166.416 376.231 166.116C376.231 164.616 376.031 163.216 375.931 161.716C375.831 160.716 375.931 159.716 376.031 158.716C377.131 151.416 380.331 144.716 384.031 138.216C385.031 136.516 385.731 136.516 387.031 137.616C387.431 139.416 388.031 141.116 388.631 142.816Z" fill="#EDD366"/>
<path d="M386.931 137.716C384.531 127.616 378.431 121.616 368.831 120.116C368.631 120.116 368.531 120.016 368.331 120.016C366.531 120.116 364.631 119.816 363.531 120.816C362.031 122.216 363.431 124.016 364.131 125.516C366.331 129.916 364.731 134.216 364.331 138.516C363.831 145.716 362.831 173.216 363.731 173.916C367.331 176.316 373.031 174.916 375.531 171.016C375.931 170.416 376.231 169.616 376.631 169.016C377.131 167.916 377.131 166.816 377.031 165.716C376.231 155.816 380.231 147.416 384.331 139.016C385.031 137.916 385.931 137.916 386.931 137.716Z" fill="#EDD366"/>
<path d="M351.531 131.116C351.831 131.616 352.031 132.016 352.331 132.516C353.731 134.816 353.731 134.716 355.831 133.016C356.731 132.216 362.231 124.516 364.931 122.216C366.031 121.216 367.931 120.016 368.231 120.116C366.831 119.716 364.231 117.716 361.931 116.216C358.031 120.516 354.131 124.816 350.231 129.116C350.131 130.216 350.831 130.716 351.531 131.116Z" fill="#D6CFCC"/>
<path opacity="0.42" d="M356.031 94.7155C356.031 92.7155 354.131 90.4155 352.031 91.4155C351.231 91.8155 350.731 92.6156 349.931 93.1156C348.931 93.6156 347.831 93.6155 346.731 93.4155C345.531 93.2155 344.531 92.7156 343.431 92.1156C342.331 91.5156 341.231 91.9155 340.231 92.7155C339.431 93.4155 339.131 94.4155 338.531 95.2155C337.931 96.0155 337.031 96.5155 336.031 96.7155C335.731 96.8155 334.031 96.9156 334.231 96.1156C334.331 95.7156 334.731 96.0156 335.031 96.0156C335.531 96.1156 336.131 95.9155 336.531 95.7155C337.431 95.2155 337.931 94.5156 338.431 93.5156C339.031 92.4156 339.731 91.7156 340.731 91.1156C341.931 90.4156 342.731 90.5156 344.031 91.1156C345.231 91.7156 346.431 92.4155 347.731 92.4155C349.931 92.4155 350.831 90.0156 353.031 90.1156C355.831 90.2156 356.631 92.6156 356.931 95.1156C357.031 95.8156 357.231 96.2156 357.531 96.8156C357.731 97.1156 358.031 97.9155 357.331 97.9155C356.931 97.9155 356.331 97.0155 356.231 96.7155C356.031 96.2155 356.331 95.4155 356.031 94.7155Z" fill="#2A1C33"/>
<path opacity="0.42" d="M350.931 95.7156C352.131 96.1156 352.631 97.6155 353.731 97.9155C354.131 98.0155 355.031 97.6156 355.331 97.8156C355.831 98.2156 355.231 98.7155 354.931 98.9155C353.831 99.3155 352.631 98.5156 351.931 97.8156C351.031 96.9156 350.631 96.4156 349.431 97.1156C349.731 97.5156 350.331 97.9156 350.131 98.5156C350.031 98.9156 349.531 99.3156 349.131 99.3156C348.731 99.3156 348.431 99.0156 348.231 98.6156C348.131 98.3156 348.331 97.8156 348.031 97.5156C347.831 97.3156 346.931 97.5156 346.731 97.6156C346.231 97.7156 345.731 98.0156 345.231 98.1156C344.631 98.2156 344.131 98.3156 343.531 98.2156C343.131 98.1156 342.531 97.7156 342.131 97.8156C341.731 97.9156 341.331 98.5156 341.031 98.7156C340.531 99.0156 340.031 99.3156 339.531 99.5156C338.731 99.8156 337.431 100.416 336.631 99.7156C335.531 98.7156 337.731 99.2156 338.131 99.1156C339.331 98.8156 340.331 98.0156 341.331 97.3156C341.031 96.8156 340.531 96.3156 340.631 95.6156C340.731 94.9156 341.431 94.8156 342.031 95.0156C343.131 95.5156 342.231 96.7156 343.231 97.1156C344.431 97.7156 345.631 96.8156 346.831 96.6156C347.531 96.5156 348.131 96.5156 348.831 96.3156C349.531 96.0156 350.131 95.5156 350.931 95.7156Z" fill="#2A1C33"/>
<path d="M349.431 103.816C349.431 103.316 349.431 102.916 349.431 102.416C349.531 101.916 349.631 101.516 350.231 101.916C350.431 102.216 350.231 102.616 350.431 102.916C350.531 103.116 350.231 103.616 350.831 103.516C351.431 103.516 351.231 102.916 351.331 102.616H351.431C351.431 102.516 351.531 102.416 351.631 102.316C351.831 102.316 352.131 102.316 352.231 102.616C352.431 103.116 352.231 103.616 352.331 104.116C352.231 105.416 352.531 106.716 352.131 108.016C351.931 108.916 351.231 109.316 350.431 109.416C350.031 109.416 349.831 109.316 349.731 108.916C349.531 108.216 349.831 107.516 349.631 106.916C349.631 106.416 349.631 105.916 349.631 105.416C349.431 104.716 349.631 104.216 349.431 103.816Z" fill="#1D0024"/>
<path opacity="0.42" d="M352.631 103.416C352.631 103.516 352.531 103.516 352.531 103.616C351.331 102.316 353.531 100.416 354.631 100.216C355.431 100.016 356.431 100.216 357.231 100.516C357.531 100.616 358.131 100.816 358.531 100.716C358.631 100.716 358.731 100.316 358.731 100.316C359.231 100.316 359.431 100.916 358.931 101.416C358.331 102.016 357.131 101.516 356.431 101.316C355.631 101.116 354.831 101.016 354.031 101.416C353.631 101.616 353.231 101.916 353.031 102.316C352.931 102.516 353.031 103.216 352.631 103.416Z" fill="#2A1C33"/>
<path d="M341.431 91.0156C339.731 90.7156 339.031 91.5156 338.131 92.8156C337.831 93.2156 336.731 94.3156 336.131 94.0156C335.431 93.7156 337.031 92.8156 337.231 92.5156C338.431 91.3156 338.631 90.2155 340.531 90.2155C340.831 90.2155 342.431 90.1156 342.631 90.3156C343.431 90.9156 341.731 91.0156 341.431 91.0156Z" fill="#200021"/>
<path d="M359.131 100.316C358.431 99.3156 358.231 98.0156 358.731 96.6156C358.831 96.3156 358.831 96.0155 359.131 96.2155C359.331 96.3155 359.731 96.5156 359.531 96.8156C358.731 98.3156 359.431 99.6156 360.131 100.816C360.531 101.516 360.731 102.416 361.331 103.016C361.431 103.116 361.531 103.316 361.431 103.416C361.331 103.516 361.131 103.516 361.031 103.316C360.631 102.816 360.231 102.216 359.831 101.716C359.631 101.416 359.431 100.916 359.131 100.316Z" fill="#200021"/>
<path opacity="0.42" d="M347.131 99.9155C347.731 100.116 348.231 100.316 348.831 100.516C348.231 101.516 346.831 100.616 345.931 100.616C345.331 100.616 344.731 100.816 344.131 101.016C343.731 101.116 343.031 101.516 342.631 101.416C341.431 101.216 343.131 100.616 343.531 100.516C344.531 100.116 345.931 99.6155 347.131 99.9155Z" fill="#2A1C33"/>
<path d="M336.931 102.916C335.931 103.616 335.031 104.216 333.731 104.116C333.131 104.116 332.431 104.216 331.931 103.516C331.731 103.216 331.631 103.016 331.731 102.816C331.931 102.516 332.131 102.916 332.331 103.016C333.031 103.416 333.731 103.516 334.531 103.216C335.331 102.916 336.031 102.616 336.931 102.916Z" fill="#210022"/>
<path d="M342.831 149.016C341.831 149.716 341.131 149.616 340.431 148.416C340.331 148.216 340.331 147.916 340.431 147.716C340.731 147.116 341.331 147.216 341.831 147.416C342.231 147.616 342.531 147.916 342.731 148.216C342.931 148.616 342.931 148.816 342.831 149.016Z" fill="#D3BB54"/>
<path d="M344.931 154.616C344.031 154.616 343.831 154.116 343.731 153.816C343.731 153.516 344.131 153.216 344.731 153.216C345.331 153.216 345.931 153.716 345.831 154.216C345.831 154.516 345.531 154.616 344.931 154.616Z" fill="#D3BB54"/>
<path d="M348.631 158.216C348.331 158.616 347.931 158.916 347.231 158.816C346.631 158.716 346.231 158.316 346.231 157.916C346.131 157.516 345.831 156.816 346.531 156.616C347.531 156.316 348.131 157.016 348.631 157.416C348.731 157.616 348.731 157.916 348.631 158.216Z" fill="#D3BB54"/>
<path d="M380.931 178.416C380.631 179.116 380.331 179.816 380.131 180.516C379.331 182.416 378.531 184.316 377.631 186.216C377.431 186.716 377.131 187.216 376.931 187.616C375.631 190.216 374.231 192.716 372.731 195.116C370.331 199.016 367.731 202.816 364.931 206.316C364.331 207.116 363.731 207.816 363.131 208.516C362.831 208.916 362.531 209.216 362.231 209.616C360.331 211.916 358.231 214.116 356.131 216.216C355.631 216.816 355.031 217.316 354.531 217.816C353.931 218.416 353.431 218.916 352.831 219.416C350.231 221.816 347.531 224.116 344.731 226.316C344.231 226.716 343.731 227.116 343.231 227.516C338.631 231.016 333.831 234.216 328.831 237.116C313.231 246.216 296.331 252.116 280.031 254.516C235.031 261.216 187.431 242.416 167.531 217.716C163.731 213.016 161.031 208.216 159.431 203.216C156.331 193.516 161.331 186.016 165.731 177.716C213.031 177.716 282.931 177.516 323.231 177.716C324.231 177.716 325.231 177.716 326.131 177.716C326.731 177.716 327.231 177.716 327.731 177.716C328.631 177.716 329.631 177.716 330.531 177.716C334.431 177.716 337.831 177.816 340.931 177.816C342.131 177.816 343.231 177.816 344.331 177.816C345.531 177.816 346.731 177.816 347.731 177.916C348.431 177.916 349.031 177.916 349.631 177.916C349.931 177.916 350.231 177.916 350.531 177.916C350.831 177.916 351.031 177.916 351.331 177.916C351.731 177.916 352.131 177.916 352.431 177.916C352.931 177.916 353.331 177.916 353.731 178.016C353.931 178.016 354.031 178.016 354.231 178.016C354.331 178.016 354.431 178.016 354.531 178.016H354.631C354.731 178.016 354.831 178.016 354.831 178.016C354.831 178.016 354.831 178.016 354.931 178.016H355.031H380.931V178.416Z" fill="#B1C7F2"/>
<path d="M363.431 158.416C354.331 160.416 346.931 160.916 341.731 161.016C338.531 161.116 335.931 161.016 333.831 161.016L334.731 169.616L369.831 172.716C372.831 171.016 374.831 168.016 374.631 165.216C374.431 161.316 369.531 157.216 363.431 158.416Z" fill="#DB844B"/>
<path d="M286.031 129.316C284.331 127.216 282.631 126.716 280.431 126.116C277.931 125.416 275.831 125.116 273.531 124.316C273.231 124.216 272.931 124.116 272.631 124.016C272.531 124.016 272.431 123.916 272.331 123.916C271.731 124.016 271.331 124.416 270.831 124.716C269.931 125.216 269.031 125.616 268.131 125.916C265.031 127.116 262.231 127.416 259.331 126.816C256.931 126.316 254.531 125.316 251.931 123.716C251.531 123.416 251.131 123.016 250.631 122.916C250.531 122.916 250.331 122.816 250.131 122.916C249.731 123.016 249.331 123.016 248.931 123.016C246.231 123.216 243.631 123.216 240.931 123.816C236.531 124.816 234.431 128.116 233.131 132.216C231.831 136.316 231.231 140.316 230.531 144.516C230.331 145.416 230.131 146.516 231.131 147.116C231.631 147.716 232.131 147.916 232.831 148.116C233.031 147.516 233.331 146.916 233.731 146.316C237.231 147.216 240.731 148.116 244.331 148.916C245.131 149.116 245.831 149.316 245.831 150.216C245.931 150.216 246.131 150.116 246.231 150.016C246.431 149.916 246.631 149.816 246.831 149.616C247.531 149.216 248.031 148.616 248.731 148.016C248.731 148.316 248.831 148.516 248.831 148.816C249.331 151.516 250.031 153.916 249.931 156.716C249.831 159.816 250.031 162.416 251.631 165.216C253.131 167.816 254.631 170.416 254.931 173.516C254.931 173.616 255.031 173.716 255.131 173.716C256.331 175.616 257.731 176.716 259.931 177.416C262.731 177.516 265.531 177.616 268.431 177.816C268.631 177.816 268.931 177.816 269.131 177.816C269.331 177.816 269.531 177.816 269.731 177.816C274.531 178.216 279.331 178.616 284.131 179.116C284.531 174.516 284.931 167.616 285.831 162.116C285.831 161.816 285.931 161.416 286.031 161.116C286.031 160.816 286.131 160.516 286.131 160.316C286.331 159.016 286.631 157.916 286.931 156.916C287.531 155.116 286.331 154.516 286.031 152.916C285.631 150.516 285.631 149.416 288.331 148.516H288.431C289.431 148.216 290.631 147.716 291.331 146.916C290.231 138.916 291.431 136.116 286.031 129.316ZM279.931 160.416C280.231 156.616 280.531 152.916 280.731 149.116C280.831 148.216 281.131 147.716 282.031 147.716V160.416H279.931V160.416Z" fill="#4066C6"/>
<path d="M245.631 150.116C245.531 150.116 245.331 150.215 245.231 150.215C245.031 150.315 244.831 150.316 244.631 150.316C244.531 150.216 244.331 150.216 244.231 150.116C243.731 149.916 243.131 149.716 242.631 149.516C239.931 148.716 237.131 148.516 234.331 148.116C233.731 148.016 233.231 148.016 232.731 147.816C232.931 147.216 233.231 146.616 233.631 146.016C237.131 146.916 240.631 147.816 244.231 148.616C244.531 148.716 244.931 148.815 245.131 148.915C245.131 148.915 245.231 148.916 245.231 149.016C245.331 149.016 245.431 149.115 245.431 149.215C245.531 149.615 245.631 149.816 245.631 150.116Z" fill="#244DA0"/>
<path d="M264.731 186.715C264.631 186.915 264.531 187.215 264.331 187.415C262.231 188.615 260.231 188.216 258.231 187.316C257.731 186.216 256.831 185.515 255.831 184.915C251.531 182.115 247.231 179.316 242.931 176.516C240.831 176.216 239.331 174.915 238.031 173.415C236.731 172.015 235.031 171.116 233.431 170.116C230.831 168.516 229.631 166.216 230.031 163.316C230.331 160.716 230.631 158.016 231.331 155.516C231.931 153.116 231.831 150.416 232.731 148.016C233.231 148.116 233.831 148.216 234.331 148.316C237.131 148.716 239.931 148.915 242.631 149.715L243.131 159.816C243.331 158.916 243.431 158.416 243.631 158.116C244.131 157.116 244.631 155.115 245.231 150.715C244.631 150.715 244.031 150.516 244.231 150.316C244.231 150.316 244.231 150.315 244.331 150.215C244.431 150.215 244.631 150.315 244.731 150.415C244.931 150.415 245.131 150.316 245.331 150.316C245.431 150.316 245.631 150.215 245.731 150.215C245.731 150.315 245.731 150.315 245.731 150.415C245.831 150.515 245.831 150.616 245.931 150.616C246.431 151.516 246.031 152.315 245.731 153.215C245.031 155.415 244.531 157.715 243.831 159.915C243.231 161.615 243.631 163.016 245.031 164.116C245.631 164.516 246.131 165.016 246.731 165.516C248.031 166.616 249.231 167.816 250.531 168.816C252.331 170.316 254.131 171.716 255.131 174.016C256.231 175.316 257.431 176.415 258.731 177.415C260.931 178.415 263.331 179.216 265.131 181.016C265.031 181.716 265.031 182.316 265.131 183.016C265.031 184.216 265.231 185.515 264.731 186.715Z" fill="#DB844B"/>
<path d="M275.731 117.316C274.831 117.816 273.031 118.415 270.031 117.715C270.331 119.815 270.931 121.515 272.031 123.215C272.231 123.515 272.331 123.715 272.531 124.015C272.531 124.015 272.531 124.116 272.631 124.116C270.131 126.116 267.331 127.216 264.531 127.616C263.431 127.716 262.231 127.815 261.131 127.715C257.431 127.415 253.731 125.716 250.731 122.816C250.631 122.716 250.531 122.615 250.431 122.515C250.631 122.415 250.731 122.216 250.931 122.116C252.431 120.816 253.731 119.516 254.731 118.116C255.831 116.416 256.531 114.615 256.831 112.215C257.031 110.115 256.931 108.216 256.231 106.116C255.631 104.316 256.431 102.615 257.831 102.015C257.831 102.015 257.931 102.015 258.031 101.915C258.431 101.815 258.931 101.715 259.431 101.715C259.531 101.715 259.731 101.715 259.831 101.715C261.331 101.715 261.431 101.315 261.831 99.8155C261.931 99.5155 261.931 99.3155 262.031 99.0155C262.531 97.3155 263.031 96.2155 265.331 95.8155C265.631 95.8155 265.831 95.7155 266.131 95.7155C267.831 95.4155 269.531 95.3155 271.231 95.4155C273.731 95.5155 276.231 95.9155 278.731 96.9155C281.731 106.615 280.131 115.016 275.731 117.316Z" fill="#DB844B"/>
<path d="M278.731 97.8155C278.631 97.9155 278.531 97.9155 278.331 98.0155C275.131 98.2155 271.531 97.4155 268.531 97.0155C264.631 96.5155 263.531 96.9155 262.231 100.516C262.031 101.116 261.931 101.716 261.531 102.316C261.531 102.316 261.531 102.316 261.531 102.416C261.131 103.116 260.831 103.416 260.131 102.616C259.931 102.416 259.831 102.316 259.631 102.116C259.131 101.716 258.431 101.516 257.831 101.816C257.831 101.816 257.731 101.816 257.631 101.916C257.431 102.016 257.231 102.116 257.031 102.316C255.931 103.216 255.431 104.616 256.131 105.916C256.331 106.216 256.831 108.016 257.031 108.516C257.231 109.316 257.331 110.416 256.531 112.216C256.531 112.216 253.731 100.416 255.231 94.9155C255.731 93.2155 256.531 92.3155 256.931 91.9155C257.531 91.3155 258.331 90.9155 259.331 90.7155C263.831 89.6155 268.731 88.6155 273.331 88.3155C274.331 88.2155 275.331 88.3155 276.231 88.6155C278.631 89.4155 280.331 90.6155 280.831 93.3155C281.231 95.3155 280.431 96.8155 278.731 97.8155Z" fill="#210022"/>
<path d="M289.931 160.716C288.631 161.116 287.231 161.216 285.831 161.216C284.531 161.216 283.331 161.116 282.131 161.116C281.431 161.116 280.631 161.116 279.931 161.116C279.931 160.816 279.931 160.616 280.031 160.316H282.231V147.616C284.331 147.516 286.331 147.316 288.331 147.116C288.331 147.516 288.431 148.016 288.531 148.416C289.031 152.316 289.531 156.316 290.031 160.216C289.931 160.516 289.931 160.716 289.931 160.716Z" fill="#DB844B"/>
<path d="M255.031 173.816C255.031 173.916 255.031 173.916 254.931 174.016C252.131 171.516 249.331 168.916 246.531 166.416C245.531 165.516 244.531 164.616 243.531 163.716C243.431 163.616 243.331 163.516 243.231 163.416C242.631 162.716 242.431 162.016 242.731 160.916C242.831 160.516 242.931 160.116 243.031 159.816C243.231 158.916 243.331 158.416 243.531 158.116C244.031 157.116 244.531 155.116 245.131 150.716C245.131 150.616 245.031 150.416 245.131 150.316C245.231 150.216 245.431 150.216 245.531 150.216C246.231 150.216 247.731 148.916 248.631 147.416C248.731 147.216 248.931 146.816 249.131 146.416C250.631 151.816 252.131 156.916 253.231 162.016C254.231 165.816 256.531 169.616 255.031 173.816Z" fill="#335EB5"/>
<path d="M269.231 199.416C269.731 199.116 269.431 198.516 269.631 198.116C269.631 193.916 269.531 189.716 269.531 185.516C269.531 184.716 269.731 183.816 269.031 183.116C267.131 183.116 265.231 183.016 263.331 183.016C265.331 188.416 267.331 193.916 269.231 199.416Z" fill="#9AA9D1"/>
<path d="M330.131 199.816C330.231 191.916 329.331 168.416 329.331 165.716C329.331 164.616 329.231 163.616 328.431 162.816C327.231 161.116 325.531 161.016 323.731 161.116C307.631 162.216 291.531 162.216 275.431 162.216C270.331 162.216 268.931 163.816 268.931 169.216C268.931 172.116 268.831 174.916 268.931 177.816C268.831 179.916 268.931 182.116 268.731 184.216C268.931 188.216 268.831 192.216 268.831 196.316C268.831 197.416 268.831 198.416 269.231 199.516C270.231 200.916 271.831 200.616 273.131 200.616C284.931 200.616 330.131 200.816 330.131 199.816Z" fill="#DEE5FD"/>
<path d="M328.431 162.816C323.531 162.916 316.031 162.916 306.631 162.716C304.531 162.716 301.131 162.616 294.331 162.516C290.931 162.516 288.031 162.416 285.631 162.416C284.331 162.416 283.131 162.416 282.031 162.416C280.731 162.416 279.631 162.416 278.631 162.516C274.031 162.816 272.031 163.516 270.631 165.316C269.331 167.016 269.331 168.916 269.431 172.216C269.431 174.016 269.431 176.016 269.531 178.016C269.531 183.216 269.631 189.016 269.531 193.216C269.531 196.616 269.431 198.916 269.231 199.316C269.231 199.216 269.231 199.216 269.231 199.116V199.016C269.131 198.616 269.131 198.016 269.031 197.116C268.831 194.116 268.531 188.716 268.431 183.116C268.431 181.416 268.431 179.716 268.331 178.016C268.331 174.116 268.331 170.516 268.531 167.916C268.631 166.516 268.831 163.716 270.831 161.916C272.431 160.616 274.331 160.416 275.231 160.416H279.031C279.331 160.416 279.731 160.416 280.031 160.416H293.531C303.631 160.416 313.831 160.416 323.931 160.416C325.731 160.516 327.631 160.616 328.431 162.816Z" fill="#DEE5FD"/>
<path d="M302.831 184.416C303.431 182.516 301.931 181.316 299.831 181.116C297.931 180.916 296.131 182.416 296.031 184.216C295.831 186.516 297.131 188.316 299.031 188.516C301.431 188.716 302.531 187.516 302.831 184.416Z" fill="#F7F9FA"/>
<path d="M257.331 134.416C255.631 133.516 253.831 132.616 252.631 130.916C251.531 129.316 250.631 127.716 249.931 125.916C249.531 124.916 249.231 124.016 248.931 123.016C248.831 122.616 248.831 122.216 248.931 121.816C249.231 121.216 249.731 121.116 250.331 121.616C250.731 121.916 251.131 122.316 251.431 122.616C251.631 122.816 259.631 126.916 260.231 127.116C261.131 127.416 261.231 127.616 260.931 128.516C260.331 130.216 259.731 131.916 258.931 133.616C258.831 133.916 258.631 134.116 258.431 134.316C258.031 134.516 257.731 134.516 257.331 134.416Z" fill="#244DA0"/>
<path d="M273.031 122.416C273.231 122.416 273.431 122.416 273.631 122.416C273.931 122.616 273.731 122.916 273.731 123.216C273.431 123.816 273.431 124.516 273.331 125.216C273.131 125.516 273.331 125.816 273.231 126.116C272.631 128.116 271.831 130.016 270.231 131.516C269.231 132.416 268.131 133.316 267.031 134.216C266.331 134.816 265.831 134.516 265.531 133.616C265.031 132.016 264.731 130.316 264.431 128.616C264.331 128.316 264.331 127.916 264.431 127.616C264.531 127.216 264.931 127.116 265.231 127.016C267.931 126.216 270.231 124.816 272.331 122.916C272.631 122.716 272.831 122.516 273.031 122.416Z" fill="#244DA0"/>
<path opacity="0.47" d="M264.431 93.7155C263.431 93.6155 262.431 93.6155 261.431 93.3155C261.031 93.2155 260.531 93.2155 260.131 93.3155C258.031 93.5155 257.231 93.9155 256.931 96.0155C256.731 96.6155 256.931 97.1155 256.831 97.7155C256.831 97.8155 256.831 97.9155 256.831 98.0155C256.831 98.2155 256.831 98.4155 256.431 98.4155C256.131 98.4155 256.131 98.2155 256.131 98.0155C256.131 96.9155 255.931 95.7155 256.431 94.6155C257.231 93.0155 259.431 92.2155 261.731 92.6155C262.031 92.7155 262.431 92.8155 262.731 92.7155C263.031 92.8155 263.331 92.7155 263.631 92.8155C263.831 92.8155 263.931 92.8155 264.131 92.8155C264.431 92.9155 264.831 92.8155 265.131 92.9155C267.831 93.3155 270.231 93.0155 272.531 91.8155C272.731 91.7155 272.931 91.6155 273.131 91.4155C273.231 91.4155 273.231 91.3155 273.231 91.3155C273.331 90.7155 273.931 90.8155 274.431 91.0155C274.631 91.2155 274.531 91.4155 274.431 91.6155C274.231 91.8155 274.031 92.1155 273.631 92.2155C271.731 93.4155 269.431 93.8155 267.031 93.7155C266.531 93.6155 265.931 93.7155 265.431 93.6155C265.331 93.6155 265.231 93.6155 265.131 93.6155C265.031 93.7155 264.731 93.8155 264.431 93.7155Z" fill="#2B182D"/>
<path opacity="0.47" d="M267.331 91.3155C268.631 91.2155 269.931 91.0155 271.031 90.4155C272.331 89.8155 273.631 89.5155 275.231 89.6155C275.531 89.7155 275.831 89.6155 276.131 89.7155C278.431 90.6155 279.131 92.6155 278.131 94.1155C278.031 94.3155 277.831 94.5155 277.631 94.6155C277.431 94.7155 277.231 95.0155 276.931 94.8155C276.731 94.6155 276.831 94.4155 277.031 94.3155C278.231 93.3155 277.631 91.6155 276.631 90.9155C275.531 90.1155 273.631 90.2155 272.231 90.8155C271.031 91.4155 269.731 91.8155 268.231 92.0155C267.931 92.1155 267.531 92.0155 267.131 92.1155C265.531 92.1155 263.931 92.1155 262.431 92.1155C262.131 92.1155 261.731 92.1155 261.731 91.8155C261.731 91.5155 261.931 91.4155 262.331 91.4155C263.631 91.4155 265.031 91.4155 266.331 91.4155C266.731 91.3155 267.031 91.4155 267.331 91.3155Z" fill="#2B182D"/>
<path opacity="0.47" d="M274.631 92.0155C275.331 92.1155 275.131 92.4155 275.031 92.7155C274.231 94.4155 272.431 95.1155 270.131 95.4155C269.831 95.4155 269.531 95.5155 269.231 95.5155C268.831 95.6155 268.331 95.5155 267.931 95.6155C267.731 95.6155 267.531 95.6155 267.331 95.6155C266.931 95.7155 266.431 95.7155 266.031 95.6155C264.731 95.5155 263.531 95.0155 262.331 94.9155C260.331 94.7155 258.631 95.3155 258.531 96.9155C258.531 97.1155 258.631 97.2155 258.431 97.4155C258.331 97.5155 258.231 97.5155 258.031 97.5155C257.831 97.5155 257.931 97.4155 257.931 97.3155C257.731 96.2155 258.531 94.8155 260.331 94.4155C262.131 94.0155 263.731 94.5155 265.331 94.7155C268.131 95.0155 270.831 94.8155 273.131 93.3155C273.531 93.0155 273.631 92.7155 273.931 92.4155C274.131 92.3155 274.231 92.1155 274.631 92.0155Z" fill="#2B182D"/>
<path d="M248.631 136.116C249.531 137.216 248.431 148.616 247.431 150.116C246.531 151.616 245.131 150.916 245.131 150.816C245.031 150.716 245.131 150.716 245.131 150.716C245.331 150.316 245.531 150.016 245.731 149.616V149.516C245.931 149.116 245.931 148.716 246.131 148.416C246.731 147.116 248.131 138.516 248.631 136.116Z" fill="#244DA0"/>
<path d="M259.431 101.916C259.431 101.516 259.331 101.016 260.131 100.916C260.431 100.916 260.331 100.416 260.331 100.116C260.431 99.3155 260.331 98.4155 260.731 97.7155C261.031 97.6155 261.331 97.6155 261.531 97.9155C261.631 98.3155 261.631 98.7155 261.531 99.1155C261.731 101.616 261.831 104.116 262.031 106.616C261.731 106.716 261.331 106.916 260.631 106.916C260.431 106.916 260.231 106.916 260.131 106.816C259.831 106.816 259.531 106.816 259.431 106.416C259.331 105.216 259.431 104.016 259.331 102.816C259.531 102.516 259.631 102.216 259.431 101.916Z" fill="#210022"/>
<path d="M279.631 143.015C279.431 142.415 279.531 141.716 279.231 141.116C279.231 141.016 279.231 140.915 279.231 140.815C279.231 140.515 279.131 140.216 279.531 140.116C279.931 140.016 280.131 140.316 280.131 140.616C280.331 141.316 280.331 142.115 280.531 142.815C280.831 143.815 280.931 147.915 280.931 147.915C280.931 147.915 279.831 144.015 279.631 143.015Z" fill="#244DA0"/>
<path d="M263.131 130.216C263.131 130.716 262.931 131.016 262.431 131.016C262.031 131.016 261.631 130.716 261.631 130.316C261.631 129.916 261.731 129.316 262.331 129.316C262.931 129.416 263.131 129.716 263.131 130.216Z" fill="#244DA0"/>
<path d="M276.831 141.816C276.331 141.416 275.731 141.316 275.131 141.316C274.631 141.216 274.231 141.316 273.731 141.216C273.431 141.216 273.131 141.216 272.731 141.216C272.331 141.116 271.931 141.216 271.531 141.116C270.931 141.016 270.231 141.216 269.631 140.916C269.331 140.816 269.031 140.916 268.731 140.816C268.231 140.916 267.531 140.816 267.431 141.616C267.331 142.416 267.331 143.216 267.431 143.916C267.531 145.416 267.831 146.816 268.031 148.216C268.231 149.516 268.531 150.816 269.331 151.916C270.031 153.016 270.931 153.716 272.331 153.716C274.031 153.716 275.231 152.716 275.631 150.916C276.131 148.316 276.531 145.816 277.031 143.216C276.931 142.716 277.031 142.216 276.831 141.816ZM275.131 147.716C274.931 148.716 274.731 149.716 274.531 150.616C274.331 151.616 273.731 152.416 272.731 152.516C271.831 152.616 271.031 152.316 270.431 151.516C269.031 149.816 268.931 147.816 268.631 145.816C270.531 145.916 272.231 145.916 274.031 146.216C275.331 146.516 275.331 146.416 275.131 147.716ZM275.831 143.416C275.631 144.116 275.731 145.016 275.331 145.316C274.931 145.616 274.031 145.216 273.331 145.116C272.431 145.016 271.531 144.816 270.831 145.016C270.331 145.016 269.931 145.016 269.531 145.016C268.531 145.116 268.431 144.616 268.531 143.816C268.631 143.216 268.431 142.416 268.731 141.916C269.131 141.416 269.931 141.916 270.531 142.016C272.031 142.016 273.531 142.216 275.131 142.316C275.731 142.416 275.931 142.616 275.831 143.416Z" fill="#244DA0"/>
<path d="M270.031 117.716C260.531 123.016 256.131 120.116 254.531 118.116C255.631 116.416 256.331 114.616 256.631 112.216C258.431 116.716 270.031 117.716 270.031 117.716Z" fill="#C5642E"/>
<path d="M282.131 147.716V160.416H279.931C280.231 156.616 280.531 152.916 280.731 149.116C280.831 148.316 281.131 147.816 282.131 147.716Z" fill="#C5642E"/>
<path d="M245.331 150.216C244.931 152.716 244.331 155.316 243.631 158.116C243.431 158.716 243.331 159.316 243.131 159.816L242.631 149.716C243.531 149.816 244.431 150.016 245.331 150.216Z" fill="#C5642E"/>
<path d="M194.931 114.416C193.631 113.116 183.631 103.216 177.531 105.316C176.431 105.716 176.131 106.216 176.131 106.316C175.031 108.916 182.231 114.616 188.631 119.016C189.131 119.016 192.031 118.916 193.831 116.616C194.431 115.816 194.731 115.016 194.931 114.416Z" fill="#DB844B"/>
<path d="M178.831 101.816L174.231 116.216C173.931 117.216 174.331 118.316 175.231 118.816L177.931 120.316C179.131 121.016 180.631 120.416 181.031 119.116L186.331 103.516C186.831 102.216 185.831 100.816 184.431 100.616L181.031 100.316C180.031 100.216 179.131 100.816 178.831 101.816Z" fill="#180616"/>
<path d="M382.4 186.4C381.6 184.1 379.5 185.2 378 184.9C377.7 184.8 377.3 184.9 377 184.9C377 185.6 377 186.3 377.1 187C378.1 187.3 379.7 186.3 380.1 187.8C380.4 188.9 379.8 190.2 378.7 191C377.8 191.6 377 191.9 377 190.3C377 189.2 377 188.2 377 187.1C375.6 189.4 377 191.7 376.9 194C378.1 194 379.1 193.5 380.1 192.8C382 191.4 383.1 188.5 382.4 186.4Z" fill="#F9FBFA"/>
<path d="M376.9 193.9C376.7 197.8 375.8 198.6 371.9 198.7C370.3 198.7 368.8 198.6 367.2 198.5C365 198.4 364 197 364 194.9C364 191.1 364 187.3 364 183.5C364 181.6 364.8 181 366.6 181C368.8 181.1 370.9 181 373.1 181C376.9 181 376.9 181 377.1 184.8C377.6 185.3 377.7 185.9 377.6 186.6C377.6 186.9 377.5 187.1 377.4 187.4C377.2 188.8 377.1 190.2 377.4 191.6C377.5 192.4 377.6 193.2 376.9 193.9Z" fill="#F9FBFA"/>
<path d="M231.531 144.716C229.731 139.516 224.031 134.316 220.231 130.416C213.131 123.316 204.131 118.216 194.931 114.316L191.431 117.816C190.631 118.616 189.631 119.016 188.631 118.916C189.731 120.416 191.131 121.916 191.831 122.816C194.131 125.916 196.431 129.016 199.031 131.816C201.831 134.816 205.431 138.416 208.831 140.616C199.831 136.116 190.431 132.416 181.331 128.116C177.831 126.416 172.831 123.616 168.731 123.716C163.931 123.916 168.931 130.516 169.631 132.716C172.231 140.716 172.131 149.916 171.931 158.216C171.631 166.516 172.231 170.716 171.931 172.216C171.131 175.716 169.531 180.316 171.431 181.916C171.931 182.316 173.131 182.816 174.331 183.116C175.131 183.316 176.231 183.416 176.731 183.316C180.031 182.216 180.231 175.016 180.831 172.116C181.731 167.116 182.931 161.816 183.031 156.716C183.031 155.716 182.531 154.416 183.331 153.916C184.131 153.416 186.931 154.616 187.731 154.816C193.131 156.416 198.431 158.416 203.831 160.116C211.031 162.316 219.531 163.116 226.431 159.316C232.231 156.216 233.631 150.916 231.531 144.716Z" fill="#272756"/>
<path d="M159.631 179.116C162.431 179.216 161.931 176.916 162.131 175.416C163.031 168.116 162.631 160.916 161.931 153.616C161.031 144.616 158.831 135.816 157.531 126.916C159.231 127.216 159.531 128.816 160.431 129.816C164.531 134.716 166.331 134.516 169.031 129.116C171.131 132.016 171.531 135.516 171.931 138.816C172.931 145.616 173.131 152.416 173.031 159.216C173.031 160.516 172.531 161.816 172.331 163.116C172.331 169.116 171.331 175.016 170.231 180.916C170.131 181.316 169.831 181.616 169.531 181.816C166.231 181.116 162.931 180.316 159.631 179.616C159.431 179.516 159.431 179.416 159.431 179.316C159.531 179.116 159.531 179.116 159.631 179.116Z" fill="#F0E7E3"/>
<path d="M172.631 182.216C171.931 182.016 171.231 181.816 170.431 181.516C170.131 181.416 169.931 181.316 169.631 181.216C170.231 175.116 171.031 169.016 172.331 163.016C173.431 169.416 172.731 175.816 172.631 182.216Z" fill="#353264"/>
<path d="M212.331 160.916C214.331 159.116 238.331 160.316 248.231 160.316C252.831 160.316 253.531 161.216 251.731 165.216C249.331 170.616 238.431 192.916 238.531 194.016C238.531 194.716 237.031 195.516 236.831 195.616C223.831 195.516 210.831 195.516 197.831 195.416C196.131 194.816 196.631 193.616 197.031 192.416C197.731 189.816 199.031 187.516 200.231 185.216C203.231 178.916 206.231 172.716 208.831 166.316C209.631 164.316 211.231 162.716 212.331 160.916Z" fill="#DEE5FD"/>
<path d="M212.331 160.916C212.631 161.016 212.831 161.216 213.131 161.316C209.031 165.416 207.831 171.016 205.331 176.016C202.631 181.216 200.331 186.616 197.831 191.816C197.231 193.016 196.631 194.216 197.831 195.416C187.431 195.316 176.931 195.316 166.531 195.216C166.331 193.716 167.231 193.416 168.531 193.416C170.231 193.416 190.731 193.116 195.031 193.316C195.631 193.316 196.131 193.216 196.331 192.516C199.431 183.616 207.731 165.416 208.531 165.016C209.531 163.516 210.531 161.816 212.331 160.916Z" fill="#DEE5FD"/>
<path d="M227.731 178.516C227.331 180.416 226.931 182.616 224.431 182.716C222.631 182.716 222.931 180.816 222.931 179.616C222.931 177.416 224.131 175.916 226.231 175.816C228.231 175.516 227.431 177.416 227.731 178.516Z" fill="#F7F9FA"/>
<path d="M155.831 120.816C153.931 120.316 152.331 119.416 150.131 120.416C148.131 121.316 146.531 119.916 145.531 118.216C144.331 116.216 142.631 115.416 140.331 115.316C137.331 115.216 136.431 113.516 138.031 111.016C139.131 109.316 139.931 107.816 140.031 105.716C140.131 103.616 141.531 101.916 143.631 101.516C145.731 101.116 146.631 100.016 147.331 98.0156C149.931 91.0156 156.931 87.3156 164.731 88.5156C165.931 88.7156 167.131 88.9156 168.331 88.8156C173.531 88.7156 175.131 89.9156 176.331 95.0156C176.631 96.3156 177.331 97.3156 178.431 97.8156C181.831 99.3156 182.231 102.116 181.431 105.316C180.931 107.416 181.131 109.016 182.731 110.716C184.631 112.816 184.031 115.516 183.431 118.016C182.931 119.916 180.931 119.416 179.431 119.616C177.531 119.916 175.731 119.616 173.831 119.716C171.431 119.916 171.131 118.716 171.931 116.916C173.831 112.616 174.531 108.116 174.131 103.416C173.831 100.116 173.731 100.616 170.831 101.516C166.331 102.916 162.931 105.816 159.031 107.916C155.331 107.216 154.931 107.716 155.731 112.316C155.631 114.416 158.331 114.816 158.431 116.816C158.531 118.116 158.231 119.216 157.631 120.316C157.231 120.816 156.631 121.116 155.831 120.816Z" fill="#F0E7E3"/>
<path d="M165.431 134.816C162.531 135.616 157.831 131.816 155.031 124.316C155.931 122.616 156.831 120.616 157.431 118.216C157.531 117.616 157.731 117.116 157.831 116.616C158.031 116.316 158.231 116.416 158.431 116.716C160.031 118.816 161.731 120.916 164.531 121.316C164.631 121.316 165.031 121.416 165.331 121.716C165.731 122.116 165.731 122.716 165.731 123.116C166.231 124.016 166.831 124.916 167.331 125.916C167.931 127.116 168.531 128.216 168.931 129.216C168.631 130.716 167.731 134.116 165.431 134.816Z" fill="#DB844B"/>
<path d="M175.031 103.016C174.931 101.316 174.931 99.3155 173.431 98.6155C172.431 98.1155 172.131 100.516 171.031 100.716C166.231 101.616 162.531 104.616 158.531 107.216C155.931 105.716 154.631 106.216 154.431 108.816C154.331 109.816 154.031 111.016 154.931 111.816C155.731 113.416 157.031 115.716 159.131 117.916C161.531 120.416 163.931 122.016 165.731 122.916C165.831 122.716 166.131 122.516 166.431 122.316C167.331 121.716 168.231 121.916 168.831 121.816C169.631 121.616 170.631 121.016 171.531 119.116C174.731 114.116 175.331 108.616 175.031 103.016Z" fill="#DB844B"/>
<path d="M165.731 123.016C165.731 123.016 158.231 118.816 157.831 116.616L156.331 121.616C156.331 121.616 161.731 125.316 165.731 123.016Z" fill="#C5642E"/>
<path d="M181.831 185.116C181.831 184.916 181.831 184.816 181.831 184.616C181.331 184.216 180.831 183.916 180.531 183.816C177.731 183.216 175.231 183.016 172.631 182.316C171.931 182.116 171.231 181.916 170.431 181.616C170.131 181.516 169.931 181.416 169.631 181.316C166.731 180.316 163.831 179.816 160.731 179.416C160.531 179.416 160.431 179.416 160.231 179.316C160.731 179.316 161.231 179.116 161.631 178.816C163.931 176.916 163.431 170.016 163.431 167.516C163.631 156.816 162.031 146.116 159.931 135.616C159.431 132.916 159.331 124.816 156.531 123.616C154.931 122.916 151.431 124.116 149.831 124.416C147.331 124.916 144.831 125.716 142.331 126.416C136.031 132.016 133.831 141.016 130.831 148.616C127.931 155.916 120.231 177.916 120.231 179.316C120.231 181.716 120.431 184.216 121.431 186.516C122.531 189.116 124.431 191.216 126.831 192.616C129.731 194.316 132.531 193.916 135.731 194.016C151.031 194.116 166.531 194.816 181.831 194.416V185.116Z" fill="#353264"/>
<path d="M196.331 186.716C196.331 185.616 195.831 185.016 194.831 184.916C194.431 184.716 194.031 184.416 193.531 184.216C189.331 183.816 185.731 185.916 181.731 186.516V192.516C184.931 192.316 186.931 191.916 189.431 191.616C190.731 191.416 192.731 191.316 195.131 191.216C196.331 191.416 196.631 187.816 196.331 186.716Z" fill="#DB844B"/>
<path d="M176.131 106.416C176.131 106.216 176.131 106.016 176.131 105.816C176.031 105.516 176.131 105.216 176.031 105.016C175.531 103.616 175.631 102.016 175.131 100.616C174.631 99.5156 174.131 98.4155 172.931 97.9155C171.931 97.4155 171.031 96.9155 170.331 95.9155C170.031 95.4155 169.431 95.2155 168.931 95.0155C168.731 94.9155 168.431 94.8155 168.131 94.7155C167.731 94.6155 167.431 94.2155 167.031 94.3155C166.631 94.5155 166.931 95.0155 166.831 95.3155C166.431 96.4155 165.631 97.3155 164.731 98.0155C163.231 99.2155 161.531 100.016 159.931 101.016C157.831 102.116 156.231 103.816 154.431 105.316C152.831 106.716 151.931 108.416 151.531 110.416C151.331 111.516 151.431 112.516 151.831 113.516C152.031 113.916 152.131 114.316 152.231 114.716C152.331 114.916 152.431 115.116 152.131 115.216C151.931 115.316 151.731 115.216 151.631 115.016C151.231 114.216 150.831 113.516 150.731 112.616C150.331 109.816 151.231 107.416 153.131 105.516C154.231 104.316 155.631 103.316 156.931 102.216C158.031 101.316 159.131 100.516 160.331 99.9155C161.531 99.3155 162.631 98.7155 163.731 98.0155C164.831 97.3155 165.831 96.4156 166.331 95.1156C166.431 94.5156 166.431 94.5155 166.131 94.4155C163.731 96.8155 160.631 98.2156 157.531 99.6156C156.231 100.216 155.031 101.116 154.531 102.516C153.631 104.716 152.131 106.216 150.031 107.316C148.231 108.216 147.531 109.616 147.431 111.516C147.431 111.716 147.431 111.916 147.331 112.016C147.231 112.316 147.331 112.816 146.831 112.716C146.431 112.616 146.731 112.216 146.631 112.016C146.831 111.816 146.631 111.416 146.731 111.216C146.831 110.316 147.131 109.516 147.431 108.716C147.631 108.216 147.931 107.816 148.431 107.516C149.331 106.916 150.231 106.316 151.231 105.816C152.531 105.116 153.131 103.916 153.731 102.616C154.531 100.716 156.031 99.6155 157.831 98.8155C160.431 97.6155 163.031 96.4156 165.231 94.6156C165.531 94.4156 165.731 94.1155 165.931 93.7155C165.131 93.9155 164.531 94.3155 163.731 94.4155C163.031 94.5155 162.331 94.3155 161.631 94.5155C161.531 94.5155 161.331 94.5155 161.231 94.5155C160.931 94.4155 160.631 94.5155 160.431 94.4155C159.031 94.5155 157.531 94.5155 156.331 95.2155C154.931 95.9155 154.031 97.1155 153.231 98.4155C152.531 99.6155 152.031 100.916 151.231 102.116C150.131 103.716 148.631 104.916 146.631 105.416C144.631 105.916 143.731 107.116 143.531 109.216C143.531 109.316 143.531 109.416 143.531 109.516C143.431 109.716 143.431 110.216 143.031 110.116C142.731 110.016 142.931 109.616 142.931 109.416C143.031 109.116 142.931 108.816 143.031 108.616C143.031 107.416 143.531 106.516 144.431 105.716C145.031 105.216 145.731 105.016 146.431 104.816C148.731 104.016 150.231 102.516 151.331 100.316C152.331 98.2155 153.531 96.1155 155.531 94.7155C156.731 93.9155 158.031 93.9156 159.331 93.6156C159.831 93.5156 160.431 93.5156 160.931 93.6156C162.731 93.7156 164.631 93.8155 166.131 92.4155C166.631 92.0155 167.131 92.4155 167.631 92.4155C169.331 92.3155 171.131 92.1155 172.631 93.3155C173.731 94.2155 174.831 95.3155 175.331 96.8155C175.831 98.2155 176.631 99.4155 177.931 100.316C178.631 100.716 179.131 101.416 179.531 102.216C179.631 102.516 179.631 102.816 179.531 103.116C179.331 103.916 178.831 104.716 178.831 105.616C178.731 105.916 178.831 106.216 178.731 106.416C178.431 107.816 179.131 109.116 179.631 110.316C179.831 110.816 179.931 111.316 180.131 111.816C180.231 112.016 180.231 112.216 179.931 112.416C179.231 110.316 177.731 108.416 178.131 105.916C178.331 105.616 178.131 105.316 178.231 105.116C178.331 104.616 178.531 104.116 178.631 103.616C179.031 102.216 178.731 101.616 177.531 100.716C176.931 100.216 176.231 99.8155 175.831 99.2155C175.231 98.5155 174.831 97.6155 174.531 96.8155C173.731 95.0155 171.531 93.0155 169.331 93.2155C168.731 93.3155 168.131 93.2155 167.531 93.3155C168.031 93.7155 168.631 93.9156 169.131 94.1156C170.131 94.4156 171.031 94.9155 171.731 95.8155C172.231 96.5155 173.031 96.8155 173.731 97.2155C174.731 97.7155 175.431 98.4155 175.631 99.5155C176.431 101.416 176.631 103.416 176.931 105.316C177.031 105.616 177.031 106.016 177.131 106.316C177.331 107.216 177.031 108.016 177.231 108.916C177.131 110.216 177.531 111.316 178.031 112.416C178.131 112.616 178.231 112.816 178.331 113.016C178.431 113.216 178.431 113.416 178.231 113.516C178.031 113.616 177.831 113.516 177.731 113.316C177.131 112.216 176.631 111.216 176.631 109.916C176.631 109.016 176.631 108.116 176.631 107.316C176.031 107.016 176.231 106.716 176.131 106.416Z" fill="#C8AFAD"/>
<path d="M169.031 129.016C170.331 129.416 170.731 131.516 170.931 132.616C171.031 133.716 171.031 135.116 170.631 136.116C170.231 137.116 169.331 138.616 168.031 138.816C166.731 139.116 166.231 137.616 165.831 136.816C165.331 138.016 165.231 139.516 163.331 139.116C162.131 138.916 161.631 137.916 160.931 137.116C160.131 136.116 159.531 134.916 159.131 133.716C158.831 133.016 158.631 132.216 158.531 131.416C158.431 131.016 158.131 129.416 158.431 129.016C159.331 128.116 160.331 131.116 160.531 131.416C161.231 132.616 162.031 133.716 163.531 134.116C167.331 135.316 167.731 131.016 169.031 129.016Z" fill="#F0E7E3"/>
<path d="M175.331 184.616C175.431 184.616 175.531 184.816 175.531 185.016C176.231 187.516 177.331 189.816 177.931 192.416C178.031 192.716 178.031 193.016 177.631 193.116C177.231 193.216 177.131 192.916 177.031 192.716C176.231 191.316 175.931 189.816 175.531 188.316C175.331 187.416 174.831 186.616 174.531 185.816C174.331 185.416 174.731 184.716 175.331 184.616Z" fill="#180616"/>
<path d="M156.331 114.316C155.631 114.316 154.931 113.616 154.931 112.916C154.931 112.116 155.531 111.316 156.131 111.316C156.831 111.316 157.531 112.116 157.531 113.016C157.431 113.916 157.131 114.316 156.331 114.316Z" fill="#180616"/>
<path d="M162.231 108.116C163.031 106.916 164.231 106.116 165.331 105.216C166.631 104.116 168.131 103.216 169.231 102.016C169.731 101.516 170.231 100.916 170.431 100.116C170.431 99.9155 170.431 99.7155 170.731 99.8155C171.031 99.8155 170.931 100.116 170.931 100.216C170.831 101.116 170.231 101.716 169.731 102.316C168.631 103.616 167.131 104.416 165.731 105.416C164.531 106.316 163.431 107.216 162.231 108.116Z" fill="#F0E7E3"/>
<path d="M194.431 120.416C194.031 120.716 193.631 120.916 193.231 121.216C192.931 121.416 192.731 121.416 192.431 121.416C192.231 121.416 192.131 121.316 192.131 121.116C192.131 120.916 192.231 120.916 192.331 120.816C193.531 119.916 194.731 119.016 195.731 117.816C195.931 117.616 196.231 117.516 196.431 117.416C196.731 117.316 197.031 116.916 197.231 117.216C197.431 117.516 197.131 117.816 196.931 118.016C196.231 118.616 195.831 119.416 195.031 119.916C194.831 120.116 194.631 120.316 194.431 120.416Z" fill="#272756"/>
<path d="M145.131 99.4155C146.231 98.1155 147.631 97.1156 148.931 96.1156C150.231 95.1156 151.131 93.7156 152.131 92.3156C152.431 92.9156 152.031 93.4156 151.731 93.8156C150.131 96.2156 147.731 97.5156 145.531 99.3156C145.431 99.4156 145.331 99.4155 145.231 99.4155C145.331 99.5155 145.331 99.5155 145.131 99.4155Z" fill="#F0E7E3"/>
<path d="M136.631 110.516C136.931 109.916 137.431 109.416 138.031 109.016C139.631 108.016 140.831 106.816 141.131 104.916C141.131 104.816 141.231 104.616 141.331 104.516C141.431 104.416 141.431 104.016 141.731 104.216C142.031 104.316 141.831 104.616 141.731 104.716C141.331 105.716 141.231 106.816 140.431 107.716C140.031 108.116 139.631 108.416 139.131 108.816C138.331 109.416 137.531 110.016 136.731 110.616C136.731 110.616 136.631 110.616 136.631 110.516Z" fill="#F0E7E3"/>
<path d="M180.531 103.516C180.531 103.316 180.531 103.116 180.431 103.016C180.331 102.816 180.131 102.616 180.431 102.516C180.731 102.416 180.931 102.616 180.931 102.816C181.031 103.316 181.131 103.816 181.231 104.316C181.331 105.316 181.531 106.216 181.831 107.116C182.131 107.816 182.431 108.316 183.331 108.516C182.631 108.916 182.231 108.616 181.931 108.116C181.131 107.016 180.731 105.716 180.731 104.416C180.531 104.116 180.731 103.816 180.531 103.516Z" fill="#F0E7E3"/>
<path d="M177.431 96.4155C176.831 96.6155 176.431 96.5156 176.231 96.2156C175.631 95.5156 175.131 94.8156 174.731 94.1156C174.431 93.6156 174.231 92.9156 173.331 93.0156C173.031 93.0156 173.131 92.7156 173.131 92.6156C173.131 92.2156 173.431 92.3155 173.631 92.4155C174.231 92.7155 174.731 93.2156 175.131 93.8156C175.431 94.4156 175.731 95.0156 176.131 95.5156C176.531 95.7156 176.831 96.1155 177.431 96.4155Z" fill="#F0E7E3"/>
<path d="M154.531 123.616C154.431 123.316 154.231 122.716 154.431 122.416C154.831 121.916 156.431 122.416 157.531 123.316C158.631 124.216 159.031 125.316 159.231 125.816C160.131 128.216 159.831 130.716 160.631 133.216C161.431 135.816 161.731 138.716 162.231 141.416C163.531 148.616 164.431 154.516 164.831 158.016C164.831 158.016 166.231 168.116 165.131 174.216C164.931 175.316 164.731 175.116 163.931 178.216C163.631 179.216 163.431 179.616 163.031 179.916C162.431 180.316 161.831 180.116 161.031 180.016C159.931 179.816 159.231 179.416 158.831 179.216C157.931 178.816 157.431 178.916 154.931 178.116C152.231 177.316 149.631 176.816 146.931 176.216C144.531 175.716 141.931 175.216 139.631 174.116C139.231 173.916 139.131 174.216 139.231 173.716C139.231 173.416 140.131 172.816 140.231 172.616C141.031 171.616 141.531 170.416 142.131 169.316C143.431 166.716 144.831 164.216 145.731 161.416C147.331 156.516 148.531 151.416 149.031 146.316C149.031 145.916 149.131 142.816 150.031 144.016C150.331 144.416 150.031 145.616 150.031 146.016C150.031 146.616 149.931 147.316 149.931 147.916C149.531 151.016 148.931 154.116 148.131 157.116C146.531 163.016 144.231 168.716 140.531 173.716C143.031 174.416 145.531 175.216 148.131 175.616C149.431 175.816 150.731 175.916 152.031 176.216C153.331 176.516 154.631 177.016 155.931 177.416C156.431 177.616 157.031 177.716 157.531 177.816C157.831 177.916 158.731 178.216 159.031 178.116C159.531 177.916 159.731 176.416 159.831 175.816C159.931 174.716 159.731 173.616 159.831 172.416C159.831 171.316 160.031 170.316 160.131 169.216C160.431 164.216 160.331 159.216 160.531 154.216C160.531 153.616 160.531 152.916 160.531 152.316C160.531 152.016 160.631 150.916 160.431 150.716C160.131 150.416 158.931 152.816 157.931 152.116C157.331 151.616 157.431 149.816 157.331 149.216C157.231 147.916 157.131 146.716 157.031 145.416C156.931 143.016 156.631 140.616 156.531 138.216C156.431 136.416 156.331 135.516 156.231 134.816C155.531 128.416 155.131 125.216 154.531 123.616Z" fill="#272756"/>
<path d="M169.931 131.916C170.131 132.316 170.231 132.816 170.231 132.816C170.431 133.316 170.531 133.916 170.831 134.816C172.631 142.416 172.831 150.416 171.831 158.116C171.631 159.716 171.531 161.216 171.231 162.816C170.931 164.616 170.431 166.416 170.131 168.216C169.931 169.916 169.531 171.516 169.131 173.216C168.831 174.716 168.631 175.016 168.231 176.516C167.831 178.316 167.531 179.716 167.431 180.716C169.431 181.316 171.431 181.916 173.531 182.516C173.731 180.216 173.831 177.916 174.031 175.616C174.231 172.516 174.531 169.416 174.831 166.416C174.831 166.416 176.531 156.216 176.831 152.716C176.831 152.016 176.931 151.416 176.931 150.716C176.931 150.316 176.831 149.616 176.931 149.316C177.131 148.716 177.831 148.816 177.931 148.016C178.231 146.216 176.931 144.316 176.431 142.616C175.831 140.416 175.231 138.316 174.331 136.116C173.631 134.216 173.431 132.316 172.931 130.316C172.131 127.516 171.631 126.216 170.531 125.016C168.831 123.316 166.231 122.416 165.731 123.116C164.831 124.016 169.031 129.616 169.931 131.916Z" fill="#272756"/>
<path d="M333.831 161.116C333.831 161.116 323.131 167.816 322.231 174.716C321.331 181.616 334.731 169.716 334.731 169.716L333.831 161.116Z" fill="#DB844B"/>
<path d="M184 93C185.1 89.7 187.3 87.9 188.7 85.6C189.3 84.5 189.6 83.4 189.6 82.2C189.6 74.8 189.6 67.3 189.6 59.9C189.6 56.9 193.2 56.4 193.2 56.4L230 56C230 56 234.2 56.7 234.2 60.2C234.2 68.5 234.2 76.7 234.2 85C234.2 88.2 230.5 88.7 230.5 88.7L198.9 88.6C198.9 88.6 191.1 89.4 187.6 91.3C186.6 91.8 185.6 92.2 184 93Z" fill="#F0F4FC"/>
<path d="M225.5 72.2C226.4 72.6 227.2 73.1 228.1 73.5C230.2 74.6 230.2 76.6 230 78.6C229.8 80.4 228.2 80.1 227 80.3C224.5 80.8 221.9 80.7 219.3 80.3C218.1 80.1 216.3 80.4 216.2 78.4C216.1 76.4 216 74.4 218.2 73.3C219.1 72.9 219.9 72.4 220.8 72C222.5 72 224 72 225.5 72.2Z" fill="#7292F7"/>
<path d="M221.4 71.4C220.1 69.8 219.9 68 220.1 66.1C220.2 64.4 221.3 63.4 222.9 63.5C224.4 63.6 226 64.1 226.2 66.2C226.4 68.1 226 69.7 225 71.3C223.5 73.1 223.1 73.1 221.4 71.4Z" fill="#7292F7"/>
<path d="M200 66.8C198.5 66.8 197 66.8 195.5 66.8C194.5 66.8 193.8 66.2 193.8 65.1C193.8 64 194.5 63.4 195.6 63.4C198.6 63.4 201.7 63.4 204.7 63.4C205.7 63.4 206.5 63.8 206.6 64.9C206.6 66.2 205.9 66.7 204.7 66.7C203 66.8 201.5 66.8 200 66.8Z" fill="#C5CFEF"/>
<path d="M202.3 73.6C204.9 73.6 207.4 73.6 210 73.6C210.8 73.6 211.6 73.7 211.6 74.7C211.6 75.7 210.8 75.9 210 75.9C204.8 75.9 199.6 75.9 194.3 75.9C193.5 75.9 192.7 75.6 192.8 74.6C192.8 73.7 193.6 73.6 194.3 73.6C197 73.6 199.7 73.6 202.3 73.6Z" fill="#C5CFEF"/>
<path d="M202.1 79.5C199.8 79.5 197.4 79.5 195.1 79.5C194.2 79.5 193 79.6 192.9 78.4C192.8 77.1 194 77.2 194.9 77.2C199.9 77.2 204.9 77.2 209.9 77.2C210.8 77.2 211.8 77.2 211.7 78.3C211.7 79.4 210.7 79.4 209.8 79.4C207.2 79.5 204.6 79.5 202.1 79.5Z" fill="#C5CFEF"/>
<path d="M332.2 89C331.1 85.7 328.9 83.9 327.5 81.6C326.9 80.5 326.6 79.4 326.6 78.2C326.6 70.8 326.6 63.3 326.6 55.9C326.6 52.9 323 52.4 323 52.4L286.2 52C286.2 52 282 52.7 282 56.2C282 64.5 282 72.7 282 81C282 84.2 285.7 84.7 285.7 84.7L317.3 84.6C317.3 84.6 325.1 85.4 328.6 87.3C329.6 87.9 330.6 88.3 332.2 89Z" fill="#F0F4FC"/>
<path d="M290.7 68.3C289.8 68.7 289 69.2 288.1 69.6C286 70.7 286 72.7 286.2 74.7C286.4 76.5 288 76.2 289.2 76.4C291.7 76.9 294.3 76.8 296.9 76.4C298.1 76.2 299.9 76.5 300 74.5C300.1 72.5 300.2 70.5 298 69.4C297.1 69 296.3 68.5 295.4 68.1C293.7 68.1 292.2 68 290.7 68.3Z" fill="#C5CFEF"/>
<path d="M294.8 67.5C296.1 65.9 296.3 64.1 296.1 62.2C296 60.5 294.9 59.5 293.3 59.6C291.8 59.7 290.2 60.2 290 62.3C289.8 64.2 290.2 65.8 291.2 67.4C292.7 69.1 293.1 69.1 294.8 67.5Z" fill="#C5CFEF"/>
<path d="M316.3 62.8C317.8 62.8 319.3 62.8 320.8 62.8C321.8 62.8 322.5 62.2 322.5 61.1C322.5 60 321.8 59.4 320.7 59.4C317.7 59.4 314.6 59.4 311.6 59.4C310.6 59.4 309.8 59.8 309.7 60.9C309.7 62.2 310.4 62.7 311.6 62.7C313.2 62.9 314.7 62.8 316.3 62.8Z" fill="#C5CFEF"/>
<path d="M313.9 69.6C311.3 69.6 308.8 69.6 306.2 69.6C305.4 69.6 304.6 69.7 304.6 70.7C304.6 71.7 305.4 71.9 306.2 71.9C311.4 71.9 316.6 71.9 321.9 71.9C322.7 71.9 323.5 71.6 323.4 70.6C323.4 69.7 322.6 69.6 321.9 69.6C319.2 69.6 316.6 69.6 313.9 69.6Z" fill="#C5CFEF"/>
<path d="M314.1 75.5C316.4 75.5 318.8 75.5 321.1 75.5C322 75.5 323.2 75.6 323.3 74.4C323.4 73.1 322.2 73.2 321.3 73.2C316.3 73.2 311.3 73.2 306.3 73.2C305.4 73.2 304.4 73.2 304.5 74.3C304.5 75.4 305.5 75.4 306.4 75.4C309 75.5 311.6 75.5 314.1 75.5Z" fill="#C5CFEF"/>
</g>
<defs>
<linearGradient id="paint0_linear" x1="403.977" y1="57.587" x2="470.217" y2="57.587" gradientUnits="userSpaceOnUse">
<stop stop-color="#FFAE70"/>
<stop offset="1" stop-color="#FFD970"/>
</linearGradient>
<linearGradient id="paint1_linear" x1="385" y1="87.1764" x2="428.096" y2="87.1764" gradientUnits="userSpaceOnUse">
<stop stop-color="#FFAE70"/>
<stop offset="1" stop-color="#FFD970"/>
</linearGradient>
<linearGradient id="paint2_linear" x1="450.545" y1="38.8891" x2="452.287" y2="38.8891" gradientUnits="userSpaceOnUse">
<stop stop-color="#FFAE70"/>
<stop offset="1" stop-color="#FFD970"/>
</linearGradient>
<linearGradient id="paint3_linear" x1="449.922" y1="38.8891" x2="450.647" y2="38.8891" gradientUnits="userSpaceOnUse">
<stop stop-color="#FFAE70"/>
<stop offset="1" stop-color="#FFD970"/>
</linearGradient>
<linearGradient id="paint4_linear" x1="445.544" y1="38.093" x2="451.122" y2="38.093" gradientUnits="userSpaceOnUse">
<stop stop-color="#FFAE70"/>
<stop offset="1" stop-color="#FFD970"/>
</linearGradient>
<linearGradient id="paint5_linear" x1="411.001" y1="100.001" x2="464.999" y2="100.001" gradientUnits="userSpaceOnUse">
<stop stop-color="#FFAE70"/>
<stop offset="1" stop-color="#FFD970"/>
</linearGradient>
</defs>
</svg>
