<svg width="567" height="372" viewBox="0 0 567 372" fill="none" xmlns="http://www.w3.org/2000/svg">
<path d="M0 370.962H567L548 348.398C536.859 335.038 525.718 318.561 526.757 306.983C528.243 292.732 542.207 275.364 548 251.019V209.752C547.406 207.08 546.663 204.408 545.772 201.588C539.83 182.587 531.214 175.016 513.685 168.039C497.196 161.359 475.211 144.288 476.399 124.1C478.033 98.1222 490.363 66.2068 464.218 46.7607C434.062 24.3457 427.675 49.7296 390.092 41.5652C367.066 36.5181 349.983 18.7048 328.295 10.2435C297.842 -1.48352 250.901 -7.56972 224.904 16.9235C205.147 35.6274 204.553 64.8708 188.658 85.9498C167.416 114.006 136.22 101.685 117.206 133.007C98.1914 164.477 132.803 192.532 120.622 210.494C108.441 228.456 66.9959 231.87 53.6265 260.965C40.257 290.208 61.0539 318.413 58.083 331.624C51.9924 359.383 16.7861 370.962 0 370.962Z" fill="#7DE2D2"/>
<path d="M330.523 152.899C330.078 153.047 329.483 153.047 329.038 152.75L257.437 123.061L212.426 175.017C211.981 175.462 211.386 175.759 210.792 175.759C210.198 175.759 209.604 175.61 209.01 175.165L174.843 142.508L151.075 166.852C150.184 167.743 148.698 167.743 147.807 166.852C146.916 165.962 146.916 164.477 147.807 163.587L173.209 137.609C174.1 136.718 175.586 136.718 176.477 137.609L210.495 170.118L255.06 118.757C255.654 118.014 256.843 117.717 257.734 118.163L328.741 147.703L349.835 98.4197C350.132 97.826 350.726 97.2322 351.469 97.0837C352.212 96.9353 352.954 97.0837 353.549 97.5291L394.4 130.187L403.313 103.764C403.61 102.725 404.501 102.131 405.541 102.131L419.059 102.576L437.033 51.5115C437.479 50.324 438.816 49.7302 440.004 50.0271C441.193 50.4724 441.787 51.8084 441.49 52.9959L423.07 105.693C422.773 106.584 421.881 107.326 420.842 107.178L407.324 106.733L397.816 134.64C397.519 135.382 396.925 135.976 396.331 136.124C395.588 136.273 394.845 136.124 394.251 135.679L353.251 102.873L332.454 151.563C331.86 152.305 331.266 152.75 330.523 152.899Z" fill="white"/>
<path d="M447.581 58.3399L443.867 38.7454L428.863 51.8084L447.581 58.3399Z" fill="white"/>
<path d="M180.34 137.906C179.597 134.937 176.626 133.156 173.655 133.898C170.684 134.64 168.901 137.609 169.644 140.578C170.387 143.547 173.358 145.328 176.329 144.586C179.3 143.843 181.082 140.875 180.34 137.906Z" fill="white"/>
<path d="M215.991 172.196C215.249 169.227 212.278 167.446 209.307 168.188C206.336 168.93 204.553 171.899 205.296 174.868C206.039 177.837 209.01 179.618 211.981 178.876C214.952 178.134 216.734 175.165 215.991 172.196Z" fill="white"/>
<path d="M400.787 132.71C400.045 129.741 397.074 127.96 394.103 128.702C391.132 129.444 389.349 132.413 390.092 135.382C390.834 138.351 393.805 140.132 396.776 139.39C399.747 138.499 401.53 135.531 400.787 132.71Z" fill="white"/>
<path d="M407.918 109.306C410.023 107.12 409.956 103.643 407.769 101.539C405.581 99.4359 402.102 99.5028 399.997 101.689C397.892 103.875 397.959 107.352 400.146 109.455C402.334 111.558 405.813 111.491 407.918 109.306Z" fill="white"/>
<path d="M426.041 103.615C425.298 100.646 422.327 98.865 419.356 99.6072C416.385 100.349 414.602 103.318 415.345 106.287C416.088 109.256 419.059 111.037 422.03 110.295C425.001 109.553 426.783 106.584 426.041 103.615Z" fill="white"/>
<path d="M393.805 164.329V161.36L388.457 160.469C388.309 159.43 387.863 158.391 387.269 157.5L390.537 152.898L388.457 150.82L384.001 153.938C383.11 153.344 382.07 152.898 381.03 152.602L380.139 147.109H377.168L376.276 152.453C375.236 152.602 374.197 153.047 373.305 153.641L368.7 150.375L366.62 152.453L369.74 156.906C369.146 157.797 368.7 158.836 368.403 159.875L362.907 160.766V163.735L368.255 164.625C368.403 165.665 368.849 166.704 369.443 167.594L366.175 172.196L368.255 174.274L372.711 171.157C373.602 171.751 374.642 172.196 375.682 172.493L376.573 177.985H379.544L380.436 172.641C381.475 172.493 382.515 172.048 383.407 171.454L388.012 174.72L390.091 172.641L386.972 168.188C387.566 167.297 388.012 166.258 388.309 165.219L393.805 164.329ZM378.504 166.852C376.128 166.852 374.197 164.922 374.197 162.547C374.197 160.172 376.128 158.242 378.504 158.242C380.881 158.242 382.812 160.172 382.812 162.547C382.812 164.922 380.881 166.852 378.504 166.852Z" fill="white"/>
<path d="M417.128 53.1443V50.1754L411.78 49.2847C411.632 48.2456 411.186 47.2065 410.592 46.3159L413.86 41.7141L411.78 39.6359L407.324 42.7532C406.432 42.1594 405.392 41.7141 404.353 41.4172L403.461 35.9248H400.49L399.599 41.2688C398.559 41.4172 397.519 41.8626 396.628 42.4563L392.023 39.1906L389.943 41.2688L393.063 45.7221C392.469 46.6128 392.023 47.6519 391.726 48.691L386.229 49.5816V52.5505L391.577 53.4412C391.726 54.4803 392.171 55.5194 392.766 56.41L389.498 61.0118L391.577 63.09L396.034 59.9727C396.925 60.5665 397.965 61.0118 399.005 61.3087L399.896 66.8011H402.867L403.758 61.4571C404.798 61.3087 405.838 60.8634 406.729 60.2696L411.334 63.5353L413.414 61.4571L410.295 57.0038C410.889 56.1132 411.334 55.074 411.632 54.0349L417.128 53.1443ZM401.827 55.6678C399.45 55.6678 397.519 53.7381 397.519 51.363C397.519 48.9879 399.45 47.0581 401.827 47.0581C404.204 47.0581 406.135 48.9879 406.135 51.363C406.135 53.7381 404.204 55.6678 401.827 55.6678Z" fill="white"/>
<path d="M418.019 181.4V178.431L412.671 177.54C412.523 176.501 412.077 175.462 411.483 174.571L414.751 169.969L412.671 167.891L408.215 171.009C407.323 170.415 406.284 169.969 405.244 169.673L404.352 164.18H401.381L400.49 169.524C399.45 169.673 398.41 170.118 397.519 170.712L392.914 167.446L390.834 169.524L393.954 173.977C393.36 174.868 392.914 175.907 392.617 176.946L387.121 177.837V180.806L392.468 181.697C392.617 182.736 393.063 183.775 393.657 184.665L390.389 189.267L392.468 191.345L396.925 188.228C397.816 188.822 398.856 189.267 399.896 189.564L400.787 195.056H403.758L404.649 189.713C405.689 189.564 406.729 189.119 407.62 188.525L412.226 191.791L414.305 189.713L411.186 185.259C411.78 184.369 412.226 183.329 412.523 182.29L418.019 181.4ZM402.57 184.072C400.193 184.072 398.262 182.142 398.262 179.767C398.262 177.392 400.193 175.462 402.57 175.462C404.947 175.462 406.878 177.392 406.878 179.767C406.878 182.142 404.947 184.072 402.57 184.072Z" fill="white"/>
<path d="M396.331 229.347V227.12L392.172 226.378C392.023 225.487 391.726 224.745 391.28 224.003L393.806 220.44L392.172 218.807L388.755 221.331C388.012 220.886 387.27 220.589 386.527 220.292L385.784 215.987H383.556L382.813 220.143C381.922 220.292 381.179 220.589 380.436 221.034L376.871 218.511L375.237 220.143L377.762 223.558C377.317 224.3 377.02 225.042 376.723 225.784L372.415 226.527V228.753L376.574 229.495C376.722 230.386 377.02 231.128 377.465 231.871L374.94 235.433L376.574 237.066L379.991 234.543C380.733 234.988 381.476 235.285 382.219 235.582L382.962 239.886H385.19L385.933 235.73C386.824 235.582 387.567 235.285 388.309 234.839L391.875 237.363L393.509 235.73L390.983 232.316C391.429 231.574 391.726 230.831 392.023 230.089L396.331 229.347ZM384.299 231.425C382.367 231.425 380.882 229.941 380.882 228.011C380.882 226.081 382.367 224.597 384.299 224.597C386.23 224.597 387.715 226.081 387.715 228.011C387.715 229.792 386.23 231.425 384.299 231.425Z" fill="white"/>
<path d="M130.575 167.891V165.368L125.97 164.625C125.822 163.735 125.376 162.844 124.93 162.102L127.753 158.094L125.97 156.313L122.108 158.985C121.365 158.539 120.474 158.094 119.583 157.797L118.84 153.047H116.314L115.572 157.649C114.68 157.797 113.789 158.242 113.046 158.688L109.036 155.867L107.253 157.649L109.927 161.508C109.481 162.25 109.036 163.141 108.738 164.032L103.985 164.774V167.297L108.59 168.04C108.738 168.93 109.184 169.821 109.63 170.563L106.807 174.571L108.59 176.353L112.452 173.681C113.195 174.126 114.086 174.571 114.978 174.868L115.72 179.618H118.246L118.988 175.017C119.88 174.868 120.771 174.423 121.514 173.977L125.525 176.798L127.307 175.017L124.633 171.157C125.079 170.415 125.525 169.524 125.822 168.633L130.575 167.891ZM117.206 170.118C115.126 170.118 113.492 168.485 113.492 166.407C113.492 164.329 115.126 162.696 117.206 162.696C119.285 162.696 120.92 164.329 120.92 166.407C121.068 168.485 119.285 170.118 117.206 170.118Z" fill="white"/>
<path d="M214.803 109.256V106.287L209.455 105.397C209.307 104.357 208.861 103.318 208.267 102.428L211.535 97.8259L209.455 95.7477L204.999 98.865C204.107 98.2713 203.216 97.8259 202.176 97.529L201.285 92.0366H198.314L197.423 97.3806C196.383 97.529 195.343 97.9744 194.452 98.5681L189.847 95.3024L187.767 97.3806L190.887 101.834C190.292 102.725 189.847 103.615 189.55 104.654L184.053 105.545V108.514L189.401 109.405C189.55 110.444 189.995 111.483 190.589 112.373L187.321 116.975L189.401 119.053L193.858 115.936C194.749 116.53 195.64 116.975 196.68 117.272L197.571 122.764H200.542L201.434 117.421C202.473 117.272 203.513 116.827 204.405 116.233L209.01 119.499L211.089 117.421L207.97 112.967C208.564 112.077 209.01 111.186 209.307 110.147L214.803 109.256ZM199.502 111.78C197.126 111.78 195.194 109.85 195.194 107.475C195.194 105.1 197.126 103.17 199.502 103.17C201.879 103.17 203.81 105.1 203.81 107.475C203.959 109.85 202.028 111.78 199.502 111.78Z" fill="white"/>
<path d="M250.752 88.7707V84.9112L243.77 83.7236C243.473 82.3876 243.027 81.0516 242.285 79.8641L246.593 73.9263L243.919 71.2544L238.125 75.4108C236.937 74.6686 235.748 74.0748 234.263 73.6295L233.075 66.3557H229.212L228.024 73.3326C226.687 73.6295 225.35 74.0748 224.162 74.817L218.22 70.5121L215.546 73.1841L219.705 78.9734C218.962 80.161 218.368 81.3485 217.922 82.833L210.644 84.0205V87.88L217.625 89.0676C217.922 90.4036 218.368 91.7396 219.111 92.9271L214.803 98.8649L217.477 101.537L223.27 97.3804C224.459 98.1227 225.647 98.7164 227.133 99.1618L228.321 106.436H232.183L233.372 99.4587C234.709 99.1618 236.046 98.7164 237.234 97.9742L243.176 102.279L245.85 99.6071L241.69 93.8178C242.433 92.6302 243.027 91.4427 243.473 89.9583L250.752 88.7707ZM230.698 92.1849C227.578 92.1849 225.053 89.6614 225.053 86.5441C225.053 83.4267 227.578 80.9032 230.698 80.9032C233.817 80.9032 236.343 83.4267 236.343 86.5441C236.343 89.6614 233.817 92.1849 230.698 92.1849Z" fill="white"/>
<path d="M120.177 283.232C120.177 283.232 118.246 299.709 121.217 302.381C124.188 305.053 187.024 305.053 187.024 305.053C187.024 305.053 197.274 306.686 201.434 303.124C205.445 299.561 206.039 294.217 199.503 291.248C192.966 288.279 150.481 283.381 150.481 283.381L120.177 283.232Z" fill="#9F2335"/>
<path d="M200.542 264.677L206.93 267.349H211.981L213.466 266.161L209.455 263.935L215.397 262.895L220.894 263.935L222.379 262.153L214.952 258.739L200.245 260.223L200.542 264.677Z" fill="#FF9C77"/>
<path d="M153.749 234.543L161.474 256.215L200.245 260.223L200.542 264.677L150.184 269.427L153.749 234.543Z" fill="#8FBFD8"/>
<path d="M147.807 207.229C147.807 207.229 135.923 212.573 130.13 220.292C124.336 228.011 120.622 254.434 120.325 263.935C120.028 273.435 117.651 284.568 121.068 285.904C124.633 287.24 151.075 286.201 152.709 284.271C154.343 282.342 153.303 261.263 154.343 252.356C155.383 243.449 156.72 221.48 156.72 221.48C156.72 221.48 150.778 208.268 147.807 207.229Z" fill="#0A71A9"/>
<path d="M167.267 204.557C167.267 204.557 162.365 208.417 161.325 211.385C160.285 214.354 158.057 218.362 158.057 218.362L150.481 205.893C150.481 205.893 154.789 196.393 154.046 194.018C153.303 191.642 153.006 189.119 153.006 189.119C153.006 189.119 162.811 186.447 166.821 190.158C170.832 193.869 167.267 204.557 167.267 204.557Z" fill="#FFB380"/>
<path d="M162.365 194.463C162.365 194.463 161.622 189.564 158.503 189.861C155.532 190.158 156.274 196.838 156.274 196.838L159.245 198.174C159.245 198.174 158.503 204.706 161.919 207.377C165.485 210.049 175.14 213.315 176.477 211.237C177.814 209.01 179.448 190.455 178.854 185.259C178.26 180.064 178.111 178.283 172.615 176.798C167.267 175.462 161.474 178.134 162.068 181.994C162.662 185.853 162.365 194.463 162.365 194.463Z" fill="#FFB380"/>
<path d="M162.365 194.463L165.633 194.166C165.633 194.166 163.702 192.533 165.93 191.197C168.159 189.861 170.238 189.861 170.238 187.634C170.238 185.408 163.702 182.29 167.862 181.4C171.872 180.658 179.003 184.072 183.311 180.064C187.619 176.056 184.945 167.891 180.637 167.594C176.329 167.298 174.695 169.97 174.695 169.97C174.695 169.97 169.05 162.696 164.445 165.368C159.84 168.04 161.474 172.642 161.474 172.642C161.474 172.642 154.641 171.009 151.224 177.243C147.659 183.478 148.847 191.345 151.818 194.314C154.789 197.283 159.988 197.877 161.325 197.283C162.365 196.838 162.365 194.463 162.365 194.463Z" fill="#373463"/>
<path d="M163.405 195.502C163.405 195.502 162.811 190.158 158.503 189.861C154.195 189.564 155.532 196.392 157.166 198.768C158.8 201.143 160.731 198.768 160.731 198.768" fill="#FFB380"/>
<path d="M150.481 202.924L160.137 218.362L157.463 223.112L146.173 206.932L150.481 202.924Z" fill="#BDD9E8"/>
<path d="M141.717 225.042L147.064 257.551L182.271 258.887L183.905 263.489C183.905 263.489 138.449 274.919 135.478 274.325C132.507 273.732 127.01 231.871 127.01 231.871C127.01 231.871 128.644 222.964 133.546 221.331C138.597 219.698 141.717 225.042 141.717 225.042Z" fill="#BDD9E8"/>
<path d="M185.984 298.967L151.818 346.172L157.166 349.735L201.731 304.163C201.731 304.163 204.553 299.264 203.365 297.631" fill="#6D2335"/>
<path d="M151.966 346.321L146.619 354.188L165.633 366.806L157.166 349.735L151.966 346.321Z" fill="#37344A"/>
<path d="M187.024 299.709L165.039 353.595L170.981 355.821L203.662 301.045C203.662 301.045 205.296 295.701 203.662 294.217" fill="#9F2335"/>
<path d="M165.039 353.743L161.771 362.65L183.162 370.517L170.981 355.821L165.039 353.743Z" fill="#373463"/>
<path d="M194.6 254.879C194.6 254.879 202.771 253.247 204.85 253.247C207.078 253.247 207.078 255.473 199.651 255.622L194.303 257.255L194.6 254.879Z" fill="#FFB380"/>
<path d="M195.64 254.583C195.64 254.583 200.245 255.622 202.919 256.958C205.593 258.294 206.93 260.223 204.85 260.223C202.622 260.223 196.977 257.848 196.977 257.848L195.64 254.583Z" fill="#FFB380"/>
<path d="M182.419 258.887C182.419 258.887 193.264 254.583 195.64 254.583C198.017 254.583 202.177 259.481 202.177 259.481C202.177 259.481 204.553 261.411 202.919 261.856C201.285 262.45 196.977 257.848 196.977 257.848C196.977 257.848 194.601 261.411 191.332 262.153C188.064 262.895 184.053 263.489 184.053 263.489L182.419 258.887Z" fill="#FFB380"/>
<path d="M141.568 317.374H136.666V363.243H141.568V317.374Z" fill="#333333"/>
<path d="M145.282 325.242H132.952C130.575 325.242 128.644 323.312 128.644 320.937V319.007C128.644 316.632 130.575 314.702 132.952 314.702H145.282C147.658 314.702 149.59 316.632 149.59 319.007V320.937C149.59 323.312 147.658 325.242 145.282 325.242Z" fill="#373463"/>
<path d="M94.3292 213.315C94.3292 213.315 91.3582 239.293 94.3292 269.13C97.3002 298.967 104.282 317.077 107.847 319.156C111.412 321.234 175.437 321.234 179.151 318.562C182.716 315.89 184.945 305.647 182.122 305.053C179.448 304.46 124.485 302.975 121.217 301.194C117.949 299.412 114.532 275.513 114.829 245.082C115.126 214.651 117.206 208.862 107.253 208.862C97.4488 208.862 94.9234 210.049 94.3292 213.315Z" fill="#373463"/>
<path d="M121.217 316.187C120.028 316.187 119.137 315.296 118.84 314.257L114.235 290.061C114.086 289.318 114.235 288.725 114.681 288.131C115.126 287.537 115.72 287.24 116.463 287.24L166.227 284.568C167.564 284.568 168.753 285.459 168.753 286.795C168.753 288.131 167.861 289.318 166.524 289.318L119.583 291.842L123.296 311.288L171.724 309.952C173.061 309.952 174.1 310.991 174.249 312.327C174.249 313.663 173.209 314.702 171.872 314.851L121.217 316.187Z" fill="#333333"/>
<path d="M138.746 359.681L99.8257 365.47V366.954C99.8257 368.736 101.311 370.22 103.094 370.22C104.876 370.22 106.362 368.736 106.362 366.954H134.735V367.548C134.735 369.33 136.22 370.814 138.003 370.814H139.488C141.271 370.814 142.757 369.33 142.757 367.548V366.954H172.318V367.251C172.318 369.033 173.803 370.517 175.586 370.517H176.477C178.26 370.517 179.745 369.033 179.745 367.251V365.47L138.746 359.681Z" fill="#333333"/>
<path d="M166.821 274.919C166.821 274.919 114.235 276.998 113.046 279.818C111.858 282.49 111.858 287.389 115.72 288.279C119.583 289.17 168.307 286.795 171.278 285.607C173.952 284.568 172.763 280.263 172.169 278.334C171.129 274.622 170.238 274.771 166.821 274.919Z" fill="#373463"/>
<path d="M416.385 281.896C416.385 281.896 405.689 282.193 405.987 286.943C406.284 291.694 434.954 355.524 434.954 355.524L422.921 370.072L442.975 360.126L420.842 290.654C420.842 290.654 419.95 285.162 416.385 281.896Z" fill="#FFA968"/>
<path d="M431.24 359.978L433.468 361.165L441.49 356.118L442.827 360.126L422.921 370.072L431.24 359.978Z" fill="#7F2335"/>
<path d="M452.093 363.319H456.995V317.45H452.093V363.319Z" fill="#333333"/>
<path d="M448.323 325.242H460.653C463.029 325.242 464.961 323.312 464.961 320.937V319.007C464.961 316.632 463.029 314.702 460.653 314.702H448.323C445.946 314.702 444.015 316.632 444.015 319.007V320.937C444.015 323.312 445.946 325.242 448.323 325.242Z" fill="#373463"/>
<path d="M454.859 359.681L493.779 365.47V367.103C493.779 368.884 492.294 370.369 490.511 370.369H490.363C488.58 370.369 487.094 368.884 487.094 367.103V366.954H458.721V367.697C458.721 369.478 457.236 370.962 455.453 370.962H453.819C452.037 370.962 450.551 369.478 450.551 367.697V366.954H421.287V367.4C421.287 369.181 419.801 370.666 418.019 370.666H416.979C415.196 370.666 413.711 369.181 413.711 367.4V365.47L454.859 359.681Z" fill="#333333"/>
<path d="M410.294 282.49C410.294 282.49 399.599 282.045 399.599 286.795C399.599 291.545 424.109 357.157 424.109 357.157L411.185 370.814L431.834 362.204L414.305 291.396C414.156 291.396 413.711 285.904 410.294 282.49Z" fill="#FFB380"/>
<path d="M420.099 361.165L422.327 362.65L430.646 358.196L431.685 362.204L411.186 370.666L420.099 361.165Z" fill="#9F2335"/>
<path d="M405.541 268.685L399.302 271.357H394.102L392.617 270.169L396.776 267.942L390.834 266.903L385.338 267.942L383.853 266.161L391.131 262.895L405.986 264.38L405.541 268.685Z" fill="#FF9C77"/>
<path d="M452.334 238.551L444.61 260.223L405.987 264.38L405.541 268.685L456.048 273.583L452.334 238.551Z" fill="#8FBFD8"/>
<path d="M460.95 216.284C460.95 216.284 469.566 222.667 472.537 237.363C475.508 251.91 475.508 283.677 472.982 297.483C470.457 311.139 445.946 309.061 439.113 307.28C432.28 305.499 411.186 296.592 411.186 296.592L410.294 282.49L448.917 281.599L454.859 274.771L453.968 256.364C453.968 256.364 444.164 252.059 444.164 248.199C444.164 244.34 447.58 228.902 447.58 228.902C447.58 228.902 455.751 216.729 460.95 216.284Z" fill="#0A71A9"/>
<path d="M455.008 274.474V274.623L449.066 281.451L410.443 282.342L411.334 296.444C411.334 296.444 432.428 305.499 439.262 307.132C446.095 308.913 470.606 310.991 473.131 297.334C474.022 292.733 474.616 285.904 474.913 278.482L455.008 274.474Z" fill="#9F2335"/>
<path d="M457.087 177.392C457.087 177.392 456.79 164.18 470.605 160.172C484.421 156.164 493.482 169.376 493.185 177.689C493.036 186.001 495.71 190.306 504.326 189.416C512.942 188.525 524.083 194.463 521.261 205.893C518.29 217.472 501.652 211.831 501.652 211.831C501.652 211.831 508.634 209.307 504.475 205.151C500.315 200.994 494.076 209.307 485.906 207.229C477.587 205.151 476.399 186.15 468.823 180.657C461.395 175.314 459.019 180.212 459.019 180.212L457.087 177.392Z" fill="#9F2335"/>
<path d="M436.439 176.501C436.439 176.501 429.16 171.306 424.852 176.056C420.544 180.806 425.298 183.775 425.298 186.298C425.298 188.822 420.99 190.603 423.961 192.236C426.932 194.018 430.794 194.76 430.794 194.76L436.439 176.501Z" fill="#9F2335"/>
<path d="M430.051 187.634C430.051 187.634 433.022 174.274 441.193 173.087C449.363 171.751 460.058 174.423 461.841 186.447C463.624 198.471 455.453 206.19 455.453 206.19L459.316 215.245L450.254 220.886L444.609 211.831C444.609 211.831 432.577 215.245 430.943 212.721C429.16 209.901 429.606 192.385 430.051 187.634Z" fill="#FFB380"/>
<path d="M441.193 173.087C449.363 171.751 460.058 174.423 461.841 186.447C463.624 198.471 455.453 206.19 455.453 206.19C450.7 205.744 449.511 201.885 449.511 201.885C449.511 201.885 453.819 200.549 453.819 195.947C453.819 191.197 450.403 198.025 446.986 198.025C443.569 198.025 446.986 189.861 442.232 185.556C438.964 182.587 433.914 183.626 431.24 184.369C432.577 180.361 435.696 173.829 441.193 173.087Z" fill="#9F2335"/>
<path d="M460.059 211.682L445.055 221.034L447.58 228.753L463.03 216.729L460.059 211.682Z" fill="#BDD9E8"/>
<path d="M454.711 231.128L452.78 263.934L416.385 263.044L414.899 267.348C414.899 267.348 457.979 278.036 460.801 277.591C463.624 277.146 468.674 237.363 468.674 237.363C468.674 237.363 467.189 228.902 462.584 227.417C457.83 225.933 454.711 231.128 454.711 231.128Z" fill="#BDD9E8"/>
<path d="M404.798 259.333C404.798 259.333 397.074 257.848 394.994 257.848C392.914 257.848 392.914 259.926 399.896 260.223L404.947 261.708L404.798 259.333Z" fill="#FFB380"/>
<path d="M403.758 259.036C403.758 259.036 399.45 260.075 396.776 261.411C394.251 262.747 392.914 264.528 394.994 264.528C397.073 264.528 402.421 262.153 402.421 262.153L403.758 259.036Z" fill="#FFB380"/>
<path d="M416.385 263.044C416.385 263.044 406.135 258.887 403.907 258.887C401.53 258.887 397.816 263.489 397.816 263.489C397.816 263.489 395.44 265.271 397.074 265.864C398.559 266.31 402.718 262.005 402.718 262.005C402.718 262.005 405.095 265.271 408.066 266.161C411.186 266.903 415.048 267.497 415.048 267.497L416.385 263.044Z" fill="#FFB380"/>
<path d="M499.127 213.315C499.127 213.315 502.098 239.293 499.127 269.13C496.156 298.967 489.175 317.077 485.609 319.156C482.044 321.234 418.019 321.234 414.306 318.562C410.74 315.89 408.512 305.647 411.335 305.053C414.008 304.46 468.972 302.975 472.24 301.194C475.508 299.412 478.925 275.513 478.628 245.082C478.331 214.651 476.251 208.862 486.204 208.862C496.156 208.862 498.533 210.049 499.127 213.315Z" fill="#373463"/>
<path d="M472.388 316.187C473.577 316.187 474.468 315.296 474.765 314.257L479.37 290.061C479.519 289.318 479.37 288.725 478.924 288.131C478.479 287.537 477.885 287.24 477.142 287.24L427.378 284.568C426.041 284.568 424.852 285.459 424.852 286.795C424.852 288.131 425.744 289.318 427.081 289.318L474.022 291.842L470.309 311.288L421.881 309.952C420.544 309.952 419.505 310.991 419.356 312.327C419.356 313.663 420.396 314.702 421.733 314.851L472.388 316.187Z" fill="#333333"/>
<path d="M426.635 274.919C426.635 274.919 479.222 276.998 480.41 279.818C481.598 282.49 481.598 287.389 477.736 288.279C473.874 289.17 425.15 286.795 422.179 285.607C419.505 284.568 420.693 280.263 421.287 278.334C422.327 274.622 423.218 274.771 426.635 274.919Z" fill="#373463"/>
<path d="M415.642 282.935L418.613 276.255L371.078 261.411L302.002 256.364L224.756 261.411L177.22 276.255L180.191 282.935L209.901 280.709L221.042 294.811L203.959 361.61H293.089H391.875L374.791 294.811L385.933 280.709L415.642 282.935Z" fill="#11C286"/>
<path d="M403.461 371.853H192.372L209.901 280.709H385.932L403.461 371.853Z" fill="#009264"/>
<path opacity="0.75" d="M340.476 3.41577H256.843V177.837H340.476V3.41577Z" fill="url(#paint0_linear)"/>
<path d="M359.194 238.402H238.125L250.307 173.829H347.012L359.194 238.402Z" fill="#58ED99"/>
<path d="M347.755 177.837L347.012 173.829H250.306L249.563 177.837H347.755Z" fill="white"/>
<path d="M372.563 261.411H224.756L239.611 196.838H357.708L372.563 261.411Z" fill="#11E56E"/>
<path d="M298.586 319.452H293.98V363.54H298.586V319.452Z" fill="#333333"/>
<path d="M296.06 360.126L258.625 365.618V370.22H265.013V367.103H292.346V370.814H300.071V367.103H328.295V370.517H335.574V365.618L296.06 360.126Z" fill="#333333"/>
<path d="M259.22 293.92H255.803C253.575 293.92 251.644 291.99 251.644 289.764V282.787C251.644 280.56 253.575 278.63 255.803 278.63H259.22C261.448 278.63 263.379 280.56 263.379 282.787V289.764C263.379 291.99 261.448 293.92 259.22 293.92Z" fill="#373463"/>
<path d="M341.962 293.92H338.545C336.317 293.92 334.386 291.99 334.386 289.764V282.787C334.386 280.56 336.317 278.63 338.545 278.63H341.962C344.19 278.63 346.121 280.56 346.121 282.787V289.764C346.121 291.99 344.19 293.92 341.962 293.92Z" fill="#373463"/>
<path d="M282.096 212.573L266.201 219.55C266.201 219.55 249.564 260.372 247.484 265.567C245.405 270.763 249.564 275.958 254.466 276.701C259.368 277.443 262.785 272.841 262.785 272.841L298.734 234.84C298.734 234.84 329.484 274.622 335.129 275.958C340.625 277.294 344.487 276.255 346.864 270.021C349.241 263.786 332.009 219.105 332.009 219.105L315.074 212.573H282.096V212.573Z" fill="#0A71A9"/>
<path d="M268.578 325.687L272.292 358.642H281.353L283.136 324.648L268.578 325.687Z" fill="#9F2335"/>
<path d="M281.205 358.642H272.292V368.29H281.205V358.642Z" fill="#373463"/>
<path d="M329.781 325.687L325.918 358.642H317.005L315.223 324.648L329.781 325.687Z" fill="#9F2335"/>
<path d="M317.028 368.247H325.941V358.598H317.028V368.247Z" fill="#373463"/>
<path d="M328.89 327.914H269.024C263.528 327.914 259.22 323.46 259.22 318.116V227.269C259.22 222.667 262.933 218.808 267.687 218.808H330.375C334.98 218.808 338.842 222.519 338.842 227.269V318.116C338.694 323.46 334.386 327.914 328.89 327.914Z" fill="#4F4C75"/>
<path d="M330.375 225.933H267.687C263.082 225.933 259.22 229.644 259.22 234.394V317.968C259.22 323.46 263.676 327.765 269.024 327.765H328.89C334.386 327.765 338.694 323.312 338.694 317.968V234.394C338.694 229.644 334.98 225.933 330.375 225.933Z" fill="#373463"/>
<path d="M290.712 199.807V211.534H306.607V199.065L290.712 199.807Z" fill="#FFB380"/>
<path d="M287.296 190.455C287.296 190.455 284.919 188.674 284.919 192.236C284.919 195.65 285.662 198.768 289.375 199.213C293.089 199.51 287.296 190.455 287.296 190.455Z" fill="#FFB380"/>
<path d="M311.212 190.455C311.212 190.455 313.589 188.674 313.589 192.236C313.589 195.65 312.846 198.768 309.132 199.213C305.419 199.51 311.212 190.455 311.212 190.455Z" fill="#FFB380"/>
<path d="M294.129 171.454C294.129 171.454 285.81 175.61 285.81 183.181C285.81 190.752 289.227 202.924 292.792 204.705C296.209 206.487 302.893 206.784 305.27 205.002C307.647 203.221 311.806 192.83 312.252 186.002C312.549 179.025 309.727 168.931 294.129 171.454Z" fill="#373463"/>
<path d="M293.535 173.532C293.535 173.532 294.277 168.337 298.734 167.595C303.19 166.852 303.933 170.415 306.013 170.415C308.092 170.415 308.092 167.001 312.995 167.001C317.897 167.001 323.393 176.65 319.531 180.509C315.668 184.369 312.252 184.369 310.469 183.33C308.687 182.29 306.607 175.759 301.853 175.759C297.1 175.759 292.792 175.61 293.535 173.532Z" fill="#373463"/>
<path d="M308.687 208.417H289.672L282.096 212.573H314.926L308.687 208.417Z" fill="#BDD9E8"/>
<path d="M309.875 139.984L306.458 146.664C306.013 147.406 305.27 147.852 304.527 147.852H292.792C292.049 147.852 291.306 147.406 290.86 146.664L287.444 139.984H309.875Z" fill="#636363"/>
<path d="M281.651 109.405C281.353 111.038 281.205 112.522 282.245 113.858H315.371C316.857 111.928 316.411 109.405 316.411 106.584C316.263 101.389 317.748 96.1932 320.422 91.7399C322.65 88.0288 325.77 84.6146 327.701 80.6066C329.484 76.5987 330.226 72.1453 330.226 67.8405C330.226 50.0272 316.114 35.4797 298.734 35.4797C281.353 35.4797 267.241 49.8788 267.241 67.692C267.241 73.036 268.578 78.5284 271.104 83.2786C275.411 91.2946 282.988 99.459 281.651 109.405Z" fill="#FDFF51"/>
<path d="M303.041 66.3559C309.441 66.3559 314.628 61.5043 314.628 55.5195C314.628 49.5347 309.441 44.6831 303.041 44.6831C296.642 44.6831 291.455 49.5347 291.455 55.5195C291.455 61.5043 296.642 66.3559 303.041 66.3559Z" fill="#FEFFA9"/>
<path d="M315.223 113.858H282.096V137.312H315.223V113.858Z" fill="#969696"/>
<path d="M295.466 113.858H286.404V137.312H295.466V113.858Z" fill="#D9D9D9"/>
<path d="M315.223 137.312L312.846 140.43C312.252 141.172 311.36 141.617 310.469 141.617H286.998C286.107 141.617 285.216 141.172 284.621 140.43L282.245 137.312H315.223Z" fill="#969696"/>
<path d="M295.466 140.43L293.089 137.312H286.553L288.93 140.43C289.524 141.172 290.415 141.617 291.306 141.617H297.843C296.803 141.617 296.06 141.172 295.466 140.43Z" fill="#D9D9D9"/>
<path d="M315.223 120.093H282.096V137.312H315.223V120.093Z" fill="#636363"/>
<path d="M315.074 123.804L282.542 125.585C281.799 125.585 281.205 125.14 281.205 124.398C281.205 123.655 281.651 123.062 282.393 123.062L314.926 121.28C315.669 121.28 316.263 121.726 316.263 122.468C316.263 123.21 315.817 123.804 315.074 123.804Z" fill="#969696"/>
<path d="M282.393 124.101L314.926 122.319C315.52 122.319 315.966 122.616 316.263 123.062C316.411 122.913 316.411 122.616 316.411 122.468C316.411 121.726 315.817 121.132 315.074 121.28L282.393 123.062C281.651 123.062 281.056 123.655 281.205 124.398C281.205 124.546 281.205 124.694 281.354 124.843C281.354 124.398 281.799 124.101 282.393 124.101Z" fill="#D9D9D9"/>
<path d="M315.074 135.382L282.542 137.164C281.799 137.164 281.205 136.718 281.205 135.976C281.205 135.234 281.651 134.64 282.393 134.64L314.926 132.859C315.669 132.859 316.263 133.304 316.263 134.046C316.263 134.789 315.817 135.382 315.074 135.382Z" fill="#969696"/>
<path d="M315.074 129.593L282.542 131.374C281.799 131.374 281.205 130.929 281.205 130.187C281.205 129.445 281.651 128.851 282.393 128.851L314.926 127.07C315.669 127.07 316.263 127.515 316.263 128.257C316.263 128.999 315.817 129.593 315.074 129.593Z" fill="#969696"/>
<path d="M282.393 129.89L314.926 128.109C315.52 128.109 315.966 128.406 316.263 128.851C316.411 128.702 316.411 128.406 316.411 128.257C316.411 127.515 315.817 126.921 315.074 127.07L282.542 128.851C281.799 128.851 281.205 129.445 281.353 130.187C281.353 130.335 281.353 130.484 281.502 130.632C281.353 130.187 281.799 129.89 282.393 129.89Z" fill="#D9D9D9"/>
<path d="M282.393 135.679L314.926 133.898C315.52 133.898 315.966 134.195 316.263 134.64C316.411 134.492 316.411 134.195 316.411 134.046C316.411 133.304 315.817 132.71 315.074 132.859L282.542 134.64C281.799 134.64 281.205 135.234 281.353 135.976C281.353 136.125 281.353 136.273 281.502 136.421C281.353 135.976 281.799 135.679 282.393 135.679Z" fill="#D9D9D9"/>
<path d="M331.306 160.509C334.228 153.823 331.173 146.035 324.481 143.115C317.79 140.195 309.997 143.248 307.075 149.935C304.153 156.621 307.208 164.409 313.899 167.329C320.591 170.249 328.384 167.196 331.306 160.509Z" fill="white"/>
<path d="M281.626 178.566C287.124 173.765 287.687 165.419 282.882 159.925C278.078 154.431 269.726 153.869 264.227 158.67C258.729 163.471 258.167 171.817 262.971 177.311C267.776 182.806 276.128 183.367 281.626 178.566Z" fill="white"/>
<path d="M187.767 58.0432C187.767 58.0432 195.937 75.4111 169.198 92.779C142.459 110.147 128.644 105.545 146.024 84.6146C163.405 63.684 181.825 45.277 187.767 58.0432Z" fill="#7DE2D2"/>
<path d="M43.8221 255.177C43.8221 255.177 36.8402 265.568 39.217 278.334C41.5938 291.1 48.4271 305.054 39.217 301.491C30.0069 298.077 28.8185 279.521 33.4236 265.568C38.0286 251.614 43.8221 255.177 43.8221 255.177Z" fill="#7DE2D2"/>
<path d="M488.135 82.388C488.135 82.388 481.153 121.874 483.53 131.078C485.906 140.281 495.116 134.492 495.116 118.311C495.116 102.131 502.098 73.036 488.135 82.388Z" fill="#7DE2D2"/>
<path d="M251.056 84.8155L258.474 98.8212L271.136 89.2882L260.108 100.672L273.087 109.768L258.853 102.798L254.213 117.952L256.443 102.261L240.597 102.531L256.209 99.8034L251.056 84.8155Z" fill="white"/>
<path d="M280.047 42.9L273.554 53.3575L284.904 58.1214L272.952 55.1778L271.928 67.4444L271.034 55.1677L259.052 57.9849L270.451 53.3411L264.069 42.8156L272.008 52.2223L280.047 42.9Z" fill="white"/>
<path d="M275.234 40.6523L273.245 52.7999L285.555 52.8496L273.387 54.7119L277.143 66.434L271.612 55.4375L261.625 62.6323L270.374 53.9738L260.445 46.6984L271.383 52.3437L275.234 40.6523Z" fill="white"/>
<path d="M323.641 92.9942L318.686 100.975L327.348 104.611L318.226 102.364L317.445 111.725L316.763 102.356L307.618 104.506L316.318 100.962L311.448 92.9298L317.506 100.109L323.641 92.9942Z" fill="white"/>
<path d="M335.641 23.9942L330.686 31.9749L339.348 35.6105L330.226 33.3641L329.445 42.7255L328.763 33.3564L319.618 35.5064L328.318 31.9624L323.448 23.9298L329.506 31.1086L335.641 23.9942Z" fill="white"/>
<path d="M317.924 90.9897L318.272 100.377L327.488 98.554L318.667 101.786L323.249 109.987L317.449 102.597L311.066 109.488L316.302 101.689L307.775 97.7475L316.81 100.317L317.924 90.9897Z" fill="white"/>
<path d="M329.924 21.9897L330.272 31.3771L339.488 29.554L330.667 32.786L335.249 40.9869L329.449 33.597L323.066 40.4885L328.302 32.6893L319.775 28.7475L328.81 31.3173L329.924 21.9897Z" fill="white"/>
<defs>
<linearGradient id="paint0_linear" x1="298.661" y1="15.8873" x2="298.661" y2="218.247" gradientUnits="userSpaceOnUse">
<stop stop-color="white" stop-opacity="0"/>
<stop offset="0.4378" stop-color="#FFFF4A"/>
</linearGradient>
</defs>
</svg>
