<svg width="479" height="391" viewBox="0 0 479 391" fill="none" xmlns="http://www.w3.org/2000/svg">
<path opacity="0.96" d="M460.133 314.824C459.05 311.295 458.617 307.659 458.834 303.809C459.917 287.448 473.237 274.829 476.595 259.003C479.844 243.497 477.894 226.066 465.44 214.945C448.22 199.546 421.254 201.257 409.016 179.549C398.078 160.086 400.46 136.56 388.547 117.098C377.176 98.8117 359.198 86.3001 340.246 76.6758C312.846 62.6671 281.006 50.5833 249.708 51.011C214.294 51.5457 188.952 75.2856 165.235 98.3839C144.333 118.702 107.511 116.884 118.233 169.39C127.763 216.228 105.237 212.699 84.5517 230.023C63.9749 247.24 48.813 267.771 57.0437 291.191C66.0325 316.962 10.6917 331.72 0.836442 365.084C-5.87811 387.754 29.3191 389.572 53.2532 389.572C77.1874 389.572 281.981 387.647 368.512 390.321C392.338 391.069 415.297 391.818 439.015 388.931C449.087 387.754 459.375 385.081 467.281 378.879C492.406 359.202 466.306 335.997 460.133 314.824Z" fill="url(#paint0_linear)"/>
<path opacity="0.96" d="M417.972 139.21C417.972 139.21 416.972 176.91 448.672 180.41C454.872 181.01 466.172 180.71 465.372 171.71C464.972 167.01 461.072 161.51 456.572 159.81C452.672 158.41 448.572 157.41 444.772 155.81C442.872 155.01 440.972 153.81 439.872 152.01C437.872 148.61 438.772 144.01 437.372 140.31C435.972 136.61 433.372 133.41 430.172 131.11C425.572 127.81 419.672 127.81 418.372 134.31C417.872 136.01 417.972 137.61 417.972 139.21Z" fill="url(#paint1_linear)"/>
<path opacity="0.96" d="M134.043 97.8231C133.084 98.2806 132.055 98.6147 131.053 98.8526C120.149 102.54 109.167 110.568 105.467 121.889C100.777 136.36 82.8732 116.163 94.6166 96.9227C106.264 77.6552 124.748 82.8498 129.661 84.9576C132.537 86.1814 137.811 89.2217 138.046 92.8195C138.095 94.4951 137.057 95.9694 135.647 96.9233C135.099 97.3927 134.606 97.6696 134.043 97.8231Z" fill="url(#paint2_linear)"/>
<path d="M189 6H226V32.8V38.4L220.4 32.8H189V6Z" fill="#78C2FF"/>
<path d="M118.7 151.8H60.4L60.5 151.3C61.4 146.5 65.7 143 70.6 143C71.3 143 72 143.1 72.7 143.2C75.7 137.4 81.6 133.8 88.2 133.8C93.8 133.8 99 136.5 102.3 141C103.5 140.6 104.8 140.4 106 140.4C112.4 140.4 117.7 144.9 118.6 151.2L118.7 151.8ZM61.4 150.9H117.7C116.6 145.4 111.7 141.3 106 141.3C104.7 141.3 103.5 141.5 102.2 141.9L102 142L101.8 141.7C98.7 137.3 93.6 134.6 88.2 134.6C81.9 134.6 76.2 138.1 73.3 143.8L73.1 144.1L72.8 144C72.1 143.8 71.3 143.7 70.6 143.7C66.2 143.8 62.5 146.8 61.4 150.9Z" fill="white"/>
<path d="M347.4 339.5H256.8H166.2L153.3 387.9H256.8H360.3L347.4 339.5Z" fill="url(#paint3_linear)"/>
<path d="M167.6 352.3H179.5C180 352.3 180.4 352.7 180.3 353.1L179.2 358.3C179.1 358.6 178.8 358.8 178.4 358.8H166.3C165.8 358.8 165.4 358.4 165.5 358L166.9 352.8C166.9 352.5 167.3 352.3 167.6 352.3Z" fill="white"/>
<path d="M184.9 352.3H193.9L192.7 358.8H183.6L184.9 352.3Z" fill="white"/>
<path d="M198.4 352.3H207.3L206.4 358.8H197.3L198.4 352.3Z" fill="white"/>
<path d="M211.8 352.3H220.8L220.1 358.8H210.9L211.8 352.3Z" fill="white"/>
<path d="M225.2 352.3H234.2L233.8 358.8H224.6L225.2 352.3Z" fill="white"/>
<path d="M238.7 352.3H247.6L247.5 358.8H238.3L238.7 352.3Z" fill="white"/>
<path d="M346.2 352.3H332.8L334.2 358.8H347.9L346.2 352.3Z" fill="white"/>
<path d="M328.3 352.3H319.4L320.5 358.8H329.7L328.3 352.3Z" fill="white"/>
<path d="M314.9 352.3H305.9L306.9 358.8H316L314.9 352.3Z" fill="white"/>
<path d="M301.4 352.3H292.5L293.2 358.8H302.3L301.4 352.3Z" fill="white"/>
<path d="M288 352.3H279L279.5 358.8H288.6L288 352.3Z" fill="white"/>
<path d="M274.6 352.3H265.6L265.8 358.8H274.9L274.6 352.3Z" fill="white"/>
<path d="M252.1 352.3H261.1L261.2 358.8H252.1V352.3Z" fill="white"/>
<path d="M163.7 363.7H182.4L181.3 370.4H162.3L163.7 363.7Z" fill="white"/>
<path d="M349.2 363.7H326L327.3 370.4H350.9L349.2 363.7Z" fill="white"/>
<path d="M321.4 363.7H312.1L313.2 370.4H322.6L321.4 363.7Z" fill="white"/>
<path d="M307.5 363.7H298.2L299 370.4H308.5L307.5 363.7Z" fill="white"/>
<path d="M293.6 363.7H284.4L284.9 370.4H294.3L293.6 363.7Z" fill="white"/>
<path d="M279.7 363.7H270.5L270.7 370.4H280.2L279.7 363.7Z" fill="white"/>
<path d="M160.9 375.6H180L178.6 382.3H159.1L160.9 375.6Z" fill="white"/>
<path d="M184.8 375.6H194.4L193.3 382.3H183.5L184.8 375.6Z" fill="white"/>
<path d="M199.2 375.6H208.7H271L271.2 382.3H198.1L199.2 375.6Z" fill="white"/>
<path d="M275.7 375.6H285.3L285.8 382.3H276.1L275.7 375.6Z" fill="white"/>
<path d="M290.1 375.6H299.7L300.5 382.3H290.7L290.1 375.6Z" fill="white"/>
<path d="M304.5 375.6H314L315.1 382.3H305.3L304.5 375.6Z" fill="white"/>
<path d="M318.8 375.6H328.4L329.7 382.3H319.9L318.8 375.6Z" fill="white"/>
<path d="M333.2 375.6H352.3L354.1 382.3H334.6L333.2 375.6Z" fill="white"/>
<path d="M265.9 363.7H256.7V370.4H266L265.9 363.7Z" fill="white"/>
<path d="M252 363.7H242.7L242.5 370.4H251.9L252 363.7Z" fill="white"/>
<path d="M238.1 363.7H228.8L228.3 370.4H237.7L238.1 363.7Z" fill="white"/>
<path d="M224.2 363.7H214.9L214.2 370.4H223.6L224.2 363.7Z" fill="white"/>
<path d="M210.3 363.7H201.1L200 370.4H209.4L210.3 363.7Z" fill="white"/>
<path d="M196.4 363.7H187.2L185.9 370.4H195.3L196.4 363.7Z" fill="white"/>
<path d="M168.1 348.2L169.6 342.4H173.9L172.5 348.2H168.1Z" fill="white"/>
<path d="M178.3 342.4H187L185.8 348.2H176.9L178.3 342.4Z" fill="white"/>
<path d="M191.3 342.4H200L199.1 348.2H190.2L191.3 342.4Z" fill="white"/>
<path d="M204.4 342.4H213.1L212.3 348.2H203.5L204.4 342.4Z" fill="white"/>
<path d="M217.4 342.4H226.1L225.6 348.2H216.8L217.4 342.4Z" fill="white"/>
<path d="M230.5 342.4H239.2L238.9 348.2H230L230.5 342.4Z" fill="white"/>
<path d="M243.6 342.4H252.3L252.2 348.2H243.3L243.6 342.4Z" fill="white"/>
<path d="M256.6 342.4H265.3L265.5 348.2H256.6V342.4Z" fill="white"/>
<path d="M269.7 342.4H278.4L278.7 348.2H269.9L269.7 342.4Z" fill="white"/>
<path d="M282.7 342.4H291.4L292 348.2H283.2L282.7 342.4Z" fill="white"/>
<path d="M295.8 342.4H304.5L305.3 348.2H296.4L295.8 342.4Z" fill="white"/>
<path d="M308.8 342.4H317.5L318.6 348.2H309.7L308.8 342.4Z" fill="white"/>
<path d="M321.9 342.4H330.6L331.9 348.2H323L321.9 342.4Z" fill="white"/>
<path d="M334.9 342.4H343.6L345.1 348.2H336.3L334.9 342.4Z" fill="white"/>
<path d="M360.4 387.9H153.3V390.8H360.4V387.9Z" fill="url(#paint4_linear)"/>
<path d="M243.196 323.454H271.696V236.854H243.196V323.454Z" fill="#518AFA"/>
<path d="M143 278.6H371.7C376.5 278.6 380.4 274.7 380.4 269.9V113.7C380.4 108.9 376.5 105 371.7 105H143C138.2 105 134.3 108.9 134.3 113.7V270C134.4 274.7 138.2 278.6 143 278.6Z" fill="url(#paint5_linear)"/>
<path d="M143.1 247H371.3V113.5H143.1V247Z" fill="url(#paint6_linear)"/>
<path d="M249.5 263.8C249.5 268.2 253.1 271.7 257.4 271.7C261.7 271.7 265.3 268.1 265.3 263.8C265.3 259.4 261.7 255.9 257.4 255.9C253.1 255.9 249.5 259.5 249.5 263.8Z" fill="#696969"/>
<path d="M321.5 320.2H193.3V326.7H321.5V320.2Z" fill="url(#paint7_linear)"/>
<path d="M332.8 47.0001L332.6 46.9001C311.9 36.3001 314.7 15.8001 314.7 15.6001L314.8 15.2001H315.2C328.4 15.2001 332.5 11.0001 332.5 10.9001L332.8 10.6001L333.1 10.9001C333.1 10.9001 337.3 15.2001 350.4 15.2001H350.8L350.9 15.6001C350.9 15.8001 353.7 36.3001 333 46.9001L332.8 47.0001ZM315.5 16.2001C315.2 19.0001 314.4 36.6001 332.8 46.1001C351.2 36.6001 350.3 19.0001 350.1 16.2001C338.7 16.1001 334 12.9001 332.8 11.9001C331.6 12.9001 327 16.1001 315.5 16.2001Z" fill="white"/>
<path d="M181.8 123.7H156.2V126.3H181.8V123.7Z" fill="#E0E0E0"/>
<path d="M207.4 143.4H188.9V146H207.4V143.4Z" fill="#E0E0E0"/>
<path d="M222.4 143.4H210.2V146H222.4V143.4Z" fill="#1487E3"/>
<path d="M247.4 222.6H235.2V225.2H247.4V222.6Z" fill="#1487E3"/>
<path d="M168.7 193H156.5V195.6H168.7V193Z" fill="#1487E3"/>
<path d="M254.5 143.4H224.9V146H254.5V143.4Z" fill="#E0E0E0"/>
<path d="M175.5 183.1H156.5V185.7H175.5V183.1Z" fill="#E0E0E0"/>
<path d="M226.5 202.9H207.5V205.5H226.5V202.9Z" fill="#E0E0E0"/>
<path d="M297.5 222.6H278.5V225.2H297.5V222.6Z" fill="#E0E0E0"/>
<path d="M194.6 202.9H183V205.5H194.6V202.9Z" fill="#E0E0E0"/>
<path d="M179.5 202.9H156.5V205.5H179.5V202.9Z" fill="#1487E3"/>
<path d="M169.2 212.7H156.5V215.3H169.2V212.7Z" fill="#E0E0E0"/>
<path d="M204.8 123.7H186.7V126.3H204.8V123.7Z" fill="#78C2FF"/>
<path d="M204.8 153.3H186.7V155.9H204.8V153.3Z" fill="#1487E3"/>
<path d="M185.4 163.2H177.6V165.8H185.4V163.2Z" fill="#E0E0E0"/>
<path d="M187.3 173.2H169.9V175.8H187.3V173.2Z" fill="#78C2FF"/>
<path d="M213.9 173.2H189.9V175.8H213.9V173.2Z" fill="#1487E3"/>
<path d="M290.1 212.7H266.1V215.3H290.1V212.7Z" fill="#1487E3"/>
<path d="M174.6 163.2H156.5V165.8H174.6V163.2Z" fill="#1487E3"/>
<path d="M167.3 173.2H156.5V175.8H167.3V173.2Z" fill="#1487E3"/>
<path d="M199.3 163.2H189.1V165.8H199.3V163.2Z" fill="#FF8761"/>
<path d="M167 222.6H156.8V225.2H167V222.6Z" fill="#FF8761"/>
<path d="M174.5 143.4H156.4V146H174.5V143.4Z" fill="#78C2FF"/>
<path d="M190.5 193H172.4V195.6H190.5V193Z" fill="#78C2FF"/>
<path d="M190.8 212.7H172.7V215.3H190.8V212.7Z" fill="#78C2FF"/>
<path d="M223 212.7H204.9V215.3H223V212.7Z" fill="#78C2FF"/>
<path d="M182.3 153.3H156.4V155.9H182.3V153.3Z" fill="#78C2FF"/>
<path d="M295.7 123.7H277.6V126.3H295.7V123.7Z" fill="#78C2FF"/>
<path d="M231.1 222.6H213V225.2H231.1V222.6Z" fill="#78C2FF"/>
<path d="M313.5 123.7H301.4V126.3H313.5V123.7Z" fill="#78C2FF"/>
<path d="M354.6 133.6H342.5V136.2H354.6V133.6Z" fill="#78C2FF"/>
<path d="M232.8 123.7H209.7V126.3H232.8V123.7Z" fill="#1487E3"/>
<path d="M324.5 222.6H301.4V225.2H324.5V222.6Z" fill="#1487E3"/>
<path d="M193.9 222.6H170.8V225.2H193.9V222.6Z" fill="#1487E3"/>
<path d="M322.9 133.6H299.8V136.2H322.9V133.6Z" fill="#1487E3"/>
<path d="M294.6 143.4H271.5V146H294.6V143.4Z" fill="#1487E3"/>
<path d="M274.5 222.6H251.4V225.2H274.5V222.6Z" fill="#1487E3"/>
<path d="M270.9 202.9H247.8V205.5H270.9V202.9Z" fill="#1487E3"/>
<path d="M264.5 153.3H241.4V155.9H264.5V153.3Z" fill="#1487E3"/>
<path d="M203.2 202.9H198.2V205.5H203.2V202.9Z" fill="#FF8761"/>
<path d="M313.9 143.4H297.5V146H313.9V143.4Z" fill="#78C2FF"/>
<path d="M273.1 123.7H250V126.3H273.1V123.7Z" fill="#FF8761"/>
<path d="M237.2 153.3H223.6V155.9H237.2V153.3Z" fill="#FF8761"/>
<path d="M226.6 193.1H213V195.7H226.6V193.1Z" fill="#FF8761"/>
<path d="M245.6 123.7H237.1V126.3H245.6V123.7Z" fill="#E0E0E0"/>
<path d="M218.2 153.3H209.7V155.9H218.2V153.3Z" fill="#E0E0E0"/>
<path d="M337 133.6H328.5V136.2H337V133.6Z" fill="#E0E0E0"/>
<path d="M169.4 133.6H156.2V136.2H169.4V133.6Z" fill="#1487E3"/>
<path d="M202 183.1H191.5V185.7H202V183.1Z" fill="#1487E3"/>
<path d="M177 133.6H172.7V136.2H177V133.6Z" fill="#1487E3"/>
<path d="M295.7 133.6H260.4V136.2H295.7V133.6Z" fill="#E0E0E0"/>
<path d="M261.8 212.7H226.5V215.3H261.8V212.7Z" fill="#E0E0E0"/>
<path d="M184.5 133.6H180.1V136.2H184.5V133.6Z" fill="#FF8761"/>
<path d="M257.2 133.6H245.6V136.2H257.2V133.6Z" fill="#1487E3"/>
<path d="M268.8 143.4H257.2V146H268.8V143.4Z" fill="#FF8761"/>
<path d="M243 202.9H231.4V205.5H243V202.9Z" fill="#FF8761"/>
<path d="M209.3 222.6H197.7V225.2H209.3V222.6Z" fill="#FF8761"/>
<path d="M242.5 133.6H217.9V136.2H242.5V133.6Z" fill="#1487E3"/>
<path d="M299.8 202.9H275.2V205.5H299.8V202.9Z" fill="#1487E3"/>
<path d="M209.5 193.1H195.1V195.7H209.5V193.1Z" fill="#1487E3"/>
<path d="M201.3 212.7H194.1V215.3H201.3V212.7Z" fill="#1487E3"/>
<path d="M214.5 133.6H206V136.2H214.5V133.6Z" fill="#78C2FF"/>
<path d="M301.8 212.7H293.3V215.3H301.8V212.7Z" fill="#FF8761"/>
<path d="M186 143.4H177.5V146H186V143.4Z" fill="#FF8761"/>
<path d="M187.7 183.1H179.2V185.7H187.7V183.1Z" fill="#FF8761"/>
<path d="M202.7 133.6H188V136.2H202.7V133.6Z" fill="#1487E3"/>
<path d="M157.7 195H93.5V147.8H94.4V194.1H157.7V195Z" fill="white"/>
<path d="M286.3 144.8H285.4V82.2999H332.4V41.3999H333.2V83.1999H286.3V144.8Z" fill="white"/>
<path d="M361.7 57.8H354.2V57H360.8V50.3H361.7V57.8Z" fill="white"/>
<path d="M311.3 57.8H303.8V50.3H304.7V57H311.3V57.8Z" fill="white"/>
<path d="M304.7 7.5H303.8V0H311.3V0.9H304.7V7.5Z" fill="white"/>
<path d="M361.7 7.5H360.8V0.9H354.2V0H361.7V7.5Z" fill="white"/>
<path d="M361.7 18.7H360.8V39.2H361.7V18.7Z" fill="white"/>
<path d="M304.7 18.7H303.8V39.2H304.7V18.7Z" fill="white"/>
<path d="M93.9 148.2C92.1 148.2 90.7 146.8 90.7 145C90.7 143.2 92.1 141.8 93.9 141.8C95.7 141.8 97.1 143.2 97.1 145C97.1 146.8 95.7 148.2 93.9 148.2ZM93.9 142.7C92.6 142.7 91.6 143.7 91.6 145C91.6 146.3 92.6 147.3 93.9 147.3C95.2 147.3 96.2 146.3 96.2 145C96.3 143.7 95.2 142.7 93.9 142.7Z" fill="white"/>
<path d="M80 281.4C78.2 281.4 76.8 280 76.8 278.2C76.8 276.4 78.2 275 80 275C81.8 275 83.2 276.4 83.2 278.2C83.2 280 81.8 281.4 80 281.4ZM80 275.9C78.7 275.9 77.7 276.9 77.7 278.2C77.7 279.5 78.7 280.5 80 280.5C81.3 280.5 82.3 279.5 82.3 278.2C82.4 276.9 81.3 275.9 80 275.9Z" fill="white"/>
<path d="M332.8 41.7999C331 41.7999 329.6 40.3999 329.6 38.5999C329.6 36.7999 331 35.3999 332.8 35.3999C334.6 35.3999 336 36.7999 336 38.5999C336 40.3999 334.6 41.7999 332.8 41.7999ZM332.8 36.2999C331.5 36.2999 330.5 37.2999 330.5 38.5999C330.5 39.8999 331.5 40.8999 332.8 40.8999C334.1 40.8999 335.1 39.8999 335.1 38.5999C335.1 37.2999 334.1 36.2999 332.8 36.2999Z" fill="white"/>
<path d="M114.9 26.3H92.9V4.30005H114.9V26.3ZM93.8 25.5H114V5.20005H93.8V25.5Z" fill="white"/>
<path d="M104.4 10.3H103.5V20.6H104.4V10.3Z" fill="white"/>
<path d="M109.1 15H98.8V15.9H109.1V15Z" fill="white"/>
<path d="M450 52.8999H418.6V30.3999H450V52.8999ZM419.5 51.9999H449.2V31.2999H419.5V51.9999Z" fill="white"/>
<path d="M434.3 44L418.8 31.2L419.3 30.5L434.3 42.9L449.3 30.5L449.9 31.2L434.3 44Z" fill="white"/>
<path d="M438.662 40.2572L438.009 40.8765L449.294 52.7763L449.947 52.157L438.662 40.2572Z" fill="white"/>
<path d="M429.99 40.1804L418.71 52.0852L419.363 52.7042L430.643 40.7995L429.99 40.1804Z" fill="white"/>
<path d="M169.8 75.4L169.5 74.5C169.2 74.5 168.9 74.4 168.6 74.3L167.9 74.9L166 73.5L166.4 72.7C166.2 72.5 166.1 72.2 165.9 72H165L164.6 69.7L165.5 69.4C165.5 69.1 165.6 68.8 165.7 68.5L165.1 67.8L166.5 65.9L167.3 66.3C167.5 66.1 167.8 66 168 65.8V64.9L170.3 64.5L170.6 65.4C170.9 65.4 171.2 65.5 171.5 65.6L172.2 65L174.1 66.4L173.7 67.2C173.9 67.4 174 67.7 174.2 67.9H175.1L175.5 70.2L174.6 70.5C174.6 70.8 174.5 71.1 174.4 71.4L175 72.1L173.6 74L172.8 73.6C172.6 73.8 172.3 73.9 172.1 74.1V75L169.8 75.4ZM168.4 73.6L168.6 73.7C168.9 73.8 169.3 73.9 169.7 73.9H169.9L170.2 74.6L171.5 74.4V73.6L171.7 73.5C172 73.3 172.4 73.1 172.6 72.9L172.8 72.8L173.5 73.1L174.3 72L173.8 71.4L173.9 71.2C174 70.9 174.1 70.5 174.1 70.1V69.9L174.8 69.6L174.6 68.3H173.8L173.7 68.1C173.5 67.8 173.3 67.4 173.1 67.2L173 67L173.3 66.3L172.2 65.5L171.6 66L171.4 65.9C171.1 65.8 170.7 65.7 170.3 65.7H170.1L169.8 65L168.5 65.2V66L168.3 66.1C168 66.3 167.6 66.5 167.4 66.7L167.2 66.8L166.5 66.5L165.7 67.6L166.2 68.2L166.1 68.4C166 68.7 165.9 69.1 165.9 69.5V69.7L165.2 70L165.4 71.3H166.2L166.3 71.5C166.5 71.8 166.7 72.2 166.9 72.4L167 72.6L166.7 73.3L167.8 74.1L168.4 73.6ZM170 72.5C169.5 72.5 169 72.3 168.5 72C167.9 71.6 167.6 71 167.5 70.3C167.4 69.6 167.5 68.9 167.9 68.4C168.7 67.2 170.3 67 171.5 67.8C172.7 68.6 172.9 70.2 172.1 71.4C171.7 72.1 170.9 72.5 170 72.5ZM170.1 68C169.5 68 168.9 68.3 168.5 68.8C168.2 69.2 168.1 69.7 168.2 70.2C168.3 70.7 168.6 71.2 169 71.5C169.9 72.1 171.1 71.9 171.7 71C172.3 70.1 172.1 68.9 171.2 68.3C170.8 68.1 170.4 68 170.1 68Z" fill="white"/>
<path d="M151.6 78.1001L150.9 76.2001C150.1 76.1001 149.3 75.9001 148.6 75.7001L147.1 77.1001L143.1 74.2001L143.9 72.3001C143.4 71.7001 143 71.0001 142.7 70.3001L140.7 70.2001L139.9 65.3001L141.8 64.6001C141.9 63.8001 142.1 63.0001 142.3 62.3001L140.9 60.8001L143.8 56.8001L145.7 57.6001C146.3 57.1001 147 56.7001 147.7 56.4001L147.8 54.4001L152.7 53.6001L153.4 55.5001C154.2 55.6001 155 55.8001 155.7 56.0001L157.2 54.6001L161.2 57.5001L160.4 59.4001C160.9 60.0001 161.3 60.7001 161.6 61.4001L163.6 61.5001L164.4 66.4001L162.5 67.1001C162.4 67.9001 162.2 68.7001 162 69.4001L163.4 70.9001L160.5 74.9001L158.6 74.1001C158 74.6001 157.3 75.0001 156.6 75.3001L156.5 77.3001L151.6 78.1001ZM148.4 74.7001L148.7 74.8001C149.5 75.1001 150.4 75.3001 151.3 75.4001H151.6L152.3 77.1001L155.8 76.5001L155.9 74.6001L156.2 74.5001C157 74.1001 157.8 73.7001 158.5 73.1001L158.7 72.9001L160.4 73.7001L162.4 70.8001L161.1 69.4001L161.2 69.1001C161.5 68.3001 161.7 67.4001 161.8 66.5001V66.2001L163.5 65.5001L162.9 62.0001L161 61.9001L160.9 61.6001C160.5 60.8001 160.1 60.0001 159.5 59.4001L159.3 59.2001L160.1 57.5001L157.2 55.5001L155.8 56.8001L155.5 56.7001C154.7 56.4001 153.8 56.2001 152.9 56.1001H152.6L151.9 54.4001L148.4 55.0001L148.3 56.9001L148 57.0001C147.2 57.4001 146.4 57.8001 145.8 58.4001L145.6 58.6001L143.9 57.8001L141.9 60.7001L143.2 62.1001L143.1 62.4001C142.8 63.2001 142.6 64.1001 142.5 65.0001V65.3001L140.8 66.0001L141.4 69.5001L143.3 69.6001L143.4 69.9001C143.8 70.7001 144.2 71.5001 144.8 72.2001L145 72.4001L144.2 74.1001L147.1 76.1001L148.4 74.7001ZM152 71.5001C150.9 71.5001 149.7 71.2001 148.7 70.5001C146.2 68.7001 145.6 65.2001 147.4 62.6001C148.3 61.4001 149.6 60.6001 151.1 60.3001C152.6 60.0001 154.1 60.4001 155.3 61.3001C157.8 63.1001 158.4 66.6001 156.6 69.2001C155.6 70.7001 153.8 71.5001 152 71.5001ZM152.1 61.1001C151.8 61.1001 151.6 61.1001 151.3 61.2001C150 61.4001 148.9 62.1001 148.2 63.1001C146.7 65.2001 147.2 68.2001 149.3 69.8001C151.4 71.3001 154.4 70.8001 156 68.7001C156.7 67.7001 157 66.4001 156.8 65.1001C156.6 63.8001 155.9 62.7001 154.9 62.0001C154 61.4001 153 61.1001 152.1 61.1001Z" fill="white"/>
<path d="M19.3 186.7C10.3 186.7 3 179.4 3 170.4H3.9C3.9 178.9 10.8 185.8 19.3 185.8C27.8 185.8 34.7 178.9 34.7 170.4C34.7 161.9 27.8 155 19.3 155V154.1C28.3 154.1 35.6 161.4 35.6 170.4C35.6 179.4 28.3 186.7 19.3 186.7ZM19.3 184.5C11.6 184.5 5.3 178.2 5.3 170.5C5.3 162.8 11.6 156.5 19.3 156.5C27 156.5 33.3 162.8 33.3 170.5H32.4C32.4 163.3 26.5 157.4 19.3 157.4C12.1 157.4 6.2 163.3 6.2 170.5C6.2 177.7 12.1 183.6 19.3 183.6V184.5V184.5Z" fill="white"/>
<path d="M17.3 175.8L11.4 170L12 169.4L17.3 174.6L26.5 165.4L27.1 166L17.3 175.8Z" fill="white"/>
<path d="M52.8 334.6C50.8 334.6 49.1 332.9 49.1 330.9V330.3C46.9 329.6 45.4 327.5 45.4 325.2L45.3 314H47.5C46.6 300.1 36.2 280.7 36.1 280.5C32.9 275.7 31.2 270 31.2 264.2C31.2 247.8 44.5 234.5 60.9 234.5C77.3 234.5 90.6 247.8 90.6 264.2C90.6 270 88.9 275.7 85.7 280.5C85.3 281.3 75.2 300.1 74.3 313.9H76.5L76.6 325.1C76.6 327.4 75.1 329.5 72.9 330.2V330.8C72.9 332.9 71.2 334.5 69.2 334.5L52.8 334.6ZM46.1 315L46.2 325.3C46.2 327.3 47.6 329.1 49.6 329.6L49.9 329.7V330.9C49.9 332.5 51.2 333.7 52.8 333.7L69.2 333.6C70.8 333.6 72 332.3 72 330.7V329.5L72.3 329.4C74.3 328.9 75.7 327.1 75.6 325L75.5 314.7H73.3V314.2C74 300.2 84.4 280.8 84.8 280C87.9 275.3 89.6 269.8 89.6 264.1C89.6 248.2 76.7 235.3 60.8 235.3C44.9 235.3 32 248.2 32 264.1C32 269.8 33.6 275.2 36.8 280C36.9 280.1 47.7 300.3 48.3 314.4V314.9L46.1 315ZM61.2 294C61 294 60.9 294 60.9 294C60.8 294 59.9 294 58.3 293.9L58.4 293C60.2 293.2 61.6 293.2 63.4 293L63.5 293.9C62.4 293.9 61.6 294 61.2 294Z" fill="white"/>
<path d="M69 314.1H52.6V315H69V314.1Z" fill="white"/>
<path d="M61.6 210.4H59.9V225.3H61.6V210.4Z" fill="white"/>
<path d="M89.4065 217.226L78.8707 227.762L80.0727 228.964L90.6085 218.428L89.4065 217.226Z" fill="white"/>
<path d="M32.1526 217.176L30.9506 218.378L41.4863 228.914L42.6884 227.712L32.1526 217.176Z" fill="white"/>
<path d="M49.0693 282.029L48.1931 282.234L52.2129 299.369L53.0892 299.164L49.0693 282.029Z" fill="white"/>
<path d="M72.6914 281.991L68.6522 299.121L69.5282 299.328L73.5674 282.198L72.6914 281.991Z" fill="white"/>
<path d="M94.1 264.4H93.2C93.2 246.5 78.6 231.9 60.7 231.9V231C79.2 231.1 94.1 246.1 94.1 264.4Z" fill="white"/>
<path d="M86.7 264.4H85.8C85.8 250.6 74.6 239.4 60.8 239.4C47 239.4 35.8 250.6 35.8 264.4H34.9C34.9 250.1 46.5 238.5 60.8 238.5C75.1 238.6 86.7 250.2 86.7 264.4Z" fill="white"/>
<path d="M116.9 278.7H82.8V277.8H116V240.7H128.3V241.6H116.9V278.7Z" fill="white"/>
<path d="M393.2 236.6C393.2 236.6 392.6 234.5 393.2 233.5C393.8 232.6 394.2 231.1 394.2 230.6C394.3 230 395.4 228 394.6 228C393.8 228 392.7 231.1 392.3 231.7C391.9 232.3 390.9 229.6 390.3 229.3C389.7 229 384.8 231.5 385.8 233.3C386.7 235.1 389 236.2 389.1 236.6C389.2 237 389.7 237.9 389.7 237.9L393.2 236.6Z" fill="#EEA886"/>
<path d="M390.8 229.7C390.8 229.7 387.6 224.5 387 224.3C386.5 224.2 386.2 224.4 386.4 224.9C386.7 225.4 389.4 230.1 389.4 230.1C389.4 230.1 384.4 224.7 384 224.5C383.8 224.4 383.1 224.8 383.3 225.1C383.4 225.4 388 231.1 388 231.1C388 231.1 383.3 226.1 382.9 226C382.5 225.9 382.1 226.4 382.4 226.8C382.7 227.2 386.7 232.2 386.7 232.2C386.7 232.2 383 228.8 382.6 228.9C382.4 229 381.8 229.3 382.8 230.2C383.8 231.1 385.8 233.3 385.8 233.3L390.8 229.7Z" fill="#EEA886"/>
<path opacity="0.68" d="M473.2 234.1H336.6C333.7 234.1 331.4 231.8 331.4 228.9V207.4C331.4 204.5 333.7 202.2 336.6 202.2H473.2C476.1 202.2 478.4 204.5 478.4 207.4V228.9C478.3 231.8 476 234.1 473.2 234.1Z" fill="url(#paint8_linear)"/>
<path d="M363.1 212H339.3V214.4H363.1V212Z" fill="#E0E0E0"/>
<path d="M384.6 212H367.7V214.4H384.6V212Z" fill="#E0E0E0"/>
<path d="M383.5 221.2H367.7V223.6H383.5V221.2Z" fill="#E0E0E0"/>
<path d="M469.2 212H452.3V214.4H469.2V212Z" fill="#78C2FF"/>
<path d="M410.6 212H389.1V214.4H410.6V212Z" fill="#1487E3"/>
<path d="M448.1 212H426.6V214.4H448.1V212Z" fill="#FFC055"/>
<path d="M422.5 212H414.6V214.4H422.5V212Z" fill="#E0E0E0"/>
<path d="M351.6 221.2H339.3V223.6H351.6V221.2Z" fill="#78C2FF"/>
<path d="M358.6 221.2H354.6V223.6H358.6V221.2Z" fill="#1487E3"/>
<path d="M469.2 221.2H436.3V223.6H469.2V221.2Z" fill="#E0E0E0"/>
<path d="M365.6 221.2H361.5V223.6H365.6V221.2Z" fill="#FFC455"/>
<path d="M433.3 221.2H422.5V223.6H433.3V221.2Z" fill="#1487E3"/>
<path d="M419.7 221.2H396.8V223.6H419.7V221.2Z" fill="#78C2FF"/>
<path d="M393.5 221.2H385.6V223.6H393.5V221.2Z" fill="#E0E0E0"/>
<path d="M389.4 344.8C389.4 344.8 386.3 347.9 383.6 348.3C380.9 348.6 377.8 349.6 377.5 351.7C377.1 353.7 385.4 355.9 388.7 354.3C393.6 352 395 352.9 395.7 351.4C396.4 350 396.3 345 396.4 344.5C396.6 343.8 389.4 344.8 389.4 344.8Z" fill="#202338"/>
<path d="M444.3 335.9C444.3 335.9 443.4 340.2 441.4 341.8C439.4 343.4 437.4 345.9 438.2 347.8C438.9 349.7 446 349.5 448.5 344.4C450.1 341.2 451.9 340.6 451.8 339C451.7 337.4 449.2 333.9 449 333.4C448.9 332.9 444.3 335.9 444.3 335.9Z" fill="#202338"/>
<path d="M410.4 274.8C410.4 274.8 399.7 297 397.3 302.6C395.1 307.8 392.8 317.2 392.4 320.8C392 325.4 387.6 344.1 387.3 345.5C387 346.8 396.6 346 396.6 346C396.6 346 405 314.1 407.2 309.6C408.7 306.6 419.8 286.5 420.8 287.7C421.8 288.9 427.8 304 428.5 307.6C429.2 311.2 442.9 338 442.9 338C442.9 338 449.3 337.5 450.5 335.1C450.5 335.1 440.3 308 439.2 303C438.6 300.5 436.5 284.7 433.8 272.5C432.5 266.3 410.4 274.8 410.4 274.8Z" fill="#1C4054"/>
<path d="M437.5 241.1C437.5 241.1 433.8 252.2 433.9 254.8C434 257.4 431.9 241.9 437.5 241.1Z" fill="#518AFA"/>
<path d="M411.4 245.2C411.4 245.2 410.9 246.7 410.1 248.6C409.8 249.3 409.4 250 409 250.7C408.9 250.8 408.9 250.9 408.8 251.1C408.5 251.6 408.2 252 407.8 252.4C406.7 253.7 405.4 254.7 403.8 254.9C400.7 255.1 389.4 237.9 389.4 237.9L394.8 235.4C394.8 235.4 402 245.7 403.1 245.2C404.2 244.6 405.4 240.4 405.4 240.4C406.7 239.7 408.7 241.7 410.1 243.3C410.2 243.4 410.3 243.5 410.4 243.6C410.9 244.5 411.4 245.2 411.4 245.2Z" fill="#518AFA"/>
<path d="M434.6 274.3C428.5 279.8 408.9 278 408.9 278C409.2 277.3 411.2 257 410.5 252.3C409.8 247.7 410.2 243.8 409.6 243.6C409 243.4 404.8 242 404.8 242C404.8 242 407 234.9 408 233.4C408.9 231.9 415.6 229.6 415.6 229.6C415.6 229.6 420.8 227.7 426.3 228.4C435.5 229.5 436.6 232.2 436.6 232.2L434.5 245.9V246C434.5 246.3 434.5 247.1 434.4 248.1C434.2 252.5 433.9 261.9 433.9 264.2C433.8 267.8 434.6 274.3 434.6 274.3Z" fill="#518AFA"/>
<path d="M427.8 228.6C427.4 229.3 427 229.9 426.6 230.4C423.7 234.1 420.4 234 420.4 234C418.4 233.8 417.3 232.5 416.7 231.3C416.2 230.3 416.1 229.3 416.1 229.3L417.3 228.9C417.4 228.6 417.5 228.2 417.5 227.7C417.5 227.4 417.5 227.2 417.5 226.9C417.5 226.7 417.5 226.4 417.5 226.2C417.5 226.1 417.5 226 417.5 225.9C417.5 224.9 417.4 224 417.4 224C417.4 224 426.1 219.3 425.4 222.6C425.1 224.1 425.1 225.3 425.3 226.2C425.6 227.2 426.1 227.9 426.4 228C427.3 228.4 427.8 228.6 427.8 228.6Z" fill="#EEA987"/>
<path d="M402.7 235.3C402.7 235.3 402.2 234.9 402.2 234.4C402.1 233.5 403 232.4 402 231.6C401 230.8 397.3 233.3 396.9 234C396.5 234.8 397.5 236.3 399.9 237.7C402.2 239.1 402.7 235.3 402.7 235.3Z" fill="#EEA886"/>
<path d="M402.3 231.9C402.3 231.9 401.4 230.2 400.3 228.4C399.3 226.8 397.8 225.2 397.4 225.5C396.8 225.9 398.1 227.1 399.1 228.7C400 230.2 399.5 230 399.5 230C399.5 230 399.6 230 398.4 228.6C397 227 395.4 225.4 395 225.7C394.8 225.9 394.7 225.9 395.1 226.6C394.8 226.3 394.6 226.3 394.5 226.4C393.7 227 395.3 229.6 396 230.6C395.5 229.8 395 229.3 394.8 230C394.5 230.8 397 234.3 397.7 235.7C398.3 237.2 402.3 231.9 402.3 231.9Z" fill="#EEA886"/>
<path d="M437.3 242.7C441.3 237.9 436.4 231.9 436.4 231.9C433.5 229.4 427.2 239.8 426.4 240.8C425.6 241.8 419.5 247.2 417.9 249C417 249.9 413.4 246 411.8 244.4C410.8 243.4 403 234.3 403 234.3C403 234.3 397.6 238.2 398.1 237.8C398.6 237.5 414 257.7 416.8 257.8C416.7 257.9 427.8 254.3 437.3 242.7Z" fill="#518AFA"/>
<path d="M409 250.6C408.9 250.7 408.9 250.8 408.8 251C408.5 251.5 408.2 251.9 407.8 252.3C407.1 251.4 404.2 245.1 404.2 245L409 250.6Z" fill="#3D66BA"/>
<path d="M433 247.4C433 247.4 428 251.8 425.4 253.5C422.7 255.1 418.2 257.4 417.7 257.6C417.7 257.5 429.6 255.2 433 247.4Z" fill="#3D66BA"/>
<path d="M412.8 211.8C412.8 211.8 410.9 215.3 411.8 215.9C412.6 216.4 410.9 219.8 410.7 220.4C410.5 221 412.1 221.4 412.5 221.7C412.8 222.1 413.9 226.5 415.2 226.7C416.5 226.8 422.6 224.7 424.2 223C425.8 221.3 427.2 213.6 426.1 210.3C424.9 207 416.1 205.7 412.8 211.8Z" fill="#EEA886"/>
<path d="M412.4 212.6C412.4 212.6 410.5 208.8 414 206C417.5 203.2 424 208.1 424.7 208.3C425.4 208.5 429.6 208.8 427.5 216C425.7 222.2 425.5 222.5 425.5 222.5C425.5 222.5 424.2 218.9 423.4 218.3C422.2 217.4 419.6 217.6 419.6 217.6C419.6 217.6 420.8 214.3 418.9 213.8C416.9 213.5 414.3 211.8 412.4 212.6Z" fill="#252E3B"/>
<path d="M421.6 215.8C421.8 215.3 422.3 213.4 424 214.5C425.7 215.6 423 219.3 422.7 219.3C422.4 219.5 420.1 219.6 421.6 215.8Z" fill="#EEA886"/>
<path d="M424 223.1C424 223.1 422.6 225.9 417.5 227.7C417.5 227.4 417.5 227.2 417.5 226.9C417.5 226.7 417.5 226.4 417.5 226.2C417.5 226.2 421.4 225.1 424 223.1Z" fill="#A77860"/>
<path d="M239.2 155C239.2 155 239.6 158.1 240.1 159.5C240.6 160.9 243.4 164.1 242.2 167.2C240.9 170.5 235.4 167.3 233.1 166.3C230.8 165.3 231.4 163.4 231.1 161.2C230.9 158.9 229.8 158.9 230.2 157.3C230.6 155.7 233.1 152.7 233.1 152.7L239.2 155Z" fill="#999999"/>
<path d="M234.1 151L232.7 153C232.7 153.1 238.8 156.7 239.2 155.5C239.5 154.6 239.7 153.2 239.7 153.2L234.1 151Z" fill="#EEA886"/>
<path d="M213.7 157.2C213.7 157.2 211.9 158.8 210.2 161.3C208.5 163.8 204.1 163.9 204 167.3C203.8 170.7 210 170.8 213.2 169.7C216.4 168.6 216.9 165.3 218.9 164.5C220.9 163.7 221.9 163 221.7 161.4C221.5 159.8 220.5 157.2 220.5 157.2C220.5 157.2 219.3 157.6 218.6 157.7C217.8 157.7 215.4 157.7 213.7 157.2Z" fill="#999999"/>
<path d="M235.8 65.3999C235.8 65.3999 234.6 72.7999 233.6 77.5999C233.2 79.5999 232.8 81.0999 232.6 81.5999C232.3 82.1999 230 84.6999 227.1 87.6999C222.1 92.7999 215.5 99.2999 215.5 99.2999L212.9 94.3999C212.9 94.3999 218.8 87.4999 222.7 82.8999C224.5 80.7999 226 79.0999 226.2 78.8999C227 78.1999 228 70.7999 229.4 64.7999C230.8 58.7999 233.5 55.3999 233.5 55.3999L235.8 65.3999Z" fill="#1487E3"/>
<path d="M227.1 87.6999C222.1 92.7999 215.5 99.2999 215.5 99.2999L212.9 94.3999C212.9 94.3999 218.8 87.4999 222.7 82.8999C224 83.5999 226.3 84.9999 227.1 87.6999Z" fill="#EEA886"/>
<path d="M213.9 155L213.6 157.3C213.6 157.3 216.8 158.4 220.3 157.2L220.4 155.2L213.9 155Z" fill="#EEA886"/>
<path d="M259.5 98.3C259.7 99 225.5 98.3 225.5 98.3C225.5 98.3 235 91.3999 235.6 89.5999C236.2 87.7999 233.2 76.6999 232.8 73.0999C232.5 70.1999 231.7 57.4 233.6 55.4C235.6 53.3 242.7 51.2 242.7 51.2L253.1 51.5999C253.1 51.5999 254.8 52 256 52.5C257.2 53.1 264.2 55.5999 265.4 59.0999C266.5 62.5999 258.4 73.9 258.4 73.9C258.4 73.9 258.4 74.3999 258.4 75.1999C258.4 76.2999 258.3 78 258.3 79.8C258.2 82.2 258.2 84.7999 258.2 86.6999C258.1 91.1999 259.3 97.7 259.5 98.3Z" fill="#1487E3"/>
<path d="M259.5 98.2999C259.5 98.2999 264.1 105.1 264.2 109.8C264.3 114.5 256 130.1 254.7 132.3C250.9 139 240.5 153.5 240.5 153.5C240.5 153.5 238.7 153.5 233.1 151.3C233.1 151.3 240 132.2 240.9 130.2C244.6 121.8 246.7 115.8 245.4 114.4C244.2 113 240.8 111.5 239.8 110.7C238.8 109.8 221.7 113.9 219.9 114.4C215.2 115.6 217.4 123.7 218.4 127.3C220.1 133.4 221.6 155.3 221.6 155.3C221.6 155.3 218.3 156.7 212.7 155.5C212.7 155.5 201.8 115.9 201.4 112C201.1 108.1 200.9 101.6 227.8 96.5999L259.5 98.2999Z" fill="#E8E8E8"/>
<path d="M245.5 28.6999C245.5 28.6999 236.5 26.6999 238.5 37.9999C240.6 49.2999 242.7 50.1999 248.2 47.8999C253.6 45.5999 253.2 38.2999 253.4 34.6999C253.7 31.1999 248.4 28.7999 245.5 28.6999Z" fill="#EEA886"/>
<path d="M243.1 54.2C243.1 54.2 247.1 58.4 253.4 54.6C253.4 54.6 252 45.4 252.7 41C253.4 36.5 244.5 47.9 244.5 47.9C244.6 48 244.7 48.4 244.7 49C244.7 49.5 244.7 50.2 244.6 50.8C244.5 52.2 244 53.8 243.1 54.2Z" fill="#EEA886"/>
<path d="M253 40.4999C253 40.4999 252.8 36.8999 251.5 36.7999C250.2 36.6999 250 38.0999 250 38.0999L248.7 38.3999C248.7 38.3999 249.1 35.2999 247.8 34.6999C246.5 34.1999 239.4 36.3999 238.3 35.4999C237.3 34.5999 237.7 28.1999 239.6 27.3999C241.5 26.4999 246.7 24.5999 250.6 27.1999C250.6 27.1999 253.6 26.8999 254 29.2999C254.4 31.6999 253.8 38.7999 253 40.4999Z" fill="#3A3F47"/>
<path d="M244.7 50.7998C251.2 48.7998 251.7 44.8998 251.7 44.7998C249.6 48.4998 244.8 48.9998 244.8 48.9998C244.8 49.4998 244.7 50.0998 244.7 50.7998Z" fill="#A77860"/>
<path d="M256.1 52.5999C256.1 52.5999 251.3 62.0999 243.6 61.4999C235.9 60.8999 242.3 51.2999 242.6 51.2999C243.1 51.1999 250.6 49.2999 256.1 52.5999Z" fill="#EEA886"/>
<path d="M221.6 97.7999C221.6 97.7999 245.2 100.7 259.5 98.2999L232.2 94.8999C232.2 94.8999 232 95.5999 221.6 97.7999Z" fill="#1487E3"/>
<path d="M239.3 93.7998L237.5 94.6998C237.5 94.6998 237.9 97.4998 238.9 98.2998L240.9 97.7998C240.8 97.8998 240.4 94.7998 239.3 93.7998Z" fill="#EEA886"/>
<path d="M266.6 88.1C266.2 88.5 261.6 90.4 256.4 92.4C249.2 95.2 241.2 97.8 241.2 97.8L239.4 93.9C239.4 93.9 247.9 89.3 253.6 86.1C256.3 84.6 258.4 83.4 258.7 83.1C259.6 82.2 259.9 80.8 259.2 78.4C258.5 76 257 64.7 256.8 63.4C256.6 62.1 257.2 58.6 260.5 58.4C263.8 58.2 265.5 59.2 265.5 59.2C265.5 59.2 266.3 59.5 266.9 67.5C267.3 75.3 267.4 87.2 266.6 88.1Z" fill="#1487E3"/>
<path d="M258.3 75.1999C258.3 76.2999 258.2 77.9999 258.2 79.7999C255 71.8999 256.8 65.6999 256.9 65.5999C256.6 67.7999 258.3 75.0999 258.3 75.1999Z" fill="#0C5087"/>
<path d="M233.6 77.6C233.2 79.6 232.8 81.1 232.6 81.6C231.5 76.3 232.5 69.5 232.5 69.5C232.6 72.8 233.6 77.6 233.6 77.6Z" fill="#0C5087"/>
<path d="M256.3 92.3998C249.1 95.1998 240.8 97.8998 240.8 97.8998L239.2 93.8998C239.2 93.8998 247.7 89.2998 253.4 86.0998C253.4 85.9998 255.5 86.9998 256.3 92.3998Z" fill="#EEA886"/>
<path d="M238.7 98.0999L205.2 97.5999L222.1 106.2L238.7 98.0999Z" fill="#444C94"/>
<path d="M222.1 106.2L238.7 99.7999V98.0999L220.8 104.6L222.1 106.2Z" fill="#303669"/>
<path d="M237.9 94.7998C237.9 94.7998 235.8 94.4998 234.4 94.0998C233.3 93.7998 230.5 94.1998 229.8 94.8998C229.1 95.5998 226.8 100.6 226.4 100.9C226 101.2 226.6 101.9 227.4 101.6C227.4 101.6 228.1 103.8 229.8 103C231.5 102.2 232.7 100.4 233.5 100.1C234.4 99.7998 239.6 98.1998 239.6 98.1998C239.6 98.1998 239.2 94.2998 237.9 94.7998Z" fill="#EEA886"/>
<path d="M230.2 94.5999C230.2 94.5999 228.9 95.1999 228.5 95.4999C228.1 95.7999 226.7 96.8999 226.4 97.0999C226.1 97.3999 226.9 98.0999 229.5 96.9999C232 95.8999 230.2 94.5999 230.2 94.5999Z" fill="#EEA886"/>
<path d="M222.1 106.2L212.2 79L180 79.5L189.5 104.6L222.1 106.2Z" fill="#303669"/>
<path d="M201.9 91C202.9 93 202.6 95.1 201.2 95.8C199.9 96.5 198 95.4 197 93.5C196 91.5 196.3 89.4 197.7 88.7C199 88 200.9 89.1 201.9 91Z" fill="#518AFA"/>
<path d="M250 36.6999C250.1 35.6999 252.1 35.2999 252.3 36.7999C252.5 38.2999 251.4 40.8999 250.6 40.6999C249.9 40.3999 249.8 38.0999 250 36.6999Z" fill="#EEA886"/>
<path d="M216.6 15.5001H198.4C198 15.5001 197.8 15.2001 197.8 14.9001V14.2001C197.8 13.8001 198.1 13.6001 198.4 13.6001H216.6C217 13.6001 217.2 13.9001 217.2 14.2001V14.9001C217.3 15.2001 217 15.5001 216.6 15.5001Z" fill="white"/>
<path d="M214.8 19.5001H198.4C198 19.5001 197.8 19.2001 197.8 18.9001V18.2001C197.8 17.8001 198.1 17.6001 198.4 17.6001H214.8C215.2 17.6001 215.4 17.9001 215.4 18.2001V18.9001C215.4 19.2001 215.1 19.5001 214.8 19.5001Z" fill="white"/>
<path d="M210.7 23.6H198.4C198 23.6 197.8 23.3 197.8 23V22.2999C197.8 21.8999 198.1 21.7 198.4 21.7H210.7C211.1 21.7 211.3 21.9999 211.3 22.2999V23C211.3 23.3 211 23.6 210.7 23.6Z" fill="white"/>
<path d="M168 285.3C168 285.3 169.8 286.1 170.6 285.7C171.4 285.3 172.8 285.3 173.2 285.3C173.7 285.3 175.5 284.7 175.4 285.4C175.4 286.1 172.6 286.5 172 286.8C171.4 287 173.7 288.3 173.9 288.8C174.1 289.4 171.6 293 170.1 292C168.7 291 167.9 288.9 167.6 288.8C167.3 288.7 166.5 288.1 166.5 288.1L168 285.3Z" fill="#EEA886"/>
<path d="M173.7 288.4C173.7 288.4 177.9 291.9 177.9 292.3C178 292.8 177.7 293 177.3 292.7C176.9 292.4 173.2 289.5 173.2 289.5C173.2 289.5 177.4 294.4 177.5 294.8C177.6 295 177.2 295.5 176.9 295.3C176.7 295.2 172.2 290.5 172.2 290.5C172.2 290.5 176.1 295.1 176.1 295.5C176.1 295.8 175.6 296.1 175.3 295.8C175 295.5 171.1 291.4 171.1 291.4C171.1 291.4 173.7 294.9 173.5 295.3C173.4 295.5 173.1 295.9 172.4 295C171.8 294.1 170 292 170 292L173.7 288.4Z" fill="#EEA886"/>
<path d="M139.2 360.4C139.2 360.4 139 366.1 139.8 366.4C140.6 366.7 143.7 364.8 145 362.8C146.4 360.8 143.3 356.3 142.8 353.8C142.6 352.8 140.2 350.9 139 351.4C137.8 351.9 137 353.3 137 353.3C137 353.3 140.1 355.4 139.2 360.4Z" fill="#3D6091"/>
<path d="M137.1 353.4C137.1 353.4 138.1 355.3 138.6 356.8C139.1 358.3 139.2 362.5 139.5 362.8C139.8 363.1 142.4 361.8 142.7 360.2C143 358.6 142 355.5 141 353.9C140 352.3 139 351.4 139 351.4C139 351.4 137.4 351.8 137.1 353.4Z" fill="#DE9673"/>
<path d="M142.9 353.9L145.6 357.9L145.1 358.3L143 355.2L142.9 353.9Z" fill="#3D6091"/>
<path d="M127.2 317C127.2 317 128.8 325.4 128.8 327.3C128.8 329.3 129.3 332.6 130.6 335C131.9 337.4 137.4 354 137.9 355.9C138.4 357.8 138.8 359.6 138.8 359.6C138.8 359.6 141.6 358.3 141.6 356.5C141.6 354.7 139.2 339.7 138.8 336.7C138.4 333.7 134.9 318.5 134.9 318.5L127.2 317Z" fill="#DE9673"/>
<path d="M136.1 316.4C136.1 316.4 135.6 323.4 135.6 325.2C135.7 327 136.5 331.1 136.5 332.2C136.5 333.3 136.5 355.9 135.6 358.6C134.7 361.3 138.1 359.5 138.1 359.5C138.1 359.5 144.1 344.7 144.1 338.5C144.1 332.3 143.4 329.2 143.8 325.3C144.2 321.4 146.9 316.2 146.9 316.2L136.1 316.4Z" fill="#EEA886"/>
<path d="M135.1 225.2C135.1 225.2 129.5 230.8 131.4 238C133.3 245.2 136.3 245.3 139.7 242.2C143.1 239.1 145 235.8 145.5 232.2C146 228.6 140.2 220.2 135.1 225.2Z" fill="#EEA886"/>
<path d="M134 249.3C134 249.3 134.8 247.4 135.4 245.3C135.5 244.9 135.6 244.5 135.7 244.2C136 242.9 136.1 241.5 135.8 240.6C134.9 238 141.4 239.8 141.4 239.8C141.4 239.8 140.1 246.7 141.4 249.1C142.6 251.4 134 249.3 134 249.3Z" fill="#EEA886"/>
<path d="M145.1 282.9C145.1 282.9 149.1 288.8 150 294.1C150.8 299.4 149.3 307.2 148.6 310.1C148 312.6 147.2 320.5 147.1 321.3C147.1 321.3 134.5 324.6 126.3 322C126.3 322 125 309.1 124.5 304.3C124 299.5 127.4 283.4 127.4 283.4L145.1 282.9Z" fill="#316EBF"/>
<path d="M169.1 285.7L166.8 288.3C166.8 288.3 153.3 277.3 152.7 275.9C152.1 274.4 147.5 266.3 147.3 265.4C147.3 265.4 146.4 267.7 145.7 269.9C145.4 270.8 145 272.5 144.8 273.2C144.2 275.7 144.1 279.7 145.1 283C145.1 283 134.2 287.1 127.3 283.4C127.3 283.4 128 277.5 126.9 273.6C125.8 269.8 120.1 256.4 120.1 256.4C120.1 256.4 123.1 250.8 126.3 249.7C129.4 248.6 133 247.8 133 247.8H140.5C140.5 247.8 145.4 249.1 146.5 249.4C148.5 250 150.3 252.5 150.7 254.8C151.1 257 156.2 272.3 156.8 272.8C157.5 273.1 169.1 285.7 169.1 285.7Z" fill="#EDDAD3"/>
<path d="M124.9 278.4C124.9 278.4 129.7 278.6 130.5 278.4C131.3 278.2 136.3 276 136.6 273.9C136.9 271.7 124.9 275.8 124.9 275.8V278.4V278.4Z" fill="#EEA886"/>
<path d="M132.8 365.5C132.8 365.5 129.1 369.9 129.5 370.6C129.9 371.4 133.6 371.8 135.9 371.1C138.2 370.4 138.7 364.9 139.9 362.6C140.4 361.6 139.7 358.6 138.5 358.3C137.2 358 135.7 358.5 135.7 358.5C135.7 358.5 136.6 362.1 132.8 365.5Z" fill="#5D89C4"/>
<path d="M135.6 358.6C135.6 358.6 135.2 360.8 134.6 362.3C134.1 363.8 131.5 367.2 131.6 367.6C131.7 368 134.5 368.6 135.8 367.6C137.1 366.6 138.2 363.5 138.5 361.6C138.8 359.7 138.6 358.4 138.6 358.4C138.6 358.4 136.8 357.5 135.6 358.6Z" fill="#EEA886"/>
<path d="M139.8 362.6L139.5 367.6L138.8 367.5L139.1 363.7L139.8 362.6Z" fill="#5D89C4"/>
<path d="M139.9 271.7L120.3 269.4L129.1 276.6L139.9 271.7Z" fill="#4C5285"/>
<path d="M125.5 275.6C125.5 275.6 125.3 278.1 125.5 278.6C125.5 278.6 113.4 277.4 112.3 275.7C111.2 274 111.2 271.9 111.2 271.9L125.5 275.6Z" fill="#EDDAD3"/>
<path d="M136.9 229.3C136.9 229.3 139.6 234.1 141.2 235.9C142.9 237.6 142.7 239 142.7 239C142.7 239 149.1 231 144.5 226.2C139.9 221.4 134 223.3 132.2 227.5C130.5 231.7 131.1 236.8 131.1 236.8C131.1 236.8 131.2 231.9 136.9 229.3Z" fill="#E8734D"/>
<path d="M138.7 224.2C138.7 224.2 138.1 220.7 143.6 219.2C149.2 217.8 151.7 224.2 151 228.1C150.3 232 145.6 241.9 148.1 243.2C150.7 244.5 151.7 241.7 151.7 241.7C151.7 241.7 150.9 246.6 147.3 245.4C143.7 244.3 144.2 236.4 144.7 233.2C145.3 230.2 138.7 224.2 138.7 224.2Z" fill="#E8734D"/>
<path d="M133.2 247.7C133.2 247.7 133.7 246.2 133.7 245.9C133.7 245.9 140.7 245.5 142.5 245.7C142.5 245.7 142.6 247.7 142.6 248.1C142.6 248.6 134.4 250 133.2 247.7Z" fill="#EDDAD3"/>
<path d="M129.1 276.6L139.9 272.9V271.7L128.8 275.2L129.1 276.6Z" fill="#323657"/>
<path d="M129.1 276.6L123.4 255.3L101.6 253L107.6 272.6L129.1 276.6Z" fill="#323657"/>
<path d="M140.5 241.5C140.5 241.6 139.1 244.8 135.5 245.3C135.6 244.9 135.7 244.5 135.8 244.2C135.7 244.2 137.7 244.6 140.5 241.5Z" fill="#A77860"/>
<path d="M147.4 265.3C147.4 265.3 146.5 267.6 145.8 269.8C145.1 263.6 146.1 258.7 146.1 258.7C146.1 262 147.4 265.3 147.4 265.3Z" fill="#CFBEB8"/>
<path d="M139.5 223.5C139.5 223.5 143.4 224.3 145.4 227.5C145.4 227.5 145 224.6 143 223.7C141.1 222.9 139.5 223.5 139.5 223.5Z" fill="#EDDAD3"/>
<defs>
<linearGradient id="paint0_linear" x1="103.606" y1="37.1108" x2="322.553" y2="496.144" gradientUnits="userSpaceOnUse">
<stop stop-color="#FFC05C"/>
<stop offset="1" stop-color="#FF3857"/>
</linearGradient>
<linearGradient id="paint1_linear" x1="428.249" y1="126.825" x2="469.027" y2="182.673" gradientUnits="userSpaceOnUse">
<stop stop-color="#FFC05C"/>
<stop offset="1" stop-color="#FF3857"/>
</linearGradient>
<linearGradient id="paint2_linear" x1="108.634" y1="76.7834" x2="132.586" y2="135.648" gradientUnits="userSpaceOnUse">
<stop stop-color="#FFC05C"/>
<stop offset="1" stop-color="#FF3857"/>
</linearGradient>
<linearGradient id="paint3_linear" x1="153.25" y1="363.665" x2="360.306" y2="363.665" gradientUnits="userSpaceOnUse">
<stop stop-color="#FF9F55"/>
<stop offset="1" stop-color="#FFD255"/>
</linearGradient>
<linearGradient id="paint4_linear" x1="57.2833" y1="389.304" x2="264.339" y2="389.304" gradientUnits="userSpaceOnUse">
<stop stop-color="#E37E30"/>
<stop offset="1" stop-color="#E8A12E"/>
</linearGradient>
<linearGradient id="paint5_linear" x1="126.944" y1="191.802" x2="400.306" y2="191.802" gradientUnits="userSpaceOnUse">
<stop stop-color="white"/>
<stop offset="1" stop-color="#E6E6E6"/>
</linearGradient>
<linearGradient id="paint6_linear" x1="143.064" y1="180.277" x2="371.296" y2="180.277" gradientUnits="userSpaceOnUse">
<stop stop-color="#404B61"/>
<stop offset="0.486" stop-color="#3C4860"/>
<stop offset="1" stop-color="#2F3E5C"/>
</linearGradient>
<linearGradient id="paint7_linear" x1="193.298" y1="323.454" x2="321.499" y2="323.454" gradientUnits="userSpaceOnUse">
<stop stop-color="#FF9F55"/>
<stop offset="1" stop-color="#FFD255"/>
</linearGradient>
<linearGradient id="paint8_linear" x1="331.422" y1="218.161" x2="478.333" y2="218.161" gradientUnits="userSpaceOnUse">
<stop stop-color="#343D4F"/>
<stop offset="0.4581" stop-color="#30394C"/>
<stop offset="0.9513" stop-color="#232D41"/>
<stop offset="1" stop-color="#212B40"/>
</linearGradient>
</defs>
</svg>
