<svg width="1920" height="126" viewBox="0 0 1920 126" fill="none" xmlns="http://www.w3.org/2000/svg">
<path d="M674 68.1611C293.2 -9.03887 66.5 59.9945 0 104.161V126H1920V104.161V3.16112C1842 57.4944 1672.3 146.561 1617.5 68.1611C1562.7 -10.2389 1516.67 8.16112 1500.5 27.1611C1490.17 49.4945 1451.7 80.7611 1380.5 27.1611C1309.3 -26.4389 1256.83 11.4945 1239.5 37.1611C1211.5 73.6611 1054.8 145.361 674 68.1611Z" fill="#15A0DB"/>
<path d="M674 90.1611C293.2 12.9611 66.5 81.8333 0 126H1920V25.1611C1842 79.4945 1672.3 168.561 1617.5 90.1611C1562.7 11.7611 1516.67 30.1611 1500.5 49.1611C1490.17 71.4945 1451.7 102.761 1380.5 49.1611C1309.3 -4.43888 1256.83 33.4945 1239.5 59.1611C1211.5 95.6611 1054.8 167.361 674 90.1611Z" fill="white"/>
</svg>
