<svg width="540" height="200" viewBox="0 0 540 200" fill="none" xmlns="http://www.w3.org/2000/svg">
<rect width="540" height="200" fill="#15A0DB"/>
<mask id="mask0" mask-type="alpha" maskUnits="userSpaceOnUse" x="0" y="0" width="540" height="200">
<rect width="540" height="200" fill="#15A0DB"/>
</mask>
<g mask="url(#mask0)">
<path d="M436.586 10.3235C439.256 2.54696 440.139 -5.1224 440.686 -13.1748C440.71 -13.5346 440.683 -13.981 440.286 -13.8676C439.89 -13.7542 439.953 -13.4444 439.844 -13.0346C438.083 -7.28388 435.303 -2.09919 431.89 2.98908C428.563 8.02735 427.179 11.829 428.347 17.852C432.147 16.235 435.252 14.2118 436.586 10.3235Z" fill="#365B1E"/>
<path d="M420.791 39.7656C423.49 41.4404 424.93 44.5349 426.9 46.7464C428.87 48.9579 430.772 50.0533 433.687 50.1023C436.156 50.1782 438.698 49.9808 441.29 49.87C442.989 49.8129 444.638 49.6691 446.16 48.9057C446.233 48.6325 445.873 48.6093 445.687 48.4861C442.455 46.888 436.774 44.0481 434.051 42.733C431.516 41.5411 422.887 39.595 421.88 39.2522C421.517 38.4227 420.738 38.8727 421.167 37.8165C421.596 36.7603 422.186 35.3809 422.615 34.3247C422.848 33.7282 423.268 33.255 423.828 33.6247C424.997 34.4505 425.884 35.7861 426.98 36.8852C429.26 39.0332 431.102 40.6251 434.424 39.9777C438.055 39.267 441.699 38.7794 445.421 38.8248C447.033 38.8177 448.486 39.1337 450.071 38.6801C447.665 35.9124 445.499 34.1607 441.911 33.3457C438.869 32.677 435.457 32.5682 432.406 32.4825C429.404 32.4835 426.885 32.3211 423.961 32.855C423.911 32.7684 423.487 32.4354 423.524 32.2988C424.136 30.5596 424.489 28.9704 425.848 27.7239C428.216 27.6266 430.056 28.4122 432.305 29.3077C435.15 30.4361 437.549 31.5914 440.821 30.8574C445.331 29.8698 450.288 28.8555 454.572 27.0751C454.112 26.8787 453.962 26.6189 453.379 26.6091C449.544 26.1672 446.042 25.3021 442.121 24.9103C438.2 24.5184 434.279 24.1266 430.215 25.0874C428.912 25.0311 426.437 26.3445 425.608 26.7079C425.038 26.9213 425.608 26.7079 425.608 26.7079C424.211 25.0893 426.919 23.1795 427.358 21.5402C427.395 21.4036 427.518 21.217 427.655 21.2536C429.044 21.2598 430.756 21.4259 432.072 21.7053C439.086 22.8524 443.946 22.4711 449.972 19.1077C450.405 18.8577 450.628 18.8443 450.464 18.3612C450.351 17.9648 449.868 18.1282 449.422 18.155C448.565 18.072 448.169 18.1854 447.176 18.0658C439.93 17.5151 434.999 15.9742 428.257 20.0974C428.217 19.4278 428.227 18.8448 428.273 18.1252C427.494 18.5752 427.161 18.9984 426.524 18.0957C424.699 9.33453 424.253 9.36132 418.914 2.5135C418.674 4.49914 418.235 6.13838 417.909 8.17402C417.304 11.5257 418.058 13.6309 420.624 16.0754C422.193 17.5941 424.136 19.3591 425.792 20.8278C426.432 22.5366 426.007 24.3991 424.411 25.4357C423.984 24.2965 423.421 23.1206 422.908 22.0314C421.344 19.1235 419.125 16.479 417.092 13.9577C414.285 10.4972 411.896 8.75895 407.588 7.89748C407.615 8.34389 407.642 8.7903 407.892 9.22331C409.255 11.7848 410.595 14.7061 412.082 17.0809C412.732 18.2068 414.119 20.4084 414.692 21.0013C415.975 22.2235 423.759 26.5053 424.182 26.8383C422.167 28.3481 422.614 31.323 421.582 33.5354C420.885 30.1275 419.121 26.8732 416.742 24.552C412.793 20.712 408.811 17.8149 404.789 14.2482C404.029 13.5322 403.492 12.8027 402.536 12.5465C402.599 12.8563 402.576 13.2161 402.676 13.3893C403.783 16.907 405.137 20.0515 406.937 23.1692C408.5 26.0771 410.616 27.7422 413.539 29.4036C416.088 30.8187 419.043 31.5373 420.853 34.072C421.839 35.5809 420.554 36.5541 420.238 38.0067C419.601 37.1041 418.974 35.6184 418.091 35.089C417.668 34.756 418.091 35.089 418.091 35.089C417.581 34.806 416.931 33.6802 416.322 33.2239C411.73 29.8706 406.791 26.7173 401.953 23.7372C399.814 22.4319 397.911 21.3365 395.822 20.1178C398.072 24.0149 400.518 27.4522 403.671 30.7127C405.441 32.5778 407.407 33.9831 409.756 35.0517C412.751 36.44 415.756 37.2452 418.715 38.7701C419.089 39.0165 419.845 38.9263 419.662 39.6093C419.479 40.2923 418.846 40.1959 418.299 40.0495C415.444 39.5041 412.949 38.9818 409.934 38.7596C407.278 38.5606 404.983 38.3847 402.508 39.6981C406.573 41.739 409.672 44.1067 414.406 43.1057C415.918 42.9254 417.181 42.312 418.58 41.7352C417.731 43.2646 416.945 45.1038 416.046 46.5466C413.632 50.3653 411.254 54.0473 408.704 57.8294C406.902 59.9088 405.374 62.0615 403.995 64.4739C406.12 62.5543 407.548 60.2284 409.25 57.9758C412.653 53.4706 415.77 48.6689 418.464 43.5342C418.747 43.0244 418.83 42.1682 419.516 43.1574C420.033 45.0529 419.817 46.6787 420.471 48.6107C421.665 52.0784 424.777 54.6693 428.439 55.2112C426.452 51.9703 424.589 48.5428 422.948 45.1019C422.335 43.8395 421.485 42.3672 420.415 41.7146C419.259 41.112 419.912 40.0423 420.158 39.6691C420.158 39.6691 420.035 39.8557 420.158 39.6691C420.281 39.4825 420.158 39.6691 420.158 39.6691C420.308 39.9289 420.605 39.6424 420.791 39.7656Z" fill="#365B1E"/>
<path d="M459.44 61.9076C466.872 59.5798 470.491 53.4487 474.111 47.3176C474.27 46.9944 474.69 46.5212 474.13 46.1516C473.62 45.8686 473.424 46.3284 473.214 46.565C469.384 49.931 464.604 51.6516 459.81 53.149C454.671 54.8463 450.964 58.0258 448.143 62.5408C451.968 63.5657 455.749 63.1147 459.44 61.9076Z" fill="#548936"/>
<path d="M425.311 76.9935C427.411 80.6308 427.615 84.785 428.439 88.8125C429.163 92.6668 430.321 96.2711 433.866 98.612C436.988 100.62 440.061 102.541 443.293 104.139C445.505 105.171 447.521 106.663 450.026 106.602C450.223 106.143 449.9 105.983 449.8 105.81C446.08 100.567 442.31 95.2379 438.591 89.9953C435.171 85.2724 431.998 80.1762 426.627 77.2729C425.917 76.6434 425.344 76.0506 426.743 75.4738C428.142 74.897 429.477 74.0104 430.776 73.2604C431.469 72.8604 432.052 72.8702 432.539 73.5131C433.006 75.3219 433.386 77.1808 433.94 78.9396C434.924 82.6439 436.564 86.0848 440.502 87.5061C444.85 89.0372 448.829 91.1281 452.98 93.1189C454.733 93.9546 456.389 95.4232 458.512 95.6991C456.803 88.1405 455.124 87.0317 451.515 84.3809C448.516 82.1865 445.271 80.3652 442.062 78.4073C439.176 76.6092 436.45 74.4879 433.318 73.0631C433.255 72.7533 433.091 72.2702 433.178 72.2202C434.96 71.3068 436.429 69.6506 438.624 69.6533C440.813 71.0451 442.237 73.1102 443.746 75.1252C445.779 77.6465 447.566 80.541 451.228 81.0829C456.378 81.8042 461.552 82.1656 466.782 81.2245C466.482 80.7049 466.196 80.4084 465.686 80.1254C462.181 78.4541 458.749 76.5097 455.207 74.975C451.615 73.3537 448.256 71.136 444.431 70.1111C442.838 68.9523 440.696 69.8425 439.054 68.597C440.922 67.6336 442.978 66.7934 444.496 65.2238C444.633 65.2604 444.806 65.1604 444.943 65.197C446.076 66.1595 447.332 66.9353 448.378 67.9477C453.847 73.2197 459.95 73.391 466.599 70.707C467.082 70.5436 467.478 70.4302 467.538 69.9338C467.498 69.2642 466.928 69.4776 466.519 69.3678C465.699 69.1482 464.966 68.8786 464.146 68.659C458.322 67.1717 452.778 64.3683 446.428 64.5702C446.934 64.047 447.441 63.5238 447.947 63.0006C447.314 62.9042 446.261 63.281 446.627 61.915C450.31 56.0937 455.386 51.0849 456.802 43.3387C454.218 45.0619 452.189 46.3485 450.297 47.6717C447.156 49.8315 444.849 52.4342 444.283 56.4554C443.984 58.9375 443.909 61.4061 443.919 63.8248C443.307 65.564 440.636 67.3372 439.22 66.8846C439.722 65.5552 440.225 64.2258 440.728 62.8963C441.902 59.3313 442.891 55.643 444.302 52.2877C446.339 47.4165 447.174 42.6622 443.978 37.9258C443.508 38.3124 443.138 38.8722 442.819 39.5186C441.348 43.3703 439.503 46.9756 437.435 50.5942C436.55 52.2603 435.341 53.7665 435.065 55.8887C434.527 60.3564 435.971 64.2571 437.861 68.131C435.686 69.964 433.274 71.5872 430.4 72.2078C432.504 68.4526 432.932 64.3947 433.174 60.2136C433.578 53.5138 433.76 46.8275 434.077 40.1778C434.133 38.8751 434.55 37.5957 433.836 36.1601C433.453 36.4967 433.157 36.7833 432.997 37.1065C430.1 41.0885 427.849 45.3902 425.698 49.8651C423.744 53.8801 424.008 57.538 425.502 61.5253C426.869 64.893 429.252 68.0205 429.134 72.015C429.094 74.347 426.935 74.2078 425.563 75.231C425.06 73.5588 426.442 71.9526 425.195 70.5937C425.042 69.5277 425.111 68.4483 424.871 67.4322C422.94 59.887 421.541 52.2651 419.97 44.7431C419.323 41.4218 418.502 38.2005 417.718 34.8426C415.661 40.8799 414.46 47.0002 414.116 53.2036C413.884 56.8017 414.568 59.9863 416.058 63.1674C418.048 67.2145 420.681 70.775 423.104 74.5722C423.404 75.0918 424.374 75.5712 423.695 76.1944C423.015 76.8176 422.342 76.0516 421.819 75.5454C418.916 72.7179 416.15 69.927 413.161 67.1495C410.595 64.705 408.152 62.0739 403.894 61.299C406.748 67.0416 407.819 73.6976 415.059 75.6375C416.739 76.7463 418.761 76.849 421.17 77.4212C418.645 78.648 416.603 79.7114 414.548 80.5516C408.965 83.082 403.419 85.4758 397.836 88.0061C394.182 89.0767 390.641 90.5437 387.35 92.4437C391.254 91.8061 394.782 90.1159 398.409 88.599C405.778 85.9614 412.833 82.581 419.888 79.2006C420.544 78.9372 421.37 77.7676 421.477 79.5533C420.581 81.8023 419.499 83.9281 418.877 86.2504C417.779 90.3484 420.467 97.8034 424.125 100.541C424.2 95.0704 424.325 89.6867 424.45 84.303C424.516 82.4174 424.222 80.5085 423.409 78.8997C422.696 77.464 423.302 77.114 424.441 76.6872C424.837 76.5738 425.074 76.7836 425.311 76.9935Z" fill="#548936"/>
<path d="M521.515 -5.03079C511.272 -2.28634 505.194 8.24164 507.939 18.4841C510.683 28.7265 521.211 34.8049 531.453 32.0604C541.696 29.3159 547.774 18.788 545.03 8.54553C542.285 -1.69692 531.757 -7.77525 521.515 -5.03079Z" fill="white"/>
<path d="M6.06784 33.2011C5.76289 23.5466 14.2365 12.8158 22.7386 13.5779C29.642 14.2002 35.6304 22.2396 34.1971 25.5509C32.8615 28.6909 25.4282 26.4511 23.4187 30.296C21.4093 34.1408 27.7896 38.8652 25.5751 42.9107C23.8631 46.1539 18.3943 47.3924 14.3989 46.2044C8.57947 44.476 6.21017 37.7277 6.06784 33.2011Z" fill="white"/>
<path d="M498.485 19.0444C493.799 20.3001 491.018 25.1172 492.274 29.8036C493.529 34.49 498.346 37.2712 503.033 36.0155C507.719 34.7597 510.5 29.9427 509.245 25.2562C507.989 20.5698 503.172 17.7887 498.485 19.0444Z" fill="white"/>
<path d="M416.381 201.247H119.619C112.095 201.247 106 195.144 106 187.609V22.334C106 14.7992 112.095 8.69662 119.619 8.69662H416.381C423.905 8.69662 430 14.7992 430 22.334V187.609C429.984 195.144 423.889 201.247 416.381 201.247Z" fill="#004E8C"/>
<path d="M157.779 65.3615H117.799V105.395H157.779V65.3615Z" fill="#FFDF69"/>
<path d="M157.779 22.2688H117.799V62.3021H157.779V22.2688Z" fill="#F0F0F0"/>
<path d="M200.798 22.2688H160.818V62.3021H200.798V22.2688Z" fill="#F0F0F0"/>
<path d="M268.406 65.1825H228.426V105.216H268.406V65.1825Z" fill="#F0F0F0"/>
<path d="M311.425 65.1825H271.445V105.216H311.425V65.1825Z" fill="#FFDF69"/>
<path d="M200.798 108.243H160.818V148.276H200.798V108.243Z" fill="#F0F0F0"/>
<path d="M200.798 151.319H160.818V191.352H200.798V151.319Z" fill="#FFDF69"/>
<path d="M268.406 151.319H228.426V191.352H268.406V151.319Z" fill="#F0F0F0"/>
<path d="M157.779 108.34H117.799V148.373H157.779V108.34Z" fill="#F0F0F0"/>
<path d="M311.409 151.319C311.409 151.319 311.377 169.855 307.037 185.559L297.79 191.352H265.188C271.38 174.851 271.413 151.319 271.413 151.319H311.409Z" fill="#FFDF69"/>
<path d="M297.806 191.352V185.429H307.054L297.806 191.352Z" fill="#DEBA35"/>
<path d="M268.406 108.243C268.406 108.243 268.374 126.778 264.035 142.482L254.787 148.276H222.202C228.394 131.774 228.426 108.243 228.426 108.243H268.406Z" fill="#4BA2F4"/>
<path d="M254.787 148.276V142.352H264.035L254.787 148.276Z" fill="#375EAB"/>
<path d="M311.425 22.3014H271.445V62.3346H311.425V22.3014Z" fill="#F0F0F0"/>
<path d="M268.406 22.3014C268.406 22.3014 268.374 40.8371 264.035 56.5412L254.787 62.3346H222.202C228.394 45.8331 228.426 22.3014 228.426 22.3014H268.406V22.3014Z" fill="#FFDF69"/>
<path d="M254.787 62.3184V56.3947H264.035L254.787 62.3184Z" fill="#DEBA35"/>
<path d="M157.779 151.319C157.779 151.319 157.746 169.855 153.407 185.559L144.16 191.352H111.574C117.766 174.851 117.799 151.319 117.799 151.319H157.779Z" fill="#F0F0F0"/>
<path d="M144.16 191.352V185.429H153.407L144.16 191.352Z" fill="#C9C9C9"/>
<path d="M376.531 65.3615H336.551V105.395H376.531V65.3615Z" fill="#FFDF69"/>
<path d="M376.531 22.2688H336.551V62.3021H376.531V22.2688Z" fill="#F0F0F0"/>
<path d="M419.55 22.2688H379.57V62.3021H419.55V22.2688Z" fill="#F0F0F0"/>
<path d="M419.55 108.243H379.57V148.276H419.55V108.243Z" fill="#F0F0F0"/>
<path d="M419.55 151.319H379.57V191.352H419.55V151.319Z" fill="#FFDF69"/>
<path d="M376.531 108.34H336.551V148.373H376.531V108.34Z" fill="#F0F0F0"/>
<path d="M376.531 151.319C376.531 151.319 376.498 169.855 372.159 185.559L362.912 191.352H330.31C336.502 174.851 336.535 151.319 336.535 151.319H376.531Z" fill="#F0F0F0"/>
<path d="M362.912 191.352V185.429H372.159L362.912 191.352Z" fill="#C9C9C9"/>
<path d="M311.409 108.243C311.409 108.243 311.377 126.778 307.037 142.482L297.79 148.276H265.188C271.38 131.774 271.413 108.243 271.413 108.243H311.409Z" fill="#F0F0F0"/>
<path d="M297.806 148.276V142.352H307.054L297.806 148.276Z" fill="#C9C9C9"/>
<path d="M214.905 8.8739H212.386V215.745H214.905V8.8739Z" fill="white"/>
<path d="M325.24 8.49466H322.721V215.366H325.24V8.49466Z" fill="white"/>
<path d="M303.624 4.80716H229.987V12.6348H303.624V4.80716Z" fill="url(#paint0_linear)"/>
<path d="M355.928 112.73C355.928 112.73 354.434 112.147 354.337 111.195C354.24 110.398 353.581 109.407 353.387 109.097C353.115 108.689 352.708 107.135 352.242 107.465C351.757 107.795 352.785 110.068 352.921 110.573C353.057 111.098 351.02 109.99 350.515 110.087C350.011 110.185 348.633 113.74 350.088 114.342C351.563 114.925 353.445 114.556 353.697 114.711C353.93 114.867 354.745 115.177 354.745 115.177L355.928 112.73Z" fill="#EEA886"/>
<path d="M373.079 141.035C373.079 141.035 371.333 157.781 370.44 163.512C369.393 170.214 369.024 175.751 368.733 179.229C368.365 183.6 368.287 205.047 368.035 206.329C367.782 207.612 373.797 206.679 373.797 206.679C373.797 206.679 376.765 178.646 377.852 173.983C378.88 169.651 382.702 151.02 383.633 152.205C384.565 153.391 385.729 173.944 386.427 177.364C387.126 180.783 389.24 207.495 389.24 207.495C389.24 207.495 394.032 208.447 395.293 207.379C395.293 207.379 395.875 184.357 395.429 177.966C395.255 175.518 398.301 148.728 394.401 137.946C392.325 132.234 373.079 141.035 373.079 141.035Z" fill="#292C47"/>
<path d="M405.246 122.696C406.255 125.454 397.001 132.37 398.145 132.584C399.29 132.798 399.251 134.974 399.251 134.974C399.251 134.974 407.982 127.358 407.788 125.124C407.691 123.881 400.862 105.794 399.814 105.036C399.096 104.531 394.634 102.725 392.325 101.85C391.258 101.442 390.443 101.151 390.269 101.151C389.745 101.112 383.206 101.753 383.206 101.753C383.206 101.753 382.275 102.083 381.305 102.511C379.675 103.268 377.114 104.434 375.291 105.308C374.709 105.58 373.952 105.969 373.351 106.299C373.428 108.514 373.564 110.903 373.739 113.448C373.739 113.448 374.088 119.024 374.107 124.638C374.398 125.921 374.359 128.873 374.359 128.873C374.437 131.671 374.127 134.566 374.049 136.159C373.913 138.684 373.564 142.298 373.564 142.298L376.746 143.599L390.657 143.463L395.022 142.298C395.022 142.298 394.77 131.088 394.828 127.844C394.886 124.697 395.546 116.557 395.682 116.09C395.701 116.09 400.357 109.31 405.246 122.696Z" fill="#DBD8E3"/>
<path d="M374.01 141.132C374.01 141.132 383.575 141.948 391.937 141.132V143.891C391.937 143.891 379.462 145.076 373.583 143.366L374.01 141.132Z" fill="#1D2033"/>
<path d="M373.215 106.28C373.292 108.533 373.389 110.962 373.583 113.565C373.583 113.565 373.758 119.898 374.127 125.921C374.243 126.775 374.321 127.669 374.243 128.563C374.146 129.748 374.03 131.03 373.874 132.37C373.874 132.39 373.874 132.409 373.874 132.429C373.836 132.739 373.797 133.07 373.758 133.381C373.758 133.381 373.758 133.381 373.758 133.4C372.943 140.102 371.566 147.776 370.848 150.107C370.693 150.593 371.216 151.04 371.585 151.39L374.204 153.041C374.204 153.041 375.291 143.114 375.64 139.733C375.989 136.47 377.076 132.118 377.541 127.863C378.143 122.463 378.977 117.178 379.423 114.051C380.587 105.872 382.139 102.219 382.139 102.219C381.422 102.394 373.215 106.28 373.215 106.28Z" fill="#323657"/>
<path d="M404.354 121.977C405.479 124.464 397.175 132.079 397.272 132.331C397.835 133.827 400.008 136.567 400.008 136.567C400.008 136.567 412.89 122.715 412.716 121.005C412.599 119.762 401.793 105.949 400.745 105.211C400.144 104.784 395.681 103.191 393.489 102.336C393.082 102.181 391.782 101.695 391.433 101.559C390.967 102.083 387.708 105.6 386.582 118.966C386.388 121.219 386.99 125.979 387.397 129.884C387.824 134.041 388.309 137.285 388.658 140.743C389.337 147.582 389.822 153.041 389.822 153.041L396.632 150.01C397.738 149.466 399.639 148.029 399.232 146.863C397.66 142.453 395.293 134.099 395.293 130.233C395.293 130.233 397.098 117.314 397.699 115.216C397.641 115.177 403.073 119.199 404.354 121.977Z" fill="#323657"/>
<path d="M389.687 101.87C389.687 101.87 389.725 99.6162 390.598 95.0896C390.831 93.8657 383.556 98.2951 383.556 98.2951C383.556 98.2951 383.575 98.7225 383.595 99.3053C383.595 99.6162 383.614 99.9464 383.614 100.296C383.614 100.413 383.614 100.549 383.614 100.665C383.614 100.996 383.595 101.287 383.556 101.559C383.536 101.831 383.362 102.297 383.304 102.433C382.993 103.094 387.223 103.638 389.687 101.87Z" fill="#EEA987"/>
<path d="M385.127 104.22L383.924 105.852C383.924 105.852 384.623 106.804 385.884 106.105L385.127 104.22Z" fill="#D44040"/>
<path d="M384.254 105.911C384.254 105.911 379.675 123.55 380.626 137.305L382.159 140.025L383.595 137.169C383.595 137.169 383.983 112.593 385.244 105.872L384.254 105.911Z" fill="#D44040"/>
<path d="M383.847 102.705L385.147 104.22C385.147 104.22 387.223 103.812 387.824 102.725C388.425 101.656 383.847 102.705 383.847 102.705Z" fill="#EEA987"/>
<path d="M383.536 101.384C383.536 101.384 383.692 102.53 385.127 104.22L383.556 106.338L382.702 101.947L383.536 101.384Z" fill="#C4C1CC"/>
<path d="M389.803 100.296C389.803 100.296 387.242 103.404 385.147 104.24L386.117 106.649L391.006 101.403L389.803 100.296Z" fill="#C4C1CC"/>
<path d="M352.067 115.236C352.067 115.236 363.126 127.28 365.745 126.62C366.948 126.329 368.772 124.23 370.285 122.268C370.79 121.627 371.275 120.947 371.74 120.267C373.603 117.586 375.039 115.022 375.039 115.022C375.039 115.022 380.51 108.592 376.125 105.736C376.125 105.736 374.282 105.541 373.215 106.319C372.245 107.037 369.878 111.564 369.49 112.399C369.102 113.235 366.114 119.16 365.842 119.335C365.571 119.51 362.622 117.742 361.05 116.693C358.509 114.983 355.327 112.011 355.327 112.011L352.067 115.236Z" fill="#323657"/>
<path d="M381.075 144.668H385.537V141.268H381.075V144.668Z" fill="#3A4066"/>
<path d="M383.575 100.277C383.575 100.393 383.575 100.529 383.575 100.646C387.746 99.247 388.542 97.1295 388.542 97.1295C387.242 98.0426 383.556 99.2859 383.556 99.2859C383.575 99.5967 383.595 99.927 383.575 100.277Z" fill="#A77860"/>
<path d="M398.766 132.293C398.766 132.293 398.378 132.623 397.951 132.623C397.234 132.623 396.419 131.826 395.662 132.545C394.905 133.264 396.496 136.295 397.059 136.644C397.622 136.994 398.922 136.353 400.318 134.682C401.715 132.992 398.766 132.293 398.766 132.293Z" fill="#EEA886"/>
<path d="M395.934 132.331C395.934 132.331 394.479 132.837 392.927 133.594C391.568 134.255 389.958 135.284 390.133 135.615C390.385 136.139 391.588 135.148 392.985 134.585C394.265 134.061 394.11 134.391 394.11 134.391C394.11 134.391 394.149 134.294 392.868 135.148C391.491 136.061 390.036 137.091 390.152 137.383C390.307 137.732 390.366 137.771 390.909 137.519C390.618 137.732 390.637 137.849 390.715 137.965C391.122 138.645 393.353 137.635 394.246 137.227C393.567 137.538 393.101 137.849 393.606 138.101C394.188 138.393 397.292 136.819 398.475 136.353C399.756 135.848 395.934 132.331 395.934 132.331Z" fill="#EEA886"/>
<path d="M397.253 132.331C397.253 132.331 397.563 134.197 399.989 136.567C399.989 136.567 405.518 130.447 406.508 129.301L402.181 126.795L397.253 132.331Z" fill="#323657"/>
<path d="M381.771 86.6583C381.771 86.6583 379.52 89.1838 380.199 89.8055C380.743 90.33 378.686 92.8361 378.395 93.2441C378.104 93.6715 379.365 94.3126 379.578 94.6817C379.792 95.0508 379.753 98.9168 380.84 99.2859C381.907 99.655 387.281 99.1111 388.969 98.0426C390.656 96.9547 393.276 90.874 393.004 87.9794C392.732 85.1042 385.729 82.2678 381.771 86.6583Z" fill="#EEA886"/>
<path d="M381.325 87.2022C381.325 87.2022 380.471 83.7053 383.924 82.0735C387.358 80.4416 391.704 85.784 392.267 86.0754C392.829 86.3669 396.166 87.4159 393.023 92.9915C390.327 97.7706 390.075 97.9455 390.075 97.9455C390.075 97.9455 389.686 94.7011 389.163 94.0989C388.348 93.1664 386.175 92.8167 386.175 92.8167C386.175 92.8167 387.843 90.3494 386.33 89.5918C384.836 88.8535 383.071 86.9885 381.325 87.2022Z" fill="#323657"/>
<path d="M388.251 91.6899C388.484 91.3596 389.318 89.8637 390.463 91.1265C391.607 92.3893 388.678 94.8566 388.425 94.8566C388.173 94.8371 386.311 94.5263 388.251 91.6899Z" fill="#EEA886"/>
<path d="M345.646 125.221C345.646 125.221 344.986 127.844 344.889 128.252C344.792 128.64 340.679 127.552 340.679 127.552V124.328C340.679 124.328 345.161 124.774 345.646 125.221Z" fill="#666FB3"/>
<path d="M344.967 127.902C344.967 127.902 346.111 129.651 347.333 130.505C348.536 131.341 353.212 132.429 353.891 133.245C354.376 133.827 355.075 136.042 347.586 135.032C342.27 134.313 339.651 134.488 339.166 133.575C338.681 132.642 340.679 127.28 340.679 127.28C340.679 127.28 341.804 127.883 344.967 127.902Z" fill="#2D314F"/>
<path d="M359.555 47.6034L342.146 226.808L344.019 226.99L361.428 47.7859L359.555 47.6034Z" fill="#B8B8B8"/>
<path d="M329.125 44.6538L311.716 223.858L313.589 224.041L330.998 44.8362L329.125 44.6538Z" fill="#B8B8B8"/>
<path d="M329.81 47.3189L329.628 49.1945L360.061 52.1495L360.243 50.2739L329.81 47.3189Z" fill="#B8B8B8"/>
<path d="M328.429 61.4878L328.247 63.3634L358.68 66.3214L358.862 64.4459L328.429 61.4878Z" fill="#B8B8B8"/>
<path d="M327.065 75.6677L326.883 77.5432L357.316 80.4985L357.498 78.6229L327.065 75.6677Z" fill="#B8B8B8"/>
<path d="M325.683 89.8412L325.501 91.7168L355.934 94.6722L356.116 92.7966L325.683 89.8412Z" fill="#B8B8B8"/>
<path d="M324.305 103.991L324.123 105.866L354.555 108.825L354.737 106.949L324.305 103.991Z" fill="#B8B8B8"/>
<path d="M322.94 118.171L322.758 120.047L353.191 123.002L353.372 121.126L322.94 118.171Z" fill="#B8B8B8"/>
<path d="M321.56 132.34L321.378 134.216L351.811 137.174L351.992 135.298L321.56 132.34Z" fill="#B8B8B8"/>
<path d="M320.197 146.516L320.015 148.392L350.448 151.35L350.629 149.474L320.197 146.516Z" fill="#B8B8B8"/>
<path d="M318.815 160.69L318.633 162.565L349.066 165.523L349.247 163.648L318.815 160.69Z" fill="#B8B8B8"/>
<path d="M317.454 174.846L317.272 176.722L347.705 179.68L347.887 177.804L317.454 174.846Z" fill="#B8B8B8"/>
<path d="M316.072 189.02L315.89 190.895L346.323 193.853L346.505 191.978L316.072 189.02Z" fill="#B8B8B8"/>
<path d="M385.903 22.7624C385.903 22.7624 385.515 23.2481 385.244 23.3647C385.244 23.3647 384.72 23.559 384.371 23.7144C384.254 23.7727 384.157 23.8115 384.099 23.8504C383.847 24.0058 383.342 24.4138 382.644 24.6275C381.945 24.8217 378.764 25.56 378.764 25.56L378.026 23.6755L377.503 22.1408C377.503 22.1408 380.452 18.3136 381.072 18.061C381.131 18.0416 381.189 18.0028 381.266 18.0028C381.829 17.8279 382.314 17.9445 382.624 17.8862C382.741 17.8668 383.866 17.7308 384.099 17.9833C384.429 18.3136 384.545 18.6633 384.487 18.9936C384.487 18.9936 385.127 19.6541 385.166 20.2758C385.166 20.2758 385.767 20.878 385.612 21.6551C385.573 21.6162 386.117 22.2962 385.903 22.7624Z" fill="#EEA886"/>
<path d="M351.796 47.5514C352.533 47.0852 353.484 46.4441 356.782 44.7928C362.913 41.7233 370.479 36.1477 371.915 35.3512C374.127 34.1079 381.111 25.5599 381.111 25.5599C380.743 24.2777 377.444 21.6939 377.444 21.6939C377.444 21.6939 366.851 31.7377 364.542 32.9811C362.544 34.0496 352.727 35.1181 350.011 35.3901C349.565 35.4289 349.312 35.4678 349.312 35.4678C346.48 39.3143 350.224 48.5617 351.796 47.5514Z" fill="#4BA2F4"/>
<path d="M350.729 69.815C350.729 69.815 353.736 80.9661 354.512 84.9487C355.191 88.4262 356.588 97.6735 356.782 99.8688C356.976 102.064 347.935 123.337 346.984 127.183L338.739 125.862C338.739 125.862 347.431 103.715 345.161 98.8003C341.785 91.4762 341.339 91.7094 338.681 85.6675C336.023 79.6451 329.931 79.4897 328.301 68.2996C328.32 68.2996 348.498 66.2792 350.729 69.815Z" fill="#2D314F"/>
<path d="M336.061 15.6521C336.061 15.6521 341.533 13.6122 344.055 17.7696C346.577 21.9465 346.344 30.3001 343.57 31.3103C340.815 32.34 336.663 31.796 335.247 29.1928C333.83 26.5895 332.55 22.8012 332.627 20.2951C332.705 17.789 334.626 16.3903 336.061 15.6521Z" fill="#EEA886"/>
<path d="M342.658 31.0772C342.658 31.0772 342.444 32.5148 342.794 33.2142C343.162 33.9136 335.906 33.933 335.906 33.933C335.906 33.933 335.324 30.0864 334.199 26.8421C333.112 23.5978 342.658 31.0772 342.658 31.0772Z" fill="#EEA886"/>
<path d="M334.218 26.8421C334.218 26.8421 334.723 27.6775 336.76 27.3472C338.797 27.017 341.3 24.2972 342.153 24.0058C343.007 23.7144 343.007 23.2093 343.007 23.2093L343.55 23.9863L344.462 24.0446C344.462 24.0446 343.628 21.6162 344.889 20.6254C346.131 19.6347 343.589 12.7574 337.051 15.0498C337.051 15.0498 332.026 16.4292 332.2 19.3044C332.356 22.1602 333.093 25.424 334.218 26.8421Z" fill="#D88A51"/>
<path d="M342.871 22.1796C342.755 21.6939 341.532 20.334 341.067 21.7911C340.601 23.2675 341.765 25.2297 342.425 25.0743C343.085 24.8994 343.162 23.3841 342.871 22.1796Z" fill="#EEA886"/>
<path d="M321.995 52.0391C322.054 52.7579 322.868 53.535 323.431 53.9235C323.78 54.1761 324.227 54.3121 324.673 54.3315L325.003 54.3509L330.687 54.5452C330.687 54.5452 334.917 40.8685 326.981 35.6426C326.749 35.6426 321.452 45.4339 321.995 52.0391Z" fill="#4BA2F4"/>
<path d="M339.146 133.555C339.631 134.488 342.25 134.294 347.566 135.012C349.021 135.207 350.166 135.284 351.059 135.265L351.369 132.06C349.817 131.516 348.013 130.952 347.314 130.486C346.111 129.651 344.947 127.883 344.947 127.883C341.785 127.863 340.659 127.242 340.659 127.242C340.659 127.242 338.681 132.623 339.146 133.555Z" fill="#2D314F"/>
<path d="M342.658 32.8062C342.658 32.8062 338.195 31.7572 335.673 32.612L335.285 32.9616C335.285 32.9616 334.529 34.4381 337.4 34.5547C340.291 34.6907 344.831 34.9044 342.658 32.8062Z" fill="#4BA2F4"/>
<path d="M325.235 137.519C325.235 137.519 324.576 140.141 324.479 140.549C324.382 140.938 320.269 139.85 320.269 139.85V136.625C320.269 136.625 324.75 137.091 325.235 137.519Z" fill="#666FB3"/>
<path d="M328.32 68.2996C328.32 68.2996 326.826 74.4969 326.38 80.7136C325.973 86.4446 325.216 92.7584 324.634 98.7614C323.974 105.464 322.073 116.265 321.976 119.859C321.879 123.434 318.872 139.092 318.872 139.092L326.574 139.986C326.574 139.986 331.58 112.341 332.763 109.505C333.947 106.688 339.806 86.5223 340 84.2687C340.174 81.9958 328.32 68.2996 328.32 68.2996Z" fill="#2D314F"/>
<path d="M324.556 140.2C324.556 140.2 325.701 141.948 326.923 142.803C328.126 143.638 332.802 144.726 333.481 145.542C333.966 146.125 334.664 148.339 327.176 147.329C321.86 146.61 319.24 146.785 318.755 145.872C318.27 144.94 320.269 139.578 320.269 139.578C320.269 139.578 321.394 140.18 324.556 140.2Z" fill="#2D314F"/>
<path d="M352.281 83.7442C352.94 83.6471 350.651 64.0839 350.826 62.86C350.942 62.0441 350.923 55.672 350.884 51.7089L351.602 47.6874C352.009 47.396 352.533 47.0658 353.173 46.6967C354.163 46.1138 355.404 45.4727 356.801 44.7734C356.646 43.8214 356.53 43.0832 356.491 42.6364C356.142 39.1201 353.775 37.2356 352.436 36.4585C351.893 36.1477 351.505 35.9923 351.505 35.9923C351 35.7786 350.496 35.5649 350.011 35.3706C346.79 34.0496 342.677 32.7868 342.677 32.7868H336.081C336.081 32.7868 331.075 33.797 328.068 35.0209C327.68 35.1763 327.331 35.3706 326.982 35.6232L327.874 54.4287C327.874 54.4287 327.874 54.4287 327.874 54.4481V54.4675C328.282 57.1096 328.708 60.2374 328.844 62.4132C328.902 63.3069 327.874 68.1054 327.35 72.5153L325.488 83.0449C325.507 83.0449 326.594 87.416 352.281 83.7442Z" fill="#4BA2F4"/>
<path d="M58.4066 217.694L55.4188 142.706H107.007L109.995 217.714L110.577 217.694L107.569 142.103H54.798L57.8052 217.714L58.4066 217.694Z" fill="#004E8C"/>
<path d="M55.962 142.706H107.55L104.562 217.694L105.164 217.714L108.171 142.103H55.38L52.3728 217.694L52.9742 217.714L55.962 142.706Z" fill="#004E8C"/>
<path d="M104.853 193.313H52.6832L55.671 118.033H107.86L104.853 193.313Z" fill="#C26C23"/>
<path d="M59.5707 193.313H111.76L108.753 118.033H56.5829L59.5707 193.313Z" fill="url(#paint1_linear)"/>
<path d="M103.359 164.173H100.74V184.163H103.359V164.173Z" fill="#E3F2FF"/>
<path d="M98.1598 166.407H95.5406V184.163H98.1598V166.407Z" fill="#E3F2FF"/>
<path d="M92.5335 169.321H89.9143V184.163H92.5335V169.321Z" fill="#E3F2FF"/>
<path d="M86.7519 172.992H84.1328V184.144H86.7519V172.992Z" fill="#E3F2FF"/>
<path d="M68.4952 170.642L67.9132 170.428L72.8605 156.538L83.5895 153.701L87.4503 138.451L95.7153 134.779L97.5778 122.929L98.1792 123.026L96.2585 135.207L87.9547 138.878L84.0939 154.187L73.3262 157.043L68.4952 170.642Z" fill="#E3F2FF"/>
<path d="M85.0834 152.924C85.646 153.604 85.549 154.634 84.8506 155.197C84.1715 155.761 83.1433 155.663 82.5806 154.964C82.018 154.284 82.115 153.254 82.8134 152.691C83.5119 152.128 84.5207 152.225 85.0834 152.924Z" fill="#FFB255"/>
<path d="M85.0445 155.43C84.2297 156.091 83.0268 155.974 82.3478 155.158C81.6881 154.342 81.8045 153.138 82.6194 152.458C83.4342 151.797 84.6371 151.914 85.3161 152.73C85.9952 153.546 85.8594 154.75 85.0445 155.43ZM83.0074 152.924C82.4448 153.39 82.3672 154.206 82.8134 154.77C83.279 155.333 84.0939 155.411 84.6565 154.964C85.2191 154.498 85.2967 153.682 84.8505 153.119C84.4043 152.555 83.57 152.477 83.0074 152.924Z" fill="#E3F2FF"/>
<path d="M88.983 137.732C89.5457 138.412 89.4487 139.442 88.7502 140.005C88.0712 140.568 87.0429 140.471 86.4802 139.772C85.9176 139.092 86.0146 138.062 86.7131 137.499C87.4115 136.936 88.4204 137.052 88.983 137.732Z" fill="#FFB555"/>
<path d="M88.9636 140.238C88.1488 140.899 86.9459 140.782 86.2669 139.966C85.6072 139.15 85.7236 137.946 86.5385 137.266C87.3533 136.605 88.5562 136.722 89.2353 137.538C89.8949 138.354 89.7785 139.578 88.9636 140.238ZM86.9265 137.752C86.3639 138.218 86.2863 139.034 86.7325 139.597C87.1981 140.161 88.013 140.238 88.5756 139.791C89.1383 139.325 89.2159 138.509 88.7696 137.946C88.304 137.363 87.4698 137.285 86.9265 137.752Z" fill="#E3F2FF"/>
<path d="M97.1509 133.983C97.7135 134.663 97.6165 135.692 96.9181 136.256C96.239 136.819 95.2108 136.722 94.6481 136.023C94.0855 135.343 94.1825 134.313 94.8809 133.75C95.56 133.186 96.5883 133.283 97.1509 133.983Z" fill="#FFB555"/>
<path d="M97.1122 136.469C96.2974 137.13 95.0945 137.013 94.4154 136.197C93.7558 135.382 93.8722 134.177 94.6871 133.497C95.5019 132.837 96.7048 132.953 97.3838 133.769C98.0435 134.604 97.9271 135.809 97.1122 136.469ZM95.0751 133.983C94.5124 134.449 94.4348 135.265 94.8811 135.828C95.3467 136.392 96.1615 136.469 96.7242 136.023C97.2868 135.556 97.3644 134.74 96.9182 134.177C96.4526 133.614 95.6183 133.516 95.0751 133.983Z" fill="#E3F2FF"/>
<path d="M74.3932 155.897C74.9559 156.577 74.8589 157.606 74.1604 158.17C73.4814 158.733 72.4531 158.636 71.8905 157.936C71.3278 157.256 71.4248 156.227 72.1233 155.663C72.8217 155.119 73.8306 155.217 74.3932 155.897Z" fill="#FFB455"/>
<path d="M74.3739 158.403C73.559 159.063 72.3561 158.947 71.677 158.131C71.0174 157.315 71.1338 156.11 71.9487 155.43C72.7635 154.77 73.9664 154.886 74.6455 155.702C75.3051 156.538 75.1887 157.742 74.3739 158.403ZM72.3367 155.916C71.7741 156.382 71.6965 157.198 72.1427 157.762C72.6083 158.325 73.4232 158.403 73.9858 157.956C74.5485 157.49 74.6261 156.674 74.1798 156.11C73.7142 155.547 72.8799 155.45 72.3367 155.916Z" fill="#E3F2FF"/>
<path d="M78.4481 140.782H64.6538C64.0135 140.782 63.4897 140.258 63.4897 139.617V138.587C63.4897 137.946 64.0135 137.421 64.6538 137.421H78.4481C79.0883 137.421 79.6122 137.946 79.6122 138.587V139.617C79.6122 140.258 79.0883 140.782 78.4481 140.782Z" fill="#EBEBEB"/>
<path d="M78.4481 134.935H64.6538C64.0135 134.935 63.4897 134.41 63.4897 133.769V132.739C63.4897 132.098 64.0135 131.574 64.6538 131.574H78.4481C79.0883 131.574 79.6122 132.098 79.6122 132.739V133.769C79.6122 134.41 79.0883 134.935 78.4481 134.935Z" fill="#EBEBEB"/>
<path d="M32.2536 79.4897C32.2536 79.4897 36.6771 81.6461 35.5907 87.5519C34.5042 93.4383 34.0192 94.2348 35.2414 96.5467C36.4637 98.8391 37.8994 108.669 36.8129 110.534C35.7071 112.399 23.1933 102.355 21.4471 93.924C19.7204 85.4926 22.553 81.7626 23.5425 80.3639C24.5319 78.9651 28.354 77.5081 32.2536 79.4897Z" fill="#0E2D3D"/>
<path d="M37 80C37.7135 77.8595 39.1405 76.6919 40.0486 75.2C40.4378 74.4865 40.6324 73.773 40.6324 72.9946C40.6324 68.1946 40.6324 63.3297 40.6324 58.5297C40.6324 56.5838 42.9676 56.2595 42.9676 56.2595L66.8378 56C66.8378 56 69.5622 56.4541 69.5622 58.7243C69.5622 64.1081 69.5622 69.427 69.5622 74.8108C69.5622 76.8865 67.1622 77.2108 67.1622 77.2108L46.6649 77.1459C46.6649 77.1459 41.6054 77.6649 39.3351 78.8973C38.6865 79.2216 38.0378 79.4811 37 80Z" fill="#F0F4FC"/>
<path d="M63.9189 66.5081C64.5027 66.7676 65.0216 67.0919 65.6054 67.3514C66.9676 68.0649 66.9676 69.3622 66.8378 70.6595C66.7081 71.827 65.6703 71.6324 64.8919 71.7622C63.2703 72.0865 61.5838 72.0216 59.8973 71.7622C59.1189 71.6324 57.9514 71.827 57.8865 70.5297C57.8216 69.2324 57.7568 67.9351 59.1838 67.2216C59.7676 66.9622 60.2865 66.6378 60.8703 66.3784C61.973 66.3784 62.9459 66.3784 63.9189 66.5081Z" fill="#7292F7"/>
<path d="M61.2594 65.9892C60.4162 64.9513 60.2865 63.7838 60.4162 62.5513C60.4811 61.4486 61.1946 60.8 62.2324 60.8649C63.2054 60.9297 64.2432 61.2541 64.3729 62.6162C64.5027 63.8486 64.2432 64.8865 63.5946 65.9243C62.6216 67.0919 62.3621 67.0919 61.2594 65.9892Z" fill="#7292F7"/>
<path d="M47.3784 63.0054C46.4054 63.0054 45.4324 63.0054 44.4595 63.0054C43.8108 63.0054 43.3568 62.6162 43.3568 61.9027C43.3568 61.1892 43.8108 60.8 44.5243 60.8C46.4703 60.8 48.4811 60.8 50.427 60.8C51.0757 60.8 51.5946 61.0594 51.6595 61.773C51.6595 62.6162 51.2054 62.9405 50.427 62.9405C49.3243 63.0054 48.3513 63.0054 47.3784 63.0054Z" fill="#C5CFEF"/>
<path d="M48.8702 67.4162C50.5567 67.4162 52.1784 67.4162 53.8648 67.4162C54.3838 67.4162 54.9027 67.4811 54.9027 68.1297C54.9027 68.7784 54.3838 68.9081 53.8648 68.9081C50.4919 68.9081 47.1189 68.9081 43.6811 68.9081C43.1621 68.9081 42.6432 68.7135 42.7081 68.0649C42.7081 67.4811 43.227 67.4162 43.6811 67.4162C45.4324 67.4162 47.1838 67.4162 48.8702 67.4162Z" fill="#C5CFEF"/>
<path d="M48.7405 71.2433C47.2486 71.2433 45.6919 71.2433 44.2 71.2433C43.6162 71.2433 42.8378 71.3081 42.773 70.5297C42.7081 69.6865 43.4865 69.7514 44.0703 69.7514C47.3135 69.7514 50.5568 69.7514 53.8 69.7514C54.3838 69.7514 55.0324 69.7514 54.9676 70.4649C54.9676 71.1784 54.3189 71.1784 53.7351 71.1784C52.0486 71.2433 50.3622 71.2433 48.7405 71.2433Z" fill="#C5CFEF"/>
<path d="M61.3944 124.075C61.3944 124.075 63.0047 124.386 63.548 123.628C64.0136 122.987 65.0807 122.501 65.4105 122.346C65.8567 122.152 66.9626 121.025 67.2148 121.569C67.4864 122.113 65.4687 123.511 65.1001 123.9C64.7314 124.269 67.0596 124.444 67.467 124.813C67.8745 125.182 67.37 129.029 65.7791 128.737C64.1882 128.446 62.6943 127.067 62.4033 127.067C62.1123 127.067 61.2392 126.892 61.2392 126.892L61.3944 124.075Z" fill="#EEA886"/>
<path d="M67.1372 124.638C67.1372 124.638 71.9293 125.882 72.1815 126.231C72.4337 126.581 72.3561 126.834 71.8905 126.736C71.4443 126.639 67.2148 125.668 67.2148 125.668C67.2148 125.668 72.6472 128.096 72.9188 128.329C73.074 128.465 72.9382 128.971 72.7054 128.951C72.4532 128.912 66.9432 126.834 66.9432 126.834C66.9432 126.834 72.0069 129.107 72.1815 129.379C72.3173 129.612 72.0845 130.039 71.6965 129.903C71.3085 129.767 66.4969 127.921 66.4969 127.921C66.4969 127.921 70.0862 129.806 70.0862 130.117C70.0862 130.311 69.9892 130.758 69.0773 130.233C68.1655 129.709 65.8955 128.718 65.8955 128.718L67.1372 124.638Z" fill="#EEA886"/>
<path d="M19.4877 133.808C19.4877 133.808 16.2282 138.062 15.3358 143.094C14.4433 148.126 15.8596 165.027 15.8208 167.514C15.782 170.001 13.4733 176.198 13.9389 180.88C14.4045 185.562 16.2282 208.913 16.2282 208.913L21.2338 207.922C21.2338 207.922 20.9428 184.124 21.2338 182.162C21.5248 180.2 22.1068 173.012 22.2232 172.215C22.3396 171.399 29.5569 150.127 29.5569 146.494C29.5375 142.861 27.3452 127.883 19.4877 133.808Z" fill="#1D3B54"/>
<path d="M35.8623 135.459C35.8623 135.459 41.2171 155.935 41.8573 158.772C42.4976 161.608 43.4094 163.939 43.4094 165.144C43.4094 167.941 42.3812 172.429 42.3812 172.429L35.5713 205.008H29.0913C29.0913 205.008 32.6999 185.465 32.7969 181.638C32.8939 177.81 35.8429 172.371 35.2609 170.739C34.6789 169.126 25.9483 150.418 25.9483 150.418C25.9483 150.418 19.3518 129.515 35.8623 135.459Z" fill="#1D3B54"/>
<path d="M33.6506 100.685C33.6506 100.685 35.8623 100.898 37.5308 102.686C39.1993 104.473 40.7708 107.329 41.1977 108.281C41.6439 109.233 47.7553 118.091 48.0851 118.286C48.3956 118.48 51.4804 119.51 53.5175 120.209C56.6605 121.277 62.9853 123.57 62.9853 123.57L61.7243 127.552C61.7243 127.552 49.8507 123.667 46.8823 122.929C43.2542 122.035 34.8728 111.292 34.8728 111.292C34.8728 111.292 28.645 103.929 33.6506 100.685Z" fill="#285173"/>
<path d="M29.8091 99.1304C29.8091 99.1304 32.6611 100.49 33.67 100.685C34.6595 100.879 38.5203 105.891 39.1994 107.717C39.8784 109.543 39.1994 112.302 37.8025 115.507C36.4056 118.732 37.7249 119.801 37.0846 123.026C36.4444 126.251 36.6578 138.295 36.7742 140.102C36.8906 141.889 18.1684 144.609 14.4821 141.346C14.4821 141.346 16.9849 130.486 19.9533 127.377C20.5935 126.697 20.5353 122.229 20.0891 121.122C19.6429 120.015 14.7343 111.7 14.7343 111.7C14.7343 111.7 14.3657 103.268 16.5193 101.598C18.3818 100.141 23.4843 99.6355 24.3962 99.3053C25.2692 98.975 27.9272 98.839 29.8091 99.1304Z" fill="#FFBF55"/>
<path d="M31.1672 95.8278C31.1672 95.8278 31.0896 96.6244 30.9926 97.6734C30.9538 98.1008 30.915 98.5671 30.8762 99.0333C30.7598 100.471 30.6628 102.006 30.721 102.783C30.721 102.783 27.7526 105.775 24.3768 99.3053C24.3768 99.3053 25.7931 96.6438 24.726 93.0109C23.6395 89.378 31.1672 95.8278 31.1672 95.8278Z" fill="#EEA886"/>
<path d="M39.4903 116.712C39.4903 116.712 40.2082 111.952 39.4515 109.058C39.4515 109.058 39.4515 111.544 38.0934 115.08L39.4903 116.712Z" fill="#183C59"/>
<path d="M22.068 99.7521C22.068 99.7521 24.1051 105.794 29.7315 105.347C35.3385 104.9 32.3895 100.238 32.3895 100.238C32.3895 100.238 30.9926 99.4413 30.6045 99.3636C30.2165 99.2859 24.3961 99.2082 24.3961 99.2082L22.068 99.7521Z" fill="#EEA886"/>
<path d="M32.3895 100.257C32.3895 100.257 35.3385 108.397 35.3385 116.712C35.3385 125.007 35.5713 138.529 36.5996 142.803C37.6279 147.077 40.5575 160.287 40.5575 160.287L42.8468 159.102C42.8468 159.102 37.3368 138.024 36.9294 136.508C36.522 134.993 37.2398 118.927 37.6473 117.586C38.0353 116.246 39.7232 110.262 39.4516 108.592C39.1218 106.493 37.1622 103.404 33.9998 100.743L32.3895 100.257Z" fill="#285173"/>
<path d="M23.1932 99.4996C23.1932 99.4996 25.017 105.367 25.9482 112.865C26.8795 120.364 23.0962 155.217 20.5741 163.123L10.7764 161.55C10.7764 161.55 12.8912 136.916 15.7432 132.448C18.6145 127.96 19.507 123.997 16.4222 114.653C13.3374 105.308 17.7803 100.665 17.7803 100.665C17.7803 100.665 22.3202 99.5967 23.1932 99.4996Z" fill="#285173"/>
<path d="M33.7476 124.366L21.874 144.959L8.68115 137.324L20.0309 116.421L33.7476 124.366Z" fill="#616161"/>
<path d="M32.3119 125.066L21.777 143.347L10.0586 136.586L20.1473 118.033L32.3119 125.066Z" fill="#E0CEC7"/>
<path d="M28.4317 123.414L29.1689 122.132L24.435 119.393L23.5037 120.578L28.4317 123.414Z" fill="#616161"/>
<path d="M27.869 138.043C27.869 138.043 27.3258 138.043 27.093 137.926C27.093 137.926 26.6855 137.693 26.3751 137.538C26.2781 137.48 26.2005 137.441 26.1423 137.421C25.9095 137.344 25.3468 137.227 24.823 136.858C24.2992 136.489 22.4366 134.332 22.4366 134.332L23.3097 132.992L23.9499 131.632C23.9499 131.632 27.8496 131.885 28.3734 132.176C28.4316 132.195 28.4704 132.234 28.5287 132.273C28.9555 132.565 29.1495 132.953 29.3629 133.128C29.4405 133.186 30.139 133.886 30.1196 134.177C30.0808 134.585 29.9061 134.857 29.6539 134.993C29.6539 134.993 29.5569 135.789 29.1689 136.159C29.1689 136.159 29.0913 136.897 28.4898 137.227C28.451 137.188 28.2958 137.926 27.869 138.043Z" fill="#EEA886"/>
<path d="M19.8175 100.685C19.8175 100.685 16.2088 99.655 14.1523 103.638C12.0958 107.62 12.0958 109.31 11.8241 111.253C11.5719 113.079 10.3884 118.091 10.272 118.616C10.1556 119.14 7.47825 125.299 8.70053 127.455C9.92281 129.631 22.4172 136.003 22.3396 136.469C22.262 136.955 24.4932 131.651 24.4932 131.651C24.4932 131.651 19.4488 128.835 18.6146 127.96C17.2759 126.542 14.4433 125.027 15.0253 123.278C15.7044 121.219 17.7609 114.303 18.246 113.273C18.7116 112.263 22.8635 101.967 19.8175 100.685Z" fill="#285173"/>
<path d="M31.6134 80.1502C31.6134 80.1502 38.0352 82.1706 34.543 93.2635C31.0508 104.356 22.2814 91.9813 23.2127 85.2206C24.1245 78.46 31.6134 80.1502 31.6134 80.1502Z" fill="#EEA987"/>
<path d="M35.2027 86.6194C35.2027 86.6194 32.0209 89.7472 26.6662 90.1551C26.6662 90.1551 24.6096 92.5641 24.4544 93.516C24.4544 93.516 19.7011 85.3955 25.5409 80.5192C31.4195 75.6236 37.3563 84.6184 35.2027 86.6194Z" fill="#0E2D3D"/>
<path d="M26.7438 90.3688C26.705 89.5529 26.2005 87.7267 24.9977 88.2318C23.7948 88.7369 25.0753 92.4864 25.8707 92.2533C25.8707 92.2727 26.8408 92.2727 26.7438 90.3688Z" fill="#EEA987"/>
<path d="M30.9926 97.6734C30.9538 98.1008 30.915 98.5671 30.8762 99.0333C30.8762 99.0333 28.0436 98.8585 26.1423 94.6427C26.2587 94.837 28.3346 97.8871 30.9926 97.6734Z" fill="#A77860"/>
<path d="M467.968 150.637H490.085V149.316H467.968V150.637Z" fill="#E2D2CA"/>
<path d="M487.139 154.07H485.199V213.848H487.139V154.07Z" fill="#706865"/>
<path d="M456.071 150.823H471.437V148.939H456.071V150.823Z" fill="#CCBDB7"/>
<path d="M460.844 150.646H466.664V132.948H460.844V150.646Z" fill="#CCBDB7"/>
<path d="M412.869 154.053H498.021V150.653H412.869V154.053Z" fill="#B59074"/>
<path d="M514.379 130.097C514.379 130.097 515.31 143.172 512.749 144.745C511.158 145.717 504.775 149.039 504.969 149.661C505.163 150.282 508.578 155.178 508.578 155.178C508.578 155.178 520.82 147.096 521.208 144.551C521.596 142.064 520.606 125.396 518.918 124.638C517.657 124.055 516.998 124.541 515.407 125.726C513.176 127.358 514.379 130.097 514.379 130.097Z" fill="#323657"/>
<path d="M492.048 133.827L490.961 133.419C490.961 133.419 492.3 130.253 492.901 130.33C493.58 130.428 494.415 130.641 494.415 130.641L492.048 133.827Z" fill="#EAD8CF"/>
<path d="M491.815 134.371C491.951 134.274 494.104 130.136 494.104 130.136L498.702 130.758L496.219 135.673L491.815 134.371Z" fill="#DA9B5B"/>
<path d="M512.807 159.957C512.807 159.957 497.577 162.541 494.143 163.085C490.709 163.629 472.064 168.272 469.717 169.69C467.854 170.817 470.687 197.879 471.347 208.214H478.7L479.223 177.247C488.032 177.461 494.318 175.188 500.739 176.159C507.161 177.13 512.516 178.529 516.59 173.051C516.61 173.031 516.765 161.161 512.807 159.957Z" fill="#292C47"/>
<path d="M497.81 208.233L504.969 207.787L505.667 177.228C509.47 177.325 510.77 177.072 513.835 176.703L519.617 163.26C514.553 164.27 498.334 168.369 496.161 169.69C494.298 170.817 497.15 197.898 497.81 208.233Z" fill="#292C47"/>
<path d="M505.803 102.822C505.803 102.822 500.216 101.267 498.101 105.619C495.967 109.951 496.937 118.189 499.75 118.966C502.563 119.743 506.599 118.849 507.782 116.149C508.946 113.448 509.877 109.602 509.606 107.134C509.315 104.628 507.278 103.404 505.803 102.822Z" fill="#EEA886"/>
<path d="M501.205 118.072C501.205 118.072 501.263 121.374 500.895 122.074C500.526 122.773 508.675 122.598 508.675 122.598C508.675 122.598 507.394 118.635 508.112 115.255C508.83 111.933 501.205 118.072 501.205 118.072Z" fill="#EEA886"/>
<path d="M508.558 114.012C508.558 114.012 508.131 114.905 506.017 114.75C503.902 114.614 501.128 112.069 500.235 111.836C499.343 111.603 499.284 111.098 499.284 111.098L498.819 111.933L497.907 112.069C497.907 112.069 498.528 109.524 497.17 108.63C495.812 107.737 497.771 100.51 504.639 102.239C504.639 102.239 509.877 103.191 509.955 106.124C510.033 109.058 509.567 112.477 508.558 114.012Z" fill="#3A3F47"/>
<path d="M500.468 121.996C500.468 121.996 500.487 120.656 501.108 120.52C501.71 120.384 507.511 119.587 508.248 119.879L508.578 121.646C508.558 121.666 507.123 122.56 500.468 121.996Z" fill="#E2D2CA"/>
<path d="M498.799 110.515C498.955 109.407 500.216 108.145 500.914 109.854C501.632 111.564 500.429 114.07 499.634 113.934C498.838 113.798 498.586 112.011 498.799 110.515Z" fill="#EEA886"/>
<path d="M476.236 137.868C476.197 137.888 476.197 137.888 476.236 137.868V137.868Z" fill="#323657"/>
<path d="M507.433 103.599C507.433 103.599 514.243 103.268 508.616 113.915L507.433 103.599Z" fill="#3A3F47"/>
<path d="M499.972 205.627H502.397V182.333H499.972V205.627Z" fill="#918783"/>
<path d="M494.016 182.48H508.353V181.101H494.016V182.48Z" fill="#5E5854"/>
<path d="M486.654 181.094H515.504C516.92 181.094 518.065 179.947 518.065 178.529V178.471C518.065 177.053 516.92 175.907 515.504 175.907H486.654C485.238 175.907 484.093 177.053 484.093 178.471V178.529C484.093 179.947 485.238 181.094 486.654 181.094Z" fill="#E2D2CA"/>
<path d="M423.766 213.826H425.706V154.049H423.766V213.826Z" fill="#706865"/>
<path d="M441.178 141.462H486.324C487.741 141.462 488.885 140.316 488.885 138.898V108.533C488.885 107.115 487.741 105.969 486.324 105.969H441.178C439.761 105.969 438.617 107.115 438.617 108.533V138.917C438.636 140.316 439.781 141.462 441.178 141.462Z" fill="#F2E2D9"/>
<path d="M440.589 135.894H486.919V107.88H440.589V135.894Z" fill="#F5F7FF"/>
<path d="M463.767 139.766C464.667 139.755 465.388 139.016 465.377 138.115C465.366 137.214 464.628 136.492 463.728 136.503C462.828 136.513 462.107 137.253 462.118 138.154C462.129 139.055 462.867 139.777 463.767 139.766Z" fill="#918681"/>
<path d="M453.362 150.71V150.068C453.362 150.068 454.254 146.144 460.521 146.144C466.787 146.144 466.671 150.71 466.671 150.71H453.362Z" fill="#E2D2CA"/>
<path d="M466.729 146.727C466.729 146.727 465.371 146.63 464.867 146.319C464.362 146.008 461.374 144.007 460.676 144.318C459.977 144.648 455.302 146.066 455.457 146.766C455.612 147.446 456.058 147.387 456.388 147.271C456.718 147.154 460.113 146.436 460.404 146.552C460.404 146.552 457.067 147.776 457.067 148.65C457.067 149.524 457.766 149.758 458.076 150.088C458.386 150.418 458.774 151.254 459.628 151.312C460.482 151.37 464.673 149.913 465.546 149.855C466.399 149.796 468.01 149.913 468.107 149.777C468.223 149.641 466.729 146.727 466.729 146.727Z" fill="#EEA886"/>
<path d="M491.543 123.861C495.889 123.104 500.468 121.996 500.468 121.996L508.558 121.666C508.558 121.666 515.989 123.298 518.919 124.619C519.19 124.735 519.19 131.263 519.966 132.953L517.541 138.082C517.541 138.082 516.144 148.223 515.853 152.749C515.717 154.828 516.222 172.779 516.222 172.779C516.222 172.779 515.504 173.128 509.975 173.75C504.445 174.352 490.651 173.536 490.554 172.876C490.457 172.215 493.231 148.553 493.348 147.329C493.542 145.445 492.804 136.761 492.804 136.761C491.757 138.16 489.118 144.473 486.344 147.485C484.714 149.252 476.662 150.34 475.149 150.399C471.851 150.515 465.817 151.176 465.643 150.845C465.507 150.651 465.119 145.484 465.487 145.367C465.817 145.25 477.012 144.609 479.883 143.094C480.931 142.531 484.074 135.692 484.074 135.692C484.074 135.692 489.157 124.93 491.543 123.861Z" fill="#323657"/>
<path d="M507.491 172.254H521.072C523.788 172.254 526 170.04 526 167.32V144.687C526 141.967 523.788 139.753 521.072 139.753H507.491C504.775 139.753 502.563 141.967 502.563 144.687V167.32C502.583 170.059 504.775 172.254 507.491 172.254Z" fill="#E2D2CA"/>
<path d="M506.734 179.811C510.188 179.811 512.982 178.646 515.058 176.353C519.733 171.166 518.899 162.074 518.86 161.686C518.783 160.967 518.142 160.443 517.444 160.52C516.726 160.598 516.202 161.239 516.28 161.938C516.299 162.036 517.036 170.292 513.137 174.605C511.565 176.353 509.47 177.189 506.754 177.189C506.036 177.189 505.454 177.772 505.454 178.49C505.454 179.209 506.017 179.811 506.734 179.811Z" fill="#E2D2CA"/>
<path d="M470.435 111.603H483.278C483.472 111.603 483.647 111.447 483.647 111.234V110.495C483.647 110.301 483.492 110.126 483.278 110.126H470.435C470.241 110.126 470.066 110.282 470.066 110.495V111.234C470.066 111.428 470.221 111.603 470.435 111.603Z" fill="#DFE1E8"/>
<path d="M470.435 114.769H483.278C483.472 114.769 483.647 114.614 483.647 114.4V113.662C483.647 113.468 483.492 113.293 483.278 113.293H470.435C470.241 113.293 470.066 113.448 470.066 113.662V114.4C470.066 114.614 470.221 114.769 470.435 114.769Z" fill="#DFE1E8"/>
<path d="M471.288 133.672H482.386C483.065 133.672 483.628 133.128 483.628 132.429V118.15C483.628 117.47 483.084 116.906 482.386 116.906H471.288C470.609 116.906 470.047 117.45 470.047 118.15V132.429C470.066 133.128 470.609 133.672 471.288 133.672Z" fill="#DFE1E8"/>
<path d="M445.116 133.672H465.371C466.457 133.672 467.331 132.798 467.331 131.71V112.069C467.331 110.981 466.457 110.107 465.371 110.107H445.116C444.03 110.107 443.156 110.981 443.156 112.069V131.71C443.156 132.798 444.03 133.672 445.116 133.672Z" fill="#DFE1E8"/>
<path d="M180.444 114.187L167.697 121.2L154.912 101.034L170.374 95.653L180.444 114.187Z" fill="#292C47"/>
<path d="M179.629 113.584L167.716 120.151L155.746 101.287L170.219 96.2552L179.629 113.584Z" fill="#E2D2CA"/>
<path d="M183.994 110.068C183.994 110.068 181.782 108.999 180.812 108.456C179.842 107.892 177.339 107.134 177.126 106.96C176.932 106.785 169.695 106.338 169.269 105.949C168.822 105.58 168.395 106.843 170.277 107.251C172.14 107.659 174.759 108.669 174.895 109.388C175.031 110.126 172.974 110.301 172.761 110.903C172.547 111.506 172.819 111.37 173.11 111.506C173.401 111.642 175.574 110.437 176.525 110.787C177.475 111.117 178.93 110.651 179.648 110.903C180.385 111.156 183.917 112.341 183.917 112.341L183.994 110.068Z" fill="#EEA886"/>
<path d="M167.076 118.674C167.076 118.674 165.214 117.003 164.321 116.285C163.429 115.585 161.721 113.507 161.469 113.39C161.217 113.273 157.996 106.629 157.453 106.357C156.929 106.085 157.958 105.192 159.063 106.804C160.169 108.417 162.129 110.476 162.885 110.321C163.623 110.165 162.982 108.145 163.467 107.717C163.953 107.29 163.933 107.581 164.166 107.814C164.399 108.048 164.108 110.554 164.806 111.311C165.505 112.069 165.621 113.623 166.145 114.225C166.669 114.808 169.171 117.683 169.171 117.683L167.076 118.674Z" fill="#EEA886"/>
<path d="M203.531 136.45C203.531 136.45 207.702 143.075 207.392 149.058C207.082 155.042 208.905 161.589 209.526 167.844C210.225 174.819 213.077 191.332 213.174 195.062C213.271 198.792 212.727 210.701 212.727 210.701L207.004 210.837C207.004 210.837 202.212 181.968 200.97 179.015C199.728 176.062 193.559 155.061 193.365 152.711C193.151 150.36 203.531 136.45 203.531 136.45Z" fill="#292C47"/>
<path d="M181.608 137.344C181.608 137.344 178.465 153.76 178.057 157.431C177.65 161.103 177.359 175.168 177.165 177.461C176.951 179.753 175.787 207.437 174.681 210.856H181.996C181.996 210.856 187.603 190.729 187.603 181.21C187.603 171.691 191.929 160.501 194.723 154.226C197.517 147.951 203.919 147.795 205.646 136.139C205.626 136.1 183.936 133.653 181.608 137.344Z" fill="#292C47"/>
<path d="M196.585 80.733C196.585 80.733 190.998 78.6348 188.418 82.9088C185.837 87.1634 186.089 95.6919 188.903 96.741C191.716 97.7901 195.945 97.2461 197.4 94.5846C198.836 91.9231 200.155 88.057 200.078 85.4926C200.02 82.9088 198.041 81.4712 196.585 80.733Z" fill="#EEA886"/>
<path d="M189.504 96.9352C189.504 96.9352 189.737 98.4505 189.349 99.1887C188.961 99.927 196.585 99.9464 196.585 99.9464C196.585 99.9464 197.206 95.9056 198.37 92.467C199.534 89.0284 189.504 96.9352 189.504 96.9352Z" fill="#EEA886"/>
<path d="M198.39 92.4864C198.39 92.4864 197.866 93.3606 195.712 93.0109C193.559 92.6806 190.94 89.8054 190.047 89.4946C189.155 89.1838 189.135 88.6592 189.135 88.6592L188.573 89.4752L187.622 89.5335C187.622 89.5335 188.495 86.9691 187.176 85.92C185.857 84.871 188.534 77.6247 195.421 80.0336C195.421 80.0336 200.718 81.4907 200.524 84.5019C200.349 87.5519 199.573 90.9905 198.39 92.4864Z" fill="#3A3F47"/>
<path d="M188.903 99.111C188.903 99.111 188.922 97.6929 189.562 97.5569C190.202 97.4209 196.663 96.7992 197.459 97.1101V98.7613C197.459 98.7613 195.945 99.6938 188.903 99.111Z" fill="#E2D2CA"/>
<path d="M189.291 87.5713C189.407 87.0662 190.687 85.6287 191.192 87.1634C191.677 88.7175 190.455 90.7962 189.756 90.6214C189.058 90.4465 188.98 88.8535 189.291 87.5713Z" fill="#EEA886"/>
<path d="M163.254 115.916C163.215 115.935 163.215 115.935 163.254 115.916V115.916Z" fill="#323657"/>
<path d="M208.226 152.225C208.226 152.225 204.792 153.235 198.952 153.876C193.113 154.517 178.504 153.643 178.407 152.944C178.309 152.244 181.55 127.183 181.355 125.901C181.181 124.619 181.064 120.015 181.064 120.015C180.987 121.277 179.706 126.426 178.154 129.223C177.592 130.233 175.71 133.419 174.817 132.701C170.433 129.204 163.662 116.013 163.235 115.916C163.603 115.76 166.455 114.439 166.843 114.303C167.193 114.187 170.355 117.528 172.256 119.607C173.11 120.539 173.711 121.2 173.711 121.2C174.255 119.956 176.272 112.108 176.893 109.407C178.309 103.288 178.096 103.035 178.096 103.035C182.364 101.734 188.864 99.1111 188.864 99.1111L197.439 98.7614C197.439 98.7614 205.297 100.49 208.401 101.889C208.692 102.025 208.692 108.922 209.507 110.728L206.946 116.149C206.946 116.149 205.471 126.892 205.161 131.671C205.025 133.847 208.226 152.225 208.226 152.225Z" fill="#FFDF69"/>
<path d="M209.875 119.665C209.643 120.384 208.634 121.005 207.974 121.258C207.547 121.433 207.082 121.491 206.597 121.394L206.267 121.336L200.388 120.248C200.388 120.248 199.108 105.444 208.401 101.889C208.672 101.967 211.932 113.04 209.875 119.665Z" fill="#FFDF69"/>
<path d="M207.974 121.258C207.547 121.433 207.082 121.491 206.597 121.394L206.267 121.336L206.849 113.759L207.974 121.258Z" fill="#AB9546"/>
<path d="M173.75 121.219L173.032 124.269C173.032 124.269 172.256 121.219 172.295 119.626C173.149 120.539 173.75 121.219 173.75 121.219Z" fill="#AB9546"/>
<path d="M198.176 81.238C198.176 81.238 205.51 80.325 198.293 92.5641L198.176 81.238Z" fill="#3A3F47"/>
<path d="M160.79 99.9658L160.053 98.6836L165.912 96.6438L166.649 97.926L160.79 99.9658Z" fill="#292C47"/>
</g>
<defs>
<linearGradient id="paint0_linear" x1="229.985" y1="8.71436" x2="303.629" y2="8.71436" gradientUnits="userSpaceOnUse">
<stop stop-color="#FF9F55"/>
<stop offset="1" stop-color="#FFD255"/>
</linearGradient>
<linearGradient id="paint1_linear" x1="107.438" y1="178.971" x2="36.9174" y2="108.545" gradientUnits="userSpaceOnUse">
<stop stop-color="#FF9F55"/>
<stop offset="1" stop-color="#FFD255"/>
</linearGradient>
</defs>
</svg>
