<svg width="337" height="187" viewBox="0 0 337 187" fill="none" xmlns="http://www.w3.org/2000/svg">
<path d="M155.701 50.674C156.556 45.3854 152.963 40.4046 147.674 39.549C142.385 38.6935 137.405 42.2872 136.549 47.5758C135.694 52.8644 139.287 57.8452 144.576 58.7007C149.864 59.5562 154.845 55.9625 155.701 50.674Z" fill="#B1C7F2"/>
<path d="M24.7552 59.6333C41.0158 34.363 81.7122 21.8171 102.137 38.7265C118.673 52.2713 119.757 83.3932 110.255 89.4819C101.291 95.1233 86.2777 76.5359 74.3485 82.6737C62.3397 89.0372 70.3763 112.306 57.4566 118.735C47.2883 123.835 31.1667 117.393 22.9876 107.487C11.1714 92.7857 17.056 71.4048 24.7552 59.6333Z" fill="#B1C7F2"/>
<path d="M303.118 96.2569C284.379 133.263 230.344 156.241 199.878 135.855C175.148 119.289 169.145 76.6605 181.367 67.1361C192.868 58.0558 216.263 81.8081 231.755 71.4603C247.247 61.1125 232.938 30.1671 249.617 19.4856C262.748 10.792 285.906 17.3912 298.514 30.0981C316.881 48.5991 311.907 78.9073 303.118 96.2569Z" fill="#B1C7F2"/>
<path d="M232.778 49.0683C234.133 40.6942 228.443 32.8074 220.068 31.4527C211.694 30.098 203.808 35.7884 202.453 44.1625C201.098 52.5366 206.789 60.4234 215.163 61.7781C223.537 63.1328 231.424 57.4424 232.778 49.0683Z" fill="#B1C7F2"/>
<path d="M178.9 168.7C178 171.9 176.4 175.9 176 179.5C175.6 183.1 182.3 185.2 183.2 183.4C183.3 183.2 181.8 181.9 183.1 178.5C184.6 174.5 185.4 172.7 184.7 170C184.1 167.9 179.4 166.8 178.9 168.7Z" fill="#AD7C63"/>
<path d="M232.5 113.2C232.5 113.2 221.9 118.7 215.1 118C208.3 117.3 191.5 115.2 185.4 121.5C179.2 127.8 154.6 158 155.8 160.2C157 162.4 184.4 184.1 190.2 182.3C196 180.4 221.7 154.3 228.2 150.3C234.7 146.4 244.4 141.6 244.4 141.6L232.5 113.2Z" fill="#AD7C63"/>
<path d="M126.6 106.7C126.6 106.7 145 116.5 152.9 117C160.8 117.5 174.6 116.3 184.5 119.1C194.4 121.8 185.9 126.6 189.4 130C192.9 133.4 217.5 147.7 221.3 150.2C225.1 152.7 226.1 155.9 223.5 158.1C220.9 160.3 217.9 159.6 213.1 156.9C208.3 154.2 199.3 147.7 198.7 149C198.2 150.4 214.1 160.3 216.3 162.2C218.5 164.1 218.9 167.1 215.3 169C211.7 170.9 208.6 171.1 205.6 169C202.5 166.9 192.1 159.3 190.9 160.5C189.7 161.7 196.4 165.3 200.6 168.5C204.6 171.5 207.6 172.5 208 174.9C208.3 177.3 204.6 181.5 198.4 179.5C194.8 178.3 185.1 171.1 183.6 172.1C182.1 173.1 197.7 179.4 197.5 181.9C197.3 184.4 194 188.6 184.5 184.1C178.8 181.3 143.8 156.7 140.1 154C136.5 151.3 105.6 135 105.6 135L126.6 106.7Z" fill="#F9D6AE"/>
<path d="M201.1 140.3C201.1 140.3 199.9 145.5 195.8 147.9C196.2 151 193.9 157.1 189 158.7C188.6 162.2 185.6 167.8 182.1 169" stroke="#EFBA92" stroke-width="0.9715" stroke-miterlimit="10" stroke-linecap="round" stroke-linejoin="round"/>
<path d="M161.7 123.2C161.6 121.7 168.7 121 173.4 119.4C178.2 117.8 186.5 115.3 193.3 115.6C200.1 115.9 208.5 117.7 214.2 118C219.9 118.3 215.7 124.7 210.2 126.3C204.7 127.9 192.7 132 189.3 130.1C185.8 128.2 182.8 127.4 177.4 127.8C172.1 128.2 162 126.7 161.7 123.2Z" fill="#AD7C63"/>
<path d="M303.286 141.581C312.913 137.839 313.515 116.277 304.63 93.4207C295.746 70.5642 280.741 55.0687 271.114 58.8104C261.488 62.5522 260.886 84.1143 269.77 106.971C278.654 129.827 293.66 145.323 303.286 141.581Z" fill="#3E4F82"/>
<path d="M293.3 126.5L308.1 119.9" stroke="#8C82D1" stroke-width="0.9715" stroke-miterlimit="10"/>
<path d="M239.7 106.3C239.7 106.3 234.5 108.3 232.5 108.9C231.1 109.3 229.5 110 228.6 110.3C228.2 110.4 228.1 110.9 228.2 111.2C229.5 114.2 235 126.4 236.3 129.5C237.8 133 241.9 144.1 242.4 144.8C242.9 145.4 255.1 140.6 255.1 140.6L239.7 106.3Z" fill="#6559D9"/>
<path d="M237.1 104.9L285.5 77.2999C285.5 77.2999 290.3 83.7999 289.9 90.6999C289.6 97.5999 295.9 101.4 295.7 113.4C295.6 118.9 300 123.8 300 123.8L253.8 143.8L237.1 104.9Z" fill="#8C82D1"/>
<path d="M290.9 73.8999L237.1 104.9" stroke="white" stroke-width="0.9715" stroke-miterlimit="10"/>
<path d="M244.3 121.5L270.2 109.6" stroke="#2C356B" stroke-width="0.9715" stroke-miterlimit="10"/>
<path d="M252.2 113.2C252.2 114.7 251 115.8 249.6 115.8C248.2 115.8 247 114.6 247 113.2C247 111.7 248.2 110.6 249.6 110.6C251 110.6 252.2 111.8 252.2 113.2Z" fill="white"/>
<path d="M249 112.5C249 112.6 248.9 112.8 248.7 112.8C248.5 112.8 248.4 112.7 248.4 112.5C248.4 112.4 248.5 112.2 248.7 112.2C248.9 112.2 249 112.4 249 112.5Z" fill="#2C356B"/>
<path d="M250.6 112.5C250.6 112.6 250.5 112.8 250.3 112.8C250.2 112.8 250 112.7 250 112.5C250 112.4 250.1 112.2 250.3 112.2C250.4 112.3 250.6 112.4 250.6 112.5Z" fill="#2C356B"/>
<path d="M249 113.9C249 114 248.9 114.2 248.7 114.2C248.5 114.2 248.4 114.1 248.4 113.9C248.4 113.8 248.5 113.6 248.7 113.6C248.9 113.6 249 113.8 249 113.9Z" fill="#2C356B"/>
<path d="M250.6 113.9C250.6 114 250.5 114.2 250.3 114.2C250.2 114.2 250 114.1 250 113.9C250 113.8 250.1 113.6 250.3 113.6C250.4 113.7 250.6 113.8 250.6 113.9Z" fill="#2C356B"/>
<path d="M262.5 108.9C262.5 110.4 261.3 111.5 259.9 111.5C258.5 111.5 257.2 110.3 257.2 108.9C257.2 107.4 258.4 106.3 259.9 106.3C261.4 106.3 262.5 107.4 262.5 108.9Z" fill="white"/>
<path d="M259.4 108.2C259.4 108.3 259.3 108.5 259.1 108.5C259 108.5 258.8 108.4 258.8 108.2C258.8 108 258.9 107.9 259.1 107.9C259.3 107.9 259.4 108.1 259.4 108.2Z" fill="#2C356B"/>
<path d="M260.9 108.2C260.9 108.3 260.8 108.5 260.6 108.5C260.5 108.5 260.3 108.4 260.3 108.2C260.3 108 260.4 107.9 260.6 107.9C260.8 107.9 260.9 108.1 260.9 108.2Z" fill="#2C356B"/>
<path d="M259.4 109.6C259.4 109.7 259.3 109.9 259.1 109.9C259 109.9 258.8 109.8 258.8 109.6C258.8 109.5 258.9 109.3 259.1 109.3C259.3 109.3 259.4 109.5 259.4 109.6Z" fill="#2C356B"/>
<path d="M260.9 109.6C260.9 109.7 260.8 109.9 260.6 109.9C260.5 109.9 260.3 109.8 260.3 109.6C260.3 109.5 260.4 109.3 260.6 109.3C260.8 109.3 260.9 109.5 260.9 109.6Z" fill="#2C356B"/>
<path d="M63.6 93.5C54.7 116.3 55.3 137.9 64.9 141.6C74.5 145.3 89.5 129.9 98.4 107C107.3 84.2 106.7 62.5999 97.1 58.8999C87.4 55.0999 72.4 70.6 63.6 93.5Z" fill="#3E4F82"/>
<path d="M74.9 126.5L60.1 119.9" stroke="#73FFD5" stroke-width="0.9715" stroke-miterlimit="10" stroke-linecap="round" stroke-linejoin="round"/>
<path d="M128.7 105.7C128.7 105.7 133.5 108.4 135.4 109.2C136.6 109.7 138.3 110.5 139.2 110.9C139.6 111 139.7 111.5 139.6 111.8C138.3 114.8 133.2 126.4 131.9 129.5C130.4 133 124.4 145.7 123.9 146.3C123.4 146.9 113.1 140.5 113.1 140.5L128.7 105.7Z" fill="#20BED6"/>
<path d="M131.1 104.9L82.6 77.2999C82.6 77.2999 82.2 86.1999 75.3 90.0999C69.3 93.4999 63.2 100.6 68.1 111.6C71.2 118.6 68.1 123.9 68.1 123.9L114.3 143.9L131.1 104.9Z" fill="#73FFD5"/>
<path d="M77.3 73.8999L131.1 104.9" stroke="white" stroke-width="0.9715" stroke-miterlimit="10" stroke-linecap="round" stroke-linejoin="round"/>
<path d="M123.9 121.5L97.9 109.6" stroke="#20BED6" stroke-width="0.9715" stroke-miterlimit="10"/>
<path d="M118.6 115.8C120.036 115.8 121.2 114.636 121.2 113.2C121.2 111.764 120.036 110.6 118.6 110.6C117.164 110.6 116 111.764 116 113.2C116 114.636 117.164 115.8 118.6 115.8Z" fill="white"/>
<path d="M119.1 112.5C119.1 112.6 119.2 112.8 119.4 112.8C119.5 112.8 119.7 112.7 119.7 112.5C119.7 112.4 119.6 112.2 119.4 112.2C119.3 112.3 119.1 112.4 119.1 112.5Z" fill="#2C356B"/>
<path d="M117.6 112.5C117.6 112.6 117.7 112.8 117.9 112.8C118 112.8 118.2 112.7 118.2 112.5C118.2 112.4 118.1 112.2 117.9 112.2C117.7 112.3 117.6 112.4 117.6 112.5Z" fill="#2C356B"/>
<path d="M119.1 113.9C119.1 114 119.2 114.2 119.4 114.2C119.5 114.2 119.7 114.1 119.7 113.9C119.7 113.8 119.6 113.6 119.4 113.6C119.3 113.7 119.1 113.8 119.1 113.9Z" fill="#2C356B"/>
<path d="M117.6 113.9C117.6 114 117.7 114.2 117.9 114.2C118 114.2 118.2 114.1 118.2 113.9C118.2 113.8 118.1 113.6 117.9 113.6C117.7 113.7 117.6 113.8 117.6 113.9Z" fill="#2C356B"/>
<path d="M105.6 108.9C105.6 110.4 106.8 111.5 108.3 111.5C109.8 111.5 110.9 110.3 110.9 108.9C110.9 107.4 109.7 106.3 108.3 106.3C106.8 106.3 105.6 107.4 105.6 108.9Z" fill="white"/>
<path d="M108.8 108.2C108.8 108.3 108.9 108.5 109.1 108.5C109.2 108.5 109.4 108.4 109.4 108.2C109.4 108 109.3 107.9 109.1 107.9C108.9 107.9 108.8 108.1 108.8 108.2Z" fill="#2C356B"/>
<path d="M107.2 108.2C107.2 108.3 107.3 108.5 107.5 108.5C107.7 108.5 107.8 108.4 107.8 108.2C107.8 108 107.7 107.9 107.5 107.9C107.3 107.9 107.2 108.1 107.2 108.2Z" fill="#2C356B"/>
<path d="M108.8 109.6C108.8 109.7 108.9 109.9 109.1 109.9C109.2 109.9 109.4 109.8 109.4 109.6C109.4 109.5 109.3 109.3 109.1 109.3C108.9 109.3 108.8 109.5 108.8 109.6Z" fill="#2C356B"/>
<path d="M107.2 109.6C107.2 109.7 107.3 109.9 107.5 109.9C107.7 109.9 107.8 109.8 107.8 109.6C107.8 109.5 107.7 109.3 107.5 109.3C107.3 109.3 107.2 109.5 107.2 109.6Z" fill="#2C356B"/>
<path d="M142.6 156.6C142.6 153 145.8 141.3 148.9 141.7C152 142 153.9 144.3 153.6 148.1C153.3 151.9 149.7 159.7 150.4 161C151.1 162.3 153 162.6 152 163.3C151 163.9 142.6 162 142.6 156.6Z" fill="#AD7C63"/>
<path d="M155.2 167.4C154.1 165.4 153.9 161.8 155.2 158.1C156.5 154.3 159.8 145.8 160.9 145.6C163.4 145 166.5 147.4 167.3 150.6C168.1 153.8 161 167.7 162 168.7C163 169.7 163.7 170.1 163.4 170.5C162.5 172.3 157 170.3 155.2 167.4Z" fill="#AD7C63"/>
<path d="M165.8 173.8C165.5 171.8 168.8 159.2 171.1 158.7C173.4 158.2 176 161 176.4 163.7C176.7 166.4 173.1 175.7 173.6 176.5C174 177.2 175.1 177.7 175 178.1C174.3 180.6 166.5 178.2 165.8 173.8Z" fill="#AD7C63"/>
</svg>
