<svg width="349" height="407" viewBox="0 0 349 407" fill="none" xmlns="http://www.w3.org/2000/svg">
<g opacity="0.15">
<path opacity="0.35" d="M60.5 372C93.9132 372 121 368.418 121 364C121 359.582 93.9132 356 60.5 356C27.0868 356 0 359.582 0 364C0 368.418 27.0868 372 60.5 372Z" fill="#333333"/>
<path opacity="0.45" d="M66.8487 407C102.125 407 130.723 401.256 130.723 394.17C130.723 387.084 102.125 381.34 66.8487 381.34C31.572 381.34 2.97461 387.084 2.97461 394.17C2.97461 401.256 31.572 407 66.8487 407Z" fill="#333333"/>
<path opacity="0.45" d="M162.867 394.17C209.572 394.17 247.434 390.032 247.434 384.927C247.434 379.822 209.572 375.684 162.867 375.684C116.161 375.684 78.2991 379.822 78.2991 384.927C78.2991 390.032 116.161 394.17 162.867 394.17Z" fill="#333333"/>
<path opacity="0.45" d="M348.695 358.439C348.695 363.957 317.654 368.372 279.302 368.372C240.95 368.372 209.91 363.957 209.91 358.439C209.91 352.921 240.95 348.506 279.302 348.506C317.654 348.506 348.695 352.921 348.695 358.439Z" fill="#333333"/>
</g>
<path d="M294.478 329.744H223.154V360.095H294.478V329.744Z" fill="#DDD5BF"/>
<path d="M102.58 331.124H9.32064V361.474H102.58V331.124Z" fill="#A8A392"/>
<path d="M102.718 321.605H32.7733L9.32064 331.124H102.718V321.605Z" fill="#7E7A6E"/>
<path d="M327.311 329.468H294.202V356.646H327.311V329.468Z" fill="#A8A392"/>
<path d="M316.551 302.153H223.154V329.882H316.551V302.153Z" fill="#E6E1CF"/>
<path d="M316.551 248.212H223.154V276.907H316.551V248.212Z" fill="#A8A392"/>
<path d="M293.098 240.624H223.154V248.212H316.551L293.098 240.624Z" fill="#7E7A6E"/>
<path d="M306.342 276.769H223.154V302.153H306.342V276.769Z" fill="#DDD5BF"/>
<path d="M274.336 234.14C274.336 234.14 273.094 234.83 273.094 236.347C273.094 237.865 272.405 240.21 272.405 241.314C272.405 242.417 272.68 246.556 280.82 246.004C288.959 245.452 287.028 241.314 287.028 240.348C287.028 239.382 285.786 236.485 285.235 235.657C284.683 234.83 283.717 233.726 282.751 233.864C281.786 234.002 274.336 234.14 274.336 234.14Z" fill="white"/>
<path d="M226.465 238.279C226.465 238.279 225.637 238.417 224.947 239.106C224.258 239.796 223.982 242.004 224.671 242.279C225.361 242.555 229.362 245.177 235.018 244.211C240.674 243.245 240.399 243.245 242.33 243.383C244.261 243.521 248.4 243.659 249.366 242.555C250.331 241.452 249.918 237.175 249.504 236.347C249.09 235.52 249.228 235.106 248.262 235.106C247.296 235.106 226.465 238.279 226.465 238.279Z" fill="white"/>
<path d="M238.053 95.9071C238.053 95.9071 235.708 103.219 236.398 108.047C237.088 112.876 272.956 114.255 272.956 114.255C272.956 114.255 275.44 113.152 274.612 107.633C273.646 102.115 270.473 98.6662 267.024 96.183C263.575 93.6998 262.886 89.975 260.126 85.5603C257.367 81.1457 250.745 68.3157 239.019 72.7303L238.053 95.9071Z" fill="#333333"/>
<path d="M239.433 225.725C239.433 225.725 240.537 232.347 239.433 233.45C238.329 234.554 243.434 235.658 243.434 235.658L246.055 232.485C246.055 232.485 245.365 226.828 245.365 225.725C245.365 224.621 239.433 225.725 239.433 225.725Z" fill="#DD9666"/>
<path d="M238.881 231.381C238.881 231.381 235.294 233.45 232.811 234.692C230.328 235.933 228.258 237.037 226.879 237.175C225.499 237.313 225.775 238.831 225.913 239.244C226.051 239.658 228.396 241.038 231.845 240.486C235.294 239.934 235.984 239.658 236.812 238.555C237.639 237.451 238.053 236.761 238.329 237.727C238.605 238.693 238.605 239.52 239.847 239.658C241.088 239.796 244.813 240.21 246.193 239.106C247.572 238.003 247.986 237.313 247.986 237.313C247.986 237.313 248.4 230.967 245.503 231.381C245.503 231.381 245.227 233.312 242.606 233.588C239.985 233.864 239.985 231.657 239.709 231.381C239.433 231.105 239.295 231.105 238.881 231.381Z" fill="#333333"/>
<path d="M275.026 227.38C275.026 227.38 276.129 232.071 275.854 232.898C275.578 233.726 280.958 233.588 280.958 233.588C280.958 233.588 280.406 227.242 280.13 226.552C279.854 225.863 275.026 227.38 275.026 227.38Z" fill="#DD9666"/>
<path d="M277.785 232.071C277.785 232.071 275.026 231.933 274.474 232.623C273.922 233.312 273.922 236.485 274.06 237.589C274.198 238.693 272.956 240.21 274.06 241.452C275.164 242.693 277.233 243.383 278.337 242.969C279.44 242.555 279.854 241.314 281.372 241.866C282.889 242.417 282.751 243.107 283.993 242.693C285.235 242.28 286.338 240.762 285.924 238.693C285.51 236.623 283.579 234.416 283.165 233.312C282.751 232.209 281.924 231.243 277.785 232.071Z" fill="#333333"/>
<path d="M239.709 149.159C239.709 149.159 231.569 168.61 231.293 183.51C231.018 198.409 236.122 223.241 236.26 224.621C236.398 226.001 241.502 228.484 247.434 226.138C247.434 226.138 251.297 213.171 251.435 205.721C251.573 198.271 249.504 190.408 250.607 187.097C251.711 183.786 254.056 171.37 254.746 171.921C255.436 172.473 259.299 192.477 260.402 196.202C261.506 199.927 267.852 224.897 270.611 227.104C273.37 229.312 275.164 228.898 275.164 228.898L280.544 227.38C280.544 227.38 283.027 227.932 283.993 221.724C284.959 215.516 284.131 205.859 282.475 200.892C280.82 195.926 276.543 183.924 276.405 180.475C276.267 177.026 273.922 161.437 272.543 155.78C271.163 150.124 266.61 146.813 266.61 146.813L251.987 146.675L239.709 149.159Z" fill="#333333"/>
<path d="M245.227 101.701C245.227 101.701 240.674 104.736 238.605 105.564C236.398 106.392 220.119 109.565 207.151 117.842C194.321 126.12 192.252 126.81 192.252 127.775C192.252 128.741 192.114 134.949 192.114 134.949C192.114 134.949 205.909 136.053 211.841 134.811C217.774 133.569 233.777 127.637 233.777 127.637C233.777 127.637 232.811 142.261 234.604 145.986C236.398 149.71 244.951 152.607 252.539 151.918C260.126 151.228 266.748 149.71 268.956 145.296C271.301 140.881 270.611 137.294 270.473 135.777C270.335 134.121 259.023 102.115 259.023 102.115C259.023 102.115 256.402 100.322 251.849 100.322L245.227 101.701Z" fill="#E0D9C3"/>
<path opacity="0.17" d="M270.473 135.915C270.611 137.57 271.301 141.157 268.956 145.434C266.61 149.848 260.126 151.366 252.539 152.056C244.951 152.745 236.26 149.848 234.604 146.123C232.949 142.399 233.777 127.775 233.777 127.775L238.605 117.015C238.605 117.015 240.123 115.911 241.088 114.807C242.054 113.704 243.709 114.669 244.951 114.945C246.193 115.221 245.503 120.601 250.883 121.843C256.264 123.085 259.988 118.256 260.402 116.463C260.816 114.669 270.473 135.915 270.473 135.915Z" fill="#333333"/>
<path d="M243.847 97.8385C243.847 97.8385 245.365 103.771 245.365 105.15C245.365 105.15 250.056 106.392 253.091 103.219C253.091 103.219 249.504 95.4933 249.366 94.8035C249.228 94.1137 243.847 97.8385 243.847 97.8385Z" fill="#C1845B"/>
<path d="M259.437 116.463C259.437 116.463 261.23 120.049 258.333 122.947C255.436 125.844 248.952 128.051 247.434 129.569C245.917 131.086 245.365 135.501 246.469 138.812C247.572 141.985 253.918 144.744 262.058 142.95C270.197 141.157 278.061 132.19 279.302 128.741C280.544 125.154 277.785 114.945 273.094 110.393C268.404 105.84 270.473 102.529 257.229 101.287C257.229 101.287 256.126 107.771 256.402 109.565C256.677 111.358 259.437 116.463 259.437 116.463Z" fill="#E0D9C3"/>
<path d="M234.19 87.3537C234.19 87.3537 235.294 90.5267 235.432 92.3201C235.57 94.1136 237.226 96.3209 239.295 97.2866C241.226 98.2523 242.744 98.942 243.985 98.8041C245.227 98.6661 248.4 97.7004 249.09 97.0107C249.78 96.3209 252.539 92.8719 251.711 88.4573C251.711 88.4573 255.022 87.0777 254.608 84.8704C254.194 82.6631 253.367 82.6631 252.125 82.939C251.021 83.2149 250.469 84.4566 250.469 84.4566L246.607 78.5244L240.537 76.593L236.674 77.8346L234.19 87.3537Z" fill="#DD9666"/>
<path d="M239.019 72.7303C239.019 72.7303 235.156 71.7646 232.811 75.9033C230.466 80.0421 229.086 82.6632 230.328 84.5946C231.431 86.526 232.535 88.5954 234.466 88.0436C236.398 87.4917 238.743 83.9048 239.019 80.4559C239.019 80.4559 243.71 84.7326 247.158 85.0085C250.607 85.2844 250.607 84.5946 251.159 84.1808C251.711 83.7669 253.229 80.7318 253.229 80.7318C253.229 80.7318 248.538 73.9719 248.124 73.9719C247.71 73.9719 239.019 72.7303 239.019 72.7303Z" fill="#333333"/>
<path d="M240.123 87.4916L240.812 92.3201C240.812 92.3201 241.916 93.4238 243.296 91.9063L241.364 87.2157C241.226 87.2157 240.399 86.5259 240.123 87.4916Z" fill="#A6714D"/>
<path d="M231.018 350.576H98.9927V387.134H231.018V350.576Z" fill="#FFA600"/>
<path d="M217.222 340.505H112.788L98.9927 350.576H231.018L217.222 340.505Z" fill="#FF8F00"/>
<path d="M231.018 277.458H98.9927V314.017H231.018V277.458Z" fill="#5CADA4"/>
<path d="M217.222 270.009H112.788L98.9927 277.458H231.018L217.222 270.009Z" fill="#45827B"/>
<path d="M231.018 211.101H98.9927V244.625H231.018V211.101Z" fill="#32A0FF"/>
<path d="M217.222 204.203H112.788L98.9927 211.101H231.018L217.222 204.203Z" fill="#1A8BFF"/>
<path d="M231.018 146.951H98.9927V180.475H231.018V146.951Z" fill="#E11415"/>
<path d="M217.222 140.053H112.788L98.9927 146.951H231.018L217.222 140.053Z" fill="#B00A0B"/>
<path d="M229.638 82.1113H97.6131V116.049H229.638V82.1113Z" fill="#FFA600"/>
<path d="M215.842 75.2135H111.409L97.6131 82.1113H229.638L215.842 75.2135Z" fill="#FF8F00"/>
<path d="M145.208 314.017H96.2335V350.576H145.208V314.017Z" fill="#9F28FF"/>
<path d="M145.208 350.576L155.417 340.505V314.017H145.208V350.576Z" fill="#8010FF"/>
<path d="M184.766 350.533H233.74V313.974H184.766V350.533Z" fill="#E11415"/>
<path d="M184.802 350.576L174.455 340.505V314.017H184.802V350.576Z" fill="#B00A0B"/>
<path d="M106.58 244.487H65.1932V277.458H106.58V244.487Z" fill="#E11415"/>
<path d="M106.58 277.458L116.789 270.009V244.487H106.58V277.458Z" fill="#B00A0B"/>
<path d="M184.766 277.521H233.74V244.549H184.766V277.521Z" fill="#FFA600"/>
<path d="M184.802 277.458L174.455 270.009V244.487H184.802V277.458Z" fill="#FF8F00"/>
<path d="M145.208 180.337H96.2335V211.239H145.208V180.337Z" fill="#FFA600"/>
<path d="M145.208 211.239L155.417 203.927V180.337H145.208V211.239Z" fill="#FF8F00"/>
<path d="M184.766 211.182H233.74V180.28H184.766V211.182Z" fill="#5CADA4"/>
<path d="M184.802 211.239L174.455 203.927V180.337H184.802V211.239Z" fill="#45827B"/>
<path d="M145.208 116.049H96.2335V146.951H145.208V116.049Z" fill="#32A0FF"/>
<path d="M145.208 146.951L155.417 139.639V116.049H145.208V146.951Z" fill="#1A8BFF"/>
<path d="M194.424 146.941H243.399V116.038H194.424V146.941Z" fill="#9F28FF"/>
<path d="M194.459 146.951L184.112 139.639V116.049H194.459V146.951Z" fill="#8010FF"/>
<path d="M184.388 123.636C184.388 123.636 180.663 124.464 180.525 128.327C180.387 132.19 181.215 133.017 182.595 133.983C183.974 134.949 188.251 135.225 188.803 135.087C189.354 134.811 191.424 130.81 190.32 128.879C189.217 126.947 186.457 126.395 186.457 126.395C186.457 126.395 188.665 125.982 188.527 124.878C188.389 123.636 188.113 123.36 187.285 123.498C186.457 123.636 184.94 123.636 184.388 123.636Z" fill="#DD9666"/>
<path d="M247.158 134.121C247.158 134.121 243.985 134.121 242.744 134.121C241.502 134.121 238.191 130.948 237.363 130.948C236.536 130.81 235.294 130.534 235.846 131.5C236.398 132.466 238.881 134.535 238.881 134.535C238.881 134.535 235.294 134.397 233.777 134.121C232.259 133.845 230.328 133.018 229.638 133.707C228.948 134.397 227.707 136.191 228.81 137.432C229.914 138.536 235.432 140.881 238.191 141.019C240.95 141.157 247.572 138.95 247.986 137.846C248.538 136.742 248.262 134.121 247.158 134.121Z" fill="#DD9666"/>
<path d="M125.067 28.3082C125.067 28.3082 126.446 28.3082 122.445 34.2403C118.445 40.1725 123.549 55.4857 123.549 55.4857L155.279 55.0718L150.727 37.8272L147.967 27.6184C147.967 27.6184 141.897 26.7906 138.172 26.9286C134.448 27.0666 125.067 28.3082 125.067 28.3082Z" fill="#E0D9C3"/>
<path opacity="0.17" d="M150.727 37.8272L155.279 55.0719L123.549 55.4857C123.549 55.4857 118.583 40.1725 122.445 34.2404C122.445 34.2404 122.445 44.4492 126.584 46.3806C130.723 48.312 137.759 48.174 143.277 46.7944C148.795 45.4149 150.727 37.8272 150.727 37.8272Z" fill="#333333"/>
<path d="M130.033 25.9629L130.171 29.2738C130.171 29.2738 133.482 33.2746 140.932 28.722L140.242 24.1694L130.033 25.9629Z" fill="#C1845B"/>
<path d="M127.274 9.27012L127.688 19.0651L131.137 23.6177L140.104 22.9279L142.587 19.0651L142.863 13.1329L142.035 7.47668H130.861L127.274 9.27012Z" fill="#DD9666"/>
<path d="M144.518 8.16639C144.518 5.82112 143.553 3.19994 141.483 1.82037C139.414 0.4408 137.483 0.302843 136.517 0.302843C135.551 0.302843 132.378 -0.662856 129.481 0.854671C126.584 2.3722 124.653 5.82112 124.791 7.47661C124.929 9.13209 125.894 8.85618 125.894 8.85618C125.894 8.85618 126.308 16.0299 126.308 18.2372C126.17 20.4446 125.067 28.1702 134.31 28.1702C143.553 28.1702 144.656 22.376 144.932 18.2372C144.794 14.0985 144.518 10.6496 144.518 8.16639ZM141.621 18.2372C141.207 19.8927 139.414 21.5482 134.448 21.9621C129.481 22.376 128.929 19.6168 128.24 18.927C127.688 18.0993 127.826 10.2357 127.826 10.2357L127.688 8.85618C127.688 8.85618 129.067 11.4774 134.586 11.0635C140.104 10.6496 140.794 8.30435 140.794 8.30435C140.794 8.30435 141.897 12.9949 141.897 13.8226C141.897 14.6504 142.035 16.7197 141.621 18.2372Z" fill="#333333"/>
<path d="M127 12.3977C127 12.3977 126.644 9.52154 126.316 10.0694C125.96 10.4803 125.905 12.8086 126.151 13.7673C126.398 14.863 127 15 127 15V12.3977Z" fill="#DD9666"/>
<path d="M144.03 11.8657L144 15C144 15 145.058 13.6941 144.998 11.3434C144.937 9.12327 144.363 9.90684 144.03 11.8657Z" fill="#DD9666"/>
<path d="M133.758 15.478L133.62 19.4788C133.62 19.4788 134.586 20.7204 135.551 19.4788L135.137 15.3401C134.999 15.3401 134.172 14.5123 133.758 15.478Z" fill="#A6714D"/>
<path d="M125.342 28.3081C125.342 28.3081 110.995 29.1358 106.994 42.9315C102.993 56.7272 102.855 59.3484 100.786 61.5557C98.7167 63.763 98.8547 69.2813 103.545 70.5229C108.236 71.7646 110.995 66.9361 110.995 66.9361L121.066 47.0703C121.066 47.0703 125.342 31.2052 125.342 28.3081Z" fill="#E0D9C3"/>
<path d="M160.384 51.209H111.409V82.1113H160.384V51.209Z" fill="#FB7400"/>
<path d="M160.384 82.1113L170.592 74.7996V51.209H160.384V82.1113Z" fill="#F45C00"/>
<path d="M105.615 65.8325C105.615 65.8325 102.993 68.7296 105.477 73.4201C107.96 78.1106 118.445 74.5238 119.134 73.2821C119.824 72.0405 121.066 69.2814 119.686 68.3157C118.307 67.35 115.41 67.212 113.754 67.0741C112.099 66.9361 116.099 65.4186 117.065 64.8668C118.031 64.177 118.169 62.7974 116.375 63.0733C114.582 63.3493 109.891 63.6252 105.615 65.8325Z" fill="#DD9666"/>
<path d="M146.864 27.3424C146.864 27.3424 159.004 26.2387 172.11 42.5177C185.216 58.7966 164.108 71.7645 161.487 72.5923C159.004 73.558 155.279 73.9719 154.589 73.2821C154.589 73.2821 153.624 67.7638 150.175 68.1777C150.175 68.1777 151.14 59.7623 155.141 54.9338C159.142 50.1053 153.21 45.2768 150.589 43.2074C148.243 41.1381 146.864 27.3424 146.864 27.3424Z" fill="#E0D9C3"/>
<path d="M151.14 67.2121C151.14 67.2121 150.589 69.1435 149.347 69.1435C148.105 69.1435 143.415 68.4537 142.449 69.0055C141.483 69.5574 140.932 70.5231 141.897 70.799C142.863 71.0749 146.726 71.3508 146.726 71.3508C146.726 71.3508 143.139 73.1443 140.656 73.5581C138.172 73.972 137.207 74.3859 137.207 77.0071C137.207 79.6282 138.586 80.456 143.415 80.8698C148.243 81.2837 152.796 78.6625 153.624 77.0071C154.451 75.3516 154.589 73.4202 154.589 73.4202L155.831 69.2815L153.072 66.6603L151.14 67.2121Z" fill="#DD9666"/>
<path d="M29.0485 386.307C29.0485 386.307 27.1171 388.514 26.1514 389.893C25.1857 391.273 29.3244 394.032 30.8419 394.446C32.3594 394.86 33.6011 394.584 33.6011 394.584C33.6011 394.584 33.6011 396.101 34.9806 397.067C36.3602 398.033 47.5347 402.723 49.88 402.31C52.2252 401.896 51.6734 397.757 51.6734 397.757L44.2237 393.204L38.2916 388.514L29.0485 386.307Z" fill="white"/>
<path d="M57.4676 392.791C57.4676 392.791 55.5362 394.584 55.3983 395.688C55.2603 396.791 54.7085 398.447 56.226 399.274C57.7436 400.102 61.8823 400.792 63.6757 399.964C65.4691 399.137 65.1932 397.205 66.2969 398.171C67.4005 399.137 66.7107 400.378 68.3662 400.378C70.0217 400.378 80.6444 401.62 82.8517 399.826C85.059 398.033 84.6452 395.274 83.9554 394.584C83.2656 393.894 70.9874 393.342 70.9874 393.342L64.0896 391.135L57.4676 392.791Z" fill="white"/>
<path d="M98.027 262.835C98.027 262.835 99.5445 263.663 100.648 260.628C101.752 257.593 102.855 254.695 104.097 254.695C105.339 254.695 104.097 260.214 104.097 260.214C104.097 260.214 106.304 260.766 106.994 260.076C107.684 259.386 108.788 257.455 109.753 257.593C110.719 257.73 112.237 260.352 111.133 264.49C110.029 268.629 107.132 268.767 105.063 269.319C102.993 269.871 97.7511 269.319 97.7511 269.319L98.027 262.835Z" fill="#DD9666"/>
<path d="M80.3685 223.931C80.3685 223.931 83.5415 221.724 82.8517 219.379C82.1619 217.033 80.7824 217.999 80.2305 218.689C79.6787 219.379 79.1269 220.482 79.1269 220.482L80.3685 223.931Z" fill="#DD9666"/>
<path d="M64.3655 230.691C64.3655 230.691 59.9509 229.725 59.537 226.828C59.1231 223.793 59.1231 215.792 59.9509 214.136C60.9166 212.481 62.1582 211.929 62.1582 211.929L69.8838 229.173L64.3655 230.691Z" fill="#333333"/>
<path d="M35.8084 377.063C35.8084 377.063 34.0149 383.547 33.3251 383.685C32.6354 383.961 39.5332 386.72 39.5332 386.72C39.5332 386.72 41.3267 380.237 42.0165 378.719C42.7062 377.063 35.8084 377.063 35.8084 377.063Z" fill="#DD9666"/>
<path d="M33.877 380.788C33.877 380.788 30.0142 381.892 29.3244 383.961C28.6346 386.031 27.2551 387.41 28.2208 388.79C29.1865 390.169 30.704 391.273 32.3595 391.273C34.015 391.273 34.7048 388.514 35.8084 390.583C36.9121 392.653 35.3945 393.342 37.188 394.446C38.9814 395.55 44.4997 397.895 47.8106 398.171C50.9836 398.447 51.9494 398.861 52.3632 398.171C52.7771 397.481 52.6391 395.412 51.2596 394.998C49.88 394.584 45.3274 391.549 43.9479 388.376C42.5683 385.203 40.9128 383.271 40.9128 383.271C40.9128 383.271 39.8092 384.927 37.7398 384.237C35.6704 383.547 33.877 380.788 33.877 380.788Z" fill="#333333"/>
<path d="M58.9852 379.547C58.9852 379.547 59.537 385.617 59.399 386.169C59.2611 386.72 63.3998 387.686 65.3312 386.031L64.0896 377.891L58.9852 379.547Z" fill="#DD9666"/>
<path d="M58.1574 384.789C58.1574 384.789 56.7778 387.962 56.6399 390.721C56.5019 393.48 56.6399 395.688 56.6399 395.688C56.6399 395.688 62.1582 397.067 63.9516 396.24C65.7451 395.412 65.3312 394.308 66.1589 394.308C66.9867 394.308 66.2969 395.826 68.0903 396.24C69.8838 396.653 77.8853 397.067 81.6101 396.929C85.3349 396.791 83.8174 392.101 82.4379 392.101C81.0583 392.101 77.6094 392.653 74.1604 390.307C70.7115 387.962 67.8144 384.375 65.0553 383.961C65.0553 383.961 62.4341 385.893 59.537 384.513L58.1574 384.789Z" fill="#333333"/>
<path d="M35.9463 280.494C35.9463 280.494 31.3938 289.185 32.2215 299.532C33.1872 309.878 42.8442 330.296 43.2581 331.676C43.672 333.055 40.9128 336.228 40.4989 338.16C40.0851 339.953 39.5332 354.99 37.4639 362.026C35.3945 369.2 34.015 376.787 34.7047 377.891C34.7047 377.891 37.7398 380.65 41.6026 380.65C41.6026 380.65 44.6377 380.236 47.5348 375.822C47.5348 375.822 51.9494 369.614 53.053 365.751L57.1917 381.34C57.1917 381.34 63.3998 382.03 66.8487 379.685C66.8487 379.685 65.883 357.336 67.2626 345.609C68.6422 333.883 67.9524 331.124 67.9524 324.64C67.9524 318.156 61.4684 289.047 59.9509 285.322C58.5713 281.873 35.9463 280.494 35.9463 280.494Z" fill="#333333"/>
<path opacity="0.5" d="M57.8815 295.531C57.8815 295.531 63.3998 334.435 61.6063 341.333C59.8129 348.23 53.3289 365.889 53.3289 365.889L56.364 376.925C56.364 376.925 60.7786 366.165 62.8479 360.371C64.9173 354.576 66.021 337.884 65.1932 330.296C64.2275 322.708 59.9508 296.772 59.399 295.531C58.7092 294.289 57.6056 294.289 57.8815 295.531Z" fill="black"/>
<path d="M61.4684 236.209C61.4684 236.209 63.9516 230.553 63.9516 228.208L70.8495 234.278C70.8495 234.278 68.2283 238.417 67.9524 239.244C67.6764 240.072 61.4684 236.209 61.4684 236.209Z" fill="#C1845B"/>
<path d="M63.2618 226.139C63.2618 226.139 63.5378 230.553 66.1589 233.174C68.7801 235.796 72.5049 236.485 74.1604 236.485C75.8159 236.485 77.7473 236.623 79.6787 234.968C81.6101 233.312 81.6101 230.829 81.4721 228.898C81.1962 226.966 80.5065 225.173 80.3685 223.931L79.2649 217.999L70.5735 215.654L65.883 215.792L64.7794 221.724C64.7794 221.724 60.9165 217.723 58.7092 220.62C56.5019 223.655 63.2618 226.139 63.2618 226.139Z" fill="#DD9666"/>
<path d="M64.0896 220.068C64.0896 220.068 65.4692 224.207 65.4692 225.173C65.4692 226.138 65.0553 226.69 66.5728 226.552C67.9524 226.414 68.2283 225.035 68.0903 223.379C67.9524 221.586 68.0903 217.861 68.0903 217.861C68.0903 217.861 72.367 222 74.0225 222C75.678 222 75.8159 220.068 75.8159 220.068C75.8159 220.068 76.3677 222 78.2991 221.448C80.2305 220.896 81.4721 220.068 80.0926 216.481C78.575 212.895 77.1955 209.446 72.6429 209.032C68.0903 208.618 61.8823 210.135 60.5027 213.584C58.8472 216.895 64.0896 220.068 64.0896 220.068Z" fill="#333333"/>
<path d="M76.0918 225.035L76.7816 228.76C76.7816 228.76 78.1612 229.725 78.851 228.484L77.6093 224.759C77.6093 224.759 76.9196 223.931 76.0918 225.035Z" fill="#A6714D"/>
<path d="M62.4341 235.244C62.4341 235.244 54.4326 233.45 49.742 237.727C45.0515 241.865 41.0508 256.075 39.6712 258.696C38.2916 261.317 34.4288 271.112 32.6354 273.32C30.8419 275.527 31.3938 278.424 33.7391 280.493C36.0843 282.563 46.9829 288.081 55.5362 286.977C64.0896 285.874 65.0553 278.286 65.0553 277.734C65.0553 277.182 65.0553 272.354 65.0553 272.354C65.0553 272.354 68.9181 275.941 78.2991 274.837C87.6802 273.734 97.7511 273.32 98.7168 269.457C99.6825 265.594 99.8205 262.283 97.1993 261.455C94.5781 260.49 78.1612 254.144 74.7123 253.592C71.2633 253.04 68.7801 254.144 68.7801 254.144C68.7801 254.144 71.2634 253.04 71.5393 252.488C71.8152 252.074 70.4356 252.488 70.9874 251.384C71.4013 250.281 71.6772 247.798 71.4013 244.487C71.1254 241.176 67.9524 238.417 66.159 237.451C64.3655 236.209 62.848 235.106 62.4341 235.244Z" fill="#E0D9C3"/>
<path opacity="0.17" d="M52.5012 247.246C52.5012 247.246 50.4318 254.282 54.0187 261.731C57.6056 269.181 65.1932 271.94 65.1932 271.94C65.1932 271.94 65.7451 279.252 63.5377 281.873C63.5377 281.873 62.0202 280.769 59.675 277.734C57.3297 274.561 49.7421 269.457 49.1902 262.835C48.7764 256.213 52.5012 247.246 52.5012 247.246Z" fill="#333333"/>
</svg>
