<svg width="250" height="100" viewBox="0 0 250 100" fill="none" xmlns="http://www.w3.org/2000/svg">
<mask id="mask0" mask-type="alpha" maskUnits="userSpaceOnUse" x="0" y="0" width="250" height="100">
<rect width="250" height="100" fill="#C4C4C4"/>
</mask>
<g mask="url(#mask0)">
<path d="M250.496 61.2603V106.392H175.814C172.117 100.752 169.566 94.3367 169.195 87.6367C168.889 82.0288 170.104 76.4536 170.251 70.8458C170.393 65.2298 169.223 59.1655 165.124 55.3345C160.62 51.1327 153.219 50.1872 150.224 44.8117C146.666 38.4376 151.45 29.3371 146.951 23.5866C144.298 20.1999 139.558 19.5316 135.528 18.0359C127.633 15.1015 121.826 7.729 120 -0.442307H148.488C148.508 -0.364873 148.536 -0.291514 148.561 -0.21408C150.236 4.68463 154.271 8.71119 159.165 10.3903C164.019 12.0449 170.177 11.8819 173.046 16.1326C175.455 19.6905 174.183 24.5729 175.536 28.6484C176.959 32.9235 181.173 35.7764 185.542 36.8686C189.911 37.9567 194.495 37.594 198.991 37.321C209.236 36.7056 220.835 37.1457 227.821 44.6609C230.087 47.1021 231.66 50.1098 233.844 52.6284C238.107 57.5353 244.045 60.0091 250.496 61.2603Z" fill="#6D26D7"/>
<path d="M250.496 82.4079V106.392H175.814C172.117 100.752 169.566 94.3367 169.195 87.6367C168.889 82.0288 170.104 76.4536 170.251 70.8458C170.393 65.2298 169.223 59.1655 165.124 55.3345C160.62 51.1327 153.219 50.1872 150.224 44.8117C146.666 38.4376 151.45 29.3371 146.951 23.5866C144.298 20.1999 139.558 19.5316 135.528 18.0359C127.633 15.1015 121.826 7.729 120 -0.442307H131.477C132.927 2.50426 134.761 5.24705 137.679 7.76568C143.414 12.7215 152.477 14.3435 156.532 21.1251C160.037 26.9897 158.171 34.9817 161.827 40.7525C167.72 50.069 183.194 47.473 190.575 55.6606C193.794 59.2266 194.83 64.1905 197.006 68.4738C201.057 76.4577 209.151 81.9025 217.815 84.1562C226.476 86.4059 235.674 85.7416 244.416 83.8261C246.421 83.386 248.455 82.8847 250.496 82.4079Z" fill="#5202B5"/>
<path d="M186.984 95.7061C188.57 95.7061 189.857 96.9939 189.857 98.5793C189.857 100.165 188.57 101.453 186.984 101.453C185.399 101.453 184.111 100.165 184.111 98.5793C184.115 96.9899 185.399 95.7061 186.984 95.7061Z" fill="#6D26D7"/>
<path d="M244.518 71.4122C245.406 71.4122 246.127 72.1336 246.127 73.022C246.127 73.9105 245.406 74.6319 244.518 74.6319C243.629 74.6319 242.908 73.9105 242.908 73.022C242.908 72.1336 243.625 71.4122 244.518 71.4122Z" fill="#5202B5"/>
<path d="M181.062 19.0262C181.951 19.0262 182.672 19.7475 182.672 20.636C182.672 21.5244 181.951 22.2458 181.062 22.2458C180.174 22.2458 179.453 21.5244 179.453 20.636C179.453 19.7475 180.174 19.0262 181.062 19.0262Z" fill="#5202B5"/>
<path d="M131.374 20.7542C132.263 20.7542 132.984 21.4756 132.984 22.364C132.984 23.2525 132.263 23.9738 131.374 23.9738C130.486 23.9738 129.765 23.2525 129.765 22.364C129.765 21.4756 130.486 20.7542 131.374 20.7542Z" fill="#5202B5"/>
<path d="M242.134 65.4417C243.344 65.4417 244.326 66.4239 244.326 67.6343C244.326 68.8447 243.344 69.8269 242.134 69.8269C240.923 69.8269 239.941 68.8447 239.941 67.6343C239.937 66.4239 240.919 65.4417 242.134 65.4417Z" fill="#5202B5"/>
<path d="M242.708 50.3176C243.919 50.3176 244.901 51.2998 244.901 52.5102C244.901 53.7206 243.919 54.7028 242.708 54.7028C241.498 54.7028 240.516 53.7206 240.516 52.5102C240.516 51.2998 241.498 50.3176 242.708 50.3176Z" fill="#6D26D7"/>
<path d="M136 29.5858C137.211 29.5858 138.193 28.6041 138.193 27.3932C138.193 26.1822 137.211 25.2006 136 25.2006C134.789 25.2006 133.808 26.1822 133.808 27.3932C133.808 28.6041 134.789 29.5858 136 29.5858Z" fill="#5202B5"/>
<path d="M161.272 67.2349C162.483 67.2349 163.465 68.2171 163.465 69.4275C163.465 70.6379 162.483 71.6201 161.272 71.6201C160.062 71.6201 159.08 70.6379 159.08 69.4275C159.08 68.2171 160.062 67.2349 161.272 67.2349Z" fill="#5202B5"/>
<path d="M161.7 61.2358C162.56 61.2358 163.253 61.9327 163.253 62.7886C163.253 63.6485 162.556 64.3413 161.7 64.3413C160.84 64.3413 160.147 63.6444 160.147 62.7886C160.147 61.9327 160.844 61.2358 161.7 61.2358Z" fill="#5202B5"/>
<path d="M188.643 78.8174C189.776 78.8174 190.697 79.7385 190.697 80.8714C190.697 82.0044 189.776 82.9255 188.643 82.9255C187.506 82.9255 186.589 82.0044 186.589 80.8714C186.585 79.7385 187.506 78.8174 188.643 78.8174Z" fill="#6D26D7"/>
<path d="M218.549 53.1094C219.682 53.1094 220.603 54.0304 220.603 55.1634C220.603 56.2964 219.682 57.2174 218.549 57.2174C217.416 57.2174 216.495 56.2964 216.495 55.1634C216.495 54.0264 217.416 53.1094 218.549 53.1094Z" fill="#5202B5"/>
<path d="M217.392 89.4136H184.894C183.117 89.4136 181.678 87.9749 181.678 86.198V28.5505C181.678 26.7736 183.117 25.335 184.894 25.335H217.392C219.168 25.335 220.607 26.7736 220.607 28.5505V86.194C220.607 87.9709 219.168 89.4136 217.392 89.4136Z" fill="#00A49F"/>
<path d="M216.833 26.4801H185.452C184.107 26.4801 183.019 27.5683 183.019 28.9132V85.8271C183.019 87.172 184.107 88.2601 185.452 88.2601H216.837C218.182 88.2601 219.27 87.172 219.27 85.8271V28.9172C219.266 27.5723 218.178 26.4801 216.833 26.4801Z" fill="#00BEB9"/>
<path d="M184.833 30.9754V84.3151C184.833 85.5582 185.843 86.5648 187.09 86.5648H215.195C216.442 86.5648 217.448 85.5582 217.448 84.3151V30.9754H184.833Z" fill="#5202B5"/>
<path d="M204.786 29.5409H198.327C198.049 29.5409 197.829 29.3168 197.829 29.0396C197.829 28.7625 198.053 28.5424 198.327 28.5424H204.786C205.063 28.5424 205.287 28.7666 205.287 29.0396C205.287 29.3168 205.063 29.5409 204.786 29.5409Z" fill="#00A49F"/>
<path d="M217.448 30.9754H184.833V31.9698H217.448V30.9754Z" fill="#EBE0BE"/>
<path d="M180.574 44.9583H179.612C178.434 44.9583 177.476 44.0006 177.476 42.8228V41.2048H182.709V42.8228C182.709 44.0006 181.751 44.9583 180.574 44.9583Z" fill="#EBE0BE"/>
<path d="M186.214 44.9583H184.845C183.667 44.9583 182.709 44.0006 182.709 42.8228V41.2048H188.35V42.8228C188.35 44.0006 187.392 44.9583 186.214 44.9583Z" fill="#D5498F"/>
<path d="M191.488 44.9583H190.485C189.308 44.9583 188.35 44.0006 188.35 42.8228V41.2048H193.624V42.8228C193.624 44.0006 192.666 44.9583 191.488 44.9583Z" fill="#EBE0BE"/>
<path d="M196.48 44.9583H195.759C194.581 44.9583 193.623 44.0006 193.623 42.8228V41.2048H198.615V42.8228C198.615 44.0006 197.658 44.9583 196.48 44.9583Z" fill="#D5498F"/>
<path d="M184.833 31.9698L177.477 41.2048H201.143V31.9698H184.833Z" fill="#F4EED8"/>
<path d="M188.016 31.9699L182.709 41.2049H201.143V31.9699H188.016Z" fill="#F065A6"/>
<path d="M191.835 31.9699L188.35 41.2049H201.143V31.9699H191.835Z" fill="#F4EED8"/>
<path d="M195.413 31.9699L193.624 41.2049H201.143V31.9699H195.413Z" fill="#F065A6"/>
<path d="M198.616 41.2049V43.1326C198.616 44.1433 199.733 44.9584 201.114 44.9584H201.171C202.549 44.9584 203.67 44.1393 203.67 43.1326V41.2049H198.616Z" fill="#EBE0BE"/>
<path d="M221.712 44.9584H222.674C223.851 44.9584 224.809 44.0007 224.809 42.8229V41.2049H219.576V42.8229C219.576 44.0007 220.53 44.9584 221.712 44.9584Z" fill="#EBE0BE"/>
<path d="M216.071 44.9584H217.44C218.618 44.9584 219.576 44.0007 219.576 42.8229V41.2049H213.936V42.8229C213.936 44.0007 214.889 44.9584 216.071 44.9584Z" fill="#D5498F"/>
<path d="M210.793 44.9584H211.796C212.974 44.9584 213.931 44.0007 213.931 42.8229V41.2049H208.658V42.8229C208.658 44.0007 209.615 44.9584 210.793 44.9584Z" fill="#EBE0BE"/>
<path d="M205.801 44.9584H206.522C207.7 44.9584 208.658 44.0007 208.658 42.8229V41.2049H203.666V42.8229C203.666 44.0007 204.623 44.9584 205.801 44.9584Z" fill="#D5498F"/>
<path d="M217.449 31.9699H201.143V41.2049H224.809L217.449 31.9699Z" fill="#F4EED8"/>
<path d="M214.27 31.9699H201.143V41.2049H219.576L214.27 31.9699Z" fill="#F065A6"/>
<path d="M201.143 31.9699V41.2049H213.935L210.447 31.9699H201.143Z" fill="#F4EED8"/>
<path d="M201.143 31.9699V41.2049H208.658L206.873 31.9699H201.143Z" fill="#F065A6"/>
<path d="M199.337 31.9699L198.616 41.2049H203.665L202.944 31.9699H199.337Z" fill="#F4EED8"/>
<path d="M191.81 30.9754H188.016V31.9698H191.81V30.9754Z" fill="#D5498F"/>
<path d="M214.27 30.9754H210.447V31.9698H214.27V30.9754Z" fill="#D5498F"/>
<path d="M199.341 30.9754H195.413V31.9698H199.341V30.9754Z" fill="#D5498F"/>
<path d="M206.873 30.9754H202.944V31.9698H206.873V30.9754Z" fill="#D5498F"/>
<path d="M195.327 47.7746H187.612V56.7732H195.327V47.7746Z" fill="#6D26D7"/>
<path d="M204.999 47.7745H197.284V56.7731H204.999V47.7745Z" fill="#6D26D7"/>
<path d="M198.641 48.4755L198.767 48.7363L199.052 48.777L198.849 48.9767L198.898 49.262L198.641 49.1275L198.384 49.262L198.433 48.9767L198.225 48.777L198.51 48.7363L198.641 48.4755Z" fill="#F065A6"/>
<path d="M199.892 48.4755L200.018 48.7363L200.303 48.777L200.1 48.9767L200.149 49.262L199.892 49.1275L199.635 49.262L199.684 48.9767L199.476 48.777L199.761 48.7363L199.892 48.4755Z" fill="#F065A6"/>
<path d="M201.143 48.4755L201.27 48.7363L201.555 48.777L201.347 48.9767L201.396 49.262L201.143 49.1275L200.886 49.262L200.935 48.9767L200.728 48.777L201.013 48.7363L201.143 48.4755Z" fill="#F065A6"/>
<path d="M202.394 48.4755L202.521 48.7363L202.806 48.777L202.598 48.9767L202.647 49.262L202.394 49.1275L202.137 49.262L202.186 48.9767L201.979 48.777L202.264 48.7363L202.394 48.4755Z" fill="#F065A6"/>
<path d="M203.645 48.4755L203.772 48.7363L204.057 48.777L203.849 48.9767L203.898 49.262L203.645 49.1275L203.388 49.262L203.437 48.9767L203.229 48.777L203.515 48.7363L203.645 48.4755Z" fill="#F065A6"/>
<path d="M214.669 47.7745H206.955V56.7731H214.669V47.7745Z" fill="#6D26D7"/>
<path d="M208.312 48.4755L208.438 48.7363L208.727 48.777L208.52 48.9767L208.568 49.262L208.312 49.1275L208.055 49.262L208.104 48.9767L207.896 48.777L208.185 48.7363L208.312 48.4755Z" fill="#F065A6"/>
<path d="M209.563 48.4755L209.689 48.7363L209.978 48.777L209.771 48.9767L209.819 49.262L209.563 49.1275L209.306 49.262L209.355 48.9767L209.147 48.777L209.436 48.7363L209.563 48.4755Z" fill="#F065A6"/>
<path d="M210.814 48.4755L210.94 48.7363L211.225 48.777L211.021 48.9767L211.07 49.262L210.814 49.1275L210.557 49.262L210.606 48.9767L210.398 48.777L210.687 48.7363L210.814 48.4755Z" fill="#F065A6"/>
<path d="M212.065 48.4755L212.191 48.7363L212.477 48.777L212.273 48.9767L212.322 49.262L212.065 49.1275L211.808 49.262L211.857 48.9767L211.649 48.777L211.935 48.7363L212.065 48.4755Z" fill="#F4EED8"/>
<path d="M213.316 48.4755L213.442 48.7363L213.728 48.777L213.524 48.9767L213.573 49.262L213.316 49.1275L213.059 49.262L213.108 48.9767L212.9 48.777L213.19 48.7363L213.316 48.4755Z" fill="#F4EED8"/>
<path d="M188.97 48.4755L189.096 48.7363L189.382 48.777L189.174 48.9767L189.223 49.262L188.97 49.1275L188.713 49.262L188.762 48.9767L188.554 48.777L188.839 48.7363L188.97 48.4755Z" fill="#F065A6"/>
<path d="M190.217 48.4755L190.347 48.7363L190.632 48.777L190.425 48.9767L190.474 49.262L190.217 49.1275L189.964 49.262L190.013 48.9767L189.805 48.777L190.09 48.7363L190.217 48.4755Z" fill="#F4EED8"/>
<path d="M191.468 48.4755L191.598 48.7363L191.883 48.777L191.676 48.9767L191.725 49.262L191.468 49.1275L191.215 49.262L191.264 48.9767L191.056 48.777L191.341 48.7363L191.468 48.4755Z" fill="#F4EED8"/>
<path d="M192.719 48.4755L192.85 48.7363L193.135 48.777L192.927 48.9767L192.976 49.262L192.719 49.1275L192.467 49.262L192.515 48.9767L192.308 48.777L192.593 48.7363L192.719 48.4755Z" fill="#F4EED8"/>
<path d="M193.97 48.4755L194.101 48.7363L194.386 48.777L194.178 48.9767L194.227 49.262L193.97 49.1275L193.718 49.262L193.766 48.9767L193.559 48.777L193.844 48.7363L193.97 48.4755Z" fill="#F4EED8"/>
<path d="M214.669 60.5551H206.954V82.7909H214.669V60.5551Z" fill="#6D26D7"/>
<path d="M214.669 60.5551H206.954V63.1512H214.669V60.5551Z" fill="#3E039C"/>
<path d="M205.002 60.5551H187.612V61.8552H205.002V60.5551Z" fill="#3E039C"/>
<path d="M205.002 63.5303H187.612V65.8411H205.002V63.5303Z" fill="#6D26D7"/>
<path d="M205.002 67.6791H187.612V82.791H205.002V67.6791Z" fill="#6D26D7"/>
<path opacity="0.5" d="M192.176 65.8085H174.073C172.932 65.8085 172.003 64.8834 172.003 63.7423V49.6045C172.003 48.4633 172.928 47.5382 174.073 47.5382H192.176C193.318 47.5382 194.243 48.4633 194.243 49.6045V63.7423C194.243 64.8834 193.318 65.8085 192.176 65.8085Z" fill="white"/>
<path d="M189.902 50.0323H174.44V51.5158H189.902V50.0323Z" fill="white"/>
<path d="M184.184 52.9423H174.44V54.4258H184.184V52.9423Z" fill="white"/>
<path d="M175.764 55.9744L176.176 56.8058L177.089 56.9362L176.429 57.5842L176.584 58.4971L175.764 58.0651L174.945 58.4971L175.104 57.5842L174.44 56.9362L175.357 56.8058L175.764 55.9744Z" fill="white"/>
<path d="M179.445 55.9745L179.853 56.8059L180.77 56.9363L180.109 57.5843L180.264 58.4972L179.445 58.0652L178.626 58.4972L178.781 57.5843L178.121 56.9363L179.034 56.8059L179.445 55.9745Z" fill="white"/>
<path d="M183.125 55.9745L183.533 56.8059L184.45 56.9363L183.785 57.5843L183.944 58.4972L183.125 58.0652L182.306 58.4972L182.461 57.5843L181.796 56.9363L182.713 56.8059L183.125 55.9745Z" fill="white"/>
<path d="M186.801 55.9745L187.212 56.8059L188.129 56.9363L187.465 57.5843L187.624 58.4972L186.801 58.0652L185.986 58.4972L186.141 57.5843L185.476 56.9363L186.393 56.8059L186.801 55.9745Z" fill="white"/>
<path d="M190.481 55.9745L190.893 56.8059L191.81 56.9363L191.145 57.5843L191.3 58.4972L190.481 58.0652L189.662 58.4972L189.821 57.5843L189.156 56.9363L190.073 56.8059L190.481 55.9745Z" fill="white"/>
<path d="M190.803 63.4814H175.447C174.892 63.4814 174.44 63.029 174.44 62.4747V61.0443C174.44 60.49 174.892 60.0376 175.447 60.0376H190.803C191.357 60.0376 191.81 60.49 191.81 61.0443V62.4747C191.81 63.029 191.357 63.4814 190.803 63.4814Z" fill="white"/>
<path opacity="0.5" d="M222.735 85.9617H209.086C208.226 85.9617 207.525 85.2648 207.525 84.4008V73.7435C207.525 72.8836 208.222 72.1826 209.086 72.1826H222.735C223.594 72.1826 224.295 72.8795 224.295 73.7435V84.4008C224.295 85.2607 223.599 85.9617 222.735 85.9617Z" fill="white"/>
<path d="M221.023 74.0613H209.363V75.178H221.023V74.0613Z" fill="white"/>
<path d="M216.711 76.258H209.363V77.3747H216.711V76.258Z" fill="white"/>
<path d="M210.361 78.5443L210.671 79.172L211.36 79.2698L210.863 79.7588L210.981 80.4435L210.361 80.1215L209.746 80.4435L209.864 79.7588L209.363 79.2698L210.056 79.172L210.361 78.5443Z" fill="white"/>
<path d="M213.137 78.5443L213.446 79.172L214.135 79.2698L213.638 79.7588L213.756 80.4435L213.137 80.1215L212.517 80.4435L212.635 79.7588L212.138 79.2698L212.827 79.172L213.137 78.5443Z" fill="white"/>
<path d="M215.912 78.5443L216.218 79.172L216.911 79.2698L216.409 79.7588L216.528 80.4435L215.912 80.1215L215.293 80.4435L215.411 79.7588L214.91 79.2698L215.602 79.172L215.912 78.5443Z" fill="white"/>
<path d="M218.684 78.5443L218.994 79.172L219.686 79.2698L219.185 79.7588L219.303 80.4435L218.684 80.1215L218.068 80.4435L218.187 79.7588L217.685 79.2698L218.378 79.172L218.684 78.5443Z" fill="white"/>
<path d="M221.459 78.5443L221.769 79.172L222.457 79.2698L221.96 79.7588L222.078 80.4435L221.459 80.1215L220.844 80.4435L220.962 79.7588L220.46 79.2698L221.149 79.172L221.459 78.5443Z" fill="white"/>
<path d="M221.699 84.2052H210.121C209.701 84.2052 209.363 83.8669 209.363 83.4471V82.3671C209.363 81.9473 209.701 81.6091 210.121 81.6091H221.699C222.119 81.6091 222.457 81.9473 222.457 82.3671V83.4471C222.457 83.8628 222.119 84.2052 221.699 84.2052Z" fill="white"/>
<path opacity="0.5" d="M194.434 85.4319H180.786C179.926 85.4319 179.225 84.735 179.225 83.871V73.2136C179.225 72.3537 179.922 71.6527 180.786 71.6527H194.434C195.294 71.6527 195.995 72.3496 195.995 73.2136V83.871C195.995 84.735 195.298 85.4319 194.434 85.4319Z" fill="white"/>
<path d="M192.723 73.5355H181.063V74.6522H192.723V73.5355Z" fill="white"/>
<path d="M188.411 75.7322H181.063V76.8489H188.411V75.7322Z" fill="white"/>
<path d="M182.061 78.0186L182.371 78.6421L183.064 78.744L182.563 79.229L182.681 79.9177L182.061 79.5917L181.446 79.9177L181.564 79.229L181.063 78.744L181.756 78.6421L182.061 78.0186Z" fill="white"/>
<path d="M184.837 78.0186L185.146 78.6421L185.835 78.744L185.338 79.229L185.456 79.9177L184.837 79.5917L184.217 79.9177L184.335 79.229L183.838 78.744L184.527 78.6421L184.837 78.0186Z" fill="white"/>
<path d="M187.612 78.0186L187.922 78.6421L188.611 78.744L188.109 79.229L188.228 79.9177L187.612 79.5917L186.993 79.9177L187.111 79.229L186.614 78.744L187.303 78.6421L187.612 78.0186Z" fill="white"/>
<path d="M190.383 78.0186L190.693 78.6421L191.386 78.744L190.885 79.229L191.003 79.9177L190.383 79.5917L189.768 79.9177L189.886 79.229L189.385 78.744L190.078 78.6421L190.383 78.0186Z" fill="white"/>
<path d="M193.159 78.0186L193.468 78.6421L194.157 78.744L193.66 79.229L193.778 79.9177L193.159 79.5917L192.543 79.9177L192.661 79.229L192.16 78.744L192.849 78.6421L193.159 78.0186Z" fill="white"/>
<path d="M193.399 83.6753H181.821C181.401 83.6753 181.063 83.337 181.063 82.9173V81.8413C181.063 81.4216 181.401 81.0833 181.821 81.0833H193.399C193.819 81.0833 194.157 81.4216 194.157 81.8413V82.9173C194.157 83.337 193.819 83.6753 193.399 83.6753Z" fill="white"/>
<path d="M186.695 82.0819L181.368 82.1185L173.531 89.9557L178.825 95.2497L186.662 87.4126L186.695 82.0819ZM184.706 84.0707C184.49 83.8547 184.49 83.5042 184.706 83.2882C184.922 83.0722 185.273 83.0722 185.489 83.2882C185.705 83.5042 185.705 83.8547 185.489 84.0707C185.273 84.2867 184.922 84.2867 184.706 84.0707Z" fill="#FF6748"/>
<path d="M183.679 85.0977L183.223 86.4426L184.075 87.5838L182.652 87.5634L181.833 88.7249L181.413 87.3678L180.056 86.948L181.214 86.1247L181.197 84.7065L182.334 85.5542L183.679 85.0977Z" fill="white"/>
<path d="M180.06 88.7208L179.604 90.0657L180.452 91.2028L179.033 91.1865L178.214 92.3439L177.79 90.9868L176.437 90.567L177.595 89.7478L177.578 88.3255L178.715 89.1773L180.06 88.7208Z" fill="white"/>
<path d="M238.991 96.2033C238.991 96.2033 230.266 97.1039 219.498 97.1039C208.735 97.1039 200.005 96.2033 200.005 96.2033C200.005 96.2033 208.731 95.3026 219.498 95.3026C230.266 95.3026 238.991 96.2033 238.991 96.2033Z" fill="#3E039C"/>
<path d="M231.814 56.1374C231.732 55.7991 231.675 55.4364 231.622 55.0329C231.525 54.2993 231.256 53.8755 230.734 53.3742C230.657 53.2968 230.583 53.2234 230.514 53.1501C230.502 53.0645 230.489 52.9789 230.461 52.8933C230.359 52.5836 230.143 52.335 229.919 52.0904C229.89 51.9559 229.874 51.8092 229.874 51.6503C229.878 51.1898 229.968 50.7455 229.923 50.2809C229.87 49.7063 229.67 49.1846 229.373 48.72C229.303 48.2513 229.116 47.799 228.814 47.4322C228.305 46.8005 227.514 46.4378 226.711 46.3155C225.937 46.1973 225.057 46.234 224.217 46.4296C223.467 46.6049 222.754 46.9024 222.18 47.3262C221.593 47.7582 221.01 48.4103 220.92 49.311C219.869 50.7211 220.651 52.8159 221.662 54.2341C221.458 54.6784 221.108 55.1796 220.99 55.4201C220.496 56.4308 219.999 57.4701 219.714 58.5623C219.339 60.0131 219.27 61.5211 220.973 61.9694C224.319 62.8456 228.338 63.9174 231.578 62.0631C232.629 61.4599 233.493 60.3881 233.518 59.1736C233.542 57.9632 232.751 56.8873 231.814 56.1374ZM221.796 53.8592C221.47 53.3864 221.153 52.9137 220.941 52.3594C220.582 51.4302 220.582 50.5621 220.916 49.7104C220.994 51.7888 221.719 53.2193 221.809 53.6106C221.821 53.6799 221.817 53.7655 221.796 53.8592ZM229.397 49.2784C229.397 49.2621 229.397 49.2458 229.397 49.2254C229.548 49.5636 229.646 49.9264 229.674 50.3135C229.707 50.7822 229.597 51.2468 229.589 51.7114C229.479 51.5688 229.381 51.418 229.316 51.2509C229.075 50.6273 229.356 49.9427 229.397 49.2784ZM230.53 54.7313C230.424 54.3523 230.498 53.9448 230.518 53.5495C230.555 53.5861 230.591 53.6187 230.628 53.6595C231.256 54.2871 231.296 55.037 231.39 55.8113C231.015 55.5098 230.657 55.1837 230.53 54.7313Z" fill="#0E0E15"/>
<path d="M227.364 49.6941V51.3569C227.364 51.6585 227.311 51.9479 227.209 52.2128C226.863 53.142 225.966 53.8022 224.915 53.8022C223.561 53.8022 222.469 52.7059 222.469 51.3569V49.6941C222.469 49.6737 222.469 49.6534 222.469 49.633C222.502 48.6875 223.276 47.9294 224.23 47.9294H225.599C226.553 47.9294 227.331 48.6875 227.36 49.633C227.364 49.6534 227.364 49.6737 227.364 49.6941Z" fill="#F4EED8"/>
<path d="M227.364 49.58C227.364 49.6003 227.364 49.6167 227.364 49.633C227.348 50.3747 227.001 51.0308 226.467 51.471C226.047 51.8174 225.505 52.0253 224.915 52.0253C223.602 52.0253 222.534 50.9942 222.473 49.6982C222.469 49.6778 222.469 49.6574 222.469 49.633C222.469 49.6167 222.469 49.5963 222.469 49.58C222.469 48.2269 223.566 47.1347 224.915 47.1347C226.268 47.1347 227.364 48.2269 227.364 49.58Z" fill="#F4EED8"/>
<path d="M227.364 49.6329C227.364 49.6533 227.364 49.6737 227.364 49.6941V51.3569C227.364 51.6584 227.311 51.9478 227.209 52.2127L225.53 50.5336C223.574 51.3487 222.539 49.796 222.478 49.6981C222.474 49.6941 222.474 49.6941 222.474 49.6941C222.474 49.6737 222.474 49.6533 222.474 49.6329C222.474 49.6166 222.474 49.5963 222.474 49.58C222.474 48.2269 223.57 47.1347 224.919 47.1347C226.272 47.1347 227.364 48.231 227.364 49.58C227.364 49.5963 227.364 49.6166 227.364 49.6329Z" fill="#0E0E15"/>
<path d="M227.78 51.7848C227.78 52.1842 227.454 52.5102 227.054 52.5102C226.655 52.5102 226.329 52.1842 226.329 51.7848C226.329 51.3854 226.655 51.0594 227.054 51.0594C227.454 51.0594 227.78 51.3854 227.78 51.7848Z" fill="#F4EED8"/>
<path d="M224.499 58.4115C224.499 58.4115 222.359 61.4926 220.362 63.5711C219.555 64.4106 218.769 65.0912 218.153 65.3357C216.026 66.1875 209.489 60.5022 209.489 60.5022C209.489 60.5022 208.446 60.6164 208.058 60.3841C207.671 60.1518 208.058 58.5256 208.058 58.5256C208.058 58.5256 206.746 58.0244 206.628 57.5964C206.51 57.1726 208.796 57.9062 209.065 57.9877C209.334 58.0692 209.799 59.3733 209.799 59.3733C211.849 59.7198 217.11 62.3525 217.11 62.3525C217.11 62.3525 217.31 61.892 217.717 61.0891C218.047 60.437 218.516 59.5608 219.123 58.5216C220.476 56.2026 222.009 55.4283 222.009 55.4283L224.499 58.4115Z" fill="#F4EED8"/>
<path d="M224.499 58.4115C224.499 58.4115 222.359 61.4926 220.362 63.5711L217.717 61.0932C218.047 60.4411 218.516 59.5649 219.123 58.5256C220.476 56.2067 222.009 55.4324 222.009 55.4324L224.499 58.4115Z" fill="#E34932"/>
<path d="M220.778 69.4316C220.778 69.4316 218.679 78.9559 218.679 80.957C218.679 82.9581 218.655 94.3042 218.655 94.3042H220.754C220.754 94.3042 224.079 85.0121 222.808 81.9555C222.616 81.495 224.572 78.4995 225.18 76.368C226.145 72.9691 226.027 70.0388 226.027 70.0388L220.778 69.4316Z" fill="#0E0E15"/>
<path d="M224.087 68.6083C224.087 68.6083 223.92 75.663 225.18 78.8377C226.439 82.0125 228.884 94.3041 228.884 94.3041H230.999C230.999 94.3041 230.555 73.3114 229.907 69.4316L224.087 68.6083Z" fill="#0E0E15"/>
<path d="M222.005 63.2613L220.778 69.4275C222.567 70.0062 224.466 70.1774 226.333 69.9206L229.911 69.4275C229.895 68.2578 229.854 66.5136 229.765 64.647C229.712 63.5385 229.732 62.2017 229.638 61.0973C229.402 58.3585 228.925 56.1211 228.306 55.4324H222.009C222.009 55.4324 219.939 58.9413 220.57 60.2007C221.198 61.464 222.005 63.2613 222.005 63.2613Z" fill="#FF6748"/>
<path d="M220.754 94.3041L220.684 95.1518L220.595 96.3052H215.667C215.39 96.3052 215.26 95.9547 215.472 95.7754C215.769 95.5268 216.169 95.2945 216.58 95.0948C217.571 94.6179 218.651 94.3082 218.651 94.3082H220.754V94.3041Z" fill="#0E0E15"/>
<path d="M220.754 94.3041L220.684 95.1518C220.366 95.323 220.016 95.4412 219.661 95.5186C219.095 95.6368 218.508 95.6531 217.925 95.645C217.404 95.6409 216.87 95.5105 216.58 95.0948C217.571 94.618 218.651 94.3082 218.651 94.3082H220.754V94.3041Z" fill="#F4EED8"/>
<path d="M231.126 77.232H228.074V75.7037C228.074 74.8601 228.758 74.1754 229.602 74.1754C230.446 74.1754 231.13 74.8601 231.13 75.7037V77.232H231.126ZM228.428 76.8815H230.776V75.7078C230.776 75.0598 230.25 74.5341 229.602 74.5341C228.954 74.5341 228.428 75.0598 228.428 75.7078V76.8815Z" fill="#FF6748"/>
<path d="M232.993 76.3966H226.207L224.882 84.1318H234.317L232.993 76.3966Z" fill="#00BEB9"/>
<path d="M232.601 96.9939C231.342 97.6093 229.015 95.4616 229.015 95.4616L228.941 94.8054L228.884 94.3041H230.999L231.012 94.8706C231.012 94.8706 231.558 95.429 232.079 95.861C232.626 96.3093 233.062 96.7698 232.601 96.9939Z" fill="#F4EED8"/>
<path d="M232.601 96.994C231.342 97.6094 229.015 95.4616 229.015 95.4616L228.941 94.8055C229.031 94.8911 229.113 95.0011 229.198 95.0786C229.708 95.5391 230.335 95.8773 230.995 96.0648C231.203 96.1259 231.427 96.1708 231.643 96.1341C231.819 96.1015 231.986 96.0078 232.084 95.861C232.626 96.3093 233.062 96.7699 232.601 96.994Z" fill="#0E0E15"/>
<path d="M230.278 75.3247C230.278 75.3247 228.163 75.2147 228.305 74.1713C228.407 73.4214 230.555 73.6211 230.555 73.6211C230.555 73.6211 233.013 71.4856 233.013 68.4005C233.013 66.9944 232.328 65.8696 231.582 65.0627C230.69 64.0886 229.707 63.5751 229.707 63.5751C229.663 62.2261 229.528 60.8812 229.304 59.5526C229.08 58.224 228.766 56.9117 228.363 55.6198L228.305 55.4364C228.305 55.4364 233.298 57.6127 235.132 63.0005C235.491 64.0479 235.727 65.2135 235.788 66.5095C236.098 73.2095 230.278 75.3247 230.278 75.3247Z" fill="#F4EED8"/>
<path d="M235.132 63.0005L231.578 65.0627C230.686 64.0886 229.704 63.5751 229.704 63.5751C229.659 62.2261 229.524 60.8812 229.3 59.5526C229.076 58.224 228.762 56.9117 228.359 55.6198L228.302 55.4364C228.306 55.4364 233.298 57.6086 235.132 63.0005Z" fill="#E34932"/>
<path d="M224.079 52.8363L223.728 54.4664L222.004 55.4364C222.004 55.4364 222.669 57.0992 224.499 57.0992C226.324 57.0992 228.305 55.4364 228.305 55.4364L226.561 54.5357L226.227 52.604L224.079 52.8363Z" fill="#F4EED8"/>
<path d="M223.916 53.5903C223.916 53.5903 225.082 54.2872 226.353 53.3376L226.508 54.2383L226.431 54.279C225.583 54.7151 224.564 54.601 223.831 53.9978L223.916 53.5903Z" fill="#EBE0BE"/>
<path d="M164.574 23.3177L164.305 22.364L164.036 23.3177C163.807 24.1206 163.265 24.8012 162.532 25.2006C163.265 25.5999 163.807 26.2806 164.036 27.0834L164.305 28.0371L164.574 27.0834C164.802 26.2806 165.344 25.5999 166.077 25.2006C165.344 24.8012 164.802 24.1206 164.574 23.3177Z" fill="#F4EED8"/>
<path d="M244.75 85.2281L244.481 84.2744L244.212 85.2281C243.984 86.031 243.442 86.7116 242.708 87.111C243.442 87.5104 243.984 88.191 244.212 88.9938L244.481 89.9475L244.75 88.9938C244.978 88.191 245.52 87.5104 246.254 87.111C245.52 86.7116 244.978 86.031 244.75 85.2281Z" fill="#F4EED8"/>
<path d="M235.531 40.2391L235.8 39.2854L236.069 40.2391C236.297 41.0419 236.839 41.7225 237.573 42.1219C236.839 42.5213 236.297 43.2019 236.069 44.0048L235.8 44.9584L235.531 44.0048C235.303 43.2019 234.761 42.5213 234.027 42.1219C234.761 41.7185 235.303 41.0419 235.531 40.2391Z" fill="#FF6748"/>
<path d="M191.113 16.5605L191.382 15.6069L191.651 16.5605C191.879 17.3634 192.421 18.044 193.155 18.4434C192.421 18.8428 191.879 19.5234 191.651 20.3263L191.382 21.2799L191.113 20.3263C190.885 19.5234 190.342 18.8428 189.609 18.4434C190.347 18.044 190.885 17.3634 191.113 16.5605Z" fill="#FF6748"/>
<path d="M169.101 19.2952L168.91 18.6187L168.718 19.2952C168.555 19.8658 168.172 20.3507 167.65 20.636C168.172 20.9213 168.555 21.4022 168.718 21.9769L168.91 22.6534L169.101 21.9769C169.264 21.4063 169.647 20.9213 170.169 20.636C169.647 20.3507 169.264 19.8698 169.101 19.2952Z" fill="#F4EED8"/>
<path d="M162.723 88.0728L162.532 87.3963L162.34 88.0728C162.177 88.6433 161.794 89.1283 161.272 89.4136C161.794 89.6989 162.177 90.1798 162.34 90.7544L162.532 91.431L162.723 90.7544C162.886 90.1839 163.269 89.6989 163.791 89.4136C163.274 89.1283 162.886 88.6433 162.723 88.0728Z" fill="#FF6748"/>
<path d="M142.236 33.2332L142.044 32.5567L141.853 33.2332C141.69 33.8038 141.307 34.2888 140.785 34.5741C141.307 34.8594 141.69 35.3403 141.853 35.9149L142.044 36.5914L142.236 35.9149C142.399 35.3443 142.782 34.8594 143.304 34.5741C142.782 34.2847 142.395 33.8038 142.236 33.2332Z" fill="#FF6748"/>
<path d="M166.819 92.1075L166.627 91.431L166.436 92.1075C166.273 92.6781 165.89 93.163 165.368 93.4483C165.89 93.7336 166.273 94.2145 166.436 94.7892L166.627 95.4657L166.819 94.7892C166.982 94.2186 167.365 93.7336 167.887 93.4483C167.365 93.163 166.982 92.6781 166.819 92.1075Z" fill="#FF6748"/>
<path d="M231.586 33.8813L231.395 33.2047L231.203 33.8813C231.04 34.4518 230.657 34.9368 230.135 35.2221C230.657 35.5074 231.04 35.9883 231.203 36.5629L231.395 37.2394L231.586 36.5629C231.749 35.9923 232.132 35.5074 232.654 35.2221C232.132 34.9327 231.749 34.4518 231.586 33.8813Z" fill="#FF6748"/>
<path d="M144.754 27.2016L144.563 26.5251L144.371 27.2016C144.208 27.7721 143.825 28.2571 143.303 28.5424C143.825 28.8277 144.208 29.3086 144.371 29.8832L144.563 30.5598L144.754 29.8832C144.917 29.3127 145.3 28.8277 145.822 28.5424C145.3 28.2571 144.917 27.7721 144.754 27.2016Z" fill="#FF6748"/>
<path d="M241.734 81.7884L241.543 81.1119L241.351 81.7884C241.188 82.359 240.805 82.8439 240.283 83.1292C240.805 83.4145 241.188 83.8954 241.351 84.4701L241.543 85.1466L241.734 84.4701C241.897 83.8995 242.28 83.4145 242.802 83.1292C242.28 82.8439 241.897 82.363 241.734 81.7884Z" fill="#F4EED8"/>
<path d="M204.998 57.5068H197.283V59.6382H204.998V57.5068Z" fill="#F065A6"/>
<path d="M165.014 35.7315H172.802C173.849 35.7315 174.701 36.5792 174.701 37.6307V45.4189C174.701 46.3033 174.094 47.045 173.275 47.2569V50.4317L170.161 47.3181H165.014C163.966 47.3181 163.115 46.4704 163.115 45.4189V37.6307C163.119 36.5792 163.966 35.7315 165.014 35.7315Z" fill="#F065A6"/>
<path d="M172.81 40.7321C172.798 40.4835 172.582 40.292 172.334 40.292H171.596H170.337H170.015C170.015 40.292 170.133 39.3057 170.104 39.1182C170.076 38.9308 169.656 37.9078 169.656 37.9078C169.656 37.9078 169.538 37.7326 169.305 37.7896C169.069 37.8467 169.041 38.0056 169.041 38.0056L169.089 39.0897C168.984 39.6073 168.075 40.7525 168.075 40.7525L167.781 40.9767V43.479L167.891 43.6298C168.005 43.7928 168.193 43.8865 168.393 43.8865H169.672H171.6H171.681C171.938 43.8865 172.146 43.6787 172.146 43.4219C172.146 43.2263 172.028 43.0592 171.857 42.9899H171.889C172.138 42.9899 172.354 42.7984 172.366 42.5498C172.374 42.3501 172.26 42.1748 172.089 42.1015H172.097C172.354 42.1015 172.562 41.8936 172.562 41.6369C172.562 41.4535 172.456 41.2945 172.301 41.2212H172.35C172.607 41.2212 172.823 41.0011 172.81 40.7321Z" fill="white"/>
<path d="M166.941 40.2064H165.421C165.197 40.2064 165.014 40.3898 165.014 40.6139V43.6624C165.014 43.8865 165.197 44.0699 165.421 44.0699H166.941C167.166 44.0699 167.349 43.8865 167.349 43.6624V40.6139C167.349 40.3898 167.166 40.2064 166.941 40.2064ZM166.672 43.7194C166.53 43.7194 166.412 43.6053 166.412 43.4586C166.412 43.316 166.526 43.1978 166.672 43.1978C166.815 43.1978 166.933 43.3119 166.933 43.4586C166.933 43.6053 166.815 43.7194 166.672 43.7194Z" fill="white"/>
<path d="M222.046 13.345H214.258C213.21 13.345 212.358 14.1927 212.358 15.2442V23.0324C212.358 23.9168 212.966 24.6585 213.785 24.8704V28.0452L216.898 24.9316H222.046C223.093 24.9316 223.945 24.0839 223.945 23.0324V15.2401C223.941 14.1927 223.093 13.345 222.046 13.345Z" fill="#F41E3D"/>
<path fill-rule="evenodd" clip-rule="evenodd" d="M216.094 20.2786C216.095 20.2403 216.096 20.2016 216.098 20.1624C215.512 20.1191 215.047 20.1363 214.679 20.1892C214.651 20.2382 214.625 20.2875 214.6 20.337C214.975 20.2674 215.461 20.2368 216.094 20.2786ZM219.021 20.4982C218.987 20.5376 218.954 20.5763 218.922 20.6146C219.965 20.6613 220.58 20.5022 220.943 20.3074C220.917 20.268 220.892 20.2272 220.867 20.1853C220.525 20.369 219.958 20.5207 219.021 20.4982ZM216.099 20.498C215.38 20.4589 214.858 20.5155 214.478 20.6154C214.457 20.669 214.437 20.7227 214.42 20.7762C214.798 20.6563 215.337 20.5805 216.109 20.6168C216.105 20.5777 216.101 20.5381 216.099 20.498ZM218.67 20.9318C218.697 20.8961 218.725 20.8598 218.754 20.823C219.999 20.9162 220.695 20.7361 221.084 20.517C221.114 20.5573 221.142 20.5962 221.17 20.6333C220.768 20.8642 220.027 21.0543 218.67 20.9318ZM216.14 20.8386C215.269 20.8058 214.704 20.919 214.337 21.0739C214.323 21.1324 214.31 21.1901 214.3 21.2474C214.654 21.0702 215.23 20.9293 216.165 20.9591C216.156 20.9195 216.148 20.8794 216.14 20.8386ZM218.453 21.2358C218.476 21.2015 218.5 21.1666 218.525 21.1312C220.108 21.3099 220.919 21.0872 221.332 20.8297C221.366 20.8678 221.4 20.9035 221.432 20.9368C221.013 21.2089 220.165 21.4496 218.453 21.2358ZM216.227 21.1832C215.168 21.156 214.58 21.3504 214.253 21.5631C214.246 21.6279 214.241 21.6905 214.237 21.7514C214.537 21.5172 215.125 21.2804 216.27 21.3047C216.254 21.2649 216.24 21.2244 216.227 21.1832ZM218.269 21.5318C218.288 21.4984 218.308 21.4644 218.329 21.4298C220.313 21.7129 221.212 21.4151 221.619 21.111C221.658 21.1446 221.697 21.1753 221.734 21.2022C221.339 21.5231 220.417 21.8597 218.269 21.5318ZM216.366 21.5298C215.054 21.5045 214.479 21.824 214.229 22.0854C214.231 22.157 214.233 22.225 214.237 22.288C214.442 22.0184 214.988 21.6264 216.429 21.6516C216.408 21.6119 216.387 21.5713 216.366 21.5298ZM218.117 21.8235C218.132 21.7907 218.148 21.7571 218.166 21.7227C220.685 22.1432 221.611 21.6869 221.948 21.3356C221.991 21.3578 222.035 21.3774 222.08 21.3942C221.792 21.7533 220.9 22.3012 218.165 21.8318C218.149 21.829 218.133 21.8263 218.117 21.8235ZM219.219 20.2737C219.258 20.2313 219.297 20.1884 219.338 20.1449C219.977 20.1128 220.397 19.9871 220.673 19.8407C220.695 19.8839 220.718 19.9259 220.741 19.9664C220.438 20.1259 219.963 20.2597 219.219 20.2737ZM216.168 19.624C216.176 19.5865 216.183 19.5494 216.189 19.5126C215.851 19.4734 215.549 19.4522 215.277 19.4457C215.234 19.4851 215.191 19.525 215.151 19.5657C215.448 19.565 215.785 19.5825 216.168 19.624ZM219.739 19.7328C219.686 19.7857 219.634 19.8379 219.583 19.8893C220.026 19.836 220.339 19.7321 220.559 19.6147C220.539 19.5723 220.518 19.5299 220.497 19.485C220.316 19.5838 220.071 19.6736 219.739 19.7328ZM220.091 19.3891C220.179 19.3013 220.263 19.2155 220.343 19.1318C220.36 19.1733 220.377 19.2147 220.394 19.2548V19.2551C220.309 19.3025 220.208 19.348 220.091 19.3891ZM218.834 16.3362C218.903 16.3504 218.971 16.3635 219.038 16.3756C219.082 16.3435 219.12 16.3114 219.154 16.2797C219.128 16.2379 219.103 16.1974 219.077 16.1582C219.014 16.2172 218.935 16.278 218.834 16.3362ZM216.217 19.3037C216.221 19.2665 216.224 19.2297 216.227 19.1932C216.036 19.1678 215.856 19.1479 215.684 19.1328C215.633 19.1665 215.583 19.2013 215.535 19.2365C215.746 19.2505 215.973 19.2724 216.217 19.3037ZM218.431 16.2452C218.348 16.2249 218.264 16.2031 218.177 16.1798C218.501 16.0871 218.715 15.9621 218.855 15.8415C218.883 15.8781 218.911 15.9161 218.94 15.9554C218.827 16.0554 218.664 16.1588 218.431 16.2452ZM216.233 18.8733C216.234 18.9098 216.235 18.9468 216.235 18.9841C216.153 18.9724 216.073 18.9617 215.995 18.9518C216.004 18.9473 216.012 18.9427 216.021 18.938H216.021L216.021 18.938C216.031 18.9325 216.041 18.9271 216.051 18.9219C216.077 18.9094 216.101 18.8958 216.126 18.8823H216.126H216.126C216.137 18.8757 216.149 18.8692 216.161 18.8628C216.185 18.8663 216.209 18.8697 216.233 18.8733ZM216.116 19.9474C216.12 19.9098 216.125 19.8719 216.131 19.8335C215.67 19.7895 215.278 19.7812 214.947 19.7982C214.911 19.8427 214.877 19.8874 214.845 19.9325C215.192 19.9034 215.611 19.9036 216.116 19.9474ZM217.831 15.2119C217.816 15.1064 217.802 15.0456 217.802 15.0456H217.802C217.802 15.0456 217.893 15.0505 218.045 15.1234C217.976 15.157 217.904 15.1865 217.831 15.2119ZM218.296 15.2761C218.182 15.3446 218.039 15.4103 217.859 15.466C217.863 15.5105 217.866 15.5576 217.868 15.6075C218.104 15.5412 218.282 15.4579 218.415 15.3711C218.374 15.3359 218.334 15.3038 218.296 15.2761ZM218.601 15.5453C218.444 15.663 218.212 15.7793 217.873 15.8617C217.872 15.9073 217.871 15.954 217.869 16.002C218.269 15.9152 218.53 15.7832 218.699 15.651C218.665 15.6135 218.633 15.578 218.601 15.5456L218.601 15.5453Z" fill="white"/>
<path d="M216.094 20.2783L216.092 20.3022L216.117 20.3039L216.118 20.2786L216.094 20.2783ZM216.098 20.1621L216.122 20.1634L216.123 20.1399L216.099 20.1382L216.098 20.1621ZM214.679 20.1889L214.676 20.1651L214.664 20.1668L214.658 20.177L214.679 20.1889ZM214.6 20.3368L214.579 20.326L214.557 20.3692L214.605 20.3604L214.6 20.3368ZM219.021 20.4979L219.021 20.474L219.01 20.4737L219.002 20.4823L219.021 20.4979ZM218.922 20.6143L218.904 20.5989L218.873 20.6362L218.921 20.6383L218.922 20.6143ZM220.942 20.3071L220.954 20.3283L220.977 20.316L220.963 20.2942L220.942 20.3071ZM220.866 20.185L220.887 20.1725L220.875 20.1531L220.855 20.1639L220.866 20.185ZM214.478 20.6151L214.472 20.5918L214.46 20.595L214.455 20.6064L214.478 20.6151ZM216.099 20.4977L216.123 20.4963L216.121 20.4749L216.1 20.4737L216.099 20.4977ZM214.42 20.7759L214.397 20.7685L214.383 20.8129L214.427 20.7988L214.42 20.7759ZM216.108 20.6165L216.107 20.6404L216.135 20.6417L216.132 20.614L216.108 20.6165ZM218.754 20.8227L218.755 20.7987L218.743 20.7978L218.735 20.8079L218.754 20.8227ZM218.67 20.9315L218.651 20.917L218.625 20.9516L218.668 20.9554L218.67 20.9315ZM221.084 20.5167L221.103 20.5025L221.091 20.4853L221.072 20.4958L221.084 20.5167ZM221.17 20.633L221.182 20.6539L221.206 20.6402L221.189 20.6185L221.17 20.633ZM214.336 21.0736L214.327 21.0515L214.316 21.0563L214.313 21.0681L214.336 21.0736ZM216.14 20.8383L216.163 20.834L216.16 20.8151L216.141 20.8143L216.14 20.8383ZM214.3 21.2471L214.276 21.2427L214.267 21.2901L214.31 21.2685L214.3 21.2471ZM216.165 20.9588L216.164 20.9827L216.195 20.9837L216.188 20.9533L216.165 20.9588ZM218.525 21.1309L218.527 21.107L218.513 21.1054L218.505 21.1171L218.525 21.1309ZM218.453 21.2355L218.433 21.2222L218.411 21.2546L218.45 21.2594L218.453 21.2355ZM221.332 20.8294L221.35 20.8134L221.336 20.7983L221.319 20.8091L221.332 20.8294ZM221.432 20.9365L221.445 20.9567L221.469 20.9408L221.449 20.9198L221.432 20.9365ZM214.253 21.5628L214.24 21.5427L214.231 21.5489L214.229 21.5602L214.253 21.5628ZM216.227 21.1829L216.249 21.1755L216.244 21.1593L216.227 21.1589L216.227 21.1829ZM214.237 21.7511L214.213 21.7496L214.21 21.8026L214.252 21.77L214.237 21.7511ZM216.269 21.3044L216.269 21.3284L216.304 21.3292L216.292 21.2959L216.269 21.3044ZM218.329 21.4295L218.332 21.4057L218.317 21.4034L218.308 21.417L218.329 21.4295ZM218.269 21.5315L218.248 21.5195L218.23 21.55L218.265 21.5553L218.269 21.5315ZM221.618 21.1107L221.634 21.0924L221.619 21.08L221.604 21.0915L221.618 21.1107ZM221.734 21.2019L221.749 21.2205L221.773 21.2008L221.748 21.1824L221.734 21.2019ZM214.229 22.0851L214.212 22.0685L214.205 22.0757L214.205 22.0855L214.229 22.0851ZM216.366 21.5295L216.388 21.519L216.381 21.5058L216.367 21.5055L216.366 21.5295ZM214.237 22.2877L214.213 22.2893L214.217 22.3534L214.256 22.3022L214.237 22.2877ZM216.429 21.6513L216.429 21.6753L216.47 21.6761L216.45 21.6398L216.429 21.6513ZM218.165 21.7224L218.169 21.6988L218.152 21.6958L218.144 21.7116L218.165 21.7224ZM218.117 21.8232L218.095 21.8131L218.082 21.8417L218.113 21.8469L218.117 21.8232ZM221.948 21.3353L221.959 21.314L221.943 21.3057L221.93 21.3187L221.948 21.3353ZM222.08 21.3939L222.098 21.4089L222.119 21.3829L222.088 21.3714L222.08 21.3939ZM218.165 21.8315L218.169 21.8078H218.169L218.165 21.8315ZM219.338 20.1446L219.337 20.1206L219.327 20.1211L219.32 20.1281L219.338 20.1446ZM219.219 20.2734L219.201 20.2572L219.164 20.2984L219.22 20.2974L219.219 20.2734ZM220.673 19.8404L220.694 19.8293L220.683 19.8078L220.661 19.8192L220.673 19.8404ZM220.74 19.9661L220.752 19.9874L220.773 19.9759L220.761 19.9545L220.74 19.9661ZM216.168 19.6237L216.166 19.6476L216.187 19.6499L216.192 19.6283L216.168 19.6237ZM216.188 19.5123L216.212 19.5162L216.216 19.4914L216.191 19.4885L216.188 19.5123ZM215.277 19.4454L215.277 19.4214L215.268 19.4212L215.261 19.4276L215.277 19.4454ZM215.151 19.5654L215.134 19.5485L215.093 19.5895L215.151 19.5894L215.151 19.5654ZM219.739 19.7325L219.735 19.7088L219.728 19.7101L219.722 19.7154L219.739 19.7325ZM219.583 19.889L219.566 19.8722L219.518 19.921L219.586 19.9128L219.583 19.889ZM220.559 19.6144L220.57 19.6356L220.591 19.6247L220.581 19.6039L220.559 19.6144ZM220.497 19.4847L220.519 19.4747L220.508 19.4514L220.486 19.4637L220.497 19.4847ZM220.343 19.1315L220.365 19.1224L220.351 19.0882L220.325 19.1149L220.343 19.1315ZM220.091 19.3888L220.074 19.3718L220.098 19.4115L220.091 19.3888ZM220.394 19.2545H220.418V19.2496L220.416 19.245L220.394 19.2545ZM220.394 19.2548L220.406 19.2758L220.418 19.269V19.2548H220.394ZM218.833 16.3359L218.821 16.3151L218.767 16.3467L218.829 16.3594L218.833 16.3359ZM219.037 16.3753L219.033 16.3989L219.043 16.4007L219.051 16.3947L219.037 16.3753ZM219.153 16.2794L219.17 16.2969L219.184 16.2835L219.174 16.2669L219.153 16.2794ZM219.077 16.1579L219.097 16.1448L219.082 16.1207L219.061 16.1404L219.077 16.1579ZM216.217 19.3034L216.214 19.3272L216.238 19.3303L216.241 19.3059L216.217 19.3034ZM216.226 19.1929L216.25 19.1946L216.252 19.1721L216.23 19.1691L216.226 19.1929ZM215.684 19.1325L215.686 19.1085L215.678 19.1078L215.671 19.1124L215.684 19.1325ZM215.535 19.2362L215.521 19.2168L215.467 19.2557L215.533 19.2601L215.535 19.2362ZM218.177 16.1795L218.17 16.1564L218.087 16.1802L218.171 16.2027L218.177 16.1795ZM218.43 16.2449L218.425 16.2682L218.432 16.2699L218.439 16.2674L218.43 16.2449ZM218.855 15.8412L218.874 15.8267L218.858 15.8064L218.839 15.823L218.855 15.8412ZM218.94 15.9551L218.955 15.9731L218.972 15.9587L218.959 15.941L218.94 15.9551ZM216.234 18.9838L216.231 19.0076L216.258 19.0115L216.258 18.984L216.234 18.9838ZM216.233 18.873L216.257 18.8722L216.256 18.8522L216.236 18.8492L216.233 18.873ZM215.995 18.9515L215.984 18.9301L215.914 18.9655L215.992 18.9753L215.995 18.9515ZM216.021 18.9377L216.012 18.9154L216.01 18.9159L216.009 18.9166L216.021 18.9377ZM216.021 18.9377L216.03 18.9599L216.031 18.9594L216.032 18.9587L216.021 18.9377ZM216.051 18.9216L216.04 18.9001L216.04 18.9001L216.051 18.9216ZM216.125 18.882L216.116 18.8597L216.115 18.8602L216.114 18.861L216.125 18.882ZM216.125 18.882L216.134 18.9042L216.136 18.9037L216.137 18.903L216.125 18.882ZM216.161 18.8625L216.164 18.8388L216.156 18.8377L216.149 18.8414L216.161 18.8625ZM216.116 19.9471L216.113 19.971L216.137 19.9731L216.139 19.9499L216.116 19.9471ZM216.131 19.8332L216.154 19.8368L216.158 19.8117L216.133 19.8093L216.131 19.8332ZM214.946 19.7979L214.945 19.7739L214.934 19.7745L214.927 19.783L214.946 19.7979ZM214.845 19.9322L214.825 19.9183L214.795 19.9604L214.847 19.9561L214.845 19.9322ZM217.802 15.0453V15.0213H217.772L217.779 15.0506L217.802 15.0453ZM217.831 15.2116L217.807 15.215L217.811 15.2438L217.839 15.2343L217.831 15.2116ZM217.802 15.0453L217.803 15.0213L217.803 15.0213H217.802V15.0453ZM218.045 15.1231L218.055 15.1447L218.1 15.123L218.055 15.1014L218.045 15.1231ZM217.859 15.4657L217.852 15.4428L217.833 15.4485L217.835 15.4678L217.859 15.4657ZM218.296 15.2758L218.31 15.2564L218.297 15.2471L218.284 15.2552L218.296 15.2758ZM217.868 15.6072L217.844 15.6084L217.845 15.6385L217.874 15.6303L217.868 15.6072ZM218.415 15.3708L218.428 15.391L218.455 15.3735L218.431 15.3526L218.415 15.3708ZM217.872 15.8614L217.867 15.8381L217.849 15.8425L217.848 15.8612L217.872 15.8614ZM218.601 15.545L218.618 15.528L218.603 15.5133L218.586 15.5258L218.601 15.545ZM217.869 16.0017L217.845 16.0006L217.843 16.0318L217.874 16.0252L217.869 16.0017ZM218.698 15.6507L218.713 15.6696L218.733 15.6538L218.716 15.6347L218.698 15.6507ZM218.601 15.5453L218.618 15.5286L218.618 15.5283L218.601 15.5453ZM216.118 20.2786C216.118 20.2406 216.12 20.2022 216.122 20.1634L216.074 20.1609C216.072 20.2003 216.07 20.2394 216.07 20.2779L216.118 20.2786ZM216.099 20.1382C215.512 20.0947 215.046 20.112 214.676 20.1651L214.683 20.2126C215.048 20.1601 215.511 20.1428 216.096 20.1861L216.099 20.1382ZM214.658 20.177C214.63 20.2265 214.604 20.2761 214.579 20.326L214.622 20.3476C214.646 20.2982 214.672 20.2494 214.7 20.2008L214.658 20.177ZM214.605 20.3604C214.977 20.2911 215.461 20.2606 216.092 20.3022L216.095 20.2543C215.461 20.2125 214.973 20.243 214.596 20.3132L214.605 20.3604ZM219.002 20.4823C218.968 20.5217 218.936 20.5606 218.904 20.5989L218.94 20.6297C218.972 20.5915 219.005 20.5528 219.039 20.5136L219.002 20.4823ZM218.921 20.6383C219.966 20.6851 220.586 20.5258 220.954 20.3283L220.931 20.286C220.574 20.478 219.963 20.6369 218.923 20.5904L218.921 20.6383ZM220.963 20.2942C220.938 20.2549 220.912 20.2144 220.887 20.1725L220.846 20.1976C220.872 20.2396 220.897 20.2804 220.922 20.32L220.963 20.2942ZM220.855 20.1639C220.518 20.3449 219.956 20.4963 219.021 20.474L219.02 20.5219C219.96 20.5445 220.531 20.3924 220.878 20.2062L220.855 20.1639ZM214.484 20.6383C214.861 20.5392 215.38 20.4827 216.097 20.5216L216.1 20.4737C215.38 20.4346 214.855 20.4912 214.472 20.5918L214.484 20.6383ZM214.443 20.7833C214.46 20.7304 214.48 20.6772 214.5 20.6237L214.455 20.6064C214.435 20.6603 214.415 20.7144 214.397 20.7685L214.443 20.7833ZM216.109 20.5925C215.336 20.5561 214.793 20.632 214.413 20.753L214.427 20.7988C214.801 20.6799 215.337 20.6042 216.107 20.6404L216.109 20.5925ZM216.132 20.614C216.128 20.5753 216.125 20.5361 216.123 20.4963L216.075 20.4991C216.077 20.5396 216.08 20.5795 216.084 20.6189L216.132 20.614ZM218.735 20.8079C218.706 20.8448 218.678 20.8812 218.651 20.917L218.689 20.946C218.716 20.9103 218.744 20.8742 218.772 20.8375L218.735 20.8079ZM218.752 20.8466C219.999 20.94 220.701 20.7599 221.096 20.5376L221.072 20.4958C220.689 20.7117 219.998 20.8918 218.755 20.7987L218.752 20.8466ZM221.065 20.5308C221.094 20.5711 221.123 20.6103 221.151 20.6476L221.189 20.6185C221.161 20.5816 221.133 20.543 221.103 20.5025L221.065 20.5308ZM221.158 20.6122C220.761 20.8396 220.027 21.0299 218.672 20.9076L218.668 20.9554C220.027 21.0782 220.773 20.8882 221.182 20.6539L221.158 20.6122ZM214.346 21.0958C214.709 20.9426 215.27 20.8296 216.139 20.8623L216.141 20.8143C215.267 20.7814 214.699 20.8948 214.327 21.0515L214.346 21.0958ZM214.323 21.2514C214.334 21.1947 214.346 21.1373 214.36 21.0792L214.313 21.0681C214.299 21.1268 214.287 21.185 214.276 21.2427L214.323 21.2514ZM216.165 20.9347C215.228 20.905 214.648 21.0461 214.289 21.2256L214.31 21.2685C214.66 21.0938 215.231 20.9531 216.164 20.9827L216.165 20.9347ZM216.188 20.9533C216.179 20.9142 216.171 20.8744 216.163 20.834L216.116 20.8427C216.124 20.8838 216.132 20.9243 216.141 20.9641L216.188 20.9533ZM218.505 21.1171C218.48 21.1527 218.456 21.1877 218.433 21.2222L218.473 21.2489C218.496 21.2147 218.52 21.1799 218.544 21.1446L218.505 21.1171ZM218.522 21.1547C220.108 21.3337 220.924 21.1114 221.345 20.8498L221.319 20.8091C220.912 21.0625 220.108 21.2855 218.527 21.107L218.522 21.1547ZM221.314 20.8454C221.348 20.8838 221.382 20.9197 221.415 20.9533L221.449 20.9198C221.417 20.8866 221.384 20.8513 221.35 20.8134L221.314 20.8454ZM221.419 20.9164C221.007 21.1839 220.166 21.4251 218.456 21.2117L218.45 21.2594C220.165 21.4734 221.019 21.2332 221.445 20.9567L221.419 20.9164ZM214.266 21.5829C214.587 21.3738 215.17 21.1799 216.226 21.2068L216.227 21.1589C215.166 21.1317 214.572 21.3264 214.24 21.5427L214.266 21.5829ZM214.261 21.7524C214.265 21.692 214.27 21.6299 214.277 21.5654L214.229 21.5602C214.222 21.6254 214.217 21.6883 214.213 21.7496L214.261 21.7524ZM216.27 21.2804C215.122 21.256 214.528 21.4933 214.222 21.7321L214.252 21.77C214.546 21.5405 215.127 21.3041 216.269 21.3284L216.27 21.2804ZM216.292 21.2959C216.277 21.2565 216.263 21.2163 216.249 21.1755L216.204 21.1903C216.217 21.2319 216.232 21.2728 216.247 21.3129L216.292 21.2959ZM218.308 21.417C218.287 21.4518 218.267 21.486 218.248 21.5195L218.289 21.5435C218.308 21.5103 218.328 21.4764 218.349 21.442L218.308 21.417ZM218.326 21.4532C220.312 21.7368 221.219 21.4397 221.633 21.1299L221.604 21.0915C221.205 21.3899 220.314 21.6885 218.332 21.4057L218.326 21.4532ZM221.603 21.129C221.643 21.163 221.682 21.1941 221.72 21.2213L221.748 21.1824C221.712 21.156 221.673 21.1257 221.634 21.0924L221.603 21.129ZM221.719 21.1833C221.332 21.4976 220.418 21.8353 218.272 21.5078L218.265 21.5553C220.415 21.8834 221.346 21.5479 221.749 21.2205L221.719 21.1833ZM214.247 22.1017C214.49 21.847 215.057 21.5282 216.366 21.5535L216.367 21.5055C215.05 21.4801 214.468 21.8004 214.212 22.0685L214.247 22.1017ZM214.26 22.2862C214.256 22.2237 214.254 22.1561 214.253 22.0847L214.205 22.0855C214.206 22.1572 214.208 22.2258 214.213 22.2893L214.26 22.2862ZM216.43 21.6273C214.984 21.602 214.429 21.9952 214.217 22.2732L214.256 22.3022C214.454 22.0412 214.991 21.6501 216.429 21.6753L216.43 21.6273ZM216.45 21.6398C216.429 21.6004 216.408 21.5602 216.388 21.519L216.345 21.5399C216.365 21.5819 216.386 21.6228 216.408 21.6629L216.45 21.6398ZM218.144 21.7116C218.127 21.7462 218.11 21.78 218.095 21.8131L218.138 21.8334C218.153 21.8007 218.17 21.7674 218.187 21.7332L218.144 21.7116ZM218.161 21.7461C220.683 22.1669 221.619 21.7122 221.965 21.3519L221.93 21.3187C221.602 21.6611 220.687 22.1189 218.169 21.6988L218.161 21.7461ZM221.936 21.3566C221.98 21.3793 222.025 21.3993 222.071 21.4164L222.088 21.3714C222.044 21.355 222.001 21.3358 221.959 21.314L221.936 21.3566ZM222.061 21.3789C221.782 21.7271 220.902 22.2769 218.169 21.8078L218.161 21.8551C220.898 22.3249 221.802 21.7788 222.098 21.4089L222.061 21.3789ZM218.169 21.8078C218.153 21.805 218.137 21.8023 218.121 21.7996L218.113 21.8469C218.129 21.8496 218.145 21.8524 218.161 21.8551L218.169 21.8078ZM219.32 20.1281C219.28 20.1717 219.24 20.2148 219.201 20.2572L219.237 20.2895C219.275 20.2472 219.315 20.2044 219.355 20.1609L219.32 20.1281ZM219.339 20.1685C219.981 20.1364 220.404 20.0101 220.684 19.8616L220.661 19.8192C220.389 19.9636 219.973 20.0887 219.337 20.1206L219.339 20.1685ZM220.651 19.8515C220.674 19.8949 220.697 19.9371 220.719 19.9778L220.761 19.9545C220.739 19.9141 220.716 19.8722 220.694 19.8293L220.651 19.8515ZM220.729 19.9449C220.43 20.1021 219.96 20.2354 219.219 20.2494L219.22 20.2974C219.966 20.2833 220.444 20.1491 220.752 19.9874L220.729 19.9449ZM216.192 19.6283C216.199 19.5906 216.206 19.5533 216.212 19.5162L216.165 19.5084C216.159 19.5449 216.152 19.5818 216.145 19.619L216.192 19.6283ZM215.276 19.4694C215.547 19.4759 215.849 19.497 216.186 19.5362L216.191 19.4885C215.853 19.4492 215.55 19.428 215.277 19.4214L215.276 19.4694ZM215.168 19.5823C215.208 19.542 215.25 19.5024 215.293 19.4633L215.261 19.4276C215.217 19.4672 215.174 19.5074 215.134 19.5485L215.168 19.5823ZM216.171 19.5998C215.787 19.5583 215.449 19.5406 215.151 19.5414L215.151 19.5894C215.447 19.5887 215.783 19.6062 216.166 19.6476L216.171 19.5998ZM219.722 19.7154C219.669 19.7684 219.617 19.8207 219.566 19.8722L219.6 19.9058C219.651 19.8545 219.703 19.8024 219.756 19.7495L219.722 19.7154ZM220.548 19.5932C220.33 19.7089 220.021 19.8121 219.58 19.8652L219.586 19.9128C220.031 19.8593 220.347 19.7546 220.57 19.6356L220.548 19.5932ZM220.475 19.4948C220.496 19.5399 220.517 19.5826 220.537 19.6249L220.581 19.6039C220.56 19.5615 220.539 19.5192 220.519 19.4747L220.475 19.4948ZM219.743 19.7561C220.077 19.6966 220.325 19.606 220.509 19.5058L220.486 19.4637C220.307 19.561 220.064 19.65 219.735 19.7088L219.743 19.7561ZM220.325 19.1149C220.245 19.1985 220.162 19.2841 220.074 19.3718L220.108 19.4058C220.196 19.3178 220.28 19.2319 220.36 19.1481L220.325 19.1149ZM220.416 19.245C220.399 19.2052 220.382 19.1639 220.365 19.1224L220.32 19.1406C220.337 19.1821 220.355 19.2237 220.372 19.264L220.416 19.245ZM220.418 19.2548V19.2545H220.37V19.2548H220.418ZM220.098 19.4115C220.217 19.3699 220.319 19.3239 220.406 19.2758L220.382 19.2338C220.298 19.2805 220.199 19.3254 220.083 19.3661L220.098 19.4115ZM218.829 16.3594C218.898 16.3737 218.966 16.3868 219.033 16.3989L219.042 16.3516C218.975 16.3396 218.908 16.3266 218.838 16.3124L218.829 16.3594ZM219.137 16.2619C219.104 16.2929 219.066 16.3244 219.023 16.3558L219.051 16.3947C219.096 16.3621 219.136 16.3293 219.17 16.2969L219.137 16.2619ZM219.057 16.1709C219.082 16.21 219.108 16.2503 219.133 16.292L219.174 16.2669C219.148 16.2249 219.123 16.1842 219.097 16.1448L219.057 16.1709ZM218.845 16.3567C218.948 16.2976 219.029 16.2357 219.093 16.1754L219.061 16.1404C218.999 16.1981 218.921 16.2578 218.821 16.3151L218.845 16.3567ZM216.241 19.3059C216.244 19.2684 216.248 19.2313 216.25 19.1946L216.202 19.1912C216.2 19.2274 216.197 19.264 216.193 19.3009L216.241 19.3059ZM216.23 19.1691C216.038 19.1436 215.858 19.1237 215.686 19.1085L215.682 19.1564C215.853 19.1715 216.033 19.1913 216.223 19.2167L216.23 19.1691ZM215.671 19.1124C215.619 19.1464 215.569 19.1815 215.521 19.2168L215.549 19.2556C215.597 19.2206 215.646 19.186 215.697 19.1526L215.671 19.1124ZM215.533 19.2601C215.743 19.2741 215.97 19.296 216.214 19.3272L216.22 19.2796C215.975 19.2483 215.748 19.2263 215.536 19.2122L215.533 19.2601ZM218.171 16.2027C218.257 16.226 218.342 16.2478 218.425 16.2682L218.436 16.2216C218.354 16.2013 218.27 16.1796 218.183 16.1563L218.171 16.2027ZM218.839 15.823C218.702 15.941 218.491 16.0645 218.17 16.1564L218.184 16.2026C218.51 16.109 218.727 15.9826 218.87 15.8594L218.839 15.823ZM218.959 15.941C218.93 15.9016 218.902 15.8634 218.874 15.8267L218.836 15.8557C218.863 15.8922 218.892 15.9301 218.92 15.9693L218.959 15.941ZM218.439 16.2674C218.675 16.1801 218.84 16.0752 218.955 15.9731L218.924 15.9372C218.813 16.0349 218.653 16.1369 218.422 16.2223L218.439 16.2674ZM216.258 18.984C216.259 18.9463 216.258 18.9091 216.257 18.8722L216.209 18.8738C216.21 18.91 216.211 18.9466 216.21 18.9837L216.258 18.984ZM216.238 18.9601C216.156 18.9484 216.076 18.9376 215.998 18.9277L215.992 18.9753C216.07 18.9852 216.149 18.9959 216.231 19.0076L216.238 18.9601ZM216.006 18.9729C216.015 18.9682 216.024 18.9633 216.032 18.9587L216.009 18.9166C216.001 18.9214 215.992 18.9259 215.984 18.9301L216.006 18.9729ZM216.03 18.9599H216.03L216.012 18.9154L216.012 18.9154L216.03 18.9599ZM216.03 18.9599L216.012 18.9154L216.03 18.9599ZM216.03 18.9599H216.03L216.012 18.9154H216.012L216.03 18.9599ZM216.032 18.9587C216.042 18.9532 216.052 18.948 216.062 18.9431L216.04 18.9001C216.029 18.9055 216.019 18.9112 216.009 18.9166L216.032 18.9587ZM216.061 18.9432C216.088 18.9303 216.113 18.9165 216.137 18.903L216.114 18.861C216.089 18.8746 216.065 18.8878 216.04 18.9001L216.061 18.9432ZM216.134 18.9043L216.116 18.8597L216.134 18.9043ZM216.134 18.9043L216.134 18.9042L216.116 18.8597H216.116L216.134 18.9043ZM216.134 18.9042L216.116 18.8597L216.116 18.8597L216.134 18.9042ZM216.137 18.903C216.149 18.8964 216.16 18.89 216.172 18.8837L216.149 18.8414C216.137 18.8479 216.125 18.8545 216.114 18.861L216.137 18.903ZM216.157 18.8863C216.181 18.8897 216.205 18.8932 216.229 18.8968L216.236 18.8492C216.212 18.8457 216.188 18.8422 216.164 18.8388L216.157 18.8863ZM216.139 19.9499C216.144 19.9126 216.149 19.8748 216.154 19.8368L216.107 19.8296C216.101 19.8682 216.096 19.9065 216.092 19.9443L216.139 19.9499ZM214.947 19.8219C215.278 19.805 215.668 19.8131 216.128 19.8571L216.133 19.8093C215.671 19.7652 215.278 19.7569 214.945 19.7739L214.947 19.8219ZM214.864 19.9461C214.896 19.9014 214.93 19.8571 214.965 19.8129L214.927 19.783C214.892 19.8277 214.858 19.8728 214.825 19.9183L214.864 19.9461ZM216.118 19.9232C215.611 19.8793 215.191 19.8791 214.843 19.9083L214.847 19.9561C215.192 19.9272 215.609 19.9273 216.113 19.971L216.118 19.9232ZM217.802 15.0453C217.779 15.0506 217.779 15.0506 217.779 15.0506V15.0506C217.779 15.0506 217.779 15.0506 217.779 15.0506C217.779 15.0506 217.779 15.0506 217.779 15.0506C217.779 15.0506 217.779 15.0506 217.779 15.0507C217.779 15.0508 217.779 15.051 217.779 15.0512C217.779 15.0516 217.779 15.0523 217.779 15.0532C217.779 15.055 217.78 15.0577 217.781 15.0613C217.782 15.0685 217.784 15.0793 217.787 15.0933C217.792 15.1214 217.799 15.1626 217.807 15.215L217.855 15.2082C217.847 15.155 217.84 15.1131 217.834 15.0845C217.832 15.0701 217.829 15.0591 217.828 15.0516C217.827 15.0478 217.826 15.045 217.826 15.043C217.826 15.0421 217.826 15.0413 217.826 15.0408C217.825 15.0406 217.825 15.0404 217.825 15.0402C217.825 15.0402 217.825 15.0401 217.825 15.0401C217.825 15.0401 217.825 15.0401 217.825 15.04C217.825 15.04 217.825 15.04 217.825 15.04C217.825 15.04 217.825 15.04 217.825 15.04C217.825 15.04 217.825 15.04 217.802 15.0453ZM217.802 15.0213H217.802V15.0693H217.802V15.0213ZM218.055 15.1014C217.978 15.0643 217.915 15.0443 217.872 15.0335C217.851 15.0282 217.834 15.0251 217.822 15.0234C217.816 15.0226 217.812 15.0221 217.809 15.0218C217.807 15.0216 217.806 15.0215 217.805 15.0214C217.805 15.0214 217.804 15.0214 217.804 15.0214C217.804 15.0213 217.804 15.0213 217.804 15.0213C217.804 15.0213 217.803 15.0213 217.803 15.0213C217.803 15.0213 217.803 15.0213 217.803 15.0213C217.803 15.0213 217.803 15.0213 217.803 15.0213C217.803 15.0213 217.803 15.0213 217.802 15.0453C217.801 15.0693 217.801 15.0693 217.801 15.0693C217.801 15.0693 217.801 15.0693 217.801 15.0693C217.801 15.0693 217.801 15.0693 217.801 15.0693C217.801 15.0693 217.801 15.0693 217.801 15.0693C217.801 15.0693 217.801 15.0693 217.801 15.0693C217.801 15.0693 217.801 15.0693 217.801 15.0693C217.802 15.0693 217.803 15.0694 217.804 15.0695C217.806 15.0698 217.81 15.0702 217.815 15.0709C217.825 15.0724 217.841 15.0752 217.861 15.0801C217.901 15.0901 217.96 15.109 218.035 15.1447L218.055 15.1014ZM217.839 15.2343C217.913 15.2086 217.985 15.1787 218.055 15.1447L218.035 15.1015C217.966 15.1346 217.895 15.1638 217.823 15.1889L217.839 15.2343ZM217.866 15.4887C218.047 15.4324 218.192 15.366 218.308 15.2964L218.284 15.2552C218.171 15.3227 218.03 15.3876 217.852 15.4428L217.866 15.4887ZM217.892 15.6061C217.889 15.556 217.886 15.5086 217.883 15.4637L217.835 15.4678C217.839 15.5118 217.841 15.5586 217.844 15.6084L217.892 15.6061ZM218.402 15.3507C218.271 15.436 218.095 15.5183 217.861 15.5841L217.874 15.6303C218.112 15.5634 218.292 15.4793 218.428 15.391L218.402 15.3507ZM218.282 15.2952C218.319 15.3224 218.359 15.3541 218.4 15.3891L218.431 15.3526C218.389 15.3171 218.349 15.2846 218.31 15.2564L218.282 15.2952ZM217.878 15.8848C218.22 15.8017 218.455 15.6842 218.615 15.5642L218.586 15.5258C218.432 15.6413 218.204 15.7563 217.867 15.8381L217.878 15.8848ZM217.893 16.0027C217.895 15.9545 217.896 15.9074 217.896 15.8617L217.848 15.8612C217.848 15.9065 217.847 15.953 217.845 16.0006L217.893 16.0027ZM218.683 15.6318C218.518 15.7613 218.261 15.8921 217.864 15.9782L217.874 16.0252C218.276 15.9378 218.541 15.8045 218.713 15.6696L218.683 15.6318ZM218.584 15.562C218.615 15.5941 218.647 15.6293 218.68 15.6666L218.716 15.6347C218.683 15.5971 218.65 15.5613 218.618 15.5286L218.584 15.562ZM218.584 15.562L218.584 15.5623L218.618 15.5283L218.618 15.528L218.584 15.562Z" fill="white"/>
<path d="M217.906 22.8405C217.888 22.8305 217.87 22.8201 217.852 22.809C217.64 22.6846 217.365 22.4937 217.105 22.2278C216.588 21.6988 216.133 20.8736 216.378 19.6685C216.641 18.3689 216.146 17.4664 215.587 16.8939C215.308 16.609 215.014 16.4057 214.79 16.2737C214.713 16.2286 214.645 16.1917 214.587 16.1626C214.587 16.1626 214.588 16.1625 214.588 16.1625C214.693 16.0977 214.867 16.0153 215.134 15.9572C215.67 15.841 216.581 15.822 218.055 16.2435C219.555 16.6722 220.508 16.6606 221.092 16.5336C221.385 16.4701 221.585 16.3778 221.714 16.2982C221.744 16.28 221.769 16.2625 221.792 16.2463C221.797 16.2574 221.802 16.2695 221.807 16.2828C221.844 16.3813 221.874 16.5477 221.823 16.8002C221.719 17.31 221.283 18.1683 219.904 19.4974C218.513 20.8384 218.035 21.7384 217.917 22.3194C217.873 22.5353 217.879 22.7074 217.906 22.8405Z" stroke="white" stroke-width="0.5"/>
<path d="M210.451 89.5073H207.398V87.979C207.398 87.1354 208.083 86.4507 208.927 86.4507C209.77 86.4507 210.455 87.1354 210.455 87.979V89.5073H210.451ZM207.749 89.1568H210.096V87.9831C210.096 87.3351 209.571 86.8093 208.923 86.8093C208.275 86.8093 207.749 87.3351 207.749 87.9831V89.1568Z" fill="white"/>
<path d="M212.318 88.6718H205.532L204.208 96.4071H213.642L212.318 88.6718Z" fill="#F065A6"/>
</g>
</svg>
