<svg width="440" height="151" viewBox="0 0 440 151" fill="none" xmlns="http://www.w3.org/2000/svg">
<path d="M0 150C28.4631 147.601 63.6984 144.649 82.7392 125.646C110.515 97.9705 114.049 88.8376 149.677 88.9299C185.304 89.0221 221.619 88.9299 255.579 85.8856C289.538 82.9336 321.535 76.5683 335.275 67.4354C357.064 52.9521 329.877 34.7786 357.948 21.1255C376.596 12.0849 414.678 7.56462 440 4.57764e-05L2.00001 7.48519e-06C0.895429 7.38863e-06 1.30351e-05 0.895439 1.29386e-05 2.00001L0 150Z" fill="#F39C12"/>
<path d="M116.1 129C116.1 130.1 110.2 130.9 106.2 130.8C102.2 130.8 97 130.2 97 129C97 128.5 100.4 124.9 100.4 124.9H112.6C112.7 125 116.1 128.5 116.1 129Z" fill="url(#paint0_linear)"/>
<path d="M112.7 125L106.6 127.1L100.5 125L105.9 105.5C106 105.2 106.6 105 106.6 105C106.9 105 107.2 105.2 107.3 105.5L112.7 125Z" fill="url(#paint1_linear)"/>
<mask id="mask0" mask-type="alpha" maskUnits="userSpaceOnUse" x="100" y="105" width="13" height="23">
<path d="M112.7 125L106.6 127.1L100.5 125L105.9 105.5C106 105.2 106.6 105 106.6 105C106.9 105 107.2 105.2 107.3 105.5L112.7 125Z" fill="url(#paint2_linear)"/>
</mask>
<g mask="url(#mask0)">
<path d="M117.2 117.9C109.8 121.5 102.8 121.4 95.3999 117.3C94.9999 118.1 94.6 118.9 94.2 119.7C98.5 122 102.7 123.1 106.8 123.1C110.5 123.1 114.3 122.2 118 120.4C117.8 119.6 117.5 118.7 117.2 117.9Z" fill="url(#paint3_linear)"/>
<path d="M115.2 111.8C109.2 114.9 104.2 114.9 98.1 111.7C97.7 112.5 97.3 113.3 96.9 114.1C100.3 115.9 103.6 116.8 106.8 116.8C109.8 116.8 112.8 116 116 114.4C115.8 113.6 115.5 112.7 115.2 111.8Z" fill="url(#paint4_linear)"/>
<path d="M113.5 106.4C109.7 109.2 104.7 109.3 100.7 106.8C100.3 107.6 99.9 108.4 99.4 109.2C101.6 110.6 104.2 111.3 106.7 111.3C109.3 111.3 111.9 110.5 114.2 109.1C114 108.2 113.8 107.3 113.5 106.4Z" fill="url(#paint5_linear)"/>
</g>
<path d="M232.8 108.6H384.6C386.5 108.6 388 107.1 388 105.2V12.4C388 10.5 386.5 9 384.6 9H232.8C230.9 9 229.4 10.5 229.4 12.4V105.1C229.4 107.1 230.9 108.6 232.8 108.6Z" fill="url(#paint6_linear)"/>
<path d="M234.3 99L383 99V14.2L234.3 14.2V99Z" fill="white"/>
<path d="M234.277 98.8618L382.977 98.8618V14.0618L234.277 14.0618V98.8618Z" stroke="url(#paint7_linear)" stroke-miterlimit="10"/>
<path d="M394.6 104.2C395.5 105.1 396.2 104.8 397.6 109.7C398.5 112.8 401.8 128.5 401.8 128.5L399.8 129.4C397.1 121.9 397.1 121.9 394 115.8C392.5 112.8 391.8 109.9 391.8 109.9L386 109.6C382.4 108.1 383.6 102.8 383.6 102.8C383.6 102.8 393.7 103.3 394.6 104.2Z" fill="url(#paint8_linear)"/>
<path d="M372.7 99.5002L377.9 96.2002L383 100.1L389.3 102.1C391.8 103 394.7 104.3 395.6 105.1C396.5 106 398.4 107.2 396.9 112.1C395.9 115.2 391.7 130.9 391.7 130.9L389.6 130.5C389.6 130.5 390.4 121.4 391.1 114.6C391.5 111.3 391.6 110.4 391.6 110.4C391.6 110.4 374.9 110.3 373 107.7C370.8 104.9 372.7 102.1 372.7 99.5002Z" fill="url(#paint9_linear)"/>
<path d="M391.8 129.8C391.8 129.8 391.7 130.4 390.8 130.6C389.9 130.9 389.3 130.1 389.3 130.1L389.1 132L392 134.1H394.4L393.1 132.6L391.8 129.8Z" fill="#133A50"/>
<path d="M401.6 127.2C401.6 127.2 402 128 401.2 128.5C400.4 129 399.6 128.5 399.6 128.5L400 130.3L406.9 128.1L401.6 127.2Z" fill="#133A50"/>
<path d="M397.2 119.3L388 106.6H229.4L220.2 119.3C218.8 121.3 220.2 125 222.6 125C250.1 125 367.3 125 394.8 125C397.2 125 398.6 121.3 397.2 119.3Z" fill="url(#paint10_linear)"/>
<path d="M397.8 121.1C397.8 122.6 396.6 125 394.8 125C367.3 125 250.1 125 222.6 125C220.9 125 219.7 122.6 219.6 121.1H397.8Z" fill="url(#paint11_linear)"/>
<path d="M370.1 109.3H376C376.4 109.3 376.6 109.2 376.6 109.1L376.4 108.8C376.3 108.7 376 108.6 375.6 108.6H369.7C369.3 108.6 369.1 108.7 369.1 108.8L369.3 109.1C369.4 109.2 369.7 109.3 370.1 109.3Z" fill="url(#paint12_linear)"/>
<path d="M360.6 109.3H366.5C366.9 109.3 367.1 109.2 367.1 109.1L366.9 108.8C366.8 108.7 366.5 108.6 366.1 108.6H360.2C359.8 108.6 359.6 108.7 359.6 108.8L359.8 109.1C359.9 109.2 360.2 109.3 360.6 109.3Z" fill="url(#paint13_linear)"/>
<path d="M351.1 109.3H357C357.4 109.3 357.7 109.2 357.6 109.1L357.4 108.8C357.4 108.7 357 108.6 356.6 108.6H350.7C350.3 108.6 350 108.7 350.1 108.8L350.2 109.1C350.4 109.2 350.7 109.3 351.1 109.3Z" fill="url(#paint14_linear)"/>
<path d="M341.6 109.3H347.5C347.9 109.3 348.2 109.2 348.1 109.1L348 108.8C348 108.7 347.6 108.6 347.2 108.6H341.3C340.9 108.6 340.6 108.7 340.7 108.8L340.8 109.1C340.9 109.2 341.2 109.3 341.6 109.3Z" fill="url(#paint15_linear)"/>
<path d="M332.1 109.3H338C338.4 109.3 338.7 109.2 338.6 109.1L338.5 108.8C338.5 108.7 338.1 108.6 337.8 108.6H331.9C331.5 108.6 331.2 108.7 331.3 108.8L331.4 109.1C331.4 109.2 331.7 109.3 332.1 109.3Z" fill="url(#paint16_linear)"/>
<path d="M322.6 109.3H328.5C328.9 109.3 329.2 109.2 329.2 109.1L329.1 108.8C329.1 108.7 328.8 108.6 328.4 108.6H322.5C322.1 108.6 321.8 108.7 321.8 108.8V109.1C321.9 109.2 322.2 109.3 322.6 109.3Z" fill="url(#paint17_linear)"/>
<path d="M313.1 109.3H319C319.4 109.3 319.7 109.2 319.7 109.1V108.8C319.7 108.7 319.4 108.6 319 108.6H313C312.6 108.6 312.3 108.7 312.3 108.8V109.1C312.4 109.2 312.7 109.3 313.1 109.3Z" fill="url(#paint18_linear)"/>
<path d="M303.5 109.3H309.4C309.8 109.3 310.1 109.2 310.1 109.1V108.8C310.1 108.7 309.8 108.6 309.4 108.6H303.5C303.1 108.6 302.8 108.7 302.8 108.8V109.1C302.9 109.2 303.2 109.3 303.5 109.3Z" fill="url(#paint19_linear)"/>
<path d="M294 109.3H299.9C300.3 109.3 300.6 109.2 300.6 109.1V108.8C300.6 108.7 300.3 108.6 299.9 108.6H294C293.6 108.6 293.3 108.7 293.3 108.8L293.2 109.1C293.4 109.2 293.7 109.3 294 109.3Z" fill="url(#paint20_linear)"/>
<path d="M284.5 109.3H290.4C290.8 109.3 291.1 109.2 291.1 109.1L291.2 108.8C291.2 108.7 290.9 108.6 290.5 108.6H284.6C284.2 108.6 283.9 108.7 283.9 108.8L283.8 109.1C283.9 109.2 284.1 109.3 284.5 109.3Z" fill="url(#paint21_linear)"/>
<path d="M275 109.3H280.9C281.3 109.3 281.6 109.2 281.6 109.1L281.7 108.8C281.7 108.7 281.4 108.6 281.1 108.6H275.2C274.8 108.6 274.5 108.7 274.5 108.8L274.4 109.1C274.4 109.2 274.6 109.3 275 109.3Z" fill="url(#paint22_linear)"/>
<path d="M265.5 109.3H271.4C271.8 109.3 272.1 109.2 272.2 109.1L272.3 108.8C272.3 108.7 272.1 108.6 271.7 108.6H265.8C265.4 108.6 265.1 108.7 265 108.8L264.9 109.1C264.9 109.2 265.1 109.3 265.5 109.3Z" fill="url(#paint23_linear)"/>
<path d="M253.8 109.3H261.9C262.3 109.3 262.6 109.2 262.7 109.1L262.9 108.8C262.9 108.7 262.7 108.6 262.3 108.6H254.3C253.9 108.6 253.6 108.7 253.5 108.8L253.3 109.1C253.2 109.2 253.4 109.3 253.8 109.3Z" fill="url(#paint24_linear)"/>
<path d="M242.1 109.3H250.2C250.6 109.3 250.9 109.2 251 109.1L251.2 108.8C251.3 108.7 251 108.6 250.6 108.6H242.5C242.1 108.6 241.8 108.7 241.7 108.8L241.5 109.1C241.4 109.2 241.7 109.3 242.1 109.3Z" fill="url(#paint25_linear)"/>
<path d="M373.5 114.5H379.7C380.1 114.5 380.4 114.4 380.3 114.3L379.6 113.4C379.5 113.3 379.1 113.2 378.7 113.2H372.5C372.1 113.2 371.8 113.3 371.9 113.4L372.5 114.3C372.8 114.4 373.1 114.5 373.5 114.5Z" fill="url(#paint26_linear)"/>
<path d="M363.5 114.5H369.7C370.1 114.5 370.4 114.4 370.3 114.3L369.7 113.4C369.6 113.3 369.3 113.2 368.9 113.2H362.7C362.3 113.2 362 113.3 362.1 113.4L362.6 114.3C362.7 114.4 363.1 114.5 363.5 114.5Z" fill="url(#paint27_linear)"/>
<path d="M353.4 114.5H359.6C360 114.5 360.3 114.4 360.2 114.3L359.7 113.4C359.6 113.3 359.3 113.2 358.9 113.2H352.7C352.3 113.2 352 113.3 352.1 113.4L352.5 114.3C352.7 114.4 353 114.5 353.4 114.5Z" fill="url(#paint28_linear)"/>
<path d="M343.4 114.5H349.6C350 114.5 350.3 114.4 350.3 114.3L349.9 113.4C349.9 113.3 349.5 113.2 349.1 113.2H342.9C342.5 113.2 342.2 113.3 342.2 113.4L342.5 114.3C342.6 114.4 343 114.5 343.4 114.5Z" fill="url(#paint29_linear)"/>
<path d="M303.5 114.5H339.3C339.9 114.5 340.3 114.4 340.3 114.4L340 113.4C340 113.3 339.5 113.3 339 113.3H303.6C303.1 113.3 302.6 113.4 302.6 113.4L302.5 114.4C302.5 114.4 302.9 114.5 303.5 114.5Z" fill="url(#paint30_linear)"/>
<path d="M293.2 114.5H299.4C299.8 114.5 300.1 114.4 300.1 114.3L300.2 113.4C300.2 113.3 299.9 113.2 299.5 113.2H293.3C292.9 113.2 292.6 113.3 292.5 113.4L292.3 114.3C292.4 114.4 292.7 114.5 293.2 114.5Z" fill="url(#paint31_linear)"/>
<path d="M283.1 114.5H289.3C289.7 114.5 290 114.4 290.1 114.3L290.3 113.4C290.3 113.3 290 113.2 289.6 113.2H283.4C283 113.2 282.7 113.3 282.6 113.4L282.3 114.3C282.4 114.4 282.7 114.5 283.1 114.5Z" fill="url(#paint32_linear)"/>
<path d="M273.1 114.5H279.3C279.7 114.5 280.1 114.4 280.1 114.3L280.4 113.4C280.4 113.3 280.1 113.2 279.7 113.2H273.5C273.1 113.2 272.7 113.3 272.7 113.4L272.3 114.3C272.4 114.4 272.7 114.5 273.1 114.5Z" fill="url(#paint33_linear)"/>
<path d="M250.1 114.5H257.1C257.5 114.5 257.9 114.4 257.9 114.3L258 114.2C258.1 114.1 257.8 114 257.4 114H250.4C250 114 249.6 114.1 249.6 114.2L249.5 114.3C249.4 114.4 249.7 114.5 250.1 114.5Z" fill="url(#paint34_linear)"/>
<path d="M239.1 114.5H246.1C246.5 114.5 246.9 114.4 246.9 114.3L247 114.2C247.1 114.1 246.8 114 246.4 114H239.4C239 114 238.6 114.1 238.5 114.2L238.4 114.3C238.4 114.4 238.7 114.5 239.1 114.5Z" fill="url(#paint35_linear)"/>
<path d="M261.2 114.5H268.2C268.6 114.5 269 114.4 269 114.3L269.1 114.2C269.1 114.1 268.8 114 268.4 114H261.4C261 114 260.6 114.1 260.6 114.2L260.5 114.3C260.5 114.4 260.8 114.5 261.2 114.5Z" fill="url(#paint36_linear)"/>
<path d="M250.6 113.7H257.6C258 113.7 258.4 113.6 258.4 113.5L258.5 113.4C258.6 113.3 258.3 113.2 257.9 113.2H251C250.6 113.2 250.2 113.3 250.2 113.4L250.1 113.5C249.9 113.6 250.2 113.7 250.6 113.7Z" fill="url(#paint37_linear)"/>
<path d="M370.9 110.5H376.9C377.3 110.5 377.5 110.4 377.5 110.3L377.1 109.7C377 109.6 376.7 109.5 376.3 109.5H370.4C370 109.5 369.8 109.6 369.8 109.7L370.2 110.3C370.1 110.4 370.5 110.5 370.9 110.5Z" fill="url(#paint38_linear)"/>
<path d="M361.3 110.5H367.3C367.7 110.5 368 110.4 367.9 110.3L367.5 109.7C367.4 109.6 367.1 109.5 366.7 109.5H360.8C360.4 109.5 360.1 109.6 360.2 109.7L360.5 110.3C360.5 110.4 360.9 110.5 361.3 110.5Z" fill="url(#paint39_linear)"/>
<path d="M351.6 110.5H357.6C358 110.5 358.3 110.4 358.2 110.3L357.9 109.7C357.9 109.6 357.5 109.5 357.1 109.5H351.2C350.8 109.5 350.5 109.6 350.6 109.7L350.9 110.3C350.9 110.4 351.2 110.5 351.6 110.5Z" fill="url(#paint40_linear)"/>
<path d="M342 110.5H348C348.4 110.5 348.7 110.4 348.6 110.3L348.4 109.7C348.4 109.6 348 109.5 347.6 109.5H341.7C341.3 109.5 341 109.6 341.1 109.7L341.3 110.3C341.3 110.4 341.6 110.5 342 110.5Z" fill="url(#paint41_linear)"/>
<path d="M332.4 110.5H338.4C338.8 110.5 339.1 110.4 339 110.3L338.8 109.7C338.8 109.6 338.4 109.5 338.1 109.5H332.2C331.8 109.5 331.5 109.6 331.5 109.7L331.6 110.3C331.6 110.4 332 110.5 332.4 110.5Z" fill="url(#paint42_linear)"/>
<path d="M322.7 110.5H328.7C329.1 110.5 329.4 110.4 329.4 110.3L329.3 109.7C329.3 109.6 329 109.5 328.6 109.5H322.7C322.3 109.5 322 109.6 322 109.7L322.1 110.3C322 110.4 322.3 110.5 322.7 110.5Z" fill="url(#paint43_linear)"/>
<path d="M313.1 110.5H319.1C319.5 110.5 319.8 110.4 319.8 110.3L319.7 109.7C319.7 109.6 319.4 109.5 319 109.5H313.1C312.7 109.5 312.4 109.6 312.4 109.7V110.3C312.4 110.4 312.7 110.5 313.1 110.5Z" fill="url(#paint44_linear)"/>
<path d="M303.5 110.5H309.5C309.9 110.5 310.2 110.4 310.2 110.3V109.7C310.2 109.6 309.9 109.5 309.5 109.5H303.6C303.2 109.5 302.9 109.6 302.9 109.7V110.3C302.8 110.4 303.1 110.5 303.5 110.5Z" fill="url(#paint45_linear)"/>
<path d="M293.8 110.5H299.8C300.2 110.5 300.5 110.4 300.5 110.3L300.6 109.7C300.6 109.6 300.3 109.5 299.9 109.5H294C293.6 109.5 293.3 109.6 293.3 109.7L293.2 110.3C293.1 110.4 293.5 110.5 293.8 110.5Z" fill="url(#paint46_linear)"/>
<path d="M284.2 110.5H290.2C290.6 110.5 290.9 110.4 290.9 110.3L291 109.7C291 109.6 290.7 109.5 290.3 109.5H284.4C284 109.5 283.7 109.6 283.7 109.7L283.5 110.3C283.5 110.4 283.8 110.5 284.2 110.5Z" fill="url(#paint47_linear)"/>
<path d="M274.6 110.5H280.6C281 110.5 281.3 110.4 281.4 110.3L281.6 109.7C281.6 109.6 281.3 109.5 281 109.5H275.1C274.7 109.5 274.4 109.6 274.3 109.7L274.1 110.3C273.9 110.4 274.2 110.5 274.6 110.5Z" fill="url(#paint48_linear)"/>
<path d="M264.9 110.5H270.9C271.3 110.5 271.6 110.4 271.7 110.3L271.9 109.7C271.9 109.6 271.7 109.5 271.3 109.5H265.4C265 109.5 264.7 109.6 264.6 109.7L264.3 110.3C264.3 110.4 264.6 110.5 264.9 110.5Z" fill="url(#paint49_linear)"/>
<path d="M253.1 110.5H261.3C261.7 110.5 262 110.4 262.1 110.3L262.4 109.7C262.4 109.6 262.2 109.5 261.8 109.5H253.7C253.3 109.5 253 109.6 252.9 109.7L252.5 110.3C252.5 110.4 252.7 110.5 253.1 110.5Z" fill="url(#paint50_linear)"/>
<path d="M241.2 110.5H249.4C249.8 110.5 250.1 110.4 250.2 110.3L250.6 109.7C250.7 109.6 250.4 109.5 250 109.5H241.8C241.4 109.5 241.1 109.6 241 109.7L240.6 110.3C240.6 110.4 240.8 110.5 241.2 110.5Z" fill="url(#paint51_linear)"/>
<path d="M367.2 111.7H377.5C378 111.7 378.4 111.6 378.4 111.6L377.9 110.9C377.9 110.8 377.4 110.8 376.8 110.8H366.6C366.1 110.8 365.7 110.9 365.7 110.9L366.1 111.6C366.2 111.6 366.6 111.7 367.2 111.7Z" fill="url(#paint52_linear)"/>
<path d="M352.4 111.7H362.7C363.2 111.7 363.6 111.6 363.6 111.6L363.2 110.9C363.2 110.8 362.7 110.8 362.2 110.8H352C351.5 110.8 351.1 110.9 351.1 110.9L351.4 111.6C351.4 111.6 351.9 111.7 352.4 111.7Z" fill="url(#paint53_linear)"/>
<path d="M342.4 111.7H348.5C348.9 111.7 349.2 111.6 349.1 111.5L348.8 110.9C348.8 110.8 348.4 110.7 348 110.7H342C341.6 110.7 341.3 110.8 341.4 110.9L341.6 111.5C341.7 111.6 342 111.7 342.4 111.7Z" fill="url(#paint54_linear)"/>
<path d="M332.7 111.7H338.8C339.2 111.7 339.5 111.6 339.5 111.5L339.3 110.9C339.3 110.8 338.9 110.7 338.5 110.7H332.5C332.1 110.7 331.8 110.8 331.8 110.9L331.9 111.5C331.9 111.6 332.3 111.7 332.7 111.7Z" fill="url(#paint55_linear)"/>
<path d="M322.9 111.7H329C329.4 111.7 329.7 111.6 329.7 111.5L329.6 110.9C329.6 110.8 329.2 110.7 328.9 110.7H322.9C322.5 110.7 322.2 110.8 322.2 110.9L322.3 111.5C322.2 111.6 322.5 111.7 322.9 111.7Z" fill="url(#paint56_linear)"/>
<path d="M313.1 111.7H319.2C319.6 111.7 319.9 111.6 319.9 111.5L319.8 110.9C319.8 110.8 319.5 110.7 319.1 110.7H313.1C312.7 110.7 312.4 110.8 312.4 110.9V111.5C312.4 111.6 312.8 111.7 313.1 111.7Z" fill="url(#paint57_linear)"/>
<path d="M303.4 111.7H309.5C309.9 111.7 310.2 111.6 310.2 111.5V110.9C310.2 110.8 309.9 110.7 309.5 110.7H303.5C303.1 110.7 302.8 110.8 302.8 110.9V111.5C302.7 111.6 303 111.7 303.4 111.7Z" fill="url(#paint58_linear)"/>
<path d="M293.6 111.7H299.7C300.1 111.7 300.4 111.6 300.4 111.5L300.5 110.9C300.5 110.8 300.2 110.7 299.8 110.7H293.8C293.4 110.7 293.1 110.8 293.1 110.9L293 111.5C292.9 111.6 293.2 111.7 293.6 111.7Z" fill="url(#paint59_linear)"/>
<path d="M283.9 111.7H290C290.4 111.7 290.7 111.6 290.7 111.5L290.8 110.9C290.8 110.8 290.5 110.7 290.1 110.7H284.1C283.7 110.7 283.4 110.8 283.3 110.9L283.1 111.5C283.2 111.6 283.5 111.7 283.9 111.7Z" fill="url(#paint60_linear)"/>
<path d="M274.1 111.7H280.2C280.6 111.7 280.9 111.6 281 111.5L281.2 110.9C281.2 110.8 280.9 110.7 280.5 110.7H274.5C274.1 110.7 273.8 110.8 273.7 110.9L273.5 111.5C273.4 111.6 273.7 111.7 274.1 111.7Z" fill="url(#paint61_linear)"/>
<path d="M264.4 111.7H270.5C270.9 111.7 271.2 111.6 271.3 111.5L271.5 110.9C271.5 110.8 271.3 110.7 270.9 110.7H264.9C264.5 110.7 264.2 110.8 264.1 110.9L263.8 111.5C263.7 111.6 264 111.7 264.4 111.7Z" fill="url(#paint62_linear)"/>
<path d="M254.8 111.7H260.9C261.3 111.7 261.6 111.6 261.7 111.5L262 110.9C262 110.8 261.8 110.7 261.4 110.7H255.4C255 110.7 254.7 110.8 254.6 110.9L254.2 111.5C254.2 111.6 254.4 111.7 254.8 111.7Z" fill="url(#paint63_linear)"/>
<path d="M240.6 111.7H250.7C251.2 111.7 251.7 111.6 251.8 111.6L252.2 110.9C252.2 110.8 251.8 110.8 251.3 110.8H241.3C240.8 110.8 240.3 110.9 240.2 110.9L239.7 111.6C239.7 111.6 240.1 111.7 240.6 111.7Z" fill="url(#paint64_linear)"/>
<path d="M362.6 112.9H378.6C379 112.9 379.3 112.8 379.2 112.7L378.7 112.1C378.6 112 378.3 111.9 377.9 111.9H362C361.6 111.9 361.3 112 361.4 112.1L361.7 112.7C361.8 112.8 362.2 112.9 362.6 112.9Z" fill="url(#paint65_linear)"/>
<path d="M352.7 112.9H358.8C359.2 112.9 359.5 112.8 359.4 112.7L359.1 112.1C359.1 112 358.7 111.9 358.3 111.9H352.2C351.8 111.9 351.5 112 351.6 112.1L351.9 112.7C352 112.8 352.3 112.9 352.7 112.9Z" fill="url(#paint66_linear)"/>
<path d="M342.8 112.9H348.9C349.3 112.9 349.6 112.8 349.5 112.7L349.2 112.1C349.2 112 348.8 111.9 348.4 111.9H342.3C341.9 111.9 341.6 112 341.6 112.1L341.8 112.7C342.1 112.8 342.4 112.9 342.8 112.9Z" fill="url(#paint67_linear)"/>
<path d="M333 112.9H339.1C339.5 112.9 339.8 112.8 339.8 112.7L339.6 112.1C339.6 112 339.2 111.9 338.8 111.9H332.7C332.3 111.9 332 112 332 112.1L332.1 112.7C332.2 112.8 332.6 112.9 333 112.9Z" fill="url(#paint68_linear)"/>
<path d="M323.1 112.9H329.2C329.6 112.9 329.9 112.8 329.9 112.7L329.8 112.1C329.8 112 329.4 111.9 329.1 111.9H323C322.6 111.9 322.3 112 322.3 112.1L322.4 112.7C322.3 112.8 322.7 112.9 323.1 112.9Z" fill="url(#paint69_linear)"/>
<path d="M313.2 112.9H319.3C319.7 112.9 320 112.8 320 112.7L319.9 112.1C319.9 112 319.6 111.9 319.2 111.9H313.1C312.7 111.9 312.4 112 312.4 112.1V112.7C312.5 112.8 312.8 112.9 313.2 112.9Z" fill="url(#paint70_linear)"/>
<path d="M303.3 112.9H309.4C309.8 112.9 310.1 112.8 310.1 112.7V112.1C310.1 112 309.8 111.9 309.4 111.9H303.3C302.9 111.9 302.6 112 302.6 112.1V112.7C302.6 112.8 302.9 112.9 303.3 112.9Z" fill="url(#paint71_linear)"/>
<path d="M293.4 112.9H299.5C299.9 112.9 300.2 112.8 300.2 112.7L300.3 112.1C300.3 112 300 111.9 299.6 111.9H293.5C293.1 111.9 292.8 112 292.8 112.1L292.7 112.7C292.7 112.8 293 112.9 293.4 112.9Z" fill="url(#paint72_linear)"/>
<path d="M283.5 112.9H289.6C290 112.9 290.3 112.8 290.4 112.7L290.5 112.1C290.5 112 290.2 111.9 289.8 111.9H283.7C283.3 111.9 283 112 282.9 112.1L282.7 112.7C282.8 112.8 283.1 112.9 283.5 112.9Z" fill="url(#paint73_linear)"/>
<path d="M273.7 112.9H279.8C280.2 112.9 280.5 112.8 280.6 112.7L280.8 112.1C280.8 112 280.5 111.9 280.1 111.9H274C273.6 111.9 273.3 112 273.2 112.1L273 112.7C273 112.8 273.3 112.9 273.7 112.9Z" fill="url(#paint74_linear)"/>
<path d="M263.8 112.9H269.9C270.3 112.9 270.7 112.8 270.7 112.7L271 112.1C271 112 270.8 111.9 270.4 111.9H264.3C263.9 111.9 263.6 112 263.5 112.1L263.2 112.7C263.1 112.8 263.4 112.9 263.8 112.9Z" fill="url(#paint75_linear)"/>
<path d="M239.4 112.9H260C260.4 112.9 260.8 112.8 260.8 112.7L261.1 112.1C261.1 112 260.9 111.9 260.5 111.9H240.1C239.7 111.9 239.3 112 239.3 112.1L238.8 112.7C238.8 112.8 239 112.9 239.4 112.9Z" fill="url(#paint76_linear)"/>
<path d="M291.6 119.4H327.2C327.7 119.4 328.1 118.9 327.9 118.6L326 116C325.9 115.9 325.7 115.8 325.5 115.8H293.2C293 115.8 292.8 115.9 292.7 116L290.9 118.6C290.7 118.9 291.1 119.4 291.6 119.4Z" fill="url(#paint77_linear)"/>
<path d="M392 110.2C392 110 391.9 109.9 391.9 109.9L386.1 109.6C382.5 108.1 383.7 102.8 383.7 102.8C383.7 102.8 393.6 103.4 394.5 104.2C395.4 105.1 396.1 104.8 397.5 109.7C397.5 109.8 397.6 110 397.6 110.2H392Z" fill="url(#paint78_linear)"/>
<path d="M384.7 110.2C379.9 109.9 374 109.2 372.9 107.8C370.8 104.9 372.6 102.1 372.6 99.5998L377.8 96.2998L382.9 100.2L389.2 102.2C391.7 103.1 394.6 104.4 395.5 105.2C396.3 106 397.8 107 397.3 110.2H384.7Z" fill="url(#paint79_linear)"/>
<path d="M379 80.0999C379.3 81.2999 381.8 81.1999 383.5 79.0999C385.2 76.9999 386.6 73.2999 384.8 70.6999C383 68.0999 380.6 73.0999 379.8 75.7999C379 78.3999 379 80.0999 379 80.0999Z" fill="#B56537"/>
<path d="M384.6 70.6001C385.1 71.2001 384.6 73.3001 384.5 73.7001C384.3 74.3001 384.7 75.2001 384.5 75.3001C384.3 75.4001 384.2 75.3001 383.9 75.4001C383.9 75.4001 383 77.1001 382.9 77.4001C382.7 77.9001 381.5 77.0001 381.1 77.4001C380.8 77.7001 380.8 78.2001 380.7 78.9001L381.4 81.8001L375.6 80.7001C375.6 80.7001 377.3 78.2001 377.7 77.0001C378.1 75.8001 377.6 74.6001 377.7 73.0001C377.8 71.5001 378.5 69.5001 380.7 69.3001C382.8 69.0001 384 69.9001 384.6 70.6001Z" fill="#FEC4AD"/>
<path d="M383.1 91.7C382.7 92.6 382.1 93.4 381.4 94.1C383.6 97.3 386.3 100.8 386.3 100.8L388.3 100.7C386.9 98.6 384.6 94.4 383.1 91.7Z" fill="#FEC4AD"/>
<path d="M386.8 100.1L387.8 100.3C387.8 100.3 389.6 100.9 390.2 101.1C390.8 101.3 391.2 102.2 391.8 102.8C392.5 103.4 393 104.2 393 104.2L392.4 103.9L391 103.5L390 102.8C390 102.8 388.7 102.1 387.9 101.8C387.1 101.6 385.9 100.9 385.9 100.9L386.8 100.1Z" fill="#FEC4AD"/>
<path d="M380.9 81.1001C382.1 81.1001 383.1 82.6001 383.5 86.3001C383.9 89.9001 383.7 92.2001 384.1 93.8001L381.8 94.7001C381.8 94.7001 380.8 90.5001 380.5 88.2001C380.3 85.8001 378.6 81.1001 380.9 81.1001Z" fill="#FEC4AD"/>
<path d="M381 90.7C381.9 90.6 382.9 90.5 383.8 90.4C383.8 89.2 383.7 87.9 383.5 86.2C383.1 82.6 382.1 81 380.9 81C378.6 81 380.3 85.7 380.5 88C380.6 88.8 380.8 89.8 381 90.7Z" fill="#0F86B8"/>
<path d="M382.8 99.8C382.8 99.8 382.4 100 380 100.3C377.6 100.6 372.9 99.5 372.9 99.5C372.9 99.5 374.4 91.9 374.3 88.5C374.2 85.1 373.9 81.4 373.9 81.4L380.3 80.3C380.3 80.3 381.9 80.9 382.7 83.4C383.7 85.8 383.5 96.7 382.8 99.8Z" fill="#15A0DB"/>
<path d="M378.4 80.2999L380.3 80.1999C380.3 80.1999 380.9 83.1999 380.9 88.8999C380.9 93.6999 379.9 100.2 379.9 100.2C379.9 100.2 377.9 101.9 375.9 102C373.9 102.1 372 102.2 372 102.2C372 102.2 372.1 94.9999 371.7 90.3999C371.3 85.7999 369.9 84.9999 370.1 81.9999C370.5 76.9999 376.4 78.8999 376.4 78.8999L378.4 80.2999Z" fill="#15A0DB"/>
<path d="M380.3 80.2999C380.3 80.2999 377.2 78.7999 376.7 77.8999C376.7 77.8999 376.4 78.6999 376.4 79.0999C376.5 79.4999 379.4 82.2999 379.4 82.2999L380.3 80.2999Z" fill="#0F86B8"/>
<path d="M377.8 80.6001C377 76.8001 379.1 75.6001 381.3 74.3001C383.5 72.9001 384.8 70.6001 384.8 70.6001C384.8 70.6001 383.9 67.8001 381.4 67.2001C378.9 66.6001 376.7 67.6001 375.9 71.5001C375.3 74.3001 373.5 76.0001 371.6 77.3001C369.3 79.0001 368.6 83.2001 371.3 85.2001C373.8 87.1001 372.3 82.6001 373.3 80.1001C373.5 79.7001 375.4 81.8001 376.5 82.2001C377.6 82.7001 377.9 81.2001 377.8 80.6001Z" fill="#B56537"/>
<path d="M380.8 78.8C380.8 78.8 381 79.7 380.4 80.3L381.5 81.9C381.5 81.9 381.8 80.6 381.5 80.1C381.2 79.5 380.8 78.8 380.8 78.8Z" fill="#0F86B8"/>
<path d="M374.2 81.7999C374.4 83.4999 374.7 89.1999 375 92.5999C375 92.5999 382.8 97.9999 386.3 100.1L384.6 101.1C384.6 101.1 374.5 96.2999 372.5 94.4999C370.5 92.6999 370.5 84.5999 370.7 82.4999C371.1 79.3999 374 79.8999 374.2 81.7999Z" fill="#FEC4AD"/>
<path d="M371.3 91.8999C370.5 88.7999 370.6 83.8999 370.7 82.3999C371 79.3999 374.4 78.9999 375 81.0999C375.4 82.5999 375.4 86.8999 374.9 91.1999C373.7 91.3999 372.5 91.6999 371.3 91.8999Z" fill="#15A0DB"/>
<path d="M385.3 100L386.3 100.1C386.3 100.1 388.2 100.5 388.8 100.6C389.4 100.7 389.9 101.6 390.7 102.1C391.4 102.6 392.1 103.3 392.1 103.3L391.4 103.1L390 102.9L388.9 102.3C388.9 102.3 387.5 101.7 386.7 101.6C385.8 101.5 384.6 101 384.6 101L385.3 100Z" fill="#FEC4AD"/>
<path d="M391.9 103.5L393.7 104L398.9 93.0001L397.5 92.6001L391.9 103.5Z" fill="#A6AEBA"/>
<path d="M392.4 103.6L399.5 105.7L404.6 94.7001L397.6 92.6001L392.4 103.6Z" fill="#D2DCEB"/>
<path d="M391.675 104.132L399.355 106.37L399.607 105.506L391.926 103.268L391.675 104.132Z" fill="#D2DCEB"/>
<path d="M381.993 101.29L391.69 104.116L391.942 103.252L382.245 100.426L381.993 101.29Z" fill="#A6AEBA"/>
<path d="M397.8 99.6C397.3 100.4 397.2 101.4 397.5 101.8C397.8 102.2 398.4 101.9 398.9 101C399.4 100.2 399.5 99.2 399.2 98.8C398.9 98.4 398.3 98.8 397.8 99.6Z" fill="#A6AEBA"/>
<path d="M376.3 70.2C376.3 70.2 377.7 65 381.7 66C385.1 66.8 385.7 69.8 385.8 71.5L387.1 73.6C387.1 73.6 385 74.5 378.5 71.6C376.9 70.9 376.3 70.2 376.3 70.2Z" fill="url(#paint80_linear)"/>
<path d="M236.8 53.2L240.6 56.3L248 55.8L251.5 51.5L244.1 52.1L241.7 48.4L242.9 44.7L251 43.6L244.8 39.9L238.2 40.4L235.9 44.8L190 56.3L186.8 53.8L179.5 54.3L176 58.7L183.4 58L185.8 61.7L184.6 65.4L176.5 66.5L182.7 70.2L189.3 69.7L192 64.4L236.8 53.2Z" fill="url(#paint81_linear)"/>
<path d="M206.4 76.5C206.4 76.5 203.2 74.5 201.2 72.5C197.4 68.6 196.3 64.3 196.3 64.3L194.1 65.6C194.1 65.6 197.4 73.7 199.6 76.7C201.8 79.6 207.1 81.4001 207.1 81.4001L206.4 76.5Z" fill="#FEC4AD"/>
<path d="M226.7 71.8999C226.7 71.8999 229.2 68.9999 230.1 66.2999C231 63.6999 231.7 56.8999 231.7 56.8999L234.2 57.2999C234.2 57.2999 234 66.0999 233 69.5999C232 73.0999 227.7 76.6999 227.7 76.6999L226.7 71.8999Z" fill="#FEC4AD"/>
<path d="M226.7 71.6C230.9 65.3 231.7 58.3 231.7 58.3L234.4 58.9001C236.1 66.6001 231.7 76.1001 227.2 80.3001C224.6 82.8001 222.7 84 222.7 84L220.6 76.6C220.6 76.7 224.4 75 226.7 71.6Z" fill="#15A0DB"/>
<path d="M231 55.3C230.7 54 230.7 53.1 231.1 52.9C231.4 52.8 231.5 54 231.8 54.5C232.1 54.1 232.3 53.3 232.3 52.5C232.2 51.6 232.4 50.9 233.1 51C233.7 51.1 234.7 51.5 234.8 52C234.9 52.6 234.8 54.8 234.8 55.6C234.9 56.4 234.3 57.1 234.3 57.5C234.3 57.9 232.2 58 232.2 58C232.1 57.8 231.8 56.8 231.8 56.8C231.8 56.8 231.5 56.1 231.3 55.9C231.1 55.9 231 55.3 231 55.3Z" fill="#FEC4AD"/>
<path d="M219.3 147H222.2C222.2 147 221.2 147.5 222.9 147.9C224.5 148.2 224.9 150.1 224.9 150.1H219.2V147H219.3Z" fill="url(#paint82_linear)"/>
<path d="M211.5 137.6C211.6 137.8 211.5 147.8 211.5 147.8H214.4V137.4L211.5 137.6Z" fill="#FEC4AD"/>
<path d="M211.5 147H214.4C214.4 147 213.4 147.5 215.1 147.9C216.7 148.2 217.1 150.1 217.1 150.1H211.4V147H211.5Z" fill="url(#paint83_linear)"/>
<path d="M220.8 70.5C221 71.2 220.1 71 220.1 71.2C220.1 71.5 220.9 72.7 220.5 73.2C220 73.7 218.6 74.1 218.5 74.6C218.4 75.1 219.5 77.3 219.5 77.3L214.2 78.5L213.7 74C213.7 74 213 72.3 213.2 69.9C213.4 67.5 217.4 65.2 217.4 65.2C217.6 65 217.7 64.1 218.1 64.4C218.7 64.8 219.3 66.7 219.6 67.6C219.8 68.4 220.6 69.8 220.8 70.5Z" fill="#FEC4AD"/>
<path d="M216.3 69.8999C216.6 70.4999 215.7 70.4999 215.8 70.7999L214.3 67.3999C214.8 68.1999 216 69.2999 216.3 69.8999Z" fill="#DBA87B"/>
<path d="M218.7 64.7999C218.7 65.2999 217.4 65.8 217.5 66.9C217.6 67.9 218.1 68.3999 218.2 68.5999C218.3 68.7999 218.2 70.1999 218.2 70.1999C218.2 70.1999 217.8 68.9 217.3 69C216.7 69.1 216.3 69.6 217.1 70.4C217.8 71.3 217.8 71.8 217.4 72.8C217.1 73.8 217.3 74.4 217.3 74.4C216.3 74.6 213.8 75.1999 213.8 75.1999C212.9 73.5999 212 72.5999 211.2 71.0999C211.2 71.0999 211.2 68.8 211.1 68C211 67.3 210.2 67.3 210.5 66.5C211.1 64.6 213.4 63.3 215.1 63.2C216.7 63.2 218.7 64.7999 218.7 64.7999Z" fill="url(#paint84_linear)"/>
<path d="M215.2 99.6001C215.2 102.2 213.2 104.5 215 109.9C216.8 115.3 218.2 135.5 218.2 135.5H222.5C222.5 135.5 222.9 122.4 223.6 114.5C224.3 106.6 223.6 99.6001 223.6 99.6001H215.2Z" fill="url(#paint85_linear)"/>
<path d="M213.1 77.5C213.1 77.5 205.9 76.9 202.6 73.5C198.7 69.6 197.7 66.2 197.7 66.2L195 67.4C195 67.4 196.5 74.5 201.5 78.9C206.5 83.3 215.8 84.5999 215.8 84.5999L213.1 77.5Z" fill="#15A0DB"/>
<path d="M193.1 64.2001C192.9 63.4001 192 61.4001 191.8 60.8001C191.7 60.2001 192.5 59.6001 193 59.3001C193.5 59.0001 194 59.5001 194.2 60.4001C194.4 61.3001 195.1 62.1001 195.5 62.3001C195.6 61.5001 195.4 60.8001 195.8 60.9001C196.2 61.0001 196.3 61.6001 196.4 62.6001C196.4 62.6001 196.5 63.2001 196.4 63.4001C196.3 63.6001 196.3 64.4001 196.3 64.4001C196.3 64.4001 196.3 65.4001 196.3 65.6001C196.3 65.6001 194.3 66.2001 194.1 65.8001C194.1 65.4001 193.3 64.9001 193.1 64.2001Z" fill="#FEC4AD"/>
<path d="M209.1 99.1001C209.1 101.7 208.9 104.2 209.6 109.9C210.6 117.4 211.1 135.5 211.1 135.5H215.4C215.4 135.5 216.5 122.4 217.2 114.5C217.9 106.6 219 99.6001 219 99.6001L209.1 99.1001Z" fill="url(#paint86_linear)"/>
<path d="M208.4 101.9C208.4 101.9 208.8 97.4999 209.4 90.4999C210 83.4999 212.6 77.5999 212.6 77.5999C212.6 77.5999 214.7 76.3999 215.6 76.2999C219.3 75.6999 220.6 76.6999 220.6 76.6999C220.6 76.6999 223 79.5999 223.4 82.7999C223.8 85.9999 224.3 102.6 224.3 102.6C224.3 102.6 220.6 104.5 215 104.5C209.5 104.6 208.4 101.9 208.4 101.9Z" fill="#15A0DB"/>
<path d="M211.2 71.3001C211.2 71.3001 207.8 66.5001 211.4 63.7001C214.4 61.4001 217.4 62.9001 219 64.0001C218.9 64.0001 221.7 64.4001 221.7 64.4001C221.7 64.4001 221 66.8001 214.1 70.3001C212.3 71.3001 211.2 71.3001 211.2 71.3001Z" fill="url(#paint87_linear)"/>
<path d="M213 148.5L214.5 147L215.5 135.5H211.2L211.5 147L213 148.5Z" fill="url(#paint88_linear)"/>
<path d="M218.3 135.5L219.3 147.8H222.2L222.6 135.5H218.3Z" fill="url(#paint89_linear)"/>
<path d="M200.9 144.6C200.9 147.2 187.1 149 177.7 148.9C168.4 148.8 156 147.4 156 144.6C156 143.4 164.1 135.1 164.1 135.1H192.8C192.8 135.1 200.9 143.4 200.9 144.6Z" fill="url(#paint90_linear)"/>
<path d="M192.8 135.1L178.5 140.1L164.2 135.1L176.9 89.3C177.1 88.5 178.6 88 178.6 88C179.4 88 180.1 88.5 180.3 89.3L192.8 135.1Z" fill="url(#paint91_linear)"/>
<mask id="mask1" mask-type="alpha" maskUnits="userSpaceOnUse" x="164" y="88" width="29" height="53">
<path d="M192.8 135.1L178.5 140.1L164.2 135.1L176.9 89.3C177.1 88.5 178.6 88 178.6 88C179.4 88 180.1 88.5 180.3 89.3L192.8 135.1Z" fill="url(#paint92_linear)"/>
</mask>
<g mask="url(#mask1)">
<path d="M203.4 118.4C186 127 169.5 126.5 152.1 117.1C151.2 119 150.3 120.8 149.3 122.7C159.3 128.1 169.2 130.8 179 130.8C187.7 130.8 196.5 128.7 205.4 124.4C204.7 122.4 204.1 120.4 203.4 118.4Z" fill="url(#paint93_linear)"/>
<path d="M198.8 104.3C184.7 111.7 172.9 111.6 158.7 104C157.7 105.9 156.8 107.7 155.9 109.6C164 113.9 171.5 116 179.1 116C186.2 116 193.3 114.1 200.8 110.4C200.1 108.3 199.4 106.3 198.8 104.3Z" fill="url(#paint94_linear)"/>
<path d="M194.7 91.5C185.8 98.1 173.9 98.4 164.8 92.4C163.8 94.3 162.8 96.1 161.9 98C167.2 101.3 173.1 103 179.1 103C185.2 103 191.4 101.2 196.7 97.8C196 95.7 195.4 93.6 194.7 91.5Z" fill="url(#paint95_linear)"/>
</g>
<path d="M288.801 74.5129L329.201 75.6129C330.601 75.6129 331.501 74.1129 330.801 72.9129L311.501 38.9129C310.801 37.7129 309.101 37.7129 308.401 38.8129L287.301 71.8129C286.501 72.9129 287.401 74.5129 288.801 74.5129Z" fill="url(#paint96_linear)"/>
<path d="M309.301 64.7129C309.801 64.7129 310.201 64.9129 310.501 65.2129C310.801 65.5129 310.901 65.9129 310.901 66.3129C310.901 66.7129 310.701 67.1129 310.401 67.4129C310.101 67.7129 309.701 67.8129 309.201 67.8129C308.701 67.8129 308.301 67.6129 308.001 67.3129C307.701 67.0129 307.601 66.6129 307.601 66.2129C307.601 65.8129 307.801 65.4129 308.101 65.1129C308.401 64.8129 308.801 64.7129 309.301 64.7129ZM310.601 63.1129L308.201 63.0129L308.101 52.7129L311.201 52.8129L310.601 63.1129Z" fill="#231F20"/>
<path d="M293.101 70.513L325.201 71.313L309.801 44.313L293.101 70.513Z" stroke="#231F20" stroke-width="1.2994" stroke-miterlimit="10" stroke-linecap="round" stroke-linejoin="round"/>
<path d="M279.7 51.2V44.5H276.9C276.6 43.4 276.2 42.3 275.6 41.3L277.6 39.3L272.9 34.6L270.9 36.6C269.9 36 268.8 35.6 267.7 35.3V32.5H261V35.3C259.9 35.6 258.8 36 257.8 36.6L255.8 34.6L251.1 39.3L253.1 41.3C252.5 42.3 252.1 43.4 251.8 44.5H249V51.2H251.8C252.1 52.3 252.5 53.4 253.1 54.4L251.1 56.4L255.8 61.1L257.8 59.1C258.8 59.7 259.9 60.1 261 60.4V63.2H267.7V60.4C268.8 60.1 269.9 59.7 270.9 59.1L272.9 61.1L277.6 56.4L275.6 54.4C276.2 53.4 276.6 52.3 276.9 51.2H279.7ZM269.8 53.3C268.4 54.7 266.4 55.5 264.4 55.5C262.4 55.5 260.4 54.7 259 53.3C257.6 51.9 256.8 49.9 256.8 47.9C256.8 45.9 257.6 43.9 259 42.5C260.4 41.1 262.4 40.3 264.4 40.3C266.4 40.3 268.4 41.1 269.8 42.5C271.2 43.9 272 45.9 272 47.9C272 49.9 271.2 51.9 269.8 53.3Z" fill="url(#paint97_linear)"/>
<path d="M296.9 37.3V34H295.5C295.4 33.4 295.1 32.9 294.8 32.4L295.8 31.4L293.5 29.1L292.5 30.1C292 29.8 291.5 29.6 290.9 29.4V28H287.6V29.4C287 29.5 286.5 29.8 286 30.1L285 29.1L282.7 31.4L283.7 32.4C283.4 32.9 283.2 33.4 283 34H281.6V37.3H283C283.1 37.9 283.4 38.4 283.7 38.9L282.7 39.9L285 42.2L286 41.2C286.5 41.5 287 41.7 287.6 41.9V43.3H290.9V41.9C291.5 41.8 292 41.5 292.5 41.2L293.5 42.2L295.8 39.9L294.8 38.9C295.1 38.4 295.3 37.9 295.5 37.3H296.9ZM292 38.4C291.3 39.1 290.3 39.5 289.3 39.5C288.3 39.5 287.3 39.1 286.6 38.4C285.9 37.7 285.5 36.7 285.5 35.7C285.5 34.7 285.9 33.7 286.6 33C287.3 32.3 288.3 31.9 289.3 31.9C290.3 31.9 291.3 32.3 292 33C292.7 33.7 293.1 34.7 293.1 35.7C293.1 36.7 292.7 37.6 292 38.4Z" fill="url(#paint98_linear)"/>
<defs>
<linearGradient id="paint0_linear" x1="106.582" y1="124.951" x2="106.582" y2="130.853" gradientUnits="userSpaceOnUse">
<stop stop-color="#FC9D00"/>
<stop offset="1" stop-color="#F3510F"/>
</linearGradient>
<linearGradient id="paint1_linear" x1="106.582" y1="104.881" x2="106.582" y2="127.098" gradientUnits="userSpaceOnUse">
<stop stop-color="#FC9D00"/>
<stop offset="1" stop-color="#F3510F"/>
</linearGradient>
<linearGradient id="paint2_linear" x1="106.582" y1="104.881" x2="106.582" y2="127.098" gradientUnits="userSpaceOnUse">
<stop stop-color="#FC9D00"/>
<stop offset="1" stop-color="#F3510F"/>
</linearGradient>
<linearGradient id="paint3_linear" x1="106.57" y1="106.209" x2="105.783" y2="129.805" gradientUnits="userSpaceOnUse">
<stop stop-color="white"/>
<stop offset="0.1688" stop-color="#FAFBFC"/>
<stop offset="1" stop-color="#E6EAED"/>
</linearGradient>
<linearGradient id="paint4_linear" x1="106.772" y1="106.216" x2="105.986" y2="129.812" gradientUnits="userSpaceOnUse">
<stop stop-color="white"/>
<stop offset="0.1688" stop-color="#FAFBFC"/>
<stop offset="1" stop-color="#E6EAED"/>
</linearGradient>
<linearGradient id="paint5_linear" x1="107.001" y1="106.223" x2="106.215" y2="129.82" gradientUnits="userSpaceOnUse">
<stop stop-color="white"/>
<stop offset="0.1688" stop-color="#FAFBFC"/>
<stop offset="1" stop-color="#E6EAED"/>
</linearGradient>
<linearGradient id="paint6_linear" x1="308.688" y1="9" x2="308.688" y2="108.587" gradientUnits="userSpaceOnUse">
<stop stop-color="#BFD7F7"/>
<stop offset="0.2701" stop-color="#B6D2F5"/>
<stop offset="1" stop-color="#A2C5EF"/>
</linearGradient>
<linearGradient id="paint7_linear" x1="383.518" y1="56.4808" x2="233.859" y2="56.4808" gradientUnits="userSpaceOnUse">
<stop stop-color="#BFD7F7"/>
<stop offset="0.2701" stop-color="#B6D2F5"/>
<stop offset="1" stop-color="#A2C5EF"/>
</linearGradient>
<linearGradient id="paint8_linear" x1="401.893" y1="116.075" x2="383.565" y2="116.075" gradientUnits="userSpaceOnUse">
<stop stop-color="#343A44"/>
<stop offset="0.3009" stop-color="#232D3E"/>
<stop offset="0.6391" stop-color="#182439"/>
<stop offset="1" stop-color="#142138"/>
</linearGradient>
<linearGradient id="paint9_linear" x1="397.414" y1="113.576" x2="371.939" y2="113.576" gradientUnits="userSpaceOnUse">
<stop stop-color="#343A44"/>
<stop offset="0.3009" stop-color="#232D3E"/>
<stop offset="0.6391" stop-color="#182439"/>
<stop offset="1" stop-color="#142138"/>
</linearGradient>
<linearGradient id="paint10_linear" x1="308.702" y1="106.627" x2="308.702" y2="125.046" gradientUnits="userSpaceOnUse">
<stop stop-color="#BFD7F7"/>
<stop offset="0.2701" stop-color="#B6D2F5"/>
<stop offset="1" stop-color="#A2C5EF"/>
</linearGradient>
<linearGradient id="paint11_linear" x1="308.558" y1="112.932" x2="309.052" y2="141.073" gradientUnits="userSpaceOnUse">
<stop stop-color="#75769A"/>
<stop offset="0.9677" stop-color="white" stop-opacity="0"/>
</linearGradient>
<linearGradient id="paint12_linear" x1="372.856" y1="108.697" x2="372.856" y2="109.311" gradientUnits="userSpaceOnUse">
<stop stop-color="white"/>
<stop offset="1" stop-color="white" stop-opacity="0.472"/>
</linearGradient>
<linearGradient id="paint13_linear" x1="363.379" y1="108.697" x2="363.379" y2="109.311" gradientUnits="userSpaceOnUse">
<stop stop-color="white"/>
<stop offset="1" stop-color="white" stop-opacity="0.472"/>
</linearGradient>
<linearGradient id="paint14_linear" x1="353.902" y1="108.697" x2="353.902" y2="109.311" gradientUnits="userSpaceOnUse">
<stop stop-color="white"/>
<stop offset="1" stop-color="white" stop-opacity="0.472"/>
</linearGradient>
<linearGradient id="paint15_linear" x1="344.425" y1="108.697" x2="344.425" y2="109.311" gradientUnits="userSpaceOnUse">
<stop stop-color="white"/>
<stop offset="1" stop-color="white" stop-opacity="0.472"/>
</linearGradient>
<linearGradient id="paint16_linear" x1="334.948" y1="108.697" x2="334.948" y2="109.311" gradientUnits="userSpaceOnUse">
<stop stop-color="white"/>
<stop offset="1" stop-color="white" stop-opacity="0.472"/>
</linearGradient>
<linearGradient id="paint17_linear" x1="325.471" y1="108.697" x2="325.471" y2="109.311" gradientUnits="userSpaceOnUse">
<stop stop-color="white"/>
<stop offset="1" stop-color="white" stop-opacity="0.472"/>
</linearGradient>
<linearGradient id="paint18_linear" x1="315.994" y1="108.697" x2="315.994" y2="109.311" gradientUnits="userSpaceOnUse">
<stop stop-color="white"/>
<stop offset="1" stop-color="white" stop-opacity="0.472"/>
</linearGradient>
<linearGradient id="paint19_linear" x1="306.506" y1="108.697" x2="306.506" y2="109.311" gradientUnits="userSpaceOnUse">
<stop stop-color="white"/>
<stop offset="1" stop-color="white" stop-opacity="0.472"/>
</linearGradient>
<linearGradient id="paint20_linear" x1="297.028" y1="108.697" x2="297.028" y2="109.311" gradientUnits="userSpaceOnUse">
<stop stop-color="white"/>
<stop offset="1" stop-color="white" stop-opacity="0.472"/>
</linearGradient>
<linearGradient id="paint21_linear" x1="287.551" y1="108.697" x2="287.551" y2="109.311" gradientUnits="userSpaceOnUse">
<stop stop-color="white"/>
<stop offset="1" stop-color="white" stop-opacity="0.472"/>
</linearGradient>
<linearGradient id="paint22_linear" x1="278.074" y1="108.697" x2="278.074" y2="109.311" gradientUnits="userSpaceOnUse">
<stop stop-color="white"/>
<stop offset="1" stop-color="white" stop-opacity="0.472"/>
</linearGradient>
<linearGradient id="paint23_linear" x1="268.597" y1="108.697" x2="268.597" y2="109.311" gradientUnits="userSpaceOnUse">
<stop stop-color="white"/>
<stop offset="1" stop-color="white" stop-opacity="0.472"/>
</linearGradient>
<linearGradient id="paint24_linear" x1="258.033" y1="108.696" x2="258.033" y2="109.311" gradientUnits="userSpaceOnUse">
<stop stop-color="white"/>
<stop offset="1" stop-color="white" stop-opacity="0.472"/>
</linearGradient>
<linearGradient id="paint25_linear" x1="246.361" y1="108.696" x2="246.361" y2="109.311" gradientUnits="userSpaceOnUse">
<stop stop-color="white"/>
<stop offset="1" stop-color="white" stop-opacity="0.472"/>
</linearGradient>
<linearGradient id="paint26_linear" x1="376.224" y1="113.17" x2="376.224" y2="114.473" gradientUnits="userSpaceOnUse">
<stop stop-color="white"/>
<stop offset="1" stop-color="white" stop-opacity="0.472"/>
</linearGradient>
<linearGradient id="paint27_linear" x1="366.244" y1="113.17" x2="366.244" y2="114.473" gradientUnits="userSpaceOnUse">
<stop stop-color="white"/>
<stop offset="1" stop-color="white" stop-opacity="0.472"/>
</linearGradient>
<linearGradient id="paint28_linear" x1="356.264" y1="113.17" x2="356.264" y2="114.473" gradientUnits="userSpaceOnUse">
<stop stop-color="white"/>
<stop offset="1" stop-color="white" stop-opacity="0.472"/>
</linearGradient>
<linearGradient id="paint29_linear" x1="346.283" y1="113.17" x2="346.283" y2="114.473" gradientUnits="userSpaceOnUse">
<stop stop-color="white"/>
<stop offset="1" stop-color="white" stop-opacity="0.472"/>
</linearGradient>
<linearGradient id="paint30_linear" x1="321.378" y1="113.17" x2="321.378" y2="114.472" gradientUnits="userSpaceOnUse">
<stop stop-color="white"/>
<stop offset="1" stop-color="white" stop-opacity="0.472"/>
</linearGradient>
<linearGradient id="paint31_linear" x1="296.345" y1="113.17" x2="296.345" y2="114.473" gradientUnits="userSpaceOnUse">
<stop stop-color="white"/>
<stop offset="1" stop-color="white" stop-opacity="0.472"/>
</linearGradient>
<linearGradient id="paint32_linear" x1="286.365" y1="113.17" x2="286.365" y2="114.473" gradientUnits="userSpaceOnUse">
<stop stop-color="white"/>
<stop offset="1" stop-color="white" stop-opacity="0.472"/>
</linearGradient>
<linearGradient id="paint33_linear" x1="276.385" y1="113.17" x2="276.385" y2="114.473" gradientUnits="userSpaceOnUse">
<stop stop-color="white"/>
<stop offset="1" stop-color="white" stop-opacity="0.472"/>
</linearGradient>
<linearGradient id="paint34_linear" x1="253.76" y1="113.968" x2="253.76" y2="114.473" gradientUnits="userSpaceOnUse">
<stop stop-color="white"/>
<stop offset="1" stop-color="white" stop-opacity="0.472"/>
</linearGradient>
<linearGradient id="paint35_linear" x1="242.737" y1="113.968" x2="242.737" y2="114.473" gradientUnits="userSpaceOnUse">
<stop stop-color="white"/>
<stop offset="1" stop-color="white" stop-opacity="0.472"/>
</linearGradient>
<linearGradient id="paint36_linear" x1="264.783" y1="113.968" x2="264.783" y2="114.473" gradientUnits="userSpaceOnUse">
<stop stop-color="white"/>
<stop offset="1" stop-color="white" stop-opacity="0.472"/>
</linearGradient>
<linearGradient id="paint37_linear" x1="254.227" y1="113.17" x2="254.227" y2="113.667" gradientUnits="userSpaceOnUse">
<stop stop-color="white"/>
<stop offset="1" stop-color="white" stop-opacity="0.472"/>
</linearGradient>
<linearGradient id="paint38_linear" x1="373.569" y1="109.562" x2="373.569" y2="110.477" gradientUnits="userSpaceOnUse">
<stop stop-color="white"/>
<stop offset="1" stop-color="white" stop-opacity="0.472"/>
</linearGradient>
<linearGradient id="paint39_linear" x1="363.986" y1="109.562" x2="363.986" y2="110.477" gradientUnits="userSpaceOnUse">
<stop stop-color="white"/>
<stop offset="1" stop-color="white" stop-opacity="0.472"/>
</linearGradient>
<linearGradient id="paint40_linear" x1="354.403" y1="109.562" x2="354.403" y2="110.477" gradientUnits="userSpaceOnUse">
<stop stop-color="white"/>
<stop offset="1" stop-color="white" stop-opacity="0.472"/>
</linearGradient>
<linearGradient id="paint41_linear" x1="344.82" y1="109.562" x2="344.82" y2="110.477" gradientUnits="userSpaceOnUse">
<stop stop-color="white"/>
<stop offset="1" stop-color="white" stop-opacity="0.472"/>
</linearGradient>
<linearGradient id="paint42_linear" x1="335.237" y1="109.562" x2="335.237" y2="110.477" gradientUnits="userSpaceOnUse">
<stop stop-color="white"/>
<stop offset="1" stop-color="white" stop-opacity="0.472"/>
</linearGradient>
<linearGradient id="paint43_linear" x1="325.654" y1="109.562" x2="325.654" y2="110.477" gradientUnits="userSpaceOnUse">
<stop stop-color="white"/>
<stop offset="1" stop-color="white" stop-opacity="0.472"/>
</linearGradient>
<linearGradient id="paint44_linear" x1="316.071" y1="109.562" x2="316.071" y2="110.477" gradientUnits="userSpaceOnUse">
<stop stop-color="white"/>
<stop offset="1" stop-color="white" stop-opacity="0.472"/>
</linearGradient>
<linearGradient id="paint45_linear" x1="306.466" y1="109.562" x2="306.466" y2="110.477" gradientUnits="userSpaceOnUse">
<stop stop-color="white"/>
<stop offset="1" stop-color="white" stop-opacity="0.472"/>
</linearGradient>
<linearGradient id="paint46_linear" x1="296.881" y1="109.562" x2="296.881" y2="110.477" gradientUnits="userSpaceOnUse">
<stop stop-color="white"/>
<stop offset="1" stop-color="white" stop-opacity="0.472"/>
</linearGradient>
<linearGradient id="paint47_linear" x1="287.298" y1="109.562" x2="287.298" y2="110.477" gradientUnits="userSpaceOnUse">
<stop stop-color="white"/>
<stop offset="1" stop-color="white" stop-opacity="0.472"/>
</linearGradient>
<linearGradient id="paint48_linear" x1="277.715" y1="109.562" x2="277.715" y2="110.477" gradientUnits="userSpaceOnUse">
<stop stop-color="white"/>
<stop offset="1" stop-color="white" stop-opacity="0.472"/>
</linearGradient>
<linearGradient id="paint49_linear" x1="268.132" y1="109.562" x2="268.132" y2="110.477" gradientUnits="userSpaceOnUse">
<stop stop-color="white"/>
<stop offset="1" stop-color="white" stop-opacity="0.472"/>
</linearGradient>
<linearGradient id="paint50_linear" x1="257.448" y1="109.562" x2="257.448" y2="110.477" gradientUnits="userSpaceOnUse">
<stop stop-color="white"/>
<stop offset="1" stop-color="white" stop-opacity="0.472"/>
</linearGradient>
<linearGradient id="paint51_linear" x1="245.645" y1="109.562" x2="245.645" y2="110.477" gradientUnits="userSpaceOnUse">
<stop stop-color="white"/>
<stop offset="1" stop-color="white" stop-opacity="0.472"/>
</linearGradient>
<linearGradient id="paint52_linear" x1="372.039" y1="110.734" x2="372.039" y2="111.673" gradientUnits="userSpaceOnUse">
<stop stop-color="white"/>
<stop offset="1" stop-color="white" stop-opacity="0.472"/>
</linearGradient>
<linearGradient id="paint53_linear" x1="357.356" y1="110.734" x2="357.356" y2="111.673" gradientUnits="userSpaceOnUse">
<stop stop-color="white"/>
<stop offset="1" stop-color="white" stop-opacity="0.472"/>
</linearGradient>
<linearGradient id="paint54_linear" x1="345.274" y1="110.734" x2="345.274" y2="111.672" gradientUnits="userSpaceOnUse">
<stop stop-color="white"/>
<stop offset="1" stop-color="white" stop-opacity="0.472"/>
</linearGradient>
<linearGradient id="paint55_linear" x1="335.567" y1="110.734" x2="335.567" y2="111.672" gradientUnits="userSpaceOnUse">
<stop stop-color="white"/>
<stop offset="1" stop-color="white" stop-opacity="0.472"/>
</linearGradient>
<linearGradient id="paint56_linear" x1="325.86" y1="110.734" x2="325.86" y2="111.672" gradientUnits="userSpaceOnUse">
<stop stop-color="white"/>
<stop offset="1" stop-color="white" stop-opacity="0.472"/>
</linearGradient>
<linearGradient id="paint57_linear" x1="316.154" y1="110.734" x2="316.154" y2="111.672" gradientUnits="userSpaceOnUse">
<stop stop-color="white"/>
<stop offset="1" stop-color="white" stop-opacity="0.472"/>
</linearGradient>
<linearGradient id="paint58_linear" x1="306.425" y1="110.734" x2="306.425" y2="111.672" gradientUnits="userSpaceOnUse">
<stop stop-color="white"/>
<stop offset="1" stop-color="white" stop-opacity="0.472"/>
</linearGradient>
<linearGradient id="paint59_linear" x1="296.716" y1="110.734" x2="296.716" y2="111.672" gradientUnits="userSpaceOnUse">
<stop stop-color="white"/>
<stop offset="1" stop-color="white" stop-opacity="0.472"/>
</linearGradient>
<linearGradient id="paint60_linear" x1="287.009" y1="110.734" x2="287.009" y2="111.672" gradientUnits="userSpaceOnUse">
<stop stop-color="white"/>
<stop offset="1" stop-color="white" stop-opacity="0.472"/>
</linearGradient>
<linearGradient id="paint61_linear" x1="277.303" y1="110.734" x2="277.303" y2="111.672" gradientUnits="userSpaceOnUse">
<stop stop-color="white"/>
<stop offset="1" stop-color="white" stop-opacity="0.472"/>
</linearGradient>
<linearGradient id="paint62_linear" x1="267.596" y1="110.734" x2="267.596" y2="111.672" gradientUnits="userSpaceOnUse">
<stop stop-color="white"/>
<stop offset="1" stop-color="white" stop-opacity="0.472"/>
</linearGradient>
<linearGradient id="paint63_linear" x1="258.103" y1="110.731" x2="258.103" y2="111.67" gradientUnits="userSpaceOnUse">
<stop stop-color="white"/>
<stop offset="1" stop-color="white" stop-opacity="0.472"/>
</linearGradient>
<linearGradient id="paint64_linear" x1="245.962" y1="110.731" x2="245.962" y2="111.672" gradientUnits="userSpaceOnUse">
<stop stop-color="white"/>
<stop offset="1" stop-color="white" stop-opacity="0.472"/>
</linearGradient>
<linearGradient id="paint65_linear" x1="370.341" y1="111.936" x2="370.341" y2="112.899" gradientUnits="userSpaceOnUse">
<stop stop-color="white"/>
<stop offset="1" stop-color="white" stop-opacity="0.472"/>
</linearGradient>
<linearGradient id="paint66_linear" x1="355.573" y1="111.936" x2="355.573" y2="112.899" gradientUnits="userSpaceOnUse">
<stop stop-color="white"/>
<stop offset="1" stop-color="white" stop-opacity="0.472"/>
</linearGradient>
<linearGradient id="paint67_linear" x1="345.739" y1="111.936" x2="345.739" y2="112.899" gradientUnits="userSpaceOnUse">
<stop stop-color="white"/>
<stop offset="1" stop-color="white" stop-opacity="0.472"/>
</linearGradient>
<linearGradient id="paint68_linear" x1="335.906" y1="111.936" x2="335.906" y2="112.899" gradientUnits="userSpaceOnUse">
<stop stop-color="white"/>
<stop offset="1" stop-color="white" stop-opacity="0.472"/>
</linearGradient>
<linearGradient id="paint69_linear" x1="326.072" y1="111.936" x2="326.072" y2="112.899" gradientUnits="userSpaceOnUse">
<stop stop-color="white"/>
<stop offset="1" stop-color="white" stop-opacity="0.472"/>
</linearGradient>
<linearGradient id="paint70_linear" x1="316.239" y1="111.936" x2="316.239" y2="112.899" gradientUnits="userSpaceOnUse">
<stop stop-color="white"/>
<stop offset="1" stop-color="white" stop-opacity="0.472"/>
</linearGradient>
<linearGradient id="paint71_linear" x1="306.382" y1="111.936" x2="306.382" y2="112.899" gradientUnits="userSpaceOnUse">
<stop stop-color="white"/>
<stop offset="1" stop-color="white" stop-opacity="0.472"/>
</linearGradient>
<linearGradient id="paint72_linear" x1="296.547" y1="111.936" x2="296.547" y2="112.899" gradientUnits="userSpaceOnUse">
<stop stop-color="white"/>
<stop offset="1" stop-color="white" stop-opacity="0.472"/>
</linearGradient>
<linearGradient id="paint73_linear" x1="286.714" y1="111.936" x2="286.714" y2="112.899" gradientUnits="userSpaceOnUse">
<stop stop-color="white"/>
<stop offset="1" stop-color="white" stop-opacity="0.472"/>
</linearGradient>
<linearGradient id="paint74_linear" x1="276.88" y1="111.936" x2="276.88" y2="112.899" gradientUnits="userSpaceOnUse">
<stop stop-color="white"/>
<stop offset="1" stop-color="white" stop-opacity="0.472"/>
</linearGradient>
<linearGradient id="paint75_linear" x1="267.047" y1="111.936" x2="267.047" y2="112.899" gradientUnits="userSpaceOnUse">
<stop stop-color="white"/>
<stop offset="1" stop-color="white" stop-opacity="0.472"/>
</linearGradient>
<linearGradient id="paint76_linear" x1="249.993" y1="111.936" x2="249.993" y2="112.899" gradientUnits="userSpaceOnUse">
<stop stop-color="white"/>
<stop offset="1" stop-color="white" stop-opacity="0.472"/>
</linearGradient>
<linearGradient id="paint77_linear" x1="309.42" y1="115.818" x2="309.42" y2="119.448" gradientUnits="userSpaceOnUse">
<stop stop-color="white"/>
<stop offset="1" stop-color="white" stop-opacity="0.472"/>
</linearGradient>
<linearGradient id="paint78_linear" x1="401.893" y1="106.494" x2="383.565" y2="106.494" gradientUnits="userSpaceOnUse">
<stop stop-color="#343A44"/>
<stop offset="0.3009" stop-color="#232D3E"/>
<stop offset="0.6391" stop-color="#182439"/>
<stop offset="1" stop-color="#142138"/>
</linearGradient>
<linearGradient id="paint79_linear" x1="397.406" y1="103.203" x2="371.939" y2="103.203" gradientUnits="userSpaceOnUse">
<stop stop-color="#343A44"/>
<stop offset="0.3009" stop-color="#232D3E"/>
<stop offset="0.6391" stop-color="#182439"/>
<stop offset="1" stop-color="#142138"/>
</linearGradient>
<linearGradient id="paint80_linear" x1="384.791" y1="67.7932" x2="380.017" y2="73.3798" gradientUnits="userSpaceOnUse">
<stop stop-color="#FC9D00"/>
<stop offset="1" stop-color="#F3510F"/>
</linearGradient>
<linearGradient id="paint81_linear" x1="210.298" y1="31.9823" x2="215.141" y2="64.417" gradientUnits="userSpaceOnUse">
<stop stop-color="#FDFDFD"/>
<stop offset="0.1469" stop-color="#EFF5FC"/>
<stop offset="0.7198" stop-color="#BAD7F7"/>
<stop offset="1" stop-color="#A6CBF5"/>
</linearGradient>
<linearGradient id="paint82_linear" x1="219.255" y1="148.474" x2="224.912" y2="148.474" gradientUnits="userSpaceOnUse">
<stop stop-color="#343A44"/>
<stop offset="0.3009" stop-color="#232D3E"/>
<stop offset="0.6391" stop-color="#182439"/>
<stop offset="1" stop-color="#142138"/>
</linearGradient>
<linearGradient id="paint83_linear" x1="211.517" y1="148.474" x2="217.174" y2="148.474" gradientUnits="userSpaceOnUse">
<stop stop-color="#343A44"/>
<stop offset="0.3009" stop-color="#232D3E"/>
<stop offset="0.6391" stop-color="#182439"/>
<stop offset="1" stop-color="#142138"/>
</linearGradient>
<linearGradient id="paint84_linear" x1="210.847" y1="69.8931" x2="219.311" y2="68.3567" gradientUnits="userSpaceOnUse">
<stop stop-color="#343A44"/>
<stop offset="0.3009" stop-color="#232D3E"/>
<stop offset="0.6391" stop-color="#182439"/>
<stop offset="1" stop-color="#142138"/>
</linearGradient>
<linearGradient id="paint85_linear" x1="214.286" y1="117.569" x2="223.947" y2="117.569" gradientUnits="userSpaceOnUse">
<stop stop-color="#343A44"/>
<stop offset="0.3009" stop-color="#232D3E"/>
<stop offset="0.6391" stop-color="#182439"/>
<stop offset="1" stop-color="#142138"/>
</linearGradient>
<linearGradient id="paint86_linear" x1="209.11" y1="117.314" x2="219.039" y2="117.314" gradientUnits="userSpaceOnUse">
<stop stop-color="#343A44"/>
<stop offset="0.3009" stop-color="#232D3E"/>
<stop offset="0.6391" stop-color="#182439"/>
<stop offset="1" stop-color="#142138"/>
</linearGradient>
<linearGradient id="paint87_linear" x1="215.074" y1="62.4327" x2="216.519" y2="70.389" gradientUnits="userSpaceOnUse">
<stop stop-color="#00A1FC"/>
<stop offset="1" stop-color="#A4C8FD"/>
</linearGradient>
<linearGradient id="paint88_linear" x1="211.172" y1="141.998" x2="215.466" y2="141.998" gradientUnits="userSpaceOnUse">
<stop stop-color="#343A44"/>
<stop offset="0.3009" stop-color="#232D3E"/>
<stop offset="0.6391" stop-color="#182439"/>
<stop offset="1" stop-color="#142138"/>
</linearGradient>
<linearGradient id="paint89_linear" x1="218.255" y1="141.668" x2="222.584" y2="141.668" gradientUnits="userSpaceOnUse">
<stop stop-color="#343A44"/>
<stop offset="0.3009" stop-color="#232D3E"/>
<stop offset="0.6391" stop-color="#182439"/>
<stop offset="1" stop-color="#142138"/>
</linearGradient>
<linearGradient id="paint90_linear" x1="178.495" y1="135.061" x2="178.495" y2="148.92" gradientUnits="userSpaceOnUse">
<stop stop-color="#FC9D00"/>
<stop offset="1" stop-color="#F3510F"/>
</linearGradient>
<linearGradient id="paint91_linear" x1="178.495" y1="87.9309" x2="178.495" y2="140.103" gradientUnits="userSpaceOnUse">
<stop stop-color="#FC9D00"/>
<stop offset="1" stop-color="#F3510F"/>
</linearGradient>
<linearGradient id="paint92_linear" x1="178.495" y1="87.9309" x2="178.495" y2="140.103" gradientUnits="userSpaceOnUse">
<stop stop-color="#FC9D00"/>
<stop offset="1" stop-color="#F3510F"/>
</linearGradient>
<linearGradient id="paint93_linear" x1="178.467" y1="91.0496" x2="176.62" y2="146.46" gradientUnits="userSpaceOnUse">
<stop stop-color="white"/>
<stop offset="0.1688" stop-color="#FAFBFC"/>
<stop offset="1" stop-color="#E6EAED"/>
</linearGradient>
<linearGradient id="paint94_linear" x1="178.943" y1="91.0656" x2="177.096" y2="146.476" gradientUnits="userSpaceOnUse">
<stop stop-color="white"/>
<stop offset="0.1688" stop-color="#FAFBFC"/>
<stop offset="1" stop-color="#E6EAED"/>
</linearGradient>
<linearGradient id="paint95_linear" x1="179.48" y1="91.0836" x2="177.633" y2="146.493" gradientUnits="userSpaceOnUse">
<stop stop-color="white"/>
<stop offset="0.1688" stop-color="#FAFBFC"/>
<stop offset="1" stop-color="#E6EAED"/>
</linearGradient>
<linearGradient id="paint96_linear" x1="288.344" y1="55.3274" x2="332.268" y2="58.7197" gradientUnits="userSpaceOnUse">
<stop stop-color="#FFD71D"/>
<stop offset="1" stop-color="#FEA000"/>
</linearGradient>
<linearGradient id="paint97_linear" x1="264.348" y1="32.4315" x2="264.348" y2="63.228" gradientUnits="userSpaceOnUse">
<stop stop-color="#BFD7F7"/>
<stop offset="0.2701" stop-color="#B6D2F5"/>
<stop offset="1" stop-color="#A2C5EF"/>
</linearGradient>
<linearGradient id="paint98_linear" x1="289.359" y1="28.0525" x2="289.359" y2="43.2328" gradientUnits="userSpaceOnUse">
<stop stop-color="#BFD7F7"/>
<stop offset="0.2701" stop-color="#B6D2F5"/>
<stop offset="1" stop-color="#A2C5EF"/>
</linearGradient>
</defs>
</svg>
