<svg width="670" height="497" viewBox="0 0 670 497" fill="none" xmlns="http://www.w3.org/2000/svg">
<path d="M563.537 416.913C590.159 400.644 598.552 365.87 582.283 339.248C578.637 333.298 574.062 328.345 568.868 324.286C575.61 314.758 583.349 305.54 592.12 296.769C596.179 292.711 600.306 288.893 604.502 285.212C606.188 286.623 607.804 288.067 609.386 289.581L623.248 281.085C630.333 276.751 639.62 278.987 643.954 286.072L657.712 308.567C662.046 315.653 659.81 324.939 652.725 329.273L638.863 337.769C641.993 348.294 643.438 359.129 643.3 369.826L658.985 374.194C666.999 376.43 671.677 384.753 669.441 392.767L662.356 418.151C660.12 426.166 651.796 430.843 643.782 428.608L628.098 424.239C623.936 431.291 618.948 437.929 613.17 443.983L621.666 457.844C626 464.929 623.764 474.216 616.678 478.55L594.184 492.308C587.098 496.642 577.811 494.407 573.477 487.321L564.982 473.46C556.864 475.867 548.575 477.243 540.286 477.725C535.539 460.768 533.441 443.054 534.094 425.134C544.172 425.168 554.353 422.554 563.537 416.913Z" fill="#489AFF"/>
<path d="M524.223 482.471H39.245C26.0714 482.471 15.4088 471.809 15.4088 458.635V127.853C15.4088 114.679 26.0714 104.017 39.245 104.017H524.223C537.396 104.017 548.059 114.679 548.059 127.853V458.635C548.059 471.809 537.396 482.471 524.223 482.471Z" fill="#E3EAFF"/>
<path d="M522.159 477.484H41.3087C30.8868 477.484 22.4255 469.023 22.4255 458.601V127.887C22.4255 117.465 30.8868 109.004 41.3087 109.004H522.159C532.581 109.004 541.042 117.465 541.042 127.887V458.601C541.042 469.023 532.581 477.484 522.159 477.484Z" fill="#6DB8FF"/>
<path d="M506.991 444.98H56.4772C50.0452 444.98 44.8514 439.786 44.8514 433.354V137.965C44.8514 131.533 50.0452 126.339 56.4772 126.339H506.991C513.423 126.339 518.616 131.533 518.616 137.965V433.32C518.616 439.752 513.423 444.98 506.991 444.98Z" fill="url(#paint0_linear)"/>
<path d="M2.47606 462.831C0.96265 465.686 -0.000427246 468.851 -0.000427246 472.29C-0.000427246 483.331 8.94243 492.274 19.9834 492.274H543.519C554.56 492.274 563.503 483.331 563.503 472.29C563.503 468.851 562.54 465.652 561.026 462.831H2.47606Z" fill="#E3EAFF"/>
<path d="M2.47607 481.749C5.84684 487.975 12.382 492.274 19.949 492.274H543.484C551.086 492.274 557.587 488.009 560.957 481.749H2.47607Z" fill="#C8D6F2"/>
<path opacity="0.3" d="M524.223 104.017H168.813V341.553C168.813 346.815 173.078 351.046 178.341 351.046H548.094V127.853C548.059 114.679 537.397 104.017 524.223 104.017Z" fill="#424261"/>
<path opacity="0.4" d="M588.507 340H191.492C186.23 340 182 335.248 182 329.423V56.5766C182 50.7135 186.264 46 191.492 46H588.507C593.769 46 597.999 50.7518 597.999 56.5766V329.423C598.034 335.248 593.769 340 588.507 340Z" fill="#B3C6FF"/>
<path d="M605.087 322.497H208.024C202.762 322.497 198.497 318.232 198.497 313.004V68.1075C198.497 62.845 202.762 58.6143 208.024 58.6143H605.087C610.35 58.6143 614.58 62.8794 614.58 68.1075V313.004C614.58 318.267 610.35 322.497 605.087 322.497Z" fill="white"/>
<path opacity="0.2" d="M121.691 238.71H79.4878C76.2202 238.71 73.5374 236.061 73.5374 232.759V188.183C73.5374 184.915 76.1858 182.232 79.4878 182.232H121.691C124.959 182.232 127.642 184.881 127.642 188.183V232.759C127.642 236.061 124.993 238.71 121.691 238.71Z" fill="#424261"/>
<path d="M119.154 321.478H76.9504C73.6829 321.478 71 318.829 71 315.527V270.95C71 267.683 73.6485 265 76.9504 265H119.154C122.421 265 125.104 267.648 125.104 270.95V315.527C125.07 318.795 122.421 321.478 119.154 321.478Z" fill="#6DB8FF"/>
<path d="M118.154 401.478H75.9504C72.6829 401.478 70 398.829 70 395.527V350.95C70 347.683 72.6485 345 75.9504 345H118.154C121.421 345 124.104 347.648 124.104 350.95V395.527C124.07 398.795 121.421 401.478 118.154 401.478Z" fill="#6DB8FF"/>
<path d="M116.101 280.57C115.951 279.635 115.316 279 114.456 279H81.7564C80.7848 279 80 279.822 80 280.756V299.629C80 300.563 80.8222 301.385 81.7191 301.385H85.232V306.58C85.232 307.14 85.5683 307.664 86.0915 307.888C86.2783 307.963 86.4652 308 86.6521 308C87.0258 308 87.3621 307.851 87.6237 307.589L87.6985 307.514L91.7719 301.423H114.494C115.39 301.423 116.175 300.601 116.175 299.666V280.719L116.101 280.57Z" fill="#FB7555"/>
<path d="M116.101 280.57C115.951 279.635 115.316 279 114.456 279H81.7564C80.7848 279 80 279.822 80 280.756V299.629C80 300.563 80.8222 301.385 81.7191 301.385H85.232V306.58C85.232 307.14 85.5683 307.664 86.0915 307.888C86.2783 307.963 86.4652 308 86.6521 308C87.0258 308 87.3621 307.851 87.6237 307.589L87.6985 307.514L91.7719 301.423H114.494C115.39 301.423 116.175 300.601 116.175 299.666V280.719L116.101 280.57ZM114.082 299.367H91.3608C90.875 299.367 90.4639 299.591 90.2023 300.003L87.25 304.45V300.787C87.25 300.003 86.6147 299.367 85.8299 299.367H82.018V281.055H114.082V299.367Z" fill="#C53E20"/>
<path d="M86.2036 286.437H107.991C108.552 286.437 109.037 285.988 109.037 285.39C109.037 284.793 108.589 284.344 107.991 284.344H86.2036C85.643 284.344 85.1572 284.793 85.1572 285.39C85.1572 285.988 85.6057 286.437 86.2036 286.437Z" fill="white"/>
<path d="M86.2036 291.108H103.17C103.731 291.108 104.216 290.66 104.216 290.062C104.216 289.464 103.768 289.015 103.17 289.015H86.2036C85.643 289.015 85.1572 289.464 85.1572 290.062C85.1572 290.66 85.6057 291.108 86.2036 291.108Z" fill="white"/>
<path d="M86.2036 295.817H105.263C105.823 295.817 106.309 295.369 106.309 294.771C106.309 294.173 105.861 293.724 105.263 293.724H86.2036C85.643 293.724 85.1572 294.173 85.1572 294.771C85.1572 295.369 85.6057 295.817 86.2036 295.817Z" fill="white"/>
<path d="M118.154 236.478H75.9504C72.6829 236.478 70 233.829 70 230.527V185.95C70 182.683 72.6485 180 75.9504 180H118.154C121.421 180 124.104 182.648 124.104 185.95V230.527C124.07 233.829 121.421 236.478 118.154 236.478Z" fill="#6DB8FF"/>
<path d="M67.8277 230.699L72.2991 227.569L74.2941 220.208L72.0584 219.761L70.7169 222.444L72.0584 209.718L69.8227 210.165L67.6213 222.444L64.9385 228.223L67.3806 229.805" fill="#F7D3A9"/>
<path d="M94.2091 243.907L94.7938 238.576L101.329 232.006L102.842 234.104L100.435 236.787L112.92 233.795V236.478L101.329 240.949L98.9557 245.111L94.2091 243.907Z" fill="#F7D3A9"/>
<path d="M12.8292 376.158L37.1469 495.098L55.5485 493.138L43.0629 488.529L47.6719 487.221L41.1023 376.158H12.8292Z" fill="#544DB8"/>
<path d="M51.593 374.198C51.593 374.198 82.4802 403.124 77.8712 437.933C72.6087 465.518 61.4301 476.043 61.4301 476.043L58.1282 475.389L63.2187 488.872L48.4286 473.119C48.4286 473.119 66.6583 447.976 55.3421 421.87C43.9916 395.764 19.3643 386.374 19.3643 386.374C19.3643 386.374 40.552 367.146 42.031 367.662C43.5444 368.11 51.593 374.198 51.593 374.198Z" fill="#544DB8"/>
<path d="M64.7321 226.193C64.7321 226.193 13.9642 287.796 8.04814 300.109C8.04814 300.109 5.57166 304.546 5.57166 317.342C5.57166 330.171 10.0087 377.465 10.0087 377.465L61.7397 380.423C61.7397 380.423 44.989 322.776 44.5075 321.297C44.0259 319.818 35.6334 310.944 27.7568 308.983L71.1297 230.63L64.7321 226.193Z" fill="#FF8B40"/>
<path d="M32.6066 303.033C32.6066 303.033 34.7735 309.431 35.943 313.283C35.943 313.283 25.3835 313.077 21.6688 308.158L25.6243 298.699L32.6066 303.033Z" fill="#F7D3A9"/>
<path d="M40.6207 283.049C40.6207 283.049 43.7507 301.244 40.6207 305.372C37.4907 309.499 26.7937 302.483 22.3223 295.879C17.8509 289.275 16.9566 274.381 24.558 273.143C32.1594 271.871 38.8322 276.411 40.6207 283.049Z" fill="#F7D3A9"/>
<path d="M35.8398 316.722C35.8398 316.722 76.5298 291.132 79.8317 285.87C83.0993 280.607 92.3173 241.568 92.3173 241.568L100.194 243.529C100.194 243.529 95.5849 287.177 94.2779 291.786C92.9709 296.395 52.9344 339.045 43.7508 339.045C34.4983 339.011 31.2308 327.213 35.8398 316.722Z" fill="#FF8B40"/>
<path d="M18.7108 273.934C18.7108 273.934 24.0765 266.505 33.5697 268.294C43.0629 270.082 45.4706 267.984 45.4706 267.984C45.4706 267.984 43.4068 278.371 36.8373 280.779C30.3021 283.152 28.5136 282.568 28.5136 282.568C28.5136 282.568 32.0907 286.145 32.985 288.793C33.8793 291.476 30.027 285.526 28.5136 287.589C27.0345 289.653 28.5135 294.125 31.4716 293.815C34.4296 293.505 32.6754 295.879 31.4716 298.286C30.2677 300.66 28.5136 303.652 26.725 302.758C24.9364 301.864 18.7108 298.286 16.3375 290.857C13.9642 283.428 13.3795 276.308 18.7108 273.934Z" fill="#544DB8"/>
<path d="M344.384 296.666H228.471C225.994 296.666 224 294.671 224 292.195V90.7055C224 88.229 225.994 86.234 228.471 86.234H344.384C346.861 86.234 348.856 88.229 348.856 90.7055V292.195C348.856 294.671 346.861 296.666 344.384 296.666Z" fill="#E3EAFF"/>
<path d="M322.733 161.008H249.058C247.098 161.008 245.481 159.426 245.481 157.431V146.734C245.481 144.773 247.063 143.157 249.058 143.157H322.768C324.728 143.157 326.345 144.739 326.345 146.734V157.431C326.311 159.426 324.728 161.008 322.733 161.008Z" fill="#6DB8FF"/>
<path d="M272.516 260.136H256.453C252.67 260.136 249.608 257.075 249.608 253.291C249.608 249.508 252.67 246.447 256.453 246.447H272.516C276.299 246.447 279.361 249.508 279.361 253.291C279.361 257.075 276.299 260.136 272.516 260.136Z" fill="#95A5A6"/>
<path d="M318.881 260.136H302.818C299.035 260.136 295.974 257.075 295.974 253.291C295.974 249.508 299.035 246.447 302.818 246.447H318.881C322.665 246.447 325.726 249.508 325.726 253.291C325.726 257.075 322.665 260.136 318.881 260.136Z" fill="#F41E3D"/>
<path d="M330.472 178.859H243.692V192.514H330.472V178.859Z" fill="#F9FBFC"/>
<path d="M330.472 202.042H243.692V215.697H330.472V202.042Z" fill="#F9FBFC"/>
<path d="M312.346 224.33H262.404V227.46H312.346V224.33Z" fill="#CDD4FF"/>
<path d="M269.435 114.891C267.101 121.561 271.76 124.851 274.382 125.662C278.339 126.93 281.805 124.323 283.043 122.861C283.568 123.68 285.386 125.304 288.468 125.249C291.55 125.194 293.946 122.685 294.759 121.437C296.309 122.47 299.911 122.378 303.284 120.403C305.983 118.823 306.886 114.876 307 113.1C306.124 104.52 299.554 103.661 296.378 104.304C296.021 103.691 294.887 102.274 293.209 101.502C291.532 100.73 288.985 101.181 287.921 101.502C287.541 100.025 285.683 97.0558 281.288 97.0007C276.894 96.9456 274.853 100.254 274.382 101.915C273.105 101.984 267.065 101.502 266.13 107.106C265.383 111.589 268.022 114.164 269.435 114.891Z" fill="#15A0DB"/>
<path d="M606.119 257.73H450.1C440.504 257.73 432.731 249.957 432.731 240.361C432.731 230.764 440.504 222.991 450.1 222.991H606.119C615.715 222.991 623.489 230.764 623.489 240.361C623.523 249.957 615.715 257.73 606.119 257.73Z" fill="#9570EE"/>
<path d="M471.047 110.311H373.88C366.003 110.311 359.606 103.913 359.606 96.0368C359.606 88.1602 366.003 81.7626 373.88 81.7626H471.047C478.924 81.7626 485.322 88.1602 485.322 96.0368C485.322 103.948 478.924 110.311 471.047 110.311Z" fill="#E3EAFF"/>
<path d="M397.062 96.0368C397.062 98.5133 395.067 100.508 392.591 100.508C390.114 100.508 388.12 98.5133 388.12 96.0368C388.12 93.5603 390.114 91.5654 392.591 91.5654C395.067 91.5998 397.062 93.5947 397.062 96.0368Z" fill="#FFC240"/>
<path d="M427.674 96.0368C427.674 98.5133 425.679 100.508 423.203 100.508C420.727 100.508 418.732 98.5133 418.732 96.0368C418.732 93.5603 420.727 91.5654 423.203 91.5654C425.679 91.5654 427.674 93.5947 427.674 96.0368Z" fill="#90C240"/>
<path d="M455.879 96.0368C455.879 98.5133 453.884 100.508 451.407 100.508C448.931 100.508 446.936 98.5133 446.936 96.0368C446.936 93.5603 448.931 91.5654 451.407 91.5654C453.884 91.5998 455.879 93.5947 455.879 96.0368Z" fill="#EB4F24"/>
<path d="M485.149 202.354H403.563C399.676 202.354 396.546 199.189 396.546 195.337V146.564C396.546 142.677 399.711 139.547 403.563 139.547H485.149C489.036 139.547 492.166 142.712 492.166 146.564V195.337C492.201 199.189 489.036 202.354 485.149 202.354Z" fill="#E3EAFF"/>
<path d="M444.46 170.469H444.288C443.875 170.469 443.428 170.366 443.084 170.159L406.212 149.66C405.008 148.972 404.561 147.458 405.249 146.254C405.936 145.051 407.45 144.603 408.654 145.291L444.391 165.138L480.128 145.291C481.332 144.603 482.879 145.051 483.533 146.254C484.221 147.458 483.774 149.006 482.57 149.66L445.698 170.159C445.319 170.331 444.907 170.469 444.46 170.469Z" fill="#FD4940"/>
<path d="M626.171 175.922H520.061C516.621 175.922 513.835 173.136 513.835 169.696V28.8116C513.835 25.372 516.621 22.586 520.061 22.586H626.171C629.611 22.586 632.397 25.372 632.397 28.8116V169.696C632.431 173.101 629.645 175.922 626.171 175.922Z" fill="#544DB8"/>
<path d="M540.354 43.1201H532.443C532.031 43.1201 531.687 42.4322 531.687 41.6067C531.687 40.7468 532.031 40.0933 532.443 40.0933H540.354C540.767 40.0933 541.111 40.7812 541.111 41.6067C541.111 42.4322 540.767 43.1201 540.354 43.1201Z" fill="#00CCFF"/>
<path d="M589.265 43.1202H544.069C543.656 43.1202 543.312 42.4323 543.312 41.6068C543.312 40.7469 543.656 40.0934 544.069 40.0934H589.265C589.678 40.0934 590.022 40.7813 590.022 41.6068C590.022 42.4323 589.678 43.1202 589.265 43.1202Z" fill="#00CCFF"/>
<path d="M558.481 49.4146H544.069C543.656 49.4146 543.312 48.7267 543.312 47.9012C543.312 47.0413 543.656 46.3878 544.069 46.3878H558.481C558.894 46.3878 559.238 47.0757 559.238 47.9012C559.238 48.7611 558.894 49.4146 558.481 49.4146Z" fill="#FF56A9"/>
<path d="M582.179 49.4146H561.405C560.992 49.4146 560.648 48.7267 560.648 47.9012C560.648 47.0413 560.992 46.3878 561.405 46.3878H582.179C582.592 46.3878 582.936 47.0757 582.936 47.9012C582.936 48.7611 582.592 49.4146 582.179 49.4146Z" fill="#E3EAFF"/>
<path d="M589.265 80.1642H544.069C543.656 80.1642 543.312 79.4763 543.312 78.6508C543.312 77.7909 543.656 77.1374 544.069 77.1374H589.265C589.678 77.1374 590.022 77.8253 590.022 78.6508C590.022 79.4763 589.678 80.1642 589.265 80.1642Z" fill="#E3EAFF"/>
<path d="M540.354 86.493H532.443C532.031 86.493 531.687 85.8051 531.687 84.9796C531.687 84.1197 532.031 83.4662 532.443 83.4662H540.354C540.767 83.4662 541.111 84.1541 541.111 84.9796C541.111 85.8051 540.767 86.493 540.354 86.493Z" fill="#00CCFF"/>
<path d="M558.481 86.493H544.069C543.656 86.493 543.312 85.8051 543.312 84.9796C543.312 84.1197 543.656 83.4662 544.069 83.4662H558.481C558.894 83.4662 559.238 84.1541 559.238 84.9796C559.238 85.8051 558.894 86.493 558.481 86.493Z" fill="#E3EAFF"/>
<path d="M582.179 86.493H561.405C560.992 86.493 560.648 85.8051 560.648 84.9796C560.648 84.1197 560.992 83.4662 561.405 83.4662H582.179C582.592 83.4662 582.936 84.1541 582.936 84.9796C582.936 85.8051 582.592 86.493 582.179 86.493Z" fill="#FF56A9"/>
<path d="M600.444 55.7434H544.035C543.622 55.7434 543.278 55.0555 543.278 54.23C543.278 53.3701 543.622 52.7166 544.035 52.7166H600.444C600.856 52.7166 601.2 53.4045 601.2 54.23C601.235 55.0555 600.891 55.7434 600.444 55.7434Z" fill="#FF56A9"/>
<path d="M588.646 62.0721H575.507C575.06 62.0721 574.716 61.7282 574.716 61.281V59.8364C574.716 59.3893 575.06 59.0453 575.507 59.0453H588.646C589.093 59.0453 589.437 59.3893 589.437 59.8364V61.281C589.437 61.6938 589.093 62.0721 588.646 62.0721Z" fill="#00CCFF"/>
<path d="M562.78 62.0721H544.035C543.622 62.0721 543.278 61.3842 543.278 60.5587C543.278 59.6988 543.622 59.0453 544.035 59.0453H562.78C563.193 59.0453 563.537 59.7332 563.537 60.5587C563.537 61.3842 563.228 62.0721 562.78 62.0721Z" fill="#E3EAFF"/>
<path d="M572.755 62.0721H565.326C564.913 62.0721 564.569 61.3842 564.569 60.5587C564.569 59.6988 564.913 59.0453 565.326 59.0453H572.755C573.168 59.0453 573.512 59.7332 573.512 60.5587C573.512 61.3842 573.168 62.0721 572.755 62.0721Z" fill="#00CCFF"/>
<path d="M540.354 68.1602H532.443C532.031 68.1602 531.687 67.4723 531.687 66.6468C531.687 65.7869 532.031 65.1334 532.443 65.1334H540.354C540.767 65.1334 541.111 65.8213 541.111 66.6468C541.111 67.4723 540.767 68.1602 540.354 68.1602Z" fill="#E3EAFF"/>
<path d="M600.444 68.1602H544.035C543.622 68.1602 543.278 67.4723 543.278 66.6468C543.278 65.7869 543.622 65.1334 544.035 65.1334H600.444C600.856 65.1334 601.2 65.8213 601.2 66.6468C601.235 67.4723 600.891 68.1602 600.444 68.1602Z" fill="#E3EAFF"/>
<path d="M540.354 92.3402H532.443C532.031 92.3402 531.687 91.6523 531.687 90.8268C531.687 89.967 532.031 89.3134 532.443 89.3134H540.354C540.767 89.3134 541.111 90.0014 541.111 90.8268C541.111 91.6523 540.767 92.3402 540.354 92.3402Z" fill="#E3EAFF"/>
<path d="M594.149 92.3403H575.644C575.128 92.3403 574.681 91.9275 574.681 91.3772V90.2078C574.681 89.6918 575.094 89.2447 575.644 89.2447H594.149C594.665 89.2447 595.112 89.6574 595.112 90.2078V91.3772C595.112 91.8931 594.665 92.3403 594.149 92.3403Z" fill="#E3EAFF"/>
<path d="M562.78 92.3402H544.035C543.622 92.3402 543.278 91.6523 543.278 90.8268C543.278 89.967 543.622 89.3134 544.035 89.3134H562.78C563.193 89.3134 563.537 90.0014 563.537 90.8268C563.537 91.6523 563.228 92.3402 562.78 92.3402Z" fill="#E3EAFF"/>
<path d="M572.755 92.3402H565.326C564.913 92.3402 564.569 91.6523 564.569 90.8268C564.569 89.967 564.913 89.3134 565.326 89.3134H572.755C573.168 89.3134 573.512 90.0014 573.512 90.8268C573.512 91.6523 573.168 92.3402 572.755 92.3402Z" fill="#E3EAFF"/>
<path d="M540.354 98.4283H532.443C532.031 98.4283 531.687 97.7404 531.687 96.9149C531.687 96.055 532.031 95.4015 532.443 95.4015H540.354C540.767 95.4015 541.111 96.0894 541.111 96.9149C541.111 97.7404 540.767 98.4283 540.354 98.4283Z" fill="#FFC359"/>
<path d="M553.838 98.4283H544.069C543.656 98.4283 543.312 97.7404 543.312 96.9149C543.312 96.055 543.656 95.4015 544.069 95.4015H553.838C554.25 95.4015 554.594 96.0894 554.594 96.9149C554.594 97.7404 554.25 98.4283 553.838 98.4283Z" fill="#00CCFF"/>
<path d="M532.443 74.4889C532.031 74.4889 531.687 73.801 531.687 72.9755C531.687 72.1156 532.031 71.4621 532.443 71.4621H540.354C540.767 71.4621 541.111 72.15 541.111 72.9755C541.111 73.8354 540.767 74.4889 540.354 74.4889" fill="#00CCFF"/>
<path d="M596.729 74.4889H575.713C575.163 74.4889 574.716 74.0418 574.716 73.4915V72.4596C574.716 71.9093 575.163 71.4621 575.713 71.4621H596.729C597.279 71.4621 597.726 71.9093 597.726 72.4596V73.4915C597.761 74.0418 597.279 74.4889 596.729 74.4889Z" fill="#E3EAFF"/>
<path d="M562.78 74.4889H544.035C543.622 74.4889 543.278 73.801 543.278 72.9755C543.278 72.1156 543.622 71.4621 544.035 71.4621H562.78C563.193 71.4621 563.537 72.15 563.537 72.9755C563.537 73.801 563.228 74.4889 562.78 74.4889Z" fill="#FFC359"/>
<path d="M572.755 74.4889H565.326C564.913 74.4889 564.569 73.801 564.569 72.9755C564.569 72.1156 564.913 71.4621 565.326 71.4621H572.755C573.168 71.4621 573.512 72.15 573.512 72.9755C573.512 73.801 573.168 74.4889 572.755 74.4889Z" fill="#FFC359"/>
<path d="M589.265 104.929H544.069C543.656 104.929 543.312 104.241 543.312 103.416C543.312 102.556 543.656 101.902 544.069 101.902H589.265C589.678 101.902 590.022 102.59 590.022 103.416C590.022 104.241 589.678 104.929 589.265 104.929Z" fill="#E3EAFF"/>
<path d="M558.481 111.258H544.069C543.656 111.258 543.312 110.57 543.312 109.744C543.312 108.885 543.656 108.231 544.069 108.231H558.481C558.894 108.231 559.238 108.919 559.238 109.744C559.238 110.57 558.894 111.258 558.481 111.258Z" fill="#E3EAFF"/>
<path d="M582.179 111.258H561.405C560.992 111.258 560.648 110.57 560.648 109.744C560.648 108.885 560.992 108.231 561.405 108.231H582.179C582.592 108.231 582.936 108.919 582.936 109.744C582.936 110.57 582.592 111.258 582.179 111.258Z" fill="#E3EAFF"/>
<path d="M589.265 141.973H544.069C543.656 141.973 543.312 141.285 543.312 140.46C543.312 139.6 543.656 138.946 544.069 138.946H589.265C589.678 138.946 590.022 139.634 590.022 140.46C590.022 141.32 589.678 141.973 589.265 141.973Z" fill="#E3EAFF"/>
<path d="M540.354 148.302H532.443C532.031 148.302 531.687 147.614 531.687 146.789C531.687 145.929 532.031 145.275 532.443 145.275H540.354C540.767 145.275 541.111 145.963 541.111 146.789C541.111 147.614 540.767 148.302 540.354 148.302Z" fill="#FF56A9"/>
<path d="M558.481 148.302H544.069C543.656 148.302 543.312 147.614 543.312 146.789C543.312 145.929 543.656 145.275 544.069 145.275H558.481C558.894 145.275 559.238 145.963 559.238 146.789C559.238 147.614 558.894 148.302 558.481 148.302Z" fill="#00CCFF"/>
<path d="M582.179 148.302H561.405C560.992 148.302 560.648 147.614 560.648 146.789C560.648 145.929 560.992 145.275 561.405 145.275H582.179C582.592 145.275 582.936 145.963 582.936 146.789C582.936 147.614 582.592 148.302 582.179 148.302Z" fill="#E3EAFF"/>
<path d="M540.354 117.552H532.443C532.031 117.552 531.687 116.864 531.687 116.039C531.687 115.179 532.031 114.525 532.443 114.525H540.354C540.767 114.525 541.111 115.213 541.111 116.039C541.111 116.864 540.767 117.552 540.354 117.552Z" fill="#FF56A9"/>
<path d="M584.415 117.552H544.241C543.725 117.552 543.312 117.14 543.312 116.624V115.42C543.312 114.904 543.725 114.491 544.241 114.491H584.415C584.931 114.491 585.344 114.904 585.344 115.42V116.624C585.309 117.14 584.897 117.552 584.415 117.552Z" fill="#FF56A9"/>
<path d="M540.354 123.881H532.443C532.031 123.881 531.687 123.193 531.687 122.368C531.687 121.508 532.031 120.854 532.443 120.854H540.354C540.767 120.854 541.111 121.542 541.111 122.368C541.111 123.193 540.767 123.881 540.354 123.881Z" fill="#E3EAFF"/>
<path d="M562.78 123.881H544.035C543.622 123.881 543.278 123.193 543.278 122.368C543.278 121.508 543.622 120.854 544.035 120.854H562.78C563.193 120.854 563.537 121.542 563.537 122.368C563.537 123.193 563.228 123.881 562.78 123.881Z" fill="#E3EAFF"/>
<path d="M572.755 123.881H565.326C564.913 123.881 564.569 123.193 564.569 122.368C564.569 121.508 564.913 120.854 565.326 120.854H572.755C573.168 120.854 573.512 121.542 573.512 122.368C573.512 123.193 573.168 123.881 572.755 123.881Z" fill="#E3EAFF"/>
<path d="M540.354 129.969H532.443C532.031 129.969 531.687 129.281 531.687 128.456C531.687 127.596 532.031 126.942 532.443 126.942H540.354C540.767 126.942 541.111 127.63 541.111 128.456C541.111 129.281 540.767 129.969 540.354 129.969Z" fill="#E3EAFF"/>
<path d="M595.181 129.969H544.31C543.725 129.969 543.278 129.522 543.278 128.937V127.94C543.278 127.355 543.725 126.908 544.31 126.908H595.181C595.766 126.908 596.213 127.355 596.213 127.94V128.937C596.213 129.522 595.766 129.969 595.181 129.969Z" fill="#E3EAFF"/>
<path d="M540.354 154.149H532.443C532.031 154.149 531.687 153.461 531.687 152.636C531.687 151.776 532.031 151.122 532.443 151.122H540.354C540.767 151.122 541.111 151.81 541.111 152.636C541.111 153.461 540.767 154.149 540.354 154.149Z" fill="#E3EAFF"/>
<path d="M600.409 154.149H575.472C575.06 154.149 574.716 153.461 574.716 152.636C574.716 151.776 575.06 151.122 575.472 151.122H600.409C600.822 151.122 601.166 151.81 601.166 152.636C601.166 153.461 600.822 154.149 600.409 154.149Z" fill="#E3EAFF"/>
<path d="M562.78 154.149H544.035C543.622 154.149 543.278 153.461 543.278 152.636C543.278 151.776 543.622 151.122 544.035 151.122H562.78C563.193 151.122 563.537 151.81 563.537 152.636C563.537 153.461 563.228 154.149 562.78 154.149Z" fill="#E3EAFF"/>
<path d="M572.755 154.149H565.326C564.913 154.149 564.569 153.461 564.569 152.636C564.569 151.776 564.913 151.122 565.326 151.122H572.755C573.168 151.122 573.512 151.81 573.512 152.636C573.512 153.461 573.168 154.149 572.755 154.149Z" fill="#E3EAFF"/>
<path d="M577.433 160.272H544.138C543.691 160.272 543.312 159.893 543.312 159.446V158.07C543.312 157.623 543.691 157.245 544.138 157.245H577.433C577.88 157.245 578.258 157.623 578.258 158.07V159.446C578.258 159.893 577.88 160.272 577.433 160.272Z" fill="#FFC359"/>
<path d="M598.07 136.298H575.748C575.163 136.298 574.716 135.851 574.716 135.266V134.268C574.716 133.684 575.163 133.237 575.748 133.237H598.07C598.655 133.237 599.102 133.684 599.102 134.268V135.266C599.102 135.816 598.621 136.298 598.07 136.298Z" fill="#FF56A9"/>
<path d="M562.78 136.298H544.035C543.622 136.298 543.278 135.61 543.278 134.784C543.278 133.925 543.622 133.271 544.035 133.271H562.78C563.193 133.271 563.537 133.959 563.537 134.784C563.537 135.61 563.228 136.298 562.78 136.298Z" fill="#FFC359"/>
<path d="M572.755 136.298H565.326C564.913 136.298 564.569 135.61 564.569 134.784C564.569 133.925 564.913 133.271 565.326 133.271H572.755C573.168 133.271 573.512 133.959 573.512 134.784C573.512 135.61 573.168 136.298 572.755 136.298Z" fill="#FFC359"/>
<path d="M622.87 50.6872C636.661 50.6872 647.841 39.5072 647.841 25.716C647.841 11.9248 636.661 0.744781 622.87 0.744781C609.078 0.744781 597.898 11.9248 597.898 25.716C597.898 39.5072 609.078 50.6872 622.87 50.6872Z" fill="#FF4DD1"/>
<path d="M621.046 23.3771L611.141 27.023L621.046 30.6346V34.3493L606.875 28.9492V25.0625L621.046 19.6624V23.3771Z" fill="#F9FBFC"/>
<path d="M624.28 19.6968L638.451 25.0969V28.9836L624.28 34.3837V30.669L634.186 27.0574L624.28 23.4115V19.6968Z" fill="#F9FBFC"/>
<path d="M488.79 480.999C501.163 472.608 504.39 455.775 495.999 443.402C487.607 431.03 470.775 427.802 458.402 436.194C446.03 444.585 442.802 461.418 451.194 473.791C459.585 486.163 476.418 489.391 488.79 480.999Z" fill="#FFC240"/>
<path d="M487.914 457.072C487.914 458.758 487.639 460.306 487.123 461.681C486.572 463.092 485.816 464.158 484.853 464.949C483.855 465.74 482.72 466.153 481.447 466.153C480.588 466.153 479.831 465.947 479.143 465.534C478.489 465.121 478.008 464.571 477.698 463.883H477.423C476.151 465.396 474.568 466.153 472.608 466.153C470.544 466.153 468.927 465.534 467.724 464.296C466.52 463.057 465.935 461.337 465.935 459.205C465.935 456.728 466.726 454.768 468.274 453.255C469.822 451.741 471.885 450.984 474.396 450.984C475.394 450.984 476.494 451.088 477.698 451.26C478.902 451.466 479.9 451.672 480.691 451.947L480.278 460.512C480.278 462.129 480.725 462.954 481.619 462.954C482.376 462.954 482.961 462.404 483.408 461.303C483.855 460.202 484.062 458.792 484.062 457.038C484.062 455.146 483.683 453.495 482.892 452.051C482.101 450.606 481 449.505 479.59 448.749C478.18 447.992 476.563 447.614 474.74 447.614C472.367 447.614 470.338 448.095 468.583 449.058C466.829 450.021 465.522 451.432 464.594 453.255C463.665 455.077 463.218 457.176 463.218 459.583C463.218 462.816 464.078 465.293 465.797 467.013C467.517 468.733 470.028 469.592 473.296 469.592C474.534 469.592 475.91 469.455 477.389 469.18C478.868 468.905 480.347 468.492 481.757 467.976V471.347C479.246 472.413 476.494 472.929 473.433 472.929C468.996 472.929 465.522 471.759 463.046 469.42C460.569 467.082 459.331 463.848 459.331 459.686C459.331 456.797 459.95 454.183 461.223 451.844C462.495 449.505 464.284 447.648 466.623 446.307C468.962 444.965 471.645 444.312 474.706 444.312C477.286 444.312 479.556 444.828 481.585 445.894C483.614 446.96 485.162 448.439 486.263 450.365C487.363 452.326 487.914 454.562 487.914 457.072ZM469.959 459.274C469.959 461.75 470.957 462.954 472.986 462.954C474.052 462.954 474.844 462.576 475.394 461.853C475.944 461.097 476.288 459.893 476.391 458.242L476.632 454.355C476.047 454.218 475.359 454.149 474.603 454.149C473.158 454.149 472.023 454.596 471.198 455.525C470.372 456.453 469.959 457.692 469.959 459.274Z" fill="white"/>
<path d="M232.885 35H62.9707C49.1781 35 37.9995 46.1786 37.9995 59.9712C37.9995 73.7638 49.1781 84.9424 62.9707 84.9424H75.4563L87.5292 97.0153L99.602 84.9424H232.851C246.643 84.9424 257.822 73.7638 257.822 59.9712C257.856 46.1786 246.678 35 232.885 35Z" fill="#F41E3D"/>
<path fill-rule="evenodd" clip-rule="evenodd" d="M73.9839 65.8302C73.9861 65.665 73.9915 65.4979 74.0001 65.3287C71.4686 65.1415 69.4642 65.216 67.8759 65.4442C67.7546 65.6559 67.6423 65.8688 67.535 66.0827C69.1513 65.7819 71.2518 65.6501 73.9839 65.8302ZM86.6208 66.7786C86.4748 66.9484 86.3329 67.1159 86.1953 67.2811C90.6962 67.4828 93.353 66.7956 94.9192 65.9548C94.8102 65.7844 94.7013 65.6086 94.5902 65.4274C93.1136 66.2206 90.6674 66.8757 86.6208 66.7786ZM74.0053 66.7776C70.9019 66.6088 68.6464 66.8533 67.006 67.2845C66.9168 67.516 66.8311 67.748 66.7563 67.9789C68.3857 67.4611 70.7144 67.1337 74.0465 67.2905C74.0294 67.1217 74.0157 66.9509 74.0053 66.7776ZM85.1067 68.6506C85.2232 68.4964 85.3436 68.3396 85.468 68.1808C90.8436 68.5832 93.851 67.8056 95.5305 66.8597C95.6574 67.0338 95.7797 67.2017 95.9022 67.362C94.1627 68.3587 90.9669 69.1796 85.1067 68.6506ZM74.1824 68.2484C70.4219 68.1066 67.9817 68.5955 66.3962 69.2644C66.3367 69.5167 66.2825 69.7661 66.2371 70.0132C67.7661 69.2485 70.2521 68.64 74.2899 68.7683C74.2506 68.5977 74.2147 68.4244 74.1824 68.2484ZM84.1703 69.9635C84.2696 69.8152 84.3728 69.6645 84.48 69.5115C91.3154 70.2833 94.8145 69.3219 96.6004 68.2099C96.7472 68.3743 96.8917 68.5283 97.0316 68.6724C95.2239 69.847 91.5627 70.8864 84.1703 69.9635ZM74.5575 69.736C69.9863 69.6189 67.4458 70.4581 66.0367 71.3765C66.0055 71.6563 65.9821 71.9264 65.9667 72.1893C67.2624 71.1783 69.7977 70.1556 74.7414 70.2607C74.6766 70.0891 74.6151 69.9141 74.5575 69.736ZM83.3738 71.2413C83.4566 71.0972 83.5435 70.9502 83.6346 70.8008C92.2023 72.0235 96.0832 70.7373 97.8378 69.4245C98.0091 69.5696 98.1764 69.7023 98.3354 69.8181C96.6317 71.2036 92.6486 72.657 83.3738 71.2413ZM75.1599 71.2326C69.4924 71.1233 67.0121 72.5029 65.9332 73.6317C65.9381 73.9406 65.9468 74.2346 65.9646 74.5063C66.8494 73.3425 69.2073 71.6497 75.4317 71.7587C75.3377 71.5873 75.247 71.4119 75.1599 71.2326ZM82.7175 72.5009C82.7834 72.3591 82.8536 72.214 82.9284 72.0657C93.8066 73.8811 97.8032 71.9111 99.2589 70.3942C99.4436 70.4902 99.6341 70.5748 99.8294 70.6472C98.5879 72.1976 94.7343 74.5636 82.9273 72.5365C82.8571 72.5245 82.7871 72.5127 82.7175 72.5009ZM87.4782 65.8091C87.6444 65.626 87.8153 65.4407 87.9908 65.2529C90.7497 65.1146 92.5625 64.5719 93.7535 63.9396C93.8507 64.126 93.9492 64.3076 94.0464 64.4825C92.7383 65.171 90.6881 65.7485 87.4782 65.8091ZM74.305 63.0039C74.3369 62.8421 74.366 62.6818 74.3923 62.523C72.9365 62.3537 71.6306 62.2624 70.4567 62.2343C70.2686 62.4043 70.0864 62.5765 69.9123 62.7521C71.1951 62.749 72.6502 62.825 74.305 63.0039ZM89.7235 63.4736C89.4924 63.7021 89.2676 63.9274 89.0491 64.1494C90.9617 63.9193 92.3115 63.4705 93.2637 62.9638C93.1741 62.7808 93.0845 62.5975 92.9958 62.404C92.2132 62.8303 91.1547 63.2181 89.7235 63.4736ZM91.2408 61.9897C91.6214 61.6104 91.984 61.2401 92.3295 60.8787C92.4029 61.0578 92.4767 61.2369 92.5509 61.4098V61.4112C92.1809 61.6159 91.7476 61.8122 91.2408 61.9897ZM85.8127 48.8081C86.1127 48.8695 86.4061 48.9261 86.6929 48.978C86.8832 48.8398 87.0497 48.7009 87.1948 48.5642C87.0841 48.3837 86.974 48.2088 86.8646 48.0394C86.5932 48.2943 86.2491 48.5567 85.8127 48.8081ZM74.5145 61.621C74.5313 61.4603 74.5452 61.3014 74.5564 61.144C73.7325 61.034 72.9541 60.9483 72.2155 60.8829C71.9924 61.0284 71.7791 61.1789 71.57 61.3307C72.4804 61.3913 73.4599 61.486 74.5145 61.621ZM84.0722 48.415C83.7162 48.3274 83.3518 48.2334 82.979 48.1329C84.3771 47.7325 85.2991 47.1928 85.905 46.6722C86.0253 46.8303 86.1473 46.9943 86.2711 47.1641C85.7832 47.5955 85.0812 48.0423 84.0722 48.415ZM74.5844 59.7626C74.5895 59.9203 74.5917 60.0798 74.5909 60.2412C74.2385 60.1907 73.8939 60.1444 73.5568 60.1016C73.5947 60.0823 73.6314 60.0621 73.6682 60.0418H73.6683L73.6683 60.0418C73.7108 60.0184 73.7534 59.9948 73.7984 59.9725C73.9084 59.9184 74.0142 59.8598 74.1198 59.8013H74.1198H74.1199C74.1706 59.7732 74.2214 59.7451 74.2725 59.7174C74.376 59.7323 74.48 59.7473 74.5844 59.7626ZM74.0778 64.4004C74.0967 64.2381 74.1185 64.0741 74.1433 63.9085C72.1516 63.7184 70.4624 63.6828 69.029 63.7562C68.8759 63.9483 68.7297 64.1411 68.5909 64.336C70.0895 64.2105 71.8968 64.2112 74.0778 64.4004ZM81.4836 43.9536C81.4182 43.498 81.3591 43.2356 81.3591 43.2356H81.3598C81.3598 43.2356 81.7511 43.2566 82.4088 43.5715C82.1079 43.7164 81.799 43.844 81.4836 43.9536ZM83.4924 44.2308C82.9973 44.5268 82.3798 44.8102 81.6042 45.051C81.6207 45.2431 81.6326 45.4463 81.643 45.6619C82.6609 45.3753 83.4294 45.016 84.0071 44.6413C83.8295 44.4891 83.6574 44.3505 83.4924 44.2308ZM84.8082 45.3932C84.1291 45.9015 83.1298 46.4036 81.6633 46.7595C81.6612 46.9561 81.6563 47.158 81.6472 47.3651C83.3732 46.9904 84.5001 46.4204 85.2291 45.8494C85.0858 45.6878 84.9449 45.5345 84.8096 45.3945L84.8082 45.3932Z" fill="white"/>
<path d="M73.9839 65.8302L73.9771 65.9337L74.086 65.9407L74.0875 65.8315L73.9839 65.8302ZM74.0001 65.3287L74.1036 65.3341L74.1087 65.233L74.0077 65.2255L74.0001 65.3287ZM67.8759 65.4442L67.8612 65.3416L67.8111 65.3488L67.786 65.3928L67.8759 65.4442ZM67.535 66.0827L67.4423 66.0363L67.3488 66.2228L67.5539 66.1847L67.535 66.0827ZM86.6208 66.7786L86.6233 66.6752L86.5741 66.6739L86.5422 66.7111L86.6208 66.7786ZM86.1953 67.2811L86.1156 67.2148L85.9818 67.3755L86.1906 67.3848L86.1953 67.2811ZM94.9192 65.9548L94.9683 66.046L95.0668 65.9932L95.0065 65.8988L94.9192 65.9548ZM94.5902 65.4274L94.6785 65.3733L94.6273 65.2898L94.5411 65.3362L94.5902 65.4274ZM67.006 67.2845L66.9796 67.1841L66.9283 67.1976L66.9092 67.2471L67.006 67.2845ZM74.0053 66.7776L74.1088 66.7714L74.1033 66.6791L74.011 66.6742L74.0053 66.7776ZM66.7563 67.9789L66.6577 67.947L66.5956 68.1388L66.7877 68.0776L66.7563 67.9789ZM74.0465 67.2905L74.0417 67.3939L74.1618 67.3995L74.1497 67.2799L74.0465 67.2905ZM85.4681 68.1808L85.4758 68.0774L85.4206 68.0733L85.3864 68.1168L85.4681 68.1808ZM85.1067 68.6506L85.0239 68.5882L84.9115 68.7373L85.0973 68.7538L85.1067 68.6506ZM95.5305 66.8597L95.6143 66.7985L95.56 66.7241L95.4795 66.7693L95.5305 66.8597ZM95.9022 67.362L95.9536 67.452L96.0563 67.3931L95.9845 67.2992L95.9022 67.362ZM66.3962 69.2644L66.3559 69.1689L66.3073 69.1894L66.2953 69.2406L66.3962 69.2644ZM74.1824 68.2484L74.2844 68.2298L74.2694 68.1479L74.1863 68.1448L74.1824 68.2484ZM66.2371 70.0132L66.1351 69.9946L66.0975 70.199L66.2834 70.1059L66.2371 70.0132ZM74.2899 68.7683L74.2867 68.8718L74.4212 68.8761L74.391 68.7449L74.2899 68.7683ZM84.48 69.5115L84.4916 69.4085L84.4304 69.4015L84.3951 69.452L84.48 69.5115ZM84.1703 69.9635L84.0841 69.9058L83.9906 70.0456L84.1574 70.0665L84.1703 69.9635ZM96.6004 68.2099L96.6778 68.1408L96.6197 68.0757L96.5457 68.122L96.6004 68.2099ZM97.0316 68.6724L97.088 68.7594L97.1937 68.6908L97.1059 68.6002L97.0316 68.6724ZM66.0367 71.3765L65.9801 71.2896L65.9391 71.3163L65.9336 71.365L66.0367 71.3765ZM74.5575 69.736L74.6561 69.7041L74.6335 69.6343L74.5601 69.6324L74.5575 69.736ZM65.9667 72.1893L65.8633 72.1831L65.8499 72.4119L66.0305 72.271L65.9667 72.1893ZM74.7414 70.2607L74.7392 70.3644L74.8926 70.3677L74.8384 70.224L74.7414 70.2607ZM83.6346 70.8008L83.6493 70.6982L83.5816 70.6884L83.5461 70.7469L83.6346 70.8008ZM83.3738 71.2413L83.2839 71.1897L83.2085 71.3211L83.3581 71.3439L83.3738 71.2413ZM97.8378 69.4245L97.9048 69.3453L97.8418 69.292L97.7757 69.3413L97.8378 69.4245ZM98.3354 69.8181L98.4009 69.8984L98.5054 69.8136L98.3963 69.7342L98.3354 69.8181ZM65.9332 73.6317L65.8582 73.56L65.8289 73.5909L65.8295 73.6334L65.9332 73.6317ZM75.1599 71.2326L75.2532 71.1874L75.2255 71.1302L75.162 71.1289L75.1599 71.2326ZM65.9646 74.5063L65.8612 74.5132L65.8794 74.7899L66.0472 74.5692L65.9646 74.5063ZM75.4317 71.7587L75.4299 71.8624L75.6085 71.8655L75.5226 71.709L75.4317 71.7587ZM82.9284 72.0657L82.9455 71.9635L82.8703 71.9509L82.8359 72.0191L82.9284 72.0657ZM82.7175 72.5009L82.6235 72.4571L82.5662 72.5805L82.7003 72.6031L82.7175 72.5009ZM99.2589 70.3942L99.3066 70.3022L99.2378 70.2665L99.1841 70.3225L99.2589 70.3942ZM99.8294 70.6472L99.9105 70.712L100 70.5999L99.8655 70.5499L99.8294 70.6472ZM82.9273 72.5365L82.9449 72.4343H82.9448L82.9273 72.5365ZM87.9909 65.2529L87.9855 65.1492L87.9436 65.1515L87.915 65.182L87.9909 65.2529ZM87.4782 65.8091L87.4015 65.7394L87.24 65.9173L87.4803 65.9127L87.4782 65.8091ZM93.7535 63.9396L93.8454 63.8917L93.7971 63.799L93.7048 63.848L93.7535 63.9396ZM94.0464 64.4825L94.0947 64.5744L94.1887 64.5248L94.137 64.4321L94.0464 64.4825ZM74.305 63.0039L74.2939 63.1069L74.3883 63.1171L74.4067 63.0239L74.305 63.0039ZM74.3923 62.523L74.4945 62.54L74.5123 62.4326L74.4043 62.4201L74.3923 62.523ZM70.4567 62.2343L70.4592 62.1306L70.4179 62.1297L70.3872 62.1574L70.4567 62.2343ZM69.9123 62.7521L69.8387 62.6791L69.663 62.8564L69.9125 62.8558L69.9123 62.7521ZM89.7235 63.4736L89.7053 63.3715L89.6735 63.3772L89.6507 63.3998L89.7235 63.4736ZM89.0491 64.1494L88.9753 64.0768L88.7678 64.2877L89.0616 64.2524L89.0491 64.1494ZM93.2637 62.9638L93.3124 63.0553L93.4007 63.0082L93.3567 62.9182L93.2637 62.9638ZM92.9958 62.404L93.0899 62.3607L93.0437 62.2598L92.9461 62.3129L92.9958 62.404ZM92.3295 60.8787L92.4253 60.8393L92.3648 60.6916L92.2545 60.807L92.3295 60.8787ZM91.2408 61.9897L91.1676 61.9163L91.275 62.0875L91.2408 61.9897ZM92.5509 61.4098H92.6546V61.3885L92.6463 61.3689L92.5509 61.4098ZM92.5509 61.4112L92.6011 61.5019L92.6546 61.4723V61.4112H92.5509ZM85.8127 48.8081L85.7609 48.7183L85.5239 48.8548L85.7919 48.9097L85.8127 48.8081ZM86.6929 48.978L86.6745 49.08L86.718 49.0879L86.7539 49.0619L86.6929 48.978ZM87.1948 48.5642L87.2659 48.6397L87.3273 48.5819L87.2833 48.5101L87.1948 48.5642ZM86.8646 48.0394L86.9514 47.9831L86.8841 47.8788L86.7935 47.9639L86.8646 48.0394ZM74.5145 61.621L74.5013 61.7238L74.6065 61.7373L74.6176 61.6318L74.5145 61.621ZM74.5564 61.144L74.6598 61.1513L74.6667 61.0541L74.5701 61.0412L74.5564 61.144ZM72.2155 60.8829L72.2246 60.7796L72.1889 60.7765L72.1589 60.7961L72.2155 60.8829ZM71.57 61.3307L71.5091 61.2469L71.2774 61.4152L71.5631 61.4342L71.57 61.3307ZM82.979 48.1329L82.9505 48.0332L82.5921 48.1359L82.952 48.2329L82.979 48.1329ZM84.0722 48.415L84.0474 48.5157L84.0783 48.5233L84.1081 48.5123L84.0722 48.415ZM85.905 46.6722L85.9875 46.6094L85.9209 46.5219L85.8375 46.5936L85.905 46.6722ZM86.2711 47.1641L86.3398 47.2418L86.4104 47.1793L86.3549 47.1031L86.2711 47.1641ZM74.5909 60.2412L74.5762 60.3438L74.694 60.3607L74.6946 60.2417L74.5909 60.2412ZM74.5844 59.7626L74.6881 59.7593L74.6853 59.6727L74.5995 59.6601L74.5844 59.7626ZM73.5568 60.1016L73.5098 60.0093L73.2094 60.1621L73.5438 60.2045L73.5568 60.1016ZM73.6682 60.0418L73.6297 59.9456L73.6238 59.9479L73.6182 59.951L73.6682 60.0418ZM73.6683 60.0418L73.7068 60.138L73.7127 60.1356L73.7183 60.1326L73.6683 60.0418ZM73.7984 59.9725L73.7527 59.8795L73.7523 59.8797L73.7984 59.9725ZM74.1198 59.8013L74.0813 59.7051L74.0753 59.7075L74.0696 59.7106L74.1198 59.8013ZM74.1199 59.8013L74.1583 59.8975L74.1644 59.8951L74.1701 59.892L74.1199 59.8013ZM74.2725 59.7174L74.2872 59.6149L74.2534 59.61L74.2233 59.6262L74.2725 59.7174ZM74.0778 64.4004L74.0689 64.5037L74.1692 64.5124L74.1808 64.4125L74.0778 64.4004ZM74.1433 63.9085L74.2458 63.9238L74.262 63.8156L74.1531 63.8053L74.1433 63.9085ZM69.029 63.7562L69.0238 63.6527L68.9771 63.6551L68.948 63.6916L69.029 63.7562ZM68.5909 64.336L68.5065 64.2758L68.3768 64.4579L68.5996 64.4392L68.5909 64.336ZM81.3591 43.2356V43.132H81.2295L81.258 43.2584L81.3591 43.2356ZM81.4836 43.9536L81.381 43.9683L81.3988 44.0927L81.5176 44.0515L81.4836 43.9536ZM81.3598 43.2356L81.3654 43.1321L81.3626 43.132H81.3598V43.2356ZM82.4088 43.5715L82.4538 43.6649L82.6482 43.5712L82.4535 43.478L82.4088 43.5715ZM81.6042 45.051L81.5735 44.952L81.4938 44.9767L81.501 45.0598L81.6042 45.051ZM83.4924 44.2308L83.5532 44.1469L83.4979 44.1068L83.4392 44.1419L83.4924 44.2308ZM81.643 45.6619L81.5395 45.6669L81.5458 45.7969L81.6711 45.7616L81.643 45.6619ZM84.0071 44.6413L84.0635 44.7282L84.1798 44.6528L84.0745 44.5625L84.0071 44.6413ZM81.6633 46.7595L81.6389 46.6587L81.5605 46.6777L81.5597 46.7583L81.6633 46.7595ZM84.8082 45.3932L84.8815 45.3199L84.818 45.2563L84.746 45.3102L84.8082 45.3932ZM81.6473 47.3651L81.5437 47.3606L81.5378 47.4949L81.6692 47.4664L81.6473 47.3651ZM85.2292 45.8494L85.2931 45.931L85.3798 45.8631L85.3067 45.7806L85.2292 45.8494ZM84.8096 45.3945L84.8841 45.3225L84.8829 45.3213L84.8096 45.3945ZM74.0875 65.8315C74.0898 65.6677 74.0951 65.5018 74.1036 65.3341L73.8965 65.3236C73.8879 65.4938 73.8825 65.6623 73.8803 65.8288L74.0875 65.8315ZM74.0077 65.2255C71.4704 65.0377 69.4584 65.1121 67.8612 65.3416L67.8906 65.5468C69.4701 65.3198 71.4668 65.2452 73.9924 65.4322L74.0077 65.2255ZM67.786 65.3928C67.6635 65.6065 67.5503 65.8209 67.4423 66.0363L67.6276 66.1294C67.7343 65.9165 67.8457 65.7054 67.9658 65.4958L67.786 65.3928ZM67.5539 66.1847C69.1599 65.8858 71.2516 65.7539 73.9771 65.9337L73.9907 65.7268C71.2521 65.5462 69.1427 65.6781 67.516 65.9809L67.5539 66.1847ZM86.5422 66.7111C86.3958 66.8812 86.2537 67.0492 86.1156 67.2148L86.2749 67.3477C86.4122 67.1827 86.5536 67.0156 86.6993 66.8462L86.5422 66.7111ZM86.1906 67.3848C90.7026 67.5869 93.38 66.8989 94.9683 66.046L94.8703 65.8634C93.3261 66.6924 90.6898 67.3788 86.1999 67.1777L86.1906 67.3848ZM95.0065 65.8988C94.8981 65.7293 94.7896 65.5543 94.6785 65.3733L94.5019 65.4817C94.6132 65.6631 94.7223 65.8393 94.8319 66.0106L95.0065 65.8988ZM94.5411 65.3362C93.0856 66.118 90.6589 66.7718 86.6233 66.6752L86.6183 66.8823C90.6761 66.9795 93.1418 66.323 94.6393 65.5188L94.5411 65.3362ZM67.0323 67.3846C68.6598 66.9569 70.904 66.7129 73.9997 66.881L74.011 66.6742C70.8997 66.505 68.6331 66.7496 66.9796 67.1841L67.0323 67.3846ZM66.8549 68.0109C66.9289 67.7824 67.0138 67.5525 67.1027 67.3216L66.9092 67.2471C66.8198 67.4795 66.7334 67.7134 66.6577 67.947L66.8549 68.0109ZM74.0514 67.1868C70.7108 67.0297 68.3692 67.3576 66.7249 67.88L66.7877 68.0776C68.4023 67.5645 70.718 67.2376 74.0417 67.3939L74.0514 67.1868ZM74.1497 67.2799C74.1327 67.1128 74.119 66.9432 74.1088 66.7714L73.9019 66.7838C73.9123 66.9584 73.9262 67.1308 73.9434 67.3008L74.1497 67.2799ZM85.3864 68.1168C85.2617 68.2762 85.1409 68.4333 85.0239 68.5882L85.1894 68.7132C85.3056 68.5592 85.4256 68.4031 85.5497 68.2447L85.3864 68.1168ZM85.4603 68.2841C90.8467 68.6875 93.8773 67.9099 95.5813 66.9499L95.4795 66.7693C93.8246 67.7016 90.8403 68.4792 85.4758 68.0774L85.4603 68.2841ZM95.4468 66.9206C95.5735 67.0948 95.6966 67.2637 95.8197 67.425L95.9845 67.2992C95.8631 67.14 95.7414 66.9731 95.6143 66.7985L95.4468 66.9206ZM95.8506 67.2722C94.137 68.254 90.9655 69.0754 85.116 68.5474L85.0973 68.7538C90.9684 69.2839 94.1884 68.4636 95.9536 67.452L95.8506 67.2722ZM66.4365 69.36C68.0039 68.6987 70.4279 68.2105 74.1785 68.3519L74.1863 68.1448C70.416 68.0026 67.9596 68.4922 66.3559 69.1689L66.4365 69.36ZM66.339 70.0321C66.3841 69.787 66.4379 69.5393 66.497 69.2883L66.2953 69.2406C66.2356 69.4941 66.181 69.7454 66.1351 69.9946L66.339 70.0321ZM74.2932 68.6647C70.2447 68.5362 67.7401 69.1456 66.1907 69.9206L66.2834 70.1059C67.7922 69.3513 70.2595 68.7441 74.2867 68.8718L74.2932 68.6647ZM74.391 68.7449C74.352 68.576 74.3164 68.4041 74.2844 68.2298L74.0805 68.2671C74.113 68.4445 74.1493 68.6195 74.1889 68.7916L74.391 68.7449ZM84.3951 69.452C84.2875 69.6057 84.1839 69.757 84.0841 69.9058L84.2564 70.0213C84.3553 69.8735 84.4581 69.7234 84.5649 69.5708L84.3951 69.452ZM84.4684 69.6144C91.3144 70.3874 94.8408 69.4276 96.6552 68.298L96.5457 68.122C94.7882 69.2161 91.3164 70.1791 84.4916 69.4085L84.4684 69.6144ZM96.5231 68.2789C96.6711 68.4445 96.8165 68.5996 96.9572 68.7447L97.1059 68.6002C96.967 68.457 96.8235 68.3042 96.6778 68.1408L96.5231 68.2789ZM96.975 68.5855C95.1972 69.7406 91.5654 70.7821 84.1831 69.8606L84.1574 70.0665C91.5602 70.9905 95.2505 69.9533 97.088 68.7594L96.975 68.5855ZM66.0933 71.4633C67.4787 70.5603 69.9959 69.723 74.5548 69.8395L74.5601 69.6324C69.9767 69.5151 67.413 70.3557 65.9801 71.2896L66.0933 71.4633ZM66.0702 72.1953C66.0855 71.9345 66.1087 71.6663 66.1397 71.3879L65.9336 71.365C65.9023 71.6466 65.8788 71.9183 65.8633 72.1831L66.0702 72.1953ZM74.7436 70.1571C69.7865 70.0518 67.2244 71.0765 65.903 72.1074L66.0305 72.271C67.3005 71.2801 69.8089 70.2595 74.7392 70.3644L74.7436 70.1571ZM74.8384 70.224C74.7741 70.0538 74.7132 69.8805 74.6561 69.7041L74.4589 69.768C74.5171 69.9477 74.579 70.1241 74.6445 70.2974L74.8384 70.224ZM83.5461 70.7469C83.4545 70.8972 83.3672 71.0448 83.2839 71.1897L83.4637 71.2931C83.5461 71.1497 83.6325 71.0035 83.7231 70.8547L83.5461 70.7469ZM83.62 70.9034C92.1975 72.1275 96.1127 70.8449 97.8998 69.5074L97.7757 69.3413C96.054 70.6297 92.2072 71.9194 83.6493 70.6982L83.62 70.9034ZM97.7709 69.5035C97.9438 69.65 98.1129 69.7843 98.2744 69.9019L98.3963 69.7342C98.2398 69.6202 98.0746 69.4891 97.9048 69.3453L97.7709 69.5035ZM98.2701 69.7377C96.6006 71.0951 92.6546 72.5531 83.3894 71.1389L83.3581 71.3439C92.6424 72.7608 96.6626 71.312 98.4009 69.8984L98.2701 69.7377ZM66.0081 73.7032C67.0593 72.6037 69.5059 71.2272 75.158 71.3362L75.162 71.1289C69.479 71.0193 66.965 72.4022 65.8582 73.56L66.0081 73.7032ZM66.0681 74.4997C66.0504 74.2302 66.0417 73.9383 66.0368 73.6301L65.8295 73.6334C65.8344 73.9431 65.8432 74.2389 65.8612 74.5132L66.0681 74.4997ZM75.4335 71.6551C69.1917 71.5456 66.7948 73.2432 65.8821 74.4437L66.0472 74.5692C66.9041 73.442 69.223 71.7535 75.4299 71.8624L75.4335 71.6551ZM75.5226 71.709C75.4294 71.539 75.3395 71.3651 75.2532 71.1874L75.0667 71.2778C75.1545 71.4588 75.246 71.6356 75.3408 71.8085L75.5226 71.709ZM82.8359 72.0191C82.7606 72.1684 82.6899 72.3143 82.6235 72.4571L82.8115 72.5446C82.8769 72.4037 82.9467 72.2598 83.021 72.1124L82.8359 72.0191ZM82.9114 72.1679C93.7983 73.9848 97.841 72.0216 99.3336 70.466L99.1841 70.3225C97.7653 71.8008 93.8149 73.7775 82.9455 71.9635L82.9114 72.1679ZM99.211 70.4863C99.3997 70.5841 99.5941 70.6704 99.7934 70.7444L99.8655 70.5499C99.6744 70.479 99.4876 70.3963 99.3066 70.3022L99.211 70.4863ZM99.7486 70.5825C98.5443 72.0861 94.7434 74.4599 82.9449 72.4343L82.9098 72.6387C94.7252 74.667 98.6314 72.3091 99.9105 70.712L99.7486 70.5825ZM82.9448 72.4343C82.8745 72.4223 82.8045 72.4105 82.7347 72.3987L82.7003 72.6031C82.7698 72.6149 82.8397 72.6267 82.9098 72.6387L82.9448 72.4343ZM87.915 65.182C87.7392 65.3702 87.5679 65.5559 87.4015 65.7394L87.5549 65.8787C87.7207 65.6961 87.8913 65.5112 88.0665 65.3236L87.915 65.182ZM87.996 65.3563C90.7656 65.2176 92.5943 64.6722 93.802 64.031L93.7048 63.848C92.5306 64.4713 90.7337 65.0116 87.9855 65.1492L87.996 65.3563ZM93.6615 63.9875C93.7593 64.1749 93.8584 64.3573 93.9558 64.5329L94.137 64.4321C94.0402 64.2578 93.942 64.077 93.8454 63.8917L93.6615 63.9875ZM93.9981 64.3909C92.7085 65.0696 90.6752 65.6451 87.4763 65.7054L87.4803 65.9127C90.701 65.852 92.7684 65.2724 94.0947 64.5744L93.9981 64.3909ZM74.4067 63.0239C74.4388 62.8611 74.468 62.6998 74.4945 62.54L74.29 62.5061C74.2639 62.6638 74.235 62.8231 74.2033 62.9838L74.4067 63.0239ZM70.4542 62.3379C71.6247 62.3659 72.9274 62.4569 74.3803 62.626L74.4043 62.4201C72.9457 62.2504 71.6366 62.1588 70.4592 62.1306L70.4542 62.3379ZM69.9859 62.8251C70.1584 62.651 70.3392 62.4802 70.5262 62.3112L70.3872 62.1574C70.198 62.3284 70.0144 62.5019 69.8387 62.6791L69.9859 62.8251ZM74.3162 62.9008C72.658 62.7215 71.1991 62.6453 69.912 62.6485L69.9125 62.8558C71.1911 62.8527 72.6424 62.9284 74.2939 63.1069L74.3162 62.9008ZM89.6507 63.3998C89.4192 63.6287 89.1941 63.8544 88.9753 64.0768L89.1232 64.2221C89.3412 64.0003 89.5655 63.7754 89.7965 63.5473L89.6507 63.3998ZM93.2149 62.8723C92.2763 63.3718 90.9394 63.8175 89.0367 64.0466L89.0616 64.2524C90.9841 64.0211 92.3465 63.5692 93.3124 63.0553L93.2149 62.8723ZM92.9015 62.4472C92.9911 62.642 93.081 62.8264 93.1704 63.0093L93.3567 62.9182C93.2672 62.7352 93.1782 62.5529 93.0899 62.3607L92.9015 62.4472ZM89.7418 63.5756C91.1821 63.3185 92.2514 62.9275 93.0454 62.495L92.9461 62.3129C92.1749 62.7331 91.1274 63.1177 89.7053 63.3715L89.7418 63.5756ZM92.2545 60.807C91.9097 61.1679 91.5478 61.5376 91.1676 61.9163L91.314 62.0631C91.6952 61.6833 92.0584 61.3124 92.4044 60.9503L92.2545 60.807ZM92.6463 61.3689C92.5723 61.1969 92.4989 61.0185 92.4253 60.8393L92.2336 60.918C92.3069 61.0971 92.381 61.2769 92.4558 61.4507L92.6463 61.3689ZM92.6546 61.4112V61.4098H92.4473V61.4112H92.6546ZM91.275 62.0875C91.787 61.9082 92.2257 61.7096 92.6011 61.5019L92.5008 61.3205C92.1361 61.5222 91.7082 61.7161 91.2066 61.8919L91.275 62.0875ZM85.7919 48.9097C86.0927 48.9712 86.3869 49.0279 86.6745 49.08L86.7114 48.8761C86.4254 48.8242 86.1328 48.7678 85.8334 48.7066L85.7919 48.9097ZM87.1239 48.4887C86.9819 48.6224 86.819 48.7585 86.632 48.8942L86.7539 49.0619C86.9477 48.9212 87.1175 48.7795 87.2659 48.6397L87.1239 48.4887ZM86.7775 48.0957C86.8865 48.2643 86.9962 48.4386 87.1065 48.6184L87.2833 48.5101C87.1722 48.3288 87.0615 48.1532 86.9514 47.9831L86.7775 48.0957ZM85.8644 48.8979C86.3075 48.6427 86.6581 48.3755 86.9355 48.115L86.7935 47.9639C86.5283 48.213 86.1907 48.4707 85.7609 48.7183L85.8644 48.8979ZM74.6176 61.6318C74.6345 61.47 74.6485 61.3099 74.6598 61.1513L74.453 61.1366C74.4419 61.2928 74.4281 61.4507 74.4114 61.6102L74.6176 61.6318ZM74.5701 61.0412C73.7448 60.9311 72.9648 60.8452 72.2246 60.7796L72.2063 60.9861C72.9434 61.0514 73.7203 61.137 74.5427 61.2467L74.5701 61.0412ZM72.1589 60.7961C71.9338 60.9429 71.7189 61.0945 71.5091 61.2469L71.6309 61.4146C71.8393 61.2633 72.0511 61.1139 72.2721 60.9697L72.1589 60.7961ZM71.5631 61.4342C72.4713 61.4946 73.4487 61.5891 74.5013 61.7238L74.5276 61.5182C73.4711 61.3829 72.4895 61.288 71.5769 61.2273L71.5631 61.4342ZM82.952 48.2329C83.3256 48.3337 83.6906 48.4278 84.0474 48.5157L84.097 48.3144C83.7417 48.2269 83.3781 48.1332 83.006 48.0328L82.952 48.2329ZM85.8375 46.5936C85.2445 47.1031 84.3363 47.6363 82.9505 48.0332L83.0075 48.2325C84.4179 47.8286 85.3538 47.2825 85.9726 46.7508L85.8375 46.5936ZM86.3549 47.1031C86.2307 46.9327 86.1083 46.7682 85.9875 46.6094L85.8225 46.7349C85.9424 46.8925 86.064 47.0559 86.1874 47.2252L86.3549 47.1031ZM84.1081 48.5123C85.1278 48.1355 85.8413 47.6825 86.3398 47.2418L86.2025 47.0865C85.7252 47.5085 85.0345 47.949 84.0363 48.3178L84.1081 48.5123ZM74.6946 60.2417C74.6954 60.0791 74.6931 59.9183 74.6881 59.7593L74.4809 59.7659C74.4859 59.9224 74.488 60.0806 74.4873 60.2407L74.6946 60.2417ZM74.6056 60.1386C74.2526 60.088 73.9075 60.0416 73.5698 59.9988L73.5438 60.2045C73.8803 60.2471 74.2243 60.2934 74.5762 60.3438L74.6056 60.1386ZM73.6038 60.194C73.6436 60.1738 73.6817 60.1527 73.7183 60.1326L73.6182 59.951C73.5812 59.9714 73.546 59.9908 73.5098 60.0093L73.6038 60.194ZM73.7067 60.138H73.7068L73.6298 59.9455L73.6297 59.9456L73.7067 60.138ZM73.7068 60.138L73.6298 59.9455L73.7068 60.138ZM73.7068 60.138H73.7068L73.6298 59.9455H73.6298L73.7068 60.138ZM73.7183 60.1326C73.7611 60.109 73.8018 60.0865 73.8445 60.0654L73.7523 59.8797C73.705 59.9032 73.6604 59.9277 73.6182 59.951L73.7183 60.1326ZM73.8441 60.0655C73.9568 60.0101 74.0648 59.9503 74.17 59.892L74.0696 59.7106C73.9636 59.7694 73.8601 59.8267 73.7527 59.8795L73.8441 60.0655ZM74.1583 59.8976L74.0813 59.7051L74.1583 59.8976ZM74.1583 59.8976L74.1583 59.8975L74.0813 59.7051H74.0813L74.1583 59.8976ZM74.1583 59.8975L74.0814 59.705L74.0813 59.7051L74.1583 59.8975ZM74.1701 59.892C74.2209 59.8638 74.2711 59.836 74.3217 59.8087L74.2233 59.6262C74.1716 59.6542 74.1203 59.6826 74.0696 59.7106L74.1701 59.892ZM74.2579 59.8201C74.3612 59.8348 74.4651 59.8499 74.5694 59.8652L74.5995 59.6601C74.4949 59.6447 74.3908 59.6297 74.2872 59.6149L74.2579 59.8201ZM74.1808 64.4125C74.1995 64.2512 74.2212 64.0882 74.2458 63.9238L74.0408 63.8932C74.0158 64.0598 73.9939 64.225 73.9749 64.3884L74.1808 64.4125ZM69.0344 63.8598C70.4619 63.7866 72.146 63.8218 74.1334 64.0115L74.1531 63.8053C72.1572 63.6148 70.4629 63.579 69.0238 63.6527L69.0344 63.8598ZM68.6754 64.3961C68.813 64.2029 68.958 64.0115 69.1101 63.8208L68.948 63.6916C68.7938 63.8849 68.6465 64.0793 68.5065 64.2758L68.6754 64.3961ZM74.0868 64.2972C71.901 64.1075 70.0877 64.1067 68.5823 64.2327L68.5996 64.4392C70.0913 64.3144 71.8926 64.3148 74.0689 64.5037L74.0868 64.2972ZM81.3591 43.2356C81.258 43.2584 81.258 43.2584 81.258 43.2584V43.2584C81.258 43.2584 81.258 43.2584 81.258 43.2584C81.258 43.2584 81.258 43.2584 81.258 43.2585C81.258 43.2586 81.2581 43.2587 81.2581 43.2589C81.2582 43.2594 81.2584 43.2601 81.2586 43.261C81.259 43.2629 81.2596 43.2658 81.2605 43.2697C81.2621 43.2774 81.2647 43.2892 81.2679 43.3047C81.2743 43.3358 81.2836 43.3822 81.2949 43.4428C81.3176 43.5641 81.3485 43.7421 81.381 43.9683L81.5862 43.9388C81.5533 43.7095 81.5219 43.5286 81.4987 43.4047C81.4871 43.3427 81.4776 43.2951 81.4709 43.2627C81.4675 43.2466 81.4649 43.2342 81.4631 43.2259C81.4622 43.2217 81.4615 43.2185 81.461 43.2163C81.4608 43.2152 81.4606 43.2144 81.4604 43.2138C81.4604 43.2135 81.4603 43.2133 81.4603 43.2131C81.4603 43.2131 81.4603 43.213 81.4602 43.2129C81.4602 43.2129 81.4602 43.2129 81.4602 43.2129C81.4602 43.2129 81.4602 43.2129 81.4602 43.2129C81.4602 43.2128 81.4602 43.2128 81.3591 43.2356ZM81.3598 43.132H81.3591V43.3393H81.3598V43.132ZM82.4535 43.478C82.1182 43.3175 81.8493 43.2311 81.6626 43.1849C81.5692 43.1617 81.4965 43.1486 81.4463 43.1413C81.4212 43.1376 81.4017 43.1353 81.3881 43.134C81.3814 43.1333 81.376 43.1329 81.3722 43.1326C81.3703 43.1324 81.3688 43.1323 81.3677 43.1322C81.3671 43.1322 81.3666 43.1322 81.3662 43.1322C81.366 43.1321 81.3659 43.1321 81.3657 43.1321C81.3657 43.1321 81.3656 43.1321 81.3655 43.1321C81.3655 43.1321 81.3654 43.1321 81.3654 43.1321C81.3654 43.1321 81.3654 43.1321 81.3598 43.2356C81.3542 43.3391 81.3542 43.3391 81.3542 43.3391C81.3542 43.3391 81.3541 43.3391 81.3541 43.3391C81.3541 43.3391 81.3541 43.3391 81.354 43.3391C81.354 43.3391 81.354 43.3391 81.354 43.3391C81.354 43.3391 81.354 43.3391 81.3542 43.3391C81.3546 43.3391 81.3554 43.3392 81.3565 43.3393C81.3587 43.3394 81.3625 43.3398 81.3677 43.3403C81.3781 43.3413 81.3943 43.3432 81.4162 43.3464C81.4599 43.3528 81.526 43.3646 81.6127 43.3861C81.786 43.429 82.0416 43.5106 82.364 43.665L82.4535 43.478ZM81.5176 44.0515C81.8368 43.9406 82.1493 43.8115 82.4538 43.6649L82.3638 43.4781C82.0665 43.6213 81.7613 43.7474 81.4496 43.8557L81.5176 44.0515ZM81.635 45.15C82.4177 44.907 83.0428 44.6204 83.5456 44.3198L83.4392 44.1419C82.9517 44.4333 82.3419 44.7135 81.5735 44.952L81.635 45.15ZM81.7466 45.6568C81.7361 45.4408 81.7241 45.2361 81.7075 45.0421L81.501 45.0598C81.5172 45.2501 81.529 45.4519 81.5395 45.6669L81.7466 45.6568ZM83.9507 44.5543C83.3829 44.9226 82.6242 45.278 81.615 45.5621L81.6711 45.7616C82.6976 45.4727 83.476 45.1093 84.0635 44.7282L83.9507 44.5543ZM83.4315 44.3148C83.5937 44.4323 83.7634 44.569 83.9397 44.72L84.0745 44.5625C83.8955 44.4091 83.7212 44.2687 83.5532 44.1469L83.4315 44.3148ZM81.6878 46.8602C83.1655 46.5016 84.1782 45.9943 84.8703 45.4761L84.746 45.3102C84.0801 45.8088 83.0941 46.3056 81.6389 46.6587L81.6878 46.8602ZM81.7508 47.3696C81.7599 47.1612 81.7649 46.9582 81.767 46.7606L81.5597 46.7583C81.5576 46.954 81.5527 47.1548 81.5437 47.3606L81.7508 47.3696ZM85.1652 45.7678C84.4509 46.3273 83.3391 46.8917 81.6253 47.2638L81.6692 47.4664C83.4072 47.0891 84.5494 46.5135 85.2931 45.931L85.1652 45.7678ZM84.735 45.4666C84.8691 45.6053 85.009 45.7574 85.1516 45.9182L85.3067 45.7806C85.1626 45.6181 85.0206 45.4637 84.8841 45.3225L84.735 45.4666ZM84.7348 45.4664L84.7362 45.4678L84.8829 45.3213L84.8815 45.3199L84.7348 45.4664Z" fill="white"/>
<path d="M81.8089 76.8931C81.7329 76.8501 81.6545 76.8049 81.5738 76.7573C80.6616 76.2199 79.4706 75.3957 78.3488 74.2476C76.1166 71.9635 74.1538 68.4006 75.2094 63.1975C76.3479 57.5859 74.2107 53.6891 71.7943 51.2173C70.5918 49.9873 69.3214 49.1095 68.3533 48.5393C68.0231 48.3449 67.7271 48.1857 67.4797 48.06C67.4801 48.0597 67.4806 48.0595 67.481 48.0592C67.9345 47.7796 68.6872 47.4237 69.8414 47.1731C72.1521 46.6713 76.0855 46.5892 82.4519 48.4091C88.9277 50.2602 93.0412 50.2101 95.5668 49.6618C96.8308 49.3874 97.6936 48.9889 98.251 48.6453C98.3785 48.5668 98.4896 48.4913 98.5858 48.421C98.6078 48.4689 98.63 48.5215 98.6513 48.5789C98.8097 49.0041 98.9411 49.7225 98.7201 50.8127C98.2736 53.0139 96.3911 56.7197 90.4364 62.4585C84.4282 68.2488 82.364 72.1348 81.8542 74.6432C81.6647 75.5756 81.69 76.3184 81.8089 76.8931Z" stroke="white" stroke-width="1.5"/>
<path d="M224.25 69.951H112.464C110.916 69.951 109.678 68.7128 109.678 67.165C109.678 65.6172 110.916 64.3789 112.464 64.3789H224.25C225.798 64.3789 227.036 65.6172 227.036 67.165C227.07 68.7128 225.798 69.951 224.25 69.951Z" fill="white"/>
<path d="M189.338 54.5762H112.464C110.916 54.5762 109.678 53.3379 109.678 51.7901C109.678 50.2423 110.916 49.0041 112.464 49.0041H189.304C190.852 49.0041 192.09 50.2423 192.09 51.7901C192.124 53.3379 190.852 54.5762 189.338 54.5762Z" fill="white"/>
<path d="M553.838 314.758C553.838 314.758 551.774 320.915 550.604 324.664C550.604 324.664 560.785 324.458 564.363 319.711L560.545 310.596L553.838 314.758Z" fill="#F7D3A9"/>
<path d="M552.324 484.845L553.184 488.731L558.825 489.041L557.621 484.294L552.324 484.845Z" fill="#F79A74"/>
<path d="M553.184 488.731C553.184 488.731 543.76 493.65 543.828 493.959C543.897 494.269 559.754 492.618 559.754 492.618L558.79 489.041L553.184 488.731Z" fill="#544DB8"/>
<path d="M599.859 477.037L602.06 480.339L607.426 478.619L604.605 474.595L599.859 477.037Z" fill="#F79A74"/>
<path d="M602.06 480.339C602.06 480.339 595.043 488.319 595.215 488.594C595.387 488.869 609.593 481.611 609.593 481.611L607.426 478.619L602.06 480.339Z" fill="#544DB8"/>
<path d="M541.868 382.277C541.868 382.277 525.702 435.04 551.361 485.876H558.962C558.962 485.876 543.76 428.367 562.78 381.795L541.868 382.277Z" fill="#FFC240"/>
<path d="M555.901 384.134C555.901 384.134 558.412 439.236 599.652 478.516L606.807 475.971C606.807 475.971 573.168 426.922 575.438 376.67L555.901 384.134Z" fill="#FFC240"/>
<path d="M548.506 259.966L548.541 256.699C548.541 256.561 548.506 256.423 548.472 256.286L547.853 253.947L545.995 254.428L544.104 252.674C543.312 251.952 542.04 252.193 541.558 253.156C540.974 254.394 540.32 255.976 540.114 257.215C540.045 257.696 540.182 258.178 540.526 258.556L543.416 261.72C543.828 262.168 544.482 262.339 545.067 262.168L547.371 261.48C548.025 261.273 548.506 260.654 548.506 259.966Z" fill="#F79A74"/>
<path d="M576.367 331.303C576.367 331.303 555.282 308.705 553.906 300.278C552.53 291.816 549.435 260.379 549.435 260.379L542.934 261.617C542.934 261.617 540.698 306.607 542.659 311.766C544.62 316.96 557.311 343.341 565.566 345.783C573.821 348.225 579.634 340.074 576.367 331.303Z" fill="#FF4F72"/>
<path d="M547.096 294.052C547.096 294.052 542.349 309.874 545.342 313.864C548.369 317.854 559.444 314.242 563.743 307.845C568.043 301.482 568.903 287.104 561.577 285.9C554.285 284.697 548.816 287.655 547.096 294.052Z" fill="#F79A74"/>
<path d="M575.61 386.542C575.61 386.542 579.875 340.933 579.875 328.551C579.875 328.001 579.875 327.45 579.841 326.934C576.676 318.886 568.765 319.058 565.601 319.677C562.436 320.296 550.088 324.286 550.157 324.733L550.123 324.699C545.858 327.794 542.625 331.44 542.315 332.335C542.315 332.335 530.896 356.102 540.905 384.616L575.61 386.542Z" fill="#FF4F72"/>
<path d="M515.211 262.305L514.661 259.106C514.627 258.969 514.592 258.831 514.523 258.694L513.491 256.527L511.737 257.318L509.57 255.942C508.642 255.357 507.438 255.804 507.163 256.871C506.819 258.178 506.44 259.863 506.44 261.101C506.44 261.583 506.681 262.03 507.06 262.339L510.465 264.954C510.946 265.332 511.6 265.401 512.15 265.126L514.317 264.059C514.971 263.681 515.314 262.993 515.211 262.305Z" fill="#F79A74"/>
<path d="M555.179 327.622C555.179 327.622 530.483 309.083 527.628 301C524.773 292.917 516.209 262.511 516.209 262.511L510.017 264.885C510.017 264.885 515.727 309.565 518.582 314.311C521.437 319.058 538.531 342.825 547.096 343.788C555.66 344.717 559.925 335.705 555.179 327.622Z" fill="#FF4F72"/>
<path d="M564.672 285.797C564.672 285.797 552.015 280.397 545.995 291.507C542.831 298.489 552.978 291.816 554.869 294.052C556.761 296.253 552.324 300.69 553.597 302.273C554.869 303.855 557.071 299.418 558.343 301.963C559.616 304.508 556.452 304.818 554.216 307.673C552.015 310.528 556.108 314.655 552.943 317.166C549.779 319.711 540.905 321.603 546.305 335.224C551.705 348.844 537.431 352.318 543.45 371.029C549.469 389.706 590.331 400.163 597.933 378.012C605.534 355.827 580.185 350.461 581.767 340.624C583.349 330.787 589.059 328.276 581.457 318.439C573.856 308.601 569.109 302.926 571.311 296.563C573.546 290.234 567.527 285.797 564.672 285.797Z" fill="#544DB8"/>
<path d="M599.24 209.198C584.209 209.198 571.998 221.409 571.998 236.44C571.998 251.47 584.209 263.681 599.24 263.681C614.271 263.681 626.481 251.47 626.481 236.44C626.481 221.409 614.271 209.198 599.24 209.198ZM585.481 234.342C585.481 232.519 586.96 231.005 588.818 231.005C590.641 231.005 592.154 232.484 592.154 234.342C592.154 236.164 590.675 237.678 588.818 237.678C586.96 237.643 585.481 236.164 585.481 234.342ZM599.24 251.299C594.837 251.299 591.226 248.031 590.675 243.8H607.839C607.254 248.065 603.608 251.299 599.24 251.299ZM609.696 237.643C607.873 237.643 606.36 236.164 606.36 234.307C606.36 232.484 607.839 230.971 609.696 230.971C611.519 230.971 613.032 232.45 613.032 234.307C612.998 236.164 611.519 237.643 609.696 237.643Z" fill="#FEC800"/>
<path d="M194.575 430.19L192.959 427.026L236.16 405.425L290.642 406.319L349.803 384.031H394.964L443.221 367.968L443.6 368.003L482.295 372.405L504.101 361.055L505.752 364.219L482.983 376.051L482.432 375.982L443.6 371.58L395.274 387.608H350.112L291.261 409.897H290.918L236.985 409.002L194.575 430.19Z" fill="#F9FBFC"/>
<path d="M353.07 344.648C353.07 344.648 395.859 413.955 390.527 462.178L419.66 462.797L407.175 455.574L410.752 454.955C410.752 454.955 400.055 380.213 389.943 353.694C379.349 325.903 376.287 336.221 376.287 336.221L353.07 344.648Z" fill="#544DB8"/>
<path d="M337.627 340.349C337.627 340.349 340 388.503 336.423 406.904C332.846 425.34 322.149 461.593 322.149 461.593L349.493 462.178L342.305 457.122L337.764 454.473C337.764 454.473 357.232 402.158 359.021 377.186C360.809 352.215 363.767 337.941 363.767 337.941L337.627 340.349Z" fill="#544DB8"/>
<path d="M393.554 197.848L398.025 194.718L400.02 187.357L397.785 186.91L396.443 189.593L397.785 176.901L395.549 177.348L393.348 189.593L390.665 195.406L393.107 196.953" fill="#F7D3A9"/>
<path d="M419.935 211.056L420.52 205.724L427.055 199.189L428.569 201.253L426.161 203.936L438.647 200.978V203.626L427.055 208.098L424.682 212.259L419.935 211.056Z" fill="#F7D3A9"/>
<path d="M390.458 193.342C390.458 193.342 339.691 254.944 333.774 267.258C333.774 267.258 331.298 271.695 331.298 284.49C331.298 297.32 335.735 344.614 335.735 344.614L387.466 347.572C387.466 347.572 370.715 289.925 370.234 288.446C369.752 286.967 361.36 278.093 353.483 276.132L396.856 197.779L390.458 193.342Z" fill="#6DB8FF"/>
<path d="M358.333 270.182C358.333 270.182 360.5 276.579 361.669 280.432C361.669 280.432 351.11 280.225 347.395 275.307L351.351 265.848L358.333 270.182Z" fill="#F7D3A9"/>
<path d="M366.347 250.198C366.347 250.198 369.477 268.393 366.347 272.521C363.217 276.648 352.52 269.631 348.049 263.027C343.577 256.423 342.683 241.53 350.284 240.292C357.886 239.019 364.559 243.559 366.347 250.198Z" fill="#F7D3A9"/>
<path d="M361.566 283.871C361.566 283.871 402.256 258.281 405.558 253.018C408.826 247.756 418.044 208.717 418.044 208.717L425.92 210.677C425.92 210.677 421.311 254.325 420.004 258.934C418.697 263.543 378.661 306.194 369.477 306.194C360.225 306.194 356.957 294.362 361.566 283.871Z" fill="#6DB8FF"/>
<path d="M363.458 246.139C363.458 246.139 365.522 239.019 361.085 235.442C356.613 231.865 348.908 232.484 347.705 233.654C347.705 235.717 352.451 236.921 351.282 238.125C350.078 239.329 343.852 238.125 342.373 244.351C340.894 250.576 342.958 251.78 342.958 251.78C342.958 251.78 339.69 255.632 343.543 260.998C347.395 266.364 356.132 270.766 358.298 270.182C360.465 269.597 359.296 261.273 359.296 261.273C359.296 261.273 354.24 260.688 353.93 257.421C353.621 254.153 356.304 253.844 357.507 255.048C358.711 256.251 358.986 258.9 359.881 258.315C360.775 257.73 359.571 251.47 359.571 251.47C359.571 251.47 362.873 248.822 363.458 246.139Z" fill="#544DB8"/>
<path d="M180.817 380.137L163.508 391.161C158.758 394.187 156.703 400.66 158.944 405.529L165.908 416.618C168.149 421.487 173.881 422.995 178.631 419.968L183.81 416.67L190.093 420.609L190.72 412.256L195.899 408.957C200.65 405.931 202.705 399.458 200.464 394.589L193.5 383.5C191.3 378.618 185.568 377.11 180.817 380.137Z" fill="#9570EE"/>
<path d="M174.644 403.227C175.119 404.188 174.613 405.566 173.525 406.298C172.437 407.03 171.167 406.837 170.692 405.876C170.217 404.914 170.722 403.537 171.811 402.805C172.899 402.072 174.169 402.265 174.644 403.227Z" fill="white"/>
<path d="M182.413 398.725C182.887 399.686 182.382 401.064 181.294 401.796C180.205 402.528 178.936 402.335 178.461 401.374C177.986 400.412 178.491 399.035 179.58 398.303C180.668 397.57 181.938 397.763 182.413 398.725Z" fill="white"/>
<path d="M190.163 394.226C190.637 395.187 190.132 396.565 189.044 397.297C187.955 398.029 186.686 397.836 186.211 396.875C185.736 395.913 186.241 394.536 187.33 393.803C188.418 393.071 189.688 393.264 190.163 394.226Z" fill="white"/>
<path d="M236.263 411.96C239.378 411.96 241.904 409.435 241.904 406.319C241.904 403.204 239.378 400.678 236.263 400.678C233.148 400.678 230.622 403.204 230.622 406.319C230.622 409.435 233.148 411.96 236.263 411.96Z" fill="#FFC240"/>
<path d="M194.641 433.282C197.756 433.282 200.282 430.756 200.282 427.641C200.282 424.526 197.756 422 194.641 422C191.526 422 189 424.526 189 427.641C189 430.756 191.526 433.282 194.641 433.282Z" fill="#FFC240"/>
<path d="M443.703 375.707C446.818 375.707 449.344 373.182 449.344 370.066C449.344 366.951 446.818 364.426 443.703 364.426C440.588 364.426 438.062 366.951 438.062 370.066C438.062 373.182 440.588 375.707 443.703 375.707Z" fill="#FF4F72"/>
<path d="M504.641 369.282C507.756 369.282 510.282 366.756 510.282 363.641C510.282 360.526 507.756 358 504.641 358C501.526 358 499 360.526 499 363.641C499 366.756 501.526 369.282 504.641 369.282Z" fill="#FF4F72"/>
<path d="M113.468 355.346C113.167 355.082 112.714 354.969 112.338 355.007L95.2642 356.854H95.1889C94.4728 357.005 93.9451 357.608 93.9451 358.324V360.321H81.5076C80.6407 360.321 80 360.962 80 361.829V389.757C80 390.624 80.6407 391.264 81.5076 391.264H87.9902H90.6284H100.955H110.378H112.488C113.355 391.264 113.996 390.624 113.996 389.757V356.515C114.034 356.062 113.807 355.648 113.468 355.346Z" fill="#9F63C5"/>
<path d="M113.468 355.346C113.167 355.082 112.714 354.969 112.338 355.007L95.2642 356.854H95.1889C94.4728 357.005 93.9451 357.608 93.9451 358.324V360.321H81.5076C80.6407 360.321 80 360.962 80 361.829V389.757C80 390.624 80.6407 391.264 81.5076 391.264H87.9902H90.6284H100.955H110.378H112.488C113.355 391.264 113.996 390.624 113.996 389.757V356.515C114.034 356.062 113.807 355.648 113.468 355.346ZM87.9902 389.191H82.0352V362.394H93.9074V367.332H90.0631C89.1962 367.332 88.5555 367.972 88.5555 368.839V389.154H87.9902V389.191ZM97.6387 389.191V385.573C97.6387 385.159 97.2995 384.819 96.8849 384.819H94.4728C94.0582 384.819 93.719 385.159 93.719 385.573V389.191H90.6284V369.442L94.9627 369.404L100.955 369.367V389.154H97.6387V389.191ZM111.961 389.191H110.415H103.028V368.839C103.028 367.972 102.388 367.332 101.521 367.332L95.9803 367.369V360.321V358.851L111.923 357.155V389.191H111.961Z" fill="#4B2048"/>
<path d="M106.458 363.223H107.287C107.476 363.223 107.551 363.148 107.551 362.96V362.13C107.551 361.98 107.476 361.867 107.287 361.867H106.458C106.27 361.867 106.194 361.942 106.194 362.13V362.96C106.156 363.073 106.307 363.223 106.458 363.223Z" fill="white"/>
<path d="M106.458 377.131H107.287C107.476 377.131 107.551 377.055 107.551 376.867V376.038C107.551 375.887 107.476 375.774 107.287 375.774H106.458C106.27 375.774 106.194 375.849 106.194 376.038V376.867C106.156 377.018 106.307 377.131 106.458 377.131Z" fill="white"/>
<path d="M106.458 384.066H107.287C107.476 384.066 107.551 383.99 107.551 383.802V382.935C107.551 382.784 107.476 382.671 107.287 382.671H106.458C106.27 382.671 106.194 382.747 106.194 382.935V383.764C106.156 383.953 106.307 384.066 106.458 384.066Z" fill="white"/>
<path d="M85.8795 366.766H85.0504C84.8619 366.766 84.7866 366.842 84.7866 367.03V367.859C84.7866 368.048 84.9373 368.123 85.0504 368.123H85.8795C86.068 368.123 86.1434 368.048 86.1434 367.859V367.03C86.1811 366.879 86.068 366.766 85.8795 366.766Z" fill="white"/>
<path d="M85.8795 375.284H85.0504C84.8619 375.284 84.7866 375.359 84.7866 375.548V376.377C84.7866 376.565 84.9373 376.641 85.0504 376.641H85.8795C86.068 376.641 86.1434 376.565 86.1434 376.377V375.548C86.1811 375.397 86.068 375.284 85.8795 375.284Z" fill="white"/>
<path d="M85.8795 383.802H85.0504C84.8619 383.802 84.7866 383.877 84.7866 384.066V384.895C84.7866 385.083 84.9373 385.159 85.0504 385.159H85.8795C86.068 385.159 86.1434 385.083 86.1434 384.895V384.066C86.1811 383.877 86.068 383.802 85.8795 383.802Z" fill="white"/>
<path d="M94.2843 373.324H93.4551C93.2667 373.324 93.1913 373.4 93.1913 373.588V374.417C93.1913 374.568 93.2667 374.681 93.4551 374.681H94.2843C94.4728 374.681 94.5481 374.606 94.5481 374.417V373.588C94.5858 373.475 94.4728 373.324 94.2843 373.324Z" fill="white"/>
<path d="M97.9779 373.324H97.1487C96.9603 373.324 96.8849 373.4 96.8849 373.588V374.417C96.8849 374.568 96.9603 374.681 97.1487 374.681H97.9779C98.1663 374.681 98.2417 374.606 98.2417 374.417V373.588C98.2417 373.475 98.1663 373.324 97.9779 373.324Z" fill="white"/>
<path d="M106.458 370.196H107.287C107.476 370.196 107.551 370.121 107.551 369.932V369.103C107.551 368.952 107.476 368.839 107.287 368.839H106.458C106.27 368.839 106.194 368.914 106.194 369.103V369.932C106.156 370.083 106.307 370.196 106.458 370.196Z" fill="white"/>
<path d="M94.2843 379.43H93.4551C93.2667 379.43 93.1913 379.505 93.1913 379.694V380.523C93.1913 380.674 93.2667 380.787 93.4551 380.787H94.2843C94.4728 380.787 94.5481 380.711 94.5481 380.523V379.694C94.5858 379.581 94.4728 379.43 94.2843 379.43Z" fill="white"/>
<path d="M97.9779 379.43H97.1487C96.9603 379.43 96.8849 379.505 96.8849 379.694V380.523C96.8849 380.674 96.9603 380.787 97.1487 380.787H97.9779C98.1663 380.787 98.2417 380.711 98.2417 380.523V379.694C98.2417 379.581 98.1663 379.43 97.9779 379.43Z" fill="white"/>
<path d="M99.6739 363.223H100.503C100.692 363.223 100.767 363.148 100.767 362.96V362.13C100.767 361.98 100.692 361.867 100.503 361.867H99.6739C99.4855 361.867 99.4101 361.942 99.4101 362.13V362.96C99.3724 363.073 99.5232 363.223 99.6739 363.223Z" fill="white"/>
<path d="M105.441 226.5C105.674 226.5 105.946 226.423 106.179 226.306C106.84 225.956 107.112 225.218 106.879 224.479L101.67 208.969H106.723C107.229 208.969 107.695 208.697 108.006 208.309C108.317 207.92 108.317 207.337 108.123 206.87L101.32 190.933C101.087 190.389 100.543 190 99.9209 190H87.5208C87.0155 190 86.5102 190.272 86.2381 190.7C85.966 191.127 85.9271 191.671 86.1215 192.138L89.7365 200.223H87.7541C87.171 200.223 86.6657 200.534 86.3936 201.078C86.1215 201.584 86.1992 202.206 86.5491 202.672L104.275 225.917C104.585 226.306 105.013 226.5 105.441 226.5Z" fill="#15A0DB"/>
<path d="M105.441 226.5C105.674 226.5 105.946 226.423 106.179 226.306C106.84 225.956 107.112 225.218 106.879 224.479L101.67 208.969H106.723C107.229 208.969 107.695 208.697 108.006 208.309C108.317 207.92 108.317 207.337 108.123 206.87L101.32 190.933C101.087 190.389 100.543 190 99.9209 190H87.5208C87.0155 190 86.5102 190.272 86.2381 190.7C85.966 191.127 85.9271 191.671 86.1215 192.138L89.7365 200.223H87.7541C87.171 200.223 86.6657 200.534 86.3936 201.078C86.1215 201.584 86.1992 202.206 86.5491 202.672L104.275 225.917C104.585 226.306 105.013 226.5 105.441 226.5ZM105.791 206.87H98.7159L103.653 221.603L88.998 202.361H93.0406L88.4538 192.177H99.5322L105.791 206.87Z" fill="#032E61"/>
<defs>
<linearGradient id="paint0_linear" x1="51.0141" y1="132.382" x2="513.805" y2="434.464" gradientUnits="userSpaceOnUse">
<stop stop-color="#009EDB"/>
<stop offset="1" stop-color="#2F3542"/>
</linearGradient>
</defs>
</svg>
