<svg width="171" height="43" viewBox="0 0 171 43" fill="none" xmlns="http://www.w3.org/2000/svg">
<path fill-rule="evenodd" clip-rule="evenodd" d="M21.345 42.0022C32.9433 42.0022 42.3422 32.5993 42.3422 21.0011C42.3422 9.40283 32.9433 0 21.345 0C9.74677 0 0.343933 9.40283 0.343933 21.0011C0.343933 32.5993 9.74677 42.0022 21.345 42.0022ZM9.71207 19.8974C9.73908 27.807 15.7427 32.7306 21.511 32.711L21.5108 32.7109C28.6334 32.6878 32.8467 26.8385 32.8313 21.4985C32.812 16.1624 29.9105 12.304 23.5172 10.7452C23.5018 10.6796 23.4903 10.5368 23.4903 10.4019C23.4787 6.36986 26.5191 2.81247 30.3389 2.0215C29.9801 1.89803 29.3897 1.85181 28.8264 1.85181C24.4587 1.86723 19.6397 3.73856 16.1208 6.64777C12.5171 9.63414 9.69275 14.6693 9.71207 19.8974Z" fill="#EF2D1E"/>
<path d="M55.9045 29.698L49.4841 14.3765H53.6782L57.6832 24.551L61.5647 14.3765H65.5697L59.3384 29.698H55.9045Z" fill="#EF2D1E"/>
<path d="M76.7434 21.9581C76.7434 21.3215 76.6701 20.7157 76.5196 20.1408C76.373 19.566 76.1492 19.0721 75.8521 18.6592C75.555 18.2425 75.1962 17.9145 74.7717 17.6715C74.3473 17.4245 73.8496 17.3011 73.2786 17.3011C72.7075 17.3011 72.2059 17.4246 71.7854 17.6715C71.361 17.9145 70.9983 18.2425 70.705 18.6592C70.4079 19.0721 70.1842 19.566 70.0375 20.1408C69.8871 20.7157 69.8137 21.3215 69.8137 21.9581C69.8137 22.6179 69.887 23.2314 70.0375 23.7947C70.1842 24.358 70.4002 24.8519 70.6857 25.2763C70.9713 25.7008 71.3339 26.0364 71.7699 26.2833C72.2021 26.5264 72.7075 26.6499 73.2786 26.6499C73.8496 26.6499 74.3473 26.5264 74.7717 26.2833C75.1962 26.0364 75.555 25.7008 75.8521 25.2763C76.1492 24.8519 76.373 24.358 76.5196 23.7947C76.6701 23.2314 76.7434 22.6179 76.7434 21.9581ZM80.621 21.9749C80.621 22.9742 80.4667 23.9543 80.1619 24.9189C79.8532 25.8834 79.3979 26.7438 78.7922 27.5078C78.1903 28.2718 77.4263 28.8853 76.5042 29.3521C75.582 29.819 74.5055 30.0505 73.2786 30.0505C72.0478 30.0505 70.9713 29.8189 70.053 29.3521C69.1308 28.8853 68.3669 28.2718 67.7611 27.5078C67.1592 26.7438 66.7039 25.8834 66.3952 24.9189C66.0904 23.9543 65.9361 22.9742 65.9361 21.9749C65.9361 20.9795 66.0904 20.0072 66.3952 19.0503C66.7039 18.0973 67.1592 17.2446 67.7611 16.4922C68.3669 15.7398 69.1308 15.1379 70.053 14.6826C70.9713 14.2273 72.0478 13.9958 73.2786 13.9958C74.5055 13.9958 75.5782 14.2274 76.4887 14.6826C77.3993 15.1379 78.1633 15.7398 78.7767 16.4922C79.3941 17.2446 79.8532 18.0973 80.1619 19.0503C80.4667 20.0072 80.621 20.9795 80.621 21.9749Z" fill="#EF2D1E"/>
<path d="M92.4624 17.7485C91.7023 17.4514 90.9962 17.3009 90.3403 17.3009C89.669 17.3009 89.0864 17.4322 88.6041 17.6867C88.1179 17.9412 87.7166 18.2847 87.4003 18.7207C87.0839 19.1567 86.8485 19.6468 86.6903 20.1908C86.5321 20.731 86.4511 21.2905 86.4511 21.8653C86.4511 22.502 86.5205 23.1116 86.6595 23.698C86.7945 24.2807 87.0067 24.7938 87.2922 25.2298C87.5739 25.6658 87.9327 26.0169 88.3649 26.2831C88.797 26.5455 89.3102 26.6806 89.9005 26.6806C90.3866 26.6806 90.8805 26.5456 91.3859 26.2831C91.8914 26.0169 92.2502 25.7005 92.4624 25.3417L92.4624 17.7485ZM92.7788 29.6978L92.6206 28.5249C92.2618 28.9261 91.7872 29.2811 91.193 29.5859C90.6027 29.8946 89.9043 30.0489 89.1018 30.0489C88.0485 30.0489 87.1147 29.8252 86.3161 29.3814C85.5097 28.9377 84.8344 28.3435 84.2866 27.6027C83.7387 26.8619 83.3181 26.0015 83.0326 25.0253C82.7509 24.053 82.6082 23.0344 82.6082 21.9734C82.6082 20.9779 82.7548 20.0017 83.048 19.0487C83.3451 18.0957 83.7927 17.243 84.3946 16.4906C85.0004 15.7383 85.7527 15.1364 86.6633 14.6811C87.57 14.2258 88.6388 13.9943 89.8619 13.9943C90.6644 13.9943 91.5326 14.1446 92.4624 14.438V8.49609H96.4018V29.6978H92.7788Z" fill="#EF2D1E"/>
<path d="M107.498 22.5137C107.074 22.5361 106.634 22.5755 106.187 22.6256C105.739 22.6797 105.315 22.7491 104.91 22.834C104.053 23.0036 103.463 23.2931 103.131 23.706C102.803 24.1227 102.637 24.5702 102.637 25.0603C102.637 25.5657 102.822 25.9747 103.196 26.2834C103.571 26.5882 104.095 26.7425 104.778 26.7425C105.291 26.7425 105.789 26.6383 106.268 26.4261C106.746 26.2139 107.159 25.9477 107.498 25.6313V22.5137ZM107.815 29.6864L107.661 28.5404C107.232 29.0111 106.692 29.3816 106.032 29.6478C105.373 29.9141 104.651 30.0491 103.864 30.0491C103.204 30.0491 102.567 29.937 101.966 29.7134C101.356 29.4936 100.82 29.1732 100.353 28.7604C99.8859 28.3475 99.5078 27.8421 99.2223 27.2363C98.9329 26.6305 98.7902 25.9476 98.7902 25.1837C98.7902 24.4236 98.9368 23.7484 99.2377 23.1657C99.5348 22.5831 99.9361 22.0931 100.449 21.688C100.959 21.2867 101.545 20.9588 102.205 20.7041C102.861 20.4496 103.555 20.2565 104.277 20.1292C104.786 20.025 105.346 19.9477 105.951 19.8937C106.557 19.8397 107.062 19.7935 107.468 19.7509V19.5272C107.468 18.6784 107.252 18.0764 106.812 17.7138C106.376 17.3549 105.774 17.1736 105.01 17.1736C104.562 17.1736 104.134 17.2276 103.729 17.3357C103.324 17.4399 102.965 17.5712 102.645 17.7293C102.324 17.8914 102.043 18.0495 101.796 18.2077C101.553 18.3659 101.356 18.5086 101.205 18.636L99.9014 15.8734C100.071 15.723 100.33 15.5454 100.681 15.3332C101.032 15.121 101.452 14.9126 101.954 14.712C102.452 14.5113 103.011 14.3416 103.636 14.2027C104.261 14.0638 104.937 13.9944 105.654 13.9944C106.503 13.9944 107.279 14.1064 107.977 14.3301C108.675 14.5538 109.281 14.9011 109.79 15.3796C110.296 15.8541 110.693 16.4561 110.983 17.1891C111.268 17.9184 111.411 18.8019 111.411 19.8398V29.6864H107.815Z" fill="#EF2D1E"/>
<path d="M123.588 11.9919C123.461 11.9303 123.214 11.8376 122.843 11.7217C122.469 11.606 121.979 11.5481 121.362 11.5481C120.814 11.5481 120.351 11.7141 119.98 12.042C119.61 12.3699 119.425 12.9062 119.425 13.647V14.3763H122.731V17.5555H119.456V29.6978H115.512V17.5555H113.479V14.3763H115.512V13.5506C115.512 12.5551 115.64 11.714 115.894 11.0234C116.149 10.3366 116.504 9.77324 116.959 9.3411C117.414 8.9051 117.951 8.58488 118.564 8.38424C119.182 8.18348 119.849 8.08325 120.571 8.08325C121.524 8.08325 122.311 8.172 122.936 8.35343C123.561 8.53487 123.927 8.65439 124.032 8.72L123.588 11.9919Z" fill="#EF2D1E"/>
<path d="M134.333 21.9581C134.333 21.3215 134.256 20.7157 134.11 20.1408C133.963 19.566 133.739 19.0721 133.442 18.6592C133.145 18.2425 132.786 17.9145 132.362 17.6715C131.937 17.4245 131.44 17.3011 130.869 17.3011C130.297 17.3011 129.796 17.4246 129.375 17.6715C128.951 17.9145 128.588 18.2425 128.291 18.6592C127.998 19.0721 127.774 19.566 127.624 20.1408C127.477 20.7157 127.404 21.3215 127.404 21.9581C127.404 22.6179 127.477 23.2314 127.624 23.7947C127.774 24.358 127.99 24.8519 128.276 25.2763C128.561 25.7008 128.924 26.0364 129.356 26.2833C129.792 26.5264 130.297 26.6499 130.869 26.6499C131.44 26.6499 131.937 26.5264 132.362 26.2833C132.786 26.0364 133.145 25.7008 133.442 25.2763C133.739 24.8519 133.963 24.358 134.11 23.7947C134.256 23.2314 134.333 22.6179 134.333 21.9581ZM138.211 21.9749C138.211 22.9742 138.057 23.9543 137.748 24.9189C137.443 25.8834 136.988 26.7438 136.382 27.5078C135.78 28.2718 135.016 28.8853 134.094 29.3521C133.172 29.819 132.095 30.0505 130.869 30.0505C129.638 30.0505 128.561 29.8189 127.643 29.3521C126.721 28.8853 125.957 28.2718 125.351 27.5078C124.749 26.7438 124.294 25.8834 123.985 24.9189C123.677 23.9543 123.526 22.9742 123.526 21.9749C123.526 20.9795 123.677 20.0072 123.985 19.0503C124.294 18.0973 124.749 17.2446 125.351 16.4922C125.957 15.7398 126.721 15.1379 127.643 14.6826C128.561 14.2273 129.638 13.9958 130.869 13.9958C132.095 13.9958 133.168 14.2274 134.079 14.6826C134.989 15.1379 135.753 15.7398 136.367 16.4922C136.984 17.2446 137.443 18.0973 137.748 19.0503C138.057 20.0072 138.211 20.9795 138.211 21.9749Z" fill="#EF2D1E"/>
<path d="M150.446 29.6979V20.9588C150.446 19.7935 150.203 18.8907 149.717 18.2541C149.227 17.6213 148.551 17.301 147.679 17.301C147.066 17.301 146.499 17.4592 145.982 17.7795C145.461 18.0958 145.009 18.447 144.628 18.8289V29.6979H140.688V14.3764H144.28L144.469 15.5841C145.087 15.0786 145.777 14.6851 146.553 14.4111C147.324 14.1334 148.104 13.9983 148.887 13.9983C149.694 13.9983 150.434 14.1179 151.113 14.361C151.792 14.6079 152.375 14.9937 152.861 15.5223C153.351 16.0509 153.726 16.7416 153.992 17.5866C154.254 18.4354 154.389 19.454 154.389 20.6385V29.6979H150.446Z" fill="#EF2D1E"/>
<path d="M166.651 20.1949C166.609 19.6662 166.497 19.2032 166.315 18.8135C166.134 18.42 165.91 18.1036 165.644 17.8605C165.378 17.6136 165.092 17.4361 164.784 17.3165C164.471 17.2008 164.159 17.1429 163.838 17.1429C163.155 17.1429 162.507 17.3974 161.89 17.9069C161.273 18.4162 160.91 19.1762 160.802 20.1949H166.651ZM160.709 23.023C160.794 24.3155 161.195 25.2493 161.921 25.8203C162.642 26.3914 163.58 26.6807 164.726 26.6807C165.258 26.6807 165.76 26.6306 166.227 26.538C166.694 26.4416 167.11 26.3218 167.473 26.1714C167.836 26.0247 168.144 25.8743 168.399 25.7277C168.654 25.5774 168.843 25.4383 168.974 25.311L170.023 28.525C169.873 28.6292 169.634 28.772 169.306 28.9533C168.978 29.1347 168.569 29.3006 168.083 29.4626C167.596 29.6208 167.021 29.7559 166.366 29.8754C165.71 29.9911 164.988 30.049 164.205 30.049C163.206 30.049 162.26 29.8908 161.357 29.5745C160.458 29.2542 159.667 28.7604 158.992 28.0929C158.313 27.4254 157.773 26.5958 157.372 25.6004C156.967 24.6049 156.766 23.4165 156.766 22.0391C156.766 20.7465 156.951 19.6006 157.322 18.6051C157.692 17.6097 158.201 16.7724 158.846 16.0933C159.494 15.4181 160.246 14.8972 161.103 14.5345C161.963 14.1757 162.878 13.9944 163.854 13.9944C164.83 13.9944 165.729 14.1565 166.558 14.4728C167.384 14.7892 168.098 15.2831 168.704 15.9506C169.306 16.6181 169.784 17.4823 170.131 18.5434C170.482 19.6006 170.656 20.8623 170.656 22.3246V23.023L160.709 23.023Z" fill="#EF2D1E"/>
</svg>
