<svg width="450" height="150" viewBox="0 0 450 150" fill="none" xmlns="http://www.w3.org/2000/svg">
<mask id="mask0" mask-type="alpha" maskUnits="userSpaceOnUse" x="0" y="0" width="450" height="150">
<path d="M-6.10352e-05 2C-6.10352e-05 0.895429 0.89537 0 1.99994 0H448C449.105 0 450 0.895431 450 2V150H-6.10352e-05V2Z" fill="white"/>
</mask>
<g mask="url(#mask0)">
<path d="M3.05176e-05 -115L2.20956e-05 77.6718C50.8122 120.023 123.081 146.514 203.249 146.514C310.296 146.514 403.314 99.2831 450 30.0049L450 -115L3.05176e-05 -115Z" fill="#9B59B6"/>
<path d="M184.504 41.3334C184.504 55.7235 200.286 67.389 219.754 67.389C239.222 67.389 255.004 55.7235 255.004 41.3334C255.004 26.9433 239.222 15.2778 219.754 15.2778C200.286 15.2778 184.504 26.9433 184.504 41.3334Z" fill="#F3FEFF"/>
<path opacity="0.3" d="M253.825 104.773C253.825 129.751 281.219 150 315.012 150C348.804 150 376.199 129.751 376.199 104.773C376.199 79.795 348.804 59.5463 315.012 59.5463C281.219 59.5463 253.825 79.795 253.825 104.773Z" fill="#F3FEFF"/>
<path opacity="0.48" d="M336.233 20.4192C336.233 34.8093 352.015 46.4748 371.483 46.4748C390.951 46.4748 406.733 34.8093 406.733 20.4192C406.733 6.02912 390.951 -5.63635 371.483 -5.63635C352.015 -5.63635 336.233 6.02912 336.233 20.4192Z" fill="#F3FEFF"/>
<path opacity="0.73" d="M-13.3461 49.1854C-5.2529 56.1011 8.89262 56.858 18.2489 50.8758C27.6051 44.8937 28.629 34.4379 20.5359 27.5221C12.4427 20.6063 -1.7028 19.8495 -11.059 25.8316C-20.4153 31.8138 -21.4392 42.2696 -13.3461 49.1854Z" fill="#F3FEFF"/>
</g>
<path d="M67.6674 95.0767H64.7516V92.1609H62.9157V95.0767H59.9999V96.9125H62.9157V99.8283H64.7516V96.9125H67.6674V95.0767Z" fill="#30C5CC"/>
<path d="M94.9615 112.755C94.9615 113.727 94.1516 114.537 93.1796 114.537C92.2077 114.537 91.3978 113.727 91.3978 112.755C91.3978 111.783 92.2077 110.973 93.1796 110.973C94.1516 110.919 94.9615 111.729 94.9615 112.755Z" fill="#3D9CFF"/>
<path d="M245.557 136.081H108.299C102.791 136.081 98.3093 131.599 98.3093 126.092V19.9893C98.3093 14.4817 102.791 10 108.299 10H245.557C251.064 10 255.546 14.4817 255.546 19.9893V126.092C255.546 131.599 251.064 136.081 245.557 136.081Z" fill="#30C5CC"/>
<path d="M109.54 131.599C105.977 131.599 103.061 128.683 103.061 125.12V21.0152C103.061 17.4514 105.977 14.5356 109.54 14.5356H244.315C247.878 14.5356 250.794 17.4514 250.794 21.0152V125.12C250.794 128.683 247.878 131.599 244.315 131.599H109.54Z" fill="#0B9B9B"/>
<path d="M242.749 128.197H111.106C108.784 128.197 106.895 126.307 106.895 123.986V22.095C106.895 19.7732 108.784 17.8833 111.106 17.8833H242.749C245.07 17.8833 246.96 19.7732 246.96 22.095V124.04C246.906 126.361 245.07 128.197 242.749 128.197Z" fill="#C6F4FF"/>
<path d="M88.8599 127.981C91.9917 133.165 97.7153 136.675 104.249 136.675H249.66C256.14 136.675 261.863 133.165 265.049 127.981H88.8599Z" fill="#0B9B9B"/>
<path d="M90.7498 130.519H263.105C263.807 129.709 264.455 128.899 264.995 127.981H88.8599C89.3999 128.899 90.0478 129.709 90.7498 130.519Z" fill="#30C5CC"/>
<path d="M157.057 83.4888H117.91V105.411H157.057V83.4888Z" fill="#DB5A28"/>
<path d="M170.988 27.3867H156.247V29.4386H170.988V27.3867Z" fill="#30C5CC"/>
<path d="M146.15 27.3867H137.186V29.4386H146.15V27.3867Z" fill="#30C5CC"/>
<path d="M134.487 27.3867H116.668V29.4386H134.487V27.3867Z" fill="#30C5CC"/>
<path d="M152.899 27.3867H149.012V29.4386H152.899V27.3867Z" fill="#30C5CC"/>
<path d="M183.677 27.3867H174.714V29.4386H183.677V27.3867Z" fill="#30C5CC"/>
<path d="M161.755 33.3262H156.247V35.378H161.755V33.3262Z" fill="#30C5CC"/>
<path d="M169.476 33.3262H163.968V35.378H169.476V33.3262Z" fill="#30C5CC"/>
<path d="M136.97 33.3262H128.007V35.378H136.97V33.3262Z" fill="#30C5CC"/>
<path d="M125.469 33.3262H116.668V35.378H125.469V33.3262Z" fill="#30C5CC"/>
<path d="M154.303 33.3262H139.508V35.378H154.303V33.3262Z" fill="#30C5CC"/>
<path d="M118.706 146C117.788 143.03 115.952 130.395 115.574 125.427C115.466 124.401 103.965 119.866 103.965 119.866C97.2156 119.704 93.7598 122.349 93.7598 122.349L109.959 127.803C109.959 135.092 116.168 146.108 116.168 146.108L118.706 146Z" fill="#2F2F8E"/>
<path d="M104.829 129.261L100.023 146L102.777 146.594C103.965 142.652 110.877 129.099 111.093 127.479C111.147 126.777 111.147 126.237 110.877 126.075C110.607 125.859 102.885 121.216 100.617 120.73C97.5935 120.028 93.1119 118.948 93.1119 118.948C93.1119 118.948 90.574 121.594 91.06 125.913C91.492 130.179 104.829 129.261 104.829 129.261Z" fill="#4C49A2"/>
<path d="M98.2954 99.779C98.2954 99.779 93.0038 100.265 92.7878 101.669C92.5719 103.127 95.3257 112.198 95.3257 112.198L92.6259 119.326C92.6259 119.326 100.239 121.215 103.911 119.812C104.289 119.974 104.883 112.306 104.883 112.306L106.179 108.526L107.853 114.196L111.686 119.596L114.224 117.544L111.416 112.63C111.416 112.63 107.097 102.749 105.963 101.615C103.803 99.563 98.2954 99.779 98.2954 99.779Z" fill="white"/>
<path d="M102.507 100.157L102.075 94.7573H98.1335V99.833C97.6475 99.8869 98.6734 103.937 101.859 103.937C101.859 103.937 103.317 103.397 102.507 100.157Z" fill="#E67750"/>
<path d="M94.4618 109.336C94.9477 110.956 95.2717 112.198 95.2717 112.198L92.5719 119.326C92.5719 119.326 98.3495 120.73 102.291 120.19C101.913 119.92 97.2696 116.788 97.0536 115.438C96.6216 112.576 94.4618 109.336 94.4618 109.336Z" fill="#EFEFEF"/>
<path d="M106.017 89.3036C105.693 87.8997 103.533 87.5218 100.077 87.8997C97.7555 88.1697 97.2156 90.3296 97.1616 91.8955C97.1076 91.8955 97.1076 91.8955 97.0536 91.8955C96.2436 92.1654 95.7037 92.9214 95.7037 93.7853C95.7037 94.2173 95.8657 94.5953 96.1896 94.9192C96.5136 95.4052 96.9996 95.7292 97.5935 95.8372C97.7555 95.8372 97.9175 95.8372 98.0795 95.8372C99.0514 97.835 100.833 100.373 103.317 100.049C106.989 97.511 106.017 89.3036 106.017 89.3036Z" fill="#FD9E71"/>
<path d="M98.1875 92.9214C98.1875 92.9214 97.4316 91.0856 99.1594 89.8437C100.887 88.5478 100.995 90.4376 102.777 90.7076C104.559 90.9776 106.341 90.8156 106.179 92.0035C107.259 89.3037 105.693 87.7918 103.911 86.9279C102.129 86.0639 99.3754 85.74 97.4856 87.3058C95.5957 88.9257 95.8117 92.7594 95.8117 92.7594C97.0536 92.1115 97.3776 92.5975 98.1875 92.9214Z" fill="#201251"/>
<path d="M97.4315 87.3058C97.4315 87.3058 95.8656 83.0401 92.8419 84.12C89.8181 85.1999 91.168 91.2475 90.844 93.8933C90.52 96.5391 88.6302 96.6471 87.9282 95.4592C86.6863 97.835 91.5999 100.265 93.2198 97.997C94.8397 95.6752 93.9218 89.8976 94.9477 89.3036C95.9736 88.7097 96.9995 89.4656 96.9995 89.4656L97.4315 87.3058Z" fill="#201251"/>
<path d="M92.9499 101.237C91.708 101.993 89.3322 110.686 89.3322 112.144C89.3322 113.602 100.563 120.729 100.563 120.729C100.563 120.729 101.103 118.947 102.291 118.623C102.075 118.515 93.9218 110.74 93.9218 110.74L96.0817 104.638C96.0277 104.584 96.0277 99.4548 92.9499 101.237Z" fill="white"/>
<path d="M99.6993 121.809L111.147 121.431L118.544 124.185L105.963 124.887L99.6993 121.809Z" fill="#30C5CC"/>
<path d="M105.963 124.887L99.6993 122.457V121.809L106.503 124.239L105.963 124.887Z" fill="#0B9B9B"/>
<path d="M105.963 124.887L109.743 114.574L122.27 115.222L118.544 124.455L105.963 124.887Z" fill="#0B9B9B"/>
<path d="M113.63 119.11C113.252 119.866 113.36 120.675 113.9 120.891C114.386 121.161 115.142 120.729 115.52 120.028C115.898 119.272 115.79 118.462 115.25 118.246C114.764 117.976 114.008 118.354 113.63 119.11Z" fill="#30C5CC"/>
<path d="M102.237 118.569C102.237 118.569 106.773 122.187 106.287 122.403C105.801 122.619 103.749 122.619 102.669 122.025C101.589 121.431 100.455 120.675 100.455 120.675C100.455 120.675 100.941 118.677 102.237 118.569Z" fill="#FD9E71"/>
<path d="M102.885 145.73C103.695 146.54 106.449 147.782 107.799 148.106C109.257 148.484 108.987 149.671 107.961 149.671C105.855 149.671 101.265 149.402 98.9434 149.402C98.5654 148.322 99.2134 146.864 99.9153 145.892C100.131 145.676 102.723 145.622 102.885 145.73Z" fill="#201251"/>
<path d="M119.246 145.73C120.056 146.54 122.81 147.782 124.16 148.106C125.617 148.484 125.348 149.671 124.322 149.671C122.216 149.671 117.626 149.402 115.304 149.402C114.926 148.322 115.574 146.864 116.276 145.892C116.492 145.676 119.138 145.622 119.246 145.73Z" fill="#201251"/>
<path d="M129.087 74.9573H118.126V77.9811H129.087V74.9573Z" fill="#31D0A8"/>
<path d="M157.057 74.9573H146.096V77.9811H157.057V74.9573Z" fill="#31D0A8"/>
<path d="M143.072 74.9573H132.111V77.9811H143.072V74.9573Z" fill="#31D0A8"/>
<path d="M198.497 38.7563L163.728 47.28L166.904 60.2329L201.672 51.7092L198.497 38.7563Z" fill="#FEBA40"/>
<path d="M191.63 42.2989L165.987 48.5857L166.424 50.3687L192.067 44.0819L191.63 42.2989Z" fill="#FEDB9B"/>
<path d="M188.189 46.544L166.793 51.7893L167.23 53.5723L188.626 48.327L188.189 46.544Z" fill="#FEDB9B"/>
<path d="M177.824 52.7749L167.65 55.269L168.088 57.052L178.261 54.5579L177.824 52.7749Z" fill="#FEDB9B"/>
<path d="M194.741 44.9808L189.287 46.3179L189.724 48.1009L195.178 46.7638L194.741 44.9808Z" fill="white"/>
<path d="M156.787 39.7517H117.748V71.6094H156.787V39.7517Z" fill="white"/>
<path d="M236.539 58.1104H159.703V72.4733H236.539V58.1104Z" fill="#4CB0DD"/>
<path d="M234.271 60.2163H213.483V70.4216H234.271V60.2163Z" fill="white"/>
<path d="M210.567 60.8103H162.511V62.7542H210.567V60.8103Z" fill="#75D5EF"/>
<path d="M210.567 64.3201H162.511V66.2639H210.567V64.3201Z" fill="#75D5EF"/>
<path d="M194.854 67.8298H162.511V69.7737H194.854V67.8298Z" fill="#75D5EF"/>
<path d="M233.569 82.7866H159.757V117.452H233.569V82.7866Z" fill="white"/>
<path d="M233.569 82.7866H159.757V88.5102H233.569V82.7866Z" fill="#FDBE44"/>
<path d="M204.196 96.6636H161.539V99.5794H204.196V96.6636Z" fill="#98DBE5"/>
<path d="M199.768 101.901H161.539V104.817H199.768V101.901Z" fill="#98DBE5"/>
<path d="M187.349 107.085H161.539V110.001H187.349V107.085Z" fill="#98DBE5"/>
<path d="M176.928 91.9121H161.539V94.8279H176.928V91.9121Z" fill="#98DBE5"/>
<path d="M230.6 91.75H208.299V114.05H230.6V91.75Z" fill="#86D2E8"/>
<path d="M221.744 102.765C222.068 102.279 222.284 101.685 222.284 101.091V99.3632C222.284 97.7974 220.988 96.5015 219.422 96.5015C217.856 96.5015 216.561 97.7974 216.561 99.3632V101.091C216.561 101.739 216.777 102.387 217.155 102.873C214.563 103.791 212.673 106.275 212.673 109.191H226.712C226.82 109.137 226.28 104.061 221.744 102.765Z" fill="#F6FFFA"/>
<path d="M163.536 87.2683C164.342 87.2683 164.994 86.6156 164.994 85.8104C164.994 85.0053 164.342 84.3525 163.536 84.3525C162.731 84.3525 162.079 85.0053 162.079 85.8104C162.079 86.6156 162.731 87.2683 163.536 87.2683Z" fill="#DB5A28"/>
<path d="M168.18 87.2683C168.985 87.2683 169.638 86.6156 169.638 85.8104C169.638 85.0053 168.985 84.3525 168.18 84.3525C167.375 84.3525 166.722 85.0053 166.722 85.8104C166.722 86.6156 167.375 87.2683 168.18 87.2683Z" fill="#FFE780"/>
<path d="M173.58 87.2683C174.385 87.2683 175.038 86.6156 175.038 85.8104C175.038 85.0053 174.385 84.3525 173.58 84.3525C172.775 84.3525 172.122 85.0053 172.122 85.8104C172.122 86.6156 172.775 87.2683 173.58 87.2683Z" fill="#1FB288"/>
<path d="M260.068 117.836L234.592 122.3L239.055 147.776L264.531 143.313L260.068 117.836Z" fill="#DB5A28"/>
<path d="M286.519 145.098C286.519 145.098 286.735 145.799 284.629 146.717C282.523 147.689 280.364 147.311 279.824 148.121C279.284 148.931 279.176 149.687 279.176 149.687H291.055C291.055 149.687 290.947 146.393 289.597 144.936C289.759 145.26 286.519 145.098 286.519 145.098Z" fill="#9E472D"/>
<path d="M299.424 145.098C299.424 145.098 299.64 145.746 297.642 146.664C295.644 147.582 293.539 147.258 292.999 148.014C292.459 148.769 292.351 149.525 292.351 149.525H303.744C303.744 149.525 303.636 146.394 302.34 144.99C302.556 145.26 299.424 145.098 299.424 145.098Z" fill="#9E472D"/>
<path d="M284.197 82.6782L275.558 84.1901L269.51 71.231L278.798 70.4751L284.197 82.6782Z" fill="white"/>
<path d="M290.137 58.3261C290.137 58.3261 289.003 60.5939 289.003 62.6997C289.003 64.1576 289.165 66.2635 289.273 67.3974C289.327 67.8294 289.705 68.0993 290.137 67.9374L291.811 67.3974L291.703 69.8812L296.454 69.7732L297.48 59.8379C297.534 59.8919 293.539 55.5183 290.137 58.3261Z" fill="#FD9E71"/>
<path d="M290.515 63.5636C290.515 63.5636 290.785 61.5658 292.243 61.9977C293.755 62.4297 292.027 64.3736 292.027 64.3736L293.431 66.9114C294.457 67.2894 295.644 67.2894 296.724 66.8034C296.724 66.8034 298.29 61.9977 298.29 60.4858C298.29 58.974 296.886 57.948 296.886 57.948C296.886 57.948 293.161 56.1122 291.217 56.2202C289.219 56.3282 289.057 58.326 289.057 58.326C289.057 58.326 288.301 59.8379 289.057 60.4858C289.867 61.1878 290.515 63.5636 290.515 63.5636Z" fill="#201251"/>
<path d="M296.724 68.4772L296.508 69.8271H291.595C291.595 69.8271 292.567 68.3152 296.724 68.4772Z" fill="#6AA5CC"/>
<path d="M275.774 80.6802C275.774 80.6802 276.098 79.6003 274.748 78.9524C274.802 78.6824 274.478 77.4405 274.154 77.1705C273.884 76.9005 273.668 78.5204 273.668 78.5204C273.668 78.5204 272.318 76.0906 271.94 76.7385C271.616 77.3325 275.018 82.0841 275.072 82.3001C275.234 82.4621 275.774 80.6802 275.774 80.6802Z" fill="#FD9E71"/>
<path d="M288.517 96.285L285.223 124.039L285.871 145.583L290.029 145.313C290.029 145.313 291.217 133.974 291.271 131.166C291.379 128.305 290.515 123.985 290.515 123.985L294.673 106.814L295.375 106.922L295.591 123.823L299.37 145.313L302.826 145.475C302.826 145.475 302.934 134.406 302.61 131.652C302.34 128.899 300.828 123.391 300.828 123.391L302.34 105.896C302.34 105.896 303.852 101.307 301.152 96.123C300.828 96.123 288.517 96.285 288.517 96.285Z" fill="#201251"/>
<path d="M291.595 69.8272C291.595 69.8272 285.709 71.717 284.629 72.797C283.549 73.8769 280.472 84.9461 280.472 84.9461L275.828 80.3024L274.37 83.6502C274.37 83.6502 279.824 91.7496 281.497 91.9656C283.225 92.2355 287.059 81.7603 287.059 81.7603C287.059 81.7603 287.383 87.4839 288.085 90.3457C288.841 93.6394 288.463 96.2853 288.463 96.2853C293.701 97.2572 298.182 97.0412 301.152 96.0693L302.61 85.0541C302.61 85.0541 304.608 85.2701 305.256 84.5681C305.904 83.8662 302.988 72.473 302.34 71.5551C301.692 70.6911 296.454 69.7732 296.454 69.7732L291.595 69.8272Z" fill="#96C4EA"/>
<path d="M297.318 77.4405C297.264 77.2245 296.94 77.2785 296.94 77.4945C297.102 82.2461 296.94 86.8898 296.184 91.5874C296.13 91.9114 296.616 92.0734 296.67 91.6954C297.696 87.0518 297.966 82.1381 297.318 77.4405Z" fill="#6AA5CC"/>
<path d="M302.718 80.9503C302.664 80.7884 302.448 80.8424 302.448 81.0043C302.394 83.7581 302.07 86.4039 301.53 89.1577C301.044 91.5876 300.612 94.0174 300.774 96.4472C300.774 96.7712 301.314 96.8252 301.314 96.4472C301.206 93.5854 301.8 90.8316 302.286 88.0238C302.718 85.702 303.15 83.2722 302.718 80.9503Z" fill="#6AA5CC"/>
<path d="M287.653 80.8424C286.087 81.8683 285.493 83.8122 284.899 85.4861C284.089 87.7539 283.279 89.9677 281.498 91.6416C281.228 91.9116 281.606 92.2896 281.876 92.0196C285.169 89.0498 285.007 84.2442 287.815 81.0044C287.869 80.9504 287.761 80.7884 287.653 80.8424Z" fill="#6AA5CC"/>
<path d="M301.26 95.2594C301.26 95.2594 293.323 96.2853 288.517 94.7734C288.625 94.7734 288.517 96.2853 288.517 96.2853C288.517 96.2853 294.619 98.6072 301.638 96.7713C301.584 96.7713 301.26 95.2594 301.26 95.2594Z" fill="#9E472D"/>
<path d="M185.81 145.519C185.81 145.519 185.162 146.976 184.028 147.192C182.894 147.408 179.924 148.11 179.438 148.488C178.952 148.92 178.952 150 178.952 150H188.401C188.401 150 188.401 147.138 187.807 145.627C188.077 145.627 185.81 145.519 185.81 145.519Z" fill="#1A133A"/>
<path d="M204.114 145.519C204.114 145.519 203.466 146.976 202.332 147.192C201.198 147.408 198.229 148.11 197.743 148.488C197.257 148.92 197.257 150 197.257 150H206.76C206.76 150 206.76 147.138 206.166 145.627C206.382 145.627 204.114 145.519 204.114 145.519Z" fill="#1A133A"/>
<path d="M202.926 52.1592C202.926 52.1592 200.281 51.4573 200.119 51.8893C199.957 52.3212 204.222 53.5631 204.222 53.5631L208.056 64.2004L206.598 67.6021L209.244 70.4639C209.244 70.4639 212.106 66.5762 212.376 65.4423C212.592 64.3084 205.572 52.8612 205.572 52.8612C205.572 52.8612 204.168 48.4335 203.952 48.2175C203.736 48.0016 201.198 48.1635 200.659 48.1635C200.065 48.1635 202.332 50.4314 202.332 50.4314L202.926 52.1592Z" fill="#E79673"/>
<path d="M192.667 60.0426C192.667 60.0426 191.425 61.8245 191.155 63.7143C190.885 65.6042 191.263 67.3861 191.263 67.3861L193.585 67.3321V69.4919H198.175C198.175 69.4919 198.283 67.872 198.445 66.9541C198.607 66.0362 199.903 64.3623 199.903 64.3623L197.851 58.5307L194.881 58.2607L192.667 60.0426Z" fill="#E79673"/>
<path d="M193.801 62.7963C193.801 62.7963 194.611 60.9065 195.583 61.6084C196.555 62.3104 195.313 63.8763 195.313 63.8763C195.313 63.8763 195.961 66.4681 197.041 66.846C198.121 67.224 198.121 67.224 198.121 67.224C198.121 67.224 200.929 64.6322 201.361 63.8763C201.792 63.1743 200.659 59.0166 199.849 58.1527C199.039 57.2347 195.529 57.3427 195.259 56.9108C194.989 56.4788 194.071 55.6689 193.207 55.9928C192.343 56.3168 192.505 59.3406 192.505 59.3406C192.505 59.3406 193.639 60.3125 193.693 60.9605C193.747 61.6624 193.261 62.5804 193.261 62.5804L193.801 62.7963Z" fill="#201251"/>
<path d="M189.481 69.5999C189.481 69.5999 194.071 68.952 196.717 68.844C199.363 68.79 203.52 70.1399 203.52 70.1399L206.544 66.9001L210.432 70.5719C210.432 70.5719 207.138 75.4315 206.058 76.5654C204.978 77.6994 204.222 83.045 203.952 84.6648C203.736 86.2847 203.088 95.734 203.088 95.734C203.088 95.734 200.281 99.0818 188.725 95.4101C188.617 95.3021 189.211 88.4446 189.157 86.7707C189.103 85.0968 187.591 79.4272 187.322 78.0233C186.998 76.6734 182.246 73.8656 182.246 73.8656C182.246 73.8656 181.652 70.5179 183.866 68.898C184.19 69.168 189.481 69.5999 189.481 69.5999Z" fill="#201251"/>
<path d="M178.79 55.8848C178.79 55.8848 177.062 57.5047 176.954 58.1526C176.846 58.8006 179.33 66.306 179.33 66.306L183.92 69.0058L182.3 73.9735C182.3 73.9735 177.332 70.5177 176.576 69.4918C175.874 68.4659 174.578 58.3146 174.578 58.3146C174.578 58.3146 172.959 56.2628 172.851 55.7228C172.743 55.1829 172.365 53.401 172.635 53.077C172.905 52.753 174.74 50.8092 175.01 51.4031C175.28 51.9971 176.252 56.1008 176.252 56.1008C176.252 56.1008 178.358 55.1289 178.79 55.8848Z" fill="#E79673"/>
<path d="M188.779 95.4101L186.188 119.924L184.838 145.95L189.319 146.112C189.319 146.112 192.127 128.834 192.127 126.188C192.181 123.542 192.073 120.41 192.073 120.41L194.935 107.289H196.555L199.903 124.352L203.304 145.518L206.922 145.68C206.922 145.68 207.462 132.505 206.922 129.806C206.382 127.106 205.572 124.514 205.572 124.514L203.952 106.803C203.952 106.803 205.41 100.54 203.142 95.572C202.71 94.8161 188.779 95.4101 188.779 95.4101Z" fill="#4C49A2"/>
<path d="M152.629 45.3674H149.713V42.4517H147.878V45.3674H144.962V47.2033H147.878V50.1191H149.713V47.2033H152.629V45.3674Z" fill="#FDBE44"/>
<path d="M125.469 67.8838C122.931 67.8838 120.88 65.832 120.88 63.3482C120.88 60.8104 122.931 58.8125 125.469 58.8125C128.007 58.8125 130.005 60.8643 130.005 63.3482C130.059 65.832 128.007 67.8838 125.469 67.8838ZM125.469 61.1343C124.281 61.1343 123.309 62.1063 123.309 63.2942C123.309 64.4821 124.281 65.454 125.469 65.454C126.657 65.454 127.629 64.4821 127.629 63.2942C127.683 62.1603 126.657 61.1343 125.469 61.1343Z" fill="#30C5CC"/>
<path d="M265.751 25.9829H262.835V23.0671H260.999V25.9829H258.084V27.8188H260.999V30.7346H262.835V27.8188H265.751V25.9829Z" fill="#30C5CC"/>
<path d="M88.212 26.6849C88.212 27.6569 87.4021 28.4668 86.4301 28.4668C85.4582 28.4668 84.6483 27.6569 84.6483 26.6849C84.6483 25.713 85.4582 24.9031 86.4301 24.9031C87.4021 24.9031 88.212 25.713 88.212 26.6849Z" fill="#3D9CFF"/>
<path d="M244.007 132.546C241.507 132.984 239.132 131.317 238.703 128.87C238.265 126.37 239.942 124.048 242.441 123.611C244.941 123.173 247.263 124.849 247.692 127.295C248.174 129.733 246.507 132.108 244.007 132.546ZM242.842 125.898C241.672 126.103 240.882 127.228 241.087 128.398C241.292 129.568 242.417 130.357 243.588 130.152C244.758 129.947 245.547 128.822 245.342 127.652C245.19 126.473 244.012 125.693 242.842 125.898Z" fill="#FEBA40"/>
<path d="M278.224 48.0132C275.686 48.0132 273.634 45.9614 273.634 43.4776C273.634 40.9397 275.686 38.9419 278.224 38.9419C280.762 38.9419 282.76 40.9937 282.76 43.4776C282.814 45.9614 280.762 48.0132 278.224 48.0132ZM278.224 41.2637C277.036 41.2637 276.064 42.2357 276.064 43.4236C276.064 44.6115 277.036 45.5834 278.224 45.5834C279.412 45.5834 280.384 44.6115 280.384 43.4236C280.384 42.2357 279.412 41.2637 278.224 41.2637Z" fill="#FEBA40"/>
</svg>
