<svg width="491" height="493" viewBox="0 0 491 493" fill="none" xmlns="http://www.w3.org/2000/svg">
<path d="M384.341 468.298C382.867 417.684 394.316 356.256 434.179 321.4C440.533 315.796 448.411 308.591 457.485 309.251C461.716 309.556 463.838 314.334 464.448 317.969C465.579 324.322 464.448 330.956 462.911 337.271C454.282 372.128 425.818 433.136 418.536 468.298" fill="url(#paint0_linear)"/>
<path d="M451.499 322.709C424.877 357.12 410.187 400.389 406.35 443.505C405.562 451.456 405.384 459.455 405.816 467.433C405.816 467.866 406.528 467.878 406.515 467.433C405.977 429.626 414.243 392.212 430.659 358.15C436.592 345.787 443.703 334.025 451.893 323.026C452.071 322.798 451.677 322.493 451.499 322.721V322.709Z" fill="#92D0FF"/>
<path d="M418.536 468.298C423.873 435.551 429.477 408.789 448.259 381.43C455.972 370.171 470.853 356.256 482.696 357.4C495.403 358.671 486.381 377.833 478.884 392.155C468.696 411.303 461.659 431.967 458.044 453.354C459.086 446.936 463.546 428.65 476.711 420.53C480.523 418.141 490.079 416.718 490.079 424.66C490.079 438.562 476.571 455.26 473.191 468.298" fill="url(#paint1_linear)"/>
<path d="M478.604 367.299C471.056 376.893 465.655 388.355 460.585 399.373C453.776 413.87 448.121 428.882 443.671 444.268C441.397 451.787 439.873 459.512 439.122 467.332C439.122 467.662 439.592 467.65 439.63 467.332C441.46 452.591 445.984 438.232 451.067 424.343C456.3 410.058 462.533 396.159 469.722 382.751C472.425 377.474 475.553 372.425 479.074 367.655C479.278 367.401 478.82 367.045 478.617 367.299H478.604Z" fill="#92D0FF"/>
<path d="M482.506 425.639C471.603 436.58 466.774 453.43 464.042 468.221C463.978 468.603 464.563 468.78 464.652 468.387C468.019 453.62 472.111 437.291 482.874 426.007C482.907 425.956 482.921 425.895 482.915 425.835C482.908 425.774 482.881 425.718 482.838 425.675C482.795 425.632 482.739 425.605 482.678 425.598C482.618 425.592 482.557 425.606 482.506 425.639Z" fill="#92D0FF"/>
<path d="M118.311 468.298C110.597 404.443 116.201 376.613 123.47 358.925C126.863 350.678 131.73 342.519 138.617 336.699C166.192 313.432 165.303 358.671 164.032 372.382C161.084 403.629 153.243 437.012 152.595 468.298" fill="url(#paint2_linear)"/>
<path d="M93.4677 468.298C92.5909 448.207 83.6194 428.612 72.1954 412.385C60.7715 396.157 44.9126 383.082 34.5814 365.952C29.041 356.777 20.2729 342.342 33.2345 334.819C47.6066 326.483 68.7263 335.225 80.2519 344.769C92.8196 355.138 101.079 369.84 107.98 384.352C120.166 409.983 122.606 439.909 122.796 468.221" fill="url(#paint3_linear)"/>
<path d="M96.1997 468.298C96.1997 447.851 85.8431 426.261 69.387 410.288C58.6365 399.855 45.7893 390.083 31.125 385.776C23.5005 383.539 2.22827 379.994 0.0934247 392.65C-0.707143 397.441 3.61338 406.451 13.9826 414.66C28.3929 426.096 68.1925 443.81 72.9959 468.298" fill="url(#paint4_linear)"/>
<path d="M9.85278 393.489C35.9919 400.758 60.6825 418.65 73.8728 442.565C78.2029 450.483 81.2726 459.028 82.9713 467.891C82.9713 468.234 83.5558 468.094 83.4923 467.751C78.5237 437.774 56.0697 413.922 29.5874 400.631C23.3169 397.453 16.7496 394.899 9.97985 393.006C9.92367 393.001 9.86753 393.016 9.82118 393.048C9.77483 393.08 9.74119 393.128 9.72609 393.182C9.711 393.236 9.7154 393.294 9.73854 393.346C9.76168 393.397 9.8021 393.439 9.85278 393.464V393.489Z" fill="#92D0FF"/>
<path d="M40.0959 342.99C53.3751 350.182 64.3162 361.644 73.0716 373.856C84.6819 390.287 93.2471 408.67 98.3594 428.129C101.775 441.132 103.953 454.428 104.866 467.84C104.866 468.412 105.806 468.425 105.781 467.84C103.938 427.608 88.7018 384.784 59.1697 356.51C53.5695 351.002 47.2315 346.297 40.3373 342.532C40.0577 342.392 39.8163 342.799 40.0959 342.939V342.99Z" fill="#92D0FF"/>
<path d="M148.872 336.255C135.453 368.214 132.238 404.354 131.349 438.664C131.107 448.36 131.044 458.068 131.425 467.751C131.425 467.856 131.466 467.956 131.54 468.03C131.614 468.104 131.714 468.145 131.819 468.145C131.923 468.145 132.024 468.104 132.097 468.03C132.171 467.956 132.213 467.856 132.213 467.751C132.111 432.793 132.988 397.593 141.108 363.398C143.235 354.192 146.034 345.154 149.482 336.356C149.622 336.001 149.05 335.848 148.91 336.204L148.872 336.255Z" fill="#92D0FF"/>
<path d="M76.719 468.298C74.241 457.268 72.0808 445.767 65.4983 436.275C61.2032 430.061 52.4351 421.394 44.6327 421.534C38.8254 421.636 37.5039 427.214 38.1774 432.234C39.9564 445.412 47.2505 449.427 50.0842 463.672C48.6737 458.271 39.9183 439.528 32.2938 446.733C23.8815 454.586 36.4237 468.336 36.4237 468.336" fill="url(#paint5_linear)"/>
<path d="M35.4457 450.367C40.1337 455.7 43.8846 461.788 46.5393 468.374C46.5658 468.437 46.6145 468.488 46.6761 468.517C46.7377 468.547 46.808 468.553 46.8737 468.534C46.9394 468.515 46.9959 468.473 47.0327 468.415C47.0694 468.358 47.0837 468.289 47.073 468.221C45.2812 461.27 40.4905 455.285 35.7761 450.05C35.5728 449.834 35.2678 450.151 35.4457 450.367Z" fill="#92D0FF"/>
<path d="M47.5302 429.769C57.6961 440.329 62.2962 454.967 67.3157 468.361C67.3422 468.424 67.3909 468.475 67.4525 468.505C67.5141 468.534 67.5844 468.54 67.6501 468.521C67.7158 468.503 67.7723 468.46 67.809 468.403C67.8458 468.345 67.8601 468.276 67.8494 468.209C66.0486 462.181 63.8278 456.288 61.2034 450.571C57.7978 442.946 53.7568 435.322 47.8479 429.438C47.6446 429.235 47.3269 429.553 47.5302 429.769Z" fill="#92D0FF"/>
<path d="M300.789 364.186H303.331" stroke="#B3D3F4" stroke-miterlimit="10"/>
<path d="M308.401 364.186H444.472C449.816 364.281 455.126 363.31 460.091 361.33C465.056 359.351 469.577 356.402 473.39 352.656C477.203 348.91 480.232 344.443 482.299 339.513C484.367 334.584 485.431 329.293 485.431 323.948C485.431 318.602 484.367 313.311 482.299 308.382C480.232 303.453 477.203 298.985 473.39 295.239C469.577 291.493 465.056 288.544 460.091 286.565C455.126 284.585 449.816 283.614 444.472 283.709H137.715C132.055 283.706 126.628 281.455 122.627 277.452C118.626 273.449 116.379 268.021 116.379 262.361C116.379 256.702 118.627 251.276 122.628 247.274C126.629 243.273 132.056 241.025 137.715 241.025H395.472C400.4 240.897 405.084 238.85 408.525 235.319C411.965 231.788 413.891 227.053 413.891 222.123C413.891 217.193 411.965 212.458 408.525 208.927C405.084 205.396 400.4 203.348 395.472 203.221H159.61C156.853 203.221 154.209 202.125 152.259 200.176C150.31 198.227 149.215 195.583 149.215 192.826C149.215 190.069 150.31 187.425 152.259 185.476C154.209 183.526 156.853 182.431 159.61 182.431H223.147H304C312 182.431 315 182.431 321.5 178.161L408.525 9.99997" stroke="#B3D3F4" stroke-miterlimit="10" stroke-dasharray="3.99 3.99"/>
<path d="M225.638 182.431H228.179" stroke="#B3D3F4" stroke-miterlimit="10"/>
<path d="M244.419 148.82C239.819 148.039 235.089 148.749 230.921 150.846C226.753 152.943 223.364 156.318 221.25 160.477C219.135 164.637 218.406 169.363 219.168 173.967C219.93 178.57 222.143 182.809 225.485 186.066L222.524 192.064L229.157 188.963C231.901 190.684 234.993 191.775 238.209 192.157C241.425 192.539 244.686 192.202 247.757 191.172C250.828 190.141 253.631 188.442 255.966 186.197C258.301 183.952 260.109 181.218 261.259 178.19C262.409 175.162 262.873 171.916 262.618 168.688C262.362 165.459 261.393 162.327 259.781 159.517C258.169 156.708 255.954 154.292 253.295 152.442C250.637 150.592 247.601 149.355 244.406 148.82H244.419Z" fill="#F3FAFF"/>
<path d="M231.013 180.703L228.738 177.958C228.34 177.448 228.15 176.805 228.209 176.161C228.268 175.516 228.571 174.918 229.056 174.489L231.661 172.316C232.171 171.917 232.814 171.728 233.459 171.787C234.103 171.846 234.701 172.149 235.13 172.634C235.13 172.634 236.401 174.438 237.748 174.121C239.349 173.752 242.831 171.198 244.724 169.228C245.995 167.831 243.822 165.416 243.822 165.416C243.405 164.914 243.204 164.266 243.263 163.616C243.323 162.965 243.638 162.365 244.14 161.947L246.745 159.774C246.993 159.566 247.28 159.409 247.589 159.312C247.898 159.215 248.223 159.18 248.546 159.21C248.868 159.239 249.182 159.333 249.468 159.484C249.754 159.635 250.008 159.842 250.214 160.092L252.476 162.798C257.584 168.873 235.461 186.002 231.013 180.703Z" fill="#B3D3F4"/>
<path d="M339.801 181.974C343.041 178.861 344.388 175.62 348.861 174.654C349.788 174.535 350.69 174.265 351.53 173.854C353.703 172.494 353.258 169.406 353.753 166.966C354.706 162.163 360.997 159.126 365.597 161.235C367.528 162.125 369.282 163.777 371.404 163.612C375.674 163.319 375.216 158.058 378.075 155.06C380.934 152.061 386.437 151.857 390.02 153.649C392.464 154.856 394.609 156.592 396.298 158.732C398.039 160.981 397.962 164.45 399.233 166.928C400.504 169.406 403.376 170.359 404.659 172.71C405.229 173.658 405.573 174.723 405.666 175.825C405.758 176.926 405.597 178.035 405.193 179.064C403.376 183.435 398.026 186.587 393.184 186.587H327.729C327.729 186.587 336.192 185.468 339.801 181.974Z" fill="#F3FAFF"/>
<path d="M182.992 150.917C180.247 148.286 179.103 145.592 175.367 144.741C174.584 144.64 173.824 144.408 173.118 144.055C171.276 142.911 171.657 140.306 171.237 138.248C170.424 134.181 165.113 131.614 161.224 133.393C159.598 134.143 158.111 135.528 156.306 135.401C152.71 135.16 153.142 130.712 150.677 128.183C148.212 125.655 143.599 125.464 140.587 126.989C138.519 128.013 136.705 129.484 135.275 131.297C133.801 133.203 133.878 136.138 132.734 138.222C131.59 140.306 129.227 141.132 128.147 143.127C127.66 143.927 127.365 144.828 127.285 145.761C127.206 146.694 127.344 147.632 127.689 148.502C129.227 152.2 133.751 154.856 137.855 154.856H193.183C193.183 154.856 186.08 153.852 182.992 150.917Z" fill="#F3FAFF"/>
<path d="M432.082 137.755L393.629 117.182L403.757 87.1289L450.546 111.349L432.082 137.755Z" fill="#CFE0F5"/>
<path d="M450.546 111.349L403.757 87.1289L437.114 80L450.546 111.349Z" fill="#CFE0F5"/>
<path d="M446.99 106.497L409.524 87.1012L393.143 118.744L430.609 138.14L446.99 106.497Z" fill="#FFF4E1"/>
<path d="M403.757 87.1289L388 117.55L418.714 115.53L403.757 87.1289Z" fill="#E6F1FC"/>
<path d="M450.545 111.349L434.801 141.783L418.713 115.53L450.545 111.349Z" fill="#E6F1FC"/>
<g style="mix-blend-mode:multiply">
<path d="M434.801 141.784L388 117.55L423.581 106.279L434.801 141.784Z" fill="#E6F1FC"/>
</g>
<path d="M434.801 141.783L388 117.55L421.357 110.434L434.801 141.783Z" fill="#E6F1FC"/>
<path d="M129.62 223.387L98.2834 231.241L88.8799 209.714L126.608 199.713L129.62 223.387Z" fill="#CFE0F5"/>
<path d="M126.608 199.713L88.8799 209.714L103.633 189.204L126.608 199.713Z" fill="#CFE0F5"/>
<path d="M122.243 198.829L92.0376 206.832L98.7975 232.345L129.003 224.342L122.243 198.829Z" fill="#FFF4E1"/>
<path d="M88.8799 209.714L95.3861 234.24L111.22 217.847L88.8799 209.714Z" fill="#E6F1FC"/>
<path d="M126.608 199.713L133.115 224.251L111.22 217.847L126.608 199.713Z" fill="#E6F1FC"/>
<g style="mix-blend-mode:multiply">
<path d="M133.115 224.251L95.3862 234.24L109.288 210.35L133.115 224.251Z" fill="#E6F1FC"/>
</g>
<path d="M133.115 224.251L95.3862 234.24L110.14 213.73L133.115 224.251Z" fill="#E6F1FC"/>
<path d="M252.882 180.551L254.051 178.733C253.824 177.772 253.713 176.786 253.721 175.798C253.703 174.836 253.88 173.881 254.242 172.99C254.534 172.825 254.674 174.616 254.801 174.54C254.928 174.464 255.855 170.969 256.376 171.007C256.643 171.007 255.728 174.438 255.728 174.438C255.728 174.438 256.631 170.741 256.999 170.88C257.368 171.02 256.427 174.527 256.427 174.527C256.427 174.527 257.291 171.185 257.698 171.287C258.105 171.389 257.126 174.654 257.126 174.654C257.126 174.654 257.99 171.757 258.181 171.922C258.371 172.087 258.181 174.172 257.317 177.005C257.164 177.501 256.465 179.115 256.427 179.242L255.589 182.304" fill="#FC8975"/>
<path d="M254.89 174.934C255.228 175.448 255.489 176.009 255.665 176.599C255.787 177.268 255.721 177.959 255.475 178.594C255.473 178.615 255.478 178.637 255.489 178.655C255.5 178.674 255.516 178.688 255.536 178.697C255.556 178.705 255.578 178.707 255.599 178.702C255.62 178.697 255.639 178.686 255.653 178.67C255.947 178.046 256.045 177.348 255.934 176.667C255.823 175.986 255.508 175.355 255.03 174.858C254.966 174.769 254.827 174.858 254.89 174.934Z" fill="#CC6658"/>
<path d="M212.93 399.398C212.93 399.398 219.716 401.939 219.767 403.884C219.767 405.04 209.906 405.002 209.296 404.239C208.304 402.969 210.02 399.652 210.02 399.652L212.93 399.398Z" fill="#352E72"/>
<path d="M212.777 393.781L212.93 399.563C212.853 399.851 212.691 400.109 212.464 400.302C212.237 400.495 211.956 400.614 211.659 400.643C210.655 400.77 209.969 399.652 209.969 399.652L209.677 392.409" fill="#FC8975"/>
<path d="M217.428 265.055C217.428 265.055 221.114 287.509 219.258 330.651C217.988 360.068 214.023 395.636 212.561 395.675C211.64 395.694 210.719 395.647 209.804 395.535C209.804 395.535 200.54 352.901 199.905 328.897C198.939 291.918 189.18 283.443 193.411 264.229" fill="url(#paint6_linear)"/>
<path d="M213.515 393.26L213.248 395.814L209.181 395.929L208.991 393.387L213.515 393.26Z" fill="#75A1E9"/>
<path d="M191.963 399.97C191.963 399.97 198.761 402.448 198.812 404.468C198.812 405.612 188.951 405.586 188.341 404.824C187.35 403.553 189.065 400.224 189.065 400.224L191.963 399.97Z" fill="#352E72"/>
<path d="M191.887 394.366L192.039 400.148C191.961 400.433 191.797 400.689 191.57 400.879C191.343 401.07 191.064 401.187 190.768 401.215C189.765 401.355 189.078 400.224 189.078 400.224L188.773 392.993" fill="#FC8975"/>
<path d="M205.432 265.385C205.432 265.385 203.691 293.939 201.506 326.902C200.642 339.927 193.157 394.366 192.102 396.17L188.404 396.272C188.404 396.272 182.775 349.153 182.152 325.11C181.174 288.132 177.196 283.671 181.428 264.458" fill="url(#paint7_linear)"/>
<path d="M192.662 393.832L192.382 396.386L188.328 396.501L188.125 393.959L192.662 393.832Z" fill="#75A1E9"/>
<path d="M204.594 279.821C204.594 279.821 203.158 316.304 200.489 337.678" stroke="#4A578E" stroke-width="0.5" stroke-miterlimit="10"/>
<path d="M209.321 189.357C206.995 185.265 200.718 185.888 197.122 187.756C192.039 190.412 190.768 197.985 186.041 201.213C183.944 202.649 181.39 203.488 179.687 205.419C178.747 206.599 178.128 208.002 177.89 209.491C177.652 210.98 177.803 212.506 178.327 213.92C179.401 216.737 181.417 219.094 184.033 220.592C186.61 222.059 189.408 223.098 192.318 223.667C196.906 224.722 201.798 225.293 206.296 223.743C210.795 222.193 214.62 218.038 214.607 213.221C214.607 209.142 211.913 205.343 212.383 201.289" fill="#081466"/>
<path d="M253.263 179.165C253.263 179.165 241.102 196.625 238.319 200.59C233.986 206.779 216.196 207.973 206.691 213.603L200.095 214.314C196.957 214.962 186.117 222.65 185.139 225.751C182.839 232.816 180.513 239.996 180.056 247.442C179.916 249.984 180.056 252.525 180.056 255.067C180.183 258.718 180.301 262.374 180.412 266.033C180.397 266.279 180.46 266.523 180.589 266.732C180.77 266.916 181.007 267.032 181.263 267.063C193.195 269.82 205.636 268.333 217.797 266.834C218.23 266.827 218.649 266.68 218.991 266.415C219.318 265.996 219.472 265.469 219.423 264.941C219.487 262.602 219.36 260.264 219.258 257.926C218.857 247.803 219.214 237.664 220.326 227.593C224.138 225.23 239.666 220.338 244.876 213.069C251.843 203.397 255.892 191.931 256.542 180.03L253.263 179.165Z" fill="url(#paint8_linear)"/>
<path d="M206.691 213.603L206.449 205.254L202.752 205.762L200.096 214.238C200.569 214.802 201.187 215.228 201.882 215.469C202.578 215.711 203.326 215.76 204.048 215.61C204.645 215.604 205.225 215.405 205.701 215.044C206.177 214.682 206.524 214.177 206.691 213.603Z" fill="#FC8975"/>
<path d="M198.787 201.836C198.532 198.716 199.437 195.612 201.328 193.118C203.044 191.199 206.284 190.92 208.661 191.238C209.493 191.318 210.285 191.631 210.948 192.14C213.299 194.084 213.146 198.582 212.981 201.34C212.905 203.698 212.102 205.975 210.681 207.859C210.246 208.449 209.669 208.921 209.004 209.231C207.78 209.669 206.467 209.798 205.182 209.608C203.896 209.417 202.677 208.912 201.633 208.138C200.749 207.342 200.039 206.371 199.549 205.286C199.059 204.201 198.8 203.026 198.787 201.836Z" fill="#FC8975"/>
<path d="M197.732 204.479C196.868 204.885 195.508 205.178 194.834 204.225C194.161 203.272 194.834 202.306 194.961 201.492C195.572 198.859 196.332 196.263 197.236 193.716C197.651 192.365 198.259 191.081 199.041 189.903C200.642 187.692 205.191 186.676 207.936 186.917C210.871 186.726 215.56 191.517 213.019 197.083C212.637 195.711 212.104 195.812 211.1 194.681C210.097 195.625 208.801 196.195 207.427 196.295C205.648 196.46 203.615 196.054 202.344 197.299C201.074 198.544 201.29 200.857 200.324 202.382C199.696 203.33 198.791 204.063 197.732 204.479Z" fill="#081466"/>
<path d="M200.782 202.395C200.813 202.253 200.815 202.107 200.787 201.965C200.759 201.823 200.702 201.688 200.62 201.568C200.538 201.449 200.432 201.348 200.309 201.272C200.186 201.195 200.048 201.145 199.905 201.124C198.558 200.971 198.151 203.106 198.634 204.072C199.028 204.784 200.006 205.343 200.515 204.504" fill="#FC8975"/>
<path d="M281.105 193.652L144.895 312.937V476.951H417.329V312.937L281.105 193.652Z" fill="url(#paint9_linear)"/>
<path d="M403.554 235.612H158.657V460.025H403.554V235.612Z" fill="url(#paint10_linear)"/>
<path d="M389.538 264.763H172.686V283.926H389.538V264.763Z" fill="white"/>
<path d="M389.538 292.91H172.686V312.072H389.538V292.91Z" fill="white"/>
<path d="M389.538 321.044H172.686V434.991H389.538V321.044Z" fill="white"/>
<path d="M184.039 274.88H182.885L181.021 271.64H180.995C181.032 272.212 181.051 272.62 181.051 272.864V274.88H180.239V270.597H181.385L183.245 273.805H183.266C183.236 273.248 183.222 272.855 183.222 272.624V270.597H184.039V274.88ZM187.742 274.88L187.432 273.86H185.87L185.56 274.88H184.581L186.093 270.579H187.203L188.721 274.88H187.742ZM187.215 273.099C186.928 272.175 186.766 271.652 186.729 271.531C186.693 271.41 186.668 271.315 186.652 271.244C186.588 271.494 186.403 272.112 186.099 273.099H187.215ZM191.076 274.88L190.045 271.52H190.019C190.056 272.203 190.074 272.659 190.074 272.888V274.88H189.263V270.597H190.499L191.513 273.872H191.53L192.605 270.597H193.842V274.88H192.995V272.853C192.995 272.757 192.996 272.647 192.998 272.522C193.002 272.397 193.016 272.065 193.039 271.525H193.013L191.908 274.88H191.076ZM197.39 274.88H194.923V270.597H197.39V271.341H195.831V272.281H197.281V273.025H195.831V274.13H197.39V274.88Z" fill="#EAC38F"/>
<path d="M182.706 303.675H180.239V299.392H182.706V300.136H181.147V301.076H182.598V301.82H181.147V302.925H182.706V303.675ZM185.416 303.675L184.385 300.315H184.358C184.396 300.998 184.414 301.454 184.414 301.683V303.675H183.603V299.392H184.839L185.853 302.667H185.87L186.945 299.392H188.182V303.675H187.335V301.648C187.335 301.552 187.336 301.442 187.338 301.317C187.342 301.192 187.355 300.86 187.379 300.32H187.353L186.248 303.675H185.416ZM191.885 303.675L191.574 302.655H190.013L189.702 303.675H188.724L190.235 299.374H191.346L192.863 303.675H191.885ZM191.357 301.894C191.07 300.97 190.908 300.447 190.871 300.326C190.836 300.205 190.811 300.11 190.795 300.039C190.73 300.289 190.546 300.907 190.241 301.894H191.357ZM193.405 303.675V299.392H194.313V303.675H193.405ZM195.392 303.675V299.392H196.3V302.925H198.037V303.675H195.392Z" fill="#EAC38F"/>
<path d="M182.053 331.797L181.021 328.436H180.995C181.032 329.12 181.051 329.576 181.051 329.804V331.797H180.239V327.513H181.476L182.489 330.789H182.507L183.582 327.513H184.818V331.797H183.972V329.769C183.972 329.673 183.973 329.563 183.975 329.438C183.979 329.313 183.992 328.981 184.016 328.442H183.989L182.885 331.797H182.053ZM188.366 331.797H185.899V327.513H188.366V328.257H186.808V329.198H188.258V329.942H186.808V331.047H188.366V331.797ZM191.791 330.607C191.791 330.994 191.651 331.298 191.372 331.521C191.095 331.744 190.708 331.855 190.212 331.855C189.755 331.855 189.351 331.769 188.999 331.597V330.754C189.288 330.882 189.532 330.973 189.731 331.026C189.933 331.079 190.116 331.105 190.282 331.105C190.481 331.105 190.634 331.067 190.739 330.991C190.847 330.915 190.9 330.801 190.9 330.651C190.9 330.567 190.877 330.493 190.83 330.428C190.783 330.362 190.714 330.298 190.622 330.238C190.532 330.177 190.348 330.081 190.068 329.948C189.807 329.825 189.61 329.707 189.479 329.593C189.349 329.48 189.244 329.348 189.166 329.198C189.088 329.047 189.049 328.872 189.049 328.671C189.049 328.292 189.177 327.994 189.433 327.777C189.69 327.56 190.046 327.452 190.499 327.452C190.722 327.452 190.934 327.478 191.135 327.531C191.338 327.584 191.55 327.658 191.771 327.754L191.478 328.46C191.249 328.366 191.06 328.3 190.909 328.263C190.761 328.226 190.614 328.208 190.47 328.208C190.298 328.208 190.166 328.248 190.074 328.328C189.982 328.408 189.937 328.512 189.937 328.641C189.937 328.721 189.955 328.792 189.992 328.852C190.029 328.911 190.088 328.968 190.168 329.025C190.25 329.08 190.442 329.179 190.745 329.324C191.146 329.515 191.42 329.708 191.568 329.901C191.717 330.092 191.791 330.328 191.791 330.607ZM195.189 331.797L194.879 330.777H193.317L193.007 331.797H192.028L193.54 327.496H194.65L196.168 331.797H195.189ZM194.662 330.015C194.375 329.091 194.213 328.569 194.176 328.448C194.141 328.327 194.115 328.231 194.1 328.161C194.035 328.411 193.851 329.029 193.546 330.015H194.662ZM198.336 329.391H200.035V331.612C199.76 331.702 199.5 331.764 199.256 331.799C199.014 331.837 198.766 331.855 198.512 331.855C197.865 331.855 197.371 331.666 197.029 331.287C196.689 330.906 196.52 330.36 196.52 329.649C196.52 328.958 196.717 328.419 197.111 328.032C197.508 327.645 198.057 327.452 198.758 327.452C199.197 327.452 199.621 327.54 200.029 327.715L199.728 328.442C199.415 328.286 199.09 328.208 198.752 328.208C198.359 328.208 198.045 328.339 197.809 328.603C197.572 328.867 197.454 329.221 197.454 329.667C197.454 330.131 197.549 330.487 197.738 330.733C197.93 330.977 198.207 331.099 198.57 331.099C198.76 331.099 198.952 331.08 199.147 331.041V330.147H198.336V329.391ZM203.524 331.797H201.058V327.513H203.524V328.257H201.966V329.198H203.416V329.942H201.966V331.047H203.524V331.797Z" fill="#EAC38F"/>
<path d="M251.978 248.772C251.872 249.674 251.538 250.371 250.976 250.864C250.417 251.352 249.673 251.596 248.743 251.596C247.735 251.596 246.927 251.235 246.317 250.512C245.712 249.789 245.409 248.823 245.409 247.612V246.791C245.409 245.998 245.55 245.301 245.831 244.7C246.116 244.098 246.519 243.637 247.038 243.317C247.558 242.993 248.159 242.83 248.843 242.83C249.749 242.83 250.476 243.084 251.022 243.592C251.569 244.096 251.888 244.795 251.978 245.69H250.847C250.749 245.01 250.536 244.518 250.208 244.213C249.884 243.909 249.429 243.756 248.843 243.756C248.124 243.756 247.56 244.022 247.149 244.553C246.743 245.084 246.54 245.84 246.54 246.821V247.647C246.54 248.573 246.733 249.309 247.12 249.856C247.507 250.403 248.048 250.676 248.743 250.676C249.368 250.676 249.847 250.535 250.179 250.254C250.515 249.969 250.737 249.475 250.847 248.772H251.978ZM260.081 247.489C260.081 248.325 259.94 249.055 259.659 249.68C259.378 250.301 258.979 250.776 258.464 251.104C257.948 251.432 257.347 251.596 256.659 251.596C255.987 251.596 255.392 251.432 254.872 251.104C254.353 250.772 253.948 250.301 253.659 249.692C253.374 249.078 253.228 248.369 253.22 247.565V246.95C253.22 246.129 253.362 245.405 253.647 244.776C253.933 244.147 254.335 243.666 254.854 243.334C255.378 242.998 255.976 242.83 256.647 242.83C257.331 242.83 257.933 242.996 258.452 243.328C258.976 243.657 259.378 244.135 259.659 244.764C259.94 245.389 260.081 246.118 260.081 246.95V247.489ZM258.962 246.938C258.962 245.926 258.759 245.151 258.353 244.612C257.946 244.069 257.378 243.797 256.647 243.797C255.937 243.797 255.376 244.069 254.966 244.612C254.56 245.151 254.351 245.901 254.339 246.862V247.489C254.339 248.469 254.544 249.241 254.954 249.803C255.368 250.362 255.937 250.641 256.659 250.641C257.386 250.641 257.948 250.377 258.347 249.85C258.745 249.319 258.95 248.559 258.962 247.571V246.938ZM268.325 251.479H267.194L262.899 244.905V251.479H261.769V242.948H262.899L267.206 249.551V242.948H268.325V251.479ZM276.042 243.873H273.3V251.479H272.181V243.873H269.444V242.948H276.042V243.873ZM281.55 249.252H277.976L277.173 251.479H276.013L279.271 242.948H280.255L283.519 251.479H282.364L281.55 249.252ZM278.315 248.326H281.216L279.763 244.336L278.315 248.326ZM290.872 248.772C290.767 249.674 290.433 250.371 289.87 250.864C289.312 251.352 288.567 251.596 287.638 251.596C286.63 251.596 285.821 251.235 285.212 250.512C284.606 249.789 284.304 248.823 284.304 247.612V246.791C284.304 245.998 284.444 245.301 284.726 244.7C285.011 244.098 285.413 243.637 285.933 243.317C286.452 242.993 287.054 242.83 287.737 242.83C288.644 242.83 289.37 243.084 289.917 243.592C290.464 244.096 290.782 244.795 290.872 245.69H289.741C289.644 245.01 289.431 244.518 289.103 244.213C288.778 243.909 288.323 243.756 287.737 243.756C287.019 243.756 286.454 244.022 286.044 244.553C285.638 245.084 285.435 245.84 285.435 246.821V247.647C285.435 248.573 285.628 249.309 286.015 249.856C286.401 250.403 286.942 250.676 287.638 250.676C288.263 250.676 288.741 250.535 289.073 250.254C289.409 249.969 289.632 249.475 289.741 248.772H290.872ZM298.132 243.873H295.39V251.479H294.271V243.873H291.534V242.948H298.132V243.873ZM308.146 242.948V248.748C308.142 249.553 307.888 250.211 307.384 250.723C306.884 251.235 306.204 251.522 305.345 251.584L305.046 251.596C304.112 251.596 303.368 251.344 302.813 250.84C302.259 250.336 301.978 249.643 301.97 248.76V242.948H303.083V248.725C303.083 249.342 303.253 249.823 303.593 250.166C303.933 250.506 304.417 250.676 305.046 250.676C305.683 250.676 306.169 250.506 306.505 250.166C306.845 249.826 307.015 249.348 307.015 248.731V242.948H308.146ZM312.435 247.676C311.47 247.399 310.767 247.059 310.325 246.657C309.888 246.25 309.669 245.75 309.669 245.157C309.669 244.485 309.937 243.93 310.472 243.493C311.011 243.051 311.71 242.83 312.569 242.83C313.155 242.83 313.677 242.944 314.134 243.17C314.595 243.397 314.95 243.709 315.2 244.108C315.454 244.506 315.581 244.942 315.581 245.414H314.45C314.45 244.899 314.286 244.494 313.958 244.201C313.63 243.905 313.167 243.756 312.569 243.756C312.015 243.756 311.581 243.879 311.269 244.125C310.96 244.368 310.806 244.705 310.806 245.139C310.806 245.487 310.952 245.782 311.245 246.024C311.542 246.262 312.044 246.481 312.751 246.68C313.462 246.879 314.017 247.1 314.415 247.342C314.817 247.58 315.114 247.86 315.306 248.18C315.501 248.5 315.599 248.877 315.599 249.311C315.599 250.002 315.329 250.557 314.79 250.975C314.251 251.389 313.53 251.596 312.628 251.596C312.042 251.596 311.495 251.485 310.987 251.262C310.479 251.035 310.087 250.727 309.81 250.336C309.536 249.946 309.399 249.502 309.399 249.006H310.53C310.53 249.522 310.72 249.93 311.099 250.231C311.481 250.528 311.991 250.676 312.628 250.676C313.222 250.676 313.677 250.555 313.993 250.313C314.31 250.071 314.468 249.741 314.468 249.323C314.468 248.905 314.321 248.582 314.028 248.356C313.735 248.125 313.204 247.899 312.435 247.676Z" fill="#EAC38F"/>
<g style="mix-blend-mode:multiply" opacity="0.55">
<path d="M281.105 417.061L144.895 312.937V460.025H417.329V312.937L281.105 417.061Z" fill="#C9D3F4"/>
</g>
<path d="M281.105 434.013L144.895 312.937V476.951H417.329V312.937L281.105 434.013Z" fill="url(#paint11_linear)"/>
<g style="mix-blend-mode:multiply" opacity="0.35">
<path d="M281.105 348.53L144.895 476.951H417.329L281.105 348.53Z" fill="#C9D3F4"/>
</g>
<path d="M281.105 361.047L144.895 476.951H417.329L281.105 361.047Z" fill="url(#paint12_linear)"/>
<path d="M370.21 484.906C367.452 470.534 370.337 455.781 376.068 443.505C379.88 435.462 388.483 424.266 398.128 424.444C405.308 424.571 408.294 431.789 408.726 438.283C409.819 455.311 401.813 460.508 401.864 478.946C402.258 471.97 409.005 449.325 419.54 457.051C429.858 464.612 419.807 484.932 419.807 484.932" fill="url(#paint13_linear)"/>
<path d="M416.567 461.41C412.221 468.488 408.256 476.456 407.9 484.906C407.9 485.211 408.396 485.3 408.434 484.982C409.755 476.727 412.65 468.802 416.961 461.639C416.985 461.587 416.989 461.528 416.971 461.474C416.954 461.419 416.917 461.374 416.868 461.345C416.819 461.316 416.761 461.307 416.705 461.319C416.649 461.331 416.6 461.364 416.567 461.41Z" fill="#92D0FF"/>
<path d="M397.34 434.775C391.698 442.768 389.042 452.706 387.022 462.147C385.384 469.649 384.25 477.253 383.629 484.906C383.629 485.211 384.137 485.287 384.175 484.982C386.513 468.323 387.988 449.3 397.734 435.004C397.899 434.763 397.505 434.547 397.34 434.775Z" fill="#92D0FF"/>
<path d="M190.184 253.135C190.886 253.675 191.666 254.103 192.497 254.406C193.712 254.222 194.941 254.141 196.169 254.165C196.932 254.241 198.889 254.673 198.99 254.991C199.092 255.308 197.224 255.245 197.275 255.385C197.326 255.524 200.795 256.808 200.642 257.329C200.566 257.596 197.199 256.338 197.199 256.338C197.199 256.338 200.871 257.608 200.655 258.015C200.439 258.422 196.97 257.075 196.97 257.075C196.97 257.075 200.287 258.345 200.109 258.625C199.931 258.905 196.678 258.104 196.678 258.104C196.678 258.104 199.499 258.714 199.346 259.057C197.351 258.98 195.384 258.55 193.539 257.786C191.95 257.167 190.447 256.347 189.066 255.347" fill="#FC8975"/>
<path d="M191.391 228.292C188.329 232.943 181.225 238.319 177.413 241.61C179.65 244.647 192.332 254.127 192.332 254.127L191.163 256.948C191.163 256.948 167.018 252.602 166.218 240.669C165.76 233.528 174.795 223.006 181.81 218.063C188.392 213.425 196.093 212.675 200.147 214.251" fill="url(#paint14_linear)"/>
<path d="M368.355 280.342C365.686 279.249 361.887 276.009 362.332 274.154C362.522 273.366 364.39 275.513 364.873 274.98C365.216 274.636 364.937 273.048 363.971 272.286C363.005 271.523 361.01 270.1 361.506 269.604C362.001 269.109 366.881 270.202 367.974 271.853C368.929 273.697 369.578 275.684 369.892 277.737L371.913 280.279" fill="#FC8975"/>
<path d="M419.477 487.74C419.477 487.74 411.166 490.281 411.179 492.149C411.179 493.242 423.391 492.95 424.128 492.213C425.297 491.044 423.073 487.905 423.073 487.905L419.477 487.74Z" fill="#352E72"/>
<path d="M419.477 482.441V487.905C419.61 488.2 419.826 488.45 420.1 488.623C420.373 488.797 420.69 488.888 421.014 488.884C421.41 488.892 421.802 488.808 422.159 488.638C422.517 488.468 422.829 488.217 423.073 487.905L423.213 481.068" fill="#FC8975"/>
<path d="M409.565 361.072C409.565 361.072 405.753 382.357 409.413 422.957C411.954 450.698 418.003 484.156 419.807 484.156C420.945 484.152 422.082 484.084 423.213 483.953C423.213 483.953 433.277 443.48 433.277 420.797C433.277 385.89 445.044 377.592 439.199 359.611" fill="url(#paint15_linear)"/>
<path d="M418.549 481.971L418.968 484.36H423.988L424.14 481.971H418.549Z" fill="#75A1E9"/>
<path d="M445.4 487.74C445.4 487.74 437.076 490.281 437.089 492.149C437.089 493.242 449.301 492.95 450.038 492.213C451.22 491.044 448.996 487.905 448.996 487.905L445.4 487.74Z" fill="#352E72"/>
<path d="M445.399 482.441V487.905C445.533 488.2 445.749 488.45 446.022 488.623C446.296 488.797 446.613 488.888 446.937 488.884C447.333 488.892 447.725 488.808 448.082 488.638C448.44 488.468 448.752 488.217 448.996 487.905L449.123 481.068" fill="#FC8975"/>
<path d="M424.433 361.072C424.433 361.072 427.508 387.974 431.295 419.031C432.781 431.294 443.799 482.479 445.158 484.156H449.733C449.733 484.156 455.146 439.541 455.146 416.807C455.146 381.887 459.924 377.567 454.066 359.547" fill="url(#paint16_linear)"/>
<path d="M444.345 481.971L444.764 484.36H449.784L449.936 481.971H444.345Z" fill="#75A1E9"/>
<path d="M425.958 374.682C425.958 374.682 428.918 409.081 432.908 429.184" stroke="#4A578E" stroke-width="0.5" stroke-miterlimit="10"/>
<path d="M455.197 356.612C455.197 354.388 456.926 316.025 450.267 307.345C448.386 303.317 441.372 298.742 435.857 296.76C430.964 295.006 427.876 296.366 425.691 296.697C416.325 294.003 394.913 295.807 388.979 292.757C385.7 291.067 370.413 277.826 370.413 277.826L367.554 280.05C367.554 280.05 376.691 299.111 386.958 305.808C394.189 310.497 404.901 313.102 410.632 314.245C410.543 315.287 410.48 316.444 410.416 317.727C410.111 324.577 409.324 336.611 410.124 356.612C410.188 358.518 408.129 360.945 408.129 362.216C408.129 363.487 410.569 367.502 431.168 367.502C448.628 367.502 456.926 364.961 456.926 362.025C456.926 359.09 455.197 358.836 455.197 356.612Z" fill="url(#paint17_linear)"/>
<g style="mix-blend-mode:multiply" opacity="0.75">
<path style="mix-blend-mode:multiply" opacity="0.75" d="M411.065 306.392C411.215 307.7 411.245 309.019 411.154 310.332C411.081 311.65 410.894 312.959 410.595 314.245C410.448 312.933 410.423 311.61 410.518 310.293C410.586 308.98 410.769 307.674 411.065 306.392Z" fill="url(#paint18_linear)"/>
</g>
<path d="M424.432 273.2C423.657 276.276 421.751 284.739 423.505 287.395C424.46 288.644 425.808 289.535 427.332 289.925C428.856 290.314 430.466 290.18 431.904 289.542C433.319 288.862 434.571 287.884 435.573 286.676C436.575 285.467 437.305 284.057 437.712 282.54C438.508 279.495 438.749 276.331 438.423 273.2" fill="#FC8975"/>
<path d="M427.737 284.396L426.466 294.651C426.466 294.651 426.911 297.522 428.474 298.628C429.672 298.525 430.825 298.121 431.827 297.455C432.828 296.789 433.646 295.881 434.205 294.816L433.048 281.613" fill="#FC8975"/>
<path d="M434.497 276.009C432.514 275.297 429.782 275.551 427.292 275.132C425.519 274.997 423.77 274.647 422.082 274.09C419.108 272.819 419.388 268.308 421.802 266.593C422.122 266.322 422.492 266.119 422.891 265.995C423.291 265.87 423.711 265.827 424.128 265.868C424.992 266.072 425.309 266.987 426.084 267.33C426.486 267.497 426.923 267.558 427.355 267.508C427.687 267.487 428.006 267.367 428.27 267.164C428.69 266.796 428.855 266.211 429.274 265.894C429.674 265.519 430.172 265.263 430.71 265.157C431.291 265.003 431.898 264.969 432.492 265.059C433.087 265.149 433.657 265.359 434.166 265.678C434.478 265.957 434.829 266.188 435.208 266.364C435.882 266.461 436.542 266.632 437.178 266.872C438.007 267.452 438.695 268.209 439.194 269.088C439.693 269.967 439.99 270.947 440.063 271.955C440.063 272.247 440.558 272.527 440.723 272.73C441.442 273.732 441.929 274.881 442.149 276.094C442.369 277.308 442.316 278.555 441.994 279.745C441.72 282.146 440.571 284.363 438.767 285.971C437.982 286.466 437.124 286.835 436.225 287.064C432.781 288.271 434.535 278.804 434.37 276.072" fill="#352E72"/>
<path d="M434.967 281.308C434.995 281.124 435.067 280.949 435.178 280.8C435.29 280.651 435.436 280.531 435.604 280.452C435.773 280.373 435.958 280.336 436.144 280.346C436.33 280.356 436.511 280.411 436.67 280.507C436.862 280.62 437.025 280.776 437.144 280.964C437.263 281.152 437.336 281.366 437.356 281.587C437.383 282.145 437.226 282.696 436.909 283.155C436.593 283.614 436.133 283.957 435.602 284.129C435.158 284.218 434.688 283.646 434.662 283.214" fill="#FC8975"/>
<path d="M431.358 287.446C431.692 287.42 432.023 287.369 432.349 287.293C433.362 287.07 434.263 286.493 434.891 285.666C435.137 285.373 435.28 285.007 435.297 284.624C435.299 284.605 435.297 284.586 435.29 284.567C435.284 284.549 435.274 284.532 435.261 284.517C435.248 284.503 435.232 284.492 435.214 284.484C435.196 284.476 435.177 284.472 435.157 284.472C435.116 284.472 435.076 284.488 435.045 284.516C435.014 284.544 434.995 284.583 434.992 284.624C434.974 284.942 434.854 285.245 434.649 285.489C434.067 286.256 433.228 286.788 432.286 286.988C431.358 287.176 430.407 287.227 429.465 287.141C429.423 287.14 429.383 287.156 429.352 287.184C429.321 287.213 429.303 287.251 429.299 287.293C429.299 287.333 429.315 287.372 429.344 287.401C429.373 287.429 429.411 287.446 429.452 287.446C430.086 287.496 430.724 287.496 431.358 287.446Z" fill="#081466"/>
<path d="M428.753 286.912C428.888 286.856 429.032 286.827 429.178 286.827C429.325 286.827 429.469 286.856 429.604 286.912C430.583 287.217 429.528 288.449 428.651 287.814C428.576 287.767 428.515 287.701 428.473 287.623C428.442 287.559 428.424 287.488 428.422 287.417C428.419 287.345 428.431 287.273 428.457 287.207C428.484 287.14 428.524 287.079 428.574 287.028C428.625 286.978 428.686 286.938 428.753 286.912Z" fill="#081466"/>
<path d="M437.851 277.203C437.637 274.957 436.82 272.81 435.488 270.989C433.772 268.842 431.485 267.075 429.286 267.075C428.348 267.035 427.41 267.182 426.529 267.508C428.829 268.041 430.917 269.249 432.527 270.977C434.329 272.854 435.363 275.339 435.424 277.94" fill="#75A1E9"/>
<path d="M432.298 280.749C432.278 281.539 432.488 282.319 432.904 282.991C433.32 283.664 433.922 284.201 434.638 284.536C435.355 284.872 436.153 284.991 436.936 284.88C437.719 284.768 438.452 284.431 439.046 283.909C439.641 283.388 440.07 282.704 440.281 281.942C440.493 281.18 440.478 280.373 440.238 279.619C439.998 278.866 439.543 278.199 438.93 277.7C438.316 277.201 437.571 276.891 436.784 276.809C435.667 276.74 434.569 277.115 433.728 277.853C432.887 278.591 432.373 279.632 432.298 280.749Z" fill="#75A1E9"/>
<path d="M434.204 281.092C434.217 281.605 434.377 282.103 434.666 282.527C434.954 282.951 435.359 283.283 435.831 283.483C436.304 283.684 436.824 283.743 437.329 283.655C437.835 283.567 438.304 283.336 438.681 282.988C439.058 282.64 439.327 282.191 439.456 281.694C439.584 281.197 439.566 280.674 439.405 280.187C439.244 279.7 438.945 279.27 438.546 278.948C438.146 278.626 437.662 278.426 437.152 278.372C436.401 278.345 435.67 278.615 435.118 279.125C434.566 279.634 434.237 280.341 434.204 281.092Z" fill="#A2C0ED"/>
<path d="M428.537 353.804H387.428L383.4 328.961C383.357 328.712 383.37 328.456 383.436 328.212C383.503 327.969 383.622 327.742 383.786 327.55C383.949 327.357 384.153 327.203 384.383 327.097C384.613 326.992 384.863 326.938 385.115 326.94H421.764C422.44 326.938 423.094 327.177 423.609 327.615C424.124 328.054 424.466 328.661 424.572 329.329L428.537 353.804Z" fill="#A2C0ED"/>
<path d="M427.342 353.804H386.234L382.206 328.961C382.165 328.712 382.179 328.457 382.247 328.214C382.314 327.972 382.434 327.746 382.597 327.554C382.76 327.362 382.963 327.208 383.192 327.102C383.42 326.996 383.669 326.941 383.921 326.94H420.62C421.296 326.938 421.951 327.177 422.466 327.615C422.981 328.054 423.322 328.661 423.429 329.329L427.342 353.804Z" fill="url(#paint19_linear)"/>
<path d="M406.896 339.711C406.439 337.614 404.85 336.14 403.338 336.407C401.826 336.674 400.949 338.58 401.407 340.677C401.864 342.774 403.44 344.26 404.965 343.994C406.49 343.727 407.341 341.808 406.896 339.711Z" fill="#ABD1FF"/>
<path style="mix-blend-mode:multiply" opacity="0.75" d="M450.267 307.345C448.386 303.317 443.405 301.602 437.852 299.619L436.327 318.388C437.137 325.432 438.41 332.415 440.139 339.292L422.908 352.253C422.697 352.407 422.466 352.531 422.222 352.622C421.993 352.622 420.316 351.669 419.439 351.821C418.562 351.974 417.533 352.037 417.533 352.355C417.533 352.673 418.892 352.711 418.892 353.016C418.892 353.321 417.977 353.918 417.558 353.918C416.556 353.822 415.548 353.822 414.546 353.918C414.381 354.096 415.067 355.189 415.741 355.799C416.385 356.239 417.135 356.498 417.914 356.548C419.501 356.514 421.071 356.222 422.565 355.684C423.11 355.328 423.675 355.002 424.255 354.706L424.827 355.786C424.827 355.786 448.259 353.918 455.324 350.703C455.553 339.266 455.502 314.131 450.267 307.345Z" fill="url(#paint20_linear)"/>
<path d="M424.432 351.389C423.747 351.813 423.033 352.191 422.297 352.52C421.408 352.159 420.47 351.932 419.514 351.847C418.625 351.974 417.608 352.025 417.608 352.304C417.608 352.584 418.968 352.609 418.968 352.863C418.968 353.117 418.053 353.638 417.634 353.638C416.632 353.555 415.624 353.555 414.622 353.638C414.457 353.791 415.143 354.731 415.817 355.252C416.482 355.629 417.226 355.846 417.99 355.888C419.568 355.861 421.134 355.609 422.64 355.138C423.263 354.757 425.944 353.575 425.944 353.575" fill="#FC8975"/>
<path d="M435.869 296.76C435.869 296.76 447.903 297.523 453.66 308.642C459.416 319.76 457.586 343.447 454.092 346.942C450.597 350.436 423.924 354.795 423.924 354.795L422.908 352.355L441.651 340.639C441.651 340.639 435.869 321.031 435.869 313.089" fill="url(#paint21_linear)"/>
<path d="M428.537 298.628C429.42 299.782 430.115 301.069 430.596 302.44C434.599 301.17 435.844 296.709 435.844 296.709L434.255 294.816C434.255 294.816 431.117 298.12 428.537 298.628Z" fill="url(#paint22_linear)"/>
<path d="M428.537 298.628C427.65 299.567 426.967 300.679 426.529 301.894C425.513 300.877 424.763 297.205 424.865 296.811C425.373 296.036 426.529 294.701 426.529 294.701C426.788 296.183 427.487 297.551 428.537 298.628Z" fill="url(#paint23_linear)"/>
<path d="M78.4601 486.596C78.4601 486.596 70.1494 489.138 70.1494 491.018C70.1494 492.099 82.374 491.819 83.0983 491.082C84.2801 489.9 82.1833 486.342 82.1833 486.342L78.4601 486.596Z" fill="#352E73"/>
<path d="M78.4604 481.297V486.761C78.592 487.059 78.8076 487.311 79.0809 487.487C79.3541 487.663 79.673 487.756 79.998 487.753C80.3947 487.76 80.7875 487.673 81.145 487.501C81.5025 487.329 81.8147 487.076 82.0566 486.761L82.1837 479.925" fill="#FC8975"/>
<path d="M81.2176 331.172C75.6391 338.402 69.0693 358.848 69.0693 397.657C69.0693 425.08 77.9645 482.53 77.9645 482.53L83.0475 482.949C99.3003 380.273 93.8107 381.29 97.8771 363.08C100.419 351.643 95.2466 322.798 95.2466 322.798" fill="url(#paint24_linear)"/>
<path style="mix-blend-mode:multiply" opacity="0.35" d="M94.6747 395.649C94.6747 395.649 91.1674 376.169 91.1674 372.191C89.6545 380.63 89.6545 389.27 91.1674 397.708C92.2857 403.019 93.442 408.217 93.442 408.217L94.6747 395.649Z" fill="url(#paint25_linear)"/>
<path d="M77.7485 481.107V483.28C77.7485 483.28 83.0602 484.169 83.0602 483.839C83.0602 483.508 83.3017 481.297 83.3017 481.297L77.7485 481.107Z" fill="#75A1E9"/>
<path d="M122.809 486.596C122.809 486.596 131.12 489.138 131.12 491.018C131.12 492.099 118.895 491.819 118.171 491.082C116.989 489.9 119.086 486.342 119.086 486.342L122.809 486.596Z" fill="#352E73"/>
<path d="M121.881 481.297L122.809 486.761C122.678 487.059 122.462 487.311 122.189 487.487C121.915 487.663 121.597 487.756 121.271 487.753C120.875 487.76 120.482 487.673 120.125 487.501C119.767 487.329 119.455 487.076 119.213 486.761L118.184 479.925" fill="#FC8975"/>
<path d="M108.259 327.919C113.774 337.182 123.508 356.282 123.508 395.09C123.508 422.525 122.783 482.504 122.783 482.504L118.425 482.949C104.408 443.747 92.7684 393.794 89.9728 364.707C88.8799 353.041 90.9766 322.772 90.9766 322.772" fill="url(#paint26_linear)"/>
<path style="mix-blend-mode:multiply" opacity="0.35" d="M108.907 329.024C102.978 327.239 96.9481 325.805 90.8498 324.729C90.8498 324.958 90.8498 325.199 90.8498 325.453L81.2684 331.172C79.8804 333.069 78.7163 335.12 77.7993 337.284C81.7413 338.79 85.88 339.719 90.0874 340.042C98.0168 340.74 107.878 339.19 112.961 336.814C111.741 334.151 110.389 331.551 108.907 329.024Z" fill="url(#paint27_linear)"/>
<path d="M123.533 480.7V482.873C123.533 482.873 117.955 483.762 117.955 483.432C117.955 483.102 117.701 480.891 117.701 480.891L123.533 480.7Z" fill="#75A1E9"/>
<path d="M151.909 307.485L153.764 306.507C154.006 305.622 154.351 304.769 154.794 303.965C155.124 303.355 156.179 301.856 156.497 301.856C156.814 301.856 156.141 303.406 156.268 303.406C156.395 303.406 158.809 300.865 159.191 301.195C159.407 301.335 157.119 303.736 157.119 303.736C157.119 303.736 159.534 301.068 159.826 301.373C160.118 301.678 157.704 304.143 157.704 304.143C157.704 304.143 159.94 301.754 160.245 302.008C160.55 302.262 158.263 304.55 158.263 304.55C158.263 304.55 160.283 302.529 160.372 302.758C160.461 302.987 159.343 304.613 157.373 306.57C157.03 306.913 155.709 307.93 155.62 308.031L153.548 310.192" fill="#FC8975"/>
<path d="M156.077 303.724C156.141 304.317 156.115 304.917 156.001 305.503C155.795 306.094 155.435 306.621 154.959 307.028C154.883 307.104 154.959 307.244 155.073 307.18C155.606 306.794 156.005 306.25 156.215 305.626C156.424 305.002 156.434 304.328 156.242 303.698C156.242 303.609 156.077 303.698 156.077 303.698V303.724Z" fill="#CC6658"/>
<path d="M34.3146 273.213L33.0438 271.587C33.1795 270.665 33.2093 269.732 33.1328 268.804C33.0721 267.915 32.8253 267.049 32.4084 266.262C32.1162 266.135 32.1289 267.825 32.0018 267.774C31.8747 267.724 30.7311 264.483 30.2101 264.572C30.3767 265.662 30.671 266.728 31.0869 267.749C31.0869 267.749 29.9432 264.343 29.5493 264.496C29.1553 264.648 30.388 267.889 30.388 267.889C30.388 267.889 29.2951 264.801 28.9647 264.941C28.6343 265.08 29.7653 268.067 29.7653 268.067C29.7653 268.067 28.7106 265.398 28.4946 265.525C28.2785 265.652 28.7106 267.635 29.7653 270.227C29.9432 270.672 30.7438 272.146 30.7946 272.26C30.8454 272.374 31.8239 275.081 31.8239 275.081" fill="#FC8975"/>
<path d="M31.7729 268.016C31.3516 268.515 31.096 269.133 31.0413 269.784C30.9867 270.436 31.1358 271.088 31.468 271.65C31.468 271.739 31.6713 271.65 31.6332 271.65C31.3688 271.101 31.2506 270.492 31.2901 269.884C31.4004 269.275 31.6154 268.691 31.9254 268.156C31.9288 268.137 31.9259 268.117 31.9173 268.1C31.9086 268.083 31.8947 268.069 31.8776 268.061C31.8605 268.052 31.841 268.049 31.8222 268.053C31.8033 268.056 31.7861 268.065 31.7729 268.079V268.016Z" fill="#CC6658"/>
<path d="M153.18 306.723C153.18 306.723 134.958 313.432 130.828 313.432C127.41 313.432 121.602 304.207 113.546 297.916C110.271 295.433 106.676 293.403 102.859 291.88L87.61 291.563C82.9884 291.668 78.3766 292.037 73.797 292.668C66.1726 293.698 59.1454 293.354 55.8542 291.88C49.5004 289.021 33.4891 271.853 33.4891 271.853C32.957 271.784 32.4159 271.843 31.9115 272.027C31.4072 272.21 30.9546 272.513 30.5918 272.908C30.5918 273.76 38.8135 297.23 49.6529 304.257C57.6332 309.429 69.2478 310.268 76.5037 310.217V315.059C76.5037 317.435 73.6445 329.177 77.012 332.544C80.1126 335.632 91.9051 336.026 96.5179 336.026C103.342 336.026 110.331 334.946 112.085 332.544C112.949 331.35 112.822 326 112.555 321.107C118.019 324.538 122.962 327.969 129.265 327.969C141.07 327.969 154.959 309.506 154.959 309.506L153.18 306.723Z" fill="url(#paint28_linear)"/>
<path style="mix-blend-mode:multiply" opacity="0.75" d="M112.745 324.513L112.592 321.107L107.484 315.936L112.745 324.513Z" fill="url(#paint29_linear)"/>
<path style="mix-blend-mode:multiply" opacity="0.75" d="M76.5417 310.217C76.5417 309.62 77.5583 303.762 77.5583 302.834C76.0334 306.138 73.7461 310.192 73.7461 310.192L76.5417 310.217Z" fill="url(#paint30_linear)"/>
<path d="M100.253 264.572C104.549 267.253 103.812 272.718 105.552 276.136C106.823 278.601 108.767 280.698 108.958 283.633C109.161 286.836 104.993 288.335 102.757 287.992C98.3855 287.318 94.6368 289.542 90.24 289.009C87.241 288.64 88.372 287.141 86.4278 284.84C85.2737 283.388 84.6028 281.61 84.5089 279.758C84.4006 277.94 84.5287 276.116 84.8902 274.331" fill="#F42A73"/>
<path d="M92.3238 283.1L91.4978 290.965L87.6855 291.563C87.6855 291.563 90.316 296.341 94.5476 296.341C98.7791 296.341 102.858 291.855 102.858 291.855L98.7156 290.584L97.1399 279.529" fill="#FC8975"/>
<path d="M86.0593 270.265C85.6818 272.884 85.7118 275.546 86.1482 278.156C86.3794 279.462 86.9091 280.696 87.696 281.763C88.483 282.83 89.5058 283.7 90.6848 284.307C91.805 284.738 92.9919 284.97 94.192 284.993C96.2063 285.219 98.2367 284.739 99.9358 283.633C100.831 282.854 101.522 281.867 101.949 280.76C102.377 279.653 102.527 278.458 102.388 277.28C102.093 274.957 101.419 272.699 100.393 270.595C99.5461 268.579 98.6989 266.559 97.8518 264.534" fill="#FC8975"/>
<path d="M76.2485 280.749C75.2782 281.658 74.59 282.827 74.2661 284.116C74.2217 284.772 74.3794 285.426 74.7179 285.989C75.0565 286.553 75.5596 286.999 76.1596 287.268C77.1757 287.62 78.2658 287.703 79.3237 287.509C80.5487 287.396 81.7832 287.443 82.9961 287.649C84.0254 287.852 85.0039 288.233 86.0205 288.513C87.4958 288.989 89.0591 289.128 90.5952 288.92C90.7291 288.91 90.8594 288.872 90.9777 288.809C91.0959 288.745 91.1994 288.657 91.2814 288.551C91.3209 288.41 91.3288 288.261 91.3047 288.116C91.2805 287.971 91.2249 287.833 91.1416 287.712C90.3256 285.66 90.0584 283.431 90.3665 281.244C90.4356 280.116 90.6144 278.996 90.9002 277.902C91.1756 276.996 91.5197 276.113 91.9295 275.259C92.6792 273.62 93.6068 272.044 94.3185 270.379C95.0301 268.715 95.4494 266.186 97.7495 266.567C99.2362 266.783 99.8716 269.185 100.863 270.646C102.324 268.969 103.976 267.952 100.863 263.975C99.2998 261.992 96.6312 262.094 94.2676 262.526C92.9334 262.437 92.9969 261.916 91.7261 261.827C89.4707 261.782 87.2481 262.373 85.313 263.533C83.378 264.693 81.8087 266.374 80.7851 268.384C78.6629 272.857 79.1585 277.165 76.2485 280.749Z" fill="#F42A73"/>
<path d="M412.737 1.62813L407.371 5.29192C407.234 5.38625 407.124 5.51257 407.05 5.65907C406.977 5.80556 406.942 5.96746 406.95 6.12965C406.957 6.29184 407.007 6.44902 407.094 6.58653C407.181 6.72403 407.303 6.83737 407.448 6.91596L412.452 9.54472C412.595 9.62082 412.757 9.65996 412.921 9.65849C413.086 9.65703 413.247 9.61501 413.391 9.53636C413.535 9.4577 413.657 9.34496 413.745 9.20865C413.833 9.07234 413.884 8.91689 413.894 8.75679L414.29 2.44522C414.304 2.26321 414.265 2.08158 414.176 1.92206C414.087 1.76254 413.953 1.63187 413.789 1.54569C413.625 1.4595 413.439 1.42145 413.252 1.43607C413.066 1.45069 412.887 1.51736 412.737 1.62813Z" stroke="#CFE0F5" stroke-miterlimit="10"/>
<path d="M307.437 144.708L301.236 147.778C301.078 147.855 300.942 147.972 300.841 148.117C300.741 148.262 300.679 148.431 300.663 148.606C300.646 148.782 300.675 148.959 300.747 149.121C300.818 149.282 300.93 149.422 301.072 149.528L305.887 153.167C306.026 153.272 306.189 153.34 306.361 153.365C306.534 153.39 306.709 153.371 306.872 153.31C307.035 153.248 307.18 153.147 307.293 153.014C307.405 152.882 307.483 152.723 307.518 152.552L308.913 145.828C308.946 145.64 308.927 145.446 308.857 145.267C308.787 145.089 308.67 144.934 308.517 144.818C308.365 144.702 308.183 144.63 307.993 144.611C307.802 144.592 307.61 144.625 307.437 144.708V144.708Z" stroke="#CFE0F5" stroke-miterlimit="10"/>
<path d="M422.092 41.6957L416.237 45.3646C416.086 45.4565 415.961 45.5859 415.874 45.7401C415.787 45.8944 415.742 46.0684 415.742 46.2453C415.743 46.4222 415.788 46.5961 415.875 46.7501C415.962 46.9041 416.088 47.0332 416.239 47.1247L421.387 50.2677C421.536 50.361 421.706 50.4147 421.882 50.4236C422.057 50.4325 422.232 50.3964 422.389 50.3187C422.547 50.241 422.682 50.1243 422.782 49.9796C422.881 49.835 422.942 49.6672 422.959 49.4923L423.678 42.6833C423.698 42.4899 423.662 42.2949 423.576 42.1205C423.49 41.9461 423.357 41.7993 423.192 41.6965C423.027 41.5938 422.837 41.5393 422.642 41.5391C422.448 41.539 422.257 41.5932 422.092 41.6957V41.6957Z" stroke="#CFE0F5" stroke-miterlimit="10"/>
<path d="M346.957 53.5058L341.067 57.1149C340.917 57.208 340.794 57.3375 340.708 57.4914C340.622 57.6454 340.576 57.8186 340.575 57.995C340.574 58.1713 340.618 58.345 340.703 58.4997C340.787 58.6545 340.91 58.7853 341.059 58.8798L346.188 62.0678C346.338 62.1581 346.507 62.2095 346.681 62.2173C346.856 62.2251 347.029 62.1891 347.186 62.1124C347.342 62.0358 347.477 61.921 347.578 61.7787C347.679 61.6363 347.742 61.4709 347.763 61.2977L348.509 54.4518C348.52 54.2654 348.48 54.0795 348.393 53.9141C348.307 53.7487 348.177 53.61 348.017 53.5128C347.858 53.4156 347.675 53.3636 347.488 53.3624C347.302 53.3611 347.118 53.4107 346.957 53.5058V53.5058Z" stroke="#CFE0F5" stroke-miterlimit="10"/>
<path d="M427.07 244.975L423.93 247.375L426.33 250.515L429.469 248.115L427.07 244.975Z" fill="#CFE0F5"/>
<path d="M398.554 217.823L394.606 217.999L394.782 221.947L398.73 221.771L398.554 217.823Z" fill="#CFE0F5"/>
<path d="M144.507 269.065L140.825 270.5L142.26 274.183L145.942 272.748L144.507 269.065Z" fill="#CFE0F5"/>
<path d="M183.02 174.309L179.345 172.886L177.922 176.561L181.597 177.984L183.02 174.309Z" fill="#CFE0F5"/>
<path d="M28.2733 370.128L24.3252 370.304L24.501 374.252L28.4491 374.077L28.2733 370.128Z" fill="#CFE0F5"/>
<defs>
<linearGradient id="paint0_linear" x1="424.56" y1="468.298" x2="424.56" y2="309.201" gradientUnits="userSpaceOnUse">
<stop stop-color="#466DE5"/>
<stop offset="1" stop-color="#78BFFF"/>
</linearGradient>
<linearGradient id="paint1_linear" x1="25995.1" y1="30242.1" x2="25995.1" y2="20552.8" gradientUnits="userSpaceOnUse">
<stop stop-color="#466DE5"/>
<stop offset="1" stop-color="#78BFFF"/>
</linearGradient>
<linearGradient id="paint2_linear" x1="7155.4" y1="34635.4" x2="2090.91" y2="32805.2" gradientUnits="userSpaceOnUse">
<stop stop-color="#466DE5"/>
<stop offset="1" stop-color="#78BFFF"/>
</linearGradient>
<linearGradient id="paint3_linear" x1="5683.8" y1="37180.3" x2="5683.8" y2="22450.1" gradientUnits="userSpaceOnUse">
<stop stop-color="#466DE5"/>
<stop offset="1" stop-color="#78BFFF"/>
</linearGradient>
<linearGradient id="paint4_linear" x1="2099.8" y1="23322.2" x2="2458.99" y2="17942.8" gradientUnits="userSpaceOnUse">
<stop stop-color="#466DE5"/>
<stop offset="1" stop-color="#78BFFF"/>
</linearGradient>
<linearGradient id="paint5_linear" x1="1635.26" y1="13168.4" x2="2486.48" y2="11677.4" gradientUnits="userSpaceOnUse">
<stop stop-color="#466DE5"/>
<stop offset="1" stop-color="#78BFFF"/>
</linearGradient>
<linearGradient id="paint6_linear" x1="208.721" y1="394.944" x2="205.722" y2="263.006" gradientUnits="userSpaceOnUse">
<stop stop-color="#29225E"/>
<stop offset="1" stop-color="#3F368C"/>
</linearGradient>
<linearGradient id="paint7_linear" x1="5572.62" y1="28376.5" x2="5572.62" y2="14691.5" gradientUnits="userSpaceOnUse">
<stop stop-color="#29225E"/>
<stop offset="1" stop-color="#3F368C"/>
</linearGradient>
<linearGradient id="paint8_linear" x1="215.179" y1="232.816" x2="275.438" y2="204.047" gradientUnits="userSpaceOnUse">
<stop stop-color="#FCC73C"/>
<stop offset="1" stop-color="#FC7A3C"/>
</linearGradient>
<linearGradient id="paint9_linear" x1="350.679" y1="515.429" x2="193.945" y2="243.973" gradientUnits="userSpaceOnUse">
<stop stop-color="#B3D3F4"/>
<stop offset="1" stop-color="#D3DCED"/>
</linearGradient>
<linearGradient id="paint10_linear" x1="281.105" y1="460.025" x2="281.105" y2="235.612" gradientUnits="userSpaceOnUse">
<stop stop-color="#FFD5A7"/>
<stop offset="0.37" stop-color="#FFD7AA"/>
<stop offset="0.65" stop-color="#FFDEB4"/>
<stop offset="0.91" stop-color="#FFE9C4"/>
<stop offset="1" stop-color="#FFEECC"/>
</linearGradient>
<linearGradient id="paint11_linear" x1="350.679" y1="515.429" x2="211.545" y2="274.446" gradientUnits="userSpaceOnUse">
<stop stop-color="#CDE8FF"/>
<stop offset="1" stop-color="#EEE7E9"/>
</linearGradient>
<linearGradient id="paint12_linear" x1="75012.6" y1="38577.1" x2="66061.6" y2="17537.6" gradientUnits="userSpaceOnUse">
<stop stop-color="#CDE8FF"/>
<stop offset="1" stop-color="#EEE7E9"/>
</linearGradient>
<linearGradient id="paint13_linear" x1="14991.9" y1="17703.9" x2="13207.5" y2="15266.5" gradientUnits="userSpaceOnUse">
<stop stop-color="#466DE5"/>
<stop offset="1" stop-color="#78BFFF"/>
</linearGradient>
<linearGradient id="paint14_linear" x1="5438.28" y1="3660.9" x2="4289.76" y2="4508.57" gradientUnits="userSpaceOnUse">
<stop stop-color="#FCC73C"/>
<stop offset="1" stop-color="#FC7A3C"/>
</linearGradient>
<linearGradient id="paint15_linear" x1="11427.8" y1="35456.5" x2="11427.8" y2="23249.8" gradientUnits="userSpaceOnUse">
<stop stop-color="#29225E"/>
<stop offset="1" stop-color="#3F368C"/>
</linearGradient>
<linearGradient id="paint16_linear" x1="11711.9" y1="35474.4" x2="11711.9" y2="23261.4" gradientUnits="userSpaceOnUse">
<stop stop-color="#29225E"/>
<stop offset="1" stop-color="#3F368C"/>
</linearGradient>
<linearGradient id="paint17_linear" x1="29358.7" y1="13731.1" x2="29358.7" y2="17128" gradientUnits="userSpaceOnUse">
<stop stop-color="#FCC73C"/>
<stop offset="1" stop-color="#FC7A3C"/>
</linearGradient>
<linearGradient id="paint18_linear" x1="650.425" y1="1445.1" x2="651.072" y2="1445.1" gradientUnits="userSpaceOnUse">
<stop stop-color="#FCC73C"/>
<stop offset="1" stop-color="#FC7A3C"/>
</linearGradient>
<linearGradient id="paint19_linear" x1="422.387" y1="358.76" x2="386.882" y2="323.255" gradientUnits="userSpaceOnUse">
<stop stop-color="#5789EE"/>
<stop offset="1" stop-color="#78BFFF"/>
</linearGradient>
<linearGradient id="paint20_linear" x1="13747.6" y1="9353.08" x2="15061.6" y2="9353.08" gradientUnits="userSpaceOnUse">
<stop stop-color="#FCC73C"/>
<stop offset="1" stop-color="#FC7A3C"/>
</linearGradient>
<linearGradient id="paint21_linear" x1="12356.6" y1="9003.14" x2="12356.6" y2="10882.9" gradientUnits="userSpaceOnUse">
<stop stop-color="#FCC73C"/>
<stop offset="1" stop-color="#FC7A3C"/>
</linearGradient>
<linearGradient id="paint22_linear" x1="432.197" y1="302.491" x2="432.197" y2="294.867" gradientUnits="userSpaceOnUse">
<stop stop-color="#FCAE3C"/>
<stop offset="1" stop-color="#FC7A3C"/>
</linearGradient>
<linearGradient id="paint23_linear" x1="1661.1" y1="1289.91" x2="1661.1" y2="1248.92" gradientUnits="userSpaceOnUse">
<stop stop-color="#FCAE3C"/>
<stop offset="1" stop-color="#FC7A3C"/>
</linearGradient>
<linearGradient id="paint24_linear" x1="2015.56" y1="45301.4" x2="2015.56" y2="25117.5" gradientUnits="userSpaceOnUse">
<stop stop-color="#29225E"/>
<stop offset="1" stop-color="#3F368C"/>
</linearGradient>
<linearGradient id="paint25_linear" x1="427.41" y1="8371.3" x2="427.41" y2="7349.98" gradientUnits="userSpaceOnUse">
<stop stop-color="#29225E"/>
<stop offset="1" stop-color="#3F368C"/>
</linearGradient>
<linearGradient id="paint26_linear" x1="2929.03" y1="45308.5" x2="2929.03" y2="25121.4" gradientUnits="userSpaceOnUse">
<stop stop-color="#29225E"/>
<stop offset="1" stop-color="#3F368C"/>
</linearGradient>
<linearGradient id="paint27_linear" x1="2715.96" y1="2933.61" x2="2715.96" y2="2745.05" gradientUnits="userSpaceOnUse">
<stop stop-color="#29225E"/>
<stop offset="1" stop-color="#3F368C"/>
</linearGradient>
<linearGradient id="paint28_linear" x1="9113.15" y1="8662.87" x2="9113.15" y2="10927.2" gradientUnits="userSpaceOnUse">
<stop stop-color="#FCC73C"/>
<stop offset="1" stop-color="#FC7A3C"/>
</linearGradient>
<linearGradient id="paint29_linear" x1="563.339" y1="1615.94" x2="563.339" y2="1656.34" gradientUnits="userSpaceOnUse">
<stop stop-color="#FCC73C"/>
<stop offset="1" stop-color="#FC7A3C"/>
</linearGradient>
<linearGradient id="paint30_linear" x1="294.855" y1="1351.37" x2="306.406" y2="1351.37" gradientUnits="userSpaceOnUse">
<stop stop-color="#FCC73C"/>
<stop offset="1" stop-color="#FC7A3C"/>
</linearGradient>
</defs>
</svg>
