<svg width="158" height="40" viewBox="0 0 158 40" fill="none" xmlns="http://www.w3.org/2000/svg">
<path fill-rule="evenodd" clip-rule="evenodd" d="M153.394 9.9314L153.395 29.2476H157.671L157.672 9.9314H153.394Z" fill="#3641CA"/>
<path fill-rule="evenodd" clip-rule="evenodd" d="M142.36 21.4302C142.377 21.1073 142.462 20.7982 142.612 20.4981C142.767 20.2039 142.977 19.9416 143.228 19.719C143.487 19.4974 143.785 19.3215 144.12 19.1933C144.483 19.0626 144.866 18.9976 145.252 19.0015C146.088 19.0015 146.713 19.241 147.135 19.719C147.547 20.196 147.756 20.7684 147.756 21.4302H142.36ZM149.833 17.9561C149.266 17.3576 148.575 16.8911 147.808 16.5897C147.027 16.2746 146.165 16.1166 145.229 16.1147C144.253 16.1147 143.345 16.2776 142.516 16.6006C141.706 16.9066 140.965 17.3711 140.336 17.967C139.709 18.5759 139.213 19.3067 138.879 20.1145C138.517 20.9592 138.34 21.8983 138.34 22.9367C138.34 24.011 138.525 24.968 138.891 25.7987C139.259 26.6355 139.761 27.3361 140.402 27.9055C141.053 28.4849 141.813 28.9288 142.638 29.2113C143.497 29.5094 144.4 29.6595 145.355 29.6595C146.65 29.6595 147.791 29.4249 148.767 28.9559C149.723 28.5112 150.541 27.8187 151.138 26.9505L148.222 25.1121C147.921 25.5103 147.537 25.8374 147.096 26.07C146.628 26.3165 146.068 26.4377 145.404 26.4377C145.029 26.4377 144.665 26.3811 144.314 26.2628C143.976 26.1449 143.657 25.9761 143.369 25.762C143.095 25.5555 142.86 25.3005 142.677 25.0097C142.497 24.7138 142.387 24.3807 142.357 24.0358H151.599C151.613 23.8828 151.623 23.7228 151.623 23.5509V23.0411C151.623 21.9509 151.466 20.98 151.145 20.1304C150.86 19.3242 150.414 18.5844 149.834 17.9561H149.833ZM117.321 24.1372C117.325 24.9421 117.098 25.5751 116.645 26.0412C116.188 26.5113 115.542 26.7438 114.691 26.7438C114.484 26.7438 114.271 26.7239 114.048 26.6782C113.84 26.6444 113.64 26.5712 113.459 26.4626C113.29 26.3597 113.145 26.2205 113.036 26.0551C112.921 25.8714 112.863 25.6577 112.869 25.441C112.871 25.0703 112.988 24.7682 113.229 24.5367C113.468 24.3032 113.774 24.1292 114.136 24.011C114.507 23.8917 114.919 23.8122 115.39 23.7685C115.857 23.7248 116.325 23.7049 116.786 23.7049L117.322 23.7039V24.1372H117.321ZM120.842 19.8323C120.628 18.9896 120.295 18.2939 119.83 17.7374C119.368 17.1859 118.771 16.7775 118.027 16.5141C117.283 16.2458 116.379 16.1137 115.304 16.1137C114.26 16.1158 113.225 16.2973 112.243 16.6503C111.266 16.998 110.373 17.5475 109.622 18.2631L111.744 20.5368C112.168 20.1567 112.649 19.8461 113.169 19.6166C113.708 19.3621 114.297 19.23 114.893 19.2301C115.543 19.2281 116.086 19.3821 116.533 19.6772C116.97 19.9774 117.195 20.4434 117.195 21.0735V21.2792C116.246 21.2809 115.298 21.3313 114.354 21.4302C113.383 21.5346 112.498 21.7373 111.702 22.0463C110.916 22.3494 110.267 22.7817 109.762 23.3462C109.256 23.9096 109.008 24.649 109.01 25.5682C109.008 26.3185 109.15 26.9495 109.441 27.4613C109.732 27.9711 110.102 28.3795 110.556 28.6866C111.01 28.9946 111.506 29.2162 112.053 29.3504C112.572 29.4822 113.105 29.5503 113.64 29.5531C114.375 29.5591 115.103 29.4115 115.777 29.1199C116.433 28.8307 116.924 28.4242 117.248 27.8946H117.322V29.2481H121.158V22.8354C121.158 21.6767 121.054 20.675 120.842 19.8323ZM103.531 24.0517C103.402 24.4492 103.21 24.802 102.953 25.1111C102.69 25.4189 102.368 25.6701 102.004 25.8494C101.631 26.0382 101.196 26.1307 100.702 26.1307C100.225 26.1307 99.7973 26.0372 99.4217 25.8494C99.0471 25.6606 98.7261 25.4171 98.4607 25.1111C98.1976 24.7989 97.9893 24.4444 97.8446 24.0627C97.706 23.6761 97.6338 23.2689 97.631 22.8582C97.631 22.4488 97.7015 22.0543 97.8446 21.6637C97.9927 21.2663 98.2014 20.9204 98.4588 20.6114C98.7271 20.3073 99.0451 20.0579 99.4217 19.869C99.7963 19.6832 100.227 19.5908 100.705 19.5908C101.197 19.5908 101.631 19.6842 102.004 19.871C102.382 20.0578 102.697 20.3013 102.955 20.6024C103.21 20.8976 103.402 21.2444 103.529 21.6349C103.659 22.0275 103.725 22.424 103.721 22.8354C103.721 23.2428 103.658 23.6473 103.531 24.0517ZM106.138 18.1588C105.618 17.5455 104.974 17.0488 104.248 16.701C103.501 16.3432 102.668 16.1633 101.75 16.1643C100.816 16.1633 100.021 16.3432 99.374 16.701C98.7201 17.0587 98.2183 17.4552 97.8625 17.8776H97.8079L97.8118 9.93154L93.6132 9.93352V29.2481H97.4779L97.4759 27.5885H97.5256C97.937 28.2344 98.5214 28.7333 99.2796 29.0831C100.041 29.4309 100.847 29.6068 101.697 29.6068C102.653 29.6068 103.509 29.418 104.261 29.0463C104.993 28.6828 105.641 28.1723 106.166 27.5468C106.695 26.9094 107.098 26.1777 107.354 25.3903C107.627 24.5735 107.765 23.7208 107.765 22.8364C107.765 21.949 107.626 21.1023 107.344 20.2914C107.08 19.5111 106.671 18.7876 106.138 18.1588ZM132.846 24.0517C132.717 24.4492 132.526 24.802 132.269 25.1111C132.006 25.4189 131.683 25.6701 131.32 25.8494C130.947 26.0382 130.511 26.1307 130.018 26.1307C129.54 26.1307 129.113 26.0372 128.737 25.8494C128.363 25.6606 128.042 25.4171 127.776 25.1111C127.514 24.7985 127.306 24.4441 127.16 24.0627C127.022 23.6761 126.95 23.2689 126.948 22.8582C126.946 22.4488 127.017 22.0543 127.16 21.6637C127.309 21.2663 127.518 20.9204 127.775 20.6114C128.042 20.3073 128.361 20.0579 128.737 19.869C129.113 19.6832 129.542 19.5908 130.02 19.5908C130.512 19.5908 130.947 19.6842 131.32 19.871C131.698 20.0578 132.014 20.3013 132.272 20.6024C132.526 20.8976 132.717 21.2444 132.844 21.6349C132.975 22.0275 133.04 22.424 133.036 22.8354C133.036 23.2428 132.975 23.6473 132.846 24.0517ZM135.454 18.1588C134.934 17.5454 134.289 17.0487 133.564 16.701C132.818 16.3432 131.986 16.1633 131.066 16.1643C130.132 16.1633 129.337 16.3432 128.69 16.701C128.036 17.0587 127.535 17.4552 127.179 17.8776H127.123L127.127 9.93154L122.929 9.93352V29.2481H126.794V27.5885H126.843C127.254 28.2344 127.837 28.7333 128.595 29.0831C129.356 29.4309 130.162 29.6068 131.013 29.6068C131.969 29.6068 132.825 29.418 133.577 29.0463C134.309 28.6832 134.958 28.1726 135.483 27.5468C136.011 26.9095 136.414 26.1777 136.669 25.3903C136.943 24.5735 137.081 23.7208 137.081 22.8364C137.081 21.949 136.942 21.1023 136.661 20.2914C136.396 19.5112 135.986 18.7877 135.454 18.1588ZM73.1022 21.9937C73.1022 22.4886 73.0426 22.9576 72.9224 23.3998C72.81 23.8312 72.6093 24.2346 72.3331 24.5844C72.0527 24.9448 71.6883 25.2311 71.2718 25.4181C70.8375 25.6219 70.3158 25.7242 69.7006 25.7232C69.0835 25.7242 68.5618 25.6209 68.1275 25.4161C67.7137 25.2306 67.3526 24.9447 67.0771 24.5844C66.8087 24.2288 66.6086 23.8264 66.4868 23.3978C66.3588 22.9408 66.2946 22.4683 66.296 21.9937V11.0823H61.9464V22.3475C61.9464 23.4406 62.1253 24.4313 62.483 25.3307C62.8428 26.2211 63.3535 26.9893 64.0194 27.6263C64.6832 28.2672 65.4931 28.7661 66.4501 29.1248C67.4041 29.4776 68.4843 29.6615 69.6728 29.6615C70.8504 29.6615 71.9236 29.4776 72.8896 29.1268C73.8475 28.7671 74.6734 28.2682 75.359 27.6263C76.042 26.983 76.577 26.1991 76.9272 25.3287C77.2949 24.4313 77.4777 23.4406 77.4777 22.3475L77.4807 11.0823H73.1022V21.9937ZM90.2862 17.9551C89.749 17.3613 89.0863 16.8945 88.3464 16.5887C87.5941 16.2756 86.4453 16.1147 85.547 16.1147C84.6486 16.1147 83.4998 16.2756 82.7486 16.5887C82.0083 16.8945 81.3453 17.3613 80.8078 17.9551C80.2652 18.5533 79.8438 19.2768 79.5417 20.1294C79.2367 20.981 79.2506 21.9499 79.2516 23.0421V29.25H83.4949V22.2739C83.5366 21.1709 84.434 20.2864 85.547 20.2884C86.0798 20.2891 86.5916 20.4966 86.9746 20.8671C87.3576 21.2377 87.5818 21.7423 87.6001 22.2749V29.25H91.8424V23.0411C91.8444 21.948 91.8573 20.9801 91.5522 20.1284C91.2501 19.2748 90.8287 18.5523 90.2862 17.9541V17.9551ZM49.4868 35.8783H42.0634V16.0828C42.0634 15.1661 41.8596 14.2608 41.4667 13.4326C41.0739 12.6043 40.5018 11.8736 39.7919 11.2936C39.0821 10.7135 38.2521 10.2985 37.3621 10.0786C36.4722 9.85867 35.5445 9.83933 34.6461 10.022C35.4509 9.19836 36.4124 8.54414 37.474 8.09785C38.5355 7.65155 39.6757 7.4222 40.8272 7.42331C41.9645 7.42331 43.0906 7.64733 44.1413 8.08258C45.192 8.51782 46.1467 9.15577 46.9508 9.95998C47.7549 10.7642 48.3928 11.7189 48.8279 12.7697C49.263 13.8204 49.4869 14.9466 49.4868 16.0838V35.8793V35.8783ZM29.6913 16.0828V23.5062C29.6914 24.6435 29.4675 25.7697 29.0324 26.8205C28.5973 27.8713 27.9595 28.8261 27.1554 29.6304C26.3512 30.4347 25.3966 31.0727 24.3459 31.5081C23.2952 31.9434 22.169 32.1676 21.0317 32.1677C19.8803 32.1686 18.7404 31.9392 17.6791 31.4929C16.6177 31.0466 15.6563 30.3925 14.8516 29.569C15.75 29.7515 16.6777 29.732 17.5676 29.512C18.4575 29.2919 19.2874 28.8768 19.9971 28.2966C20.7069 27.7165 21.2789 26.9858 21.6716 26.1575C22.0643 25.3291 22.268 24.4239 22.2679 23.5072V16.0838C22.2679 8.56811 28.3616 2.47543 35.8774 2.47543C39.1766 2.47543 42.2016 3.65004 44.5578 5.60376C43.3607 5.17305 42.0984 4.95152 40.8262 4.94887C34.6769 4.94887 29.6913 9.93452 29.6913 16.0838V16.0828ZM16.0828 37.1176C8.56612 37.1176 2.47444 31.0239 2.47444 23.5072V3.71265H9.89676V23.5062C9.89676 29.6565 14.8824 34.6421 21.0317 34.6421C22.3425 34.6421 23.5946 34.4036 24.7623 33.9872C22.3241 36.0133 19.2529 37.1206 16.0828 37.1166V37.1176ZM35.8783 0C26.9942 0 19.7945 7.20171 19.7945 16.0838V23.5072C19.7945 23.9946 19.6985 24.4772 19.512 24.9275C19.3254 25.3779 19.052 25.787 18.7074 26.1317C18.3627 26.4764 17.9536 26.7498 17.5032 26.9363C17.0529 27.1228 16.5703 27.2188 16.0828 27.2188C15.5954 27.2188 15.1128 27.1228 14.6625 26.9363C14.2121 26.7498 13.803 26.4764 13.4583 26.1317C13.1137 25.787 12.8403 25.3779 12.6537 24.9275C12.4672 24.4772 12.3712 23.9946 12.3712 23.5072V1.23622H0V23.5062C0 32.3893 7.20071 39.589 16.0838 39.589C24.5824 39.589 31.5227 32.9935 32.1101 24.645C32.1468 24.2704 32.1667 23.8907 32.1667 23.5052V16.0819C32.1667 15.0975 32.5577 14.1534 33.2538 13.4573C33.9499 12.7612 34.894 12.3702 35.8783 12.3702C36.8627 12.3702 37.8068 12.7612 38.5029 13.4573C39.199 14.1534 39.59 15.0975 39.59 16.0819V38.3518H51.9622V16.0819C51.9622 15.6993 51.9423 15.3187 51.9046 14.944C51.3172 6.59651 44.3759 0.000993752 35.8774 0.000993752L35.8783 0Z" fill="#3641CA"/>
</svg>
