<svg width="490" height="385" viewBox="0 0 490 385" fill="none" xmlns="http://www.w3.org/2000/svg">
<path d="M191.059 351.291L157.161 340.019L171.645 320.563L191.059 351.291Z" fill="#757575"/>
<path d="M462.321 70.4841L456.928 47.6309C456.62 46.0867 456.003 44.5426 455.233 43.1529L447.991 29.2556V36.2042C443.523 33.7336 437.822 33.4248 432.737 35.741L405.773 47.7853C419.024 58.131 431.967 69.8665 440.595 83.6093L446.605 76.1974L455.233 77.896C459.547 78.5136 463.245 74.8077 462.321 70.4841Z" fill="#757575"/>
<path d="M240.518 243.047L398.221 46.3857L392.829 45.3048C388.206 44.3783 387.436 37.8929 391.75 36.0399L428.729 19.5177C438.744 15.0397 450.3 20.753 452.92 31.5619L458.312 54.4152C459.237 58.5844 455.539 62.4447 451.379 61.6726L442.75 59.9741L271.18 271.923L240.518 243.047Z" fill="white"/>
<path d="M253.769 242.738L209.548 230.231L168.563 282.114L189.21 311.144L199.225 322.57L219.255 303.114" fill="#E8E8E8"/>
<path opacity="0.23" d="M207.083 262.195C204.926 267.136 199.995 271.614 195.989 272.232C191.983 272.849 190.288 269.452 192.446 264.665C194.603 259.724 199.533 255.246 203.539 254.628C207.699 253.856 209.24 257.254 207.083 262.195Z" fill="#0083FF"/>
<path d="M265.942 306.511L227.422 298.945L246.99 270.07L261.165 284.121L263.63 289.526" fill="#757575"/>
<path d="M130.505 375.534L99.6895 384.645L176.729 284.276L195.835 316.703L253.769 242.738L271.18 271.923L378.112 140.053L384.891 153.178L265.942 306.511L247.298 275.474L191.059 351.291L171.645 320.563L130.505 375.534Z" fill="#AFAFAF"/>
<path d="M171.645 320.563L154.696 343.416C148.841 341.409 142.524 339.556 135.744 337.857L176.729 284.584L195.989 316.857L253.769 242.893L271.18 272.077L433.993 70.7012L440.618 83.6719L265.942 306.666L247.298 275.474L191.059 351.291L171.645 320.563Z" fill="#C9C9C9"/>
<path d="M176.729 284.276L129.889 271.305L57.1635 367.505L99.6895 384.645L176.729 284.276Z" fill="#CDCDCD"/>
<path opacity="0.23" d="M110.783 362.873C109.088 366.887 104.928 370.593 101.693 371.056C98.4569 371.674 97.0702 368.895 98.7651 364.88C100.46 360.865 104.62 357.159 107.856 356.696C111.246 356.233 112.478 359.012 110.783 362.873Z" fill="#0083FF"/>
<path opacity="0.59" d="M482.451 280.532H382.454C378.293 280.532 375.058 277.29 375.058 273.12V168.428C375.058 164.259 378.293 161.016 382.454 161.016H482.451C486.611 161.016 489.847 164.259 489.847 168.428V273.12C489.847 277.29 486.611 280.532 482.451 280.532Z" fill="#3BFAFF"/>
<path d="M480.602 161.016H384.456C379.372 161.016 375.212 165.185 375.212 170.28V177.383H490.001V170.28C490.001 162.812 486.686 161.016 480.602 161.016Z" fill="#0083FF"/>
<path d="M387.23 170.126C387.23 172.597 385.227 174.45 382.916 174.45C380.605 174.45 378.602 172.442 378.602 170.126C378.602 167.81 380.605 165.802 382.916 165.802C385.227 165.802 387.23 167.655 387.23 170.126Z" fill="#0083FF"/>
<path d="M382.916 173.523C384.788 173.523 386.306 172.002 386.306 170.126C386.306 168.25 384.788 166.729 382.916 166.729C381.044 166.729 379.526 168.25 379.526 170.126C379.526 172.002 381.044 173.523 382.916 173.523Z" fill="#E70F40"/>
<path d="M393.239 174.295C395.537 174.295 397.399 172.429 397.399 170.126C397.399 167.823 395.537 165.957 393.239 165.957C390.942 165.957 389.079 167.823 389.079 170.126C389.079 172.429 390.942 174.295 393.239 174.295Z" fill="#0083FF"/>
<path d="M393.239 173.523C395.111 173.523 396.629 172.002 396.629 170.126C396.629 168.25 395.111 166.729 393.239 166.729C391.367 166.729 389.849 168.25 389.849 170.126C389.849 172.002 391.367 173.523 393.239 173.523Z" fill="#FFCB1C"/>
<path d="M403.408 174.295C405.706 174.295 407.569 172.429 407.569 170.126C407.569 167.823 405.706 165.957 403.408 165.957C401.111 165.957 399.248 167.823 399.248 170.126C399.248 172.429 401.111 174.295 403.408 174.295Z" fill="#0083FF"/>
<path d="M406.798 170.126C406.798 171.979 405.257 173.523 403.408 173.523C401.559 173.523 400.019 171.979 400.019 170.126C400.019 168.273 401.559 166.729 403.408 166.729C405.257 166.729 406.798 168.273 406.798 170.126Z" fill="#3BFAFF"/>
<path d="M409.572 194.214C409.572 202.553 402.792 209.193 394.626 209.193C386.306 209.193 379.68 202.398 379.68 194.214C379.68 185.876 386.46 179.236 394.626 179.236C402.792 179.236 409.572 186.031 409.572 194.214Z" fill="#0083FF"/>
<path d="M406.798 194.215C406.798 201.009 401.251 206.413 394.626 206.413C387.846 206.413 382.454 200.854 382.454 194.215C382.454 187.42 387.846 182.016 394.626 182.016C401.251 182.016 406.798 187.42 406.798 194.215Z" fill="#0083FF"/>
<path d="M397.861 187.884C397.861 189.737 396.321 191.127 394.626 191.127C392.931 191.127 391.39 189.582 391.39 187.884C391.39 186.031 392.931 184.641 394.626 184.641C396.321 184.641 397.861 186.031 397.861 187.884Z" fill="#FFCB1C"/>
<path d="M398.478 203.48H390.62C389.849 203.48 389.079 202.862 389.079 201.935V195.913C389.079 193.597 390.928 191.744 393.239 191.744H395.704C398.016 191.744 399.865 193.597 399.865 195.913V201.935C400.019 202.862 399.402 203.48 398.478 203.48Z" fill="#FFCB1C"/>
<path d="M397.861 221.391C397.861 223.244 396.321 224.634 394.626 224.634C392.931 224.634 391.39 223.09 391.39 221.391C391.39 219.538 392.931 218.148 394.626 218.148C396.321 218.148 397.861 219.538 397.861 221.391Z" fill="#002185"/>
<path d="M398.478 236.987H390.62C389.849 236.987 389.079 236.37 389.079 235.443V229.421C389.079 227.105 390.928 225.252 393.239 225.252H395.704C398.016 225.252 399.865 227.105 399.865 229.421V235.443C400.019 236.37 399.402 236.987 398.478 236.987Z" fill="#002185"/>
<path d="M397.861 254.59C397.861 256.443 396.321 257.833 394.626 257.833C392.931 257.833 391.39 256.289 391.39 254.59C391.39 252.892 392.931 251.348 394.626 251.348C396.321 251.348 397.861 252.737 397.861 254.59Z" fill="#002185"/>
<path d="M398.478 270.186H390.62C389.849 270.186 389.079 269.568 389.079 268.642V262.62C389.079 260.304 390.928 258.451 393.239 258.451H395.704C398.016 258.451 399.865 260.304 399.865 262.62V268.642C400.019 269.568 399.402 270.186 398.478 270.186Z" fill="#002185"/>
<path opacity="0.59" d="M481.989 209.502H424.055C422.206 209.502 420.665 207.957 420.665 206.104V182.788C420.665 180.935 422.206 179.391 424.055 179.391H481.989C483.838 179.391 485.379 180.935 485.379 182.788V206.104C485.533 207.957 483.838 209.502 481.989 209.502Z" fill="#3BFAFF"/>
<path d="M480.448 184.023H425.596C425.288 184.023 424.826 183.715 424.826 183.251C424.826 182.942 425.134 182.479 425.596 182.479H480.448C480.756 182.479 481.219 182.788 481.219 183.251C481.219 183.715 480.911 184.023 480.448 184.023Z" fill="#FFCB1C"/>
<path d="M436.073 188.038H425.596C425.288 188.038 424.98 187.729 424.98 187.42C424.98 187.111 425.288 186.802 425.596 186.802H436.073C436.381 186.802 436.69 187.111 436.69 187.42C436.69 187.729 436.381 188.038 436.073 188.038Z" fill="#3BFAFF"/>
<path d="M451.019 188.038H440.542C440.233 188.038 439.925 187.729 439.925 187.42C439.925 187.111 440.233 186.802 440.542 186.802H451.019C451.327 186.802 451.635 187.111 451.635 187.42C451.635 187.729 451.327 188.038 451.019 188.038Z" fill="#3BFAFF"/>
<path d="M465.965 188.038H455.487C455.179 188.038 454.871 187.729 454.871 187.42C454.871 187.111 455.179 186.802 455.487 186.802H465.965C466.273 186.802 466.581 187.111 466.581 187.42C466.581 187.729 466.273 188.038 465.965 188.038Z" fill="#3BFAFF"/>
<path d="M480.602 188.038H470.125C469.817 188.038 469.509 187.729 469.509 187.42C469.509 187.111 469.817 186.802 470.125 186.802H480.602C480.911 186.802 481.219 187.111 481.219 187.42C481.219 187.729 480.911 188.038 480.602 188.038Z" fill="#3BFAFF"/>
<path d="M436.073 192.053H425.596C425.288 192.053 424.98 191.744 424.98 191.435C424.98 191.126 425.288 190.817 425.596 190.817H436.073C436.381 190.817 436.69 191.126 436.69 191.435C436.69 191.744 436.381 192.053 436.073 192.053Z" fill="#3BFAFF"/>
<path d="M451.019 192.052H440.542C440.233 192.052 439.925 191.744 439.925 191.435C439.925 191.126 440.233 190.817 440.542 190.817H451.019C451.327 190.817 451.635 191.126 451.635 191.435C451.635 191.744 451.327 192.052 451.019 192.052Z" fill="#3BFAFF"/>
<path d="M465.965 192.052H455.487C455.179 192.052 454.871 191.744 454.871 191.435C454.871 191.126 455.179 190.817 455.487 190.817H465.965C466.273 190.817 466.581 191.126 466.581 191.435C466.581 191.744 466.273 192.052 465.965 192.052Z" fill="#3BFAFF"/>
<path d="M480.602 192.052H470.125C469.817 192.052 469.509 191.744 469.509 191.435C469.509 191.126 469.817 190.817 470.125 190.817H480.602C480.911 190.817 481.219 191.126 481.219 191.435C481.219 191.744 480.911 192.052 480.602 192.052Z" fill="#3BFAFF"/>
<path d="M436.073 196.068H425.596C425.288 196.068 424.98 195.759 424.98 195.45C424.98 195.141 425.288 194.832 425.596 194.832H436.073C436.381 194.832 436.69 195.141 436.69 195.45C436.69 195.759 436.381 196.068 436.073 196.068Z" fill="#3BFAFF"/>
<path d="M451.019 196.068H440.542C440.233 196.068 439.925 195.759 439.925 195.45C439.925 195.141 440.233 194.832 440.542 194.832H451.019C451.327 194.832 451.635 195.141 451.635 195.45C451.635 195.759 451.327 196.068 451.019 196.068Z" fill="#3BFAFF"/>
<path d="M465.965 196.068H455.487C455.179 196.068 454.871 195.759 454.871 195.45C454.871 195.141 455.179 194.832 455.487 194.832H465.965C466.273 194.832 466.581 195.141 466.581 195.45C466.581 195.759 466.273 196.068 465.965 196.068Z" fill="#3BFAFF"/>
<path d="M480.602 196.068H470.125C469.817 196.068 469.509 195.759 469.509 195.45C469.509 195.141 469.817 194.832 470.125 194.832H480.602C480.911 194.832 481.219 195.141 481.219 195.45C481.219 195.759 480.911 196.068 480.602 196.068Z" fill="#3BFAFF"/>
<path d="M436.073 200.082H425.596C425.288 200.082 424.98 199.773 424.98 199.465C424.98 199.156 425.288 198.847 425.596 198.847H436.073C436.381 198.847 436.69 199.156 436.69 199.465C436.69 199.773 436.381 200.082 436.073 200.082Z" fill="#3BFAFF"/>
<path d="M451.019 200.082H440.542C440.233 200.082 439.925 199.773 439.925 199.465C439.925 199.156 440.233 198.847 440.542 198.847H451.019C451.327 198.847 451.635 199.156 451.635 199.465C451.635 199.773 451.327 200.082 451.019 200.082Z" fill="#3BFAFF"/>
<path d="M465.965 200.082H455.487C455.179 200.082 454.871 199.773 454.871 199.465C454.871 199.156 455.179 198.847 455.487 198.847H465.965C466.273 198.847 466.581 199.156 466.581 199.465C466.581 199.773 466.273 200.082 465.965 200.082Z" fill="#3BFAFF"/>
<path d="M480.602 200.082H470.125C469.817 200.082 469.509 199.773 469.509 199.465C469.509 199.156 469.817 198.847 470.125 198.847H480.602C480.911 198.847 481.219 199.156 481.219 199.465C481.219 199.773 480.911 200.082 480.602 200.082Z" fill="#3BFAFF"/>
<path d="M436.073 204.098H425.596C425.288 204.098 424.98 203.789 424.98 203.48C424.98 203.171 425.288 202.862 425.596 202.862H436.073C436.381 202.862 436.69 203.171 436.69 203.48C436.69 203.789 436.381 204.098 436.073 204.098Z" fill="#3BFAFF"/>
<path d="M451.019 204.097H440.542C440.233 204.097 439.925 203.788 439.925 203.479C439.925 203.171 440.233 202.862 440.542 202.862H451.019C451.327 202.862 451.635 203.171 451.635 203.479C451.635 203.788 451.327 204.097 451.019 204.097Z" fill="#3BFAFF"/>
<path d="M465.965 204.097H455.487C455.179 204.097 454.871 203.788 454.871 203.479C454.871 203.171 455.179 202.862 455.487 202.862H465.965C466.273 202.862 466.581 203.171 466.581 203.479C466.581 203.788 466.273 204.097 465.965 204.097Z" fill="#3BFAFF"/>
<path d="M480.602 204.097H470.125C469.817 204.097 469.509 203.788 469.509 203.479C469.509 203.171 469.817 202.862 470.125 202.862H480.602C480.911 202.862 481.219 203.171 481.219 203.479C481.219 203.788 480.911 204.097 480.602 204.097Z" fill="#3BFAFF"/>
<path d="M409.453 228.603C410.134 220.359 404.017 213.123 395.791 212.44C387.565 211.758 380.344 217.888 379.664 226.132C378.983 234.376 385.099 241.612 393.326 242.295C401.552 242.977 408.773 236.847 409.453 228.603Z" fill="#0083FF"/>
<path d="M394.626 239.612C401.348 239.612 406.798 234.15 406.798 227.413C406.798 220.676 401.348 215.214 394.626 215.214C387.903 215.214 382.453 220.676 382.453 227.413C382.453 234.15 387.903 239.612 394.626 239.612Z" fill="#0083FF"/>
<path opacity="0.59" d="M481.989 242.7H424.055C422.206 242.7 420.665 241.156 420.665 239.303V215.987C420.665 214.134 422.206 212.59 424.055 212.59H481.989C483.838 212.59 485.379 214.134 485.379 215.987V239.303C485.533 241.156 483.838 242.7 481.989 242.7Z" fill="#3BFAFF"/>
<path d="M480.448 217.222H425.596C425.288 217.222 424.825 216.913 424.825 216.45C424.825 216.141 425.134 215.678 425.596 215.678H480.448C480.756 215.678 481.219 215.987 481.219 216.45C481.219 216.913 480.91 217.222 480.448 217.222Z" fill="#FFCB1C"/>
<path d="M436.073 221.237H425.596C425.288 221.237 424.979 220.928 424.979 220.62C424.979 220.311 425.288 220.002 425.596 220.002H436.073C436.381 220.002 436.69 220.311 436.69 220.62C436.69 220.928 436.381 221.237 436.073 221.237Z" fill="#3BFAFF"/>
<path d="M451.019 221.237H440.542C440.233 221.237 439.925 220.928 439.925 220.619C439.925 220.31 440.233 220.001 440.542 220.001H451.019C451.327 220.001 451.635 220.31 451.635 220.619C451.635 220.928 451.327 221.237 451.019 221.237Z" fill="#3BFAFF"/>
<path d="M465.965 221.237H455.487C455.179 221.237 454.871 220.928 454.871 220.619C454.871 220.31 455.179 220.001 455.487 220.001H465.965C466.273 220.001 466.581 220.31 466.581 220.619C466.581 220.928 466.273 221.237 465.965 221.237Z" fill="#3BFAFF"/>
<path d="M480.602 221.237H470.125C469.817 221.237 469.509 220.928 469.509 220.619C469.509 220.31 469.817 220.001 470.125 220.001H480.602C480.91 220.001 481.219 220.31 481.219 220.619C481.219 220.928 480.91 221.237 480.602 221.237Z" fill="#3BFAFF"/>
<path d="M436.073 225.252H425.596C425.288 225.252 424.979 224.943 424.979 224.634C424.979 224.325 425.288 224.017 425.596 224.017H436.073C436.381 224.017 436.69 224.325 436.69 224.634C436.69 224.943 436.381 225.252 436.073 225.252Z" fill="#3BFAFF"/>
<path d="M451.019 225.251H440.542C440.233 225.251 439.925 224.943 439.925 224.634C439.925 224.325 440.233 224.016 440.542 224.016H451.019C451.327 224.016 451.635 224.325 451.635 224.634C451.635 224.943 451.327 225.251 451.019 225.251Z" fill="#3BFAFF"/>
<path d="M465.965 225.251H455.487C455.179 225.251 454.871 224.943 454.871 224.634C454.871 224.325 455.179 224.016 455.487 224.016H465.965C466.273 224.016 466.581 224.325 466.581 224.634C466.581 224.943 466.273 225.251 465.965 225.251Z" fill="#3BFAFF"/>
<path d="M480.602 225.251H470.125C469.817 225.251 469.509 224.943 469.509 224.634C469.509 224.325 469.817 224.016 470.125 224.016H480.602C480.91 224.016 481.219 224.325 481.219 224.634C481.219 224.943 480.91 225.251 480.602 225.251Z" fill="#3BFAFF"/>
<path d="M436.073 229.267H425.596C425.288 229.267 424.979 228.958 424.979 228.649C424.979 228.34 425.288 228.031 425.596 228.031H436.073C436.381 228.031 436.69 228.34 436.69 228.649C436.69 228.958 436.381 229.267 436.073 229.267Z" fill="#3BFAFF"/>
<path d="M451.019 229.266H440.542C440.233 229.266 439.925 228.957 439.925 228.648C439.925 228.34 440.233 228.031 440.542 228.031H451.019C451.327 228.031 451.635 228.34 451.635 228.648C451.635 228.957 451.327 229.266 451.019 229.266Z" fill="#3BFAFF"/>
<path d="M465.965 229.266H455.487C455.179 229.266 454.871 228.957 454.871 228.648C454.871 228.34 455.179 228.031 455.487 228.031H465.965C466.273 228.031 466.581 228.34 466.581 228.648C466.581 228.957 466.273 229.266 465.965 229.266Z" fill="#3BFAFF"/>
<path d="M480.602 229.266H470.125C469.817 229.266 469.509 228.957 469.509 228.648C469.509 228.34 469.817 228.031 470.125 228.031H480.602C480.91 228.031 481.219 228.34 481.219 228.648C481.219 228.957 480.91 229.266 480.602 229.266Z" fill="#3BFAFF"/>
<path d="M436.073 233.281H425.596C425.288 233.281 424.979 232.973 424.979 232.664C424.979 232.355 425.288 232.046 425.596 232.046H436.073C436.381 232.046 436.69 232.355 436.69 232.664C436.69 232.973 436.381 233.281 436.073 233.281Z" fill="#3BFAFF"/>
<path d="M451.019 233.281H440.542C440.233 233.281 439.925 232.972 439.925 232.664C439.925 232.355 440.233 232.046 440.542 232.046H451.019C451.327 232.046 451.635 232.355 451.635 232.664C451.635 232.972 451.327 233.281 451.019 233.281Z" fill="#3BFAFF"/>
<path d="M465.965 233.281H455.487C455.179 233.281 454.871 232.972 454.871 232.664C454.871 232.355 455.179 232.046 455.487 232.046H465.965C466.273 232.046 466.581 232.355 466.581 232.664C466.581 232.972 466.273 233.281 465.965 233.281Z" fill="#3BFAFF"/>
<path d="M480.602 233.281H470.125C469.817 233.281 469.509 232.972 469.509 232.664C469.509 232.355 469.817 232.046 470.125 232.046H480.602C480.91 232.046 481.219 232.355 481.219 232.664C481.219 232.972 480.91 233.281 480.602 233.281Z" fill="#3BFAFF"/>
<path d="M436.073 237.296H425.596C425.288 237.296 424.979 236.987 424.979 236.678C424.979 236.37 425.288 236.061 425.596 236.061H436.073C436.381 236.061 436.69 236.37 436.69 236.678C436.69 236.987 436.381 237.296 436.073 237.296Z" fill="#3BFAFF"/>
<path d="M451.019 237.296H440.542C440.233 237.296 439.925 236.987 439.925 236.678C439.925 236.369 440.233 236.061 440.542 236.061H451.019C451.327 236.061 451.635 236.369 451.635 236.678C451.635 236.987 451.327 237.296 451.019 237.296Z" fill="#3BFAFF"/>
<path d="M465.965 237.296H455.487C455.179 237.296 454.871 236.987 454.871 236.678C454.871 236.369 455.179 236.061 455.487 236.061H465.965C466.273 236.061 466.581 236.369 466.581 236.678C466.581 236.987 466.273 237.296 465.965 237.296Z" fill="#3BFAFF"/>
<path d="M480.602 237.296H470.125C469.817 237.296 469.509 236.987 469.509 236.678C469.509 236.369 469.817 236.061 470.125 236.061H480.602C480.91 236.061 481.219 236.369 481.219 236.678C481.219 236.987 480.91 237.296 480.602 237.296Z" fill="#3BFAFF"/>
<path d="M394.626 275.591C402.88 275.591 409.572 268.885 409.572 260.612C409.572 252.34 402.88 245.634 394.626 245.634C386.372 245.634 379.68 252.34 379.68 260.612C379.68 268.885 386.372 275.591 394.626 275.591Z" fill="#0083FF"/>
<path d="M406.798 260.612C406.798 267.407 401.251 272.811 394.626 272.811C387.846 272.811 382.454 267.252 382.454 260.612C382.454 253.972 387.846 248.414 394.626 248.414C401.251 248.414 406.798 253.818 406.798 260.612Z" fill="#0083FF"/>
<path opacity="0.59" d="M481.989 275.9H424.055C422.206 275.9 420.665 274.355 420.665 272.502V249.186C420.665 247.333 422.206 245.789 424.055 245.789H481.989C483.838 245.789 485.379 247.333 485.379 249.186V272.502C485.533 274.355 483.838 275.9 481.989 275.9Z" fill="#3BFAFF"/>
<path d="M480.448 250.421H425.596C425.288 250.421 424.826 250.113 424.826 249.649C424.826 249.34 425.134 248.877 425.596 248.877H480.448C480.756 248.877 481.219 249.186 481.219 249.649C481.219 250.113 480.911 250.421 480.448 250.421Z" fill="#FFCB1C"/>
<path d="M436.073 254.436H425.596C425.288 254.436 424.98 254.127 424.98 253.818C424.98 253.509 425.288 253.201 425.596 253.201H436.073C436.381 253.201 436.69 253.509 436.69 253.818C436.69 254.127 436.381 254.436 436.073 254.436Z" fill="#3BFAFF"/>
<path d="M451.019 254.436H440.542C440.233 254.436 439.925 254.127 439.925 253.818C439.925 253.509 440.233 253.2 440.542 253.2H451.019C451.327 253.2 451.635 253.509 451.635 253.818C451.635 254.127 451.327 254.436 451.019 254.436Z" fill="#3BFAFF"/>
<path d="M465.965 254.436H455.487C455.179 254.436 454.871 254.127 454.871 253.818C454.871 253.509 455.179 253.2 455.487 253.2H465.965C466.273 253.2 466.581 253.509 466.581 253.818C466.581 254.127 466.273 254.436 465.965 254.436Z" fill="#3BFAFF"/>
<path d="M480.602 254.436H470.125C469.817 254.436 469.509 254.127 469.509 253.818C469.509 253.509 469.817 253.2 470.125 253.2H480.602C480.911 253.2 481.219 253.509 481.219 253.818C481.219 254.127 480.911 254.436 480.602 254.436Z" fill="#3BFAFF"/>
<path d="M436.073 258.451H425.596C425.288 258.451 424.98 258.142 424.98 257.833C424.98 257.525 425.288 257.216 425.596 257.216H436.073C436.381 257.216 436.69 257.525 436.69 257.833C436.69 258.142 436.381 258.451 436.073 258.451Z" fill="#3BFAFF"/>
<path d="M451.019 258.45H440.542C440.233 258.45 439.925 258.142 439.925 257.833C439.925 257.524 440.233 257.215 440.542 257.215H451.019C451.327 257.215 451.635 257.524 451.635 257.833C451.635 258.142 451.327 258.45 451.019 258.45Z" fill="#3BFAFF"/>
<path d="M465.965 258.45H455.487C455.179 258.45 454.871 258.142 454.871 257.833C454.871 257.524 455.179 257.215 455.487 257.215H465.965C466.273 257.215 466.581 257.524 466.581 257.833C466.581 258.142 466.273 258.45 465.965 258.45Z" fill="#3BFAFF"/>
<path d="M480.602 258.45H470.125C469.817 258.45 469.509 258.142 469.509 257.833C469.509 257.524 469.817 257.215 470.125 257.215H480.602C480.911 257.215 481.219 257.524 481.219 257.833C481.219 258.142 480.911 258.45 480.602 258.45Z" fill="#3BFAFF"/>
<path d="M436.073 262.466H425.596C425.288 262.466 424.98 262.157 424.98 261.849C424.98 261.54 425.288 261.231 425.596 261.231H436.073C436.381 261.231 436.69 261.54 436.69 261.849C436.69 262.157 436.381 262.466 436.073 262.466Z" fill="#3BFAFF"/>
<path d="M451.019 262.466H440.542C440.233 262.466 439.925 262.157 439.925 261.848C439.925 261.539 440.233 261.23 440.542 261.23H451.019C451.327 261.23 451.635 261.539 451.635 261.848C451.635 262.157 451.327 262.466 451.019 262.466Z" fill="#3BFAFF"/>
<path d="M465.965 262.466H455.487C455.179 262.466 454.871 262.157 454.871 261.848C454.871 261.539 455.179 261.23 455.487 261.23H465.965C466.273 261.23 466.581 261.539 466.581 261.848C466.581 262.157 466.273 262.466 465.965 262.466Z" fill="#3BFAFF"/>
<path d="M480.602 262.466H470.125C469.817 262.466 469.509 262.157 469.509 261.848C469.509 261.539 469.817 261.23 470.125 261.23H480.602C480.911 261.23 481.219 261.539 481.219 261.848C481.219 262.157 480.911 262.466 480.602 262.466Z" fill="#3BFAFF"/>
<path d="M436.073 266.48H425.596C425.288 266.48 424.98 266.171 424.98 265.863C424.98 265.554 425.288 265.245 425.596 265.245H436.073C436.381 265.245 436.69 265.554 436.69 265.863C436.69 266.171 436.381 266.48 436.073 266.48Z" fill="#3BFAFF"/>
<path d="M451.019 266.48H440.542C440.233 266.48 439.925 266.171 439.925 265.863C439.925 265.554 440.233 265.245 440.542 265.245H451.019C451.327 265.245 451.635 265.554 451.635 265.863C451.635 266.171 451.327 266.48 451.019 266.48Z" fill="#3BFAFF"/>
<path d="M465.965 266.48H455.487C455.179 266.48 454.871 266.171 454.871 265.863C454.871 265.554 455.179 265.245 455.487 265.245H465.965C466.273 265.245 466.581 265.554 466.581 265.863C466.581 266.171 466.273 266.48 465.965 266.48Z" fill="#3BFAFF"/>
<path d="M480.602 266.48H470.125C469.817 266.48 469.509 266.171 469.509 265.863C469.509 265.554 469.817 265.245 470.125 265.245H480.602C480.911 265.245 481.219 265.554 481.219 265.863C481.219 266.171 480.911 266.48 480.602 266.48Z" fill="#3BFAFF"/>
<path d="M436.073 270.496H425.596C425.288 270.496 424.98 270.187 424.98 269.878C424.98 269.569 425.288 269.26 425.596 269.26H436.073C436.381 269.26 436.69 269.569 436.69 269.878C436.69 270.187 436.381 270.496 436.073 270.496Z" fill="#3BFAFF"/>
<path d="M451.019 270.495H440.542C440.233 270.495 439.925 270.186 439.925 269.877C439.925 269.569 440.233 269.26 440.542 269.26H451.019C451.327 269.26 451.635 269.569 451.635 269.877C451.635 270.186 451.327 270.495 451.019 270.495Z" fill="#3BFAFF"/>
<path d="M465.965 270.495H455.487C455.179 270.495 454.871 270.186 454.871 269.877C454.871 269.569 455.179 269.26 455.487 269.26H465.965C466.273 269.26 466.581 269.569 466.581 269.877C466.581 270.186 466.273 270.495 465.965 270.495Z" fill="#3BFAFF"/>
<path d="M480.602 270.495H470.125C469.817 270.495 469.509 270.186 469.509 269.877C469.509 269.569 469.817 269.26 470.125 269.26H480.602C480.911 269.26 481.219 269.569 481.219 269.877C481.219 270.186 480.911 270.495 480.602 270.495Z" fill="#3BFAFF"/>
<path d="M78.4265 156.576L77.6561 157.657C76.8857 157.194 75.9613 156.731 75.0368 156.267L75.9612 154.878C77.6561 152.253 81.2 151.48 83.9734 153.179L94.2967 159.973C96.9161 161.672 97.6865 165.223 95.9916 168.003L95.3753 169.084C94.6049 168.466 93.8345 168.003 92.91 167.54L93.6804 166.459C94.6049 165.069 94.1427 163.37 92.91 162.444L82.5867 155.65C81.0459 154.878 79.351 155.341 78.4265 156.576Z" fill="#004AFF"/>
<path d="M89.9825 167.385C90.5989 166.613 91.6774 166.304 92.4478 166.922L96.1457 169.392C96.9161 170.01 97.2243 171.091 96.608 171.863L96.1457 172.635L89.3662 168.311L89.9825 167.385Z" fill="#FF9200"/>
<path d="M90.7529 168.003C90.7529 167.848 90.7529 167.848 90.7529 168.003L95.9916 171.245C95.9916 171.245 95.9916 171.245 95.9916 171.4L90.7529 168.003Z" fill="#EDF5F4"/>
<path d="M72.4174 155.958C73.0338 155.186 74.1123 154.877 74.8827 155.495L78.5806 157.965C79.351 158.583 79.6592 159.664 79.0429 160.436L78.5806 161.208L71.8011 156.885L72.4174 155.958Z" fill="#FF9200"/>
<path d="M73.0338 156.421C73.1879 156.421 73.1879 156.421 73.0338 156.421L78.2725 159.664C78.2725 159.664 78.2725 159.664 78.2725 159.818L73.0338 156.421Z" fill="#EDF5F4"/>
<path d="M45.7617 182.981L82.8949 207.224C86.1305 209.385 90.5989 208.459 92.6019 205.216L105.236 185.76C107.394 182.517 106.469 178.039 103.233 176.032L66.1002 151.789C62.8645 149.627 58.3962 150.554 56.3932 153.796L43.7586 173.253C41.6015 176.495 42.526 180.819 45.7617 182.981Z" fill="#FFE51C"/>
<path d="M191.675 264.974L194.911 268.526L206.775 257.253L194.911 262.658L191.675 264.974Z" fill="#000F1F"/>
<path d="M98.1488 239.959L93.2182 243.047L102.001 257.253L99.9977 243.047L98.1488 239.959Z" fill="#000F1F"/>
<path d="M99.9977 243.047L148.225 234.091L158.086 209.231L134.512 183.135L137.439 222.974C137.439 222.974 119.412 225.135 98.1488 239.959L99.9977 243.047Z" fill="#00217A"/>
<path d="M136.206 189.003L142.216 191.782L157.932 209.231L155.466 215.407C141.599 206.915 137.285 193.326 136.361 189.775C136.361 189.312 136.206 189.003 136.206 189.003Z" fill="#001467"/>
<path d="M134.512 183.135C134.512 183.135 137.439 200.12 153.617 209.694C169.796 219.268 171.799 220.04 171.799 220.04C171.799 220.04 176.729 245.055 191.675 264.974L194.911 262.658L182.893 211.238L161.784 186.841L134.512 183.135Z" fill="#003591"/>
<path d="M134.666 183.598C134.82 183.444 134.974 183.289 135.128 183.135L161.784 186.841C161.784 186.841 154.08 191.782 136.515 189.775C135.282 187.767 134.974 185.142 134.666 183.598Z" fill="#002460"/>
<path d="M162.554 113.494C164.865 109.479 171.491 108.553 178.887 112.568C181.044 113.185 182.122 113.031 183.047 112.413C183.047 114.884 184.125 119.671 178.424 121.832C178.578 121.987 177.808 121.987 177.962 122.141L169.796 128.009L164.403 130.171L161.938 127.546C161.784 127.237 161.63 126.774 161.321 126.465C155.158 118.435 162.554 113.494 162.554 113.494Z" fill="#131637"/>
<path d="M178.27 123.531C178.27 123.531 179.657 126.002 178.578 130.634L174.572 129.244L178.27 123.531Z" fill="#FF746B"/>
<path d="M176.729 130.789L175.343 133.722L171.491 131.406L171.337 129.09L172.723 127.546" fill="white"/>
<path d="M164.557 126.311L163.941 128.163C163.941 128.163 166.098 127.7 167.331 125.23C167.331 125.23 164.403 123.531 165.636 121.369C166.714 119.671 168.871 121.06 169.18 122.913L168.409 125.075C168.409 125.075 169.642 125.384 171.337 121.369L172.107 120.906L178.27 121.678C178.27 121.678 178.732 126.465 176.729 130.788L173.34 129.708C173.34 129.708 172.569 132.178 175.189 133.722C174.572 134.649 174.264 135.112 173.494 135.884L168.563 134.186L167.331 137.892L164.095 138.2H161.321L159.627 136.502L159.781 133.568L161.784 127.391C161.784 127.391 163.016 127.7 164.557 126.311Z" fill="#FFCDA9"/>
<path d="M169.334 139.899C169.334 139.899 188.902 168.311 211.397 169.237L209.086 176.186C209.086 176.186 180.119 178.193 156.545 151.634C156.545 151.634 159.318 139.744 169.334 139.899Z" fill="#003591"/>
<path d="M173.494 165.84L170.566 143.759L160.243 155.494C164.711 159.818 169.18 163.215 173.494 165.84Z" fill="#001467"/>
<path d="M214.479 170.318L224.34 168.002L216.944 177.885L214.171 176.495L211.397 175.723L214.479 170.318Z" fill="#FFCDA9"/>
<path d="M214.171 176.495L215.095 169.701L210.627 168.928L209.086 176.186L214.171 176.495Z" fill="#004FA9"/>
<path d="M130.505 180.201C130.505 180.201 139.442 192.091 161.784 186.841C161.784 186.841 166.868 164.451 169.642 151.943C170.874 146.539 169.642 141.443 168.101 138.818L156.699 135.112C155.929 134.803 152.693 136.039 151.768 136.193L150.998 134.649L132.971 175.569L130.505 180.201Z" fill="white"/>
<path d="M159.01 140.208C159.01 140.208 157.932 169.392 140.058 191.936C140.058 191.936 131.276 188.23 127.27 178.657L153.155 134.34C153.155 134.34 155.775 134.186 156.853 134.958L159.01 140.208Z" fill="#001F47"/>
<path d="M145.605 150.553C145.605 150.553 117.563 142.524 99.8436 156.421L97.0702 149.472C97.0702 149.472 118.025 129.244 153.001 134.34C153.155 134.34 153.309 144.068 145.605 150.553Z" fill="#003591"/>
<path d="M99.3814 156.267L95.8376 157.965L95.5294 161.053L93.5264 160.127L91.8315 163.061L89.3662 164.45L87.9795 161.98L85.052 158.428L87.055 152.869L93.0641 152.561L94.2968 151.171L99.3814 156.267Z" fill="#FFCDA9"/>
<path d="M93.3723 151.171L98.7651 158.428L102.771 155.803L97.3784 148.237L93.3723 151.171Z" fill="#004FA9"/>
<path d="M163.887 149.93L169.736 151.879L170.416 149.828L164.568 147.879L163.887 149.93Z" fill="#DBECFF"/>
<path d="M167.793 142.524C167.793 142.524 166.56 170.01 159.01 187.459H167.022C167.022 187.459 170.566 164.142 171.028 151.326C171.491 141.443 167.947 138.818 167.947 138.818L167.793 142.524Z" fill="#001F47"/>
<path d="M142.832 153.179C150.69 150.862 160.089 147.002 163.479 140.208L164.249 140.825C164.249 140.825 156.083 161.362 136.052 163.679L142.832 153.179Z" fill="#DBECFF"/>
<path d="M164.249 140.671C164.249 140.671 154.08 163.37 131.738 160.899L128.502 156.73L131.892 151.943C131.892 151.943 157.007 153.179 163.324 139.899L164.249 140.671Z" fill="#0083FF"/>
<path d="M164.403 141.134C163.633 141.597 162.708 141.134 162.246 140.362L160.397 136.811L164.095 137.428C164.249 137.428 164.403 137.428 164.557 137.583L167.947 139.281L164.403 141.134Z" fill="#003C9A"/>
<path d="M164.403 137.582L167.793 142.678C167.793 142.678 169.18 140.362 167.793 137.274C167.639 137.119 166.56 138.2 164.403 137.582Z" fill="white"/>
<path d="M164.403 137.583C164.403 137.583 160.859 136.656 159.781 133.568C159.781 133.568 158.24 133.568 156.699 134.958C156.699 134.958 156.545 138.355 159.01 140.208L164.403 137.583Z" fill="white"/>
<path d="M227.268 155.958C227.268 155.958 222.029 177.112 208.008 184.988L223.416 199.966C223.416 199.966 245.141 186.068 247.76 159.818L227.268 155.958Z" fill="white"/>
<path d="M220.18 168.929C220.18 168.929 224.34 167.539 225.881 166.458C225.881 166.458 226.805 167.076 226.343 168.157C225.881 169.237 219.872 172.789 219.872 172.789L220.18 168.929Z" fill="#FFCDA9"/>
<path opacity="0.23" d="M339.9 171.863C338.821 174.179 336.51 176.495 334.507 176.804C332.504 177.113 331.734 175.415 332.812 173.098C333.891 170.782 336.202 168.466 338.205 168.157C340.208 167.848 340.978 169.392 339.9 171.863Z" fill="#0083FF"/>
<path d="M61.1696 248.452C63.1727 250.613 64.2512 257.253 54.5442 259.569C42.8342 262.349 34.3598 267.445 28.967 283.812L23.266 283.195C23.266 283.195 20.4926 263.43 44.9913 249.069C52.233 245.055 57.7799 244.9 61.1696 248.452Z" fill="#003591"/>
<path d="M27.7343 285.357C27.7343 285.357 29.4292 287.364 29.7374 288.136C29.7374 288.136 32.0486 292.151 32.3567 292.769C32.3567 292.769 31.7404 293.695 30.8159 292.769C29.8914 291.842 28.967 290.298 28.967 290.298C28.967 290.298 28.967 292.305 29.4292 293.541C29.8914 294.776 30.6618 297.247 30.3537 297.864C30.0455 298.636 29.4292 298.019 29.4292 298.019C29.4292 298.019 28.1966 294.313 27.8884 293.541C27.5802 292.769 27.4262 293.078 27.4262 293.078C27.4262 293.078 27.8884 297.71 27.8884 298.482C27.8884 299.254 27.5802 299.717 26.8098 299.408C26.8098 299.408 26.5017 296.938 26.3476 295.548C26.1935 295.085 26.1935 293.232 25.7313 293.386C25.7313 293.386 25.7313 297.401 25.7313 298.019C25.7313 298.636 25.2691 299.1 24.6527 298.636L24.3446 293.232C24.3446 293.232 24.1905 292.923 24.0364 293.078C23.8823 293.232 23.266 295.703 23.266 295.857C23.266 296.166 23.266 296.938 22.4956 296.783C22.4956 296.783 22.3415 296.629 22.3415 295.857C22.3415 295.085 22.4956 291.225 22.4956 291.225C22.4956 291.225 22.3415 288.6 23.5742 286.129C24.8068 283.504 25.8854 283.504 24.4987 284.122L26.0394 284.585L27.7343 285.357Z" fill="#FFCDA9"/>
<path d="M22.9579 286.747L29.2751 286.901L29.5833 282.886L23.266 282.577L22.9579 286.747Z" fill="#004FA9"/>
<path d="M72.5715 222.202C72.5715 222.974 71.9552 223.592 71.1848 223.437C70.4144 223.437 69.7981 222.82 69.9522 222.047C69.9522 221.275 70.5685 220.658 71.3389 220.812C71.9552 220.812 72.5715 221.43 72.5715 222.202Z" fill="#131637"/>
<path d="M72.8797 220.812C72.8797 220.812 71.1848 212.319 62.8645 213.245C62.8645 213.245 59.6288 214.635 55.4687 221.429C56.2391 223.746 53.1575 223.282 52.6952 225.753C50.5381 236.871 47.1484 248.606 39.4444 257.099C39.2903 257.253 39.1362 257.408 38.9822 257.562C38.2118 258.952 37.4414 260.342 36.671 261.577C38.2118 263.43 40.9852 265.129 45.7617 265.283C52.5412 254.628 56.8554 242.584 56.8554 242.584L62.8645 234.863L72.8797 226.834C72.8797 226.834 76.1154 222.974 72.8797 220.812Z" fill="#131637"/>
<path d="M72.2634 224.826C72.2634 224.981 74.2664 230.076 73.6501 233.937L69.49 233.165L72.2634 224.826Z" fill="#FF907D"/>
<path d="M72.5715 223.592C72.5715 223.592 74.7286 231.775 68.7195 240.423L63.1727 238.415L61.786 245.209L54.3901 243.665L56.085 235.79C56.085 235.79 59.6288 234.246 60.5533 230.231C60.5533 230.231 56.8554 229.15 57.934 225.753C58.5503 223.592 61.786 223.9 62.2482 226.217L61.6319 228.533C61.6319 228.533 62.8645 228.224 63.4808 226.834C63.4808 226.834 65.9461 226.989 68.5655 226.062C72.5715 224.518 72.5715 223.592 72.5715 223.592Z" fill="#FFCDA9"/>
<path d="M68.2573 233.01L71.6471 234.246C71.1848 235.326 70.7226 236.407 70.2603 237.488C67.0247 236.253 68.2573 233.01 68.2573 233.01Z" fill="white"/>
<path d="M56.7013 241.04C52.8493 240.268 48.8433 242.584 48.5351 246.445C46.6861 270.07 37.2873 296.011 37.2873 296.011L61.3237 292.769C61.3237 292.769 62.0941 271.614 63.0186 270.07C63.789 268.68 70.1062 267.29 70.8766 261.423L62.8645 245.827C61.4778 243.356 59.3207 241.503 56.7013 241.04Z" fill="white"/>
<path d="M49.1514 239.496C48.9973 241.04 50.23 242.43 51.7708 242.43C53.3116 242.584 54.6983 241.349 54.6983 239.805C54.8524 238.261 53.6197 236.871 52.0789 236.871C50.5381 236.717 49.3055 237.952 49.1514 239.496Z" fill="#131637"/>
<path d="M62.8645 213.245C62.8645 213.245 54.8524 212.319 51.1545 224.363C44.375 247.68 12.7886 254.32 37.9036 283.658C37.9036 283.658 45.9157 269.761 45.4535 262.04C45.4535 262.04 51.3085 252.93 50.23 246.29C50.23 246.29 57.934 245.672 55.9309 235.79C53.3116 228.378 59.7829 220.503 59.7829 220.503L66.1002 217.569L62.8645 213.245Z" fill="#131637"/>
<path d="M97.9947 364.262L102.001 367.968L110.013 358.549L101.539 363.49L97.9947 364.262Z" fill="#000F1F"/>
<path d="M4.46831 353.299L0 357.005L10.4774 370.13L6.62543 356.232L4.46831 353.299Z" fill="#000F1F"/>
<path d="M6.62542 356.233L53.3116 341.409L60.0911 315.467L36.825 292.46L41.2933 331.526C41.2933 331.526 23.5742 335.85 4.46831 353.299L6.62542 356.233Z" fill="#00217A"/>
<path d="M37.7495 296.166L42.3719 300.181L60.0911 315.468L58.3962 321.799C43.6045 315.159 37.4414 298.482 37.1332 296.012C37.1332 295.394 37.7495 296.166 37.7495 296.166Z" fill="#001467"/>
<path d="M35.7465 292.46C35.7465 292.46 38.5199 308.982 55.6227 316.394C72.8797 323.806 75.0368 324.423 75.0368 324.423C75.0368 324.423 81.2 346.659 98.3028 364.571L101.384 363.644L84.8979 314.541L61.0155 292.923L35.7465 292.46Z" fill="#003591"/>
<path d="M36.3628 294.93L61.0156 292.769C61.0156 292.769 49.1514 299.563 37.5955 298.482C36.671 296.629 36.2087 295.085 36.3628 294.93Z" fill="#002460"/>
<path d="M62.7104 252.621C62.8645 285.975 49.3055 300.49 49.3055 300.49C49.3055 300.49 37.4414 298.945 33.7435 291.225C33.7435 291.225 42.9882 276.092 45.6076 261.886C45.6076 261.886 50.0759 252.93 50.3841 246.136C50.3841 246.136 54.236 245.055 55.9309 241.503C55.9309 241.503 59.6288 241.04 62.2482 243.511C62.4023 243.665 62.7104 245.981 62.7104 252.621Z" fill="#001F47"/>
<path d="M62.7104 243.356C62.7104 243.356 64.8675 244.592 63.6349 247.68L62.7104 245.981V243.356Z" fill="#003C9A"/>
<path d="M63.6349 247.68L70.8766 261.423C70.7226 261.423 71.9552 251.077 63.6349 247.68Z" fill="#0083FF"/>
<path d="M56.2391 238.878C56.2391 238.878 59.937 240.114 62.5563 242.43V245.827C62.5563 245.827 58.2421 242.739 55.6227 242.121L56.2391 238.878Z" fill="#F5FDFF"/>
<path d="M85.5143 252.312C85.5143 252.312 80.2755 273.467 66.2543 281.342L81.6623 296.32C81.6623 296.32 103.387 282.423 106.007 256.173L85.5143 252.312Z" fill="white"/>
<path d="M52.0789 247.217C54.236 245.055 60.7074 243.356 63.789 253.084C67.4869 264.666 73.1879 273.004 89.9825 277.327L89.8285 283.195C89.8285 283.195 70.1063 287.364 53.9279 263.585C49.1514 256.636 48.5351 250.923 52.0789 247.217Z" fill="#003591"/>
<path d="M89.3662 278.717C89.3662 278.717 91.5233 277.019 92.6019 276.71C92.6019 276.71 97.2243 274.548 97.8406 274.239C97.8406 274.239 98.7651 275.011 97.6865 275.938C96.608 276.864 94.9131 277.791 94.9131 277.791C94.9131 277.791 97.2243 277.636 98.611 277.482C99.9977 277.328 99.6896 279.18 98.4569 279.798C97.8406 282.269 95.6835 285.203 95.6835 285.203C95.6835 285.203 92.9101 285.203 90.1366 283.658C87.3632 282.114 87.3632 280.879 88.1336 282.578L88.7499 281.033L89.3662 278.717Z" fill="#FFCDA9"/>
<path d="M90.5988 284.122L91.2151 277.173L86.9009 276.555L86.1305 283.504L90.5988 284.122Z" fill="#004FA9"/>
<path d="M448.68 345.115L446.369 346.505C444.366 344.652 440.052 343.262 435.121 343.262C430.19 343.262 425.876 344.497 423.873 346.505L421.562 345.115L422.795 352.681C423.565 355.461 428.804 357.622 435.275 357.622C441.746 357.622 446.985 355.461 447.756 352.681L448.68 345.115Z" fill="#B0E6FF"/>
<path d="M424.643 350.52V353.453C424.643 353.453 426.647 355.306 431.269 355.615V352.681C431.269 352.527 427.417 352.373 424.643 350.52Z" fill="#BEEFFF"/>
<path d="M443.287 351.446L442.979 354.689C444.828 354.071 445.752 352.99 445.752 352.99L446.215 349.902C445.29 350.674 444.212 351.137 443.287 351.446Z" fill="#BEEFFF"/>
<path d="M434.967 351.137C442.54 351.137 448.68 348.441 448.68 345.115C448.68 341.789 442.54 339.093 434.967 339.093C427.393 339.093 421.254 341.789 421.254 345.115C421.254 348.441 427.393 351.137 434.967 351.137Z" fill="#D4FAFF"/>
<path d="M434.967 349.593C441.349 349.593 446.523 347.312 446.523 344.497C446.523 341.683 441.349 339.402 434.967 339.402C428.585 339.402 423.411 341.683 423.411 344.497C423.411 347.312 428.585 349.593 434.967 349.593Z" fill="#A0D8FF"/>
<path d="M425.877 331.063C425.877 331.063 418.173 311.607 421.409 307.747C424.49 303.887 431.116 325.659 431.116 325.659C431.116 325.659 429.729 307.901 433.119 307.284C436.354 306.512 437.433 315.777 437.433 315.777C437.433 315.777 440.669 306.975 443.442 307.284C446.215 307.593 442.055 321.953 442.055 321.953C442.055 321.953 444.058 317.475 446.524 316.857C448.989 316.24 442.518 338.939 442.518 338.939L434.659 337.858" fill="#00FFEA"/>
<path d="M425.876 345.115C425.876 345.115 420.021 342.027 420.484 339.093C421.1 336.159 426.493 340.174 426.493 340.174C426.493 340.174 416.169 326.431 430.961 318.247C444.366 310.836 441.592 338.321 441.592 338.321C441.592 338.321 444.674 334.615 447.602 335.387C451.608 336.468 443.904 345.27 443.904 345.27C443.904 345.27 437.74 345.733 425.876 345.115Z" fill="#E70F40"/>
<path d="M428.804 346.814C428.804 346.814 423.565 343.571 424.952 341.872C426.493 340.019 429.574 343.417 429.574 343.417C429.574 343.417 424.644 331.527 428.187 328.438C431.731 325.35 434.967 339.093 434.967 339.093C434.967 339.093 435.121 329.983 438.203 329.983C441.284 329.828 439.127 342.644 439.127 342.644C439.127 342.644 441.592 333.997 443.749 334.306C445.907 334.461 441.901 344.497 441.901 344.497C441.901 344.497 442.979 342.644 444.366 342.799C445.753 343.108 442.517 346.968 442.517 346.968C442.517 346.968 437.124 349.284 428.804 346.814Z" fill="#B90235"/>
<path d="M327.882 155.958V159.355H341.595L332.35 155.958H327.882Z" fill="#000F1F"/>
<path d="M251.766 147.311L248.068 151.635L260.395 162.752L254.386 149.782L251.766 147.311Z" fill="#000F1F"/>
<path d="M254.386 149.781L297.99 127.391L300.455 100.678L278.73 81.6849L270.256 80.604L270.41 82.3026L284.585 119.671C284.585 119.671 267.945 126.928 251.766 147.311L254.386 149.781Z" fill="#00217A"/>
<path d="M270.256 80.604L277.806 83.0746L300.455 100.678L299.839 107.318C284.123 103.148 274.57 90.0232 272.259 87.2438C270.564 84.7732 270.256 80.604 270.256 80.604Z" fill="#001467"/>
<path d="M272.721 76.7437C272.721 76.7437 275.649 93.7292 291.827 103.303C308.005 112.876 310.008 113.649 310.008 113.649C310.008 113.649 313.244 136.502 328.19 156.421H333.12L321.102 105.001L299.993 80.604L272.721 76.7437Z" fill="#003591"/>
<path d="M272.875 77.2069C273.029 77.0525 273.183 76.8981 273.337 76.7437L300.147 80.4496C300.147 80.4496 291.365 86.4717 277.96 89.4056C274.416 83.8467 273.183 78.751 272.875 77.2069Z" fill="#002460"/>
<path d="M280.425 7.10304C279.963 2.77945 286.126 -0.772069 290.748 0.617655C295.679 1.85297 296.912 1.69855 298.606 0C299.377 2.47062 301.38 6.48538 297.22 10.0369C297.374 10.1913 297.066 11.7355 297.22 11.8899L291.057 18.6841L286.588 22.39L283.507 20.6915C283.198 20.3826 282.89 20.0738 282.582 19.9194C274.108 14.2061 280.425 7.10304 280.425 7.10304Z" fill="#131637"/>
<path d="M297.682 11.7356C297.682 11.7356 299.839 13.5886 300.147 18.3754H295.833L297.682 11.7356Z" fill="#FF746B"/>
<path d="M298.606 18.993L298.144 22.2357L293.676 21.3092L292.905 18.993L293.83 17.2944" fill="white"/>
<path d="M285.664 18.6839V20.5369C285.664 20.5369 287.513 19.456 287.975 16.6765C287.975 16.6765 284.585 16.0589 285.202 13.5883C285.664 11.5809 288.129 12.1985 289.054 14.0515V16.3677C289.054 16.3677 290.286 16.3677 290.594 11.8897C290.594 11.8897 292.135 12.1985 294.292 11.7353C297.22 10.9632 297.374 9.88232 297.374 9.88232C297.374 9.88232 299.377 14.3603 298.76 18.9927H295.217C295.217 18.9927 295.217 21.6178 298.298 22.2354C297.99 23.3163 297.836 23.7796 297.374 24.8605H292.135V28.7208L289.208 30.1105L286.588 30.8826L284.431 29.8017L283.661 27.0223V20.5369C283.353 20.5369 284.585 20.5369 285.664 18.6839Z" fill="#FFCDA9"/>
<path d="M293.83 30.2654C293.83 30.2654 328.652 37.3684 346.217 23.1624L348.682 29.3389C348.682 29.3389 325.262 49.7215 290.132 45.0891C290.132 45.0891 286.126 36.7508 293.83 30.2654Z" fill="#003591"/>
<path opacity="0.32" d="M303.999 45.7063C302.767 34.2797 295.063 30.5737 295.063 30.5737L292.905 35.0517L295.063 41.0739L295.833 45.5519C298.606 45.7063 301.38 45.8607 303.999 45.7063Z" fill="#002460"/>
<path d="M346.217 23.1622L351.764 17.6033L367.018 15.2871C367.018 15.2871 368.25 18.3754 357.465 19.7651L358.697 22.8534L355.924 27.4858L349.915 27.949L348.682 29.3388L346.217 23.1622Z" fill="#FFCDA9"/>
<path d="M270.256 80.604C270.256 80.604 286.434 83.6923 300.147 80.4496C300.147 80.4496 301.534 53.5816 298.76 41.0741C297.374 34.4343 295.987 30.1107 292.905 29.3386H280.887C279.963 29.3386 278.114 31.6548 277.498 32.2725C275.032 34.4343 274.262 35.5152 274.262 35.5152L271.18 75.354L270.256 80.604Z" fill="white"/>
<path d="M285.356 30.8828L289.824 33.5078L292.443 29.9563L289.053 29.3386L285.356 30.8828Z" fill="#003591"/>
<path d="M293.676 33.0447C293.676 33.0447 299.069 52.3464 299.993 80.4497L303.999 85.0821C303.999 85.0821 300.918 56.2068 299.993 46.7875C299.531 42.3095 298.144 30.4196 292.751 29.1843L293.676 33.0447Z" fill="#001F47"/>
<path d="M284.739 33.5078C284.739 33.5078 296.295 63.4641 288.283 91.2586L267.79 84.3099L273.491 43.5447C273.491 43.5447 275.032 30.2651 280.887 29.3386L284.739 33.5078Z" fill="#001F47"/>
<path d="M289.208 58.3681L272.721 57.4416L272.875 55.4342C272.875 54.1989 271.951 53.2724 270.872 53.118L249.609 52.0371C248.376 52.0371 247.452 52.9636 247.298 54.0445L247.144 56.0519L246.219 72.1109L245.757 80.4493C245.757 81.5302 246.527 82.4566 247.606 82.4566L285.664 84.464L290.594 61.7652C291.519 59.449 291.211 58.5225 289.208 58.3681Z" fill="#FFB500"/>
<path d="M285.818 84.6184L248.839 82.611L250.688 48.4856L291.981 50.8018L285.818 84.6184Z" fill="#FF1C4D"/>
<path d="M275.957 52.5007L251.766 79.3687L229.425 59.1405L253.923 31.9636L275.957 52.5007Z" fill="#C14DFF"/>
<path d="M285.818 84.6188L246.527 82.457L248.222 50.6477L284.585 52.6551L289.208 56.6698L285.818 84.6188Z" fill="#3BFAFF"/>
<path d="M284.585 52.6548L284.431 56.5151L289.208 56.6695L284.585 52.6548Z" fill="#B5FAFF"/>
<path d="M283.815 58.0592L267.328 57.1328L267.482 55.1254C267.482 53.8901 266.558 52.9636 265.479 52.8092L244.216 51.7283C242.984 51.7283 242.059 52.6548 241.905 53.7357L241.751 55.743L240.827 71.8021L240.364 80.1404C240.364 81.2213 241.135 82.1478 242.213 82.1478L285.818 84.464L287.05 61.6108C287.205 59.9122 285.664 58.2137 283.815 58.0592Z" fill="#FFDD00"/>
<path d="M268.407 79.986C268.407 79.986 260.087 64.6991 266.25 53.118L262.09 52.6548L258.7 58.2137L259.47 68.0962L261.473 75.3536" fill="#FFB500"/>
<path d="M260.14 71.9101L245.061 71.0981L244.64 78.9622L259.719 79.7742L260.14 71.9101Z" fill="#FFFF00"/>
<path d="M260.28 68.661L245.201 67.8491L245.127 69.2369L260.206 70.0488L260.28 68.661Z" fill="#FFFF00"/>
<path d="M260.431 65.5712L245.352 64.7593L245.278 66.147L260.356 66.959L260.431 65.5712Z" fill="#FFFF00"/>
<path d="M264.247 73.9641L268.407 79.9862L276.265 79.6774L275.649 81.5304L272.259 82.4569L272.105 83.6922L278.114 84.1554L274.724 86.1628L271.334 87.3981L264.709 86.626L263.014 83.6922L261.473 77.8245L264.247 73.9641Z" fill="#FFCDA9"/>
<path d="M278.114 44.6256C278.114 44.6256 248.993 49.258 269.177 79.9864L263.168 84.31C263.168 84.31 233.585 43.5447 278.884 30.2651C279.038 30.2651 282.582 37.5226 278.114 44.6256Z" fill="#003591"/>
<path d="M289.053 29.3387L293.83 33.0446C293.83 33.0446 294.292 30.4196 292.135 27.949C291.981 27.949 291.211 29.3387 289.053 29.3387Z" fill="white"/>
<path d="M289.053 29.3387C289.053 29.3387 285.51 29.6475 283.507 27.0225C283.507 27.0225 281.966 27.4857 281.041 29.3387C281.041 29.3387 281.966 32.5814 284.893 33.6623L289.053 29.3387Z" fill="white"/>
<path d="M289.978 33.1992L289.67 33.508L289.362 33.3536C291.673 37.8316 297.99 51.8833 286.126 58.8319V65.6261L293.368 65.7805C293.368 65.7805 305.078 47.4053 289.978 33.1992Z" fill="#0083FF"/>
<path opacity="0.09" d="M163.633 375.071C163.633 378.777 157.007 381.711 148.687 381.711C140.367 381.711 133.741 378.777 133.741 375.071C133.741 371.365 140.367 368.432 148.687 368.432C157.007 368.432 163.633 371.365 163.633 375.071Z" fill="#017ABF"/>
<path d="M163.479 356.696L161.013 357.314C158.856 355.307 154.08 353.917 148.687 353.917C143.294 353.917 138.518 355.307 136.361 357.314L133.895 356.696L134.974 374.454C135.744 377.542 141.599 379.858 148.533 379.858C155.621 379.858 161.321 377.542 162.092 374.454L163.479 356.696Z" fill="#B0E6FF"/>
<path d="M138.98 371.983V374.917C138.98 374.917 141.291 376.153 145.605 376.153V373.219C145.605 373.219 142.061 373.528 138.98 371.983Z" fill="#BEEFFF"/>
<path d="M160.397 368.277V371.211C160.397 371.211 158.086 372.755 153.771 373.373V370.439C153.771 370.439 157.315 370.284 160.397 368.277Z" fill="#BEEFFF"/>
<path d="M138.98 366.27V369.204C138.98 369.204 141.291 370.439 145.605 370.439V367.505C145.605 367.505 142.061 367.814 138.98 366.27Z" fill="#BEEFFF"/>
<path d="M163.633 355.77C163.633 359.476 157.007 362.409 148.687 362.409C140.367 362.409 133.741 359.476 133.741 355.77C133.741 352.064 140.367 349.13 148.687 349.13C157.007 349.13 163.633 352.064 163.633 355.77Z" fill="#D4FAFF"/>
<path d="M160.397 355.152C160.397 358.086 155.158 360.402 148.687 360.402C142.216 360.402 137.131 357.932 137.131 355.152C137.131 352.218 142.37 349.902 148.841 349.902C155.312 349.902 160.397 352.218 160.397 355.152Z" fill="#A0D8FF"/>
<path d="M148.225 356.542L121.107 331.681C121.107 331.681 120.953 337.24 124.496 340.174C128.194 343.108 131.122 342.027 131.584 346.66C132.046 351.292 135.128 353.917 137.901 354.38C143.602 355.152 144.835 358.241 148.225 356.542Z" fill="#FFC400"/>
<path d="M148.224 356.542L121.106 331.681C121.106 331.681 126.653 330.909 129.889 334.46C133.125 337.858 132.354 340.946 136.976 340.946C141.599 340.946 144.526 343.88 145.143 346.659C146.529 352.064 149.611 352.99 148.224 356.542Z" fill="#FFB200"/>
<path d="M148.687 356.851V263.43C148.687 263.43 137.901 272.541 138.672 284.585C139.442 296.475 146.53 300.335 138.672 309.137C130.814 317.938 131.276 328.284 135.128 334.152C143.294 345.887 139.904 353.453 148.687 356.851Z" fill="#00FFEA"/>
<path d="M148.687 356.851V263.43C148.687 263.43 159.472 272.541 158.702 284.585C157.932 296.475 150.844 300.335 158.702 309.137C166.56 317.938 166.098 328.284 162.246 334.152C154.234 345.887 157.624 353.453 148.687 356.851Z" fill="#00EEEB"/>
<path d="M152.539 357.005L171.799 298.791C171.799 298.791 163.17 302.188 161.167 309.909C159.164 317.475 162.862 321.336 156.083 325.196C149.303 329.056 147.454 335.542 148.687 340.02C151.46 349.13 147.762 353.145 152.539 357.005Z" fill="#E70F40"/>
<path d="M152.539 357.005L171.799 298.791C171.799 298.791 176.575 306.666 173.648 314.077C170.72 321.335 165.482 322.261 168.563 329.364C171.645 336.468 169.179 342.798 165.636 345.732C158.24 351.291 158.856 356.696 152.539 357.005Z" fill="#B90235"/>
<path d="M427.879 299.717L400.299 308.055L392.749 282.732L421.408 274.084L427.879 299.717Z" fill="#004FCE"/>
<path d="M427.879 293.386L403.997 309.445L389.359 287.518L414.166 270.842L427.879 293.386Z" fill="#FF1C4D"/>
<path d="M408.157 280.261L405.692 308.21L382.426 306.048L384.891 277.79L408.157 280.261Z" fill="#C14DFF"/>
<path d="M423.411 304.195L393.982 312.688L387.202 288.908L414.32 281.033L418.789 282.886L423.411 304.195Z" fill="#FFCB1C"/>
<path d="M416.323 303.269L406.616 283.349L403.535 283.812" fill="#FFB11C"/>
<path d="M414.32 281.033L416.015 283.813L418.789 282.886L414.32 281.033Z" fill="#FFFA45"/>
<path d="M381.809 286.9L382.58 287.981C383.35 287.518 384.275 287.055 385.199 286.592L384.275 285.202C382.58 282.577 379.036 281.805 376.263 283.503L365.939 290.298C363.32 291.996 362.549 295.548 364.244 298.327L364.861 299.408C365.631 298.79 366.401 298.327 367.326 297.864L366.556 296.783C365.631 295.393 366.093 293.695 367.326 292.768L377.649 285.974C379.19 285.202 380.885 285.665 381.809 286.9Z" fill="#004AFF"/>
<path d="M370.716 298.482L363.936 302.805L363.474 302.033C362.858 301.261 363.166 300.026 363.936 299.563L367.634 297.092C368.405 296.474 369.637 296.783 370.099 297.555L370.716 298.482Z" fill="#003591"/>
<path d="M369.483 298.173L364.244 301.415C364.244 301.415 364.244 301.415 364.244 301.57L369.483 298.173Z" fill="#EDF5F4"/>
<path d="M388.281 286.9L381.501 291.224L381.039 290.452C380.423 289.68 380.731 288.444 381.501 287.981L385.199 285.511C385.97 284.893 387.202 285.202 387.665 285.974L388.281 286.9Z" fill="#003591"/>
<path d="M387.202 286.746C387.202 286.746 387.048 286.746 387.202 286.746L381.964 289.989C381.964 289.989 381.964 289.989 381.964 290.143L387.202 286.746Z" fill="#EDF5F4"/>
<path d="M414.474 313.305L377.341 337.548C374.105 339.71 369.637 338.784 367.634 335.541L355 316.085C352.842 312.842 353.767 308.364 357.003 306.357L394.136 282.114C397.371 279.952 401.84 280.879 403.843 284.121L416.477 303.577C418.634 306.82 417.71 311.144 414.474 313.305Z" fill="#0083FF"/>
<path d="M278.884 374.917L274.878 378.623L266.866 369.204L275.34 374.145L278.884 374.917Z" fill="#000F1F"/>
<path opacity="0.23" d="M369.791 382.946C367.326 383.718 364.09 383.409 362.549 382.174C361.009 380.939 361.779 379.24 364.244 378.468C366.71 377.696 369.945 378.005 371.486 379.24C373.027 380.476 372.256 382.174 369.791 382.946Z" fill="#0083FF"/>
<path opacity="0.23" d="M277.189 382.946C274.724 383.718 271.488 383.409 269.948 382.174C268.407 380.939 269.177 379.24 271.642 378.468C274.108 377.696 277.343 378.005 278.884 379.24C280.425 380.476 279.655 382.174 277.189 382.946Z" fill="#0083FF"/>
<path d="M372.411 363.953L376.879 367.659L366.556 380.63L370.253 366.887L372.411 363.953Z" fill="#000F1F"/>
<path d="M370.253 366.887L323.567 352.063L316.788 326.122L340.054 303.114L335.586 342.181C335.586 342.181 353.305 346.505 372.411 363.953L370.253 366.887Z" fill="#00217A"/>
<path d="M339.129 306.82L334.507 310.835L316.788 326.122L318.483 332.453C333.274 325.813 339.438 309.136 339.746 306.666C339.746 306.048 339.129 306.82 339.129 306.82Z" fill="#001467"/>
<path d="M341.132 303.114C341.132 303.114 338.359 319.637 321.256 327.048C303.999 334.46 301.842 335.078 301.842 335.078C301.842 335.078 295.679 357.314 278.576 375.226L275.34 374.299L291.827 325.195L315.709 303.578L341.132 303.114Z" fill="#003591"/>
<path d="M340.516 305.585L315.863 303.423C315.863 303.423 327.728 310.217 339.284 309.136C340.208 307.283 340.67 305.739 340.516 305.585Z" fill="#002460"/>
<path d="M336.972 228.996C336.972 224.518 331.58 222.047 326.957 222.819C326.187 223.591 322.951 225.444 322.643 226.062C321.873 228.378 323.876 230.231 322.027 231.93C321.718 232.238 321.41 232.547 321.102 232.856L326.957 241.04L331.425 244.746L334.507 243.047C343.752 236.099 336.972 228.996 336.972 228.996Z" fill="#131637"/>
<path d="M320.332 235.018C320.332 235.018 318.329 236.562 317.866 240.422H322.027L320.332 235.018Z" fill="#FF907D"/>
<path d="M319.561 241.503L319.869 244.128C319.869 244.128 323.259 245.055 323.721 243.047C324.184 241.04 324.184 241.04 324.184 241.04L323.105 240.268" fill="white"/>
<path d="M332.35 243.048C332.35 243.048 330.501 241.967 330.039 239.342C330.039 239.342 333.274 238.724 332.812 236.254C332.35 234.246 329.885 234.864 329.114 236.717V239.033C329.114 239.033 327.882 239.033 327.573 234.555L326.033 232.702L320.948 231.621C320.948 231.621 318.945 237.026 319.407 241.658H322.951C322.951 241.658 322.643 243.974 319.715 244.283C319.869 245.364 320.178 246.29 320.64 247.371H325.725V251.849L325.879 253.393H331.271L333.428 252.467L334.199 249.688V243.357C334.507 243.048 333.737 244.129 332.35 243.048Z" fill="#FFCDA9"/>
<path d="M334.199 264.82C334.199 264.82 357.465 267.445 366.556 283.195L370.716 279.026C370.716 279.026 361.317 257.562 333.737 250.614C333.583 250.614 330.501 257.717 334.199 264.82Z" fill="#F5FDFF"/>
<path d="M368.559 283.195C368.559 283.195 368.096 285.511 368.251 286.437C368.251 286.437 368.096 288.29 367.788 289.062L369.945 287.827C369.945 287.827 370.562 289.217 371.178 290.298C370.87 290.607 370.716 290.607 369.945 291.07C370.562 291.533 373.027 291.996 373.027 291.996C373.027 291.996 373.643 291.224 373.797 290.143C373.797 289.989 376.263 287.364 376.263 287.364C376.263 287.364 376.109 284.121 373.181 281.651C371.178 279.952 369.329 280.57 370.87 280.415L369.945 281.496L368.559 283.195Z" fill="#FFCDA9"/>
<path d="M373.643 281.805L367.48 285.511L365.323 282.268L371.486 278.408L373.643 281.805Z" fill="#CFE4FF"/>
<path d="M346.987 303.115C346.987 303.115 345.909 271.614 342.673 260.651C341.903 257.871 341.132 255.246 336.972 251.695L326.187 252.621L326.033 251.695C322.027 255.092 320.024 261.732 319.715 265.901C318.791 276.71 316.634 296.938 316.172 303.115C325.57 306.512 337.743 306.203 346.987 303.115Z" fill="#CFE4FF"/>
<path d="M326.187 252.621C326.187 252.621 332.504 251.849 334.507 249.378C334.507 249.378 336.048 249.842 336.972 251.695C336.972 251.695 333.583 255.864 327.419 256.636L326.187 252.621Z" fill="white"/>
<path d="M325.262 253.393C325.262 253.393 314.631 277.327 336.818 289.989L336.972 298.79L330.501 299.254C330.501 299.254 307.851 273.312 325.262 253.393Z" fill="#0083FF"/>
<path d="M326.803 254.783L324.184 255.246C324.184 255.246 324.646 252.93 326.033 251.695L326.803 254.783Z" fill="#003C9A"/>
<path d="M326.033 232.547C326.033 232.547 314.169 234.555 317.096 221.121L326.957 222.819C326.957 222.819 332.35 226.68 328.96 225.29C323.721 223.128 332.966 228.687 332.966 228.687L326.033 232.547Z" fill="#131637"/>
<path d="M338.051 258.488C335.74 256.018 328.498 254.319 325.262 264.974C321.256 277.79 314.939 286.746 296.603 291.533L296.912 297.864C296.912 297.864 318.483 302.342 336.202 276.4C341.287 268.68 341.903 262.503 338.051 258.488Z" fill="#F5FDFF"/>
<path d="M297.374 292.923C297.374 292.923 294.908 291.07 293.83 290.761C293.83 290.761 288.745 288.445 287.975 288.136C287.975 288.136 287.05 289.062 288.129 289.989C289.362 291.07 291.211 291.996 291.211 291.996C291.211 291.996 288.745 292.305 287.359 291.842C285.818 291.379 282.89 290.607 282.12 291.07C281.349 291.533 281.966 292.151 281.966 292.151C281.966 292.151 286.434 293.386 287.513 293.54C288.437 293.695 287.975 294.004 287.975 294.004C287.975 294.004 282.582 293.849 281.504 293.849C280.579 293.849 280.117 294.313 280.425 295.239C280.425 295.239 283.353 295.393 285.047 295.548C285.664 295.548 287.821 295.548 287.667 296.165C287.667 296.165 283.044 296.474 282.12 296.474C281.349 296.474 280.887 297.092 281.349 297.864H287.667C287.667 297.864 288.129 298.018 287.975 298.173C287.821 298.482 285.047 299.408 284.739 299.408C284.431 299.408 283.353 299.563 283.661 300.335C283.661 300.335 283.815 300.643 284.739 300.489C285.664 300.335 290.286 299.871 290.286 299.871C290.286 299.871 293.368 299.871 296.295 298.173C299.377 296.474 299.223 295.085 298.606 296.938L297.99 295.239L297.374 292.923Z" fill="#FFCDA9"/>
<path d="M295.987 298.79L295.217 291.224L299.993 290.452L300.918 298.018L295.987 298.79Z" fill="#CFE4FF"/>
<path d="M389.312 182.894C385.46 186.755 385.46 192.931 389.312 196.792C393.164 200.652 399.327 200.652 403.179 196.792C407.031 192.931 407.031 186.755 403.179 182.894C399.327 179.034 393.164 179.034 389.312 182.894ZM401.484 194.939C398.557 197.872 393.934 197.872 391.007 194.939C388.079 192.005 388.079 187.372 391.007 184.438C393.934 181.505 398.557 181.505 401.484 184.438C404.258 187.372 404.258 192.159 401.484 194.939Z" fill="#00CCFF"/>
<path d="M402.872 196.329C399.174 200.035 393.319 200.035 389.621 196.329C385.923 192.623 385.923 186.755 389.621 183.049C393.319 179.344 399.174 179.344 402.872 183.049C406.416 186.755 406.416 192.778 402.872 196.329ZM390.7 184.285C387.618 187.373 387.618 192.314 390.7 195.248C393.781 198.336 398.712 198.336 401.639 195.248C404.721 192.16 404.721 187.219 401.639 184.285C398.712 181.196 393.781 181.196 390.7 184.285Z" fill="white"/>
<g opacity="0.28">
<path opacity="0.28" d="M401.484 194.939C398.557 197.873 393.934 197.873 391.007 194.939C388.079 192.005 388.079 187.373 391.007 184.439C393.934 181.505 398.557 181.505 401.484 184.439C404.258 187.373 404.258 192.159 401.484 194.939Z" fill="#3BFAFF"/>
</g>
<path opacity="0.22" d="M391.007 184.593C389.004 186.601 388.388 189.534 389.158 192.005C391.931 193.549 395.475 193.086 397.787 190.77C399.79 188.762 400.406 185.829 399.635 183.358C396.862 181.814 393.318 182.123 391.007 184.593Z" fill="#3BFAFF"/>
<path d="M402.693 194.847L401.277 196.266L407.269 202.271L408.686 200.852L402.693 194.847Z" fill="white"/>
<path d="M412.27 205.902C411.5 206.674 410.421 206.674 409.651 205.902L404.566 200.807C403.796 200.035 403.796 198.954 404.566 198.182C405.336 197.41 406.415 197.41 407.185 198.182L412.27 203.277C413.04 204.049 413.04 205.285 412.27 205.902Z" fill="#00CCFF"/>
<path opacity="0.34" d="M397.632 185.52C397.632 186.292 397.016 186.91 396.246 186.91C395.475 186.91 394.859 186.292 394.859 185.52C394.859 184.748 395.475 184.13 396.246 184.13C397.016 184.13 397.632 184.748 397.632 185.52Z" fill="#E3FAFF"/>
</svg>
