<svg width="624" height="378" viewBox="0 0 624 378" fill="none" xmlns="http://www.w3.org/2000/svg">
<path d="M615.116 137.003C618.916 149.503 621.216 163.203 622.216 178.103C625.916 231.503 611.216 278.603 598.316 308.703C591.116 325.603 583.616 339.103 577.916 348.403" stroke="#CEDBED" stroke-width="2.1183" stroke-miterlimit="10"/>
<path d="M49.2163 345.703C33.8163 269.503 31.3163 208.003 41.5163 157.903C45.5163 138.503 51.4163 120.603 59.2163 104.303" stroke="#CEDBED" stroke-width="2.1183" stroke-miterlimit="10"/>
<path d="M606.216 129.403C611.716 144.003 615.116 160.303 616.316 178.503C619.916 230.603 605.616 276.603 592.916 306.003C584.916 324.603 576.616 339.003 571.016 348.003" stroke="#CEDBED" stroke-width="2.1183" stroke-miterlimit="10"/>
<path d="M55.3163 345.703C39.9163 269.703 37.3163 208.703 47.4163 159.203C52.4163 134.503 60.8163 112.303 72.2163 92.9033" stroke="#CEDBED" stroke-width="2.1183" stroke-miterlimit="10"/>
<path d="M596.316 121.803C604.216 138.203 608.816 157.103 610.316 179.003C613.816 229.703 599.816 274.603 587.516 303.403C578.516 324.303 569.316 339.703 564.016 347.803" stroke="#CEDBED" stroke-width="2.1183" stroke-miterlimit="10"/>
<path d="M61.4163 345.703C45.9163 270.003 43.2163 209.403 53.2163 160.503C59.4163 130.103 70.7163 103.503 86.9163 81.7031" stroke="#CEDBED" stroke-width="2.1183" stroke-miterlimit="10"/>
<path d="M68.4163 350.303H554.916C554.916 350.303 611.016 275.103 604.416 179.503C597.916 83.9032 530.216 60.0032 445.016 44.4032C359.916 28.7032 260.116 -15.9968 160.316 30.7032C40.5163 86.7032 40.5163 218.103 68.4163 350.303Z" fill="#CEDBED"/>
<path d="M327.516 251.603C318.616 162.303 213.016 164.703 213.016 164.703C175.616 108.703 108.716 107.903 75.9163 111.403C43.8163 176.603 50.0163 263.303 68.4163 350.303H430.316C418.016 256.003 327.516 251.603 327.516 251.603Z" fill="url(#paint0_linear)"/>
<path d="M554.916 350.303C554.916 350.303 611.016 275.103 604.416 179.503C602.616 152.703 595.916 131.603 585.516 114.603C552.216 121.703 499.116 142.503 461.416 202.903C425.116 261.003 405.016 316.403 394.916 350.303H554.916Z" fill="url(#paint1_linear)"/>
<path d="M37.0163 247.603C37.0163 247.603 27.8163 230.803 23.3163 225.303C17.1163 217.903 6.01629 216.703 1.21628 228.503C-3.18372 239.403 5.11628 246.903 13.9163 248.603C22.6163 250.303 37.0163 247.603 37.0163 247.603Z" fill="url(#paint2_linear)"/>
<path d="M50.2163 243.403C50.2163 243.403 47.5163 223.903 48.7163 214.703C49.9163 205.503 58.2163 204.403 63.7163 207.103C69.2163 209.703 73.4163 215.703 70.7163 224.603C67.8163 233.503 50.2163 243.403 50.2163 243.403Z" fill="url(#paint3_linear)"/>
<path d="M45.8163 273.703C45.8163 273.703 32.2163 260.803 25.6163 257.603C19.0163 254.403 9.51628 256.703 8.31628 266.003C7.11628 275.303 10.7163 282.003 21.0163 283.303C31.4163 284.603 45.8163 273.703 45.8163 273.703Z" fill="url(#paint4_linear)"/>
<path d="M59.4163 266.903C59.4163 266.903 59.6163 252.703 62.2163 244.003C64.8163 235.303 72.0163 234.303 77.3163 238.203C82.6163 242.203 84.7163 250.603 80.5163 256.103C76.4163 261.503 59.4163 266.903 59.4163 266.903Z" fill="url(#paint5_linear)"/>
<path d="M37.9163 223.903C37.9163 223.903 28.8163 216.603 19.5163 205.903C10.2163 195.203 12.6163 175.503 28.1163 173.303C42.1163 171.403 48.0163 184.703 47.5163 195.403C47.0163 206.203 37.9163 223.903 37.9163 223.903Z" fill="url(#paint6_linear)"/>
<path d="M30.7163 185.503C30.7163 185.503 35.9163 242.003 70.6163 315.703" stroke="#0C3069" stroke-width="1.1047" stroke-miterlimit="10"/>
<path d="M9.91628 233.903C22.5163 241.203 45.6163 251.603 45.6163 251.603C45.6163 251.603 56.4163 232.003 59.8163 220.203" stroke="#0C3069" stroke-width="1.1047" stroke-miterlimit="10"/>
<path d="M19.1163 269.703C34.5163 272.203 53.4163 274.703 53.4163 274.703C53.4163 274.703 66.5163 257.803 73.3163 246.703" stroke="#0C3069" stroke-width="1.1047" stroke-miterlimit="10"/>
<path d="M490.516 72.4031H174.316V200.503H490.516V72.4031Z" stroke="white" stroke-width="2.114" stroke-miterlimit="10"/>
<path d="M440.316 351.003H622.816C622.816 351.003 620.716 311.703 603.816 324.403C603.816 324.403 609.116 285.503 605.416 285.403C601.716 285.303 591.716 295.903 591.716 295.903C591.716 295.903 597.016 259.103 588.516 261.103C580.016 263.103 580.616 270.503 580.616 270.503C580.616 270.503 585.916 232.303 581.116 209.903C576.316 187.603 582.216 167.203 572.616 165.203C563.116 163.203 550.916 223.503 550.916 223.503C550.916 223.503 543.016 219.803 539.316 247.303C539.316 247.303 521.416 234.603 520.816 274.803C520.816 274.803 491.016 271.203 486.616 303.103C486.616 303.103 467.816 301.603 462.616 315.203C457.516 328.703 438.816 332.603 440.316 351.003Z" fill="url(#paint7_linear)"/>
<path d="M214.916 351.003H18.8163C18.8163 351.003 24.8163 343.703 31.6163 341.803C31.6163 341.803 34.5163 315.203 50.8163 314.503C50.8163 314.503 77.2163 239.003 89.9163 285.903C89.9163 285.903 88.4163 230.303 113.316 257.703C113.316 257.703 118.016 209.703 128.316 208.903C138.616 208.103 143.416 262.003 143.416 262.003C143.416 262.003 156.516 261.603 163.516 271.203C163.516 271.203 162.216 215.603 172.616 215.503C183.016 215.303 186.116 269.603 186.116 269.603C186.116 269.603 216.016 251.003 203.216 329.403C203.216 329.303 217.516 327.903 214.916 351.003Z" fill="url(#paint8_linear)"/>
<path d="M321.716 252.303L312.216 350.403" stroke="#1656BD" stroke-width="3.171" stroke-miterlimit="10"/>
<path d="M352.116 252.303L361.516 350.403" stroke="#1656BD" stroke-width="3.171" stroke-miterlimit="10"/>
<path d="M319.316 276.803H354.616" stroke="#1656BD" stroke-width="3.171" stroke-miterlimit="10"/>
<path d="M317.416 298.403H356.516" stroke="#1656BD" stroke-width="3.3407" stroke-miterlimit="10"/>
<path d="M358.116 255.103H315.616C313.716 255.103 312.216 253.603 312.216 251.703V247.803C312.216 245.903 313.716 244.403 315.616 244.403H358.116C360.016 244.403 361.516 245.903 361.516 247.803V251.703C361.516 253.603 360.016 255.103 358.116 255.103Z" fill="#0C3069"/>
<path d="M400.116 252.303L390.616 350.403" stroke="#1656BD" stroke-width="3.171" stroke-miterlimit="10"/>
<path d="M430.416 252.303L439.916 350.403" stroke="#1656BD" stroke-width="3.171" stroke-miterlimit="10"/>
<path d="M397.716 276.803H432.916" stroke="#1656BD" stroke-width="3.171" stroke-miterlimit="10"/>
<path d="M395.816 298.403H434.916" stroke="#1656BD" stroke-width="3.3407" stroke-miterlimit="10"/>
<path d="M436.516 255.103H394.016C392.116 255.103 390.616 253.603 390.616 251.703V247.803C390.616 245.903 392.116 244.403 394.016 244.403H436.516C438.416 244.403 439.916 245.903 439.916 247.803V251.703C439.916 253.603 438.416 255.103 436.516 255.103Z" fill="#0C3069"/>
<path d="M329.816 362.803C333.627 362.803 336.716 361.102 336.716 359.003C336.716 356.905 333.627 355.203 329.816 355.203C326.006 355.203 322.916 356.905 322.916 359.003C322.916 361.102 326.006 362.803 329.816 362.803Z" fill="#CEDBED"/>
<path d="M330.316 319.303L330.516 338.903C330.516 338.903 331.616 341.503 331.516 344.903C331.516 348.303 334.616 353.603 331.816 356.103C329.116 358.603 325.916 356.503 325.616 353.103C325.416 349.703 325.616 346.303 324.716 344.403C323.816 342.503 323.616 339.503 324.916 338.103L321.616 319.603L330.316 319.303Z" fill="#FF6D6D"/>
<path d="M329.216 345.603C328.916 345.603 328.616 345.703 328.216 345.703C327.316 345.803 326.516 345.303 326.316 344.403L324.916 338.103C323.616 339.503 323.816 342.503 324.716 344.403C325.616 346.303 325.416 349.603 325.616 353.103C325.816 356.503 329.016 358.603 331.816 356.103C334.516 353.603 331.416 348.303 331.516 344.903C331.516 341.503 330.516 338.903 330.516 338.903L330.716 343.803C330.716 344.703 330.116 345.503 329.216 345.603Z" fill="#0C3069"/>
<path d="M373.416 312.503L376.216 331.903C376.216 331.903 377.616 334.303 378.016 337.703C378.416 341.103 382.216 346.003 379.816 348.803C377.416 351.603 374.016 350.003 373.316 346.603C372.616 343.203 372.416 339.903 371.216 338.103C370.016 336.303 369.516 333.303 370.616 331.803L364.916 313.903L373.416 312.503Z" fill="#FF6D6D"/>
<path d="M375.716 338.603C375.416 338.703 375.116 338.803 374.816 338.803C374.016 339.003 373.116 338.603 372.816 337.803L370.616 331.803C369.516 333.303 370.116 336.403 371.216 338.103C372.316 339.803 372.616 343.203 373.316 346.603C374.016 350.003 377.416 351.603 379.816 348.803C382.216 346.003 378.416 341.103 378.016 337.703C377.616 334.303 376.216 331.903 376.216 331.903L377.016 336.703C377.216 337.603 376.616 338.403 375.716 338.603Z" fill="#0C3069"/>
<path d="M321.516 160.903C321.516 160.903 333.216 170.603 346.316 164.503C346.316 164.503 346.316 163.003 347.616 163.003C348.916 163.003 354.216 164.003 361.416 167.403C371.616 172.203 395.016 198.503 394.016 211.703C393.316 221.403 386.216 224.603 379.916 224.303C373.616 224.003 374.116 213.303 374.116 213.303L354.216 196.603L350.516 224.303H308.016L302.016 180.903L287.616 119.203C287.616 119.203 288.816 114.203 292.716 110.803C296.616 107.503 300.816 109.603 300.816 109.603L321.516 160.903Z" fill="#0C3069"/>
<path d="M321.516 160.903L300.816 109.503C300.816 109.503 296.616 107.403 292.716 110.703C288.816 114.003 287.616 119.103 287.616 119.103L302.016 180.803C316.016 191.603 321.516 160.903 321.516 160.903Z" fill="#103F8A"/>
<path d="M379.916 224.303C386.216 224.603 393.316 221.403 394.016 211.703C395.016 198.403 371.616 172.203 361.416 167.403C359.816 166.603 358.316 166.003 357.016 165.503C347.716 180.703 354.216 196.603 354.216 196.603L374.116 213.303C374.116 213.303 373.516 224.003 379.916 224.303Z" fill="#103F8A"/>
<path d="M384.516 214.003C384.616 220.403 382.716 224.803 379.016 224.303C375.316 223.903 373.516 217.803 374.116 213.303L384.516 214.003Z" fill="#08224A"/>
<path d="M366.016 222.803H338.016L344.316 184.103H372.316L366.016 222.803Z" fill="#FFA526"/>
<path d="M362.416 187.303H353.216L354.016 182.403H363.216L362.416 187.303Z" stroke="white" stroke-width="0.7201" stroke-miterlimit="10"/>
<path d="M319.316 239.703C334.616 240.203 333.016 321.403 333.016 321.403H317.316C317.316 321.403 313.616 314.503 313.616 308.403C313.616 302.103 310.616 295.503 309.716 288.803C308.916 282.203 296.016 239.003 319.316 239.703Z" fill="#80371D"/>
<path d="M333.116 315.603H314.916" stroke="#FFA526" stroke-width="0.7201" stroke-miterlimit="10"/>
<path d="M351.816 235.003C367.016 233.403 376.316 314.203 376.316 314.203L360.816 316.303C360.816 316.303 356.216 309.903 355.416 303.903C354.516 297.703 350.716 291.603 348.916 285.003C347.216 278.503 328.716 237.503 351.816 235.003Z" fill="#80371D"/>
<path d="M375.716 309.103L358.316 311.503" stroke="#FFA526" stroke-width="0.7201" stroke-miterlimit="10"/>
<path d="M328.316 150.503L327.516 160.103C327.416 161.103 326.516 161.803 325.516 161.603L321.416 160.903C321.416 160.903 323.816 174.403 334.016 176.403C344.216 178.303 346.216 164.503 346.216 164.503L340.616 163.503L337.716 150.503H328.316Z" fill="#FF6D6D"/>
<path d="M337.716 150.503H328.316L328.016 154.203C329.816 156.303 333.616 159.403 339.816 159.603L337.716 150.503Z" fill="url(#paint9_linear)"/>
<path d="M324.616 144.403C324.616 144.403 319.616 135.003 325.216 131.403C328.116 125.103 340.616 126.103 343.616 133.003C346.616 140.003 341.416 144.203 341.416 144.203L324.616 144.403Z" fill="#D92727"/>
<path d="M329.216 130.903C332.475 130.903 335.116 128.262 335.116 125.003C335.116 121.745 332.475 119.103 329.216 119.103C325.958 119.103 323.316 121.745 323.316 125.003C323.316 128.262 325.958 130.903 329.216 130.903Z" fill="#D92727"/>
<path d="M342.816 143.703C342.016 143.303 341.416 143.503 341.216 143.603C341.516 141.803 341.616 140.303 341.616 140.303C341.616 140.303 333.416 141.403 328.316 136.203C328.316 136.203 327.716 140.803 325.316 142.503C325.316 142.503 325.316 142.903 325.416 143.603C325.116 143.503 324.616 143.403 323.916 143.803C322.816 144.403 323.516 147.103 325.816 147.103C326.116 148.903 326.716 150.803 327.616 151.603C329.616 153.403 332.416 154.903 333.916 154.803C335.416 154.703 339.616 151.303 340.216 149.803C340.416 149.403 340.616 148.303 340.716 147.103C340.816 147.103 340.916 147.103 341.016 147.103C343.216 146.903 343.816 144.303 342.816 143.703Z" fill="#FF6D6D"/>
<path d="M381.516 209.603L349.916 202.503C349.916 202.503 344.516 195.203 342.916 194.903C341.316 194.603 343.616 197.403 343.616 197.403C343.616 197.403 341.316 195.803 340.816 196.903C340.216 198.003 340.816 199.403 340.816 199.403C340.816 199.403 340.116 200.503 341.916 202.303C343.716 204.103 348.816 205.303 348.816 205.303C348.816 205.303 372.416 220.003 377.916 222.103C383.316 224.103 387.616 212.403 381.516 209.603Z" fill="#FF6D6D"/>
<path d="M300.816 109.503C300.816 109.503 296.616 107.403 292.716 110.703C288.816 114.003 287.616 119.103 287.616 119.103C292.516 123.003 300.416 113.803 300.816 109.503Z" fill="#08224A"/>
<path d="M300.616 110.503L294.716 91.4033C294.716 91.4033 296.916 86.9033 296.516 85.6033C296.216 84.3033 294.716 84.7033 294.716 84.7033C294.716 84.7033 294.416 83.3033 294.216 83.0033C294.016 82.7033 288.616 85.2033 288.616 85.2033C288.616 85.2033 287.616 88.2033 289.016 89.0033C289.016 89.0033 288.516 91.5033 290.916 92.0033L295.916 117.403C295.816 117.403 299.316 114.703 300.616 110.503Z" fill="#FF6D6D"/>
<path d="M234.716 252.303L225.216 350.403" stroke="#1656BD" stroke-width="3.171" stroke-miterlimit="10"/>
<path d="M265.016 252.303L274.516 350.403" stroke="#1656BD" stroke-width="3.171" stroke-miterlimit="10"/>
<path d="M232.316 276.803H267.516" stroke="#1656BD" stroke-width="3.171" stroke-miterlimit="10"/>
<path d="M230.416 298.403H269.516" stroke="#1656BD" stroke-width="3.3407" stroke-miterlimit="10"/>
<path d="M271.116 255.103H228.616C226.716 255.103 225.216 253.603 225.216 251.703V247.803C225.216 245.903 226.716 244.403 228.616 244.403H271.116C273.016 244.403 274.516 245.903 274.516 247.803V251.703C274.516 253.603 273.016 255.103 271.116 255.103Z" fill="#0C3069"/>
<path d="M207.116 49.5032C186.816 49.5032 132.216 49.5032 113.216 49.5032C94.2163 49.5032 102.616 33.6032 113.216 30.8032C123.816 28.0032 121.316 11.1032 140.316 4.40317C150.916 0.703171 161.816 11.4032 161.816 11.4032C161.816 11.4032 173.816 7.50317 184.316 15.3032C191.416 20.5032 196.816 32.0032 207.016 32.2032C224.016 32.6032 231.216 49.5032 207.116 49.5032Z" fill="#A1C1ED"/>
<path d="M281.816 41.6031C281.816 41.6031 276.516 34.0031 268.116 41.6031C268.116 41.6031 280.116 39.8031 281.816 48.8031C283.516 39.8031 295.516 41.6031 295.516 41.6031C287.016 34.1031 281.816 41.6031 281.816 41.6031Z" fill="#A1C1ED"/>
<path d="M539.716 98.503C539.716 98.503 535.816 92.903 529.516 98.503C529.516 98.503 538.416 97.2031 539.716 103.903C541.016 97.2031 549.916 98.503 549.916 98.503C543.616 92.903 539.716 98.503 539.716 98.503Z" fill="#A1C1ED"/>
<path d="M113.016 362.203C114.216 364.803 108.616 369.903 100.516 373.703C92.4163 377.403 84.9163 378.403 83.7163 375.803C82.5163 373.203 88.1163 368.103 96.2163 364.303C104.316 360.503 111.816 359.603 113.016 362.203Z" fill="#CEDBED"/>
<path d="M159.716 360.803C158.516 363.403 164.116 368.503 172.216 372.303C180.316 376.003 187.816 377.003 189.016 374.403C190.216 371.803 184.616 366.703 176.516 362.903C168.416 359.203 160.916 358.203 159.716 360.803Z" fill="#CEDBED"/>
<path d="M162.716 345.703L164.316 357.003C164.316 357.003 162.516 362.403 164.316 364.203C166.116 366.003 172.916 368.603 172.916 368.603C172.916 368.603 184.116 374.103 185.816 372.903C187.616 371.803 176.116 360.003 176.116 360.003L172.316 351.403L171.416 345.903L162.716 345.703Z" fill="#0C3069"/>
<path d="M173.716 354.403C170.116 355.803 170.216 359.403 170.216 359.403L164.316 357.003C164.316 357.003 162.516 362.403 164.316 364.203C166.116 366.003 172.916 368.603 172.916 368.603C172.916 368.603 184.116 374.103 185.816 372.903C187.616 371.803 176.116 360.003 176.116 360.003L173.716 354.403Z" fill="#16A3BD"/>
<path d="M110.016 345.703V357.003C110.016 357.003 111.816 360.703 110.016 364.403C108.216 368.103 87.1163 375.103 86.1163 374.203C85.0163 373.303 96.1163 363.003 96.1163 363.003L101.016 354.503L101.316 345.803H110.016V345.703Z" fill="#0C3069"/>
<path d="M100.216 355.803L96.1163 362.903C96.1163 362.903 85.0163 373.203 86.1163 374.103C87.2163 375.003 108.216 368.003 110.016 364.303C110.916 362.503 110.916 360.603 110.716 359.203L105.116 360.503C104.416 357.703 102.116 356.403 100.216 355.803Z" fill="#16A3BD"/>
<path d="M151.116 188.303L154.516 216.803C154.516 216.803 159.316 235.803 160.316 249.003C161.416 262.203 175.416 347.303 175.416 347.303H159.816C159.816 347.303 157.416 342.303 158.016 337.803C158.516 333.303 153.016 329.303 153.816 324.303C154.616 319.303 148.316 309.803 146.916 300.503C145.616 291.303 125.216 226.803 125.216 226.803L115.716 303.703C115.716 303.703 117.316 317.203 115.716 323.003C114.116 328.803 115.216 337.003 112.516 347.303H97.1163C97.1163 347.303 95.1163 286.503 94.8163 271.703C94.5163 256.903 94.7163 206.703 100.716 188.203H151.116V188.303Z" fill="#0F3D85"/>
<path d="M96.5163 215.203C113.116 204.203 141.816 197.603 152.016 195.503L151.116 188.403H100.816C98.7163 194.603 97.4163 204.403 96.5163 215.203Z" fill="url(#paint10_linear)"/>
<path d="M112.316 105.203C112.316 105.203 124.816 88.5032 141.616 105.203C141.616 105.203 163.716 104.803 168.816 122.003L181.016 156.203L220.816 169.403L219.216 176.403C219.216 176.403 188.916 179.303 175.916 176.403C162.916 173.503 154.216 156.603 154.216 156.603L152.416 184.403C152.416 184.403 154.916 187.703 154.216 189.703C153.516 191.603 148.116 192.003 141.616 192.003C135.216 192.003 99.7163 192.003 99.7163 192.003L90.5163 111.803C90.6163 111.803 99.9163 107.203 112.316 105.203Z" fill="#1656BD"/>
<path d="M92.3163 188.403C92.3163 188.403 95.4163 190.303 97.5163 189.403C99.6163 188.503 101.216 186.503 104.816 186.003C108.416 185.503 109.116 185.903 109.116 186.403C109.116 186.903 104.216 187.303 102.416 188.703C102.416 188.703 110.416 187.303 110.616 188.803C110.716 189.503 103.916 189.703 102.316 190.703C102.316 190.703 110.016 190.103 110.116 190.703C110.216 191.303 103.416 191.703 102.316 192.703C102.316 192.703 107.916 192.703 107.516 193.903C107.116 195.003 104.116 193.503 101.716 194.703C99.3163 195.903 97.6163 196.303 95.0163 194.703C92.5163 193.103 91.0163 192.703 91.0163 192.703L92.3163 188.403Z" fill="#FF6D6D"/>
<path d="M170.216 174.203C170.216 174.203 165.516 164.103 163.016 159.503C160.516 154.903 163.516 148.203 164.316 142.403C165.116 136.603 157.816 131.603 157.816 131.603L154.216 156.603C154.216 156.503 160.416 168.703 170.216 174.203Z" fill="url(#paint11_linear)"/>
<path d="M90.6163 111.803C95.8163 109.503 99.9163 140.503 94.7163 147.403C89.4163 154.303 76.0163 169.703 76.0163 169.703C76.0163 169.703 78.6163 170.503 76.0163 172.903L95.3163 188.403L93.5163 194.803C93.5163 194.803 72.6163 190.103 58.7163 182.703C44.8163 175.303 53.5163 158.603 56.5163 152.803C59.4163 146.903 74.2163 130.403 74.2163 130.403C74.2163 130.403 79.5163 116.603 90.6163 111.803Z" fill="#1656BD"/>
<path d="M85.5163 128.903C85.5163 128.903 86.0163 134.903 94.4163 144.903" stroke="#0C3069" stroke-width="0.8889" stroke-miterlimit="10"/>
<path d="M87.7163 135.103C87.7163 135.103 83.1163 146.003 85.5163 148.303C87.6163 150.403 80.7163 158.703 81.5163 163.303C85.8163 158.203 91.6163 151.403 94.7163 147.403C95.0163 147.003 95.2163 146.603 95.5163 146.003C93.4163 143.703 89.0163 138.203 87.7163 135.103Z" fill="url(#paint12_linear)"/>
<path d="M174.316 340.303H157.916" stroke="#0C3069" stroke-width="0.8889" stroke-miterlimit="10"/>
<path d="M113.316 340.303H97.0163" stroke="#0C3069" stroke-width="0.8889" stroke-miterlimit="10"/>
<path d="M125.116 227.803V192.003" stroke="#0C3069" stroke-width="0.8889" stroke-miterlimit="10"/>
<path d="M130.616 192.003C130.616 192.003 130.616 199.503 130.616 206.503C130.616 213.503 125.116 215.503 125.116 215.503" stroke="#0C3069" stroke-width="0.8889" stroke-miterlimit="10"/>
<path d="M141.616 192.003C141.616 192.003 141.016 202.603 153.516 208.503" stroke="#0C3069" stroke-width="0.8889" stroke-miterlimit="10"/>
<path d="M107.616 191.203C107.616 191.203 103.016 209.203 96.9163 210.403" stroke="#0C3069" stroke-width="0.8889" stroke-miterlimit="10"/>
<path d="M149.116 267.003C149.116 267.003 151.416 269.603 155.116 270.303" stroke="#0C3069" stroke-width="0.8889" stroke-miterlimit="10"/>
<path d="M111.916 267.903C111.916 267.903 106.116 272.003 102.216 273.403" stroke="#0C3069" stroke-width="0.8889" stroke-miterlimit="10"/>
<path d="M119.216 90.0032L112.416 80.4032C112.416 80.4032 106.116 75.8032 109.716 69.5032C113.316 63.2032 124.916 66.7032 130.416 68.3032C130.416 68.3032 141.516 68.9032 141.516 76.5032C141.516 84.1032 132.916 89.9032 132.916 89.9032H119.216V90.0032Z" fill="#0F3D85"/>
<path d="M121.516 94.3032L119.916 105.403C119.716 106.503 120.116 107.603 121.016 108.203C122.016 109.003 123.616 109.803 126.216 109.803C128.616 109.803 130.316 109.003 131.416 108.203C132.316 107.503 132.716 106.403 132.616 105.303L131.016 94.4032H121.516V94.3032Z" fill="#FF6D6D"/>
<path d="M119.916 105.703C124.916 105.603 129.316 102.703 131.916 100.603L131.016 94.3032H121.616L120.016 105.403C119.916 105.503 119.916 105.603 119.916 105.703Z" fill="url(#paint13_linear)"/>
<path d="M129.216 72.4033C129.216 72.4033 125.916 79.5033 117.716 80.5033C117.716 80.5033 117.316 98.6033 125.816 98.6033C134.316 98.6033 135.816 82.8033 135.816 82.8033C135.816 82.8033 128.916 77.4033 129.216 72.4033Z" fill="#FF6D6D"/>
<path d="M93.3163 135.203C93.3163 135.203 98.7163 128.503 108.816 135.203C108.816 135.203 116.916 126.903 126.316 135.203C126.316 135.203 136.216 126.903 145.316 135.203C145.316 135.203 153.116 131.303 157.416 135.203L154.916 149.903H95.1163L93.3163 135.203Z" fill="#16A3BD"/>
<path d="M158.816 123.303C158.816 123.303 158.516 126.603 157.716 132.303C156.916 138.003 154.016 154.403 154.016 154.403" stroke="#0C3069" stroke-width="0.8889" stroke-miterlimit="10"/>
<path d="M162.016 132.103C162.016 132.103 160.216 140.003 155.716 144.303" stroke="#0C3069" stroke-width="0.8889" stroke-miterlimit="10"/>
<path d="M95.1163 149.903C95.1163 149.903 92.9163 131.503 93.3163 124.203" stroke="#0C3069" stroke-width="0.8889" stroke-miterlimit="10"/>
<path d="M256.616 359.003C256.616 362.303 251.616 365.003 245.516 365.003C239.416 365.003 234.416 362.303 234.416 359.003C234.416 355.703 239.416 353.003 245.516 353.003C251.616 353.003 256.616 355.703 256.616 359.003Z" fill="#CEDBED"/>
<path d="M240.916 338.203L240.616 348.403C240.616 348.403 237.616 356.003 239.116 356.203C240.616 356.403 243.016 356.503 242.016 358.203C241.016 359.903 239.816 362.203 246.016 362.603C252.216 363.103 253.316 361.003 252.516 358.603C251.916 356.703 248.416 351.103 247.116 349.003C246.816 348.503 246.616 347.903 246.716 347.303L247.516 335.703L240.916 338.203Z" fill="#FF6D6D"/>
<path d="M239.116 356.203C240.616 356.403 243.016 356.503 242.016 358.203C241.016 359.903 239.816 362.203 246.016 362.603C252.216 363.103 253.316 361.003 252.516 358.603C252.016 356.903 249.416 352.603 247.816 350.103C245.916 350.503 243.316 351.403 242.316 352.903C241.516 354.203 240.316 353.103 239.416 351.703C238.816 353.903 238.316 356.103 239.116 356.203Z" fill="#0C3069"/>
<path d="M236.516 262.403L238.116 340.203H254.016C254.016 340.203 257.216 335.803 256.816 326.003C256.416 316.103 260.316 314.403 260.716 305.903C261.116 297.403 264.816 259.403 264.816 259.403L236.516 262.403Z" fill="#0F3D85"/>
<path d="M263.816 267.903C263.816 267.903 260.616 274.203 255.616 274.903C250.716 275.603 250.016 281.403 245.216 286.903C240.416 292.403 242.416 297.503 237.216 301.503L236.416 262.403L264.616 259.403L263.816 267.903Z" fill="url(#paint14_linear)"/>
<path d="M265.916 257.003L277.816 256.003C278.916 255.903 279.916 256.303 280.716 257.003C281.916 258.103 283.616 260.103 284.816 263.203C286.716 268.503 286.816 271.403 288.916 271.703C290.916 272.003 287.816 246.203 287.816 246.203L263.616 244.303L265.916 257.003Z" fill="#FF6D6D"/>
<path d="M283.316 245.803L284.616 255.903L281.816 258.103C282.816 259.303 284.016 260.903 284.816 263.203C286.716 268.503 286.816 271.403 288.916 271.703C290.916 272.003 287.816 246.203 287.816 246.203L283.316 245.803Z" fill="#0C3069"/>
<path d="M247.316 154.703C226.216 157.703 215.916 164.203 213.816 165.703C213.516 165.903 213.416 166.003 213.416 166.003C197.416 177.803 186.116 215.603 187.116 220.603C188.916 229.703 199.516 227.303 202.016 223.403C203.916 220.403 214.416 205.303 218.916 198.903C220.616 212.303 221.916 224.303 221.916 224.303H274.616L277.516 166.203C268.316 155.003 247.316 154.703 247.316 154.703Z" fill="url(#paint15_linear)"/>
<path d="M218.816 199.003L215.216 174.203" stroke="#D92727" stroke-width="0.8889" stroke-miterlimit="10"/>
<path d="M210.916 181.503C210.916 181.503 210.916 190.403 218.216 195.003" stroke="#D92727" stroke-width="0.8889" stroke-miterlimit="10"/>
<path d="M201.916 189.003L203.416 158.503C203.416 158.503 204.716 156.903 205.216 154.803C205.716 152.703 209.516 150.903 209.016 149.503C208.516 148.203 205.716 151.403 205.016 151.103C204.216 150.803 204.416 150.203 204.116 146.203C203.816 142.203 204.216 138.303 203.416 138.303C202.616 138.303 202.116 147.603 202.116 147.603C202.116 147.603 201.416 136.703 200.016 136.903C198.716 137.103 199.516 147.203 199.516 147.203C199.516 147.203 197.516 138.203 196.516 138.203C195.516 138.203 197.016 147.703 197.016 147.703C197.016 147.703 193.516 141.703 192.916 142.003C192.316 142.303 196.116 149.203 196.116 149.203C196.116 149.203 195.016 155.203 197.616 158.103L191.116 188.403L201.916 189.003Z" fill="#FF6D6D"/>
<path d="M218.816 199.103L215.816 178.303C215.816 178.303 210.716 182.103 210.916 190.903C211.116 199.703 204.216 198.403 203.816 203.803C203.416 209.203 198.616 213.203 198.616 213.203L201.316 224.403C201.516 224.103 201.816 223.903 201.916 223.603C203.916 220.503 214.316 205.403 218.816 199.103Z" fill="url(#paint16_linear)"/>
<path d="M242.416 224.403H274.516L276.816 178.003L264.016 175.003C258.316 179.403 256.716 184.603 256.916 188.203C257.016 191.803 251.016 195.103 250.216 200.203C249.616 204.303 244.516 218.603 242.416 224.403Z" fill="url(#paint17_linear)"/>
<path d="M256.016 214.303L233.316 220.603C233.316 220.603 224.216 220.603 223.116 224.403H257.916L256.016 214.303Z" fill="#F04F4F"/>
<path d="M180.616 262.703C177.416 250.303 187.016 239.003 217.016 239.003C253.416 239.003 267.816 241.103 267.816 241.103V260.503C267.816 260.503 185.416 280.603 180.616 262.703Z" fill="#0F3D85"/>
<path d="M246.316 144.403L249.716 155.203C250.116 156.403 249.716 157.603 248.816 158.503C245.916 161.103 239.816 166.203 238.216 164.803C236.216 163.003 236.016 150.703 236.016 150.703L246.316 144.403Z" fill="#FF6D6D"/>
<path d="M247.316 147.503L246.316 144.303L235.916 150.603C235.916 150.603 236.016 155.903 236.616 160.003C242.216 157.703 245.816 151.103 247.316 147.503Z" fill="url(#paint18_linear)"/>
<path d="M229.416 141.303C229.416 141.303 230.616 152.703 233.216 153.903C235.816 155.103 244.916 148.703 246.816 144.903C246.816 144.903 251.716 141.903 249.316 137.803L238.216 128.303L228.416 131.603L229.416 141.303Z" fill="#FF6D6D"/>
<path d="M234.916 132.203C234.916 132.203 237.816 130.203 239.216 133.303C240.616 136.403 241.016 139.403 246.116 139.303C246.116 139.303 246.616 137.003 249.316 137.803C249.316 137.803 250.116 134.103 250.416 130.603C250.716 127.103 244.616 117.603 234.316 126.903C234.316 126.903 228.616 124.803 226.216 130.203C223.816 135.703 225.716 141.703 225.716 141.703C225.716 141.703 228.316 143.503 233.416 141.703C233.216 141.703 229.216 130.503 234.916 132.203Z" fill="#0C3069"/>
<path d="M203.816 185.403L202.416 222.803H187.716C187.716 222.803 182.816 221.003 183.516 209.003C184.216 197.003 189.216 184.703 189.216 184.703L203.816 185.403Z" fill="url(#paint19_linear)"/>
<path d="M277.416 166.303C282.216 172.303 290.316 193.803 292.616 214.303C293.216 219.603 289.016 224.303 283.616 224.303H254.216C254.216 224.303 251.816 217.203 253.016 212.303L265.316 209.903C265.316 209.903 264.416 207.003 267.016 206.703C267.016 206.703 265.716 200.203 262.416 188.303C259.116 176.303 272.316 159.803 277.416 166.303Z" fill="url(#paint20_linear)"/>
<path d="M265.916 171.503C265.916 171.503 259.716 177.603 263.016 190.803" stroke="#D92727" stroke-width="0.8889" stroke-miterlimit="10"/>
<path d="M323.416 222.803H268.816L275.516 185.403H330.216L323.416 222.803Z" fill="url(#paint21_linear)"/>
<path d="M303.705 208.657C306.721 205.9 307.294 201.616 304.984 199.088C302.673 196.561 298.355 196.747 295.338 199.505C292.322 202.262 291.749 206.546 294.06 209.074C296.37 211.601 300.688 211.415 303.705 208.657Z" fill="#0C3069"/>
<path d="M378.216 208.903C378.216 208.903 380.916 205.903 385.716 208.603" stroke="#0C3069" stroke-width="0.7201" stroke-miterlimit="10"/>
<path d="M407.816 356.203C408.016 358.303 403.016 360.403 396.616 360.903C390.216 361.503 384.916 360.203 384.816 358.203C384.616 356.103 389.616 354.003 396.016 353.503C402.416 352.903 407.716 354.103 407.816 356.203Z" fill="#CEDBED"/>
<path d="M459.816 356.203C460.016 358.303 455.016 360.403 448.616 360.903C442.216 361.503 436.916 360.203 436.816 358.203C436.616 356.103 441.616 354.003 448.016 353.503C454.316 352.903 459.616 354.103 459.816 356.203Z" fill="#CEDBED"/>
<path d="M404.116 313.703L400.216 348.703L393.216 353.603C393.216 353.603 386.016 354.703 386.016 356.103C386.016 357.603 401.316 355.803 405.016 355.703C408.716 355.603 405.616 353.003 405.916 350.103C406.216 347.203 414.716 313.503 414.716 313.503L404.116 313.703Z" fill="#FF6D6D"/>
<path d="M446.916 313.703L452.116 348.703L445.116 353.603C445.116 353.603 437.916 354.703 437.916 356.103C437.916 357.503 453.216 355.803 456.916 355.703C460.616 355.603 457.516 353.003 457.816 350.103C458.116 347.203 457.516 313.503 457.516 313.503L446.916 313.703Z" fill="#FF6D6D"/>
<path d="M451.516 179.803C451.516 179.803 459.216 191.103 458.916 222.303L460.516 316.303H442.916L429.516 226.903L421.616 275.603C421.616 275.603 425.416 287.203 416.816 316.203H401.116L404.016 268.503C404.016 268.503 401.816 226.903 413.116 179.703H451.516V179.803Z" fill="#456B4B"/>
<path d="M429.416 226.903C429.416 226.903 424.816 200.603 426.016 178.503" stroke="#38573D" stroke-width="0.7201" stroke-miterlimit="10"/>
<path d="M421.416 178.603C421.416 178.603 420.116 201.503 426.516 201.803" stroke="#38573D" stroke-width="0.7201" stroke-miterlimit="10"/>
<path opacity="0.5" d="M451.516 179.803H413.116C412.416 182.803 411.716 185.703 411.116 188.603C413.316 189.203 416.816 189.703 421.516 189.003C429.916 187.703 447.316 199.903 457.416 199.803C455.316 185.503 451.516 179.803 451.516 179.803Z" fill="url(#paint22_linear)"/>
<path d="M411.616 123.803L388.516 140.303L379.016 128.303L380.016 127.703L376.616 119.403L371.916 122.303C370.916 123.003 370.316 124.203 370.616 125.403C371.216 127.703 372.516 131.003 375.416 131.203C375.416 131.203 378.416 150.703 386.516 153.203C394.616 155.703 420.216 133.603 420.216 133.603L411.616 123.803Z" fill="#FF6D6D"/>
<path d="M411.616 123.803L396.116 134.803C401.316 134.903 409.816 135.903 411.316 140.603C416.416 136.703 420.216 133.503 420.216 133.503L411.616 123.803Z" fill="url(#paint23_linear)"/>
<path d="M423.116 114.103L411.016 122.703C410.216 123.303 410.116 124.403 410.716 125.203L420.216 135.603L423.116 114.103Z" fill="#1656BD"/>
<path d="M427.116 113.203C422.316 115.903 413.716 129.503 413.716 129.503C413.016 122.903 415.816 116.803 415.816 116.803C415.816 116.803 409.816 116.703 409.116 115.303C406.816 110.703 414.016 100.303 414.016 100.303C404.216 98.0031 400.716 92.1031 407.116 88.2031C413.716 84.4031 421.016 81.0031 421.016 81.0031C421.016 81.0031 424.816 75.0031 432.416 80.1031C437.216 83.4031 436.716 89.4031 438.416 91.6031C440.116 93.8031 444.916 96.7031 443.216 97.9031C443.216 97.9031 451.116 100.603 452.816 107.903C452.816 107.903 444.816 106.403 440.316 109.203L427.116 113.203Z" fill="#FFA526"/>
<path d="M440.316 109.303C445.416 105.103 453.216 104.503 456.716 108.203C460.216 112.003 460.516 124.803 460.516 124.803H455.616C455.616 124.803 449.816 143.203 449.616 151.103C449.416 159.003 456.116 180.503 456.116 180.503C457.016 183.703 452.916 183.903 446.216 183.903C439.516 183.903 420.316 183.903 413.716 183.903C407.116 183.903 410.116 178.403 411.516 172.703C412.816 167.003 417.416 149.603 417.516 145.903C417.616 142.203 410.816 136.603 413.916 129.303C416.916 122.103 422.216 112.403 427.316 113.003L440.316 109.303Z" fill="#1656BD"/>
<path d="M440.816 119.403L439.616 126.503C439.616 126.503 441.116 128.203 444.616 128.303" stroke="#0C3069" stroke-width="0.7201" stroke-miterlimit="10"/>
<path d="M435.816 122.203C435.816 122.203 435.116 129.903 443.716 131.703" stroke="#0C3069" stroke-width="0.7201" stroke-miterlimit="10"/>
<path opacity="0.57" d="M449.516 151.303C449.516 149.403 449.916 146.903 450.416 144.203L442.216 128.003L439.516 126.603L440.216 122.303C436.216 123.803 438.116 129.003 438.816 132.403C439.516 135.803 438.316 137.403 433.316 137.203C428.316 136.903 428.416 137.503 431.316 142.203C434.216 147.003 436.016 153.303 434.816 162.703C434.116 168.203 431.016 179.603 429.416 184.203C436.016 184.203 442.616 184.203 446.016 184.203C452.716 184.203 456.816 183.903 455.916 180.803C456.016 180.703 449.316 159.203 449.516 151.303Z" fill="url(#paint24_linear)"/>
<path d="M388.416 140.303C388.416 140.303 390.216 141.203 390.516 143.603" stroke="#D92727" stroke-width="0.5285" stroke-miterlimit="10"/>
<path d="M381.416 131.503C379.716 131.503 377.116 131.403 375.316 131.203C375.316 131.203 375.816 134.203 376.816 137.903C380.016 136.503 384.716 137.803 387.216 138.803L381.416 131.503Z" fill="url(#paint25_linear)"/>
<path opacity="0.5" d="M403.416 278.703L401.116 316.403H416.816C425.416 287.303 421.616 275.803 421.616 275.803L429.516 227.103L427.916 216.003C424.316 229.903 411.316 260.603 403.416 278.703Z" fill="url(#paint26_linear)"/>
<path d="M385.916 356.003C385.916 357.503 401.216 355.703 404.916 355.603C408.016 355.503 406.416 353.703 405.916 351.403C399.516 354.703 402.316 348.503 400.116 348.503L393.116 353.403C393.116 353.503 385.916 354.603 385.916 356.003Z" fill="#0C3069"/>
<path d="M437.816 356.003C437.816 357.503 453.116 355.703 456.816 355.603C459.916 355.503 458.316 353.703 457.816 351.403C451.416 354.703 454.216 348.503 452.016 348.503L445.016 353.403C445.116 353.503 437.816 354.603 437.816 356.003Z" fill="#0C3069"/>
<path d="M387.216 119.403C387.216 119.403 379.016 115.803 382.116 105.803C385.216 95.8032 397.316 97.7032 396.616 88.5032C395.916 79.1032 386.516 81.5032 382.116 78.9032C377.716 76.3032 381.916 68.7032 375.316 65.6032C368.716 62.4032 362.316 67.2032 353.316 68.8032C344.316 70.4032 336.516 71.8032 336.816 68.8032C337.116 65.8032 341.416 65.4032 340.016 61.7032C338.516 58.0032 331.116 58.0032 330.116 59.1032C330.116 59.1032 338.216 59.1032 338.416 61.9032C338.716 64.7032 332.416 66.0032 332.716 71.0032C333.016 76.0032 343.916 75.0032 354.616 74.3032C365.316 73.6032 364.316 77.9032 363.516 83.2032C362.716 88.5032 364.416 92.1032 371.416 93.0032C378.416 93.9032 381.716 94.8032 377.716 102.503C374.316 109.203 377.016 115.303 383.316 119.703H387.216V119.403Z" fill="url(#paint27_linear)"/>
<path d="M417.416 98.1032C417.416 98.1032 418.116 99.3032 419.616 102.703C421.116 106.003 422.916 107.503 426.516 107.203L427.216 113.303C427.216 113.303 420.216 119.003 424.016 120.703C427.816 122.503 433.216 114.503 440.316 109.403C440.316 109.403 434.716 106.803 433.116 101.903C430.316 93.4032 426.016 95.7032 423.916 86.8032C423.816 86.8032 421.216 95.6032 417.416 98.1032Z" fill="#FF6D6D"/>
<path d="M433.116 101.803C433.016 101.503 432.916 101.103 432.716 100.803C431.416 103.703 428.516 106.803 426.516 107.103L426.816 109.603L438.516 108.303C436.616 107.103 434.116 104.903 433.116 101.803Z" fill="url(#paint28_linear)"/>
<path d="M458.816 124.903C458.816 124.903 450.616 120.703 442.516 126.103L429.616 219.603C429.616 219.603 427.816 221.803 428.916 222.703C430.116 223.703 432.916 223.303 436.016 223.303C439.216 223.303 444.716 223.303 444.716 223.303C444.716 223.303 439.016 219.503 437.616 218.703C436.116 218.003 435.616 215.703 435.616 215.703C435.616 215.703 447.816 186.403 446.616 170.103C446.716 170.203 454.216 149.803 458.816 124.903Z" fill="#FF6D6D"/>
<path d="M374.316 118.803C374.916 124.403 376.816 128.003 377.916 129.603C378.316 130.203 379.016 130.603 379.716 130.603H387.016C387.716 130.603 388.416 130.203 388.816 129.603C389.916 128.003 391.816 124.403 392.416 118.803C392.516 118.203 392.016 117.703 391.416 117.703H375.516C374.816 117.703 374.316 118.203 374.316 118.803Z" fill="#967C45"/>
<path d="M520.816 355.403C536.833 355.403 549.816 354.015 549.816 352.303C549.816 350.591 536.833 349.203 520.816 349.203C504.8 349.203 491.816 350.591 491.816 352.303C491.816 354.015 504.8 355.403 520.816 355.403Z" fill="#CEDBED"/>
<path d="M543.816 238.403H497.916V352.303H543.816V238.403Z" fill="#786337"/>
<path d="M543.816 275.803H497.916" stroke="#4F4124" stroke-width="0.8351" stroke-miterlimit="10"/>
<path d="M543.816 314.303H497.916" stroke="#4F4124" stroke-width="0.8351" stroke-miterlimit="10"/>
<path d="M543.816 279.103H497.916" stroke="#4F4124" stroke-width="0.8351" stroke-miterlimit="10"/>
<path d="M543.816 241.603H497.916" stroke="#4F4124" stroke-width="0.8351" stroke-miterlimit="10"/>
<path d="M543.816 317.503H497.916" stroke="#4F4124" stroke-width="0.8351" stroke-miterlimit="10"/>
<path d="M523.816 248.303C523.816 249.903 522.516 251.203 520.816 251.203C519.116 251.203 517.816 249.903 517.816 248.303C517.816 246.703 519.116 245.403 520.816 245.403C522.516 245.403 523.816 246.703 523.816 248.303Z" fill="white"/>
<path d="M523.816 286.403C523.816 288.003 522.516 289.303 520.816 289.303C519.116 289.303 517.816 288.003 517.816 286.403C517.816 284.803 519.116 283.503 520.816 283.503C522.516 283.503 523.816 284.803 523.816 286.403Z" fill="white"/>
<path d="M523.816 324.603C523.816 326.203 522.516 327.503 520.816 327.503C519.116 327.503 517.816 326.203 517.816 324.603C517.816 323.003 519.116 321.703 520.816 321.703C522.516 321.603 523.816 322.903 523.816 324.603Z" fill="white"/>
<path opacity="0.4" d="M497.916 256.903V352.303H511.016L497.916 256.903Z" fill="url(#paint29_linear)"/>
<path d="M511.816 218.503C511.816 218.503 503.716 211.503 506.216 199.303C506.216 199.303 493.916 187.303 502.116 180.003C502.116 180.003 497.316 150.003 507.116 148.203C516.916 146.403 517.916 173.603 517.916 173.603C517.916 173.603 523.416 172.603 519.916 190.703C519.916 190.703 527.616 191.403 522.416 218.603L511.816 218.503Z" fill="url(#paint30_linear)"/>
<path d="M507.216 148.203C507.216 148.203 509.716 188.303 517.316 218.603" stroke="#0C3069" stroke-width="1.092" stroke-miterlimit="10"/>
<path d="M517.916 218.603H530.516C530.516 218.603 544.516 196.503 540.516 188.303C540.516 188.303 548.616 169.903 543.316 167.403C538.016 164.903 531.416 180.103 531.416 180.103C531.416 180.103 519.216 179.703 517.916 218.603Z" fill="url(#paint31_linear)"/>
<path d="M543.216 167.403C543.216 167.403 529.116 193.003 524.216 218.603" stroke="#0C3069" stroke-width="1.092" stroke-miterlimit="10"/>
<path d="M520.816 215.403C514.116 215.403 508.716 216.203 508.816 217.203L510.916 238.403H530.716L532.816 217.203C532.916 216.203 527.616 215.403 520.816 215.403Z" fill="#0C3069"/>
<path d="M480.116 367.903C483.982 367.903 487.116 366.829 487.116 365.503C487.116 364.178 483.982 363.103 480.116 363.103C476.25 363.103 473.116 364.178 473.116 365.503C473.116 366.829 476.25 367.903 480.116 367.903Z" fill="#CEDBED"/>
<path d="M187.016 367.903C190.882 367.903 194.016 366.829 194.016 365.503C194.016 364.178 190.882 363.103 187.016 363.103C183.15 363.103 180.016 364.178 180.016 365.503C180.016 366.829 183.15 367.903 187.016 367.903Z" fill="#CEDBED"/>
<path d="M468.116 229.803H198.616V252.003H468.116V229.803Z" fill="#967C45"/>
<path d="M192.116 229.803L184.716 365.003H189.716L208.116 229.803H192.116Z" fill="#786337"/>
<path d="M474.516 229.803L481.916 365.003H477.016L458.516 229.803H474.516Z" fill="#786337"/>
<path opacity="0.4" d="M191.916 235.003L475.516 248.103L474.516 229.803H192.116L191.916 235.003Z" fill="url(#paint32_linear)"/>
<path d="M486.616 222.303H180.016V232.003H486.616V222.303Z" fill="#967C45"/>
<path opacity="0.4" d="M481.916 107.303C494.95 107.303 505.516 96.7369 505.516 83.703C505.516 70.6691 494.95 60.103 481.916 60.103C468.882 60.103 458.316 70.6691 458.316 83.703C458.316 96.7369 468.882 107.303 481.916 107.303Z" fill="url(#paint33_linear)"/>
<path d="M503.686 86.8979C506.286 74.126 498.041 61.6644 485.269 59.0641C472.497 56.4638 460.035 64.7096 457.435 77.4815C454.834 90.2535 463.08 102.715 475.852 105.315C488.624 107.916 501.086 99.6699 503.686 86.8979Z" fill="#1656BD"/>
<path d="M497.776 86.1975C500.004 76.6792 494.095 67.1563 484.577 64.9275C475.058 62.6987 465.535 68.608 463.307 78.1263C461.078 87.6447 466.987 97.1676 476.505 99.3964C486.024 101.625 495.547 95.7159 497.776 86.1975Z" fill="white"/>
<path d="M480.616 67.8032V83.0032L490.516 75.3032" stroke="#5D94DE" stroke-width="0.7592" stroke-miterlimit="10"/>
<defs>
<linearGradient id="paint0_linear" x1="278.962" y1="179.455" x2="182.776" y2="370.453" gradientUnits="userSpaceOnUse">
<stop offset="0.0531851" stop-color="#A1C1ED"/>
<stop offset="1" stop-color="#A1C1ED" stop-opacity="0"/>
</linearGradient>
<linearGradient id="paint1_linear" x1="471.243" y1="69.3737" x2="500.878" y2="270.992" gradientUnits="userSpaceOnUse">
<stop offset="0.0531851" stop-color="#A1C1ED"/>
<stop offset="1" stop-color="#A1C1ED" stop-opacity="0"/>
</linearGradient>
<linearGradient id="paint2_linear" x1="38.0462" y1="236.554" x2="0.0874266" y2="233.024" gradientUnits="userSpaceOnUse">
<stop offset="0.0428285" stop-color="#FFA526"/>
<stop offset="1" stop-color="#FF6026"/>
</linearGradient>
<linearGradient id="paint3_linear" x1="70.9269" y1="226.093" x2="47.8414" y2="223.946" gradientUnits="userSpaceOnUse">
<stop offset="0.0428285" stop-color="#FFA526"/>
<stop offset="1" stop-color="#FF6026"/>
</linearGradient>
<linearGradient id="paint4_linear" x1="45.9891" y1="272.084" x2="8.04803" y2="268.555" gradientUnits="userSpaceOnUse">
<stop offset="0.0428285" stop-color="#FFA526"/>
<stop offset="1" stop-color="#FF6026"/>
</linearGradient>
<linearGradient id="paint5_linear" x1="82.4018" y1="253.005" x2="60.5086" y2="250.969" gradientUnits="userSpaceOnUse">
<stop offset="0.0428285" stop-color="#FFA526"/>
<stop offset="1" stop-color="#FF6026"/>
</linearGradient>
<linearGradient id="paint6_linear" x1="47.1506" y1="199.707" x2="13.4406" y2="196.572" gradientUnits="userSpaceOnUse">
<stop offset="0.0428285" stop-color="#FFA526"/>
<stop offset="1" stop-color="#FF6026"/>
</linearGradient>
<linearGradient id="paint7_linear" x1="531.509" y1="341.305" x2="531.509" y2="178.251" gradientUnits="userSpaceOnUse">
<stop stop-color="#6AB883"/>
<stop offset="1" stop-color="#DBB883"/>
</linearGradient>
<linearGradient id="paint8_linear" x1="117.036" y1="344.449" x2="117.036" y2="229.285" gradientUnits="userSpaceOnUse">
<stop stop-color="#6AB883"/>
<stop offset="1" stop-color="#DBB883"/>
</linearGradient>
<linearGradient id="paint9_linear" x1="328.009" y1="155.074" x2="339.799" y2="155.074" gradientUnits="userSpaceOnUse">
<stop stop-color="#F04F4F"/>
<stop offset="0.9465" stop-color="#F04F4F" stop-opacity="0.0534571"/>
<stop offset="1" stop-color="#F04F4F" stop-opacity="0"/>
</linearGradient>
<linearGradient id="paint10_linear" x1="124.233" y1="166.896" x2="124.233" y2="213.335" gradientUnits="userSpaceOnUse">
<stop offset="0.0267829" stop-color="#0C3069"/>
<stop offset="1" stop-color="#0C3069" stop-opacity="0"/>
</linearGradient>
<linearGradient id="paint11_linear" x1="148.378" y1="133.243" x2="172.971" y2="166.611" gradientUnits="userSpaceOnUse">
<stop stop-color="#0C3069"/>
<stop offset="1" stop-color="#0C3069" stop-opacity="0"/>
</linearGradient>
<linearGradient id="paint12_linear" x1="98.5482" y1="132.379" x2="73.3529" y2="163.027" gradientUnits="userSpaceOnUse">
<stop stop-color="#0C3069"/>
<stop offset="1" stop-color="#0C3069" stop-opacity="0"/>
</linearGradient>
<linearGradient id="paint13_linear" x1="119.877" y1="100.011" x2="131.861" y2="100.011" gradientUnits="userSpaceOnUse">
<stop stop-color="#F04F4F"/>
<stop offset="0.9465" stop-color="#F04F4F" stop-opacity="0.0534571"/>
<stop offset="1" stop-color="#F04F4F" stop-opacity="0"/>
</linearGradient>
<linearGradient id="paint14_linear" x1="250.48" y1="262.314" x2="244.138" y2="320.977" gradientUnits="userSpaceOnUse">
<stop stop-color="#0C3069"/>
<stop offset="1" stop-color="#0C3069" stop-opacity="0"/>
</linearGradient>
<linearGradient id="paint15_linear" x1="187.01" y1="190.806" x2="277.443" y2="190.806" gradientUnits="userSpaceOnUse">
<stop offset="0.0428285" stop-color="#FFA526"/>
<stop offset="1" stop-color="#FF6026"/>
</linearGradient>
<linearGradient id="paint16_linear" x1="219.385" y1="212.302" x2="200.623" y2="193.144" gradientUnits="userSpaceOnUse">
<stop stop-color="#80371D"/>
<stop offset="1" stop-color="#80371D" stop-opacity="0"/>
</linearGradient>
<linearGradient id="paint17_linear" x1="262.888" y1="215.93" x2="254.608" y2="178.407" gradientUnits="userSpaceOnUse">
<stop stop-color="#80371D"/>
<stop offset="1" stop-color="#80371D" stop-opacity="0"/>
</linearGradient>
<linearGradient id="paint18_linear" x1="242.425" y1="143.125" x2="240.377" y2="159.31" gradientUnits="userSpaceOnUse">
<stop stop-color="#F04F4F"/>
<stop offset="0.9465" stop-color="#F04F4F" stop-opacity="0.0534571"/>
<stop offset="1" stop-color="#F04F4F" stop-opacity="0"/>
</linearGradient>
<linearGradient id="paint19_linear" x1="183.441" y1="203.723" x2="203.85" y2="203.723" gradientUnits="userSpaceOnUse">
<stop offset="0.0428285" stop-color="#FFA526"/>
<stop offset="1" stop-color="#FF6026"/>
</linearGradient>
<linearGradient id="paint20_linear" x1="303.232" y1="194.367" x2="258.134" y2="194.719" gradientUnits="userSpaceOnUse">
<stop offset="0.0428285" stop-color="#FFA526"/>
<stop offset="1" stop-color="#FF6026"/>
</linearGradient>
<linearGradient id="paint21_linear" x1="299.499" y1="235.119" x2="299.499" y2="191.12" gradientUnits="userSpaceOnUse">
<stop offset="0.0439103" stop-color="#87B2ED"/>
<stop offset="1" stop-color="white"/>
</linearGradient>
<linearGradient id="paint22_linear" x1="434.272" y1="178.57" x2="434.272" y2="204.291" gradientUnits="userSpaceOnUse">
<stop offset="0.0333734"/>
<stop offset="1" stop-opacity="0"/>
</linearGradient>
<linearGradient id="paint23_linear" x1="396.068" y1="132.265" x2="420.119" y2="132.265" gradientUnits="userSpaceOnUse">
<stop stop-color="#F04F4F"/>
<stop offset="0.9465" stop-color="#F04F4F" stop-opacity="0.0534571"/>
<stop offset="1" stop-color="#F04F4F" stop-opacity="0"/>
</linearGradient>
<linearGradient id="paint24_linear" x1="448.842" y1="110.527" x2="438.26" y2="197.109" gradientUnits="userSpaceOnUse">
<stop stop-color="#0C3069"/>
<stop offset="1" stop-color="#0C3069" stop-opacity="0"/>
</linearGradient>
<linearGradient id="paint25_linear" x1="375.285" y1="134.982" x2="387.201" y2="134.982" gradientUnits="userSpaceOnUse">
<stop stop-color="#F04F4F"/>
<stop offset="0.9465" stop-color="#F04F4F" stop-opacity="0.0534571"/>
<stop offset="1" stop-color="#F04F4F" stop-opacity="0"/>
</linearGradient>
<linearGradient id="paint26_linear" x1="451.742" y1="221.925" x2="394.664" y2="307.542" gradientUnits="userSpaceOnUse">
<stop offset="0.0333734"/>
<stop offset="1" stop-opacity="0"/>
</linearGradient>
<linearGradient id="paint27_linear" x1="362.24" y1="113.09" x2="364.09" y2="46.2358" gradientUnits="userSpaceOnUse">
<stop offset="0.0492588" stop-color="white"/>
<stop offset="1" stop-color="white" stop-opacity="0"/>
</linearGradient>
<linearGradient id="paint28_linear" x1="426.461" y1="105.232" x2="438.436" y2="105.232" gradientUnits="userSpaceOnUse">
<stop stop-color="#F04F4F"/>
<stop offset="0.9465" stop-color="#F04F4F" stop-opacity="0.0534571"/>
<stop offset="1" stop-color="#F04F4F" stop-opacity="0"/>
</linearGradient>
<linearGradient id="paint29_linear" x1="519.486" y1="232.017" x2="484.077" y2="402.985" gradientUnits="userSpaceOnUse">
<stop/>
<stop offset="0.9315" stop-opacity="0"/>
</linearGradient>
<linearGradient id="paint30_linear" x1="499.357" y1="183.376" x2="524.302" y2="183.376" gradientUnits="userSpaceOnUse">
<stop offset="0.0428285" stop-color="#FFA526"/>
<stop offset="1" stop-color="#FF6026"/>
</linearGradient>
<linearGradient id="paint31_linear" x1="517.896" y1="192.827" x2="545.06" y2="192.827" gradientUnits="userSpaceOnUse">
<stop offset="0.0428285" stop-color="#FFA526"/>
<stop offset="1" stop-color="#FF6026"/>
</linearGradient>
<linearGradient id="paint32_linear" x1="333.699" y1="195.085" x2="333.699" y2="331.005" gradientUnits="userSpaceOnUse">
<stop/>
<stop offset="0.9315" stop-opacity="0"/>
</linearGradient>
<linearGradient id="paint33_linear" x1="476.114" y1="54.268" x2="489.859" y2="123.361" gradientUnits="userSpaceOnUse">
<stop/>
<stop offset="0.9315" stop-opacity="0"/>
</linearGradient>
</defs>
</svg>
