<svg width="520" height="410" viewBox="0 0 520 410" fill="none" xmlns="http://www.w3.org/2000/svg">
<mask id="mask0" mask-type="alpha" maskUnits="userSpaceOnUse" x="0" y="0" width="520" height="410">
<rect width="520" height="410" fill="#C4C4C4"/>
</mask>
<g mask="url(#mask0)">
<path opacity="0.41" d="M1 410H520V31.065C484.8 -3.89831 403.251 -2.37528 366.877 2.75664C366.877 2.75664 310.828 15.5961 297.654 56.3321C287.369 88.0805 275.119 119.012 248.886 140.839C233.862 153.328 219.532 165.584 214.448 185.427C209.132 206.32 214.91 227.563 210.172 248.457C206.82 263.397 199.54 278.921 186.597 287.675C173.653 296.429 156.087 293.278 145.571 306.934C139.215 315.222 138.753 327.478 135.517 337.282C132.05 347.904 126.965 358.292 118.76 366.112C106.51 377.785 89.9846 383.271 73.8056 386.422C54.0441 390.391 4.9292 396.81 1 410Z" fill="#A6CEF4"/>
<path d="M400.863 288.884C405.023 289.347 408.72 292.12 411.031 295.702C412.649 298.244 413.689 301.133 414.498 304.138C414.614 299.284 414.729 294.316 414.96 289.462C406.756 286.573 400.978 279.409 403.058 273.516C406.64 273.862 409.876 276.289 411.84 279.409C413.458 281.951 414.383 284.84 415.076 287.844C415.307 283.222 415.654 278.716 416 274.209C407.911 271.204 402.249 264.156 404.329 258.378C407.911 258.724 411.147 261.151 413.111 264.271C414.614 266.698 415.538 269.356 416.231 272.129C416.578 268.316 417.04 264.502 417.618 260.689C410.8 256.991 406.64 249.827 409.414 245.089C412.418 245.898 414.845 248.556 416.116 251.444C417.387 254.333 417.618 257.453 417.618 260.573C418.08 256.991 418.658 253.409 419.351 249.827C413.227 245.436 409.991 237.924 413.227 233.533C416.116 234.689 418.196 237.578 419.12 240.582C419.814 242.778 419.929 245.089 419.814 247.4C420.623 243.471 421.431 239.658 422.471 235.729C416.231 231.338 412.996 223.827 416.231 219.436C419.12 220.591 421.2 223.48 422.125 226.484C422.934 229.027 422.934 231.569 422.818 234.227C423.743 230.76 424.783 227.293 425.938 223.942C420.738 220.244 417.965 213.889 420.738 210.191C423.165 211.231 425.014 213.542 425.707 216.084C426.4 218.28 426.4 220.707 426.285 223.133C427.209 220.591 428.134 218.049 429.174 215.507C425.245 211.578 423.858 205.916 426.631 203.142C428.596 204.298 429.751 206.609 429.983 208.804C430.214 210.538 429.983 212.387 429.636 214.12C430.214 212.733 430.791 211.462 431.369 210.076C431.138 204.067 434.143 198.289 438.534 198.173C439.227 200.6 438.534 203.373 437.147 205.453C435.76 207.418 433.796 209.036 431.716 210.307C431.138 211.578 430.56 212.964 430.098 214.351C433.103 209.498 438.187 206.493 441.885 208.458C441.307 211 439.227 212.964 436.916 214.004C434.605 215.044 432.063 215.391 429.636 215.507C428.596 218.164 427.671 220.822 426.747 223.48C430.098 217.124 436.569 213.196 441.076 215.507C440.383 218.396 438.071 220.707 435.298 221.978C432.64 223.249 429.636 223.596 426.631 223.711C425.591 227.062 424.551 230.413 423.743 233.764C427.787 227.178 434.836 223.249 439.92 225.907C439.111 229.373 436.338 232.147 433.103 233.649C430.098 235.036 426.631 235.498 423.28 235.729C422.356 239.427 421.547 243.124 420.854 246.822C424.089 239.196 430.676 233.996 436.454 235.844C436.223 239.773 433.796 243.24 430.56 245.551C427.556 247.747 423.974 248.902 420.276 249.711C419.698 252.947 419.236 256.182 418.774 259.418C424.667 252.831 433.334 249.942 438.303 253.987C436.685 257.569 433.103 259.88 429.289 260.804C425.823 261.613 422.125 261.498 418.658 260.92C418.08 265.196 417.618 269.587 417.271 273.862C423.511 267.507 432.409 265.08 437.147 269.356C435.298 272.822 431.6 274.902 427.787 275.711C424.32 276.404 420.623 275.942 417.156 275.249C416.809 279.756 416.463 284.147 416.231 288.653C421.547 281.373 430.329 277.56 435.645 281.373C434.258 285.071 430.791 287.613 427.094 288.884C423.627 290.04 419.814 290.04 416.116 289.809C415.885 295.009 415.654 300.093 415.423 305.293C420.276 296.858 429.289 291.658 435.414 295.124C434.374 299.169 431.023 302.404 427.094 304.253C423.396 305.871 419.351 306.449 415.307 306.564C415.076 311.996 414.96 317.311 414.729 322.627C414.729 322.858 414.383 322.858 414.383 322.627C414.383 317.542 414.383 312.458 414.383 307.373C405.138 303.791 398.436 295.587 400.863 288.884Z" fill="url(#paint0_linear)"/>
<path d="M204.534 408.831C203.263 407.098 202.107 405.249 201.067 403.284C196.098 393.578 195.636 382.253 196.445 371.391C197.369 358.911 199.796 346.547 203.725 334.644C205.227 330.253 207.191 325.4 211.583 323.551C214.818 322.164 218.631 322.858 222.098 323.667C236.196 327.133 249.6 333.027 261.734 340.884C250.871 320.084 229.147 307.027 216.436 287.267C214.587 284.493 213.085 280.795 214.934 278.022C217.014 274.902 221.751 275.711 225.334 276.867C255.956 287.267 282.996 307.951 301.138 334.76C293.396 300.671 259.885 279.409 240.818 250.058C237.929 245.667 235.734 239.195 239.778 235.844C241.743 234.227 244.516 234.111 247.058 234.227C255.84 234.804 264.16 238.04 272.018 241.738C301.138 255.258 327.138 275.48 347.476 300.324C342.276 285.533 327.947 275.711 321.823 261.267C320.205 257.569 319.627 252.484 322.978 250.404C324.943 249.133 327.6 249.48 329.911 250.058C361.111 257.684 386.765 312.573 386.765 312.573C386.765 312.573 387.458 259.995 389.423 235.267C390.231 225.329 394.276 200.369 409.76 209.96C426.285 220.129 417.156 323.32 417.156 323.32C417.156 323.32 423.396 274.671 429.289 251.56C430.791 245.667 439.111 232.724 443.965 244.049C445.236 246.938 445.236 250.289 444.889 253.524C441.769 281.142 427.44 328.058 427.44 328.058C427.44 328.058 455.174 253.755 463.378 238.502C471.583 223.249 482.445 208.804 497.583 200.253C518.383 188.467 541.494 199.213 543.689 225.56C548.311 279.178 452.863 386.067 433.565 405.595C481.058 335.222 581.36 287.729 608.863 308.875C612.791 311.88 619.725 318.467 615.103 332.911C610.596 346.893 553.858 408.715 518.729 408.715C459.796 408.831 204.534 408.831 204.534 408.831Z" fill="#E4E3FF"/>
<path d="M432.987 408.831H422.471C430.213 389.533 441.307 359.142 456.676 323.551C491.689 242.431 528.898 187.773 528.898 187.773C537.911 192.164 556.978 208.573 558.942 221.978C564.72 262.538 432.987 408.831 432.987 408.831Z" fill="url(#paint1_linear)"/>
<path d="M440.036 239.196C440.036 239.196 427.556 282.76 420.507 338.689C413.689 393.693 411.494 409.524 411.494 409.524L427.787 325.4L452.631 242.431L440.036 239.196Z" fill="url(#paint2_linear)"/>
<path d="M402.596 207.418C402.596 207.418 405.947 382.716 397.858 408.831C389.769 434.947 406.64 408.253 406.64 408.253L417.502 319.044L425.822 210.884L402.596 207.418Z" fill="url(#paint3_linear)"/>
<path d="M322.978 250.52C322.978 250.52 350.364 270.627 364.578 300.671C393.929 362.956 394.853 409.64 394.853 409.64C394.853 409.64 398.782 361.107 386.533 309.569C374.284 258.031 326.098 221.053 326.098 221.053L322.978 250.52Z" fill="url(#paint4_linear)"/>
<path d="M364.809 408.831C364.809 408.831 355.103 357.178 332.801 319.044C292.472 250.058 239.778 235.844 239.778 235.844C239.778 235.844 214.934 208.573 241.396 215.622C267.858 222.671 333.147 273.747 347.592 300.324C368.045 337.88 380.756 385.951 372.436 412.413C364.116 438.991 364.809 408.831 364.809 408.831Z" fill="url(#paint5_linear)"/>
<path d="M336.498 409.64C336.498 409.64 303.68 353.595 272.134 325.169C240.587 296.742 214.934 277.907 214.934 277.907C214.934 277.907 209.734 261.729 215.974 261.729C222.214 261.729 243.014 270.973 243.014 270.973L290.507 313.729L301.022 334.644C301.138 334.76 325.405 370.929 336.498 409.64Z" fill="url(#paint6_linear)"/>
<path d="M644.454 322.742C644.454 322.742 620.418 301.596 560.098 333.836C499.778 366.076 417.387 434.022 417.387 434.022L552.934 441.533L618.8 405.018L644.454 322.742Z" fill="url(#paint7_linear)"/>
<path d="M434.836 344.351C428.249 336.84 426.285 326.44 431.6 321.702C435.067 324.129 437.031 328.289 437.378 332.564C437.609 335.569 437.147 338.689 436.338 341.578C438.765 337.302 441.191 333.027 443.734 328.867C437.956 322.395 436.222 313.382 440.845 309.222C443.849 311.302 445.467 314.884 445.814 318.582C446.045 321.587 445.467 324.591 444.658 327.48C446.969 323.551 449.511 319.738 451.938 315.924C446.276 309.453 444.542 300.555 449.165 296.511C452.169 298.591 453.787 302.173 454.134 305.871C454.365 308.644 453.902 311.533 453.094 314.307C455.174 311.071 457.369 307.951 459.68 304.947C455.405 298.475 455.174 290.155 459.911 287.267C462.222 289.462 463.031 292.813 462.8 296.049C462.569 299.169 461.298 302.058 459.911 304.715C462.107 301.827 464.302 298.938 466.498 296.164C463.147 289.347 463.84 281.258 468.809 278.947C470.889 281.373 471.351 284.84 470.658 287.96C470.196 290.155 469.271 292.235 468.116 294.2C470.658 291.195 473.316 288.191 475.974 285.302C472.622 278.484 473.316 270.395 478.285 268.084C480.365 270.511 480.827 273.978 480.134 277.098C479.671 279.64 478.4 281.951 477.014 284.147C479.44 281.604 481.982 279.062 484.64 276.635C481.751 270.858 482.445 264.04 486.605 262.075C488.338 264.155 488.685 267.044 488.222 269.702C487.76 272.013 486.605 274.093 485.334 276.058C487.298 274.209 489.378 272.475 491.458 270.742C489.84 265.427 491.342 259.764 495.156 258.724C496.311 260.689 496.311 263.231 495.502 265.311C494.925 266.929 493.885 268.431 492.614 269.818C493.769 268.893 494.925 267.969 496.08 267.044C498.738 261.613 504.054 258.031 507.982 259.995C507.52 262.538 505.556 264.618 503.245 265.773C501.049 266.929 498.622 267.275 496.196 267.507C495.04 268.431 494 269.355 492.845 270.164C497.814 267.275 503.707 267.16 506.018 270.627C504.285 272.591 501.627 273.284 498.969 273.169C496.427 273.053 494.116 272.129 491.805 270.973C489.609 272.822 487.529 274.671 485.449 276.635C491.342 272.591 498.969 272.244 501.858 276.404C499.894 278.6 496.658 279.524 493.654 279.409C490.649 279.293 487.876 278.138 485.218 276.867C482.676 279.293 480.249 281.72 477.938 284.262C484.64 280.333 492.729 280.218 495.849 284.955C493.422 287.613 489.725 288.653 486.142 288.538C482.791 288.307 479.556 287.151 476.551 285.764C474.009 288.538 471.467 291.427 469.156 294.431C475.627 289.231 483.947 287.844 488.107 292.12C486.027 295.471 482.214 297.32 478.285 297.898C474.587 298.36 470.889 297.667 467.307 296.742C465.342 299.284 463.378 301.942 461.414 304.6C469.734 301.595 478.747 303.098 481.174 308.991C478.054 311.302 473.778 311.649 469.965 310.724C466.498 309.8 463.378 307.951 460.489 305.755C457.947 309.338 455.52 312.92 453.094 316.502C461.645 313.844 470.658 315.924 472.738 322.049C469.502 324.244 465.227 324.36 461.414 323.204C458.062 322.164 455.058 320.084 452.285 317.773C449.858 321.471 447.431 325.284 445.12 329.098C453.325 325.169 462.8 325.978 465.689 331.871C462.685 334.413 458.525 335.107 454.596 334.413C451.014 333.72 447.662 331.987 444.542 330.022C441.885 334.413 439.227 338.92 436.569 343.311C444.889 338.111 455.174 337.88 458.987 343.773C456.098 346.893 451.591 348.164 447.431 347.818C443.387 347.587 439.574 346.084 435.991 344.235C433.218 348.858 430.56 353.595 427.902 358.218C427.787 358.449 427.44 358.218 427.556 357.987C429.982 353.249 432.409 348.858 434.836 344.351Z" fill="url(#paint8_linear)"/>
<path d="M242.204 270.627C241.396 269.818 240.471 269.009 239.662 268.315C237.698 267.969 235.618 267.507 233.885 266.467C232.036 265.311 230.533 263.462 230.187 261.382C233.538 259.995 237.929 263.231 239.893 267.969C240.818 268.778 241.742 269.471 242.551 270.28C241.627 269.124 240.933 267.853 240.471 266.467C239.893 264.618 240.009 262.538 241.049 260.92C244.169 262.075 245.093 266.929 243.476 271.204C245.093 272.707 246.711 274.324 248.329 275.942C247.405 274.209 246.596 272.36 246.249 270.511C245.902 268.315 246.364 265.889 247.982 264.155C251.333 266.004 251.565 271.782 248.907 276.52C250.987 278.6 252.951 280.795 254.916 283.107C253.876 281.258 253.067 279.293 252.836 277.213C252.489 274.555 253.067 271.667 254.916 269.702C258.96 271.898 259.191 278.715 255.956 284.378C258.036 286.92 260 289.462 261.965 292.12C261.156 290.502 260.462 288.769 260.231 286.92C259.885 284.262 260.462 281.373 262.311 279.409C266.356 281.604 266.587 288.422 263.467 293.969C265.2 296.395 266.818 298.822 268.436 301.249C267.396 298.938 266.587 296.511 266.587 294.084C266.471 291.427 267.396 288.653 269.476 286.92C273.289 289.578 272.711 296.511 268.782 301.711C270.516 304.369 272.133 307.027 273.751 309.8C273.289 307.489 273.058 305.178 273.404 302.982C273.867 299.978 275.369 296.973 278.027 295.355C281.724 299.053 279.876 306.449 274.791 311.533C276.64 314.769 278.489 318.12 280.222 321.471C279.644 319.044 279.413 316.618 279.76 314.191C280.222 311.187 281.724 308.182 284.382 306.564C288.08 310.262 286.231 317.773 281.031 322.858C282.88 326.44 284.729 330.138 286.462 333.835C286 331.409 285.769 328.867 286.116 326.44C286.578 322.858 288.427 319.391 291.547 317.542C295.822 321.818 293.627 330.484 287.733 336.493C289.582 340.422 291.431 344.351 293.165 348.164C293.28 348.395 292.933 348.511 292.818 348.395C290.738 344.351 288.658 340.307 286.578 336.262C283.458 337.533 280.222 338.689 276.871 338.689C273.289 338.689 269.591 337.418 267.28 334.644C270.747 329.907 279.298 330.6 286.116 335.222C284.151 331.409 282.187 327.595 280.107 323.782C277.449 325.284 274.56 326.555 271.44 326.902C268.205 327.249 264.622 326.555 262.311 324.244C265.084 319.507 272.942 319.275 279.644 322.858C277.911 319.622 276.062 316.271 274.213 313.035C271.787 314.769 269.244 316.387 266.356 317.08C263.12 317.889 259.538 317.542 256.88 315.578C258.96 310.609 266.587 309.338 273.636 311.88C271.787 308.76 269.938 305.64 267.973 302.52C265.431 304.138 262.773 305.524 259.769 306.102C256.533 306.68 252.951 306.218 250.409 304.022C252.72 299.169 260.347 298.36 267.165 301.249C265.662 298.938 264.16 296.742 262.658 294.431C259.653 295.124 256.418 295.471 253.413 294.893C250.178 294.315 247.058 292.467 245.44 289.578C249.138 286.227 255.84 287.729 261.04 292.235C259.191 289.693 257.342 287.267 255.378 284.84C252.72 285.88 250.062 286.689 247.173 286.689C244.169 286.689 241.049 285.533 239.2 283.222C242.089 279.409 248.676 279.871 254.222 283.453C252.373 281.258 250.524 279.062 248.56 276.982C246.249 277.907 243.822 278.715 241.28 278.715C238.738 278.715 236.08 277.791 234.578 275.827C237.12 272.475 243.36 273.053 248.098 276.635C246.48 275.018 244.862 273.284 243.244 271.782C241.28 272.591 239.2 273.169 237.12 273.169C234.924 273.169 232.729 272.36 231.342 270.627C233.307 267.738 238.16 268.084 242.204 270.627Z" fill="url(#paint9_linear)"/>
<path d="M365.386 232.378C363.075 231.453 360.995 229.604 360.186 227.178C363.884 224.982 369.315 227.871 372.435 232.956C371.626 230.876 370.702 228.68 369.778 226.6C367.698 226.6 365.502 226.484 363.653 225.676C361.689 224.867 359.84 223.249 359.262 221.169C362.266 219.436 366.542 221.516 369.315 225.445C368.853 224.405 368.275 223.365 367.813 222.325C366.08 221.285 364.346 220.129 363.075 218.511C361.804 216.778 360.995 214.467 361.573 212.387C365.271 212.387 368.044 216.893 368.16 222.093C368.738 223.133 369.2 224.173 369.778 225.329C369.431 223.942 369.2 222.556 369.315 221.053C369.431 219.089 370.355 217.124 371.973 216.084C374.515 218.28 373.591 223.133 370.471 226.6C371.395 228.68 372.32 230.645 373.129 232.725C372.898 230.76 372.782 228.796 373.244 226.947C373.822 224.751 375.093 222.671 377.173 221.747C379.6 224.751 377.635 230.182 373.475 233.533C374.631 236.307 375.555 239.08 376.48 241.853C376.249 239.773 376.249 237.578 376.711 235.498C377.404 232.956 378.906 230.413 381.333 229.258C384.222 232.84 381.911 239.196 376.942 243.24C377.982 246.36 378.791 249.48 379.6 252.6C379.484 250.751 379.484 249.018 379.946 247.169C380.64 244.627 382.142 242.084 384.569 240.929C387.458 244.511 385.146 250.867 380.178 254.911C380.871 257.685 381.449 260.573 382.026 263.462C381.911 261.036 382.142 258.493 382.951 256.182C383.875 253.64 385.724 251.444 388.266 250.52C390.809 254.449 387.689 260.573 382.142 264.04C382.72 267.16 383.298 270.28 383.76 273.4C384.222 271.089 384.8 268.893 385.955 266.929C387.458 264.271 390 262.076 393.12 261.613C395.2 266.351 390.693 272.591 384.106 275.48C384.684 279.178 385.146 282.991 385.493 286.689C385.84 284.262 386.533 281.951 387.804 279.756C389.306 277.098 391.849 274.902 394.969 274.44C397.049 279.293 392.426 285.533 385.724 288.307C386.186 292.351 386.418 296.396 386.764 300.44C387.226 298.013 387.92 295.587 389.191 293.507C390.924 290.387 393.929 287.845 397.511 287.267C399.938 292.813 394.738 299.978 386.995 303.445C387.226 307.72 387.458 312.111 387.689 316.387C387.689 316.618 387.342 316.618 387.342 316.387C386.88 311.88 386.533 307.373 386.071 302.867C382.72 302.982 379.253 302.751 376.133 301.48C372.782 300.209 369.778 297.667 368.738 294.2C373.706 291.08 381.449 294.893 385.955 301.711C385.609 297.436 385.146 293.16 384.684 288.769C381.564 289.116 378.444 289.231 375.555 288.538C372.32 287.729 369.315 285.649 368.044 282.645C372.32 279.293 379.831 281.951 384.684 287.845C384.338 284.147 383.875 280.449 383.298 276.751C380.409 277.444 377.404 278.022 374.4 277.56C371.164 277.098 367.929 275.48 366.195 272.707C370.009 268.893 377.52 270.511 383.066 275.48C382.604 271.898 382.026 268.316 381.333 264.733C378.329 265.311 375.324 265.658 372.435 265.08C369.2 264.502 366.08 262.653 364.462 259.764C368.391 256.182 375.786 258.147 381.102 263.347C380.64 260.689 380.062 258.031 379.484 255.373C376.364 254.796 373.36 253.987 370.702 252.369C367.929 250.636 365.618 247.747 365.271 244.511C370.009 242.778 375.671 246.707 378.791 252.716C378.098 249.711 377.289 246.707 376.364 243.818C373.591 243.818 370.702 243.587 368.16 242.547C365.386 241.391 362.96 239.196 362.035 236.307C366.08 233.88 372.089 236.769 375.902 242.084C374.978 239.311 374.053 236.653 373.013 233.996C370.24 233.533 367.698 233.418 365.386 232.378Z" fill="url(#paint10_linear)"/>
<path d="M189.396 244.164L190.436 253.871L182.463 250.867L189.396 244.164Z" stroke="url(#paint11_linear)" stroke-miterlimit="10"/>
<path d="M391.041 199.907L381.681 197.249L387.343 191.009L391.041 199.907Z" stroke="url(#paint12_linear)" stroke-miterlimit="10"/>
<path d="M467.076 246.476L469.965 255.836L461.645 254.449L467.076 246.476Z" stroke="url(#paint13_linear)" stroke-miterlimit="10"/>
<path d="M467.191 123.871L476.898 123.293L473.547 131.151L467.191 123.871Z" stroke="url(#paint14_linear)" stroke-miterlimit="10"/>
<path d="M360.675 97.9116L371.477 91.2117L378.177 102.014L367.375 108.713L360.675 97.9116Z" stroke="url(#paint15_linear)" stroke-miterlimit="10"/>
<path d="M221.52 182.573L225.102 182.805L225.333 179.222L221.751 178.991L221.52 182.573Z" fill="url(#paint16_linear)"/>
<path d="M477.822 218.049L487.76 222.671L492.382 212.733L482.56 208.111L477.822 218.049Z" fill="url(#paint17_linear)"/>
<path d="M226.258 243.702L232.845 241.738L230.996 235.151L224.294 237L226.258 243.702Z" fill="url(#paint18_linear)"/>
<path d="M247.206 168.259L254.074 169.207L253.125 176.075L246.257 175.127L247.206 168.259Z" stroke="url(#paint19_linear)" stroke-miterlimit="10"/>
<path d="M474.471 192.627C473.195 192.627 472.16 191.592 472.16 190.316C472.16 189.039 473.195 188.005 474.471 188.005C475.748 188.005 476.782 189.039 476.782 190.316C476.782 191.592 475.748 192.627 474.471 192.627Z" fill="url(#paint20_linear)"/>
<path d="M495.965 84.4667C494.688 84.4667 493.654 83.432 493.654 82.1556C493.654 80.8792 494.688 79.8445 495.965 79.8445C497.241 79.8445 498.276 80.8792 498.276 82.1556C498.276 83.432 497.241 84.4667 495.965 84.4667Z" fill="url(#paint21_linear)"/>
<path d="M217.129 307.605C215.853 307.605 214.818 306.57 214.818 305.294C214.818 304.017 215.853 302.982 217.129 302.982C218.406 302.982 219.44 304.017 219.44 305.294C219.44 306.57 218.406 307.605 217.129 307.605Z" fill="url(#paint22_linear)"/>
<path d="M209.849 91.2843C225.218 90.1288 239.431 100.76 242.551 115.898C244.631 125.72 241.742 135.427 235.733 142.36L239.084 151.835C239.431 152.76 238.507 153.684 237.467 153.338L227.298 149.178C223.484 151.373 219.209 152.644 214.471 153.107C198.871 154.378 184.542 143.4 181.653 128.031C178.187 110.004 191.244 92.7866 209.849 91.2843Z" stroke="#E4E3FF" stroke-miterlimit="10"/>
<path d="M223.831 138.546L227.76 135.426C229.262 134.271 229.493 132.075 228.338 130.573L225.333 126.875C224.178 125.373 221.982 125.142 220.48 126.297C220.48 126.297 218.284 128.493 216.435 127.569C214.355 126.644 210.311 122.137 208.231 118.786C206.844 116.475 210.542 113.817 210.542 113.817C212.044 112.662 212.275 110.466 211.12 108.964L208.115 105.266C206.96 103.764 204.764 103.533 203.262 104.689L199.333 107.809C190.782 114.742 216.204 144.671 223.831 138.546Z" fill="#1D54B5"/>
<path d="M110.471 249.133C122.951 250.404 133.005 260.458 134.16 272.938C134.969 282.067 131.271 290.386 124.916 295.702L126.418 303.791C126.649 304.831 125.494 305.524 124.569 305.062L116.942 300.44C113.129 301.826 108.969 302.404 104.578 301.942C92.3291 300.555 82.3914 290.502 81.2358 278.253C79.618 261.382 93.6002 247.4 110.471 249.133Z" stroke="#E4E3FF" stroke-miterlimit="10"/>
<path d="M107.468 286.804C106.312 286.804 105.388 285.88 105.388 284.724V282.182C105.388 278.831 107.236 275.711 110.01 274.324C111.859 273.4 113.014 271.436 113.014 269.356C113.014 266.467 110.472 263.924 107.583 263.924C107.583 263.924 107.583 263.924 107.468 263.924C105.965 263.924 104.694 264.502 103.654 265.542C102.614 266.582 102.036 267.969 102.036 269.471C102.036 270.627 101.112 271.551 99.9565 271.551C98.8009 271.551 97.8765 270.627 97.8765 269.471C97.8765 266.813 98.9165 264.387 100.765 262.538C102.614 260.689 105.156 259.764 107.699 259.764C112.899 259.88 117.29 264.156 117.29 269.356C117.29 273.053 115.325 276.52 111.974 278.138C110.588 278.831 109.663 280.449 109.663 282.182V284.724C109.663 285.88 108.623 286.804 107.468 286.804ZM107.468 288.191C106.312 288.191 105.388 289.116 105.388 290.271C105.388 291.427 106.312 292.351 107.468 292.351C108.623 292.351 109.548 291.427 109.548 290.271C109.663 289.231 108.623 288.191 107.468 288.191Z" fill="#1D54B5"/>
<path d="M437.609 108.155C420.622 101.684 401.093 108.849 392.311 124.795C386.418 135.658 386.418 147.906 391.156 158.075L384.107 168.244C383.529 169.053 384.222 170.324 385.262 170.209L398.551 168.706C402.249 172.404 406.756 175.293 411.956 177.258C429.058 183.498 448.471 175.986 457.022 160.04C467.422 140.28 458.409 116.013 437.609 108.155Z" stroke="white" stroke-width="1.5" stroke-miterlimit="10"/>
<path d="M409.181 160.849L443.848 154.378L443.27 128.725L401.324 136.005L409.181 160.849Z" fill="#9999EF"/>
<path d="M401.324 136.004L443.271 128.724L419.351 115.089L401.324 136.004Z" fill="#1D54B5"/>
<path d="M405.346 133.138L438.923 127.265L443.881 155.606L410.303 161.48L405.346 133.138Z" fill="white"/>
<path d="M443.271 128.725L448.124 155.996L424.897 146.982L443.271 128.725Z" fill="#1D54B5"/>
<path d="M401.324 136.005L406.177 163.276L424.897 146.982L401.324 136.005Z" fill="#1D54B5"/>
<path opacity="0.25" d="M406.177 163.275L448.124 155.995L423.395 138.662L406.177 163.275Z" fill="#ADADEA"/>
<path d="M406.177 163.276L448.124 155.996L424.088 142.36L406.177 163.276Z" fill="#1D54B5"/>
<path d="M415.653 406.058L449.28 408.716L456.907 310.724L423.396 308.067L415.653 406.058Z" fill="#516DFC"/>
<path opacity="0.55" d="M418.29 373.121L451.816 375.743L450.789 388.877L417.263 386.255L418.29 373.121Z" fill="#ABBDFF"/>
<path opacity="0.55" d="M417.064 389.872L450.59 392.494L450.157 398.024L416.632 395.402L417.064 389.872Z" fill="#ABBDFF"/>
<path d="M456.907 310.725H486.143V407.329H456.907V310.725Z" fill="#A471C8"/>
<path opacity="0.55" d="M456.907 380.982H486.143V394.618H456.907V380.982Z" fill="#ABBDFF"/>
<path opacity="0.55" d="M456.907 397.969H486.143V403.285H456.907V397.969Z" fill="#ABBDFF"/>
<path d="M486.258 310.725H527.049V407.329H486.258V310.725Z" fill="#516DFC"/>
<path opacity="0.75" d="M486.258 326.209H527.049V332.102H486.258V326.209Z" fill="#C5CFFC"/>
<path opacity="0.75" d="M486.258 389.533H527.049V394.849H486.258V389.533Z" fill="#C5CFFC"/>
<path d="M438.649 408.484C438.649 408.484 449.974 309.684 408.027 264.271C377.058 230.76 334.996 228.68 306.338 233.88C220.018 249.596 248.792 407.444 248.792 407.444" fill="url(#paint23_linear)"/>
<path d="M267.396 270.164C273.405 259.186 286.116 240.582 327.947 241.16C365.387 241.622 385.378 281.373 389.307 289.115C389.769 290.04 390 290.502 390 290.502L398.667 408.484H259.076C259.076 408.484 261.387 281.142 267.396 270.164Z" fill="#FFEEFC"/>
<path d="M355.103 255.142C325.983 244.974 300.445 246.707 273.29 261.267" stroke="#F4DCE9" stroke-width="2" stroke-miterlimit="10"/>
<path d="M353.832 260.227C340.774 254.796 326.445 253.525 312.348 254.218C298.25 255.027 284.383 257.916 270.632 260.805" stroke="#F4DCE9" stroke-width="2" stroke-miterlimit="10"/>
<path d="M359.609 267.622C330.952 259.649 300.329 258.609 271.209 264.502" stroke="#F4DCE9" stroke-width="2" stroke-miterlimit="10"/>
<path d="M353.254 270.511C333.494 267.391 313.618 265.889 293.627 265.889C283.112 265.889 272.249 266.351 262.543 270.627" stroke="#F4DCE9" stroke-width="2" stroke-miterlimit="10"/>
<path d="M358.454 276.636C327.716 270.28 295.707 270.049 264.854 275.711" stroke="#F4DCE9" stroke-width="2" stroke-miterlimit="10"/>
<path d="M360.188 281.373C326.907 279.525 293.512 279.64 260.232 281.489" stroke="#F4DCE9" stroke-width="2" stroke-miterlimit="10"/>
<path d="M350.943 289.578C321.245 288.422 291.547 288.884 261.965 290.849" stroke="#F4DCE9" stroke-width="2" stroke-miterlimit="10"/>
<path d="M349.787 296.049C318.472 300.671 286.578 301.364 255.032 298.36" stroke="#F4DCE9" stroke-width="2" stroke-miterlimit="10"/>
<path d="M348.632 304.484C319.743 306.333 290.854 307.142 261.965 306.68" stroke="#F4DCE9" stroke-width="2" stroke-miterlimit="10"/>
<path d="M352.099 311.071C322.285 316.964 291.432 317.773 261.272 313.613" stroke="#F4DCE9" stroke-width="2" stroke-miterlimit="10"/>
<path d="M347.477 324.476C321.708 326.787 295.823 327.827 270.054 327.596" stroke="#F4DCE9" stroke-width="2" stroke-miterlimit="10"/>
<path d="M354.987 333.836C324.596 336.031 294.09 336.609 263.698 335.685" stroke="#F4DCE9" stroke-width="2" stroke-miterlimit="10"/>
<path d="M361.921 339.498C327.832 341.578 293.743 342.271 259.654 341.462" stroke="#F4DCE9" stroke-width="2" stroke-miterlimit="10"/>
<path d="M350.365 350.245C319.396 350.245 288.312 350.245 257.343 350.245" stroke="#F4DCE9" stroke-width="2" stroke-miterlimit="10"/>
<path d="M362.499 355.445C328.641 356.6 294.667 357.871 260.81 359.027" stroke="#F4DCE9" stroke-width="2" stroke-miterlimit="10"/>
<path d="M352.676 363.88C319.743 366.307 286.81 368.156 253.876 369.196" stroke="#F4DCE9" stroke-width="2" stroke-miterlimit="10"/>
<path d="M359.609 372.2C326.098 372.316 292.587 373.125 259.076 374.858" stroke="#F4DCE9" stroke-width="2" stroke-miterlimit="10"/>
<path d="M348.632 385.605C319.974 383.178 291.085 383.64 262.543 386.876" stroke="#F4DCE9" stroke-width="2" stroke-miterlimit="10"/>
<path d="M352.099 395.311C321.823 395.311 291.663 395.311 261.388 395.311" stroke="#F4DCE9" stroke-width="2" stroke-miterlimit="10"/>
<path d="M335.921 402.129C312.81 402.36 289.699 402.591 266.588 402.822" stroke="#F4DCE9" stroke-width="2" stroke-miterlimit="10"/>
<path d="M356.143 251.791C355.565 250.289 353.832 249.596 352.33 249.133C331.761 242.084 305.876 243.009 285.885 251.444" stroke="#F4DCE9" stroke-width="2" stroke-miterlimit="10"/>
<g opacity="0.4">
<path opacity="0.4" d="M344.24 243.934L343.431 245.089C338.694 245.667 330.142 247.054 323.902 253.178C322.054 255.027 319.742 256.414 317.2 257.107C314.658 257.8 311.769 257.454 310.036 255.489C309.111 254.449 308.649 252.947 308.302 251.56C307.725 248.556 308.071 245.551 308.996 242.662C308.996 242.547 308.996 242.547 309.111 242.431C314.658 241.507 320.898 241.045 327.947 241.16C333.725 241.16 339.156 242.2 344.24 243.934Z" fill="#F4DCE9"/>
</g>
<path d="M178.996 297.667C172.871 292.582 167.555 286.689 163.049 280.102C162.24 278.831 154.613 265.542 155.307 265.311C157.04 264.618 164.204 274.325 164.204 274.325C164.204 274.325 155.307 261.96 157.271 260.805C158.08 260.342 166.978 272.245 166.978 272.245C166.978 272.245 158.196 259.88 159.929 258.725C160.853 258.147 169.982 270.511 169.982 270.511C169.982 270.511 162.355 258.609 163.858 257.8C165.244 257.107 174.142 268.778 178.071 275.018C182 281.258 184.311 294.547 184.311 294.547" fill="url(#paint24_linear)"/>
<path d="M184.312 287.613C183.387 283.453 182.347 279.293 180.845 275.249C179.343 271.204 177.378 267.391 174.605 264.04C174.258 263.693 173.68 263.231 173.334 263.693C173.218 263.809 173.218 264.04 173.218 264.271C173.218 265.427 173.68 266.582 174.027 267.622C174.258 268.315 174.605 269.009 174.836 269.702C175.298 270.742 175.645 272.013 175.298 273.053C175.183 273.515 174.836 273.862 174.605 274.324C172.178 278.138 171.6 285.533 178.187 290.849" fill="url(#paint25_linear)"/>
<path d="M175.067 273.4C172.756 278.022 173.565 282.76 176.685 286.689C176.8 286.804 176.569 287.036 176.454 286.92C172.64 283.222 172.294 277.676 174.836 273.169C174.836 273.169 175.067 273.284 175.067 273.4Z" fill="#F49E87"/>
<path d="M171.947 269.587C168.711 271.435 165.822 273.631 162.702 275.827C162.587 275.942 162.356 275.711 162.471 275.595C165.129 272.938 168.48 271.089 171.947 269.587C171.947 269.471 171.947 269.587 171.947 269.587Z" fill="#F49E87"/>
<path d="M295.245 245.667C295.245 245.667 271.441 254.102 255.956 274.902C243.476 291.773 226.258 335.338 226.258 335.338L184.658 285.996C184.658 285.996 178.881 287.96 174.605 295.24C174.605 299.862 208.925 383.756 228.57 383.409C248.214 383.062 281.956 340.653 281.956 340.653" fill="#F73179"/>
<path opacity="0.45" d="M270.863 353.827C262.543 362.725 250.987 373.933 240.472 379.711C244.863 366.769 251.103 342.502 256.649 297.667L268.089 342.502L270.863 353.827Z" fill="#CC729B"/>
<path d="M326.445 409.64C323.787 312.111 342.507 243.356 342.507 243.356C342.507 243.356 366.196 248.671 390.347 275.48C403.174 290.387 390.463 300.325 394.623 324.245C402.134 368.502 407.334 409.64 407.334 409.64H326.445Z" fill="#F73179"/>
<path opacity="0.45" d="M394.507 324.244C401.44 364.804 406.294 402.822 407.103 408.831C367.814 409.178 342.276 396.12 333.263 388.724C331.067 388.724 327.023 388.84 326.098 388.956V382.947C326.56 377.4 330.027 373.009 330.027 373.009L378.445 370.12C378.445 370.12 356.143 327.249 356.143 306.911C356.143 306.796 386.996 280.102 394.507 324.244Z" fill="#CC729B"/>
<path d="M357.876 250.867C357.876 250.867 355.103 283.8 355.103 292.698C352.908 294.893 342.97 298.129 342.97 298.129C342.97 298.129 350.712 301.942 350.712 304.484C350.712 307.027 330.143 357.178 326.099 379.711" stroke="#D31E67" stroke-miterlimit="10"/>
<path d="M256.418 299.4C253.298 333.027 249.716 409.64 249.716 409.64H293.974C288.889 306.796 295.129 246.245 295.129 246.245C295.129 246.245 260.232 258.378 256.418 299.4Z" fill="#F73179"/>
<path d="M281.031 253.987C281.031 253.987 275.254 277.791 275.947 290.04C277.796 292.582 285.885 297.089 285.885 297.089C285.885 297.089 277.68 299.747 277.218 302.289C276.872 304.831 291.431 360.76 292.009 383.64" stroke="#D31E67" stroke-miterlimit="10"/>
<path d="M335.689 375.436C331.876 373.587 327.6 371.969 323.209 371.276C321.476 370.929 315.698 369.889 315.236 370.929C314.658 372.316 321.707 373.933 319.858 373.933C317.894 373.933 305.298 372.316 305.183 373.587C305.067 374.858 317.085 377.4 317.085 377.4C317.085 377.4 303.218 376.244 303.218 377.862C303.103 379.48 316.045 380.289 316.045 380.289C316.045 380.289 304.143 380.058 304.027 381.676C304.027 383.178 316.276 383.062 316.276 383.062C316.276 383.062 306.8 383.64 306.8 384.68C306.8 385.72 321.476 388.378 338.347 383.987" fill="url(#paint26_linear)"/>
<path d="M353.485 305.293C356.721 328.058 388.729 373.124 388.729 373.124L333.841 374.511C333.841 374.511 330.49 379.48 332.569 385.258C336.036 391.151 391.965 408.484 416.578 408.484C443.156 408.484 428.943 323.898 391.156 276.52" fill="#F73179"/>
<path d="M265.951 202.42C265.398 193.31 271.766 185.511 280.175 185C288.584 184.489 295.85 191.46 296.403 200.57C296.957 209.679 290.588 217.478 282.179 217.989C273.77 218.5 266.505 211.53 265.951 202.42Z" fill="#103FCD"/>
<path d="M267.702 202.666C267.16 193.747 273.176 186.125 281.139 185.641C289.102 185.157 295.997 191.994 296.539 200.913C297.081 209.832 291.065 217.454 283.102 217.938C275.139 218.422 268.244 211.585 267.702 202.666Z" fill="#0D30BF"/>
<path d="M269.36 202.911C269.938 211.694 276.525 218.396 284.267 217.818C292.009 217.356 297.787 209.845 297.209 201.178C296.631 192.396 290.045 185.694 282.303 186.271C274.676 186.734 268.783 194.129 269.36 202.911Z" fill="#F73179"/>
<path opacity="0.45" d="M276.087 202.441C275.739 196.707 279.123 191.837 283.646 191.562C288.169 191.287 292.118 195.712 292.467 201.445C292.815 207.179 289.431 212.049 284.908 212.324C280.385 212.599 276.436 208.174 276.087 202.441Z" fill="#CC729B"/>
<path d="M309.573 147.791C311.307 145.48 312 142.707 313.387 140.165C316.622 133.925 323.556 130.342 330.489 129.302C332.8 128.956 335.342 128.84 337.538 129.765C341.351 131.267 343.893 135.311 347.822 136.698C349.325 137.276 350.942 137.391 352.445 137.507C357.76 137.969 363.076 138.778 368.276 140.511C370.24 141.205 372.205 141.898 373.938 143.169C378.213 146.289 380.178 152.413 378.329 157.382C377.52 159.693 376.018 161.889 375.787 164.316C375.556 166.858 376.711 169.516 375.787 171.942C375.325 173.329 374.285 174.485 373.245 175.525C371.396 177.489 369.431 179.338 367.005 180.609C364.693 181.88 362.036 182.342 359.493 182.92C356.142 183.613 352.676 184.307 349.209 184.191C345.742 184.191 342.16 183.382 339.387 181.302C336.96 179.569 335.227 177.027 333.493 174.485" fill="#0D1D7D"/>
<path d="M326.907 145.595C332.569 148.138 338.347 150.795 342.391 155.418C345.165 158.653 347.014 162.582 349.325 166.164C351.636 169.747 354.64 173.213 358.8 174.369C361.458 175.062 364.231 174.831 366.889 174.369C367.929 174.253 369.085 174.022 369.778 173.213C370.471 172.404 370.471 171.364 370.587 170.44C370.934 166.973 371.858 163.391 374.285 160.964C375.094 160.155 376.249 159.578 377.405 159.231C376.596 160.849 375.787 162.467 375.556 164.315C375.325 166.858 376.48 169.515 375.556 171.942C375.094 173.329 374.054 174.484 373.014 175.524C371.165 177.489 369.2 179.338 366.774 180.609C364.463 181.88 361.805 182.342 359.263 182.92C355.911 183.613 352.445 184.307 348.978 184.191C345.511 184.191 341.929 183.382 339.156 181.302C336.729 179.569 334.996 177.027 333.263 174.484L309.458 147.907C314.774 140.627 323.556 144.093 326.907 145.595Z" fill="#081466"/>
<path d="M318.703 223.249L326.214 241.276C327.023 243.356 327.023 245.551 326.214 247.631C324.365 251.791 320.436 258.493 313.965 258.493C303.565 258.493 302.294 246.013 302.294 246.013L301.254 229.373" fill="#F9C6B9"/>
<path d="M301.716 238.733L301.138 229.373L318.702 223.249L319.28 224.636C315.12 230.76 308.649 236.076 301.716 238.733Z" fill="#F49E87"/>
<path d="M281.378 168.591C279.182 170.555 277.449 172.982 276.062 175.755C272.249 183.729 274.56 192.511 276.178 200.715C277.795 209.035 278.951 220.706 284.613 227.524C299.289 245.204 325.173 227.409 329.911 209.729C333.146 197.595 335.226 181.071 326.329 170.671C315.929 158.306 293.28 157.613 281.378 168.591Z" fill="#F9C6B9"/>
<path d="M333.84 197.018C325.52 198.058 309.112 185.115 301.254 169.4C299.52 169.631 298.712 171.942 297.094 172.635C296.516 172.867 295.823 172.982 295.129 172.751C294.552 172.52 294.089 171.827 294.205 171.249C293.743 172.058 293.28 172.751 292.587 173.213C291.894 173.675 290.969 173.907 290.16 173.56C289.352 173.213 288.774 172.289 289.005 171.48C283.92 172.52 278.952 180.609 277.796 185.693C276.294 192.511 275.716 200.022 278.258 211.462C272.596 211 266.356 202.102 263.698 197.133C258.152 186.964 261.965 173.675 269.245 165.355C271.094 163.275 273.405 161.195 275.947 159.924C279.067 158.538 282.534 158.884 285.769 158.191C290.969 152.298 301.254 147.098 310.383 146.058C320.436 144.902 333.263 150.68 339.387 158.422C345.512 166.049 349.44 176.102 348.747 186.386C348.169 195.515 342.045 203.258 335.343 209.498" fill="#0D1D7D"/>
<path d="M316.622 224.058C317.894 223.942 319.165 223.826 320.436 223.595C323.325 223.018 327.369 221.515 330.142 217.702C331.182 216.315 331.645 215.044 331.76 213.773C331.76 213.426 331.529 213.195 331.182 213.195C330.836 213.195 330.605 213.426 330.605 213.773C330.489 214.813 330.027 215.853 329.218 217.009C326.56 220.475 322.862 221.862 320.205 222.44C316.622 223.249 312.809 223.018 309.574 222.671C309.227 222.671 308.996 222.902 308.996 223.249C308.996 223.595 309.227 223.826 309.574 223.826C311.538 223.942 314.08 224.173 316.622 224.058Z" fill="#081466"/>
<path d="M306.8 221.746C307.724 221.284 308.996 221.284 310.036 221.631C313.733 222.902 309.573 227.409 306.338 224.982C306.107 224.751 305.876 224.52 305.644 224.289C305.182 223.364 305.76 222.209 306.8 221.746Z" fill="#081466"/>
<path d="M290.391 218.511C292.125 219.435 295.591 219.435 297.787 218.049C298.018 217.933 298.365 218.049 298.365 218.28C299.174 224.289 296.054 225.907 294.667 226.022C290.391 226.253 289.929 221.169 290.045 218.858C289.814 218.511 290.16 218.395 290.391 218.511Z" fill="white"/>
<path d="M332.338 185.924C330.142 178.182 325.867 171.018 319.973 165.587C314.08 160.156 306.453 156.573 298.48 155.533C292.471 154.724 293.627 153.916 288.196 155.88L284.382 158.538C294.089 157.498 303.565 160.964 311.422 166.742C319.28 172.52 324.711 181.302 326.56 190.893" fill="#0D30BF"/>
<path d="M333.494 185C331.298 177.258 327.023 170.093 321.129 164.662C315.236 159.231 307.609 155.649 299.636 154.609C293.627 153.8 292.125 154.147 288.311 155.302L285.538 157.729C295.245 156.689 304.72 160.156 312.578 165.933C320.436 171.711 325.867 180.493 327.716 190.085" fill="#103FCD"/>
<path d="M317.662 202.449C318.24 211.578 325.52 218.511 333.956 218.049C342.391 217.587 348.747 209.729 348.169 200.6C347.591 191.471 340.311 184.538 331.876 185C323.44 185.462 317.085 193.32 317.662 202.449Z" fill="#103FCD"/>
<path d="M319.359 202.665C318.817 193.746 324.833 186.124 332.796 185.64C340.759 185.156 347.654 191.994 348.196 200.913C348.738 209.832 342.721 217.454 334.758 217.937C326.795 218.421 319.901 211.583 319.359 202.665Z" fill="#0D30BF"/>
<path d="M321.05 202.913C320.52 194.185 326.338 186.731 334.047 186.262C341.755 185.794 348.434 192.489 348.964 201.217C349.494 209.944 343.676 217.399 335.967 217.867C328.259 218.336 321.58 211.641 321.05 202.913Z" fill="#F73179"/>
<path opacity="0.45" d="M327.744 202.44C327.396 196.706 330.78 191.836 335.303 191.561C339.826 191.286 343.775 195.711 344.123 201.444C344.472 207.178 341.088 212.049 336.565 212.323C332.042 212.598 328.093 208.173 327.744 202.44Z" fill="#CC729B"/>
<path d="M108.045 353.826C108.16 355.906 110.125 357.64 111.742 359.026C116.596 363.071 119.254 370.351 126.996 367.693C130 366.653 129.422 363.302 131.387 361.338C133.582 359.258 137.049 358.795 138.782 356.138C142.134 351.169 132.889 351.4 136.356 346.778C140.516 341.231 134.969 335.106 130.116 332.68C125.031 330.138 114.4 325.978 109.894 331.524C107.929 333.951 108.507 336.84 109.778 339.382C110.934 341.578 114.054 344.235 113.129 346.893C112.436 349.204 109.662 349.782 108.507 351.862C108.16 352.555 108.045 353.133 108.045 353.826ZM107.236 319.506C107.814 318.12 108.622 316.733 110.587 316.386C115.325 315.578 118.56 322.511 114.285 325.169C109.547 328.058 105.618 323.32 107.236 319.506ZM103.885 343.542C104.116 342.849 104.578 342.271 105.502 342.04C107.698 341.693 110.24 345.738 108.16 347.009C105.965 348.28 103.191 345.275 103.885 343.542Z" fill="url(#paint27_linear)"/>
<path d="M107.929 399.471H117.636V394.849H107.929C104.809 394.849 102.267 392.307 102.267 389.187V380.751C102.267 377.631 104.809 375.089 107.929 375.089H117.636V370.467H107.929C102.267 370.467 97.6446 375.089 97.6446 380.751V389.187C97.6446 394.849 102.267 399.471 107.929 399.471Z" fill="#3A58F7"/>
<path d="M117.982 407.329H131.271C136.356 407.329 140.516 403.169 140.516 398.084V363.88H108.738V398.084C108.738 403.169 112.898 407.329 117.982 407.329Z" fill="#516DFC"/>
<path d="M242.552 407.329H349.209V405.364C349.209 402.707 347.129 400.627 344.472 400.627H242.552V407.329Z" fill="#7490F7"/>
<path d="M266.587 324.013L282.534 407.329H145.138L129.076 322.973C128.845 321.24 130.116 319.738 131.849 319.738H261.503C264.045 319.622 266.24 321.471 266.587 324.013Z" fill="#9494F2"/>
<path d="M263.352 324.013L279.298 407.329H141.903L125.841 322.973C125.609 321.24 126.881 319.738 128.614 319.738H258.152C260.694 319.622 262.889 321.471 263.352 324.013Z" fill="url(#paint28_linear)"/>
<path d="M189.511 364.573C190.32 370.005 195.289 374.396 200.72 374.396C206.151 374.396 209.965 370.005 209.156 364.573C208.347 359.142 203.378 354.751 197.947 354.751C192.516 354.751 188.818 359.142 189.511 364.573Z" fill="#FFE1FF"/>
<path d="M321.591 402.823H339.733V405.134H321.591V402.823Z" fill="#646EF2"/>
<path d="M315.004 402.476H315.929V405.711H315.004V402.476Z" fill="#646EF2"/>
<path d="M313.156 402.476H314.08V405.711H313.156V402.476Z" fill="#646EF2"/>
<path d="M311.307 402.476H312.231V405.711H311.307V402.476Z" fill="#646EF2"/>
<path d="M309.458 402.476H310.382V405.711H309.458V402.476Z" fill="#646EF2"/>
<path d="M307.609 402.476H308.533V405.711H307.609V402.476Z" fill="#646EF2"/>
<path d="M305.76 402.476H306.685V405.711H305.76V402.476Z" fill="#646EF2"/>
<path d="M303.911 402.476H304.835V405.711H303.911V402.476Z" fill="#646EF2"/>
<path d="M298.596 402.476H299.521V405.711H298.596V402.476Z" fill="#646EF2"/>
<path d="M296.747 402.476H297.671V405.711H296.747V402.476Z" fill="#646EF2"/>
<path d="M294.898 402.476H295.822V405.711H294.898V402.476Z" fill="#646EF2"/>
<path d="M289.467 402.476H290.391V405.711H289.467V402.476Z" fill="#646EF2"/>
<path d="M287.618 402.476H288.542V405.711H287.618V402.476Z" fill="#646EF2"/>
<path d="M504.631 407.329H79.618V409.64H504.631V407.329ZM67.4847 409.64H-0.924164V407.329H67.4847V409.64Z" fill="url(#paint29_linear)"/>
</g>
<defs>
<linearGradient id="paint0_linear" x1="421.128" y1="322.732" x2="421.128" y2="198.01" gradientUnits="userSpaceOnUse">
<stop stop-color="#AD9EEA"/>
<stop offset="0.2502" stop-color="#B3A6EB"/>
<stop offset="0.6445" stop-color="#C4BDEF"/>
<stop offset="1" stop-color="#D7D7F4"/>
</linearGradient>
<linearGradient id="paint1_linear" x1="436.448" y1="408.074" x2="553.058" y2="192.561" gradientUnits="userSpaceOnUse">
<stop stop-color="#5B6DFF" stop-opacity="0.2"/>
<stop offset="1" stop-color="#5B6DFF" stop-opacity="0.1"/>
</linearGradient>
<linearGradient id="paint2_linear" x1="389.241" y1="391.944" x2="468.491" y2="245.476" gradientUnits="userSpaceOnUse">
<stop stop-color="#5B6DFF" stop-opacity="0.2"/>
<stop offset="1" stop-color="#5B6DFF" stop-opacity="0.1"/>
</linearGradient>
<linearGradient id="paint3_linear" x1="358.419" y1="393.097" x2="452.71" y2="218.831" gradientUnits="userSpaceOnUse">
<stop stop-color="#5B6DFF" stop-opacity="0.2"/>
<stop offset="1" stop-color="#5B6DFF" stop-opacity="0.1"/>
</linearGradient>
<linearGradient id="paint4_linear" x1="330.691" y1="370.429" x2="394.021" y2="253.385" gradientUnits="userSpaceOnUse">
<stop stop-color="#5B6DFF" stop-opacity="0.2"/>
<stop offset="1" stop-color="#5B6DFF" stop-opacity="0.1"/>
</linearGradient>
<linearGradient id="paint5_linear" x1="272.593" y1="368.169" x2="331.845" y2="258.661" gradientUnits="userSpaceOnUse">
<stop stop-color="#5B6DFF" stop-opacity="0.2"/>
<stop offset="1" stop-color="#5B6DFF" stop-opacity="0.1"/>
</linearGradient>
<linearGradient id="paint6_linear" x1="259.486" y1="365.322" x2="296.302" y2="297.28" gradientUnits="userSpaceOnUse">
<stop stop-color="#5B6DFF" stop-opacity="0.2"/>
<stop offset="1" stop-color="#5B6DFF" stop-opacity="0.1"/>
</linearGradient>
<linearGradient id="paint7_linear" x1="492.129" y1="467.496" x2="590.27" y2="286.115" gradientUnits="userSpaceOnUse">
<stop stop-color="#5B6DFF" stop-opacity="0.2"/>
<stop offset="1" stop-color="#5B6DFF" stop-opacity="0.1"/>
</linearGradient>
<linearGradient id="paint8_linear" x1="442.892" y1="349.47" x2="516.837" y2="194.068" gradientUnits="userSpaceOnUse">
<stop stop-color="#AD9EEA"/>
<stop offset="0.2502" stop-color="#B3A6EB"/>
<stop offset="0.6445" stop-color="#C4BDEF"/>
<stop offset="1" stop-color="#D7D7F4"/>
</linearGradient>
<linearGradient id="paint9_linear" x1="300.033" y1="341.099" x2="225.187" y2="266.253" gradientUnits="userSpaceOnUse">
<stop stop-color="#AD9EEA"/>
<stop offset="0.2502" stop-color="#B3A6EB"/>
<stop offset="0.6445" stop-color="#C4BDEF"/>
<stop offset="1" stop-color="#D7D7F4"/>
</linearGradient>
<linearGradient id="paint10_linear" x1="401.76" y1="308.052" x2="350.23" y2="218.8" gradientUnits="userSpaceOnUse">
<stop stop-color="#AD9EEA"/>
<stop offset="0.2502" stop-color="#B3A6EB"/>
<stop offset="0.6445" stop-color="#C4BDEF"/>
<stop offset="1" stop-color="#D7D7F4"/>
</linearGradient>
<linearGradient id="paint11_linear" x1="186.228" y1="253.034" x2="190.265" y2="243.087" gradientUnits="userSpaceOnUse">
<stop stop-color="#AD9EEA"/>
<stop offset="0.2502" stop-color="#B3A6EB"/>
<stop offset="0.6445" stop-color="#C4BDEF"/>
<stop offset="1" stop-color="#D7D7F4"/>
</linearGradient>
<linearGradient id="paint12_linear" x1="383.936" y1="193.666" x2="391.724" y2="201.055" gradientUnits="userSpaceOnUse">
<stop stop-color="#AD9EEA"/>
<stop offset="0.2502" stop-color="#B3A6EB"/>
<stop offset="0.6445" stop-color="#C4BDEF"/>
<stop offset="1" stop-color="#D7D7F4"/>
</linearGradient>
<linearGradient id="paint13_linear" x1="465.693" y1="255.826" x2="467.724" y2="245.284" gradientUnits="userSpaceOnUse">
<stop stop-color="#AD9EEA"/>
<stop offset="0.2502" stop-color="#B3A6EB"/>
<stop offset="0.6445" stop-color="#C4BDEF"/>
<stop offset="1" stop-color="#D7D7F4"/>
</linearGradient>
<linearGradient id="paint14_linear" x1="475.871" y1="127.521" x2="466.117" y2="123.034" gradientUnits="userSpaceOnUse">
<stop stop-color="#AD9EEA"/>
<stop offset="0.2502" stop-color="#B3A6EB"/>
<stop offset="0.6445" stop-color="#C4BDEF"/>
<stop offset="1" stop-color="#D7D7F4"/>
</linearGradient>
<linearGradient id="paint15_linear" x1="360.257" y1="103.316" x2="378.663" y2="96.5709" gradientUnits="userSpaceOnUse">
<stop stop-color="#AD9EEA"/>
<stop offset="0.2502" stop-color="#B3A6EB"/>
<stop offset="0.6445" stop-color="#C4BDEF"/>
<stop offset="1" stop-color="#D7D7F4"/>
</linearGradient>
<linearGradient id="paint16_linear" x1="221.666" y1="179.073" x2="225.195" y2="182.734" gradientUnits="userSpaceOnUse">
<stop stop-color="#AD9EEA"/>
<stop offset="0.2502" stop-color="#B3A6EB"/>
<stop offset="0.6445" stop-color="#C4BDEF"/>
<stop offset="1" stop-color="#D7D7F4"/>
</linearGradient>
<linearGradient id="paint17_linear" x1="482.326" y1="208.206" x2="487.95" y2="222.614" gradientUnits="userSpaceOnUse">
<stop stop-color="#AD9EEA"/>
<stop offset="0.2502" stop-color="#B3A6EB"/>
<stop offset="0.6445" stop-color="#C4BDEF"/>
<stop offset="1" stop-color="#D7D7F4"/>
</linearGradient>
<linearGradient id="paint18_linear" x1="224.233" y1="237.151" x2="232.937" y2="241.659" gradientUnits="userSpaceOnUse">
<stop stop-color="#AD9EEA"/>
<stop offset="0.2502" stop-color="#B3A6EB"/>
<stop offset="0.6445" stop-color="#C4BDEF"/>
<stop offset="1" stop-color="#D7D7F4"/>
</linearGradient>
<linearGradient id="paint19_linear" x1="247.192" y1="167.19" x2="253.044" y2="177.015" gradientUnits="userSpaceOnUse">
<stop stop-color="#AD9EEA"/>
<stop offset="0.2502" stop-color="#B3A6EB"/>
<stop offset="0.6445" stop-color="#C4BDEF"/>
<stop offset="1" stop-color="#D7D7F4"/>
</linearGradient>
<linearGradient id="paint20_linear" x1="473.634" y1="192.37" x2="475.333" y2="188.183" gradientUnits="userSpaceOnUse">
<stop stop-color="#AD9EEA"/>
<stop offset="0.2502" stop-color="#B3A6EB"/>
<stop offset="0.6445" stop-color="#C4BDEF"/>
<stop offset="1" stop-color="#D7D7F4"/>
</linearGradient>
<linearGradient id="paint21_linear" x1="495.121" y1="84.2492" x2="496.82" y2="80.062" gradientUnits="userSpaceOnUse">
<stop stop-color="#AD9EEA"/>
<stop offset="0.2502" stop-color="#B3A6EB"/>
<stop offset="0.6445" stop-color="#C4BDEF"/>
<stop offset="1" stop-color="#D7D7F4"/>
</linearGradient>
<linearGradient id="paint22_linear" x1="216.328" y1="307.366" x2="218.027" y2="303.179" gradientUnits="userSpaceOnUse">
<stop stop-color="#AD9EEA"/>
<stop offset="0.2502" stop-color="#B3A6EB"/>
<stop offset="0.6445" stop-color="#C4BDEF"/>
<stop offset="1" stop-color="#D7D7F4"/>
</linearGradient>
<linearGradient id="paint23_linear" x1="419.872" y1="427.24" x2="258.39" y2="265.758" gradientUnits="userSpaceOnUse">
<stop stop-color="#12178F"/>
<stop offset="0.1943" stop-color="#1A1995"/>
<stop offset="0.5015" stop-color="#3120A6"/>
<stop offset="0.8812" stop-color="#562AC0"/>
<stop offset="1" stop-color="#632ECA"/>
</linearGradient>
<linearGradient id="paint24_linear" x1="181.31" y1="296.341" x2="159.685" y2="258.886" gradientUnits="userSpaceOnUse">
<stop offset="0.3929" stop-color="#F9C6B9"/>
<stop offset="0.5748" stop-color="#F9C3B6"/>
<stop offset="0.7063" stop-color="#F9BAAD"/>
<stop offset="0.8221" stop-color="#F9AA9D"/>
<stop offset="0.9281" stop-color="#F99488"/>
<stop offset="1" stop-color="#F98074"/>
</linearGradient>
<linearGradient id="paint25_linear" x1="181.841" y1="286.732" x2="168.167" y2="264.873" gradientUnits="userSpaceOnUse">
<stop offset="0.3929" stop-color="#F9C6B9"/>
<stop offset="0.5748" stop-color="#F9C3B6"/>
<stop offset="0.7063" stop-color="#F9BAAD"/>
<stop offset="0.8221" stop-color="#F9AA9D"/>
<stop offset="0.9281" stop-color="#F99488"/>
<stop offset="1" stop-color="#F98074"/>
</linearGradient>
<linearGradient id="paint26_linear" x1="338.301" y1="378.227" x2="303.127" y2="378.227" gradientUnits="userSpaceOnUse">
<stop offset="0.1837" stop-color="#F9C6B9"/>
<stop offset="0.4282" stop-color="#F9C3B6"/>
<stop offset="0.6052" stop-color="#F9BAAD"/>
<stop offset="0.7608" stop-color="#F9AA9D"/>
<stop offset="0.9033" stop-color="#F99488"/>
<stop offset="1" stop-color="#F98074"/>
</linearGradient>
<linearGradient id="paint27_linear" x1="135.355" y1="359.743" x2="100.811" y2="325.199" gradientUnits="userSpaceOnUse">
<stop stop-color="#BABEFF" stop-opacity="0.6"/>
<stop offset="1" stop-color="#F6F3FF" stop-opacity="0.4"/>
</linearGradient>
<linearGradient id="paint28_linear" x1="239.94" y1="430.005" x2="164.108" y2="298.661" gradientUnits="userSpaceOnUse">
<stop stop-color="#B6BCFC"/>
<stop offset="1" stop-color="#FFCAE0"/>
</linearGradient>
<linearGradient id="paint29_linear" x1="-0.938058" y1="408.467" x2="504.682" y2="408.467" gradientUnits="userSpaceOnUse">
<stop stop-color="#EF225F"/>
<stop offset="1" stop-color="#111890"/>
</linearGradient>
</defs>
</svg>
