<svg width="258" height="240" viewBox="0 0 258 240" fill="none" xmlns="http://www.w3.org/2000/svg">
<path d="M220.62 109.525C220.625 128.088 215.121 146.236 204.804 161.673C194.488 177.11 179.822 189.142 162.661 196.249C145.501 203.355 126.617 205.216 108.399 201.595C90.1802 197.975 73.4451 189.037 60.3104 175.911C47.1757 162.784 38.2314 146.06 34.6088 127.853C30.9862 109.647 32.8481 90.7752 39.959 73.6261C47.0698 56.4769 59.1102 41.8204 74.5572 31.5105C90.0041 21.2006 108.164 15.7004 126.739 15.7056C151.638 15.7056 175.517 25.5901 193.123 43.1847C210.729 60.7793 220.62 84.6427 220.62 109.525Z" fill="#FAF3C8"/>
<path d="M101.065 168.157C101.065 168.157 106.981 153.857 108.953 152.425L104.529 144.543L105.844 151.367C105.844 151.367 93.8353 162.922 93.3555 169.26L101.065 168.157Z" fill="#FFB1C1"/>
<path d="M96.1948 162.751C94.6567 165.083 93.5196 167.401 93.375 169.26L101.065 168.137C101.065 168.137 101.723 166.501 102.709 164.281C100.684 163.256 98.4098 162.495 96.1948 162.751Z" fill="#0082AF"/>
<path d="M48.916 110.754L97.1282 122.301L102.084 113.506L52.3274 107.456L48.916 110.754Z" fill="#743151"/>
<path d="M46.4708 112.356C52.6348 112.356 57.6316 107.363 57.6316 101.203C57.6316 95.0429 52.6348 90.0493 46.4708 90.0493C40.3069 90.0493 35.3101 95.0429 35.3101 101.203C35.3101 107.363 40.3069 112.356 46.4708 112.356Z" fill="#27AE60"/>
<path d="M50.9998 107.962C50.9998 114.938 45.0842 120.6 37.7554 120.6C30.4266 120.6 24.5176 114.951 24.5176 107.962C24.5176 100.973 30.4332 95.3238 37.7554 95.3238C45.0776 95.3238 50.9998 100.979 50.9998 107.962Z" fill="#2ECC71"/>
<path d="M88.8731 83.3624L72.145 69.2792L74.5638 65.5417L84.6927 73.2401L85.5735 66.9736L86.4805 66.573L86.8946 73.9035L94.1577 78.0812L88.8731 83.3624Z" fill="#743151"/>
<path d="M82.0515 62.0049C82.8032 57.3564 79.6418 52.979 74.9903 52.2278C70.3387 51.4766 65.9585 54.6359 65.2068 59.2844C64.4551 63.9329 67.6165 68.3103 72.2681 69.0615C76.9196 69.8127 81.2998 66.6534 82.0515 62.0049Z" fill="#27AE60"/>
<path d="M93.1648 61.6728C93.1648 62.8735 92.8084 64.0472 92.1408 65.0455C91.4731 66.0437 90.5242 66.8216 89.4141 67.2808C88.3039 67.74 87.0824 67.8598 85.9042 67.6251C84.7259 67.3904 83.6437 66.8117 82.7946 65.9622C81.9455 65.1127 81.3676 64.0306 81.134 62.8529C80.9004 61.6751 81.0216 60.4545 81.4823 59.3456C81.943 58.2367 82.7224 57.2892 83.722 56.6231C84.7217 55.957 85.8965 55.6021 87.098 55.6034C88.7076 55.6051 90.2507 56.2454 91.3883 57.3834C92.5258 58.5214 93.1648 60.0642 93.1648 61.6728Z" fill="#2ECC71"/>
<path d="M77.633 63.4003C77.633 69.2004 72.3747 73.9101 65.8609 73.9101C59.3472 73.9101 54.0889 69.207 54.0889 63.4003C54.0889 57.5937 59.3472 52.8905 65.8609 52.8905C72.3747 52.8905 77.633 57.5937 77.633 63.4003Z" fill="#2ECC71"/>
<path d="M126.739 101.538C126.739 106.786 125.182 111.917 122.264 116.281C119.346 120.645 115.199 124.046 110.347 126.055C105.495 128.064 100.155 128.589 95.0044 127.565C89.8533 126.541 85.1217 124.014 81.408 120.302C77.6943 116.591 75.1652 111.863 74.1406 106.715C73.116 101.567 73.6419 96.2314 75.6517 91.3824C77.6616 86.5333 81.0651 82.3888 85.432 79.4728C89.7989 76.5569 94.9329 75.0005 100.185 75.0005C107.227 75.0023 113.98 77.7987 118.96 82.775C123.939 87.7513 126.738 94.5002 126.739 101.538Z" fill="#27AE60"/>
<path d="M147.739 67.7422C147.739 79.8547 137.091 89.6748 123.959 89.6748C110.826 89.6748 100.185 79.8219 100.185 67.7422C100.185 55.6625 110.833 45.8096 123.959 45.8096C137.085 45.8096 147.739 55.6297 147.739 67.7422Z" fill="#27AE60"/>
<path d="M206.83 82.1078C206.83 87.216 205.314 92.2096 202.474 96.457C199.634 100.704 195.598 104.015 190.876 105.97C186.153 107.924 180.957 108.436 175.943 107.439C170.93 106.443 166.325 103.983 162.71 100.371C159.096 96.7587 156.634 92.1566 155.637 87.1465C154.64 82.1364 155.152 76.9433 157.108 72.2239C159.064 67.5045 162.377 63.4707 166.627 60.6327C170.877 57.7947 175.874 56.28 180.985 56.28C187.84 56.28 194.413 59.0011 199.26 63.8448C204.107 68.6884 206.83 75.2578 206.83 82.1078Z" stroke="#FF050C" stroke-width="1.65" stroke-linecap="round" stroke-linejoin="round"/>
<path d="M176.954 113.91C206.508 111.808 228.762 86.1618 226.659 56.6268C224.556 27.0918 198.893 4.85256 169.339 6.95411C139.785 9.05566 117.531 34.7022 119.634 64.2372C121.737 93.7722 147.4 116.011 176.954 113.91Z" fill="#27AE60"/>
<path d="M164.592 71.4666C164.599 77.0349 162.953 82.4799 159.862 87.1129C156.771 91.7459 152.374 95.3587 147.229 97.494C142.083 99.6294 136.419 100.191 130.953 99.1092C125.487 98.0268 120.466 95.3487 116.524 91.4137C112.581 87.4786 109.896 82.4635 108.806 77.0027C107.717 71.5419 108.273 65.8809 110.403 60.7358C112.534 55.5908 116.144 51.193 120.777 48.0987C125.409 45.0045 130.856 43.3529 136.428 43.3529C143.892 43.3529 151.051 46.3138 156.332 51.5852C161.613 56.8566 164.584 64.0074 164.592 71.4666Z" fill="#2ECC71"/>
<path d="M258 105.663C258.001 114.023 255.522 122.197 250.874 129.149C246.227 136.101 239.622 141.52 231.893 144.72C224.164 147.92 215.659 148.757 207.453 147.127C199.248 145.496 191.711 141.47 185.795 135.558C179.879 129.646 175.851 122.114 174.219 113.914C172.587 105.714 173.426 97.2146 176.628 89.4907C179.83 81.7668 185.252 75.1653 192.209 70.5212C199.165 65.8771 207.344 63.399 215.71 63.4003C221.264 63.4003 226.763 64.4935 231.894 66.6174C237.024 68.7413 241.687 71.8543 245.614 75.7787C249.541 79.7032 252.656 84.3622 254.781 89.4897C256.906 94.6172 258 100.113 258 105.663Z" fill="#2ECC71"/>
<path d="M216.341 102.503L183.982 119.884L189.26 128.246L217.885 104.047L216.341 102.503Z" fill="#743151"/>
<path d="M235.054 98.4308C235.055 100.589 234.416 102.7 233.217 104.495C232.018 106.29 230.313 107.689 228.317 108.516C226.322 109.343 224.126 109.559 222.008 109.139C219.89 108.718 217.944 107.678 216.416 106.152C214.889 104.626 213.849 102.681 213.428 100.564C213.007 98.4472 213.224 96.253 214.051 94.2591C214.878 92.2652 216.279 90.5613 218.075 89.3629C219.871 88.1645 221.983 87.5256 224.143 87.5269C227.036 87.5286 229.81 88.678 231.856 90.7225C233.902 92.767 235.052 95.5394 235.054 98.4308Z" fill="#27AE60"/>
<path d="M241.791 96.6113C241.791 98.4072 241.258 100.163 240.26 101.656C239.262 103.15 237.844 104.314 236.184 105.002C234.524 105.69 232.697 105.871 230.934 105.523C229.172 105.174 227.552 104.31 226.28 103.042C225.008 101.773 224.14 100.157 223.787 98.3956C223.434 96.6347 223.612 94.8088 224.297 93.1485C224.982 91.4882 226.144 90.068 227.636 89.0674C229.128 88.0669 230.884 87.5308 232.681 87.5269C233.876 87.5243 235.061 87.7574 236.166 88.2127C237.271 88.6681 238.275 89.3368 239.122 90.1807C239.968 91.0245 240.639 92.0268 241.097 93.1303C241.555 94.2337 241.791 95.4166 241.791 96.6113Z" fill="#289957"/>
<path d="M74.4057 70.6193L62.2524 61.6728" stroke="#743151" stroke-width="1.51" stroke-linecap="round" stroke-linejoin="round"/>
<path d="M69.4565 66.9737V58.6118" stroke="#743151" stroke-width="1.51" stroke-linecap="round" stroke-linejoin="round"/>
<path d="M69.4567 66.9737L60.8594 67.7422" stroke="#743151" stroke-width="1.51" stroke-linecap="round" stroke-linejoin="round"/>
<path d="M53.9771 111.47L32.8452 108.665" stroke="#743151" stroke-width="1.51" stroke-linecap="round" stroke-linejoin="round"/>
<path d="M42.3696 110.149L39.0635 103.876" stroke="#743151" stroke-width="1.51" stroke-linecap="round" stroke-linejoin="round"/>
<path d="M42.3697 110.294L36.6973 114.879" stroke="#743151" stroke-width="1.51" stroke-linecap="round" stroke-linejoin="round"/>
<path d="M86.2305 59.5183L85.9873 70.928" stroke="#743151" stroke-linecap="round" stroke-linejoin="round"/>
<path d="M86.3091 64.5498L89.4838 61.0291" stroke="#743151" stroke-linecap="round" stroke-linejoin="round"/>
<path d="M82.9771 61.0291L86.0597 64.5498" stroke="#743151" stroke-linecap="round" stroke-linejoin="round"/>
<path d="M212.765 125.25C212.767 130.636 211.17 135.901 208.176 140.379C205.183 144.858 200.928 148.349 195.95 150.41C190.971 152.472 185.493 153.011 180.207 151.961C174.921 150.911 170.066 148.318 166.256 144.509C162.445 140.701 159.85 135.849 158.799 130.567C157.748 125.285 158.288 119.81 160.351 114.835C162.414 109.859 165.907 105.607 170.388 102.616C174.87 99.6247 180.138 98.0288 185.527 98.0301C192.751 98.0301 199.679 100.898 204.787 106.003C209.895 111.108 212.765 118.031 212.765 125.25Z" fill="#27AE60"/>
<path d="M93.375 93.9116L122.25 116.311" stroke="#743151" stroke-width="1.51" stroke-linecap="round" stroke-linejoin="round"/>
<path d="M109.768 106.622L89.3721 113.315" stroke="#743151" stroke-width="1.51" stroke-linecap="round" stroke-linejoin="round"/>
<path d="M105.621 103.41L104.398 86.9948" stroke="#743151" stroke-width="1.51" stroke-linecap="round" stroke-linejoin="round"/>
<path d="M141.042 99.2387L131.242 61.6728" stroke="#743151" stroke-width="1.51" stroke-linecap="round" stroke-linejoin="round"/>
<path d="M136.842 81.5823L148.068 61.6728" stroke="#743151" stroke-width="1.51" stroke-linecap="round" stroke-linejoin="round"/>
<path d="M134.988 76.0318L118.267 67.44" stroke="#743151" stroke-width="1.51" stroke-linecap="round" stroke-linejoin="round"/>
<path d="M183.982 127.339L178.225 111.332" stroke="#743151" stroke-width="1.51" stroke-linecap="round" stroke-linejoin="round"/>
<path d="M151.243 109.525L183.983 26.8197" stroke="#743151" stroke-width="1.51" stroke-linecap="round" stroke-linejoin="round"/>
<path d="M171.921 57.2784L157.579 22.8588" stroke="#743151" stroke-width="1.51" stroke-linecap="round" stroke-linejoin="round"/>
<path d="M201.5 90.2988C201.498 94.6286 200.212 98.8608 197.804 102.46C195.396 106.06 191.974 108.865 187.971 110.521C183.968 112.177 179.563 112.61 175.314 111.764C171.065 110.919 167.162 108.833 164.099 105.771C161.036 102.709 158.95 98.8077 158.105 94.561C157.26 90.3143 157.694 85.9127 159.353 81.9126C161.011 77.9125 163.819 74.4936 167.422 72.0883C171.024 69.6829 175.259 68.399 179.592 68.399C182.47 68.399 185.319 68.9656 187.977 70.0662C190.636 71.1668 193.051 72.7801 195.085 74.8137C197.12 76.8474 198.733 79.2617 199.834 81.9186C200.934 84.5756 201.5 87.4232 201.5 90.2988Z" fill="#27AE60"/>
<path d="M173.433 94.3057L171.816 81.2736" stroke="#743151" stroke-width="1.61" stroke-linecap="round" stroke-linejoin="round"/>
<path d="M224.656 99.6197L235.054 96.6113" stroke="#743151" stroke-width="1.51" stroke-linecap="round" stroke-linejoin="round"/>
<path d="M228.896 98.0301L232.701 91.6651" stroke="#743151" stroke-width="1.51" stroke-linecap="round" stroke-linejoin="round"/>
<path d="M230.795 97.8396L236.158 100.086" stroke="#743151" stroke-width="1.51" stroke-linecap="round" stroke-linejoin="round"/>
<path d="M175.103 50.3616L208.67 33.4211" stroke="#743151" stroke-width="1.51" stroke-linecap="round" stroke-linejoin="round"/>
<path d="M223.946 200.192C224.427 201.412 224.664 202.715 224.641 204.026C224.619 205.338 224.338 206.632 223.815 207.835C223.292 209.038 222.536 210.126 221.592 211.037C220.648 211.948 219.534 212.665 218.313 213.145L153.727 239.236C151.279 240.252 148.527 240.255 146.077 239.244C143.626 238.232 141.678 236.29 140.661 233.843L78.5401 80.2423C78.0585 79.0221 77.8222 77.7192 77.8447 76.4078C77.8672 75.0963 78.148 73.8022 78.6711 72.5993C79.1942 71.3964 79.9494 70.3083 80.8934 69.3971C81.8375 68.4859 82.9519 67.7696 84.1731 67.2889L148.758 41.1984C151.207 40.1845 153.958 40.1837 156.407 41.1962C158.856 42.2087 160.803 44.1516 161.819 46.5978L223.946 200.192Z" fill="#1D3D4C"/>
<path d="M214.632 190.089C214.794 190.494 214.789 190.945 214.618 191.346C214.446 191.746 214.123 192.062 213.719 192.224L142.278 221.087C142.078 221.168 141.864 221.21 141.648 221.209C141.432 221.207 141.219 221.164 141.02 221.08C140.821 220.997 140.64 220.875 140.488 220.722C140.337 220.568 140.217 220.386 140.135 220.187L87.8936 91.0411C87.7317 90.6352 87.7377 90.1816 87.9102 89.7801C88.0828 89.3786 88.4078 89.0619 88.8138 88.8997L160.248 60.0438C160.448 59.9613 160.662 59.9192 160.878 59.9199C161.094 59.9205 161.308 59.9639 161.507 60.0476C161.706 60.1313 161.887 60.2535 162.039 60.4073C162.19 60.5611 162.31 60.7434 162.391 60.9437L214.632 190.089Z" fill="#ACE0E8"/>
<path d="M129.69 61.3575C129.763 61.5265 129.802 61.7083 129.804 61.8922C129.807 62.0762 129.773 62.2589 129.704 62.4297C129.636 62.6006 129.534 62.7562 129.406 62.8878C129.277 63.0195 129.124 63.1244 128.954 63.1967L114.021 69.2333C113.672 69.3656 113.285 69.3541 112.945 69.2014C112.605 69.0486 112.339 68.7671 112.207 68.4188C112.134 68.2493 112.096 68.0672 112.094 67.8829C112.092 67.6987 112.126 67.5158 112.195 67.3449C112.264 67.174 112.367 67.0184 112.496 66.8871C112.625 66.7557 112.779 66.6512 112.949 66.5795L127.876 60.5496C128.224 60.4169 128.61 60.4274 128.95 60.5789C129.291 60.7303 129.557 61.0103 129.69 61.3575Z" fill="#DEE4E5"/>
<path d="M108.144 70.0609C108.317 70.4848 108.359 70.9502 108.266 71.3982C108.174 71.8462 107.95 72.2567 107.624 72.5777C107.298 72.8987 106.884 73.1159 106.434 73.2016C105.985 73.2874 105.52 73.2379 105.098 73.0595C104.677 72.8811 104.318 72.5817 104.066 72.1993C103.815 71.8168 103.683 71.3685 103.687 70.9111C103.691 70.4536 103.83 70.0076 104.088 69.6294C104.346 69.2513 104.71 68.958 105.134 68.7866C105.703 68.559 106.338 68.5652 106.902 68.8039C107.466 69.0426 107.913 69.4945 108.144 70.0609Z" fill="#DEE4E5"/>
<path d="M187.986 213.007C188.489 214.248 188.613 215.61 188.342 216.92C188.07 218.231 187.416 219.432 186.462 220.371C185.507 221.311 184.295 221.946 182.98 222.196C181.664 222.447 180.303 222.302 179.07 221.779C177.837 221.257 176.786 220.381 176.051 219.261C175.317 218.142 174.931 216.83 174.942 215.492C174.954 214.153 175.362 212.848 176.116 211.742C176.87 210.635 177.936 209.777 179.178 209.276C180.001 208.943 180.882 208.776 181.771 208.783C182.659 208.79 183.537 208.972 184.355 209.319C185.173 209.665 185.915 210.169 186.538 210.802C187.161 211.435 187.653 212.184 187.986 213.007Z" fill="white" stroke="#DFE5E6" stroke-width="2.01" stroke-miterlimit="10"/>
<path d="M120.501 106.28L123.827 114.498L124.55 116.028L114.717 108.619L110.425 110.353L117.359 127.504L121.323 125.907L117.747 117.079L117.024 115.549L127.468 123.424L131.425 121.828L124.484 104.671L120.501 106.28Z" fill="white"/>
<path d="M138.866 103.331L137.308 99.4949L126.075 104.027L133.016 121.185L144.249 116.646L142.691 112.803L135.467 115.719L134.324 112.908L140.831 110.281L139.273 106.438L132.772 109.065L131.635 106.254L138.866 103.331Z" fill="white"/>
<path d="M156.599 91.698L158.124 102.51L158.15 102.641L151.623 93.708L148.081 95.1399L149.606 105.919L149.632 106.182L149.514 106.004L142.921 97.2222L138.701 98.93L150.388 114.163L154.036 112.691L153.385 103.489L153.326 103.003L153.602 103.37L159.55 110.465L163.205 108.987L160.819 89.9901L156.599 91.698Z" fill="white"/>
<path d="M190.501 147.488L158.258 160.513L173.856 199.075L206.099 186.05L190.501 147.488Z" fill="white"/>
<rect width="24.3176" height="4.59844" transform="matrix(0.930287 -0.366833 0.367246 0.930124 167.104 168.1)" fill="#DCDCDC"/>
<rect width="24.3176" height="4.59843" transform="matrix(0.930287 -0.366832 0.367247 0.930124 170 175.433)" fill="#DCDCDC"/>
<rect width="15.1163" height="4.59843" transform="matrix(0.930287 -0.366832 0.367246 0.930124 178.863 185.354)" fill="#8BFFAC"/>
<path d="M97.582 94.6144L158.631 69.9558" stroke="white" stroke-width="1.51" stroke-linecap="round" stroke-linejoin="round"/>
<path d="M99.1528 98.4899L160.195 73.8313" stroke="white" stroke-width="1.51" stroke-linecap="round" stroke-linejoin="round"/>
<path d="M100.724 102.365L161.766 77.7068" stroke="white" stroke-width="1.51" stroke-linecap="round" stroke-linejoin="round"/>
<path d="M102.288 106.241L163.331 81.5823" stroke="white" stroke-width="1.51" stroke-linecap="round" stroke-linejoin="round"/>
<path d="M113.797 134.696L174.84 110.038" stroke="white" stroke-width="1.51" stroke-linecap="round" stroke-linejoin="round"/>
<path d="M115.486 138.88L176.529 114.215" stroke="white" stroke-width="1.51" stroke-linecap="round" stroke-linejoin="round"/>
<path d="M117.182 143.058L178.225 118.399" stroke="white" stroke-width="1.51" stroke-linecap="round" stroke-linejoin="round"/>
<path d="M118.872 147.236L179.914 122.577" stroke="white" stroke-width="1.51" stroke-linecap="round" stroke-linejoin="round"/>
<path d="M120.561 151.42L181.603 126.761" stroke="white" stroke-width="1.51" stroke-linecap="round" stroke-linejoin="round"/>
<path d="M122.25 155.598L183.299 130.939" stroke="white" stroke-width="1.51" stroke-linecap="round" stroke-linejoin="round"/>
<path d="M123.946 159.782L184.988 135.123" stroke="white" stroke-width="1.51" stroke-linecap="round" stroke-linejoin="round"/>
<path d="M125.635 163.959L186.677 139.301" stroke="white" stroke-width="1.51" stroke-linecap="round" stroke-linejoin="round"/>
<path d="M127.324 168.144L188.367 143.478" stroke="white" stroke-width="1.51" stroke-linecap="round" stroke-linejoin="round"/>
<path d="M128.75 172.433L154.201 162.146" stroke="white" stroke-width="1.51" stroke-linecap="round" stroke-linejoin="round"/>
<path d="M130.44 176.611L155.89 166.331" stroke="white" stroke-width="1.51" stroke-linecap="round" stroke-linejoin="round"/>
<path d="M132.129 180.788L157.579 170.508" stroke="white" stroke-width="1.51" stroke-linecap="round" stroke-linejoin="round"/>
<path d="M133.825 184.972L159.275 174.686" stroke="white" stroke-width="1.51" stroke-linecap="round" stroke-linejoin="round"/>
<path d="M135.514 189.15L160.964 178.87" stroke="white" stroke-width="1.51" stroke-linecap="round" stroke-linejoin="round"/>
<path d="M137.203 193.328L162.653 183.048" stroke="white" stroke-width="1.51" stroke-linecap="round" stroke-linejoin="round"/>
<path d="M138.893 197.512L164.349 187.232" stroke="white" stroke-width="1.51" stroke-linecap="round" stroke-linejoin="round"/>
<path d="M140.588 201.696L166.039 191.41" stroke="white" stroke-width="1.51" stroke-linecap="round" stroke-linejoin="round"/>
<path d="M142.277 205.874L167.728 195.594" stroke="white" stroke-width="1.51" stroke-linecap="round" stroke-linejoin="round"/>
<path d="M143.967 210.051L169.417 199.771" stroke="white" stroke-width="1.51" stroke-linecap="round" stroke-linejoin="round"/>
<path d="M173.762 66.9999C176.621 70.4879 183.982 70.9411 187.532 68.0641C191.081 65.187 190.608 60.6415 188.189 56.4967C186.75 54.0072 184.147 52.6869 181.34 53.9153C178.533 55.1436 177.975 57.7645 178.514 60.4839C178.869 62.2902 178.317 63.2624 177.304 63.9193C175.194 65.279 172.96 63.8667 172.085 63.4792C172.345 64.773 172.921 65.9826 173.762 66.9999Z" fill="#F41E3D"/>
<path d="M187.9 56.0697L190.687 55.8727L189.195 58.4607L187.9 56.0697Z" fill="#FFCD00"/>
<path d="M184.561 58.3491C184.824 58.8943 185.35 59.1833 185.731 59.0059C186.112 58.8286 186.198 58.2308 185.928 57.6922C185.659 57.1536 185.139 56.8646 184.765 57.0353C184.57 57.1875 184.441 57.408 184.403 57.652C184.365 57.8959 184.422 58.1452 184.561 58.3491Z" fill="#00597C"/>
<path d="M189.234 101.906C186.375 105.394 179.02 105.847 175.471 102.963C171.921 100.08 172.394 95.5472 174.813 91.3958C176.253 88.9129 178.862 87.586 181.669 88.8209C184.475 90.0558 185.034 92.6701 184.495 95.3895C184.134 97.2025 184.686 98.1746 185.698 98.8249C187.808 100.185 190.049 98.7789 190.923 98.3914C190.659 99.684 190.078 100.891 189.234 101.906Z" fill="#F41E3D"/>
<path d="M175.103 91.0083L172.309 90.8046L173.808 93.3927L175.103 91.0083Z" fill="#FFCD00"/>
<path d="M178.442 93.2744C178.172 93.813 177.646 94.1021 177.272 93.9313C176.897 93.7605 176.798 93.1562 177.068 92.6176C177.337 92.0789 177.857 91.7833 178.238 91.9607C178.619 92.138 178.705 92.7424 178.442 93.2744Z" fill="#00597C"/>
<path d="M193.743 14.1225C194.059 15.2372 194.604 16.2736 195.345 17.1648C196.085 18.0561 197.004 18.7825 198.042 19.2973C199.081 19.8121 200.215 20.1039 201.373 20.1539C202.532 20.2039 203.687 20.011 204.766 19.5876C209.111 17.8207 211.03 13.1832 210.517 8.30931C210.215 5.38627 208.335 3.05441 205.2 3.05441C202.065 3.05441 199.942 5.24833 199.337 7.99402C198.916 9.83323 199.212 11.8629 197.615 12.6249C196.156 13.3212 194.118 11.0747 193.671 10.1485C193.364 11.4585 193.389 12.8246 193.743 14.1225Z" fill="#F41E3D"/>
<path d="M210.307 9.72156L212.759 11.1929L209.979 12.4804L210.307 9.72156Z" fill="#FFCD00"/>
<path d="M207.106 9.96459C207.106 10.582 207.5 11.0681 207.927 11.055C208.355 11.0418 208.696 10.5229 208.67 9.90547C208.644 9.28802 208.282 8.80194 207.849 8.81508C207.415 8.82822 207.086 9.34714 207.106 9.96459Z" fill="#00597C"/>
<path d="M155.64 11.4031C155.315 12.5488 154.753 13.6136 153.991 14.5293C153.229 15.445 152.283 16.1913 151.216 16.7202C150.148 17.2491 148.981 17.5489 147.791 17.6004C146.6 17.652 145.412 17.454 144.302 17.0193C139.839 15.1998 137.861 10.4507 138.387 5.41911C138.689 2.41068 140.661 0 143.855 0C147.05 0 149.238 2.25304 149.883 5.07754C150.316 6.96931 150.014 9.01872 151.657 9.83323C153.156 10.5558 155.253 8.24362 155.719 7.29117C156.034 8.64718 156.007 10.0602 155.64 11.4031Z" fill="#F41E3D"/>
<path d="M138.603 6.87079L136.086 8.38814L138.939 9.715L138.603 6.87079Z" fill="#FFCD00"/>
<path d="M141.896 7.12039C141.896 7.77726 141.489 8.25677 141.048 8.24363C140.608 8.23049 140.266 7.69843 140.286 7.06128C140.306 6.42412 140.661 5.91177 141.134 5.94461C141.607 5.97745 141.916 6.48981 141.896 7.12039Z" fill="#00597C"/>
<path d="M124.886 45.3958C124.575 46.4925 124.039 47.5122 123.31 48.3892C122.582 49.2663 121.678 49.9811 120.656 50.4879C119.635 50.9946 118.518 51.282 117.379 51.3315C116.239 51.3811 115.102 51.1916 114.04 50.7755C109.768 49.0348 107.882 44.4761 108.381 39.6745C108.684 36.7974 110.531 34.5181 113.639 34.4918C116.748 34.4656 118.793 36.6464 119.41 39.3461C119.825 41.159 119.529 43.1559 121.1 43.9047C122.539 44.5615 124.544 42.3808 124.991 41.4677C125.284 42.7653 125.248 44.1157 124.886 45.3958Z" fill="#F41E3D"/>
<path d="M108.591 41.067L106.179 42.5187L108.907 43.7864L108.591 41.067Z" fill="#FFCD00"/>
<path d="M111.74 41.3035C111.74 41.9144 111.359 42.3939 110.932 42.3807C110.504 42.3676 110.182 41.8553 110.202 41.2509C110.222 40.6466 110.59 40.1606 111.017 40.1737C111.444 40.1868 111.74 40.7255 111.74 41.3035Z" fill="#00597C"/>
<path d="M58.4996 54.1714C59.3271 54.7601 60.2684 55.1699 61.2634 55.3744C62.2583 55.579 63.285 55.5738 64.2779 55.3593C65.2707 55.1448 66.2079 54.7256 67.0294 54.1286C67.851 53.5316 68.5388 52.7699 69.0491 51.8921C71.0604 48.2991 69.8313 44.0623 66.8011 40.9948C64.987 39.1556 62.417 38.5972 60.2283 40.2985C58.0395 41.9998 57.8423 44.6666 58.94 46.8803C59.663 48.3713 60.9841 49.5997 60.3071 50.9988C59.6498 52.3125 57.0207 51.8593 56.2319 51.4651C56.7497 52.5424 57.5294 53.4728 58.4996 54.1714Z" fill="#F41E3D"/>
<path d="M67.4321 42.0589L69.9233 41.7239L68.727 44.128L67.4321 42.0589Z" fill="#FFCD00"/>
<path d="M65.3681 44.0098C65.723 44.4236 66.2488 44.555 66.5315 44.3053C66.8141 44.0557 66.7681 43.5237 66.4131 43.1099C66.2915 42.9239 66.1045 42.7904 65.8891 42.7356C65.6736 42.6809 65.4455 42.709 65.2497 42.8143C65.1127 42.9909 65.0486 43.2132 65.0707 43.4356C65.0927 43.6579 65.1991 43.8634 65.3681 44.0098Z" fill="#00597C"/>
<path d="M37.21 90.8178C37.4592 92.031 37.9596 93.1787 38.6792 94.187C39.3989 95.1953 40.3217 96.0419 41.3884 96.6724C42.4552 97.3028 43.6421 97.7032 44.873 97.8476C46.1038 97.9921 47.3513 97.8775 48.5351 97.5112C53.3071 95.9676 55.7193 91.1791 55.5616 85.9373C55.463 82.7909 53.6423 80.17 50.3033 79.8942C46.9642 79.6183 44.5454 81.8188 43.6646 84.7024C43.0665 86.6336 43.2242 88.8143 41.4561 89.5041C39.8458 90.1609 37.8476 87.5729 37.4401 86.5482C37.0071 87.9297 36.928 89.3978 37.21 90.8178Z" fill="#F41E3D"/>
<path d="M54.8578 90.3514L56.7443 93.0708L53.4775 93.0576L54.8578 90.3514Z" fill="#FFCD00"/>
<path d="M50.9604 90.5747C50.9604 91.2316 51.2891 91.7833 51.7492 91.7965C52.2093 91.8096 52.584 91.3038 52.63 90.647C52.676 89.9901 52.3013 89.4383 51.8412 89.4186C51.3811 89.3989 50.9867 89.9113 50.9604 90.5747Z" fill="#00597C"/>
<path d="M213.8 42.9551C211.082 38.9968 204.61 37.8131 199.352 40.3033C194.337 42.6769 192.234 47.5408 194.407 51.4215L192 54.94L197.133 54.2932C198.878 55.3319 200.952 55.9228 203.098 55.9929C205.243 56.0631 207.367 55.6093 209.205 54.6877C214.462 52.1394 216.518 46.9134 213.8 42.9551Z" fill="white"/>
<path d="M151.532 77.5852C153.826 73.5652 159.288 72.3632 163.725 74.8921C167.958 77.3028 169.733 82.2424 167.899 86.1836L169.93 89.7569L165.598 89.1C164.125 90.1549 162.375 90.7551 160.564 90.8263C158.753 90.8975 156.962 90.4367 155.41 89.5007C150.973 86.9127 149.238 81.6052 151.532 77.5852Z" fill="white"/>
<path fill-rule="evenodd" clip-rule="evenodd" d="M156.504 83.7032C156.505 83.6485 156.507 83.5932 156.51 83.5373C155.672 83.4754 155.009 83.5 154.483 83.5755C154.443 83.6455 154.406 83.7159 154.37 83.7867C154.905 83.6872 155.6 83.6436 156.504 83.7032ZM160.687 84.0169C160.639 84.073 160.592 84.1284 160.546 84.1831C162.036 84.2498 162.915 84.0225 163.433 83.7444C163.397 83.688 163.361 83.6299 163.324 83.5699C162.836 83.8323 162.026 84.0489 160.687 84.0169ZM156.511 84.0165C155.484 83.9607 154.738 84.0415 154.195 84.1842C154.165 84.2607 154.137 84.3375 154.112 84.4139C154.652 84.2426 155.422 84.1343 156.525 84.1861C156.519 84.1303 156.515 84.0738 156.511 84.0165ZM160.186 84.636C160.224 84.585 160.264 84.5332 160.305 84.4806C162.084 84.6137 163.08 84.3565 163.636 84.0437C163.678 84.1013 163.718 84.1568 163.759 84.2098C163.183 84.5395 162.125 84.811 160.186 84.636ZM156.57 84.503C155.325 84.4561 154.518 84.6178 153.993 84.839C153.973 84.9225 153.955 85.005 153.94 85.0867C154.447 84.8338 155.269 84.6325 156.606 84.675C156.593 84.6185 156.581 84.5612 156.57 84.503ZM159.876 85.0702C159.909 85.0212 159.943 84.9714 159.978 84.9208C162.241 85.176 163.399 84.858 163.99 84.4902C164.038 84.5446 164.086 84.5956 164.133 84.6432C163.534 85.0317 162.322 85.3755 159.876 85.0702ZM156.694 84.995C155.181 84.9563 154.34 85.2339 153.874 85.5376C153.864 85.6302 153.856 85.7195 153.851 85.8065C154.28 85.4721 155.119 85.1338 156.755 85.1686C156.734 85.1118 156.713 85.0539 156.694 84.995ZM159.612 85.4929C159.64 85.4452 159.668 85.3966 159.698 85.3472C162.534 85.7516 163.819 85.3262 164.399 84.892C164.456 84.94 164.511 84.9839 164.564 85.0222C164 85.4804 162.682 85.9611 159.612 85.4929ZM156.894 85.49C155.018 85.4539 154.197 85.9102 153.84 86.2835C153.841 86.3857 153.844 86.4829 153.85 86.5728C154.143 86.1879 154.923 85.628 156.984 85.664C156.952 85.6073 156.922 85.5493 156.894 85.49ZM159.395 85.9095C159.417 85.8626 159.44 85.8146 159.465 85.7656C163.065 86.366 164.388 85.7144 164.87 85.2127C164.931 85.2445 164.994 85.2725 165.059 85.2964C164.648 85.8092 163.372 86.5918 159.464 85.9213C159.441 85.9173 159.418 85.9134 159.395 85.9095ZM160.971 83.6962C161.026 83.6356 161.082 83.5743 161.14 83.5122C162.053 83.4665 162.653 83.287 163.048 83.0778C163.08 83.1395 163.112 83.1995 163.145 83.2574C162.712 83.4851 162.033 83.6761 160.971 83.6962ZM156.611 82.7683C156.621 82.7148 156.631 82.6618 156.64 82.6093C156.158 82.5533 155.726 82.5231 155.337 82.5138C155.275 82.57 155.214 82.627 155.157 82.6851C155.581 82.684 156.063 82.7092 156.611 82.7683ZM161.714 82.9237C161.637 82.9993 161.563 83.0738 161.491 83.1472C162.124 83.0711 162.57 82.9227 162.885 82.7551C162.856 82.6946 162.826 82.6339 162.797 82.5699C162.538 82.7109 162.187 82.8392 161.714 82.9237ZM162.216 82.4329C162.342 82.3074 162.462 82.185 162.576 82.0654C162.601 82.1246 162.625 82.1839 162.65 82.2411V82.2416C162.527 82.3092 162.384 82.3742 162.216 82.4329ZM160.419 78.073C160.519 78.0933 160.616 78.112 160.711 78.1292C160.774 78.0835 160.829 78.0376 160.877 77.9924C160.84 77.9326 160.804 77.8748 160.768 77.8188C160.678 77.9031 160.564 77.9899 160.419 78.073ZM156.68 82.3109C156.686 82.2578 156.69 82.2052 156.694 82.1532C156.421 82.1168 156.164 82.0884 155.919 82.0668C155.845 82.1149 155.775 82.1647 155.705 82.2149C156.007 82.235 156.331 82.2663 156.68 82.3109ZM159.843 77.943C159.725 77.914 159.605 77.8829 159.482 77.8497C159.944 77.7172 160.249 77.5388 160.45 77.3666C160.49 77.4189 160.53 77.4731 160.571 77.5293C160.41 77.6719 160.177 77.8197 159.843 77.943ZM156.703 81.6963C156.705 81.7484 156.706 81.8012 156.705 81.8546C156.589 81.8379 156.475 81.8225 156.363 81.8084C156.376 81.802 156.388 81.7953 156.4 81.7886H156.4L156.4 81.7886C156.414 81.7809 156.428 81.7731 156.443 81.7657C156.479 81.7478 156.514 81.7284 156.549 81.7091H156.549H156.549C156.566 81.6998 156.583 81.6905 156.6 81.6813C156.634 81.6862 156.669 81.6912 156.703 81.6963ZM156.535 83.2303C156.542 83.1766 156.549 83.1223 156.557 83.0675C155.898 83.0047 155.339 82.9929 154.864 83.0172C154.814 83.0807 154.765 83.1445 154.719 83.2089C155.215 83.1674 155.814 83.1676 156.535 83.2303ZM158.987 76.4674C158.965 76.3167 158.945 76.2299 158.945 76.2299H158.946C158.946 76.2299 159.075 76.2368 159.293 76.341C159.193 76.3889 159.091 76.4311 158.987 76.4674ZM159.651 76.5591C159.488 76.657 159.283 76.7507 159.027 76.8303C159.032 76.8939 159.036 76.9611 159.039 77.0324C159.376 76.9376 159.631 76.8188 159.822 76.6948C159.763 76.6445 159.706 76.5986 159.651 76.5591ZM160.087 76.9435C159.862 77.1117 159.531 77.2777 159.046 77.3954C159.045 77.4605 159.044 77.5272 159.041 77.5957C159.612 77.4718 159.985 77.2833 160.226 77.0944C160.179 77.0409 160.132 76.9903 160.087 76.944L160.087 76.9435Z" fill="#F41E3D"/>
<path d="M156.505 83.7036L156.502 83.7378L156.539 83.7401L156.539 83.704L156.505 83.7036ZM156.51 83.5377L156.544 83.5395L156.546 83.506L156.513 83.5036L156.51 83.5377ZM154.483 83.5759L154.478 83.542L154.462 83.5444L154.453 83.5589L154.483 83.5759ZM154.37 83.7871L154.34 83.7717L154.309 83.8334L154.377 83.8208L154.37 83.7871ZM160.687 84.0173L160.688 83.9831L160.672 83.9826L160.661 83.9949L160.687 84.0173ZM160.546 84.1835L160.52 84.1615L160.476 84.2147L160.545 84.2178L160.546 84.1835ZM163.434 83.7448L163.45 83.775L163.483 83.7575L163.463 83.7263L163.434 83.7448ZM163.325 83.5704L163.354 83.5525L163.337 83.5248L163.309 83.5402L163.325 83.5704ZM154.195 84.1846L154.187 84.1514L154.17 84.1558L154.163 84.1722L154.195 84.1846ZM156.512 84.0169L156.546 84.0149L156.544 83.9844L156.514 83.9827L156.512 84.0169ZM154.113 84.4143L154.08 84.4037L154.059 84.4671L154.123 84.4469L154.113 84.4143ZM156.525 84.1866L156.524 84.2208L156.564 84.2226L156.56 84.1831L156.525 84.1866ZM160.306 84.4811L160.308 84.4468L160.29 84.4455L160.279 84.4599L160.306 84.4811ZM160.186 84.6364L160.159 84.6158L160.121 84.6651L160.183 84.6706L160.186 84.6364ZM163.636 84.0441L163.664 84.0239L163.646 83.9992L163.619 84.0142L163.636 84.0441ZM163.759 84.2102L163.776 84.24L163.81 84.2205L163.786 84.1894L163.759 84.2102ZM153.993 84.8395L153.98 84.8079L153.964 84.8146L153.96 84.8316L153.993 84.8395ZM156.57 84.5034L156.604 84.4972L156.599 84.4702L156.572 84.4691L156.57 84.5034ZM153.941 85.0871L153.907 85.081L153.895 85.1486L153.956 85.1178L153.941 85.0871ZM156.606 84.6754L156.605 84.7096L156.649 84.711L156.639 84.6676L156.606 84.6754ZM159.979 84.9212L159.983 84.8871L159.962 84.8848L159.951 84.9015L159.979 84.9212ZM159.876 85.0707L159.848 85.0516L159.817 85.0978L159.872 85.1047L159.876 85.0707ZM163.99 84.4907L164.016 84.4678L163.997 84.4463L163.972 84.4616L163.99 84.4907ZM164.133 84.6436L164.152 84.6724L164.187 84.6497L164.157 84.6198L164.133 84.6436ZM153.874 85.538L153.856 85.5093L153.842 85.5181L153.84 85.5343L153.874 85.538ZM156.695 84.9955L156.727 84.9849L156.72 84.9618L156.695 84.9612L156.695 84.9955ZM153.851 85.8069L153.817 85.8048L153.813 85.8805L153.872 85.8339L153.851 85.8069ZM156.755 85.169L156.755 85.2033L156.806 85.2044L156.788 85.1569L156.755 85.169ZM159.699 85.3476L159.704 85.3137L159.681 85.3104L159.67 85.3298L159.699 85.3476ZM159.613 85.4933L159.583 85.4762L159.558 85.5197L159.607 85.5273L159.613 85.4933ZM164.4 84.8924L164.422 84.8662L164.401 84.8486L164.379 84.8649L164.4 84.8924ZM164.564 85.0226L164.586 85.0491L164.621 85.0211L164.585 84.9948L164.564 85.0226ZM153.84 86.284L153.815 86.2602L153.806 86.2705L153.806 86.2845L153.84 86.284ZM156.894 85.4904L156.925 85.4755L156.916 85.4566L156.895 85.4562L156.894 85.4904ZM153.851 86.5733L153.816 86.5755L153.822 86.6671L153.878 86.594L153.851 86.5733ZM156.984 85.6645L156.983 85.6987L157.042 85.6998L157.014 85.648L156.984 85.6645ZM159.465 85.766L159.471 85.7322L159.446 85.728L159.435 85.7506L159.465 85.766ZM159.395 85.9099L159.364 85.8955L159.345 85.9363L159.39 85.9437L159.395 85.9099ZM164.87 85.2132L164.886 85.1827L164.863 85.1709L164.845 85.1894L164.87 85.2132ZM165.059 85.2968L165.086 85.3183L165.115 85.2812L165.071 85.2646L165.059 85.2968ZM159.465 85.9217L159.471 85.8879H159.471L159.465 85.9217ZM161.141 83.5126L161.139 83.4783L161.125 83.4791L161.116 83.4892L161.141 83.5126ZM160.971 83.6966L160.946 83.6735L160.892 83.7324L160.972 83.7309L160.971 83.6966ZM163.048 83.0782L163.078 83.0624L163.062 83.0318L163.032 83.0479L163.048 83.0782ZM163.145 83.2578L163.161 83.2882L163.192 83.2718L163.175 83.2412L163.145 83.2578ZM156.611 82.7688L156.607 82.8028L156.639 82.8062L156.645 82.7754L156.611 82.7688ZM156.64 82.6097L156.674 82.6153L156.68 82.5798L156.644 82.5757L156.64 82.6097ZM155.337 82.5142L155.338 82.4799L155.324 82.4796L155.314 82.4888L155.337 82.5142ZM155.157 82.6855L155.133 82.6613L155.075 82.72L155.157 82.7198L155.157 82.6855ZM161.714 82.9241L161.708 82.8904L161.698 82.8922L161.69 82.8997L161.714 82.9241ZM161.491 83.1476L161.466 83.1236L161.398 83.1934L161.495 83.1817L161.491 83.1476ZM162.886 82.7555L162.902 82.7858L162.931 82.7702L162.917 82.7404L162.886 82.7555ZM162.797 82.5703L162.828 82.556L162.813 82.5227L162.781 82.5402L162.797 82.5703ZM162.577 82.0658L162.608 82.0528L162.588 82.004L162.552 82.0421L162.577 82.0658ZM162.216 82.4333L162.192 82.409L162.228 82.4657L162.216 82.4333ZM162.65 82.2415H162.684V82.2344L162.681 82.228L162.65 82.2415ZM162.65 82.242L162.667 82.272L162.684 82.2622V82.242H162.65ZM160.42 78.0734L160.403 78.0437L160.324 78.0889L160.413 78.107L160.42 78.0734ZM160.711 78.1296L160.705 78.1634L160.719 78.166L160.731 78.1574L160.711 78.1296ZM160.877 77.9928L160.901 78.0177L160.921 77.9986L160.906 77.9748L160.877 77.9928ZM160.768 77.8192L160.797 77.8006L160.774 77.7661L160.744 77.7942L160.768 77.8192ZM156.68 82.3114L156.676 82.3454L156.711 82.3498L156.714 82.3149L156.68 82.3114ZM156.694 82.1536L156.728 82.156L156.731 82.1239L156.699 82.1196L156.694 82.1536ZM155.919 82.0672L155.922 82.0331L155.911 82.032L155.901 82.0385L155.919 82.0672ZM155.706 82.2154L155.686 82.1876L155.609 82.2433L155.704 82.2496L155.706 82.2154ZM159.482 77.8501L159.472 77.8171L159.354 77.8511L159.473 77.8832L159.482 77.8501ZM159.844 77.9434L159.835 77.9767L159.846 77.9792L159.856 77.9756L159.844 77.9434ZM160.45 77.367L160.478 77.3462L160.456 77.3172L160.428 77.341L160.45 77.367ZM160.571 77.5297L160.594 77.5554L160.618 77.5347L160.599 77.5095L160.571 77.5297ZM156.706 81.855L156.701 81.8889L156.74 81.8945L156.74 81.8551L156.706 81.855ZM156.704 81.6967L156.738 81.6956L156.737 81.6669L156.708 81.6628L156.704 81.6967ZM156.363 81.8088L156.348 81.7783L156.248 81.8288L156.359 81.8428L156.363 81.8088ZM156.4 81.789L156.388 81.7572L156.386 81.758L156.384 81.759L156.4 81.789ZM156.4 81.789L156.413 81.8209L156.415 81.8201L156.417 81.819L156.4 81.789ZM156.443 81.7661L156.428 81.7354L156.428 81.7354L156.443 81.7661ZM156.55 81.7095L156.537 81.6777L156.535 81.6785L156.533 81.6795L156.55 81.7095ZM156.55 81.7095L156.562 81.7413L156.564 81.7405L156.566 81.7395L156.55 81.7095ZM156.6 81.6817L156.605 81.6478L156.594 81.6462L156.584 81.6516L156.6 81.6817ZM156.536 83.2307L156.533 83.2648L156.566 83.2677L156.57 83.2346L156.536 83.2307ZM156.557 83.068L156.591 83.073L156.597 83.0372L156.561 83.0338L156.557 83.068ZM154.865 83.0176L154.863 82.9833L154.848 82.9841L154.838 82.9962L154.865 83.0176ZM154.72 83.2093L154.692 83.1895L154.649 83.2497L154.723 83.2435L154.72 83.2093ZM158.946 76.2303V76.196H158.903L158.912 76.2378L158.946 76.2303ZM158.987 76.4678L158.953 76.4726L158.959 76.5138L158.998 76.5002L158.987 76.4678ZM158.946 76.2303L158.948 76.1961L158.947 76.196H158.946V76.2303ZM159.293 76.3414L159.308 76.3723L159.372 76.3413L159.308 76.3105L159.293 76.3414ZM159.027 76.8307L159.017 76.798L158.99 76.8062L158.993 76.8337L159.027 76.8307ZM159.652 76.5595L159.672 76.5317L159.654 76.5184L159.634 76.53L159.652 76.5595ZM159.04 77.0328L159.005 77.0345L159.008 77.0775L159.049 77.0658L159.04 77.0328ZM159.822 76.6952L159.841 76.724L159.879 76.699L159.844 76.6692L159.822 76.6952ZM159.046 77.3958L159.038 77.3625L159.012 77.3688L159.012 77.3955L159.046 77.3958ZM160.087 76.9439L160.112 76.9197L160.091 76.8987L160.067 76.9165L160.087 76.9439ZM159.041 77.5962L159.007 77.5946L159.005 77.6391L159.048 77.6297L159.041 77.5962ZM160.227 77.0948L160.248 77.1218L160.276 77.0993L160.252 77.0721L160.227 77.0948ZM160.088 76.9444L160.112 76.9205L160.112 76.9202L160.088 76.9444ZM156.539 83.704C156.54 83.6498 156.542 83.595 156.544 83.5395L156.476 83.536C156.473 83.5923 156.471 83.648 156.47 83.7031L156.539 83.704ZM156.513 83.5036C155.673 83.4414 155.007 83.4661 154.478 83.542L154.488 83.6098C155.011 83.5348 155.672 83.5101 156.508 83.5719L156.513 83.5036ZM154.453 83.5589C154.413 83.6296 154.375 83.7005 154.34 83.7717L154.401 83.8025C154.436 83.7321 154.473 83.6623 154.513 83.593L154.453 83.5589ZM154.377 83.8208C154.908 83.722 155.6 83.6783 156.502 83.7378L156.507 83.6694C155.601 83.6096 154.902 83.6532 154.364 83.7534L154.377 83.8208ZM160.661 83.9949C160.613 84.0512 160.566 84.1068 160.52 84.1615L160.573 84.2055C160.618 84.1509 160.665 84.0956 160.713 84.0396L160.661 83.9949ZM160.545 84.2178C162.038 84.2846 162.924 84.057 163.45 83.775L163.418 83.7145C162.906 83.9887 162.034 84.2158 160.548 84.1493L160.545 84.2178ZM163.463 83.7263C163.427 83.6702 163.391 83.6123 163.354 83.5525L163.296 83.5883C163.332 83.6483 163.369 83.7066 163.405 83.7632L163.463 83.7263ZM163.309 83.5402C162.827 83.7987 162.024 84.015 160.688 83.9831L160.686 84.0516C162.029 84.0837 162.845 83.8666 163.341 83.6006L163.309 83.5402ZM154.204 84.2177C154.743 84.0762 155.485 83.9955 156.51 84.0511L156.514 83.9827C155.484 83.9268 154.734 84.0077 154.187 84.1514L154.204 84.2177ZM154.145 84.4248C154.17 84.3493 154.198 84.2732 154.227 84.1968L154.163 84.1722C154.134 84.2491 154.105 84.3264 154.08 84.4037L154.145 84.4248ZM156.527 84.1523C155.421 84.1003 154.646 84.2088 154.102 84.3816L154.123 84.4469C154.657 84.2772 155.424 84.1691 156.524 84.2208L156.527 84.1523ZM156.56 84.1831C156.554 84.1278 156.549 84.0717 156.546 84.0149L156.478 84.019C156.481 84.0767 156.486 84.1338 156.491 84.19L156.56 84.1831ZM160.279 84.4599C160.237 84.5126 160.197 84.5646 160.159 84.6158L160.213 84.6571C160.252 84.6062 160.292 84.5546 160.333 84.5022L160.279 84.4599ZM160.303 84.5152C162.086 84.6486 163.089 84.3914 163.653 84.0739L163.619 84.0142C163.071 84.3225 162.084 84.5797 160.308 84.4468L160.303 84.5152ZM163.608 84.0642C163.65 84.1218 163.691 84.1777 163.732 84.2311L163.786 84.1894C163.746 84.1368 163.706 84.0816 163.664 84.0239L163.608 84.0642ZM163.742 84.1805C163.175 84.5053 162.125 84.7769 160.189 84.6023L160.183 84.6706C162.126 84.8459 163.192 84.5746 163.776 84.24L163.742 84.1805ZM154.007 84.8711C154.526 84.6523 155.328 84.4909 156.569 84.5376L156.572 84.4691C155.324 84.4221 154.511 84.584 153.98 84.8079L154.007 84.8711ZM153.975 85.0934C153.989 85.0123 154.007 84.9304 154.027 84.8473L153.96 84.8316C153.94 84.9154 153.922 84.9985 153.907 85.081L153.975 85.0934ZM156.607 84.6411C155.267 84.5986 154.438 84.8002 153.925 85.0565L153.956 85.1178C154.455 84.8682 155.272 84.6674 156.605 84.7096L156.607 84.6411ZM156.639 84.6676C156.627 84.6117 156.615 84.5549 156.604 84.4972L156.537 84.5096C156.547 84.5683 156.559 84.6261 156.573 84.6831L156.639 84.6676ZM159.951 84.9015C159.915 84.9523 159.881 85.0024 159.848 85.0516L159.905 85.0898C159.937 85.0409 159.971 84.9913 160.007 84.9408L159.951 84.9015ZM159.975 84.9552C162.241 85.2109 163.408 84.8934 164.008 84.5198L163.972 84.4616C163.39 84.8235 162.241 85.142 159.983 84.8871L159.975 84.9552ZM163.965 84.5135C164.014 84.5683 164.062 84.6196 164.108 84.6676L164.157 84.6198C164.111 84.5724 164.064 84.5219 164.016 84.4678L163.965 84.5135ZM164.114 84.6149C163.526 84.997 162.324 85.3414 159.88 85.0367L159.872 85.1047C162.322 85.4104 163.543 85.0673 164.152 84.6724L164.114 84.6149ZM153.893 85.5668C154.352 85.2681 155.185 84.9911 156.694 85.0297L156.695 84.9612C155.178 84.9224 154.33 85.2004 153.856 85.5093L153.893 85.5668ZM153.886 85.8089C153.891 85.7226 153.898 85.6339 153.909 85.5418L153.84 85.5343C153.83 85.6274 153.822 85.7173 153.817 85.8048L153.886 85.8089ZM156.756 85.1347C155.116 85.0999 154.268 85.4388 153.83 85.7798L153.872 85.8339C154.293 85.5061 155.123 85.1686 156.755 85.2033L156.756 85.1347ZM156.788 85.1569C156.766 85.1006 156.746 85.0432 156.727 84.9849L156.662 85.006C156.681 85.0655 156.702 85.1238 156.723 85.1811L156.788 85.1569ZM159.67 85.3298C159.639 85.3795 159.61 85.4283 159.583 85.4762L159.642 85.5105C159.67 85.463 159.698 85.4147 159.728 85.3654L159.67 85.3298ZM159.694 85.3816C162.533 85.7864 163.829 85.3622 164.42 84.9198L164.379 84.8649C163.809 85.291 162.536 85.7176 159.704 85.3137L159.694 85.3816ZM164.378 84.9185C164.435 84.967 164.491 85.0114 164.544 85.0503L164.585 84.9948C164.533 84.9571 164.478 84.9138 164.422 84.8662L164.378 84.9185ZM164.543 84.996C163.99 85.445 162.684 85.9272 159.618 85.4594L159.607 85.5273C162.68 85.9959 164.011 85.5167 164.586 85.0491L164.543 84.996ZM153.865 86.3076C154.213 85.9439 155.023 85.4887 156.893 85.5247L156.895 85.4562C155.014 85.4199 154.182 85.8773 153.815 86.2602L153.865 86.3076ZM153.885 86.5711C153.879 86.4819 153.876 86.3854 153.874 86.2834L153.806 86.2845C153.808 86.387 153.81 86.4848 153.816 86.5755L153.885 86.5711ZM156.985 85.6302C154.919 85.594 154.125 86.1555 153.823 86.5525L153.878 86.594C154.162 86.2212 154.929 85.6627 156.983 85.6987L156.985 85.6302ZM157.014 85.648C156.983 85.5918 156.953 85.5343 156.925 85.4755L156.863 85.5054C156.892 85.5652 156.922 85.6237 156.954 85.6809L157.014 85.648ZM159.435 85.7506C159.41 85.8 159.386 85.8482 159.364 85.8955L159.426 85.9244C159.448 85.8778 159.471 85.8302 159.496 85.7814L159.435 85.7506ZM159.459 85.7998C163.063 86.4007 164.401 85.7514 164.895 85.2369L164.845 85.1894C164.376 85.6784 163.068 86.3322 159.471 85.7322L159.459 85.7998ZM164.854 85.2436C164.917 85.276 164.981 85.3045 165.047 85.329L165.071 85.2646C165.008 85.2412 164.946 85.2138 164.886 85.1827L164.854 85.2436ZM165.032 85.2754C164.634 85.7727 163.376 86.5579 159.471 85.8879L159.459 85.9555C163.37 86.6264 164.662 85.8465 165.086 85.3183L165.032 85.2754ZM159.471 85.8879C159.447 85.8839 159.424 85.88 159.401 85.8761L159.39 85.9437C159.413 85.9476 159.436 85.9516 159.459 85.9555L159.471 85.8879ZM161.116 83.4892C161.057 83.5514 161.001 83.6129 160.946 83.6735L160.996 83.7196C161.051 83.6592 161.108 83.5981 161.166 83.536L161.116 83.4892ZM161.142 83.5468C162.059 83.501 162.664 83.3206 163.064 83.1085L163.032 83.0479C162.643 83.2541 162.048 83.4328 161.139 83.4783L161.142 83.5468ZM163.017 83.0941C163.05 83.1561 163.083 83.2164 163.115 83.2745L163.175 83.2412C163.143 83.1835 163.11 83.1237 163.078 83.0624L163.017 83.0941ZM163.129 83.2275C162.702 83.452 162.029 83.6423 160.97 83.6623L160.972 83.7309C162.038 83.7108 162.722 83.5191 163.161 83.2882L163.129 83.2275ZM156.645 82.7754C156.655 82.7215 156.665 82.6682 156.674 82.6153L156.606 82.6041C156.597 82.6563 156.588 82.7089 156.577 82.7621L156.645 82.7754ZM155.337 82.5485C155.724 82.5577 156.155 82.5879 156.636 82.6438L156.644 82.5757C156.161 82.5195 155.728 82.4892 155.338 82.4799L155.337 82.5485ZM155.182 82.7096C155.239 82.6521 155.298 82.5956 155.36 82.5396L155.314 82.4888C155.252 82.5453 155.191 82.6027 155.133 82.6613L155.182 82.7096ZM156.615 82.7347C156.066 82.6754 155.583 82.6502 155.157 82.6512L155.157 82.7198C155.58 82.7187 156.061 82.7438 156.607 82.8028L156.615 82.7347ZM161.69 82.8997C161.613 82.9754 161.539 83.0501 161.466 83.1236L161.515 83.1717C161.588 83.0983 161.662 83.0239 161.738 82.9485L161.69 82.8997ZM162.87 82.7252C162.559 82.8904 162.117 83.0379 161.487 83.1136L161.495 83.1817C162.131 83.1052 162.582 82.9557 162.902 82.7858L162.87 82.7252ZM162.766 82.5846C162.796 82.6491 162.825 82.7101 162.855 82.7706L162.917 82.7404C162.887 82.6799 162.858 82.6196 162.828 82.556L162.766 82.5846ZM161.72 82.9579C162.197 82.8728 162.551 82.7435 162.814 82.6004L162.781 82.5402C162.525 82.6792 162.179 82.8064 161.708 82.8904L161.72 82.9579ZM162.552 82.0421C162.438 82.1615 162.318 82.2838 162.192 82.409L162.24 82.4576C162.367 82.332 162.487 82.2093 162.601 82.0895L162.552 82.0421ZM162.681 82.228C162.657 82.1711 162.633 82.1121 162.608 82.0528L162.545 82.0788C162.569 82.1381 162.594 82.1976 162.618 82.255L162.681 82.228ZM162.684 82.242V82.2415H162.616V82.242H162.684ZM162.228 82.4657C162.397 82.4063 162.542 82.3407 162.667 82.272L162.633 82.212C162.513 82.2787 162.371 82.3428 162.205 82.401L162.228 82.4657ZM160.413 78.107C160.512 78.1274 160.61 78.1461 160.705 78.1634L160.717 78.0959C160.623 78.0788 160.526 78.0601 160.427 78.0398L160.413 78.107ZM160.854 77.9678C160.807 78.012 160.753 78.057 160.691 78.1019L160.731 78.1574C160.795 78.1108 160.852 78.064 160.901 78.0177L160.854 77.9678ZM160.739 77.8378C160.775 77.8936 160.811 77.9512 160.848 78.0107L160.906 77.9748C160.87 77.9149 160.833 77.8568 160.797 77.8006L160.739 77.8378ZM160.437 78.1031C160.584 78.0187 160.7 77.9303 160.791 77.8442L160.744 77.7942C160.657 77.8766 160.545 77.9618 160.403 78.0437L160.437 78.1031ZM156.714 82.3149C156.72 82.2614 156.725 82.2084 156.728 82.156L156.66 82.1512C156.656 82.2028 156.652 82.255 156.646 82.3078L156.714 82.3149ZM156.699 82.1196C156.426 82.0832 156.167 82.0547 155.922 82.0331L155.916 82.1014C156.16 82.123 156.418 82.1513 156.69 82.1876L156.699 82.1196ZM155.901 82.0385C155.826 82.0871 155.755 82.1372 155.686 82.1876L155.726 82.2431C155.795 82.193 155.865 82.1436 155.938 82.0959L155.901 82.0385ZM155.704 82.2496C156.004 82.2695 156.328 82.3008 156.676 82.3454L156.685 82.2773C156.335 82.2326 156.01 82.2012 155.708 82.1811L155.704 82.2496ZM159.473 77.8832C159.597 77.9165 159.717 77.9477 159.835 77.9767L159.852 77.9101C159.734 77.8812 159.614 77.8502 159.491 77.817L159.473 77.8832ZM160.428 77.341C160.232 77.5095 159.931 77.6858 159.472 77.8171L159.491 77.883C159.958 77.7494 160.268 77.5688 160.473 77.393L160.428 77.341ZM160.599 77.5095C160.558 77.4531 160.518 77.3987 160.478 77.3462L160.423 77.3877C160.463 77.4398 160.503 77.4939 160.544 77.5499L160.599 77.5095ZM159.856 77.9756C160.193 77.851 160.429 77.7011 160.594 77.5554L160.549 77.504C160.391 77.6436 160.162 77.7893 159.832 77.9113L159.856 77.9756ZM156.74 81.8551C156.74 81.8014 156.739 81.7482 156.738 81.6956L156.669 81.6978C156.671 81.7495 156.672 81.8019 156.671 81.8548L156.74 81.8551ZM156.711 81.821C156.594 81.8043 156.479 81.789 156.368 81.7748L156.359 81.8428C156.47 81.8569 156.584 81.8723 156.701 81.8889L156.711 81.821ZM156.379 81.8394C156.392 81.8327 156.405 81.8257 156.417 81.8191L156.384 81.759C156.371 81.7658 156.36 81.7722 156.348 81.7783L156.379 81.8394ZM156.413 81.8209H156.413L156.388 81.7572L156.388 81.7572L156.413 81.8209ZM156.413 81.8209L156.388 81.7572L156.413 81.8209ZM156.413 81.8209H156.413L156.388 81.7572H156.388L156.413 81.8209ZM156.417 81.819C156.431 81.8112 156.444 81.8038 156.459 81.7968L156.428 81.7354C156.412 81.7432 156.398 81.7513 156.384 81.759L156.417 81.819ZM156.458 81.7969C156.496 81.7786 156.532 81.7588 156.566 81.7395L156.533 81.6795C156.498 81.6989 156.464 81.7179 156.428 81.7354L156.458 81.7969ZM156.562 81.7413L156.537 81.6777L156.562 81.7413ZM156.562 81.7413L156.562 81.7413L156.537 81.6777H156.537L156.562 81.7413ZM156.562 81.7413L156.537 81.6776L156.537 81.6777L156.562 81.7413ZM156.566 81.7395C156.583 81.7302 156.6 81.7209 156.617 81.7119L156.584 81.6516C156.567 81.6608 156.55 81.6702 156.533 81.6795L156.566 81.7395ZM156.595 81.7157C156.63 81.7206 156.664 81.7255 156.699 81.7306L156.708 81.6628C156.674 81.6577 156.639 81.6527 156.605 81.6478L156.595 81.7157ZM156.57 83.2346C156.576 83.1813 156.583 83.1274 156.591 83.073L156.524 83.0629C156.515 83.118 156.508 83.1727 156.502 83.2267L156.57 83.2346ZM154.867 83.0518C155.339 83.0276 155.896 83.0393 156.554 83.102L156.561 83.0338C155.9 82.9708 155.339 82.959 154.863 82.9833L154.867 83.0518ZM154.748 83.2292C154.793 83.1653 154.841 83.102 154.892 83.039L154.838 82.9962C154.787 83.0601 154.738 83.1245 154.692 83.1895L154.748 83.2292ZM156.539 83.1965C155.815 83.1338 155.215 83.1335 154.717 83.1752L154.723 83.2435C155.216 83.2022 155.813 83.2024 156.533 83.2648L156.539 83.1965ZM158.946 76.2303C158.912 76.2378 158.912 76.2378 158.912 76.2378V76.2378C158.912 76.2378 158.912 76.2378 158.912 76.2378C158.912 76.2378 158.912 76.2378 158.912 76.2379C158.912 76.2379 158.912 76.2379 158.912 76.238C158.912 76.2382 158.912 76.2384 158.912 76.2387C158.913 76.2393 158.913 76.2403 158.913 76.2416C158.914 76.2441 158.914 76.248 158.916 76.2532C158.918 76.2634 158.921 76.2788 158.924 76.2988C158.932 76.3389 158.942 76.3978 158.953 76.4726L159.021 76.4629C159.01 76.387 159 76.3272 158.992 76.2862C158.988 76.2657 158.985 76.25 158.983 76.2393C158.982 76.2339 158.981 76.2298 158.98 76.2271C158.98 76.2257 158.98 76.2246 158.979 76.2239C158.979 76.2236 158.979 76.2233 158.979 76.2231C158.979 76.223 158.979 76.2229 158.979 76.2229C158.979 76.2228 158.979 76.2228 158.979 76.2228C158.979 76.2228 158.979 76.2228 158.979 76.2228C158.979 76.2228 158.979 76.2228 158.979 76.2228C158.979 76.2228 158.979 76.2228 158.946 76.2303ZM158.946 76.196H158.946V76.2646H158.946V76.196ZM159.308 76.3105C159.197 76.2574 159.108 76.2288 159.046 76.2135C159.015 76.2059 158.991 76.2015 158.975 76.1991C158.966 76.1979 158.96 76.1971 158.955 76.1967C158.953 76.1965 158.951 76.1963 158.95 76.1962C158.949 76.1962 158.949 76.1961 158.949 76.1961C158.948 76.1961 158.948 76.1961 158.948 76.1961C158.948 76.1961 158.948 76.1961 158.948 76.1961C158.948 76.1961 158.948 76.1961 158.948 76.1961C158.948 76.1961 158.948 76.1961 158.948 76.1961C158.948 76.1961 158.948 76.1961 158.946 76.2303C158.944 76.2645 158.944 76.2645 158.944 76.2645C158.944 76.2645 158.944 76.2645 158.944 76.2645C158.944 76.2645 158.944 76.2645 158.944 76.2645C158.944 76.2645 158.944 76.2645 158.944 76.2645C158.944 76.2645 158.944 76.2645 158.944 76.2645C158.944 76.2645 158.944 76.2646 158.945 76.2646C158.946 76.2646 158.947 76.2647 158.949 76.2649C158.952 76.2653 158.957 76.2659 158.965 76.2669C158.979 76.2691 159.001 76.273 159.03 76.2801C159.087 76.2943 159.172 76.3213 159.278 76.3723L159.308 76.3105ZM158.998 76.5002C159.104 76.4635 159.207 76.4208 159.308 76.3723L159.278 76.3105C159.18 76.3579 159.079 76.3996 158.976 76.4354L158.998 76.5002ZM159.037 76.8635C159.296 76.7831 159.503 76.6883 159.669 76.5889L159.634 76.53C159.473 76.6264 159.271 76.7191 159.017 76.798L159.037 76.8635ZM159.074 77.0311C159.07 76.9597 159.067 76.892 159.061 76.8278L158.993 76.8337C158.998 76.8966 159.002 76.9633 159.005 77.0345L159.074 77.0311ZM159.803 76.6665C159.616 76.7883 159.364 76.9058 159.03 76.9998L159.049 77.0658C159.389 76.9702 159.646 76.85 159.841 76.724L159.803 76.6665ZM159.632 76.5872C159.685 76.6261 159.741 76.6713 159.8 76.7213L159.844 76.6692C159.785 76.6185 159.728 76.572 159.672 76.5317L159.632 76.5872ZM159.055 77.4291C159.544 77.3106 159.879 77.1427 160.108 76.9714L160.067 76.9165C159.846 77.0814 159.52 77.2457 159.038 77.3625L159.055 77.4291ZM159.075 77.5977C159.078 77.5287 159.08 77.4616 159.081 77.3962L159.012 77.3955C159.011 77.4602 159.01 77.5266 159.007 77.5946L159.075 77.5977ZM160.205 77.0678C159.969 77.2529 159.601 77.4396 159.034 77.5626L159.048 77.6297C159.624 77.5048 160.002 77.3145 160.248 77.1218L160.205 77.0678ZM160.063 76.9682C160.107 77.0141 160.154 77.0644 160.201 77.1176L160.252 77.0721C160.205 77.0183 160.158 76.9673 160.112 76.9206L160.063 76.9682ZM160.063 76.9681L160.063 76.9686L160.112 76.9202L160.112 76.9197L160.063 76.9681Z" fill="#F41E3D"/>
<path d="M159.095 87.3626C159.069 87.3484 159.043 87.3335 159.017 87.3177C158.715 87.14 158.321 86.8674 157.949 86.4877C157.211 85.7322 156.561 84.5537 156.91 82.8328C157.287 80.9767 156.58 79.6878 155.78 78.8703C155.382 78.4634 154.962 78.1731 154.641 77.9845C154.532 77.9202 154.434 77.8675 154.352 77.826C154.352 77.8259 154.352 77.8258 154.352 77.8257C154.503 77.7332 154.752 77.6155 155.134 77.5326C155.898 77.3667 157.2 77.3395 159.307 77.9414C161.451 78.5537 162.812 78.5371 163.648 78.3558C164.066 78.265 164.352 78.1332 164.536 78.0196C164.579 77.9936 164.615 77.9686 164.647 77.9454C164.655 77.9612 164.662 77.9786 164.669 77.9976C164.721 78.1382 164.765 78.3758 164.692 78.7364C164.544 79.4645 163.921 80.6902 161.95 82.5883C159.961 84.5035 159.278 85.7888 159.11 86.6185C159.047 86.9269 159.055 87.1726 159.095 87.3626Z" stroke="#F41E3D"/>
<path d="M196.724 48.5931V49.9614H196V46.0607H197.173C197.528 46.0607 197.799 46.1766 197.985 46.4083C198.172 46.6363 198.265 46.9453 198.265 47.3352C198.265 47.5779 198.222 47.7949 198.138 47.9862C198.056 48.1738 197.933 48.3228 197.77 48.4331C197.606 48.5398 197.407 48.5931 197.173 48.5931H196.724ZM197.092 47.8372C197.383 47.8372 197.528 47.6699 197.528 47.3352C197.528 46.9931 197.383 46.8221 197.092 46.8221H196.724V47.8372H197.092Z" fill="black"/>
<path d="M200.475 49.2497H199.353L199.167 49.9614H198.405L199.502 46.0883H200.335L201.432 49.9614H200.661L200.475 49.2497ZM200.289 48.5324L199.916 47.0979L199.54 48.5324H200.289Z" fill="black"/>
<path d="M203.25 49.9614L202.602 48.4883H202.437V49.9614H201.713V46.0607H202.949C203.186 46.0607 203.387 46.114 203.55 46.2207C203.714 46.3274 203.837 46.4745 203.919 46.6621C204.001 46.846 204.042 47.0575 204.042 47.2966C204.042 47.5798 203.981 47.8207 203.86 48.0193C203.741 48.2179 203.567 48.354 203.339 48.4276L204.05 49.9614H203.25ZM202.437 47.8428H202.886C203.03 47.8428 203.136 47.8023 203.203 47.7214C203.271 47.6368 203.305 47.5136 203.305 47.3517C203.305 47.1972 203.27 47.0759 203.199 46.9876C203.131 46.8993 203.027 46.8552 202.886 46.8552H202.437V47.8428Z" fill="black"/>
<path d="M207.097 48.0028C207.097 48.3853 207.033 48.7255 206.906 49.0234C206.782 49.3177 206.602 49.5476 206.365 49.7131C206.13 49.8786 205.854 49.9614 205.535 49.9614H204.405V46.0607H205.535C205.857 46.0607 206.135 46.1416 206.369 46.3034C206.603 46.4653 206.782 46.6933 206.906 46.9876C207.033 47.2818 207.097 47.6202 207.097 48.0028ZM205.471 49.1172C205.754 49.1172 205.972 49.0198 206.127 48.8248C206.286 48.6299 206.365 48.3559 206.365 48.0028C206.365 47.6497 206.286 47.3756 206.127 47.1807C205.972 46.9857 205.754 46.8883 205.471 46.8883H205.128V49.1172H205.471Z" fill="black"/>
<path d="M208.932 46C209.214 46 209.469 46.0864 209.698 46.2593C209.929 46.4285 210.111 46.6657 210.244 46.971C210.377 47.2726 210.443 47.6147 210.443 47.9972C210.443 48.3798 210.375 48.7237 210.24 49.029C210.107 49.3343 209.925 49.5733 209.694 49.7462C209.465 49.9154 209.211 50 208.932 50C208.652 50 208.397 49.9154 208.165 49.7462C207.937 49.5733 207.755 49.3343 207.619 49.029C207.487 48.7237 207.42 48.3798 207.42 47.9972C207.42 47.6147 207.487 47.2726 207.619 46.971C207.755 46.6657 207.937 46.4285 208.165 46.2593C208.397 46.0864 208.652 46 208.932 46ZM208.932 46.8772C208.695 46.8772 208.505 46.9784 208.364 47.1807C208.226 47.3793 208.157 47.6515 208.157 47.9972C208.157 48.3393 208.226 48.6115 208.364 48.8138C208.505 49.0161 208.695 49.1172 208.932 49.1172C209.166 49.1172 209.353 49.0161 209.495 48.8138C209.636 48.6115 209.706 48.3393 209.706 47.9972C209.706 47.6552 209.636 47.383 209.495 47.1807C209.356 46.9784 209.169 46.8772 208.932 46.8772Z" fill="black"/>
<path d="M213 46.0607V46.811H212.187V49.9614H211.459V46.811H210.655V46.0607H213Z" fill="black"/>
<path d="M53.123 157.693L54.0433 166.436L60.0312 163.434L58.0001 157.371L53.123 157.693Z" fill="#FFC3D3"/>
<path d="M58.664 161.411L58.0001 157.371L53.123 157.693L53.2939 159.348L58.664 161.411Z" fill="#FFB1C1"/>
<path d="M50.1257 152.346C49.9933 154.06 50.5477 155.757 51.667 157.063C52.7862 158.368 54.3786 159.176 56.0939 159.309C59.663 159.578 64.2574 155.933 63.2583 152.372C62.2855 148.924 60.662 146.658 57.093 146.382C56.2434 146.315 55.3892 146.417 54.579 146.681C53.7689 146.945 53.0188 147.366 52.3716 147.92C51.7245 148.474 51.193 149.15 50.8076 149.91C50.4222 150.669 50.1905 151.497 50.1257 152.346Z" fill="#FFC3D3"/>
<path d="M49.1331 149.725C48.3821 148.504 47.3305 147.495 46.0785 146.796C44.8266 146.096 43.4161 145.729 41.9817 145.729C40.5474 145.729 39.1369 146.096 37.885 146.796C36.633 147.495 35.5814 148.504 34.8304 149.725C33.7065 151.558 32.5234 155.959 37.7488 161.667C41.1667 165.411 40.0822 169.254 36.9732 170.594C38.1647 171.031 39.4592 171.107 40.6935 170.81C44.1508 169.983 46.7668 166.974 45.4522 163.059C42.501 154.258 44.6964 150.783 49.1331 149.725Z" fill="#1D3D4C"/>
<path d="M49.1332 149.725C49.0462 149.302 48.8561 148.907 48.5798 148.574C48.3035 148.242 47.9495 147.983 47.5491 147.82C47.0693 148.293 46.8918 149.666 47.1613 150.448C47.7963 150.15 48.4561 149.908 49.1332 149.725Z" fill="#FFDF61"/>
<path d="M55.6994 142.092C55.6994 142.092 53.4777 142.092 50.5199 144.293C48.7255 145.561 47.3321 147.689 48.0945 151.604C48.0945 151.604 49.0279 155.735 52.3998 157.89L53.6486 156.576C53.6486 156.576 51.8016 155.019 51.9265 153.259C51.9265 153.259 51.9857 151.656 53.2411 151.538C53.4616 151.511 53.6854 151.532 53.8967 151.601C54.108 151.67 54.3017 151.784 54.4641 151.935C54.6264 152.087 54.7535 152.272 54.8363 152.478C54.9192 152.684 54.9557 152.906 54.9435 153.128C54.9435 153.128 55.4299 152.793 55.0881 151.21C54.8777 150.257 53.7341 148.812 54.6608 148.228C54.7594 148.162 56.429 147.006 57.8356 147.032C58.4916 147.007 59.1455 147.121 59.7547 147.365C60.3639 147.61 60.9149 147.98 61.3718 148.451C61.3718 148.451 63.7577 141.337 55.6994 142.092Z" fill="#1D3D4C"/>
<path d="M62.2197 150.763L63.6395 150.192L63.0085 153.785L60.8657 153.272L62.2197 150.763Z" fill="#FFC3D3"/>
<path d="M63.9285 169.47L101.282 136.457L96.8258 125.461C96.8258 125.461 95.9713 132.377 96.9638 135.182L58.4072 163.723L63.9285 169.47Z" fill="#FFB1C1"/>
<path d="M94.9985 136.627L58.4072 163.723L63.9285 169.484L97.8249 139.57C97.6277 138.88 95.7216 136.746 94.9985 136.627Z" fill="#0082AF"/>
<path d="M0.703932 225.435C0.703932 225.435 15.5127 201.066 40.7986 175.77C57.7633 158.81 79.1318 139.642 94.6241 129.894C94.6241 129.894 92.9348 121.23 94.0391 118.623L98.6401 130.085L63.1465 165.812C63.1465 165.812 49.3434 183.14 44.3743 189.242C44.3743 189.242 60.9182 191.672 55.4956 225.915L61.6873 227.747L52.0251 228.155C52.0251 228.155 53.0571 196.481 36.0135 196.021L5.65332 223.786L13.4159 228.155H1.44667C1.44667 228.155 -1.23507 227.964 0.703932 225.435Z" fill="#FFD4E3"/>
<path d="M44.4006 189.242C46.2326 187.085 48.2422 185.086 50.4082 183.265C46.7339 181.255 42.9874 179.363 39.3723 177.235C14.9474 201.998 0.703932 225.435 0.703932 225.435C-1.23507 227.964 1.44667 228.155 1.44667 228.155H13.4159L5.65332 223.786L36.0398 196.021C53.0834 196.481 52.0514 228.155 52.0514 228.155L61.7136 227.747L55.5219 225.915C60.9445 191.672 44.4006 189.242 44.4006 189.242Z" fill="#FFACAC"/>
<path d="M49.1726 184.355C49.5801 183.981 49.9942 183.619 50.4083 183.258C46.734 181.248 42.9875 179.356 39.3724 177.228L38.209 178.417C42.1987 179.704 45.6692 182.069 49.1726 184.355Z" fill="#FFACAC"/>
<path d="M61.7136 227.747L55.5219 225.915C60.9445 191.672 44.4006 189.242 44.4006 189.242C45.7954 187.58 47.3089 186.021 48.9293 184.578C45.4259 182.286 41.9554 179.947 37.9525 178.667C14.3953 202.905 0.703932 225.435 0.703932 225.435C-1.23507 227.964 1.44667 228.154 1.44667 228.154H13.4159L5.65332 223.786L36.0398 196.021C53.0834 196.481 52.0514 228.154 52.0514 228.154L61.7136 227.747Z" fill="#1D3D4C"/>
<path d="M95.7219 133.08C94.9139 132.28 94.0459 131.542 93.1256 130.873C81.393 138.519 66.6303 151.118 52.9981 163.959C48.7914 167.901 37.348 178.496 35.1132 180.565C32.6484 182.844 48.0881 190.076 51.7821 190.076C54.9174 185.275 65.0725 168.472 65.0725 168.472L95.7219 133.08Z" fill="#00A4E2"/>
<path d="M93.9272 168.919L100.572 174.686L102.899 168.406L96.0503 165.95L93.9272 168.919Z" fill="#FFC3D3"/>
<path d="M96.6353 166.16L96.0503 165.95L93.9272 168.919L96.6353 171.27V166.16Z" fill="#FFB1C1"/>
<path d="M104.812 188.079V188.145H116.748C116.936 184.712 116.403 181.277 115.185 178.061C113.967 174.846 112.091 171.919 109.676 169.47L112.745 162.593L111.372 153.85C111.372 153.85 102.906 164.202 102.17 166.101L99.4221 166.758L98.0747 173.727C98.0747 173.727 104.897 180.381 104.812 188.079Z" fill="#FFC3D3"/>
<path d="M111.004 191.193C108.657 191.541 104.174 189.984 101.848 189.643C100.914 191.029 98.824 193.328 94.2361 197.019C94.2361 197.019 74.8132 218.919 72.0854 228.155H79.848L77.1203 225.599L95.7216 208.777L103.898 200.849C103.898 200.849 101.177 210.17 102.741 213.388L109.597 226.263L106.212 228.155H115.46L110.668 210.669C110.668 210.669 116.098 198.694 117.853 192.599C118.03 191.841 118.16 191.073 118.24 190.3C118.313 189.616 114.632 190.661 111.004 191.193Z" fill="#1D3D4C"/>
<path d="M98.6993 191.41C98.6993 191.41 102.084 194.418 108.493 194.411C115.414 194.411 118.648 190.076 118.648 190.076C118.694 185.327 115.677 175.474 109.676 169.484L112.023 164.229C111.674 163.743 111.306 163.27 110.918 162.816C109.827 161.503 108.368 160.143 106.652 159.801C104.543 162.429 102.525 165.214 102.163 166.134C101.518 165.978 100.851 165.934 100.191 166.002C99.4765 166.179 98.7775 166.414 98.1011 166.705C98.1011 166.705 98.7584 166.876 100.073 169.28C100.796 170.541 100.461 171.448 99.7969 172.026C98.4824 173.149 96.7603 171.421 96.7603 171.421C96.7603 171.421 100.02 181.951 98.6993 191.41Z" fill="#00A4E2"/>
<path d="M111.372 153.863C111.372 153.863 110.544 162.567 115.5 173.044C115.994 174.206 116.417 175.397 116.768 176.611C117.833 181.005 120.127 183.048 120.127 183.048C120.127 183.048 120.732 180.079 120.561 179.107C120.324 177.76 118.155 174.2 118.155 174.2L116.768 160.34C116.874 158.553 116.874 156.761 116.768 154.973C116.564 153.653 113.929 151.308 111.372 153.863Z" fill="#FFD4E3"/>
<path d="M91.2718 160.406C94.624 161.246 96.5893 164.912 95.6691 168.577C94.7489 172.242 91.1601 173.793 87.591 172.045C84.4755 170.515 82.6022 169.195 83.5224 165.523C84.4426 161.851 87.9197 159.558 91.2718 160.406Z" fill="#FFC3D3"/>
<path d="M86.0005 165.424C85.1724 167.047 84.1207 170.482 80.2756 169.135C79.8632 169.006 79.4974 168.76 79.223 168.426C78.9487 168.093 78.7777 167.686 78.7309 167.257C78.3234 165.536 79.2305 163.316 80.9657 161.056C82.701 158.796 85.8888 154.842 91.8373 158.225C91.8373 158.225 94.4664 159.486 95.4655 163.592L94.0721 165.562C94.0721 165.562 93.934 163.145 92.1594 162.698C92.1594 162.698 90.5293 162.212 89.9903 163.44C89.8885 163.652 89.8344 163.883 89.8318 164.118C89.8293 164.353 89.8783 164.585 89.9755 164.799C90.0727 165.012 90.2156 165.202 90.3942 165.354C90.5728 165.507 90.7827 165.618 91.0091 165.68C90.7125 165.995 90.3093 166.188 89.8779 166.222C89.4466 166.256 89.018 166.129 88.6757 165.864C87.6306 165.214 86.9865 163.486 86.0005 165.424Z" fill="#1D3D4C"/>
<path d="M86.671 171.27L86.4541 172.965L88.9124 172.216L86.671 171.27Z" fill="#FFC3D3"/>
</svg>
