<svg width="300" height="237" viewBox="0 0 300 237" fill="none" xmlns="http://www.w3.org/2000/svg">
<path d="M219.325 125.029C219.331 146.614 212.932 167.716 200.936 185.666C188.94 203.616 171.886 217.607 151.932 225.871C131.978 234.134 110.02 236.297 88.836 232.088C67.6516 227.878 48.1922 217.484 32.9193 202.221C17.6464 186.959 7.24604 167.512 3.03374 146.341C-1.17857 125.171 0.986415 103.227 9.25485 83.286C17.5233 63.3452 31.5237 46.3028 49.4853 34.3145C67.4469 22.3262 88.5627 15.9306 110.162 15.9366C139.114 15.9366 166.88 27.4303 187.352 47.8891C207.824 68.3479 219.325 96.0961 219.325 125.029Z" fill="#FAF3C8"/>
<path d="M188.249 26.8719H156.977V68.3032H188.249V26.8719Z" fill="#FFD817"/>
<path d="M160.496 34.1755H166.604" stroke="#FFA200" stroke-width="0.879" stroke-miterlimit="10"/>
<path d="M160.496 40.2839H183.535" stroke="#FFA200" stroke-width="0.879" stroke-miterlimit="10"/>
<path d="M160.496 46.3925H183.535" stroke="#FFA200" stroke-width="0.879" stroke-miterlimit="10"/>
<path d="M160.496 52.5009H183.535" stroke="#FFA200" stroke-width="0.879" stroke-miterlimit="10"/>
<path d="M160.496 58.6094H183.535" stroke="#FFA200" stroke-width="0.879" stroke-miterlimit="10"/>
<path d="M17.7942 90.706C17.7942 90.706 22.1763 77.5595 23.9026 72.5798C25.6289 67.6 26.8241 57.375 20.8484 56.2463C14.8727 55.1175 12.4825 63.5499 12.4825 71.451C12.5489 79.2858 17.7942 90.706 17.7942 90.706Z" fill="#FF7700"/>
<path d="M16.7982 111.82C16.7982 111.82 12.4825 86.5893 4.5149 89.2452C-3.38626 91.9674 4.11652 109.629 16.7982 111.82Z" fill="#FF7700"/>
<path d="M20.7156 103.321C20.7156 103.321 19.9852 94.756 23.7698 87.2532C27.5544 79.7504 32.3349 80.5472 33.3309 83.9334C35.4556 91.4362 23.637 98.4742 20.7156 103.321Z" fill="#FF7700"/>
<path d="M22.7739 124.302C22.7739 124.302 22.5083 116.866 25.1642 107.969C27.82 99.0054 34.858 96.1504 38.5098 100.4C40.4353 102.657 37.9122 112.417 31.6046 116.866C26.4257 120.584 22.7739 124.302 22.7739 124.302Z" fill="#FF7700"/>
<path d="M20.8484 130.876C20.8484 130.876 16.2671 118.991 9.82664 116.003C3.3862 113.081 1.6599 117.663 3.25341 122.377C4.91331 127.091 11.221 131.407 20.8484 130.876Z" fill="#FF7700"/>
<path d="M20.2508 56.9102C20.2508 56.9102 12.1505 95.42 25.0978 140.769" stroke="#995417" stroke-width="1.0223" stroke-miterlimit="10"/>
<path d="M33.7957 101.993C33.5965 102.192 24.2346 116.999 21.9107 127.622" stroke="#995417" stroke-width="1.0223" stroke-miterlimit="10"/>
<path d="M5.64365 118.127C5.64365 118.127 8.83067 124.568 22.9067 132.004" stroke="#995417" stroke-width="1.0223" stroke-miterlimit="10"/>
<path d="M3.91736 92.2329C4.9797 99.2709 8.16672 106.707 19.4541 113.214" stroke="#995417" stroke-width="1.0223" stroke-miterlimit="10"/>
<path d="M30.7415 83.3358C30.7415 83.3358 23.6371 91.3034 18.9893 109.297" stroke="#995417" stroke-width="1.0223" stroke-miterlimit="10"/>
<path d="M290.085 133.797C290.085 133.797 288.957 125.099 288.492 121.846C288.027 118.592 288.492 112.086 292.343 112.086C296.194 112.086 296.659 117.596 295.729 122.51C294.733 127.357 290.085 133.797 290.085 133.797Z" fill="#FF7700"/>
<path d="M288.226 146.944C288.226 146.944 293.936 131.805 298.518 134.461C303.099 137.051 296.327 147.076 288.226 146.944Z" fill="#FF7700"/>
<path d="M286.832 141.234C286.832 141.234 288.293 135.988 286.832 130.942C285.371 125.83 282.317 125.763 281.321 127.755C279.13 132.071 285.57 137.847 286.832 141.234Z" fill="#FF7700"/>
<path d="M292.608 112.55C292.608 112.55 293.007 137.383 279.661 163.875" stroke="#995417" stroke-width="1.0223" stroke-miterlimit="10"/>
<path d="M298.518 136.32C297.057 140.57 294.136 144.753 286.434 147.475" stroke="#995417" stroke-width="1.0223" stroke-miterlimit="10"/>
<path d="M282.981 127.689C282.981 127.689 286.434 133.465 287.164 145.151" stroke="#995417" stroke-width="1.0223" stroke-miterlimit="10"/>
<path d="M245.865 94.1587C252.505 94.1587 273.818 94.1587 278.134 94.1587C282.516 94.1587 286.301 94.6234 286.566 92.5651C286.832 90.5069 283.711 90.1085 282.45 88.3158C281.188 86.5895 281.587 80.4146 276.209 80.4146C270.83 80.4146 269.436 84.7304 267.378 83.9336C265.32 83.1369 264.124 73.8414 258.879 73.9742C253.634 74.107 250.513 86.1911 247.725 85.1952C244.936 84.1992 239.624 84.5976 239.027 88.1166C238.429 91.6356 228.27 89.9093 227.938 92.6315C227.739 95.4202 238.031 94.1587 245.865 94.1587Z" fill="#A6B1ED"/>
<path d="M236.902 107.438C238.827 107.77 240.487 108.301 241.882 109.098C243.342 109.828 244.538 110.691 245.467 111.621C246.463 112.55 247.193 113.613 247.658 114.609C248.189 115.671 248.455 116.667 248.521 117.596C248.588 118.061 248.388 118.46 248.057 118.725C247.725 118.991 247.326 119.124 246.928 119.124H243.01C242.346 119.124 241.882 118.991 241.55 118.725C241.218 118.46 240.886 118.128 240.62 117.729C240.023 116.8 239.159 115.936 237.964 115.206C236.769 114.476 235.043 114.144 232.719 114.144C231.723 114.144 230.727 114.277 229.864 114.476C228.934 114.675 228.138 115.007 227.474 115.405C226.81 115.804 226.279 116.268 225.88 116.866C225.482 117.464 225.283 118.061 225.283 118.792C225.283 119.655 225.482 120.385 225.947 120.916C226.345 121.447 227.075 121.979 228.005 122.377C228.934 122.775 230.196 123.174 231.657 123.506C233.184 123.838 234.976 124.236 237.101 124.701C239.425 125.166 241.417 125.763 243.01 126.427C244.604 127.091 245.932 127.888 246.994 128.817C247.99 129.747 248.787 130.809 249.185 132.071C249.65 133.266 249.849 134.66 249.849 136.254C249.849 137.714 249.584 139.109 248.986 140.437C248.388 141.765 247.592 142.893 246.463 143.956C245.334 145.018 244.006 145.881 242.413 146.545C240.819 147.209 239.027 147.74 236.968 148.006V151.923C236.968 152.322 236.836 152.72 236.504 152.986C236.172 153.318 235.84 153.45 235.375 153.45H230.661C230.262 153.45 229.864 153.318 229.532 152.986C229.2 152.654 229.067 152.322 229.067 151.923V148.006C227.341 147.74 225.681 147.276 224.154 146.678C222.627 146.014 221.299 145.284 220.104 144.354C218.975 143.425 218.045 142.362 217.315 141.167C216.585 139.972 216.253 138.644 216.12 137.183C216.054 136.719 216.253 136.32 216.585 136.055C216.917 135.789 217.315 135.656 217.713 135.656H221.764C222.428 135.656 222.959 135.789 223.291 135.988C223.623 136.187 223.955 136.586 224.154 137.051C224.419 137.515 224.751 138.046 225.15 138.511C225.548 138.976 226.079 139.441 226.743 139.839C227.407 140.238 228.204 140.57 229.2 140.769C230.196 141.034 231.391 141.167 232.918 141.167C234.113 141.167 235.176 141.101 236.304 140.902C237.367 140.702 238.363 140.437 239.159 140.038C239.956 139.64 240.62 139.109 241.151 138.578C241.682 137.98 241.882 137.25 241.882 136.387C241.882 135.523 241.616 134.859 241.085 134.328C240.554 133.797 239.691 133.332 238.628 132.934C237.5 132.536 236.172 132.204 234.512 131.872C232.852 131.54 230.993 131.075 228.868 130.544C226.943 130.079 225.216 129.548 223.755 128.884C222.295 128.22 221.1 127.489 220.17 126.56C219.241 125.63 218.51 124.568 218.045 123.306C217.581 122.045 217.315 120.584 217.315 118.858C217.315 117.397 217.581 116.003 218.178 114.741C218.776 113.48 219.573 112.351 220.568 111.355C221.564 110.359 222.826 109.496 224.287 108.832C225.747 108.168 227.274 107.703 229.001 107.371V103.454C229.001 103.056 229.134 102.657 229.466 102.392C229.798 102.06 230.13 101.927 230.594 101.927H235.308C235.707 101.927 236.105 102.06 236.437 102.392C236.769 102.724 236.902 103.056 236.902 103.454V107.438Z" fill="#FFEB8A"/>
<path d="M197.595 214.867H290.351C290.351 214.867 295.463 214.137 292.542 208.891C289.687 203.58 288.093 203.58 291.679 192.292C295.198 181.005 301.638 160.156 296.526 159.094C291.413 157.965 285.902 173.967 279.462 174.631C273.022 175.295 287.43 119.588 271.694 119.124C255.958 118.592 249.318 156.438 243.807 163.078C238.296 169.718 230.196 158.43 224.22 166.995C218.245 175.56 219.905 203.314 214.062 200.525C204.301 195.745 197.595 214.867 197.595 214.867Z" fill="#8EAD46"/>
<path d="M271.694 119.057C271.694 119.057 261.203 180.938 246.33 214.801" stroke="#525730" stroke-width="0.8771" stroke-miterlimit="10"/>
<path d="M296.526 159.094C296.526 159.094 281.719 197.405 264.124 214.867" stroke="#525730" stroke-width="0.8771" stroke-miterlimit="10"/>
<path d="M227.54 164.074C227.54 164.074 236.836 189.57 236.504 214.867" stroke="#525730" stroke-width="0.8771" stroke-miterlimit="10"/>
<path d="M203.837 203.713C203.837 203.713 206.094 209.887 210.41 214.867" stroke="#525730" stroke-width="0.8771" stroke-miterlimit="10"/>
<path d="M222.627 170.249C222.627 170.249 225.017 172.041 230.993 175.494" stroke="#525730" stroke-width="0.8771" stroke-miterlimit="10"/>
<path d="M220.104 181.005C220.104 181.005 226.146 190.433 235.375 197.538" stroke="#525730" stroke-width="0.8771" stroke-miterlimit="10"/>
<path d="M245.733 159.758C245.733 159.758 244.538 186.582 251.244 202.384" stroke="#525730" stroke-width="0.8771" stroke-miterlimit="10"/>
<path d="M255.36 135.125C255.36 135.125 254.431 164.074 259.344 175.494" stroke="#525730" stroke-width="0.8771" stroke-miterlimit="10"/>
<path d="M278.068 161.152C278.068 161.152 268.307 181.071 255.227 190.3" stroke="#525730" stroke-width="0.8771" stroke-miterlimit="10"/>
<path d="M279.396 138.91C279.396 138.91 271.428 146.811 264.988 152.587" stroke="#525730" stroke-width="0.8771" stroke-miterlimit="10"/>
<path d="M264.058 122.111L267.909 138.91" stroke="#525730" stroke-width="0.8771" stroke-miterlimit="10"/>
<path d="M297.455 171.112C297.455 171.112 292.476 176.955 286.566 181.005" stroke="#525730" stroke-width="0.8771" stroke-miterlimit="10"/>
<path d="M291.612 192.292C291.612 192.292 279.794 203.513 270.1 207.962" stroke="#525730" stroke-width="0.8771" stroke-miterlimit="10"/>
<path d="M299.646 214.867H189.097" stroke="black" stroke-width="0.9556" stroke-miterlimit="10"/>
<path d="M37.8459 169.253V161.219L32.7998 161.484C32.4678 160.289 32.003 159.16 31.4054 158.098L35.19 154.712L29.48 149.002L26.0937 152.786C25.0314 152.189 23.9027 151.724 22.7075 151.392L22.9731 146.346H14.8728L15.1384 151.392C13.9432 151.724 12.8145 152.189 11.7521 152.786L8.36593 149.002L2.65585 154.712L6.44044 158.098C5.84287 159.16 5.3781 160.289 5.04612 161.484L0 161.219V169.253L5.04612 168.987C5.3781 170.182 5.84287 171.311 6.44044 172.373L2.65585 175.76L8.36593 181.47L11.7521 177.685C12.8145 178.283 13.9432 178.747 15.1384 179.079L14.8728 184.125H22.9067L22.6411 179.079C23.8363 178.747 24.965 178.283 26.0273 177.685L29.4136 181.47L35.1236 175.76L31.339 172.373C31.9366 171.311 32.4014 170.182 32.7334 168.987L37.8459 169.253ZM18.9229 172.24C15.072 172.24 11.8849 169.12 11.8849 165.202C11.8849 161.352 15.0056 158.164 18.9229 158.164C22.7739 158.164 25.9609 161.285 25.9609 165.202C25.9609 169.053 22.7739 172.24 18.9229 172.24Z" fill="#D4DAFF"/>
<path d="M102.914 116.401V107.239L97.1378 107.571C96.7394 106.176 96.2082 104.915 95.5443 103.72L99.86 99.8687L93.3532 93.3618L89.5022 97.6776C88.3071 97.0136 86.9792 96.4161 85.6512 96.0841L85.9832 90.3076H76.8205L77.1525 96.0841C75.7582 96.4825 74.4967 97.0136 73.3015 97.6776L69.4505 93.3618L62.9437 99.8687L67.2595 103.72C66.5955 104.915 65.9979 106.243 65.6659 107.571L59.8895 107.239V116.401L65.6659 116.069C66.0643 117.464 66.5955 118.725 67.2595 119.92L62.9437 123.771L69.4505 130.278L73.3015 125.962C74.4967 126.626 75.8246 127.224 77.1525 127.556L76.8205 133.332H85.9832L85.6512 127.556C87.0455 127.158 88.3071 126.626 89.5022 125.962L93.3532 130.278L99.86 123.771L95.5443 119.92C96.2082 118.725 96.8058 117.397 97.1378 116.069L102.914 116.401ZM81.3355 119.854C76.8869 119.854 73.3015 116.269 73.3015 111.82C73.3015 107.371 76.8869 103.786 81.3355 103.786C85.784 103.786 89.3694 107.371 89.3694 111.82C89.3694 116.269 85.784 119.854 81.3355 119.854Z" fill="#D4DAFF"/>
<path d="M22.8403 211.348H215.39C215.39 211.348 205.43 196.741 190.823 192.89C176.216 189.105 171.9 195.413 163.6 181.47C155.301 167.526 147.665 158.961 137.706 158.563C127.746 158.231 111.347 168.854 92.8884 157.434C71.2432 144.022 53.6482 155.708 52.6523 173.303C51.6563 190.898 18.5246 185.121 22.8403 211.348Z" fill="#ECFFBF"/>
<path d="M146.337 211.348C146.337 211.348 150.056 200.791 153.508 201.588C156.961 202.318 159.285 207.497 163.335 203.38C167.385 199.264 165.393 184.922 172.63 183.727C179.868 182.532 175.817 199.795 180.531 196.874C186.374 193.288 192.416 174.232 199.786 176.025C207.156 177.751 207.024 211.348 207.024 211.348H146.337Z" fill="#598048"/>
<path d="M124.095 211.348L152.18 156.106L168.447 161.949L187.57 119.522L206.692 126.626L231.657 68.6625L242.081 72.3807V40.9752L212.203 62.886L222.228 66.0066L197.131 103.388L175.22 92.5651L146.47 133.399L122.767 121.58L68.8529 211.348H124.095Z" fill="#FFD817"/>
<path d="M5.77649 211.547C5.77649 211.547 -2.19106 181.669 3.71821 180.806C9.69387 179.942 8.96351 187.113 14.74 186.781C20.4501 186.449 11.221 134.461 24.8986 132.336C38.5099 130.145 46.6766 182.067 53.5154 176.755C60.3542 171.444 74.895 142.761 76.8869 211.348L5.77649 211.547Z" fill="#8EAD46"/>
<path d="M24.8986 132.27C24.8986 132.27 27.6873 178.283 39.2402 211.547" stroke="#525730" stroke-width="0.9512" stroke-miterlimit="10"/>
<path d="M29.2144 133.399C29.2144 133.399 28.0192 142.495 26.2265 147.408" stroke="#525730" stroke-width="0.9512" stroke-miterlimit="10"/>
<path d="M17.6614 145.815C17.6614 145.815 18.7238 150.064 28.0857 161.816" stroke="#525730" stroke-width="0.9512" stroke-miterlimit="10"/>
<path d="M40.9001 153.318C40.9001 153.318 39.041 184.325 33.8621 192.757" stroke="#525730" stroke-width="0.9512" stroke-miterlimit="10"/>
<path d="M3.78461 180.806C3.78461 180.806 7.96757 194.151 22.9067 211.547" stroke="#525730" stroke-width="0.9512" stroke-miterlimit="10"/>
<path d="M16.8647 165.999C16.8647 165.999 22.442 186.317 36.85 204.111" stroke="#525730" stroke-width="0.9512" stroke-miterlimit="10"/>
<path d="M10.4906 184.989C10.4906 184.989 11.8186 190.632 12.2833 197.471" stroke="#525730" stroke-width="0.9512" stroke-miterlimit="10"/>
<path d="M2.58948 196.807C2.58948 196.807 9.42829 201.654 19.1222 206.966" stroke="#525730" stroke-width="0.9512" stroke-miterlimit="10"/>
<path d="M3.71817 211.348H197.595" stroke="#292E4A" stroke-width="1.0223" stroke-miterlimit="10"/>
<path d="M46.8758 235.716C41.0993 235.716 36.4516 231.001 36.4516 225.291V122.444C36.4516 116.667 41.1657 112.019 46.8758 112.019H91.7597C97.5362 112.019 102.184 116.733 102.184 122.444V225.291C102.184 231.068 97.4698 235.716 91.7597 235.716H46.8758Z" fill="#3747A3"/>
<path d="M51.9883 235.716C46.2118 235.716 41.5641 231.001 41.5641 225.291V122.444C41.5641 116.667 46.2782 112.019 51.9883 112.019H96.8722C102.649 112.019 107.296 116.733 107.296 122.444V225.291C107.296 231.068 102.582 235.716 96.8722 235.716H51.9883Z" fill="#4A60DB"/>
<path d="M96.8722 115.14H86.448C85.9168 115.14 85.3856 115.472 85.2528 116.003L84.788 117.53C84.5225 118.393 83.7257 118.991 82.7962 118.991H66.0643C65.1347 118.991 64.338 118.393 64.0724 117.53L63.6076 116.003C63.4748 115.472 62.9437 115.14 62.4125 115.14H51.9883C47.9381 115.14 44.6847 118.393 44.6847 122.443V225.291C44.6847 229.342 47.9381 232.595 51.9883 232.595H96.8722C100.922 232.595 104.176 229.342 104.176 225.291V122.443C104.109 118.393 100.856 115.14 96.8722 115.14Z" fill="#292E4A"/>
<path d="M79.0116 116.601H69.7825C69.5169 116.601 69.2513 116.401 69.2513 116.07C69.2513 115.804 69.4505 115.538 69.7825 115.538H79.0116C79.2772 115.538 79.5427 115.738 79.5427 116.07C79.5427 116.335 79.3435 116.601 79.0116 116.601Z" fill="#292E4A"/>
<path d="M38.6426 132.801V148.139" stroke="white" stroke-width="1.4467" stroke-miterlimit="10" stroke-linecap="round" stroke-linejoin="round"/>
<path d="M38.6426 152.919V160.09" stroke="white" stroke-width="1.4467" stroke-miterlimit="10" stroke-linecap="round" stroke-linejoin="round"/>
<path d="M182.191 230.935L194.342 161.551H283.778L271.694 230.935H182.191Z" fill="#4A60DB"/>
<path d="M269.237 228.013H185.71L196.732 164.539H280.325L269.237 228.013Z" fill="#292E4A"/>
<path d="M272.026 230.935H122.966V235.915H272.026V230.935Z" fill="#3747A3"/>
<path d="M191.421 230.935H122.966V235.915H191.421V230.935Z" fill="#4A60DB"/>
<path d="M272.026 230.935H122.966" stroke="#3747A3" stroke-width="0.9823" stroke-miterlimit="10"/>
<path d="M249.451 213.274C249.451 213.274 250.38 215.863 250.048 217.125C249.716 218.386 248.721 219.515 248.654 221.374C248.588 223.233 248.787 226.553 249.384 226.686C249.982 226.818 249.584 224.163 250.115 223.963C250.646 223.764 252.505 227.814 252.505 227.814H257.95C257.95 227.814 256.091 216.129 255.759 214.137C255.493 212.211 249.451 213.274 249.451 213.274Z" fill="#F9B989"/>
<path d="M157.359 182.067C157.359 182.067 148.595 181.337 146.404 180.806C144.213 180.275 138.37 182.067 138.37 182.067L148.13 190.101C148.13 190.101 150.587 188.574 153.243 188.109C155.898 187.645 157.758 187.844 157.758 187.844L157.359 182.067Z" fill="#F9B989"/>
<path d="M194.807 132.004C194.674 134.195 194.076 139.706 194.475 142.229C194.807 144.753 196.135 146.545 198.791 146.147C201.446 145.748 203.77 156.903 203.77 156.903L209.48 157.766L213.597 151.525L209.746 144.686C209.746 144.686 212.535 137.117 211.074 132.735C209.613 128.286 199.122 124.834 195.139 126.294C191.155 127.755 194.807 132.004 194.807 132.004Z" fill="#F9B989"/>
<path d="M200.384 150.861L206.891 153.45L208.285 156.438V152.587L213.198 147.475L214.46 150.263L227.474 201.92H208.086L196.666 156.438L200.118 154.181L200.384 150.861Z" fill="#FF7700"/>
<path d="M238.163 227.881H198.525L205.895 201.92H236.039L238.163 227.881Z" fill="white"/>
<path d="M200.118 154.181C202.044 159.492 210.742 196.21 212.136 201.189C213.464 206.169 214.261 219.913 214.261 219.913C214.261 219.913 202.774 220.112 200.118 219.913C197.529 219.714 200.982 203.779 200.849 200.127C200.716 196.475 193.744 177.552 193.744 177.552C193.744 177.552 180.664 188.972 178.672 189.172C176.681 189.371 156.098 188.64 156.098 188.64V181.47C156.098 181.47 173.361 180.474 175.22 179.478C177.079 178.482 188.499 165.335 191.288 162.016C194.076 158.563 196.599 154.314 200.118 154.181Z" fill="#6470B5"/>
<path d="M189.561 169.386C188.034 169.585 186.507 179.013 184.582 181.735C183.387 183.462 181.594 186.184 180.598 188.109C184.781 185.321 193.744 177.486 193.744 177.486C192.881 175.494 191.022 169.186 189.561 169.386Z" fill="#495285"/>
<path d="M248.986 214.867H256.489L253.501 198.268C252.571 192.159 250.58 186.184 247.658 180.739C242.745 171.444 235.043 157.567 231.856 155.11C229.798 153.517 220.369 149.931 214.327 150.263C214.327 150.263 221.232 192.624 222.228 199.197C223.224 205.837 227.407 218.984 227.407 218.984H241.351L238.097 199.928L234.379 182.134L242.214 192.691L248.986 214.867Z" fill="#6470B5"/>
<path d="M234.445 182.134C234.445 182.134 229.731 175.56 228.602 171.909C227.474 168.257 226.943 163.211 227.407 161.75C227.872 160.289 226.212 159.758 225.482 165.8C224.751 171.842 224.751 177.287 228.403 183.262C232.055 189.238 229.466 192.757 232.387 198.002C235.308 203.314 239.027 205.372 239.027 205.372L234.445 182.134Z" fill="#495285"/>
<path d="M190.026 125.564C191.952 121.447 196.467 123.904 201.513 124.502C206.559 125.099 211.207 125.763 212.867 129.282C214.46 132.868 212.468 140.105 209.746 144.62C209.746 144.62 207.555 141.897 207.488 139.972C207.488 138.047 209.746 136.851 208.75 135.059C207.82 133.2 206.492 134.395 206.16 135.191C205.829 135.988 205.696 136.785 205.364 136.387C205.032 135.988 205.629 134.262 205.497 132.868C205.297 131.473 204.633 129.349 201.446 129.813C198.326 130.278 195.006 129.614 195.006 129.614L194.807 132.004C194.807 132.004 187.902 130.212 190.026 125.564Z" fill="black"/>
<path d="M49.1996 32.1937C59.5575 32.1937 112.011 32.1937 123.829 32.1937C135.648 32.1937 140.495 30.733 134.386 26.4836C128.278 22.2343 126.485 22.0351 124.427 17.7857C122.368 13.5363 117.721 10.8141 111.214 11.6108C104.707 12.474 100.325 14.7979 95.2787 9.68536C90.2325 4.57284 85.5848 -3.26192 73.3679 1.45222C60.6862 6.36554 60.0886 17.9849 49.7972 20.3088C39.5722 22.699 28.2848 32.1937 49.1996 32.1937Z" fill="#A6B1ED"/>
<path d="M110.948 151.923C110.948 151.923 115.397 151.127 117.123 146.014C118.849 140.901 123.564 135.457 131.797 136.254C140.03 137.051 144.213 143.026 143.084 151.923C141.955 160.82 134.32 162.148 128.676 162.082C123.032 162.016 119.181 156.106 116.725 154.181C114.334 152.255 110.948 151.923 110.948 151.923Z" fill="#4A60DB"/>
<path d="M136.909 150.463V147.74L135.183 147.807C135.05 147.408 134.917 147.01 134.718 146.678L135.98 145.549L134.054 143.624L132.925 144.885C132.593 144.686 132.195 144.553 131.797 144.421L131.863 142.694H129.141L129.207 144.421C128.809 144.553 128.41 144.686 128.078 144.885L126.95 143.624L125.024 145.549L126.286 146.678C126.087 147.01 125.954 147.408 125.821 147.807L124.095 147.74V150.463L125.821 150.396C125.954 150.795 126.087 151.193 126.286 151.525L125.024 152.654L126.95 154.579L128.078 153.318C128.41 153.517 128.809 153.65 129.207 153.782L129.141 155.509H131.863L131.797 153.782C132.195 153.65 132.593 153.517 132.925 153.318L134.054 154.579L135.98 152.654L134.718 151.525C134.917 151.193 135.05 150.795 135.183 150.396L136.909 150.463ZM130.535 151.459C129.207 151.459 128.145 150.396 128.145 149.068C128.145 147.74 129.207 146.678 130.535 146.678C131.863 146.678 132.925 147.74 132.925 149.068C132.925 150.396 131.863 151.459 130.535 151.459Z" fill="white"/>
<path d="M214.542 19.7675H194.358V46.5916H214.542V19.7675Z" fill="#FFEB8A"/>
<path d="M196.615 24.4816H200.599" stroke="#FFA200" stroke-width="0.7146" stroke-miterlimit="10"/>
<path d="M196.615 28.3989H211.488" stroke="#FFA200" stroke-width="0.7146" stroke-miterlimit="10"/>
<path d="M196.615 32.3828H211.488" stroke="#FFA200" stroke-width="0.7146" stroke-miterlimit="10"/>
<path d="M196.615 36.3666H211.488" stroke="#FFA200" stroke-width="0.7146" stroke-miterlimit="10"/>
<path d="M196.615 40.2839H211.488" stroke="#FFA200" stroke-width="0.7146" stroke-miterlimit="10"/>
<path d="M151.716 112.285C154.438 109.695 181.926 111.222 183.785 112.816C185.71 114.409 184.383 125.431 184.449 129.548C184.449 131.938 186.706 136.785 189.561 137.051C186.308 138.777 181.063 137.582 178.473 136.055C175.884 134.527 175.021 134.859 170.107 134.859C165.194 134.859 157.293 134.859 154.039 134.859C150.786 134.859 149.856 131.672 149.856 126.759C149.856 121.846 149.923 114.011 151.716 112.285Z" fill="#4A60DB"/>
<path d="M169.51 116.999C170.107 117.132 170.638 117.264 171.103 117.53C171.568 117.796 171.9 118.061 172.232 118.327C172.564 118.659 172.763 118.924 172.896 119.256C173.029 119.588 173.162 119.92 173.162 120.186C173.162 120.319 173.095 120.451 173.029 120.518C172.896 120.584 172.83 120.651 172.697 120.651H171.435C171.236 120.651 171.103 120.584 170.97 120.518C170.838 120.451 170.771 120.319 170.705 120.186C170.506 119.854 170.24 119.655 169.908 119.389C169.51 119.19 168.979 119.057 168.248 119.057C167.916 119.057 167.651 119.057 167.319 119.124C167.053 119.19 166.787 119.256 166.588 119.389C166.389 119.522 166.19 119.655 166.057 119.854C165.924 120.053 165.858 120.252 165.858 120.451C165.858 120.717 165.924 120.983 166.057 121.115C166.19 121.315 166.389 121.447 166.721 121.58C166.987 121.713 167.385 121.846 167.85 121.912C168.315 122.045 168.912 122.178 169.576 122.311C170.306 122.443 170.904 122.643 171.435 122.842C171.966 123.041 172.365 123.307 172.697 123.572C173.029 123.838 173.228 124.236 173.361 124.568C173.494 124.966 173.56 125.365 173.56 125.896C173.56 126.361 173.494 126.826 173.294 127.224C173.095 127.622 172.83 128.021 172.498 128.286C172.166 128.618 171.701 128.884 171.236 129.083C170.705 129.282 170.174 129.415 169.51 129.548V130.743C169.51 130.876 169.443 131.009 169.377 131.075C169.311 131.141 169.178 131.208 169.045 131.208H167.584C167.451 131.208 167.319 131.141 167.252 131.075C167.186 131.009 167.119 130.876 167.119 130.743V129.548C166.588 129.481 166.057 129.349 165.592 129.149C165.128 128.95 164.663 128.685 164.331 128.419C163.999 128.153 163.667 127.821 163.468 127.423C163.268 127.025 163.136 126.626 163.136 126.162C163.136 126.029 163.202 125.896 163.268 125.83C163.335 125.763 163.468 125.697 163.6 125.697H164.862C165.061 125.697 165.194 125.763 165.327 125.83C165.46 125.896 165.526 126.029 165.592 126.162C165.659 126.294 165.792 126.494 165.924 126.626C166.057 126.759 166.19 126.892 166.389 127.025C166.588 127.158 166.854 127.224 167.186 127.29C167.518 127.357 167.85 127.423 168.315 127.423C168.647 127.423 169.045 127.423 169.377 127.357C169.709 127.29 170.041 127.224 170.24 127.091C170.506 126.958 170.705 126.826 170.838 126.626C170.97 126.427 171.103 126.228 171.103 125.962C171.103 125.697 171.037 125.498 170.838 125.298C170.638 125.099 170.439 124.966 170.041 124.9C169.709 124.767 169.244 124.634 168.779 124.568C168.248 124.435 167.651 124.302 166.987 124.17C166.389 124.037 165.858 123.838 165.393 123.639C164.928 123.439 164.53 123.174 164.264 122.908C163.999 122.643 163.733 122.311 163.6 121.912C163.468 121.514 163.401 121.049 163.401 120.518C163.401 120.053 163.468 119.588 163.667 119.256C163.866 118.858 164.132 118.526 164.397 118.194C164.729 117.862 165.128 117.596 165.526 117.397C165.991 117.198 166.455 117.065 166.987 116.932V115.737C166.987 115.605 167.053 115.472 167.119 115.405C167.186 115.339 167.319 115.273 167.451 115.273H168.912C169.045 115.273 169.178 115.339 169.244 115.405C169.311 115.472 169.377 115.605 169.377 115.737V116.999H169.51Z" fill="#FFD817"/>
<path d="M91.9588 206.235L93.4859 232.528H51.1251C51.1251 232.528 52.2538 226.686 52.2538 221.905C52.2538 212.41 57.8975 206.235 57.8975 206.235H91.9588Z" fill="white"/>
<path d="M79.2772 232.528H93.486L91.9589 206.235H86.5144L79.2772 232.528Z" fill="#D1D1D1"/>
<path d="M105.039 127.423C105.039 127.423 104.574 133.399 105.371 134.461C106.168 135.523 105.836 136.187 105.172 136.519C104.441 136.851 104.441 142.362 102.781 142.761C101.122 143.159 99.6608 141.897 99.0632 143.624C98.4656 145.416 97.6689 149.666 97.6689 149.666L87.1783 148.935L90.0997 141.167C90.0997 141.167 88.1078 135.391 89.4358 130.411C90.7637 125.431 104.707 122.443 105.039 127.423Z" fill="#F59462"/>
<path d="M84.7216 146.612L102.25 149.068C102.649 149.135 102.914 149.533 102.848 149.931L101.852 153.915C101.852 153.915 102.715 160.09 102.383 164.738C102.051 169.386 98.2665 185.52 97.2705 190.5C96.2746 195.479 95.4778 207.763 92.9548 207.895C90.4317 208.028 60.8853 207.895 55.7728 207.895C50.6603 207.895 58.2959 202.716 60.8853 198.135C63.4084 193.62 66.529 178.349 70.6456 169.585C74.7622 160.82 83.7921 151.06 84.0577 149.135C84.1904 147.276 83.7921 146.479 84.7216 146.612Z" fill="#6470B5"/>
<path d="M83.2609 164.406C81.4018 162.082 80.4059 162.68 81.3354 166.531C82.265 170.382 83.5929 173.901 87.2447 176.224C90.5645 178.349 91.3612 190.765 96.7393 193.952C96.9385 192.624 97.0713 191.429 97.2705 190.5C98.0673 186.449 100.723 174.896 101.852 168.257C101.852 168.323 84.788 166.331 83.2609 164.406Z" fill="#495285"/>
<path d="M105.504 169.385C105.504 169.385 111.811 177.951 113.87 178.548C115.928 179.146 136.378 180.806 138.171 180.806C139.963 180.806 144.014 183.329 145.607 184.059C147.201 184.856 151.45 188.375 149.259 189.636C147.068 190.898 143.35 190.831 141.158 189.636C138.967 188.441 137.241 186.914 135.316 186.914C133.39 186.914 114.401 187.379 110.218 186.117C104.441 184.391 95.5442 174.631 94.0835 173.369L105.504 169.385Z" fill="#F59462"/>
<path d="M136.312 188.375C136.511 187.113 136.245 185.852 138.038 186.516C139.831 187.18 141.756 188.707 143.217 189.105C144.677 189.504 143.15 191.23 142.022 191.23C140.893 191.23 136.179 189.636 136.312 188.375Z" fill="#F9B989"/>
<path d="M136.112 181.802C136.112 181.802 143.615 180.407 145.541 180.739C147.466 181.071 146.205 181.868 144.013 182.532C139.034 183.993 134.12 182.798 136.112 181.802Z" fill="#F9B989"/>
<path d="M94.2827 133.664C94.2827 133.664 92.2908 131.673 91.7596 133.664C91.2285 135.656 93.4195 137.316 93.0212 138.445C92.6228 139.574 90.9629 143.889 89.7677 143.624C88.5726 143.425 90.0997 140.968 88.639 138.777C87.1783 136.586 85.3192 133.93 86.5143 128.95C87.7095 123.971 91.6268 125.298 92.9548 123.439C94.2827 121.58 95.4114 119.655 100.59 120.252C105.769 120.784 108.093 117.729 110.351 120.186C112.542 122.576 112.21 127.025 106.699 128.22C101.188 129.415 100.059 127.755 98.9304 129.083C97.6689 130.345 95.677 133.598 94.2827 133.664Z" fill="#995417"/>
<path d="M81.9994 163.011L92.822 175.494L106.699 170.116C106.699 170.116 100.192 160.289 97.9345 157.633C95.7434 154.978 91.826 152.255 88.5062 152.786C85.3192 153.318 79.3435 159.426 81.9994 163.011Z" fill="#6470B5"/>
<path d="M95.8098 155.376C95.8098 155.376 98.7976 157.5 102.383 163.609" stroke="#495285" stroke-miterlimit="10"/>
<path d="M28.7496 235.715H107.429" stroke="#292E4A" stroke-width="1.0223" stroke-miterlimit="10"/>
<path d="M120.576 235.715H284.574" stroke="#292E4A" stroke-width="1.0223" stroke-miterlimit="10"/>
</svg>
