<svg width="474" height="350" viewBox="0 0 474 350" fill="none" xmlns="http://www.w3.org/2000/svg">
<mask id="mask0" mask-type="alpha" maskUnits="userSpaceOnUse" x="0" y="0" width="474" height="350">
<rect width="474" height="350" fill="#C4C4C4"/>
</mask>
<g mask="url(#mask0)">
<path opacity="0.4" d="M325.378 240.268C363.74 251.611 332.98 283.654 256.958 296.985C193.8 308.095 188.537 271.609 188.537 240.268C188.537 208.927 219.18 183.551 256.958 183.551C294.735 183.551 295.32 231.497 325.378 240.268Z" fill="#FED893"/>
<path d="M342.461 260.733C323.747 272.544 407.84 276.169 409.828 277.69C438.336 281.132 488.255 296.593 459.872 330.898C454.685 336.485 437.485 348.167 410.179 350.194H4.1012C13.4578 325.168 56.2645 302.599 99.305 304.937C142.346 307.276 165.854 290.086 131.819 287.045C97.7845 284.005 59.5393 287.864 47.7265 268.802C29.598 239.683 86.6735 228.574 184.567 226.001C282.461 223.545 395.209 227.755 397.548 244.946C399.887 262.019 360.121 249.623 342.461 260.733Z" fill="#FDB57C" fill-opacity="0.4"/>
</g>
<path opacity="0.27" d="M144.215 156.806C144.358 159.808 143.929 162.381 142.643 163.811C139.64 167.099 133.635 164.382 131.919 162.667C131.061 161.952 130.06 159.951 128.917 157.806C128.917 157.806 133.206 160.094 133.778 159.236C134.35 158.378 134.064 156.663 135.208 157.377C136.352 157.949 139.211 161.38 140.641 160.951C142.071 160.665 144.215 156.806 144.215 156.806Z" fill="black"/>
<path opacity="0.08" d="M296.345 269.029C296.345 272.46 311.643 275.177 330.516 275.177C349.39 275.177 364.688 272.46 364.688 269.029C364.688 265.598 349.39 262.882 330.516 262.882C311.643 262.882 296.345 265.598 296.345 269.029Z" fill="black"/>
<path d="M340.382 165.812C340.382 165.812 342.813 174.104 342.956 175.104C343.242 176.105 345.386 176.963 347.531 177.249C349.676 177.535 357.253 171.102 357.253 171.102L360.113 167.956C360.113 167.956 353.679 169.1 352.249 169.672C350.819 170.101 349.39 170.387 348.961 168.671C348.818 168.099 348.532 167.385 348.389 166.527C347.96 165.097 347.531 163.668 347.531 163.668L340.382 165.812Z" fill="#DD9666"/>
<path d="M313.216 253.304C313.216 253.304 309.213 260.452 308.927 262.453C308.641 264.454 307.64 264.312 310.213 265.169C312.787 266.027 314.217 265.169 316.362 265.741C318.506 266.313 320.508 268.6 325.083 269.029C329.659 269.458 330.659 268.886 330.659 268.314C330.659 267.743 327.8 265.741 324.94 263.883C322.081 262.024 319.507 260.452 319.221 258.45C318.935 256.449 318.792 253.732 318.792 253.732L313.216 253.304Z" fill="#1C3638"/>
<path d="M328.372 252.017C328.372 252.017 326.227 257.021 325.655 258.307C325.083 259.594 324.225 260.88 326.37 261.738C328.515 262.596 331.088 263.168 331.088 263.168C331.088 263.168 331.088 261.309 332.232 261.738C333.376 262.167 332.375 263.025 334.52 263.74C336.664 264.454 343.099 266.027 345.243 265.884C347.388 265.741 345.958 264.311 343.956 263.025C341.955 261.738 332.518 255.448 332.518 252.589C332.518 249.73 328.372 252.017 328.372 252.017Z" fill="#1C3638"/>
<path d="M316.076 185.112C316.076 185.112 313.216 188.4 310.785 191.831C308.355 195.119 308.355 201.838 310.499 205.412C312.644 208.986 320.079 220.137 320.079 221.566C320.079 222.996 319.364 223.997 318.363 226.57C317.362 229.143 313.788 240.151 312.93 245.584C311.929 251.016 311.786 254.447 311.786 254.447C311.786 254.447 318.22 255.591 319.221 254.876C320.222 254.161 328.229 232.289 329.659 229.143C331.088 225.998 332.232 223.139 331.374 220.28C330.373 217.421 328.515 206.413 328.515 206.413C328.515 206.413 334.234 220.28 334.234 221.709C334.234 223.139 332.375 226.999 329.659 238.15C327.085 249.301 327.228 253.161 327.228 253.161C327.228 253.161 331.803 253.875 333.376 252.875C333.376 252.875 339.095 237.578 341.669 232.86C344.242 228.143 346.387 224.712 346.387 220.995C346.387 217.135 344.671 213.561 343.527 210.702C342.67 208.557 335.664 196.691 332.518 191.402C331.517 189.829 330.945 188.829 330.945 188.829L316.076 185.112Z" fill="#386B70"/>
<path d="M343.956 140.508C343.956 140.508 344.671 143.367 344.528 144.654C344.385 145.941 344.242 148.085 336.808 147.513C329.23 146.941 321.652 143.224 320.079 141.795C318.506 140.365 317.505 139.079 318.792 137.649C320.079 136.219 323.796 128.643 325.655 125.64C327.514 122.638 329.659 118.778 336.379 118.349C343.099 117.92 343.956 140.508 343.956 140.508Z" fill="#1C3638"/>
<path d="M332.661 145.941C332.661 145.941 333.948 142.653 333.948 141.938C333.948 141.223 338.952 143.224 338.952 143.224L337.522 147.37C337.522 147.513 333.376 146.512 332.661 145.941Z" fill="#DD9666"/>
<path d="M324.94 149.229C324.94 149.229 323.224 155.09 321.509 161.094C319.936 166.527 318.363 172.102 318.077 174.104C317.934 175.104 317.648 176.248 317.362 177.392C316.79 180.537 316.075 183.396 315.79 184.111C315.361 184.969 313.216 185.684 315.075 186.398C316.933 187.113 323.653 189.686 326.799 189.972C329.944 190.258 332.232 190.544 332.375 189.829C332.661 189.115 332.089 188.257 332.375 187.256C332.661 186.255 335.378 173.389 336.664 171.816C337.951 170.101 339.81 167.385 339.81 164.954C339.81 162.524 340.954 153.232 340.954 153.232C340.954 153.232 338.809 150.658 338.809 149.658C338.809 148.657 338.952 147.513 338.952 147.513C338.952 147.513 333.519 145.226 332.232 145.083C330.945 144.94 331.517 146.941 329.658 147.656C327.657 148.657 324.94 149.229 324.94 149.229Z" fill="#F1C40F"/>
<path d="M146.932 251.159C128.059 251.159 117.621 248.3 112.76 241.867C109.615 237.721 109.186 232.146 111.33 225.14C115.191 212.274 132.062 214.561 148.362 216.706C156.797 217.85 165.376 218.993 172.668 218.421C183.963 217.564 189.254 215.276 195.831 212.417C201.693 209.987 208.27 207.128 219.994 204.554C234.578 201.409 244.443 203.125 252.307 204.554C258.169 205.555 262.745 206.413 267.606 204.983C273.754 203.125 278.901 195.262 283.905 187.685C288.195 181.252 292.341 175.104 297.345 171.816C309.499 163.811 323.51 161.666 351.82 176.963L349.676 183.968C321.652 168.814 309.785 172.245 301.349 177.821C297.488 180.394 293.771 185.826 289.91 191.688C284.191 200.265 278.186 209.272 269.751 211.845C263.173 213.847 257.311 212.846 251.163 211.702C243.585 210.273 234.864 208.7 221.567 211.559C210.414 213.99 204.266 216.563 198.69 218.993C191.684 221.995 185.679 224.569 173.24 225.569C165.233 226.284 156.226 224.998 147.361 223.854C130.918 221.709 120.052 220.709 118.05 227.285C116.192 233.575 117.335 236.291 118.336 237.721C121.482 242.01 131.061 244.154 146.789 244.154C158.513 244.154 166.234 241.867 172.954 239.722C177.815 238.293 182.105 237.006 186.823 237.006C197.689 237.006 205.839 241.581 206.125 241.724L202.551 247.871C202.551 247.871 195.688 244.011 186.823 244.011C183.248 244.011 179.674 245.155 175.099 246.442C168.379 248.586 159.8 251.159 146.932 251.159Z" fill="#1C3638"/>
<path d="M382.132 198.836C381.703 198.836 381.417 198.836 380.988 198.693L361.4 192.974C359.541 192.403 358.397 190.401 358.969 188.543C359.541 186.684 361.543 185.541 363.401 186.112L382.99 191.831C384.848 192.403 385.992 194.404 385.42 196.263C384.991 197.692 383.561 198.693 382.132 198.836Z" fill="#D3D3D3"/>
<path d="M383.99 187.542C383.561 187.542 383.276 187.542 382.847 187.399L363.259 181.681C361.4 181.109 360.256 179.107 360.828 177.249C361.4 175.39 363.401 174.247 365.26 174.819L384.848 180.537C386.707 181.109 387.851 183.11 387.279 184.969C386.85 186.541 385.563 187.542 383.99 187.542Z" fill="#D3D3D3"/>
<path d="M368.549 197.406L366.976 196.977L351.82 192.974C351.82 192.974 346.959 192.26 348.532 185.398C350.104 178.536 352.678 172.674 352.678 172.674C352.678 172.674 353.25 168.528 360.828 170.816C368.406 173.103 372.981 174.533 373.696 174.819C374.84 175.39 375.269 175.962 375.269 176.677C375.126 177.535 374.84 189.972 368.549 197.406Z" fill="#1C3638"/>
<path d="M359.827 167.956C359.827 167.956 361.686 166.527 363.83 168.528C365.975 170.53 367.262 173.675 367.691 174.819C368.12 175.962 368.406 177.106 368.12 177.535C367.834 177.964 366.404 179.107 365.546 178.678C364.688 178.25 362.258 173.961 361.972 173.246C361.686 172.531 361.686 172.531 361.686 172.531C361.686 172.531 361.543 174.961 360.971 175.104C360.399 175.247 359.827 175.676 359.827 174.962C359.827 174.247 360.399 173.103 359.97 172.388C359.541 171.673 357.253 171.816 357.11 171.102C357.11 170.387 358.826 168.528 359.827 167.956Z" fill="#DD9666"/>
<path d="M320.365 163.954C320.365 163.954 319.221 166.241 319.936 166.956C320.651 167.671 332.661 173.389 340.239 179.393C340.239 179.393 340.382 180.394 341.24 179.965C342.098 179.536 342.956 178.964 344.242 178.678C345.529 178.25 346.101 178.393 346.101 179.107C345.958 179.679 344.242 181.109 344.242 181.109C344.242 181.109 346.387 182.681 347.388 182.967C348.389 183.396 348.675 182.538 349.818 182.824C350.962 183.11 351.677 184.111 351.677 184.54C351.534 184.969 348.961 185.684 346.816 185.826C344.671 185.969 339.238 183.682 338.094 182.967C336.95 182.252 336.664 180.823 336.093 180.394C335.521 179.965 323.939 176.534 320.651 175.247C317.362 173.961 313.788 172.96 312.93 171.959C311.929 170.959 312.215 170.101 312.358 169.243C312.358 168.814 312.644 167.242 312.93 165.526C313.216 163.811 313.502 162.381 313.788 161.809C314.074 160.808 320.365 163.954 320.365 163.954Z" fill="#DD9666"/>
<path d="M324.94 149.229C324.94 149.229 321.366 149.086 318.935 150.658C316.505 152.231 312.644 159.808 312.072 162.095C312.072 162.095 315.79 165.097 320.651 165.383C320.651 165.383 324.511 156.52 325.369 153.089C326.513 149.658 324.94 149.229 324.94 149.229Z" fill="#F1C40F"/>
<path d="M339.095 158.092C339.095 158.092 340.525 165.526 340.382 165.812C340.239 166.241 340.525 167.099 340.525 167.099C340.525 167.099 345.815 166.67 348.389 164.525C348.389 164.525 348.103 160.951 347.245 158.807C346.387 156.663 343.241 153.517 341.955 152.946C340.668 152.374 340.096 152.088 340.096 152.088C340.096 152.088 338.952 157.663 339.095 158.092Z" fill="#F1C40F"/>
<path d="M332.661 129.214C332.661 129.214 330.945 127.07 329.373 128.5C327.8 129.929 330.373 132.074 330.373 132.074C330.373 132.074 330.945 133.789 330.659 134.933C330.23 136.076 330.945 142.653 335.378 143.939C339.953 145.083 342.67 143.224 343.241 142.796C343.813 142.367 345.243 140.937 346.387 137.935C347.531 134.79 347.245 132.502 347.531 131.359C347.817 130.215 337.379 126.641 337.379 126.641L332.661 129.214Z" fill="#DD9666"/>
<path d="M332.375 127.928C332.375 127.928 331.946 131.216 332.804 131.502C333.662 131.788 335.235 129.357 336.379 129.214C337.522 129.071 335.95 130.358 336.093 131.216C336.379 132.073 342.241 134.933 348.103 132.216C348.103 132.216 349.104 131.788 349.247 130.501C349.533 129.214 349.104 124.925 346.959 122.209C344.814 119.636 341.383 117.777 336.95 118.206C332.661 118.635 332.375 127.928 332.375 127.928Z" fill="#1C3638"/>
<path d="M341.097 135.505C341.097 135.505 339.81 138.936 340.239 139.222C340.668 139.507 341.526 139.793 341.955 139.507C342.384 139.221 342.67 136.076 342.527 135.79C342.384 135.505 341.526 135.076 341.097 135.505Z" fill="#D38B5B"/>
<path d="M391.568 174.676V211.416C391.568 211.416 390.853 217.421 394.714 219.565C398.574 221.709 419.449 231.002 419.449 231.002C419.449 231.002 428.457 232.574 428.457 221.424C428.457 210.273 428.457 190.258 428.457 190.258C428.457 190.258 430.172 181.252 423.024 177.392C414.874 173.103 400.433 167.671 400.433 167.671C400.433 167.671 391.854 165.812 391.568 174.676Z" fill="#D3D3D3"/>
<path d="M396.573 181.395V208.128C396.573 208.128 396.144 212.417 398.717 213.99C401.291 215.562 415.732 222.281 415.732 222.281C415.732 222.281 421.88 223.425 421.88 215.276C421.88 207.128 421.88 192.546 421.88 192.546C421.88 192.546 423.024 185.969 418.162 183.253C412.586 180.108 402.578 176.248 402.578 176.248C402.578 176.248 396.859 174.962 396.573 181.395Z" fill="#70D5E0"/>
<path opacity="0.58" d="M417.59 198.836C417.59 205.841 413.587 211.559 408.583 211.559C403.579 211.559 399.575 205.841 399.575 198.836C399.575 191.831 403.579 186.112 408.583 186.112C411.013 186.112 413.301 187.542 414.874 189.829C416.59 192.117 417.59 195.405 417.59 198.836Z" fill="#386B70"/>
<path d="M417.59 198.836C417.59 195.262 416.589 192.117 415.017 189.829C413.444 187.542 411.156 186.112 408.726 186.112C408.726 186.112 403.15 187.542 403.15 198.836C403.15 207.985 409.441 208.843 411.442 208.414C413.301 207.842 416.304 206.699 417.59 199.98V198.836Z" fill="white"/>
<path d="M408.583 197.978C408.583 199.265 407.868 200.408 407.01 200.408C406.152 200.408 405.437 199.265 405.437 197.978C405.437 196.691 406.152 195.548 407.01 195.548C407.868 195.548 408.583 196.691 408.583 197.978Z" fill="#1C3638"/>
<path d="M413.587 199.694C413.587 200.98 412.872 202.124 412.014 202.124C411.156 202.124 410.442 200.98 410.442 199.694C410.442 198.407 411.156 197.263 412.014 197.263C412.872 197.263 413.587 198.407 413.587 199.694Z" fill="#1C3638"/>
<path opacity="0.08" d="M147.933 282.61C168.78 282.61 185.679 278.514 185.679 273.461C185.679 268.408 168.78 264.312 147.933 264.312C127.086 264.312 110.186 268.408 110.186 273.461C110.186 278.514 127.086 282.61 147.933 282.61Z" fill="black"/>
<path d="M147.647 265.455C147.647 265.455 146.217 271.317 147.504 273.318C147.504 273.318 153.223 274.033 154.081 273.747C154.939 273.461 155.368 272.317 155.94 272.603C156.512 272.889 155.511 274.033 159.943 274.605C164.375 275.176 168.665 275.462 169.666 275.034C170.666 274.605 171.667 273.747 170.523 272.889C169.38 272.031 165.805 271.603 163.374 269.887C160.944 268.171 154.796 264.026 153.509 263.454L147.647 265.455Z" fill="#1C3638"/>
<path d="M129.06 252.875C129.06 252.875 123.769 255.734 123.055 258.021C123.055 258.021 126.343 262.739 127.201 263.168C128.059 263.597 129.06 263.168 129.203 263.74C129.346 264.312 127.916 264.455 130.346 268.029C132.777 271.603 135.494 275.177 136.494 275.462C137.495 275.748 138.782 276.034 138.639 274.748C138.639 273.318 136.494 270.459 136.066 267.457C135.637 264.455 134.636 257.164 134.207 255.877L129.06 252.875Z" fill="#1C3638"/>
<path d="M129.06 252.875C129.06 252.875 134.207 236.863 140.212 230.144C140.212 230.144 140.355 228 139.926 225.14C139.783 223.568 139.354 221.852 138.782 220.137C136.923 215.133 129.774 200.265 130.203 188.114C130.346 183.11 131.204 179.393 132.062 176.677C133.349 172.96 134.779 171.388 134.779 171.388L154.51 171.53C154.51 171.53 155.082 173.246 155.797 175.39C156.368 176.963 156.94 178.678 157.369 179.822C158.227 182.395 165.233 210.416 165.662 213.275C166.091 216.134 166.52 218.85 165.662 220.852C164.804 222.853 161.945 227.428 160.086 228.714C158.227 230.001 155.225 232.431 155.225 232.431C155.225 232.431 152.365 259.022 153.366 263.311C153.366 263.311 152.651 267.028 146.932 266.027C146.932 266.027 142.5 248.157 142.5 246.156C142.5 246.156 135.208 255.448 134.779 256.592C134.779 256.592 129.631 256.02 129.06 252.875Z" fill="#F9C573"/>
<path d="M152.794 215.276C152.794 216.563 152.222 217.278 152.222 217.278C148.145 220.517 146.52 217.865 146.217 216.134C146.217 213.728 145.502 201.695 145.502 199.837C145.502 197.978 147.79 194.404 147.79 194.404C147.79 194.404 152.794 213.99 152.794 215.276Z" fill="white"/>
<path opacity="0.09" d="M155.225 232.431C155.225 232.431 143.929 244.44 142.5 246.156L143.786 253.161C143.786 253.161 149.363 243.296 154.653 237.292L155.225 232.431Z" fill="black"/>
<path d="M133.063 99.0497C133.063 99.0497 136.352 104.482 137.066 107.484C137.352 108.342 137.638 109.629 137.924 111.201C138.639 114.489 139.068 118.635 136.923 120.637C133.635 123.496 129.917 123.925 128.345 122.638C126.772 121.352 124.627 118.921 124.627 118.921L123.483 117.92L121.339 117.063L119.194 115.061L118.05 108.199L119.909 103.053L133.063 99.0497Z" fill="#DD9666"/>
<path opacity="0.18" d="M123.198 117.777L124.341 118.778C124.341 118.778 126.486 121.351 128.059 122.495C129.632 123.639 133.492 123.353 136.638 120.494C138.925 118.492 138.496 114.346 137.638 111.058C137.638 111.058 137.495 116.777 133.921 118.921C130.346 121.066 124.198 118.635 124.198 118.635" fill="black"/>
<path opacity="0.2" d="M126.772 123.353C126.772 123.353 124.913 126.641 124.627 127.07C124.341 127.499 128.631 132.645 128.631 132.645L135.494 135.219L141.785 132.216L144.072 128.071L143.5 121.494L139.926 120.637L135.923 123.639L132.348 124.354L126.772 123.353Z" fill="#70D5E0"/>
<path d="M133.921 131.216L124.198 126.212C124.198 126.212 122.34 128.785 121.482 129.929C120.624 131.073 117.764 136.934 119.194 139.936C120.624 142.938 130.775 159.379 131.776 161.809C132.777 164.24 133.921 169.386 134.064 170.387C134.207 171.388 134.207 172.531 135.351 173.103C136.495 173.675 148.076 175.962 155.082 172.96L156.94 158.95C156.94 158.95 161.373 156.663 161.373 153.232C161.373 149.801 157.655 131.073 156.655 128.928C155.654 126.784 153.08 121.209 149.506 120.637C145.931 120.065 141.928 121.066 141.928 121.066C141.928 121.066 142.071 130.215 140.069 131.931C140.212 131.931 136.209 132.216 133.921 131.216Z" fill="#386B70"/>
<path opacity="0.1" d="M131.776 161.809C132.634 164.097 133.921 169.386 134.064 170.387C134.207 171.387 134.207 172.531 135.351 173.103C136.495 173.675 148.076 175.962 155.082 172.96L156.94 158.95C156.94 158.95 152.365 144.082 150.649 140.651C148.934 137.22 147.933 127.785 147.647 127.785C147.218 127.928 147.933 135.933 142.214 137.506C137.352 138.793 133.349 136.934 133.349 136.934C133.349 136.934 128.059 134.504 127.487 134.361C126.629 134.218 134.35 146.941 133.921 153.232C133.635 156.377 132.92 153.66 132.92 153.66L131.776 161.809Z" fill="black"/>
<path d="M137.924 125.068C137.924 125.068 140.927 120.065 141.356 118.063C141.785 116.062 141.356 111.201 140.784 111.058C140.212 110.915 139.354 111.058 138.782 111.487C138.21 111.916 137.495 116.205 137.209 117.063C136.923 117.92 135.351 120.78 135.351 120.78C135.351 120.78 133.349 121.923 131.347 121.923C129.346 121.923 127.63 121.78 127.058 121.923C126.486 122.066 126.2 122.638 126.629 123.496C127.058 124.354 130.06 124.64 131.49 125.354C132.92 126.069 134.207 127.356 134.207 127.356L137.495 126.641L137.924 125.068Z" fill="#DD9666"/>
<path d="M133.206 153.803C133.206 153.803 130.346 137.935 134.35 127.213L137.638 126.498C137.638 126.498 142.071 139.364 142.786 144.797C143.214 147.942 144.215 152.803 144.358 156.949C144.501 159.951 144.072 162.524 142.786 163.954C139.783 167.242 133.778 164.525 132.062 162.81C131.204 162.095 130.203 160.094 129.06 157.949C127.773 155.376 126.629 152.803 126.343 152.231C125.771 151.087 133.206 153.803 133.206 153.803Z" fill="#386B70"/>
<path d="M142.357 163.096C142.357 163.096 140.498 164.24 139.068 163.811C137.781 163.382 137.209 161.952 136.923 160.666C136.637 159.379 135.494 157.949 135.065 158.092C134.636 158.235 134.636 159.522 134.922 160.523C135.208 161.523 135.208 162.81 134.636 162.953C134.207 163.096 132.205 162.381 131.633 161.809C130.918 161.38 130.775 159.236 129.489 159.665C128.345 160.094 128.059 160.808 128.631 162.524C129.203 164.24 129.917 165.955 131.061 167.242C132.205 168.385 136.637 170.53 139.211 169.815C141.785 169.1 144.072 166.241 144.072 166.241L142.357 163.096Z" fill="#DD9666"/>
<path d="M148.934 133.789C148.934 133.789 152.365 147.799 152.365 148.657C152.365 149.515 151.507 151.23 150.506 152.231C149.506 153.232 141.785 162.524 141.499 163.096C141.499 163.096 144.215 165.955 144.072 166.956C144.072 166.956 156.512 159.379 156.797 158.95C157.083 158.521 157.512 147.227 157.512 147.227L150.077 133.789H148.934Z" fill="#386B70"/>
<path d="M131.347 109.057C131.347 109.057 129.775 109.057 130.061 110.201C130.346 111.344 131.347 115.633 131.919 115.633C132.491 115.49 134.064 115.347 134.064 114.346C134.064 113.346 131.347 109.057 131.347 109.057Z" fill="#D38B5B"/>
<path d="M124.484 118.778C124.484 118.778 123.769 120.065 120.767 117.492C117.764 114.918 112.045 107.341 114.476 101.766C116.906 96.1905 123.054 93.7602 127.201 94.618C131.347 95.4757 133.349 97.9061 133.778 99.6216C134.207 101.337 132.348 104.339 130.203 105.197C128.059 106.055 124.484 107.055 122.483 106.77C120.481 106.484 119.909 106.055 119.909 106.77C119.909 107.484 121.911 112.488 121.911 112.488C121.911 112.488 120.338 111.916 119.766 112.917C119.194 113.775 119.337 115.633 121.196 116.348C123.054 117.063 123.769 116.92 123.769 116.92L124.484 118.778Z" fill="#1C3638"/>
<path opacity="0.08" d="M279.191 264.312C279.191 269.315 258.03 273.461 232.008 273.461C205.986 273.461 184.825 269.315 184.825 264.312C184.825 259.308 205.986 255.162 232.008 255.162C258.03 255.162 279.191 259.308 279.191 264.312Z" fill="black"/>
<path d="M232.004 221.567C232.004 221.567 217.277 219.422 206.554 224.426C195.831 229.429 202.98 236.291 202.98 236.291C202.98 236.291 196.546 240.294 201.55 246.727C201.55 246.727 194.687 267.171 230.86 267.171C267.034 267.171 262.03 248.586 262.03 248.586C262.03 248.586 266.319 243.868 262.03 238.865C262.03 238.865 265.604 233.861 259.885 228.429C254.166 222.996 246.731 220.423 232.004 221.567Z" fill="#386B70"/>
<g opacity="0.29">
<path opacity="0.29" d="M203.123 236.148C203.123 236.148 206.554 239.151 211.415 241.152C211.415 241.152 212.13 242.439 209.414 242.296C206.697 242.153 200.978 238.579 200.978 238.579C200.978 238.579 202.408 236.291 203.123 236.148Z" fill="black"/>
<path opacity="0.29" d="M201.693 246.585C201.693 246.585 203.551 248.729 210.7 251.302C210.7 251.302 208.556 252.589 205.124 251.159C201.693 249.73 201.407 249.158 201.407 249.158L201.693 246.585Z" fill="black"/>
<path opacity="0.29" d="M252.307 244.011C252.307 244.011 258.169 243.153 262.173 238.579C262.173 238.579 263.745 240.437 263.745 242.01C263.745 242.01 256.311 246.585 252.307 244.011Z" fill="black"/>
<path opacity="0.29" d="M253.737 252.446C253.737 252.446 257.168 252.875 262.173 248.3C262.173 248.3 262.745 251.588 262.03 253.161C261.887 253.161 256.882 254.733 253.737 252.446Z" fill="black"/>
</g>
<path opacity="0.85" d="M233.291 240.151C253.737 240.151 259.885 234.433 263.459 221.138C267.034 207.842 262.316 198.264 267.463 188.257C272.61 178.25 284.62 165.383 287.48 141.08C290.339 116.777 282.476 71.0296 233.148 71.0296H232.004C181.819 71.0296 174.813 116.777 177.672 141.08C180.532 165.383 192.685 178.25 197.689 188.257C202.694 198.264 198.118 207.985 201.693 221.138C205.267 234.29 215.276 240.151 231.861 240.151H233.291Z" fill="#70D5E0"/>
<path opacity="0.58" d="M232.576 235.005C244.263 235.005 253.737 232.508 253.737 229.429C253.737 226.35 244.263 223.854 232.576 223.854C220.889 223.854 211.415 226.35 211.415 229.429C211.415 232.508 220.889 235.005 232.576 235.005Z" fill="#386B70"/>
<path d="M236.151 228.286C235.293 228.143 234.721 227.571 234.721 226.713L239.153 177.535H238.867C238.438 177.535 238.152 177.249 237.866 176.963C237.58 176.677 237.58 176.248 237.723 175.819L250.02 131.931C246.731 133.36 240.869 135.362 234.578 135.505C228.001 135.648 221.567 133.36 217.992 131.788L227.858 176.105C228.001 176.534 227.858 176.963 227.572 177.249C227.286 177.535 226.857 177.821 226.428 177.821H226.285L229.574 226.856C229.574 227.714 229.002 228.286 228.287 228.429C227.572 228.429 226.857 227.857 226.714 227.142L223.426 176.677C223.426 176.248 223.569 175.962 223.854 175.676C224.14 175.39 224.426 175.247 224.855 175.247L214.704 129.786C214.561 129.214 214.847 128.642 215.276 128.357C215.705 128.071 216.277 127.928 216.848 128.214C216.991 128.214 225.999 133.074 234.721 132.788C243.585 132.502 251.735 128.214 251.735 128.214C252.307 127.928 252.879 128.071 253.308 128.357C253.737 128.785 253.88 129.357 253.737 129.929L241.012 175.247C241.727 175.39 242.299 175.962 242.299 176.82L237.723 227.285C237.58 227.714 237.008 228.286 236.151 228.286Z" fill="white"/>
<path d="M231.718 159.665C231.146 159.665 230.86 159.522 230.574 159.236C230.003 158.807 230.003 158.092 229.86 157.663C229.86 157.377 229.86 157.235 229.717 156.949C229.288 157.092 228.716 157.092 228.287 156.806C227 156.377 225.57 155.805 231.003 137.792L230.431 134.075C230.288 133.36 230.86 132.502 231.575 132.502C232.29 132.359 233.148 132.931 233.148 133.646L233.434 135.219L233.863 133.503C234.006 132.788 234.864 132.217 235.579 132.502C236.294 132.645 236.865 133.503 236.58 134.218L235.722 137.935C238.867 156.949 238.581 157.092 237.437 157.663C237.151 157.806 236.58 157.806 236.151 157.806C236.008 157.806 236.008 157.663 235.865 157.663V157.806C235.579 158.664 235.293 159.522 234.149 159.665C233.72 159.665 233.291 159.522 233.005 159.236C232.719 159.522 232.433 159.808 231.861 159.951C231.861 159.665 231.861 159.665 231.718 159.665ZM230.146 153.66C230.86 153.803 231.289 154.232 231.718 154.661C231.861 154.518 231.861 154.375 232.004 154.232C232.576 153.661 233.148 153.518 233.863 153.803C234.149 153.946 234.435 154.089 234.578 154.375C234.721 154.232 234.864 154.232 234.864 154.089C235.007 153.946 235.15 153.946 235.293 153.946C234.864 150.801 234.006 145.083 233.291 140.365C231.861 145.369 230.431 150.944 230.146 153.66Z" fill="white"/>
<path opacity="0.33" d="M267.034 91.0439C276.471 102.052 272.753 120.923 267.177 125.64C261.601 130.358 261.029 115.347 251.592 104.339C242.156 93.3313 227.429 90.3291 233.005 85.6115C238.581 80.8938 257.597 80.036 267.034 91.0439Z" fill="white"/>
<path d="M184.821 39.2924L187.824 30L190.826 39.2924L187.824 48.7278L184.821 39.2924Z" fill="#FD8369"/>
<path d="M187.824 42.2945L178.53 39.2924L187.824 36.2902L197.117 39.2924L187.824 42.2945Z" fill="#FD8369"/>
<path d="M240.44 288.472L243.443 279.036L246.445 288.472L243.443 297.764L240.44 288.472Z" fill="#FD8369"/>
<path d="M243.443 291.474L234.149 288.472L243.443 285.47L252.736 288.472L243.443 291.474Z" fill="#FD8369"/>
<path d="M279.187 69.6L282.19 60.3076L285.192 69.6L282.19 78.8924L279.187 69.6Z" fill="#FD8369"/>
<path d="M282.19 72.6021L272.753 69.6L282.19 66.5978L291.483 69.6L282.19 72.6021Z" fill="#FD8369"/>
<path d="M205.553 297.907L208.556 288.615L211.558 297.907L208.556 307.2L205.553 297.907Z" fill="#FED893"/>
<path d="M208.556 300.909L199.262 297.907L208.556 294.905L217.992 297.907L208.556 300.909Z" fill="#FED893"/>
<path d="M126.057 64.1674L129.06 54.875L132.062 64.1674L129.06 73.4599L126.057 64.1674Z" fill="#FED893"/>
<path d="M129.06 67.1696L119.623 64.1674L129.06 61.1653L138.353 64.1674L129.06 67.1696Z" fill="#FED893"/>
<path d="M289.911 242.725L292.913 233.432L295.916 242.725L292.913 252.16L289.911 242.725Z" fill="#FED893"/>
<path d="M292.913 245.727L283.619 242.725L292.913 239.722L302.35 242.725L292.913 245.727Z" fill="#FED893"/>
<path d="M159.228 78.8923L161.23 72.745L163.232 78.8923L161.23 85.0396L159.228 78.8923Z" fill="#FDB57C"/>
<path d="M161.23 80.8937L155.082 78.8923L161.23 76.8909L167.378 78.8923L161.23 80.8937Z" fill="#FDB57C"/>
<path d="M252.879 36.2902L254.881 30.1429L256.882 36.2902L254.881 42.4375L252.879 36.2902Z" fill="#FDB57C"/>
<path d="M254.881 38.2917L248.733 36.2902L254.881 34.2888L261.029 36.2902L254.881 38.2917Z" fill="#FDB57C"/>
<path d="M208.556 92.9025L210.557 86.7552L212.559 92.9025L210.557 99.0498L208.556 92.9025Z" fill="white"/>
<path d="M210.557 94.9039L204.409 92.9024L210.557 90.901L216.705 92.9024L210.557 94.9039Z" fill="white"/>
<path d="M290.911 290.473L292.913 284.183L294.915 290.473L292.913 296.62L290.911 290.473Z" fill="white"/>
<path d="M292.913 292.332L286.765 290.473L292.913 288.472L299.061 290.473L292.913 292.332Z" fill="white"/>
<path d="M215.562 263.311L217.563 257.164L219.565 263.311L217.563 269.458L215.562 263.311Z" fill="white"/>
<path d="M217.563 265.312L211.415 263.311L217.563 261.309L223.711 263.311L217.563 265.312Z" fill="white"/>
<path d="M310.07 47.5841L311.929 41.4368L313.931 47.5841L311.929 53.8743L310.07 47.5841Z" fill="white"/>
<path d="M311.929 49.5855L305.781 47.5841L311.929 45.7256L318.22 47.5841L311.929 49.5855Z" fill="white"/>
<path d="M182.82 288.472L184.821 282.325L186.823 288.472L184.821 294.619L182.82 288.472Z" fill="white"/>
<path d="M184.821 290.473L178.673 288.472L184.821 286.47L190.969 288.472L184.821 290.473Z" fill="white"/>
<path d="M267.892 54.7321L269.893 48.5848L271.895 54.7321L269.893 60.8793L267.892 54.7321Z" fill="white"/>
<path d="M269.893 56.7335L263.745 54.7321L269.893 52.8736L276.042 54.7321L269.893 56.7335Z" fill="white"/>
<path d="M316.791 86.0403L318.506 80.8938L320.222 86.0403L318.506 91.1869L316.791 86.0403Z" fill="white"/>
<path d="M318.506 87.7558L313.359 86.0403L318.506 84.4677L323.654 86.0403L318.506 87.7558Z" fill="white"/>
<path d="M164.375 56.7335L166.091 51.5869L167.664 56.7335L166.091 61.8801L164.375 56.7335Z" fill="white"/>
<path d="M166.091 58.449L160.944 56.7335L166.091 55.1609L171.238 56.7335L166.091 58.449Z" fill="white"/>
<path d="M270.179 180.394L271.895 175.247L273.468 180.394L271.895 185.541L270.179 180.394Z" fill="white"/>
<path d="M271.895 182.11L266.605 180.394L271.895 178.678L277.042 180.394L271.895 182.11Z" fill="white"/>
<path d="M297.202 111.058L299.061 104.911L301.063 111.058L299.061 117.206L297.202 111.058Z" fill="#FDB57C"/>
<path d="M299.061 112.917L292.913 111.058L299.061 109.057L305.352 111.058L299.061 112.917Z" fill="#FDB57C"/>
</svg>
