<svg width="570" height="310" viewBox="0 0 570 310" fill="none" xmlns="http://www.w3.org/2000/svg">
<path d="M546.227 155.088C643.126 279.018 418.841 310 321.118 310C223.395 310 117.432 257.094 192.249 155.088C238.721 91.6795 281.073 55.8397 369.238 22.1005C572.759 -55.8805 497.448 92.7297 546.227 155.088Z" fill="url(#paint0_linear)"/>
<path d="M59 284.277C59 295.799 47.993 309.392 36 305.156C25.5205 301.431 13 295.822 13 284.277C12.9771 272.732 23.2961 263.399 36 263.399C48.7039 263.399 59 272.732 59 284.277Z" fill="url(#paint1_linear)"/>
<path d="M79.8008 268.243C84.838 270.916 88.2269 279.009 83.5923 283.407C79.5326 287.245 74.1752 291.562 69.1279 288.883C64.0753 286.215 62.3889 279.419 65.3365 273.719C68.284 268.019 74.7535 265.564 79.8008 268.243Z" fill="url(#paint2_linear)"/>
<path d="M287.801 35.2364C292.838 37.9096 296.227 46.0023 291.592 50.4006C287.533 54.2387 282.175 58.5551 277.128 55.8764C272.075 53.2081 270.389 46.4124 273.336 40.7122C276.284 35.012 282.754 32.5578 287.801 35.2364Z" fill="url(#paint3_linear)"/>
<path d="M377 161.167C377 231.702 275.829 314.996 165.586 288.885C69.0368 266.201 -46 231.82 -46 161.167C-46 90.6323 -20.8357 -17.4737 165.414 33.4484C274.117 63.1036 377 90.6323 377 161.167Z" fill="url(#paint4_linear)"/>
<path d="M303.044 215.784H234.844V255.395H303.044V215.784Z" fill="white"/>
<path opacity="0.36" d="M303.044 215.784H234.844V232.399H303.044V215.784Z" fill="#D6BDF1"/>
<path d="M309.044 255.294H228.844C227.844 255.294 227.044 254.484 227.044 253.471V253.369C227.044 252.356 227.844 251.546 228.844 251.546H309.044C310.044 251.546 310.844 252.356 310.844 253.369V253.471C310.744 254.484 309.944 255.294 309.044 255.294Z" fill="white"/>
<path d="M371.044 89.4542H166.844V228.65H371.044V89.4542Z" fill="white"/>
<path d="M371.044 89.4542H166.844V210.212H371.044V89.4542Z" fill="url(#paint5_linear)"/>
<path d="M364.744 96.3431H173.144V203.627H364.744V96.3431Z" fill="white"/>
<path d="M188.044 163.409H233.944C236.644 163.409 238.844 165.637 238.844 168.373V189.951C238.844 192.686 236.644 194.915 233.944 194.915H188.044C185.344 194.915 183.144 192.686 183.144 189.951V168.373C183.244 165.637 185.344 163.409 188.044 163.409Z" fill="#E2F1FF"/>
<path d="M188.244 105.157H233.944C236.644 105.157 238.844 107.386 238.844 110.121V136.056C238.844 138.791 236.644 141.02 233.944 141.02H188.244C185.544 141.02 183.344 138.791 183.344 136.056V110.121C183.444 107.386 185.544 105.157 188.244 105.157Z" fill="#E2F1FF"/>
<path d="M247.944 150.846L301.244 144.768C303.944 144.464 306.344 146.389 306.644 149.124L309.544 174.957C309.844 177.693 307.944 180.124 305.244 180.428L251.944 186.506C249.244 186.81 246.844 184.886 246.544 182.15L243.644 156.317C243.444 153.582 245.344 151.15 247.944 150.846Z" fill="#E2F1FF"/>
<path d="M257.944 142.235H248.444V126.026H257.944V142.235ZM272.944 120.353H263.444V142.134H272.944V120.353ZM287.844 112.552H278.344V142.134H287.844V112.552ZM303.844 105.157H294.344V142.134H303.844V105.157Z" fill="#E2F1FF"/>
<path d="M334.244 190.66C342.087 190.66 348.444 184.219 348.444 176.274C348.444 168.33 342.087 161.889 334.244 161.889C326.402 161.889 320.044 168.33 320.044 176.274C320.044 184.219 326.402 190.66 334.244 190.66Z" fill="#E2F1FF"/>
<path d="M346.744 169.588C347.744 171.614 348.344 173.843 348.344 176.274C348.344 184.176 342.044 190.66 334.144 190.66C326.244 190.66 319.944 184.278 319.944 176.274C319.944 168.271 326.244 161.889 334.144 161.889V176.274L346.744 169.588Z" fill="#B0D4FF"/>
<path d="M348.307 146.436C349.564 138.593 344.307 131.204 336.565 129.931C328.824 128.658 321.53 133.984 320.274 141.826C319.017 149.669 324.275 157.058 332.016 158.331C339.757 159.604 347.051 154.278 348.307 146.436Z" fill="#E2F1FF"/>
<path d="M348.444 144.16C348.444 152.062 342.144 158.546 334.244 158.546C326.344 158.546 320.044 152.163 320.044 144.16C320.044 136.258 326.344 129.774 334.244 129.774V144.16H348.444Z" fill="#B0D4FF"/>
<path d="M313.544 122.278H353.244C353.944 122.278 354.544 122.886 354.544 123.595C354.544 124.304 353.944 124.912 353.244 124.912H313.444C312.744 124.912 312.144 124.304 312.144 123.595C312.144 122.886 312.744 122.278 313.544 122.278ZM313.544 119.34H353.244C353.944 119.34 354.544 118.732 354.544 118.023C354.544 117.314 353.944 116.706 353.244 116.706H313.444C312.744 116.706 312.144 117.314 312.144 118.023C312.144 118.631 312.744 119.34 313.544 119.34ZM313.544 113.565H353.244C353.944 113.565 354.544 112.957 354.544 112.248C354.544 111.539 353.944 110.931 353.244 110.931H313.444C312.744 110.931 312.144 111.539 312.144 112.248C312.144 112.957 312.744 113.565 313.544 113.565ZM313.544 107.892H353.244C353.944 107.892 354.544 107.284 354.544 106.575C354.544 105.866 353.944 105.258 353.244 105.258H313.444C312.744 105.258 312.144 105.866 312.144 106.575C312.144 107.284 312.744 107.892 313.544 107.892Z" fill="#E2F1FF"/>
<path d="M184.644 152.67H237.544C238.244 152.67 238.744 152.163 238.744 151.454V151.252C238.744 150.542 238.244 150.036 237.544 150.036H184.644C183.944 150.036 183.444 150.542 183.444 151.252V151.454C183.444 152.062 183.944 152.67 184.644 152.67Z" fill="#E2F1FF"/>
<path d="M184.644 158.141H237.544C238.244 158.141 238.744 157.634 238.744 156.925V156.621C238.744 155.912 238.244 155.405 237.544 155.405H184.644C183.944 155.405 183.444 155.912 183.444 156.621V156.824C183.444 157.634 183.944 158.141 184.644 158.141Z" fill="#E2F1FF"/>
<path d="M107.144 111.337H130.244C132.344 111.337 134.044 109.614 134.044 107.487V91.8856C134.044 89.7581 132.344 88.0359 130.244 88.0359H107.144C105.044 88.0359 103.344 89.7581 103.344 91.8856V107.487C103.344 109.614 105.044 111.337 107.144 111.337Z" fill="white"/>
<path d="M127.744 110.222L132.644 115.186L119.944 110.222" fill="white"/>
<path d="M130.744 95.9378H106.744C106.244 95.9378 105.844 95.5326 105.844 95.0261C105.844 94.5195 106.244 94.1143 106.744 94.1143H130.744C131.244 94.1143 131.644 94.5195 131.644 95.0261C131.644 95.5326 131.244 95.9378 130.744 95.9378ZM131.644 99.6862C131.644 99.1797 131.244 98.7744 130.744 98.7744H106.744C106.244 98.7744 105.844 99.1797 105.844 99.6862C105.844 100.193 106.244 100.598 106.744 100.598H130.744C131.244 100.598 131.644 100.193 131.644 99.6862ZM131.644 104.448C131.644 103.941 131.244 103.536 130.744 103.536H106.744C106.244 103.536 105.844 103.941 105.844 104.448C105.844 104.954 106.244 105.359 106.744 105.359H130.744C131.244 105.359 131.644 104.954 131.644 104.448Z" fill="#E2F1FF"/>
<path d="M248.944 174.451C248.244 172.425 248.044 170.905 247.644 170.804C247.244 170.703 246.844 172.425 246.844 172.425C246.244 172.425 245.044 168.474 244.844 168.271C244.244 167.765 243.744 173.033 246.044 174.957C248.344 176.781 248.944 174.451 248.944 174.451Z" fill="#FFC9C5"/>
<path d="M274.844 170.095C274.644 171.31 274.344 173.742 274.444 174.451C274.644 175.363 277.744 174.654 277.744 174.654L277.544 169.69L274.844 170.095Z" fill="#FBA394"/>
<path d="M273.444 168.575C273.944 169.69 274.944 170.5 276.144 170.601C277.344 170.703 278.544 170.196 279.144 169.183C279.944 168.069 279.944 166.549 279.744 165.232C279.444 163.105 278.644 160.977 277.144 159.458L272.144 162.497L270.944 165.84L273.444 168.575Z" fill="#FFC9C5"/>
<path d="M276.644 161.889C277.544 161.382 280.444 159.559 280.244 158.141C279.044 158.748 276.744 157.026 273.644 157.533C272.844 157.634 272.144 157.735 271.544 158.242C270.444 159.052 269.644 160.572 270.044 161.889C268.844 162.092 267.944 163.307 267.744 164.523C267.344 166.346 268.144 168.271 269.444 169.487C270.844 170.703 272.844 171.108 274.544 170.703C274.744 170.703 274.944 170.601 275.044 170.399C275.244 170.095 275.044 169.791 274.744 169.487C274.144 168.778 273.544 168.069 272.944 167.258C272.844 167.056 272.644 166.853 272.644 166.65C272.444 165.637 274.244 166.853 274.544 166.549C275.244 165.84 274.244 165.536 274.444 164.32C274.644 162.699 275.244 162.801 276.644 161.889Z" fill="#241D9E"/>
<path d="M274.544 252.052L277.844 255.294H271.044L271.444 252.052H274.544Z" fill="#030478"/>
<path d="M285.444 252.052L293.944 255.294H282.044L282.444 252.052H285.444Z" fill="#030478"/>
<path d="M286.044 252.255L284.944 205.046L274.444 204.134C274.444 204.134 274.444 204.438 274.544 204.843H268.644C268.644 205.552 270.844 252.458 270.844 252.458H275.244L276.644 212.137C278.944 226.219 282.244 252.458 282.244 252.458L286.044 252.255Z" fill="url(#paint6_linear)"/>
<path d="M304.344 170.703C305.044 168.676 305.244 167.157 305.644 167.056C306.044 166.954 306.444 168.676 306.444 168.676C307.044 168.676 308.244 164.726 308.444 164.523C309.044 164.016 309.544 169.284 307.244 171.209C304.944 173.033 304.344 170.703 304.344 170.703Z" fill="#FFC9C5"/>
<path d="M303.844 170.196C302.244 172.83 296.744 177.997 292.344 179.516C292.344 179.516 286.044 176.781 282.644 174.147C280.444 172.425 274.444 171.31 270.244 173.742C266.544 175.869 260.044 180.935 260.044 180.935C257.544 180.327 253.044 176.984 248.644 173.742L246.544 175.464C246.544 175.464 253.044 184.075 259.444 186.608C262.044 187.621 266.244 183.67 268.844 182.15C268.344 184.683 267.544 193.699 267.444 207.376C271.844 208.49 281.744 207.173 287.044 206.565C285.744 196.333 282.944 184.177 282.944 180.732C286.144 183.67 290.144 185.696 293.344 184.582C299.144 182.556 305.844 172.222 305.844 172.222L303.844 170.196Z" fill="url(#paint7_linear)"/>
<path d="M434.244 204.033H388.644C387.144 204.033 385.844 202.716 385.844 201.196V175.869C385.844 174.35 387.144 173.033 388.644 173.033H434.244C435.744 173.033 437.044 174.35 437.044 175.869V201.196C437.044 202.817 435.744 204.033 434.244 204.033Z" fill="white"/>
<g opacity="0.52">
<path opacity="0.52" d="M389.244 188.634V188.431C389.244 183.873 392.844 180.226 397.344 180.226C397.444 180.226 397.544 180.226 397.544 180.226C402.044 180.226 405.644 183.873 405.644 188.431V188.634C405.644 193.193 402.044 196.84 397.544 196.84C397.444 196.84 397.344 196.84 397.344 196.84C392.844 196.84 389.244 193.193 389.244 188.634Z" fill="#B0D4FF"/>
<path opacity="0.52" d="M433.244 183.771H408.844C408.644 183.771 408.444 183.569 408.444 183.366C408.444 183.163 408.644 182.961 408.844 182.961H433.244C433.444 182.961 433.644 183.163 433.644 183.366C433.644 183.569 433.444 183.771 433.244 183.771ZM433.644 185.899C433.644 185.696 433.444 185.493 433.244 185.493H408.844C408.644 185.493 408.444 185.696 408.444 185.899C408.444 186.101 408.644 186.304 408.844 186.304H433.244C433.444 186.405 433.644 186.203 433.644 185.899ZM433.644 188.533C433.644 188.33 433.444 188.127 433.244 188.127H408.844C408.644 188.127 408.444 188.33 408.444 188.533C408.444 188.735 408.644 188.938 408.844 188.938H433.244C433.444 188.938 433.644 188.735 433.644 188.533ZM433.644 191.167C433.644 190.964 433.444 190.761 433.244 190.761H408.844C408.644 190.761 408.444 190.964 408.444 191.167C408.444 191.369 408.644 191.572 408.844 191.572H433.244C433.444 191.572 433.644 191.369 433.644 191.167ZM433.644 193.801C433.644 193.598 433.444 193.395 433.244 193.395H408.844C408.644 193.395 408.444 193.598 408.444 193.801C408.444 194.003 408.644 194.206 408.844 194.206H433.244C433.444 194.206 433.644 194.003 433.644 193.801Z" fill="#B0D4FF"/>
</g>
<path opacity="0.36" d="M106.1 228.549H61.9C60 228.549 58.4 226.928 58.4 225.003V201.095C58.4 199.17 60 197.549 61.9 197.549H106.1C108 197.549 109.6 199.17 109.6 201.095V225.003C109.7 227.029 108.1 228.549 106.1 228.549Z" fill="#D6BDF1"/>
<path d="M104.4 228.549H58.8C57.3 228.549 56 227.232 56 225.712V200.386C56 198.866 57.3 197.549 58.8 197.549H104.4C105.9 197.549 107.2 198.866 107.2 200.386V225.814C107.2 227.333 105.9 228.549 104.4 228.549Z" fill="white"/>
<g opacity="0.52">
<path opacity="0.52" d="M59.4 213.15V212.948C59.4 208.389 63 204.742 67.5 204.742C67.6 204.742 67.7 204.742 67.7 204.742C72.2 204.742 75.8 208.389 75.8 212.948V213.15C75.8 217.709 72.2 221.356 67.7 221.356C67.6 221.356 67.5 221.356 67.5 221.356C63 221.356 59.4 217.709 59.4 213.15Z" fill="#B0D4FF"/>
<path opacity="0.52" d="M103.4 208.288H79C78.8 208.288 78.6 208.085 78.6 207.882C78.6 207.68 78.8 207.477 79 207.477H103.4C103.6 207.477 103.8 207.68 103.8 207.882C103.8 208.085 103.6 208.288 103.4 208.288ZM103.8 210.415C103.8 210.213 103.6 210.01 103.4 210.01H79C78.8 210.01 78.6 210.213 78.6 210.415C78.6 210.618 78.8 210.82 79 210.82H103.4C103.6 210.82 103.8 210.719 103.8 210.415ZM103.8 213.049C103.8 212.847 103.6 212.644 103.4 212.644H79C78.8 212.644 78.6 212.847 78.6 213.049C78.6 213.252 78.8 213.454 79 213.454H103.4C103.6 213.454 103.8 213.252 103.8 213.049ZM103.8 215.683C103.8 215.481 103.6 215.278 103.4 215.278H79C78.8 215.278 78.6 215.481 78.6 215.683C78.6 215.886 78.8 216.088 79 216.088H103.4C103.6 216.088 103.8 215.886 103.8 215.683ZM103.8 218.317C103.8 218.114 103.6 217.912 103.4 217.912H79C78.8 217.912 78.6 218.114 78.6 218.317C78.6 218.52 78.8 218.722 79 218.722H103.4C103.6 218.722 103.8 218.52 103.8 218.317Z" fill="#B0D4FF"/>
</g>
<path opacity="0.36" d="M192.144 124.203H215.844C217.744 124.203 219.244 125.722 219.244 127.647V143.957C219.244 145.882 217.744 147.402 215.844 147.402H214.144L213.544 152.771L208.144 147.402H192.144C190.244 147.402 188.744 145.882 188.744 143.957V127.647C188.744 125.722 190.244 124.203 192.144 124.203Z" fill="#B0BDF1"/>
<path d="M190.244 144.667H213.044C215.144 144.667 216.844 142.944 216.844 140.817V125.317C216.844 123.19 215.144 121.467 213.044 121.467H190.244C188.144 121.467 186.444 123.19 186.444 125.317V140.817C186.444 142.944 188.144 144.667 190.244 144.667Z" fill="white"/>
<path d="M210.644 143.552L211.144 151.556L202.844 143.552" fill="white"/>
<path d="M213.544 129.369H189.744C189.244 129.369 188.844 128.964 188.844 128.458C188.844 127.951 189.244 127.546 189.744 127.546H213.544C214.044 127.546 214.444 127.951 214.444 128.458C214.444 128.964 214.044 129.369 213.544 129.369ZM214.444 133.118C214.444 132.611 214.044 132.206 213.544 132.206H189.744C189.244 132.206 188.844 132.611 188.844 133.118C188.844 133.624 189.244 134.029 189.744 134.029H213.544C214.044 134.029 214.444 133.624 214.444 133.118ZM214.444 137.879C214.444 137.373 214.044 136.967 213.544 136.967H189.744C189.244 136.967 188.844 137.373 188.844 137.879C188.844 138.386 189.244 138.791 189.744 138.791H213.544C214.044 138.791 214.444 138.386 214.444 137.879Z" fill="#E2F1FF"/>
<path d="M462.244 121.974H439.444C437.344 121.974 435.644 120.252 435.644 118.124V102.725C435.644 100.598 437.344 98.8757 439.444 98.8757H462.244C464.344 98.8757 466.044 100.598 466.044 102.725V118.225C466.044 120.252 464.344 121.974 462.244 121.974Z" fill="white"/>
<path d="M441.844 120.859L436.944 125.823L449.644 120.859" fill="white"/>
<path d="M438.044 105.765C438.044 105.258 438.444 104.853 438.944 104.853H462.744C463.244 104.853 463.644 105.258 463.644 105.765C463.644 106.271 463.244 106.676 462.744 106.676H438.944C438.444 106.575 438.044 106.17 438.044 105.765ZM438.944 111.337H462.744C463.244 111.337 463.644 110.931 463.644 110.425C463.644 109.918 463.244 109.513 462.744 109.513H438.944C438.444 109.513 438.044 109.918 438.044 110.425C438.044 110.931 438.444 111.337 438.944 111.337ZM438.944 115.997H462.744C463.244 115.997 463.644 115.591 463.644 115.085C463.644 114.578 463.244 114.173 462.744 114.173H438.944C438.444 114.173 438.044 114.578 438.044 115.085C438.044 115.591 438.444 115.997 438.944 115.997Z" fill="#E2F1FF"/>
<path d="M414.244 168.919C412.444 171.249 413.144 174.592 414.644 174.187C416.144 173.781 430.544 174.794 431.444 173.984C432.444 173.174 432.844 168.919 429.344 168.108C426.844 167.602 414.244 168.919 414.244 168.919Z" fill="#FFBA49"/>
<path d="M427.744 202.147C427.344 204.579 426.644 208.327 427.544 208.53C428.444 208.732 430.944 208.732 430.944 207.922C430.944 207.111 430.244 202.35 430.144 201.843C430.044 201.236 427.744 202.147 427.744 202.147Z" fill="#241D9E"/>
<path d="M417.044 203.16C416.644 205.592 415.944 209.34 416.844 209.543C417.744 209.745 420.244 209.745 420.244 208.935C420.244 208.124 419.544 203.363 419.444 202.856C419.344 202.249 417.044 203.16 417.044 203.16Z" fill="#241D9E"/>
<path d="M429.944 129.307C430.244 132.043 430.844 137.919 428.744 138.02C425.944 138.121 418.444 138.02 418.044 138.02C416.044 137.919 417.344 129.713 417.344 128.7C417.244 121.304 428.844 121.203 429.944 129.307Z" fill="#241D9E"/>
<path d="M415.844 148.657L414.244 159.396L412.244 166.487L416.344 165.879L419.344 160.611L419.644 146.935L415.844 148.657Z" fill="#FFDEDE"/>
<path d="M421.844 138.02C417.544 138.83 415.644 143.085 414.644 149.265L421.944 150.075L421.744 143.794" fill="white"/>
<path d="M432.544 145.719C433.644 152.709 433.944 159.902 433.644 166.994L429.544 166.386L429.144 157.674L428.844 143.997L432.544 145.719Z" fill="#FFDEDE"/>
<path d="M426.944 138.02C431.244 138.83 433.144 143.085 434.144 149.265L426.844 150.075L427.044 143.794" fill="white"/>
<path d="M431.244 156.255C430.344 141.363 429.544 136.602 422.244 137.919C416.244 139.033 417.144 155.647 416.644 157.674C416.144 159.7 413.444 169.729 413.444 169.729C419.844 169.526 427.244 169.628 431.644 169.628C431.644 169.628 431.444 159.598 431.244 156.255Z" fill="url(#paint8_linear)"/>
<path d="M414.144 172.363C413.244 182.089 416.244 204.376 416.244 204.376L420.044 203.971C420.344 202.553 421.744 181.379 421.844 172.262C421.944 167.906 414.644 166.994 414.144 172.363Z" fill="url(#paint9_linear)"/>
<path d="M424.944 172.363C424.044 182.089 427.044 204.376 427.044 204.376L430.844 203.971C431.144 202.553 432.544 181.379 432.644 172.262C432.644 167.906 425.444 166.994 424.944 172.363Z" fill="url(#paint10_linear)"/>
<path d="M427.044 131.131C426.744 129.105 425.844 128.497 423.744 129.51C422.444 130.219 419.844 130.726 418.744 130.118C418.744 130.625 418.844 131.232 418.944 131.739C418.844 131.739 418.844 131.739 418.744 131.739C418.644 131.84 418.544 131.942 418.444 132.043C418.144 132.549 418.344 133.157 418.644 133.562C418.844 133.866 419.244 133.968 419.544 134.069C420.144 135.791 421.144 137.108 422.444 137.21C422.544 137.716 422.544 138.223 422.444 138.932C422.544 139.438 424.544 139.337 425.144 138.83C425.044 138.121 424.844 137.615 424.844 137.007C426.244 136.804 426.844 134.981 427.344 133.056C429.444 131.942 427.944 129.713 427.044 131.131Z" fill="#FFDEDE"/>
<path d="M433.844 168.007H412.244C411.144 168.007 410.244 167.095 410.244 165.981V152.405C410.244 151.291 411.144 150.379 412.244 150.379H433.844C434.944 150.379 435.844 151.291 435.844 152.405V166.082C435.744 167.095 434.944 168.007 433.844 168.007Z" fill="url(#paint11_linear)"/>
<path d="M434.944 170.033H411.144C410.644 170.033 410.244 169.628 410.244 169.121V168.919C410.244 168.412 410.644 168.007 411.144 168.007H434.944C435.444 168.007 435.844 168.412 435.844 168.919V169.121C435.744 169.628 435.344 170.033 434.944 170.033Z" fill="url(#paint12_linear)"/>
<path d="M113.744 173.843L112.044 175.768L105.744 176.781L114.144 179.01L116.444 175.059L113.744 173.843Z" fill="#030478"/>
<path d="M155.544 141.729C158.144 149.124 155.544 151.15 151.044 152.67C149.244 153.278 134.544 151.859 130.144 153.278C125.744 154.696 116.444 176.578 116.444 176.578L112.444 174.147C112.444 174.147 121.644 148.516 122.944 147.605C125.044 146.186 137.144 144.971 140.644 143.957C144.144 143.046 146.844 139.399 146.844 139.399L155.544 141.729Z" fill="url(#paint13_linear)"/>
<path d="M154.344 124.912C154.344 124.912 153.344 135.346 152.144 137.474C150.944 139.601 136.944 144.363 135.744 144.464C134.544 144.565 132.544 143.552 132.544 143.552C132.544 143.552 129.444 144.667 128.944 144.363C128.444 144.059 131.744 141.729 132.944 141.526C134.244 141.323 136.144 142.235 136.144 142.235C136.144 142.235 146.944 137.676 148.144 135.752C149.344 133.827 150.244 124.101 150.244 124.101L154.344 124.912Z" fill="#F8C3C7"/>
<path d="M152.844 113.261L154.044 118.225L150.644 119.036L150.044 114.984L152.844 113.261Z" fill="#FFCCCC"/>
<path d="M153.044 112.046C153.044 112.147 152.944 112.248 152.944 112.451C152.844 113.363 152.544 114.274 152.044 114.984C151.444 115.794 150.644 116.402 149.644 116.503C148.744 116.604 147.944 116.199 147.244 115.591C146.644 114.984 146.144 114.173 145.844 113.363C145.344 112.046 144.844 110.425 145.544 109.209C145.944 108.601 147.844 107.689 149.144 107.082C149.944 106.676 150.944 106.879 151.544 107.588L152.844 109.108C153.344 109.716 153.544 110.425 153.244 111.134L153.044 112.046Z" fill="#FFCCCC"/>
<path d="M151.144 108.399C151.544 108.297 151.944 108.601 152.144 108.905C152.344 109.31 152.244 109.716 152.044 110.121C151.844 110.526 151.544 110.83 151.344 111.134C151.844 111.944 152.744 112.856 152.644 113.768C153.344 113.363 153.344 112.755 153.844 112.147C154.844 110.931 156.444 106.17 152.844 104.853C148.944 99.6862 143.344 107.588 142.444 107.183C142.444 108.196 143.444 109.918 145.544 110.222C146.444 110.323 147.444 110.222 148.244 109.716C148.644 109.513 149.044 109.209 149.444 109.006C149.744 108.905 150.144 110.323 150.344 110.222C150.644 110.121 150.744 108.5 151.144 108.399Z" fill="#241D9E"/>
<path d="M115.044 175.059L113.344 176.984L107.144 177.895L115.544 180.226L117.844 176.173L115.044 175.059Z" fill="#030478"/>
<path d="M155.144 140.513C157.744 147.908 156.844 152.366 152.344 153.886C150.544 154.493 129.844 154.696 129.844 154.696L117.844 177.895L113.844 175.464C113.844 175.464 123.844 149.631 124.944 148.618C126.144 147.706 138.144 145.984 141.644 144.971C145.144 144.059 146.644 138.183 146.644 138.183L155.144 140.513Z" fill="url(#paint14_linear)"/>
<path d="M149.244 118.529C152.544 115.693 157.044 117.212 157.344 126.634C157.644 135.549 157.544 147.199 157.544 147.199C151.844 148.516 145.844 146.591 140.844 144.261C140.844 144.261 145.544 138.284 146.544 132.51C147.244 127.748 146.544 120.859 149.244 118.529Z" fill="#5EB6FF"/>
<path d="M151.844 125.621C152.944 125.824 153.644 126.837 153.544 127.951C153.244 131.091 152.444 136.967 151.544 138.588C150.344 140.716 139.144 145.072 137.944 145.173C137.144 145.274 136.044 144.869 135.444 144.565C135.044 144.363 134.544 144.363 134.044 144.565C133.144 144.869 131.544 145.376 131.144 145.173C130.644 144.869 133.944 142.539 135.144 142.337C135.844 142.235 136.844 142.438 137.544 142.742C138.144 142.944 138.744 142.944 139.244 142.641C141.344 141.526 146.644 138.588 147.544 137.069C148.344 135.752 149.044 130.585 149.444 127.647C149.544 126.229 150.644 125.418 151.844 125.621Z" fill="#FFCCCC"/>
<path d="M152.544 118.935C156.744 120.049 154.744 128.964 154.744 128.964C152.844 129.673 150.444 129.369 147.844 128.66C148.644 126.533 148.844 117.922 152.544 118.935Z" fill="white"/>
<path d="M124.344 145.882H140.644C141.144 145.882 141.544 145.477 141.544 144.971C141.544 144.464 141.144 144.059 140.644 144.059H125.144L122.944 129.471C122.844 128.964 122.344 128.559 121.844 128.66C121.344 128.761 120.944 129.268 121.044 129.774L123.344 145.173C123.544 145.578 123.944 145.882 124.344 145.882Z" fill="url(#paint15_linear)"/>
<path d="M131.644 255.294H187.944C190.044 255.294 191.844 253.572 191.844 251.343V158.039C191.844 155.912 190.144 154.088 187.944 154.088H131.644C129.544 154.088 127.744 155.81 127.744 158.039V251.343C127.844 253.572 129.544 255.294 131.644 255.294Z" fill="url(#paint16_linear)"/>
<path d="M127.794 248.485H191.794V160.956H127.794L127.794 248.485Z" fill="white"/>
<path opacity="0.69" d="M132.444 166.245C132.444 165.536 133.044 165.029 133.644 165.029H185.944C186.644 165.029 187.144 165.637 187.144 166.245C187.144 166.954 186.544 167.461 185.944 167.461H133.644C132.944 167.461 132.444 166.954 132.444 166.245Z" fill="#E2F1FF"/>
<path opacity="0.69" d="M132.444 171.716C132.444 171.006 133.044 170.5 133.644 170.5H185.944C186.644 170.5 187.144 171.108 187.144 171.716C187.144 172.425 186.544 172.931 185.944 172.931H133.644C132.944 173.033 132.444 172.425 132.444 171.716Z" fill="#E2F1FF"/>
<path opacity="0.69" d="M132.444 177.288C132.444 176.578 133.044 176.072 133.644 176.072H185.944C186.644 176.072 187.144 176.68 187.144 177.288C187.144 177.997 186.544 178.503 185.944 178.503H133.644C132.944 178.503 132.444 177.895 132.444 177.288Z" fill="#E2F1FF"/>
<path opacity="0.69" d="M132.444 182.758C132.444 182.049 133.044 181.542 133.644 181.542H185.944C186.644 181.542 187.144 182.15 187.144 182.758C187.144 183.467 186.544 183.974 185.944 183.974H133.644C132.944 183.974 132.444 183.467 132.444 182.758Z" fill="#E2F1FF"/>
<path d="M136.944 229.056H182.644C185.144 229.056 187.244 227.029 187.244 224.395V191.369C187.244 188.837 185.244 186.709 182.644 186.709H136.944C134.444 186.709 132.344 188.735 132.344 191.369V224.497C132.444 227.029 134.444 229.056 136.944 229.056Z" fill="#E2F1FF"/>
<path d="M135.044 237.261H184.644C186.044 237.261 187.244 238.477 187.244 239.895V241.212C187.244 242.631 186.044 243.846 184.644 243.846H135.044C133.644 243.846 132.444 242.631 132.444 241.212V239.895C132.444 238.376 133.544 237.261 135.044 237.261ZM132.444 233.513C132.444 234.222 132.944 234.729 133.644 234.729H186.044C186.744 234.729 187.244 234.222 187.244 233.513C187.244 232.804 186.744 232.297 186.044 232.297H133.644C132.944 232.297 132.444 232.804 132.444 233.513Z" fill="#E2F1FF"/>
<path d="M209.144 208.592C210.244 208.794 216.744 206.971 219.444 204.641C219.444 204.641 215.844 191.167 215.944 187.824C216.044 184.48 214.244 177.49 211.944 182.758C209.644 188.026 209.144 208.592 209.144 208.592Z" fill="url(#paint17_linear)"/>
<path d="M209.344 250.026L209.244 252.255L214.144 255.294H205.744L206.944 249.317L209.344 250.026Z" fill="#030478"/>
<path d="M204.044 202.614C203.944 206.667 206.444 251.647 206.444 251.647L209.644 252.255L214.244 203.121L204.044 202.614Z" fill="url(#paint18_linear)"/>
<path d="M213.644 250.026L213.544 252.255L218.444 255.294H210.044L211.244 249.317L213.644 250.026Z" fill="#030478"/>
<path d="M208.344 202.614C208.244 206.667 210.744 251.647 210.744 251.647L213.944 252.255L217.044 202.716L208.344 202.614Z" fill="url(#paint19_linear)"/>
<path d="M206.844 205.248C213.744 205.451 217.044 203.526 217.444 202.918C217.844 202.209 217.344 201.804 217.044 200.892C216.144 197.346 213.844 188.127 213.944 185.493C214.044 182.15 212.244 175.16 209.944 180.428C207.544 185.696 206.844 205.248 206.844 205.248Z" fill="white"/>
<path d="M242.944 189.343L225.544 204.033L221.244 195.928L236.344 184.582L242.944 189.343Z" fill="#030478"/>
<path d="M241.644 189.444L225.644 202.614L221.844 196.029L236.244 185.19L241.644 189.444Z" fill="white"/>
<path d="M242.144 188.026L241.444 188.533L237.144 185.493L237.744 185.088L242.144 188.026Z" fill="#00D1FF"/>
<path d="M231.244 179.82L231.544 182.859C231.544 182.859 220.044 195.219 209.544 183.467L210.344 176.477C210.344 176.477 216.944 190.559 231.244 179.82Z" fill="url(#paint20_linear)"/>
<path d="M231.244 179.82C232.644 179.314 233.244 177.794 234.044 179.415C235.544 182.454 231.544 182.86 231.544 182.86L231.244 179.82Z" fill="#FFCCCC"/>
<path d="M232.344 173.64L234.644 182.556L234.544 183.771L233.844 182.859L231.544 173.944C231.544 173.235 232.044 173.033 232.344 173.64Z" fill="#030478"/>
<path d="M232.544 180.327C232.544 180.327 234.244 180.935 234.444 180.631C234.644 180.327 233.144 179.618 232.744 179.111C232.444 178.605 231.744 180.023 231.744 180.023L232.544 180.327Z" fill="#FFCCCC"/>
<path d="M213.544 171.716L211.844 175.667L210.244 174.35L210.044 169.892L213.544 171.716Z" fill="#FFCCCC"/>
<path d="M216.844 165.232C217.544 169.69 217.344 172.628 214.144 172.83C211.144 173.033 208.644 168.271 208.644 168.271C206.344 163.206 215.644 157.634 216.844 165.232Z" fill="#FFCCCC"/>
<path d="M219.144 160.876C216.144 165.232 211.944 165.941 210.644 165.435C210.044 165.232 210.044 165.941 210.244 167.258C208.544 166.448 209.144 168.575 210.344 169.386C210.744 170.196 210.844 171.31 210.844 171.31C210.844 171.31 206.744 168.575 206.744 165.738C206.744 162.294 209.244 162.598 209.244 162.598C209.244 162.598 210.744 157.938 214.944 159.356C219.144 160.876 219.144 160.876 219.144 160.876Z" fill="#241D9E"/>
<path d="M213.344 174.552L209.244 172.222L208.144 174.35L214.044 177.693L213.344 174.552Z" fill="white"/>
<path d="M232.744 195.928L232.244 199.676C232.344 199.778 219.544 204.641 214.044 190.154C214.044 190.154 215.444 199.879 217.444 206.971C217.444 206.971 211.144 210.01 202.844 208.591C202.844 208.591 201.744 182.859 207.344 174.856C210.344 170.601 214.544 177.591 215.544 181.846C216.844 187.216 219.944 199.373 232.744 195.928Z" fill="url(#paint21_linear)"/>
<path d="M232.744 195.928C232.744 195.928 234.944 195.32 235.744 195.827C236.544 196.333 235.444 198.157 234.444 199.17C233.444 200.183 232.244 199.575 232.244 199.575L232.744 195.928Z" fill="#FFCCCC"/>
<defs>
<linearGradient id="paint0_linear" x1="179.265" y1="37.2" x2="579.702" y2="75.5027" gradientUnits="userSpaceOnUse">
<stop stop-color="#EBEDFB"/>
<stop offset="1" stop-color="#EFECFB"/>
</linearGradient>
<linearGradient id="paint1_linear" x1="14.4" y1="268.505" x2="60.2356" y2="272.151" gradientUnits="userSpaceOnUse">
<stop stop-color="#EBEDFB"/>
<stop offset="1" stop-color="#EFECFB"/>
</linearGradient>
<linearGradient id="paint2_linear" x1="62.5571" y1="284.595" x2="75.055" y2="265.047" gradientUnits="userSpaceOnUse">
<stop stop-color="#EBEDFB"/>
<stop offset="1" stop-color="#EFECFB"/>
</linearGradient>
<linearGradient id="paint3_linear" x1="270.557" y1="51.5887" x2="283.055" y2="32.0404" gradientUnits="userSpaceOnUse">
<stop stop-color="#EBEDFB"/>
<stop offset="1" stop-color="#EFECFB"/>
</linearGradient>
<linearGradient id="paint4_linear" x1="-33.1261" y1="53.0849" x2="385.608" y2="100.731" gradientUnits="userSpaceOnUse">
<stop stop-color="#EBEDFB"/>
<stop offset="1" stop-color="#E5DFFC"/>
</linearGradient>
<linearGradient id="paint5_linear" x1="307.72" y1="54.6051" x2="236.986" y2="223.825" gradientUnits="userSpaceOnUse">
<stop stop-color="#085EFF"/>
<stop offset="0.9981" stop-color="#0E0092"/>
</linearGradient>
<linearGradient id="paint6_linear" x1="277.319" y1="197.329" x2="277.319" y2="253.181" gradientUnits="userSpaceOnUse">
<stop stop-color="#085EFF"/>
<stop offset="0.9981" stop-color="#0E0092"/>
</linearGradient>
<linearGradient id="paint7_linear" x1="276.323" y1="163.486" x2="276.323" y2="207.891" gradientUnits="userSpaceOnUse">
<stop stop-color="#FFC504"/>
<stop offset="0.2528" stop-color="#FFB504"/>
<stop offset="0.7431" stop-color="#FF8C05"/>
<stop offset="1" stop-color="#FF7406"/>
</linearGradient>
<linearGradient id="paint8_linear" x1="422.594" y1="128.962" x2="422.594" y2="160.866" gradientUnits="userSpaceOnUse">
<stop stop-color="#FF6570"/>
<stop offset="1" stop-color="#EC374F"/>
</linearGradient>
<linearGradient id="paint9_linear" x1="417.933" y1="166.954" x2="417.933" y2="200.967" gradientUnits="userSpaceOnUse">
<stop stop-color="#FFC504"/>
<stop offset="0.2528" stop-color="#FFB504"/>
<stop offset="0.7431" stop-color="#FF8C05"/>
<stop offset="1" stop-color="#FF7406"/>
</linearGradient>
<linearGradient id="paint10_linear" x1="428.684" y1="166.954" x2="428.684" y2="200.967" gradientUnits="userSpaceOnUse">
<stop stop-color="#FFC504"/>
<stop offset="0.2528" stop-color="#FFB504"/>
<stop offset="0.7431" stop-color="#FF8C05"/>
<stop offset="1" stop-color="#FF7406"/>
</linearGradient>
<linearGradient id="paint11_linear" x1="423.019" y1="178.062" x2="423.019" y2="148.866" gradientUnits="userSpaceOnUse">
<stop offset="0.00102163" stop-color="#2212BB"/>
<stop offset="0.4428" stop-color="#7812DA"/>
<stop offset="1" stop-color="#E112FF"/>
</linearGradient>
<linearGradient id="paint12_linear" x1="423.019" y1="178.154" x2="423.019" y2="159.912" gradientUnits="userSpaceOnUse">
<stop offset="0.00102163" stop-color="#2212BB"/>
<stop offset="0.4428" stop-color="#7812DA"/>
<stop offset="1" stop-color="#E112FF"/>
</linearGradient>
<linearGradient id="paint13_linear" x1="143.401" y1="141.962" x2="124.347" y2="172.426" gradientUnits="userSpaceOnUse">
<stop stop-color="#085EFF"/>
<stop offset="0.9981" stop-color="#0E0092"/>
</linearGradient>
<linearGradient id="paint14_linear" x1="142.434" y1="146.31" x2="116.137" y2="189.341" gradientUnits="userSpaceOnUse">
<stop stop-color="#085EFF"/>
<stop offset="0.9981" stop-color="#0E0092"/>
</linearGradient>
<linearGradient id="paint15_linear" x1="121.12" y1="137.246" x2="141.586" y2="137.246" gradientUnits="userSpaceOnUse">
<stop stop-color="#FFC504"/>
<stop offset="0.2528" stop-color="#FFB504"/>
<stop offset="0.7431" stop-color="#FF8C05"/>
<stop offset="1" stop-color="#FF7406"/>
</linearGradient>
<linearGradient id="paint16_linear" x1="211.371" y1="172.666" x2="91.4965" y2="245.315" gradientUnits="userSpaceOnUse">
<stop stop-color="#085EFF"/>
<stop offset="0.9981" stop-color="#0E0092"/>
</linearGradient>
<linearGradient id="paint17_linear" x1="207.217" y1="180.161" x2="216.282" y2="207.576" gradientUnits="userSpaceOnUse">
<stop stop-color="#FF6570"/>
<stop offset="1" stop-color="#EC374F"/>
</linearGradient>
<linearGradient id="paint18_linear" x1="209.094" y1="192.918" x2="209.094" y2="239.655" gradientUnits="userSpaceOnUse">
<stop stop-color="#085EFF"/>
<stop offset="0.9981" stop-color="#0E0092"/>
</linearGradient>
<linearGradient id="paint19_linear" x1="212.656" y1="200.426" x2="212.656" y2="253.391" gradientUnits="userSpaceOnUse">
<stop stop-color="#085EFF"/>
<stop offset="0.9981" stop-color="#0E0092"/>
</linearGradient>
<linearGradient id="paint20_linear" x1="240.391" y1="180.746" x2="209.743" y2="182.827" gradientUnits="userSpaceOnUse">
<stop stop-color="#FF6570"/>
<stop offset="1" stop-color="#EC374F"/>
</linearGradient>
<linearGradient id="paint21_linear" x1="217.742" y1="176.727" x2="217.742" y2="212.58" gradientUnits="userSpaceOnUse">
<stop stop-color="#FF6570"/>
<stop offset="1" stop-color="#EC374F"/>
</linearGradient>
</defs>
</svg>
