<svg width="1920" height="680" viewBox="0 0 1920 680" fill="none" xmlns="http://www.w3.org/2000/svg">
<rect opacity="0.05" width="1920" height="680" fill="#15A0DB"/>
<path opacity="0.05" d="M1067 43C985.5 50.1912 900.1 68.4 598.5 84C300.678 99.4046 76.7581 51.545 0 25V10H1920V25C1823.83 54.3333 1592.6 105.1 1427 71.5C1261.4 37.9 1118 38.5 1067 43Z" fill="#15A0DB"/>
<path d="M1067 18C985.5 25.1912 900.1 43.4 598.5 59C300.678 74.4046 76.7581 26.545 0 0H1920C1823.83 29.3333 1592.6 80.1 1427 46.5C1261.4 12.9 1118 13.5 1067 18Z" fill="white"/>
</svg>
