<svg width="1920" height="2042" viewBox="0 0 1920 2042" fill="none" xmlns="http://www.w3.org/2000/svg">
<rect opacity="0.05" width="1920" height="2042" fill="#15A0DB"/>
<path opacity="0.05" d="M673 29.8825C292.2 69.768 66.5 34.1018 0 11.2831V-2.28882e-05H1919V11.2831V63.4649C1841 35.3935 1671.3 -10.623 1616.5 29.8825C1561.7 70.388 1515.67 60.8816 1499.5 51.0652C1489.17 39.5267 1450.7 23.3727 1379.5 51.0652C1308.3 78.7578 1255.83 59.1595 1238.5 45.8987C1210.5 27.0409 1053.8 -10.003 673 29.8825Z" fill="#15A0DB"/>
<path d="M673 18.5163C292.2 58.4018 66.5 22.8188 0 3.43323e-05H1919V52.0986C1841 24.0272 1671.3 -21.9892 1616.5 18.5163C1561.7 59.0217 1515.67 49.5154 1499.5 39.699C1489.17 28.1604 1450.7 12.0064 1379.5 39.699C1308.3 67.3915 1255.83 47.7932 1238.5 34.5325C1210.5 15.6747 1053.8 -21.3693 673 18.5163Z" fill="white"/>
</svg>
