<svg width="1920" height="126" viewBox="0 0 1920 126" fill="none" xmlns="http://www.w3.org/2000/svg">
<path d="M1246 68.1611C1626.8 -9.03887 1853.5 59.9945 1920 104.161V126H0V104.161V3.16112C78 57.4944 247.7 146.561 302.5 68.1611C357.3 -10.2389 403.333 8.16112 419.5 27.1611C429.833 49.4945 468.3 80.7611 539.5 27.1611C610.7 -26.4389 663.167 11.4945 680.5 37.1611C708.5 73.6611 865.2 145.361 1246 68.1611Z" fill="#15A0DB"/>
<path d="M1246 90.1611C1626.8 12.9611 1853.5 81.8333 1920 126H0V25.1611C78 79.4945 247.7 168.561 302.5 90.1611C357.3 11.7611 403.333 30.1611 419.5 49.1611C429.833 71.4945 468.3 102.761 539.5 49.1611C610.7 -4.43888 663.167 33.4945 680.5 59.1611C708.5 95.6611 865.2 167.361 1246 90.1611Z" fill="white"/>
</svg>
