<svg width="194" height="35" viewBox="0 0 194 35" fill="none" xmlns="http://www.w3.org/2000/svg">
<path fill-rule="evenodd" clip-rule="evenodd" d="M46.3448 19.5C46.4351 22.121 48.5034 23.2534 50.846 23.2534C52.5515 23.2534 53.7535 22.9842 54.8909 22.5984L55.4308 25.0969C54.1747 25.6329 52.4322 26.0186 50.3332 26.0186C45.5941 26.0186 42.8052 23.1321 42.8052 18.696C42.8052 14.68 45.2657 10.8994 49.9446 10.8994C54.6819 10.8994 56.2429 14.7699 56.2429 17.9547C56.2429 18.6374 56.1802 19.1722 56.12 19.5H46.3448ZM52.7624 16.9418C52.7919 15.6041 52.1906 13.4009 49.7337 13.4009C47.4552 13.4009 46.4954 15.4514 46.3448 16.9418H52.7624Z" fill="#084FF0"/>
<path fill-rule="evenodd" clip-rule="evenodd" d="M72.669 21.5698C72.669 23.2144 72.7254 24.5746 72.7818 25.7061H69.7785L69.6088 23.6402H69.526C68.9334 24.6022 67.5911 26.0187 65.1195 26.0187C62.6508 26.0187 60.3777 24.52 60.3777 20.0124V11.9075H63.8268V19.4142C63.8268 21.7117 64.5574 23.1857 66.3835 23.1857C67.785 23.1857 68.6854 22.2226 69.0174 21.3169C69.1635 21.0313 69.213 20.6336 69.213 20.2377V11.9075H72.669V21.5698Z" fill="#084FF0"/>
<path fill-rule="evenodd" clip-rule="evenodd" d="M79.0917 15.5273C79.0917 14.2645 79.0629 13.3142 78.9838 12.2194H80.1966L80.2813 14.6942H80.3327C81.036 13.1399 82.6821 11.9075 84.7857 11.9075C86.0284 11.9075 89.3205 12.5639 89.3205 17.7385V26.0187H88.0264V17.8557C88.0264 15.3255 87.1062 13.0554 84.4343 13.0554C82.624 13.0554 81.0609 14.433 80.548 16.2472C80.4677 16.5603 80.387 17.0238 80.387 17.4546V26.0187H79.0917V15.5273Z" fill="#084FF0"/>
<path fill-rule="evenodd" clip-rule="evenodd" d="M95.8193 18.8348C95.8193 23.1464 98.1867 24.8634 100.98 24.8634C102.954 24.8634 103.969 24.4692 104.732 24.1035L105.072 25.1457C104.561 25.4308 103.18 26.0187 100.809 26.0187C96.9171 26.0187 94.4889 23.2024 94.4889 19.2308C94.4889 14.7221 97.0877 11.9075 100.584 11.9075C105.012 11.9075 105.859 16.0728 105.859 18.0195C105.859 18.3846 105.859 18.5817 105.807 18.8348H95.8193ZM104.449 17.7669C104.476 15.8774 103.69 13.0325 100.419 13.0325C97.4255 13.0325 96.1571 15.6797 95.902 17.7669H104.449Z" fill="#084FF0"/>
<path fill-rule="evenodd" clip-rule="evenodd" d="M112.97 8.88354V11.9297H117.23V13.0539H112.97V22.0209C112.97 23.7784 113.561 24.8705 115.146 24.8705C115.923 24.8705 116.485 24.7848 116.856 24.6688L117.044 25.7044C116.546 25.8781 115.865 26.0187 114.962 26.0187C113.873 26.0187 112.97 25.7044 112.412 25.0711C111.73 24.3522 111.481 23.1743 111.481 21.7638V13.0539H108.96V11.9297H111.481V9.40134L112.97 8.88354Z" fill="#084FF0"/>
<path fill-rule="evenodd" clip-rule="evenodd" d="M121.744 11.9075L124.083 19.9349C124.543 21.5803 124.947 22.992 125.262 24.3453H125.322C125.669 23.0492 126.159 21.5499 126.707 19.9349L129.475 11.9075H130.772L133.425 19.8436C134 21.5803 134.434 23.0212 134.781 24.3453H134.838C135.127 23.0212 135.558 21.6071 136.106 19.9039L138.559 11.9075H139.971L135.358 26.0187H134.174L131.549 18.141C130.974 16.4354 130.485 14.9378 130.108 13.3484H130.05C129.647 14.995 129.128 16.5528 128.551 18.2L125.811 26.0187H124.604L120.331 11.9075H121.744Z" fill="#084FF0"/>
<path fill-rule="evenodd" clip-rule="evenodd" d="M149.639 26.0187C145.94 26.0187 143.072 23.291 143.072 19.0723C143.072 14.4636 146.298 11.9075 149.851 11.9075C153.819 11.9075 156.509 14.7162 156.509 18.8494C156.509 23.8538 152.837 26.0187 149.67 26.0187H149.639ZM149.729 24.8915C152.717 24.8915 155.075 22.3622 155.075 18.9058C155.075 16.4301 153.611 13.0301 149.819 13.0301C146.149 13.0301 144.506 16.0931 144.506 18.9896C144.506 22.3622 146.774 24.8915 149.699 24.8915H149.729Z" fill="#084FF0"/>
<path fill-rule="evenodd" clip-rule="evenodd" d="M161.799 16.3609C161.799 14.9798 161.77 13.5731 161.678 12.2194H163.008L163.066 15.009H163.164C163.799 13.2548 165.309 11.9075 167.278 11.9075C167.488 11.9075 167.698 11.9349 167.88 11.9611V13.2548C167.67 13.2285 167.46 13.2285 167.186 13.2285C165.186 13.2285 163.768 14.865 163.373 17.0803C163.283 17.4809 163.248 17.9432 163.248 18.4014V26.0187H161.799V16.3609Z" fill="#084FF0"/>
<path fill-rule="evenodd" clip-rule="evenodd" d="M173.427 18.9596H173.486C173.838 18.5324 174.398 17.9107 174.838 17.4535L179.848 12.4056H181.554L175.84 18.0516L182.351 26.0186H180.639L174.869 18.8722L173.427 20.3484V26.0186H172.015V5.85962H173.427V18.9596Z" fill="#084FF0"/>
<mask id="mask0" mask-type="alpha" maskUnits="userSpaceOnUse" x="184" y="8" width="12" height="18">
<path d="M184.316 8.88354H195.789V25.9878H184.316V8.88354Z" fill="#084FF0"/>
</mask>
<g mask="url(#mask0)">
<path fill-rule="evenodd" clip-rule="evenodd" d="M185.813 23.989C186.52 24.428 187.581 24.8937 188.749 24.8937C190.815 24.8937 191.792 23.7684 191.792 22.3998C191.792 20.9461 190.924 20.182 189.05 19.4118C186.9 18.5922 185.73 17.4119 185.73 15.8231C185.73 13.9054 187.225 12.2639 189.752 12.2639C190.953 12.2639 191.984 12.6168 192.635 13.0836L192.15 14.1527C191.686 13.8226 190.842 13.3581 189.537 13.3581C187.877 13.3581 187.01 14.4256 187.01 15.6325C187.01 17.0001 187.934 17.5763 189.702 18.3154C191.82 19.1651 193.072 20.2364 193.072 22.2353C193.072 24.4808 191.331 25.9879 188.668 25.9879C187.416 25.9879 186.217 25.6339 185.35 25.0838L185.813 23.989Z" fill="#084FF0"/>
</g>
<path fill-rule="evenodd" clip-rule="evenodd" d="M29.5644 4.30905C29.734 4.49408 29.8983 4.68146 30.0562 4.87703C30.4903 5.63355 31.302 7.0488 28.5004 8.46112C23.945 10.7582 18.8674 11.3127 14.1005 12.9159C17.3559 25.3007 19.1477 32.124 13.8219 33.6458C11.3572 34.1628 9.89986 33.0919 8.28465 32.3675C8.15704 32.3055 8.42391 32.4331 8.28465 32.3675C15.0409 36.5916 24.0073 35.7338 29.8616 29.7824C36.7128 22.8303 36.7128 11.551 29.8616 4.59363C29.7637 4.49701 29.6646 4.40508 29.5644 4.30905ZM26.5694 2.93889C22.8594 0.450932 18.4252 -0.457826 14.1873 0.214374C11.9352 1.10264 11.599 3.24454 11.8897 6.1172C15.0584 5.32379 16.8682 4.98887 21.5711 4.33716C25.1803 3.83887 26.9464 3.55956 26.5694 2.93889ZM5.01228 8.8464C4.88817 6.24895 5.51572 4.59714 6.28836 3.50745C5.87815 3.85702 5.4761 4.22474 5.09094 4.61529C1.98755 7.76959 0.290178 11.8098 0 15.9385C0.552388 13.2584 2.16468 11.0322 5.01228 8.8464ZM8.71642 30.5442C4.8468 28.5194 -3.28461 21.487 6.55582 15.0742C11.0728 27.6902 13.0528 31.9864 8.71642 30.5442Z" fill="#084FF0"/>
</svg>
