<svg width="1920" height="1720" viewBox="0 0 1920 1720" fill="none" xmlns="http://www.w3.org/2000/svg">
<rect opacity="0.05" width="1920" height="1720" fill="#15A0DB"/>
<path opacity="0.05" d="M1246 57.8389C1626.8 135.039 1853.5 66.0055 1920 21.8389V0H0V21.8389V122.839C78 68.5056 247.7 -20.5611 302.5 57.8389C357.3 136.239 403.333 117.839 419.5 98.8389C429.833 76.5055 468.3 45.2389 539.5 98.8389C610.7 152.439 663.167 114.506 680.5 88.8389C708.5 52.3389 865.2 -19.3611 1246 57.8389Z" fill="#15A0DB"/>
<path d="M1246 35.8389C1626.8 113.039 1853.5 44.1667 1920 0H0V100.839C78 46.5055 247.7 -42.5611 302.5 35.8389C357.3 114.239 403.333 95.8389 419.5 76.8389C429.833 54.5055 468.3 23.2389 539.5 76.8389C610.7 130.439 663.167 92.5055 680.5 66.8389C708.5 30.3389 865.2 -41.3611 1246 35.8389Z" fill="white"/>
</svg>
