<svg width="569" height="310" viewBox="0 0 569 310" fill="none" xmlns="http://www.w3.org/2000/svg">
<path d="M548.354 171.183C632.509 282.237 437.72 310 352.849 310C267.978 310 175.951 262.59 240.928 171.183C281.288 114.362 318.071 82.246 394.641 52.0121C571.396 -17.8669 505.99 115.303 548.354 171.183Z" fill="url(#paint0_linear)"/>
<path d="M271.232 51.4503C258.163 18.5795 305.9 20.2877 325.94 24.2038C345.98 28.12 364.782 44.7428 343.825 65.6151C330.801 78.6134 320.116 85.2792 300.168 89.6536C254.127 99.7357 277.79 67.9898 271.232 51.4503Z" fill="url(#paint1_linear)"/>
<path d="M152.94 -5.89843e-06C227.406 -9.15341e-06 315.26 74.1774 287.881 155C263.811 225.623 227.556 310 152.94 310C78.3245 310.154 18 240.613 18 155C18 69.3868 78.3245 -2.63687e-06 152.94 -5.89843e-06Z" fill="url(#paint2_linear)"/>
<path d="M386 28.3572C386 37.8961 377.864 49.1502 369 45.6429C361.254 42.5596 352 37.9154 352 28.3572C351.983 18.799 359.61 11.0714 369 11.0714C378.39 11.0714 386 18.799 386 28.3572Z" fill="url(#paint3_linear)"/>
<path d="M350 6.42042C350 9.96346 346.889 14.1435 343.5 12.8408C340.538 11.6956 337 9.97062 337 6.42042C336.994 2.87022 339.91 0 343.5 0C347.09 0 350 2.87022 350 6.42042Z" fill="url(#paint4_linear)"/>
<path d="M424.468 229.401C424.468 229.401 429.344 225.907 430.584 220.5C431.824 215.092 430.088 209.602 426.203 205.609C422.236 201.615 421.823 197.04 421.657 191.882C421.575 188.97 421.244 186.225 419.095 185.144C415.293 183.147 412.235 185.393 407.854 184.062C404.548 183.064 401.572 179.237 398.68 177.573C396.696 176.409 390.827 176.159 389.836 180.319C389.009 183.563 393.307 187.223 390.91 191.133C388.678 194.627 385.786 198.953 390.662 203.778C394.134 207.189 400.994 207.772 399.919 215.675C399.175 220.749 403.143 227.571 413.723 229.318H424.468V229.401Z" fill="#3DC19A"/>
<path d="M395.952 180.485C395.952 180.485 417.773 199.952 419.426 228.652" stroke="#3B55CE" stroke-width="0.9975" stroke-miterlimit="10" stroke-linecap="round"/>
<path d="M434.717 229.035C434.717 229.035 443.147 227.288 447.032 219.468C450.917 211.648 447.032 204.41 444.47 200.167C441.908 195.841 442.899 189.103 444.305 184.195C445.71 179.37 444.718 173.63 439.511 171.55C434.303 169.47 431.08 164.978 429.096 162.149C426.947 159.071 422.98 155.078 419.343 156.243C415.706 157.407 415.21 161.983 415.954 165.394C416.698 168.805 417.525 171.799 414.549 174.295C411.574 176.791 409.838 183.196 414.549 189.353C419.26 195.509 420.5 200.916 418.021 206.074C415.541 211.232 413.64 225.79 426.699 229.118H434.717V229.035Z" fill="#91DBAC"/>
<path d="M421.244 159.487C424.798 163.896 432.072 177.623 434.386 195.259C436.783 213.228 430.997 228.203 430.997 228.203" stroke="#3B55CE" stroke-width="0.9975" stroke-miterlimit="10" stroke-linecap="round"/>
<path d="M191.286 64.6092C193.6 64.1101 195.005 65.1916 200.13 69.8503C205.006 74.3425 215.586 80.3323 229.72 80.1659C237.572 80.0827 245.259 78.5853 245.259 78.5853L244.68 83.8263C244.68 83.8263 234.349 87.0707 225.009 86.4884C215.669 85.9892 207.073 84.7414 196.658 76.8383L191.286 64.6092Z" fill="#FF9A8D"/>
<path d="M196.824 38.4043C196.824 38.4043 193.766 35.2431 188.558 39.153C183.351 43.1462 186.905 49.7182 183.103 50.5501C179.301 51.382 175.664 50.5501 174.177 54.876C173.019 58.4532 174.342 61.2817 169.217 62.4464C164.093 63.6111 162.522 70.1831 168.887 73.8435C182.194 81.497 193.187 64.2766 192.608 57.7877C192.03 51.382 196.824 38.4043 196.824 38.4043Z" fill="#001C45"/>
<path d="M122.022 169.097C120.369 169.014 116.319 168.265 114.5 169.014C113.343 170.927 113.839 174.504 114.914 177.083C115.988 179.662 114.914 181.742 115.244 185.152C115.575 188.48 116.897 191.142 118.385 191.558C120.038 192.057 120.286 186.068 120.865 181.991C121.526 177.333 123.344 174.754 123.344 174.754L122.022 169.097Z" fill="#1E4174"/>
<path d="M126.568 166.518L122.022 169.097C122.022 169.097 121.857 169.929 121.609 170.261C121.278 170.594 120.121 171.26 120.204 171.759C120.452 173.839 123.427 174.67 123.427 174.67L129.626 172.175L126.568 166.518Z" fill="#FF9A8D"/>
<path d="M129.626 172.258C129.626 172.258 162.936 159.863 164.919 158.365C167.316 156.618 184.426 123.758 185.665 121.179C185.665 121.179 188.889 105.872 190.707 100.215L179.301 93.726C177.4 96.8873 176.16 97.636 170.044 104.874C170.044 104.874 163.597 130.164 157.398 149.963C157.398 149.963 154.505 149.131 150.372 150.628C146.57 151.959 126.568 166.435 126.568 166.435C126.568 166.435 126.651 170.178 129.626 172.258Z" fill="url(#paint5_linear)"/>
<path d="M171.449 198.463C170.953 200.044 169.3 203.787 169.465 205.784C171.036 207.364 174.59 207.78 177.317 207.364C180.045 206.948 181.863 208.529 185.17 209.028C188.476 209.527 191.286 208.862 192.112 207.531C193.022 206.117 187.319 204.37 183.516 202.706C179.218 200.959 177.152 198.546 177.152 198.546L171.449 198.463Z" fill="#1E4174"/>
<path d="M171.697 192.307L171.449 198.463C171.449 198.463 172.193 198.796 172.441 199.212C172.689 199.628 173.019 200.876 173.598 200.959C175.664 201.208 177.235 198.546 177.235 198.546L177.813 192.224L171.697 192.307Z" fill="#FF9A8D"/>
<path d="M190.707 99.2166C183.682 97.1369 177.731 93.5597 177.731 93.5597C176.16 94.4748 172.193 96.6377 168.887 100.215C166.407 102.877 162.77 112.527 170.375 119.432C172.276 136.07 173.929 146.469 174.59 153.041C175.003 157.034 170.87 158.532 170.788 165.769C170.705 174.754 171.78 192.307 171.78 192.307C171.78 192.307 174.425 194.137 177.813 192.972C177.813 192.972 184.095 161.36 184.922 157.783C185.913 152.958 186.988 149.88 188.393 139.814C190.294 126.337 190.707 99.2998 190.707 99.2166Z" fill="url(#paint6_linear)"/>
<path d="M190.625 61.5312C190.625 61.5312 188.062 61.9472 185.5 63.6942C183.186 65.4412 180.541 71.9301 179.962 77.3375C179.632 80.6651 180.706 89.7329 176.821 93.6428C176.821 93.6428 184.26 100.88 191.286 100.215C192.195 98.4679 195.501 94.8907 197.485 89.1505C199.055 88.1522 201.039 86.0725 201.618 84.5751C203.767 78.8349 199.882 74.3426 196.576 69.6007C195.253 67.6874 194.013 64.9421 192.691 63.1119C191.782 61.864 190.625 61.5312 190.625 61.5312Z" fill="url(#paint7_linear)"/>
<path d="M195.997 55.6247L192.774 57.5381L190.707 61.4481C190.707 61.4481 192.195 62.9455 192.691 64.1102C193.27 65.5244 194.427 68.852 196.576 69.5176C196.576 69.5176 196.989 66.7723 197.568 65.4412C198.146 64.1102 200.047 61.0321 200.047 61.0321L195.997 55.6247Z" fill="#FF9A8D"/>
<path d="M208.147 51.1324C208.561 53.0458 210.544 55.8743 210.048 56.2902C209.635 56.623 207.817 56.4566 207.817 56.4566C207.817 56.4566 206.577 55.0423 207.155 53.2122C207.651 51.4651 208.147 51.1324 208.147 51.1324Z" fill="#FF9A8D"/>
<path d="M204.263 38.9866C206.825 39.4025 209.222 43.2293 208.974 46.5569C208.726 49.8845 207.817 51.6315 207.899 53.9609C207.982 56.2902 207.817 58.5364 206.659 60.9489C205.916 62.5295 204.18 62.7791 201.948 62.1136C199.882 61.448 197.237 59.2851 196.658 58.6195C196.08 57.954 196.08 55.7079 196.08 55.7079C196.08 55.7079 193.022 55.0423 191.782 52.1307C190.459 49.1358 191.534 36.9068 204.263 38.9866Z" fill="#FF9A8D"/>
<path d="M195.997 55.7078C195.997 55.7078 193.27 54.3768 193.765 51.2987C194.261 48.0543 198.559 48.3039 198.229 51.1323C198.229 51.1323 200.791 51.0492 201.535 50.0509C202.362 48.9694 203.436 43.562 203.436 43.562C203.436 43.562 204.18 44.9762 204.51 46.9728C204.841 48.9694 206.246 49.3021 208.891 48.2207C211.453 47.2224 213.437 44.893 214.098 42.5637C214.098 42.5637 212.032 42.3973 210.875 41.5654C210.875 41.5654 213.768 41.6486 215.008 39.9016C215.008 39.9016 212.115 40.9831 210.296 39.8184C208.478 38.7369 205.998 36.0748 202.527 36.2412C199.055 36.4076 196.989 38.4042 196.989 38.4042C196.989 38.4042 193.848 36.8236 191.286 38.5706C188.724 40.3176 186.74 45.1426 188.393 50.3836C190.129 55.6246 192.691 57.8708 192.691 57.8708L195.997 55.7078Z" fill="#001C45"/>
<path d="M190.211 63.5278C188.062 62.1968 184.508 64.027 184.095 67.7706C183.682 71.5141 184.922 117.186 185.831 120.846C186.161 122.344 189.137 122.344 191.451 121.844C192.608 121.595 196.163 120.846 197.402 121.013C198.477 121.179 200.295 122.011 201.618 122.094C202.114 122.094 202.775 122.094 203.105 121.928C203.519 121.678 203.601 121.345 203.105 121.179C201.204 120.68 198.973 118.933 197.898 118.434C196.08 117.602 190.211 118.267 190.211 117.685C190.211 117.019 191.865 88.4018 192.195 80.0828C192.608 71.8469 193.352 65.4412 190.211 63.5278Z" fill="#FF9A8D"/>
<path d="M174.672 229.743L184.674 123.259H208.478L218.479 229.743" stroke="#274D79" stroke-width="1.393" stroke-miterlimit="10"/>
<path d="M198.559 123.259L202.196 229.743" stroke="#274D79" stroke-width="1.393" stroke-miterlimit="10"/>
<path d="M176.904 210.276H216.495" stroke="#274D79" stroke-width="1.8573" stroke-miterlimit="10"/>
<path d="M178.309 190.893H214.842" stroke="#274D79" stroke-width="1.8573" stroke-miterlimit="10"/>
<path d="M180.128 171.509H213.024" stroke="#274D79" stroke-width="1.8573" stroke-miterlimit="10"/>
<path d="M181.946 152.126H210.958" stroke="#274D79" stroke-width="1.8573" stroke-miterlimit="10"/>
<path d="M183.764 132.743H209.387" stroke="#274D79" stroke-width="1.8573" stroke-miterlimit="10"/>
<path d="M209.635 124.756H183.434C182.69 124.756 182.111 124.174 182.111 123.425C182.111 122.676 182.69 122.094 183.434 122.094H209.635C210.379 122.094 210.958 122.676 210.958 123.425C210.958 124.174 210.379 124.756 209.635 124.756Z" fill="#001C45"/>
<path d="M271.625 110.364H269.724H269.642C269.063 110.447 268.567 110.364 268.071 110.531C267.989 110.531 267.906 110.531 267.823 110.614C267.741 110.614 267.575 110.697 267.493 110.697C267.41 110.697 267.245 110.78 267.162 110.78C267.079 110.78 266.997 110.863 266.914 110.863C266.832 110.863 266.666 110.946 266.584 110.946C266.501 110.946 266.418 111.03 266.336 111.03C266.253 111.113 266.088 111.113 266.005 111.196C265.922 111.196 265.922 111.279 265.84 111.279C265.757 111.362 265.592 111.446 265.509 111.529L265.426 111.612C265.178 111.862 264.93 112.111 264.683 112.444C264.683 112.444 264.683 112.527 264.6 112.527C264.517 112.693 264.435 112.777 264.352 112.943C264.352 112.943 264.352 113.026 264.269 113.026C264.187 113.193 264.187 113.359 264.104 113.442V113.525C264.021 113.692 264.021 113.858 263.939 114.108V114.191C263.856 114.69 263.773 115.189 263.773 115.688C263.773 117.602 264.187 118.85 264.6 120.014C264.93 120.929 265.261 121.844 265.344 123.259C265.344 123.425 265.344 123.591 265.344 123.758C265.344 124.839 264.93 125.921 264.187 126.586C263.443 127.335 262.451 127.751 261.294 127.751C259.062 127.751 257.244 125.921 257.244 123.675C257.244 123.508 257.244 123.342 257.244 123.259C257.326 121.844 257.657 120.929 257.988 120.014C258.401 118.933 258.897 117.685 258.897 115.772C258.897 115.688 258.897 115.688 258.897 115.605C258.897 115.439 258.897 115.189 258.897 115.023C258.897 114.94 258.897 114.856 258.897 114.69C258.897 114.524 258.897 114.44 258.814 114.274C258.814 114.191 258.814 114.108 258.731 113.941C258.731 113.858 258.649 113.692 258.649 113.609C258.649 113.525 258.566 113.442 258.566 113.359C258.566 113.276 258.483 113.193 258.483 113.109C258.483 113.026 258.401 112.943 258.401 112.86C258.401 112.777 258.318 112.693 258.236 112.61C258.153 112.527 258.153 112.444 258.07 112.361C257.988 112.278 257.988 112.194 257.905 112.111C257.822 111.945 257.657 111.862 257.574 111.695C257.492 111.612 257.492 111.612 257.409 111.529C257.326 111.446 257.244 111.446 257.161 111.362C257.078 111.279 257.078 111.279 256.996 111.196C256.913 111.113 256.83 111.113 256.748 111.03C256.665 111.03 256.582 110.946 256.582 110.946C256.5 110.863 256.417 110.863 256.252 110.78C256.169 110.78 256.087 110.697 256.004 110.697C255.921 110.697 255.756 110.614 255.673 110.614C255.591 110.614 255.508 110.614 255.508 110.531C255.343 110.531 255.26 110.447 255.095 110.447C255.012 110.447 255.012 110.447 254.929 110.447C254.351 110.364 253.772 110.281 253.111 110.198H251.375C251.293 110.198 251.21 110.198 251.127 110.198H241.622V73.4275C241.622 71.8469 242.862 70.599 244.432 70.599H281.213V80.166C281.213 85.7397 279.973 86.3221 277.411 86.3221C275.841 86.3221 274.849 85.9893 273.857 85.5733C272.865 85.1574 271.791 84.8246 270.138 84.7414C269.972 84.7414 269.807 84.7414 269.559 84.7414C266.418 84.7414 263.856 87.3203 263.856 90.4816C263.856 91.8958 264.352 93.1437 265.178 94.142C266.253 95.3898 267.823 96.2217 269.559 96.2217C269.724 96.2217 269.89 96.2217 270.138 96.2217H270.22C270.551 96.2217 270.882 96.1386 271.212 96.1386C271.295 96.1386 271.377 96.1386 271.46 96.0554C271.625 96.0554 271.873 95.9722 272.039 95.889C272.204 95.889 272.369 95.8058 272.535 95.7226C272.617 95.7226 272.7 95.6394 272.783 95.6394C273.113 95.5562 273.526 95.3898 273.857 95.3066C274.849 94.8907 275.841 94.5579 277.411 94.5579C279.147 94.5579 280.304 94.8075 280.8 96.8041C281.048 97.7192 281.131 98.967 281.131 100.714V103.459V110.281H271.625C271.708 110.364 271.625 110.364 271.625 110.364Z" fill="#F1C40F"/>
<path d="M264.021 114.108C264.021 113.941 264.104 113.692 264.187 113.525V113.442C264.269 113.276 264.269 113.109 264.352 113.026V112.943C262.864 113.276 261.872 113.692 261.294 114.191C260.302 115.023 260.302 116.021 260.55 117.435C260.798 119.016 261.376 119.848 261.955 120.846C262.12 121.179 262.368 121.512 262.534 121.844C262.534 121.928 262.616 122.011 262.616 122.094C262.699 122.26 262.782 122.427 262.864 122.593C262.947 122.76 263.029 122.926 263.112 123.092C263.112 123.175 263.195 123.259 263.195 123.342C263.277 123.675 263.36 123.924 263.443 124.34C263.443 124.34 263.443 124.34 263.443 124.423C263.525 124.59 263.525 124.756 263.608 125.006C263.773 125.838 263.691 126.586 263.525 127.335C263.773 127.169 264.104 127.002 264.352 126.753C265.096 126.004 265.509 125.006 265.509 123.924C265.509 123.758 265.509 123.591 265.509 123.425C265.426 122.011 265.096 121.179 264.765 120.181C264.352 119.099 263.939 117.768 263.939 115.855C263.939 115.189 263.939 114.607 264.021 114.108C264.021 114.191 264.021 114.108 264.021 114.108Z" fill="#E09736"/>
<path d="M308.076 80.166L302.455 82.0794C301.381 82.4953 300.141 81.8298 299.811 80.7483L299.067 78.5854L308.655 75.2578L309.398 77.4207C309.729 78.5854 309.15 79.75 308.076 80.166Z" fill="#3ED9C7"/>
<path d="M306.372 68.7298L296.754 72.0451L299.003 78.6565L308.621 75.3412L306.372 68.7298Z" fill="#F1C40F"/>
<path d="M308.489 90.7311C307.828 90.9807 307.084 90.5648 306.836 89.8992L304.026 81.497L306.423 80.6651L309.233 89.0673C309.481 89.7328 309.15 90.4816 308.489 90.7311Z" fill="#3ED9C7"/>
<path d="M298.405 71.4309L300.141 76.5056" stroke="#E09736" stroke-width="0.9287" stroke-miterlimit="10"/>
<path d="M299.976 70.9317L301.712 75.9232" stroke="#E09736" stroke-width="0.9287" stroke-miterlimit="10"/>
<path d="M301.629 70.3495L303.365 75.4241" stroke="#E09736" stroke-width="0.9287" stroke-miterlimit="10"/>
<path d="M303.199 69.8503L304.935 74.8417" stroke="#E09736" stroke-width="0.9287" stroke-miterlimit="10"/>
<path d="M304.77 69.2679L306.505 74.2594" stroke="#E09736" stroke-width="0.9287" stroke-miterlimit="10"/>
<path d="M306.443 80.7035L304.019 81.5391L304.34 82.4835L306.765 81.648L306.443 80.7035Z" fill="#03AA99"/>
<path d="M308.98 76.2963L299.361 79.6116L299.683 80.5561L309.301 77.2408L308.98 76.2963Z" fill="#4E7EAC"/>
<path d="M361.057 90.1488C364.446 86.6548 358.743 79.0013 353.205 82.4953C347.75 85.9893 330.806 99.2998 330.806 99.2998C330.806 99.2998 314.11 84.4919 312.622 83.244C310.721 81.5802 301.712 83.66 301.712 84.991C301.712 86.2389 303.778 88.8178 306.01 89.5665C307.828 90.232 310.638 89.6497 311.547 89.6497C312.622 91.0639 327.83 108.617 330.888 108.284C333.864 107.952 358.825 92.395 361.057 90.1488Z" fill="#FF9A8D"/>
<path d="M355.106 80.9979C353.784 81.8298 350.973 83.4104 347.171 86.4885C344.278 88.8178 331.963 98.4679 331.963 98.4679C331.963 98.4679 332.294 103.293 335.682 106.121C335.682 106.121 342.543 102.295 346.758 99.8821C350.973 97.4696 358.825 92.395 361.057 90.7312C363.289 89.1506 363.454 83.7432 362.214 82.4953C360.974 81.2474 357.586 79.5004 355.106 80.9979Z" fill="white"/>
<path d="M213.107 179.246C213.024 174.504 216.247 170.76 220.876 164.272C225.753 157.367 229.968 151.211 230.794 149.963C232.282 147.467 241.209 125.754 241.209 125.754L244.598 130.663C244.598 130.663 237.903 153.124 236.25 155.287C234.597 157.367 218.644 178.414 218.644 178.414L213.107 179.246Z" fill="#DD7A79"/>
<path d="M282.949 119.598V112.028H292.454H295.182C295.182 112.028 295.182 112.028 295.265 112.028C295.43 112.028 295.513 112.028 295.678 111.945C295.761 111.945 295.843 111.945 295.926 111.862C296.091 111.862 296.174 111.778 296.339 111.778C296.422 111.778 296.504 111.778 296.587 111.695C296.752 111.695 296.835 111.612 296.918 111.612C297 111.612 297.083 111.612 297.166 111.529C297.331 111.446 297.496 111.446 297.579 111.362H297.662C297.827 111.279 297.992 111.196 298.157 111.113C298.157 111.113 298.24 111.113 298.24 111.03C298.323 110.947 298.488 110.863 298.571 110.78L298.653 110.697C298.736 110.614 298.819 110.531 298.901 110.447L298.984 110.364C299.067 110.281 299.149 110.115 299.315 109.948C299.48 109.615 299.645 109.283 299.811 108.867V108.784C299.893 108.617 299.893 108.451 299.976 108.201V108.118C299.976 107.868 300.058 107.702 300.058 107.452C300.058 107.203 300.058 106.953 300.058 106.621C300.058 104.707 299.645 103.459 299.232 102.295C298.901 101.38 298.571 100.464 298.488 99.0502C298.488 98.8839 298.488 98.7175 298.488 98.5511C298.488 97.4696 298.901 96.3881 299.645 95.6394C300.389 94.8907 301.381 94.4748 302.538 94.4748C304.77 94.4748 306.588 96.305 306.588 98.5511C306.588 98.7175 306.588 98.8839 306.588 98.9671C306.505 100.381 306.175 101.296 305.844 102.211C305.514 103.043 305.183 103.875 305.1 105.04C305.1 105.206 305.1 105.29 305.1 105.456C305.1 105.539 305.1 105.539 305.1 105.622C305.1 105.705 305.1 105.872 305.1 105.955C305.1 106.038 305.1 106.121 305.1 106.288C305.1 106.537 305.1 106.87 305.1 107.12C305.1 107.203 305.1 107.286 305.1 107.369C305.1 107.536 305.1 107.702 305.183 107.785C305.183 107.868 305.183 107.952 305.266 108.035C305.266 108.201 305.348 108.284 305.348 108.368C305.348 108.451 305.431 108.534 305.431 108.617C305.431 108.7 305.514 108.867 305.514 108.95C305.514 109.033 305.596 109.116 305.596 109.2C305.679 109.283 305.679 109.366 305.762 109.449C305.844 109.532 305.844 109.615 305.927 109.699C306.01 109.782 306.01 109.865 306.092 109.948C306.175 110.031 306.175 110.115 306.258 110.115C306.34 110.198 306.423 110.281 306.505 110.281C306.588 110.364 306.588 110.364 306.671 110.447C306.753 110.531 306.836 110.531 306.919 110.614C307.001 110.697 307.084 110.697 307.167 110.78C307.249 110.863 307.332 110.863 307.415 110.947C307.497 110.947 307.58 111.03 307.663 111.03C307.745 111.03 307.828 111.113 307.911 111.113C308.076 111.196 308.324 111.279 308.489 111.279C308.572 111.279 308.655 111.362 308.737 111.362C308.902 111.362 308.985 111.446 309.15 111.446C309.233 111.446 309.316 111.446 309.398 111.529C309.564 111.529 309.729 111.612 309.812 111.612C309.894 111.612 309.977 111.612 310.06 111.612C310.225 111.612 310.39 111.612 310.556 111.695C310.638 111.695 310.721 111.695 310.804 111.695C310.969 111.695 311.134 111.695 311.382 111.695H311.465H312.705C312.787 111.695 312.787 111.695 312.787 111.695H322.292V148.715C322.292 150.296 321.053 151.544 319.482 151.544H282.701V141.977C282.701 136.403 283.941 135.82 286.503 135.82C287.164 135.82 287.743 135.904 288.239 135.987C288.9 136.153 289.479 136.32 290.057 136.569C291.049 136.985 292.124 137.318 293.777 137.401C293.942 137.401 294.107 137.401 294.355 137.401C297.496 137.401 300.058 134.822 300.058 131.661C300.058 129.664 299.067 127.917 297.496 126.919C296.587 126.337 295.513 125.921 294.273 125.921C294.107 125.921 293.942 125.921 293.859 125.921C293.777 125.921 293.777 125.921 293.694 125.921C293.281 125.921 292.95 126.004 292.62 126.004C292.537 126.004 292.537 126.004 292.454 126.004C292.206 126.087 291.958 126.087 291.793 126.17C291.628 126.17 291.545 126.254 291.462 126.254C291.297 126.254 291.215 126.337 291.049 126.337C290.719 126.42 290.388 126.586 290.057 126.67C289.066 127.085 288.074 127.418 286.503 127.418C285.181 127.418 284.272 127.252 283.693 126.42C283.032 125.588 282.784 124.007 282.784 121.262V119.598H282.949Z" fill="#2ECC71"/>
<path d="M289.396 125.172C288.404 125.754 287.33 126.42 285.511 126.753C285.263 126.836 284.933 126.836 284.685 126.836C284.685 126.836 284.685 126.836 284.602 126.836C284.354 126.836 284.189 126.836 283.941 126.836C284.602 127.585 285.429 127.751 286.668 127.751C288.239 127.751 289.231 127.418 290.223 127.002C290.553 126.919 290.884 126.753 291.214 126.669C291.38 126.669 291.462 126.586 291.628 126.586C291.71 126.586 291.876 126.503 291.958 126.503C292.206 126.42 292.372 126.42 292.62 126.337C292.702 126.337 292.702 126.337 292.785 126.337C293.116 126.254 293.446 126.253 293.859 126.253C293.942 126.253 293.942 126.253 294.025 126.253C294.19 126.253 294.355 126.253 294.438 126.253C295.512 126.253 296.587 126.586 297.413 127.169C297.413 127.169 297.413 127.169 297.413 127.085C297.166 125.671 296.256 124.59 295.017 124.091C294.273 123.758 293.529 123.675 292.702 123.841C292.537 123.841 292.454 123.924 292.206 123.924C291.049 124.174 290.223 124.673 289.396 125.172Z" fill="#13B7A3"/>
<path d="M282.949 143.391V149.963L284.106 149.713L282.949 143.391Z" fill="#13B7A3"/>
<path d="M268.65 111.446L276.006 110.031L277.742 119.432C277.742 119.515 277.742 119.515 277.742 119.598L278.155 121.429C278.32 122.011 278.486 122.593 278.651 123.092C278.651 123.176 278.734 123.259 278.734 123.342C278.816 123.425 278.816 123.591 278.899 123.675C278.982 123.758 278.982 123.841 279.064 123.924C279.147 124.007 279.147 124.091 279.23 124.174C279.312 124.257 279.312 124.34 279.395 124.423C279.478 124.507 279.478 124.59 279.56 124.673C279.643 124.756 279.726 124.839 279.726 124.923C279.808 125.006 279.808 125.006 279.891 125.089C279.974 125.172 280.056 125.255 280.139 125.338L280.222 125.422C280.387 125.505 280.469 125.671 280.635 125.754C280.8 125.838 280.965 125.921 281.048 126.004C281.048 126.004 281.131 126.004 281.131 126.087C281.296 126.17 281.379 126.17 281.544 126.254C281.627 126.254 281.627 126.254 281.709 126.254C281.875 126.254 281.957 126.337 282.123 126.337C282.205 126.337 282.205 126.337 282.288 126.337C282.453 126.337 282.618 126.337 282.784 126.337C282.866 126.337 282.866 126.337 282.949 126.337C283.197 126.337 283.362 126.337 283.61 126.337C283.858 126.337 284.106 126.254 284.437 126.254C286.255 125.921 287.33 125.255 288.322 124.673C289.148 124.174 289.975 123.675 291.297 123.342C291.462 123.259 291.628 123.259 291.793 123.259C292.62 123.092 293.446 123.176 294.107 123.508C295.265 124.007 296.256 125.089 296.504 126.503C296.918 128.749 295.43 130.829 293.281 131.245C293.116 131.245 292.95 131.245 292.868 131.328C291.462 131.495 290.553 131.328 289.561 131.162C289.148 131.079 288.735 130.995 288.239 130.995H288.156C288.074 130.995 288.074 130.995 287.991 130.995C287.247 130.912 286.421 130.912 285.346 131.162C285.098 131.245 284.85 131.245 284.602 131.328C284.52 131.328 284.437 131.411 284.354 131.411C284.189 131.495 284.024 131.495 283.941 131.578C283.858 131.578 283.776 131.661 283.693 131.661C283.61 131.744 283.445 131.744 283.362 131.827C283.28 131.827 283.197 131.911 283.114 131.911C283.032 131.994 282.949 131.994 282.866 132.077C282.784 132.16 282.701 132.16 282.618 132.243C282.536 132.326 282.453 132.41 282.371 132.41C282.288 132.493 282.288 132.493 282.205 132.576C282.123 132.659 282.04 132.742 281.957 132.826C281.875 132.909 281.792 132.992 281.792 133.075C281.709 133.158 281.627 133.325 281.544 133.408C281.461 133.491 281.461 133.574 281.461 133.658C281.461 133.741 281.379 133.824 281.379 133.907C281.379 133.99 281.296 134.073 281.296 134.157C281.296 134.24 281.213 134.323 281.213 134.406C281.213 134.489 281.131 134.573 281.131 134.739C281.131 134.822 281.131 134.905 281.048 134.989C281.048 135.072 281.048 135.238 280.965 135.321C280.965 135.405 280.965 135.488 280.965 135.571C280.965 135.737 280.965 135.821 280.965 135.987C280.965 136.07 280.965 136.07 280.965 136.153C280.965 136.736 280.883 137.235 281.048 137.983L281.379 139.73C281.379 139.814 281.379 139.897 281.461 139.98L283.197 149.381L247.077 156.119C245.59 156.369 244.102 155.37 243.854 153.873L237.159 117.519L246.499 115.772C251.954 114.773 252.78 115.855 253.276 118.35C253.524 119.931 253.359 120.929 253.194 122.011C253.028 123.092 252.78 124.174 253.028 125.838C253.028 126.004 253.028 126.17 253.111 126.42C253.69 129.498 256.665 131.578 259.723 130.995C261.459 130.663 262.864 129.581 263.691 128.167C264.352 127.002 264.6 125.671 264.352 124.34C264.352 124.174 264.269 124.007 264.187 123.758C264.187 123.758 264.187 123.758 264.187 123.675C264.104 123.342 264.021 123.009 263.939 122.676C263.939 122.593 263.856 122.51 263.856 122.427C263.773 122.26 263.691 122.094 263.608 121.928C263.525 121.761 263.443 121.595 263.36 121.429C263.36 121.345 263.277 121.262 263.277 121.179C263.112 120.846 262.864 120.513 262.699 120.181C262.12 119.266 261.624 118.35 261.294 116.77C261.046 115.356 261.046 114.274 262.038 113.525C262.864 112.86 264.269 112.361 266.666 111.945L268.65 111.446Z" fill="#715AFF"/>
<path d="M312.622 229.576H294.934C293.859 229.576 293.033 228.744 292.95 227.746L291.545 202.04H315.928L314.523 227.746C314.523 228.828 313.696 229.576 312.622 229.576Z" fill="#85B8ED"/>
<path d="M300.141 206.449C300.141 205.701 300.72 205.118 301.464 205.118C302.207 205.118 302.786 205.701 302.786 206.449C302.786 207.198 302.207 207.78 301.464 207.78C300.72 207.78 300.141 207.198 300.141 206.449Z" fill="#1E4174"/>
<path d="M301.464 206.449C301.464 209.278 302.538 213.021 306.753 215.85C311.217 218.761 314.523 218.179 316.424 218.179" stroke="#274D79" stroke-width="1.995" stroke-miterlimit="10" stroke-linecap="round"/>
<path d="M291.628 202.04L292.124 210.609C292.124 211.274 292.702 211.773 293.281 211.773H293.363C294.025 211.773 294.521 211.274 294.521 210.609V205.617C294.521 204.952 295.017 204.453 295.678 204.453C296.339 204.453 296.835 204.952 296.835 205.617V205.95C296.835 206.616 297.331 207.115 297.992 207.115C298.653 207.115 299.149 206.616 299.149 205.95C299.149 204.952 299.893 204.037 300.968 203.954L316.011 202.04H291.628Z" fill="#F41E3D"/>
<path d="M458.802 229.576H476.49C477.564 229.576 478.391 228.744 478.474 227.746L479.879 202.04H455.496L456.901 227.746C456.901 228.828 457.728 229.576 458.802 229.576Z" fill="#85B8ED"/>
<path d="M471.283 206.449C471.283 205.7 470.704 205.118 469.96 205.118C469.216 205.118 468.638 205.7 468.638 206.449C468.638 207.198 469.216 207.78 469.96 207.78C470.704 207.78 471.283 207.198 471.283 206.449Z" fill="#1E4174"/>
<path d="M469.96 206.449C469.96 209.278 468.886 213.021 464.67 215.85C460.207 218.761 456.901 218.179 455 218.179" stroke="#274D79" stroke-width="1.995" stroke-miterlimit="10" stroke-linecap="round"/>
<path d="M479.796 202.04L479.3 210.609C479.3 211.274 478.722 211.773 478.143 211.773H478.06C477.399 211.773 476.903 211.274 476.903 210.609V205.617C476.903 204.952 476.407 204.453 475.746 204.453C475.085 204.453 474.589 204.952 474.589 205.617V205.95C474.589 206.616 474.093 207.115 473.432 207.115C472.771 207.115 472.275 206.616 472.275 205.95C472.275 204.952 471.531 204.037 470.456 203.954L455.413 202.04H479.796Z" fill="#2ECC71"/>
<path d="M507.077 229.576H489.389C488.314 229.576 487.488 228.744 487.405 227.746L486 202.04H510.383L508.978 227.746C508.978 228.828 508.151 229.576 507.077 229.576Z" fill="#85B8ED"/>
<path d="M494.596 206.449C494.596 205.7 495.175 205.118 495.918 205.118C496.662 205.118 497.241 205.7 497.241 206.449C497.241 207.198 496.662 207.78 495.918 207.78C495.175 207.78 494.596 207.198 494.596 206.449Z" fill="#1E4174"/>
<path d="M495.918 206.449C495.918 209.278 496.993 213.021 501.208 215.85C505.672 218.761 508.978 218.179 510.879 218.179" stroke="#274D79" stroke-width="1.995" stroke-miterlimit="10" stroke-linecap="round"/>
<path d="M510.405 201.856L509.917 210.717C509.917 211.405 508.942 211.921 508.373 211.921H508.292C507.641 211.921 507.153 211.405 507.153 210.717V205.555C507.153 204.867 506.664 204.351 506.014 204.351C505.363 204.351 504.875 204.867 504.875 205.555V205.9C504.875 206.588 504.386 207.104 503.736 207.104C503.085 207.104 502.597 206.588 502.597 205.9C502.597 204.867 501.864 203.921 500.807 203.835L486 201.856H510.405Z" fill="#F1C40F"/>
<path d="M241.622 225.916C241.622 227.663 242.945 228.911 244.68 229.41C246.416 229.909 249.639 228.828 250.879 228.828C252.119 228.828 255.177 229.659 256.83 229.659C258.566 229.659 260.632 229.327 262.699 227.996C264.765 226.665 267.41 223.254 265.674 221.673C262.203 218.512 258.236 219.76 255.095 221.008C252.284 222.089 248.896 221.59 245.672 221.923C243.771 222.255 241.622 223.836 241.622 225.916Z" fill="#1E4174"/>
<path d="M231.869 167.683C231.869 167.683 229.224 172.591 228.893 173.34C228.563 174.088 228.893 176.251 228.893 176.251L219.802 174.671C219.802 174.671 222.694 170.261 223.108 168.015L229.307 161.776L231.869 167.683Z" fill="#FF9A8D"/>
<path d="M229.224 161.859C229.224 161.859 228.397 164.854 226.496 166.684C224.595 168.514 223.025 168.098 223.025 168.098C223.025 168.098 218.231 167.35 215.917 163.689C213.685 160.029 213.437 154.621 215.999 149.963C218.231 146.053 224.761 142.725 229.637 145.886C237.985 143.141 238.895 153.041 236.167 156.285C235.092 157.7 229.224 161.859 229.224 161.859Z" fill="#001C45"/>
<path d="M235.258 155.121C236.25 157.117 239.225 158.698 239.06 159.53C238.977 160.362 237.159 161.526 237.159 161.526C237.159 161.526 234.762 157.034 235.258 155.121Z" fill="#FF9A8D"/>
<path d="M231.869 148.05C234.101 149.797 235.836 152.625 235.754 156.036C236.002 157.7 237.737 159.114 237.737 162.941C237.737 166.601 236.746 168.265 236.167 168.514C235.506 168.847 232.53 168.598 230.877 167.35C228.645 165.686 229.224 161.859 229.224 161.859C229.224 161.859 228.563 162.442 227.24 162.026C225.835 161.526 223.108 158.615 225.505 156.202C227.158 154.538 228.728 156.452 228.728 156.452C228.728 156.452 229.389 148.382 231.869 148.05Z" fill="#FF9A8D"/>
<path d="M231.869 148.05C231.869 148.05 231.704 150.129 231.456 152.708C231.208 155.287 228.645 155.786 228.645 155.786L227.488 149.963C228.067 147.301 229.472 146.552 231.869 148.05Z" fill="#001C45"/>
<path d="M220.876 142.06C222.942 144.306 221.703 146.802 219.14 149.214C216.578 151.627 213.768 152.958 211.701 150.795C209.635 148.549 210.048 144.805 212.611 142.476C215.09 140.063 218.81 139.897 220.876 142.06Z" fill="#001C45"/>
<path d="M205.916 151.876C205.916 151.876 210.131 154.705 214.925 151.294C214.925 151.294 213.768 157.034 208.395 156.535" stroke="#001C45" stroke-width="1.8573" stroke-miterlimit="10" stroke-linecap="round"/>
<path d="M213.52 203.038C211.867 208.196 210.958 207.531 207.238 212.356C203.519 217.264 203.767 223.337 206.908 226.581C209.47 229.243 215.338 229.576 215.338 229.576H235.01C235.01 229.576 251.706 222.422 259.475 215.767C267.245 209.111 267.493 202.456 264.269 200.709C261.046 198.962 256.087 200.376 249.144 202.04C242.201 203.704 231.952 206.699 231.952 206.699C231.952 206.699 230.051 202.706 229.803 202.872C229.555 203.205 213.52 203.038 213.52 203.038Z" fill="#85B8ED"/>
<path d="M231.704 206.2C231.456 205.784 231.208 205.201 230.877 204.619C227.571 202.789 216.082 203.454 213.355 203.621C212.693 205.617 212.115 206.616 211.371 207.531C212.115 208.446 213.52 209.61 216.413 210.442C221.289 211.94 230.051 210.276 231.704 206.2Z" fill="#4E7EAC"/>
<path d="M229.72 175.502C228.15 173.922 226.001 175.586 223.356 174.671C220.711 173.755 221.041 172.591 221.455 171.842C221.455 171.842 218.231 171.676 216.826 172.84C215.421 174.005 212.611 178.081 212.776 181.742C212.859 184.404 213.272 188.73 213.768 192.723C214.264 196.716 213.107 202.623 210.958 204.619C210.958 204.619 212.528 207.364 218.892 208.612C225.257 209.777 231.125 206.782 232.448 205.867C232.365 205.617 231.29 201.375 232.613 197.714C233.935 194.054 236.828 191.725 236.084 186.733C235.258 181.659 229.72 175.502 229.72 175.502Z" fill="url(#paint8_linear)"/>
<path d="M236.084 186.65C235.754 184.487 234.431 182.074 233.109 179.995L225.918 181.326L225.422 181.658C225.422 182.657 225.091 184.653 228.645 186.65C230.051 187.482 236.084 186.65 236.084 186.65Z" fill="#03AA99"/>
<path d="M230.464 175.835C227.323 176.75 224.678 179.163 225.339 181.659C226.497 186.151 230.216 185.568 236.828 183.821C243.441 182.074 255.921 177.333 258.566 174.92C261.211 172.591 273.361 156.868 276.254 152.708C278.734 149.214 278.982 145.387 278.816 144.14C278.734 142.975 277.742 142.809 276.998 145.221C276.667 146.303 275.841 147.634 274.849 148.632C273.609 149.88 272.452 150.545 271.956 150.712C271.212 150.878 272.039 148.798 271.378 146.968C270.799 145.304 269.89 146.885 269.807 148.299C269.725 149.713 268.402 152.043 268.237 152.791C267.989 153.79 268.237 154.954 268.485 155.786C268.485 155.786 255.839 167.35 254.268 168.598C252.78 169.845 233.605 174.92 230.464 175.835Z" fill="#FF9A8D"/>
<path d="M363.206 220.933C363.537 222.596 364.859 226.506 364.528 228.337C362.875 229.751 359.239 229.834 356.511 229.169C353.783 228.503 351.882 229.917 348.494 230.084C345.187 230.25 342.377 229.335 341.716 227.921C340.972 226.423 346.758 225.175 350.725 224.011C355.189 222.68 357.42 220.434 357.42 220.434L363.206 220.933Z" fill="#1E4174"/>
<path d="M363.206 214.361V220.933C363.206 220.933 362.462 221.182 362.132 221.598C361.801 222.014 361.388 223.179 360.809 223.262C358.66 223.345 357.42 220.517 357.42 220.517L356.594 214.527L363.206 214.361Z" fill="#FF9A8D"/>
<path d="M398.334 206.874C399.987 207.29 404.037 207.706 405.525 208.87C406.103 211.033 404.616 214.361 402.88 216.524C401.144 218.687 401.557 221.016 400.235 224.177C398.995 227.255 396.929 229.418 395.441 229.418C393.788 229.418 395.193 223.678 395.772 219.519C396.433 214.86 395.441 211.865 395.441 211.865L398.334 206.874Z" fill="#1E4174"/>
<path d="M394.697 203.13L398.334 206.874C398.334 206.874 398.251 207.705 398.417 208.121C398.582 208.537 399.574 209.536 399.326 209.952C398.499 211.948 395.441 211.865 395.441 211.865L390.234 207.705L394.697 203.13Z" fill="#FF9A8D"/>
<path d="M350.56 120.355C357.916 120.355 363.371 120.938 363.371 120.938C365.686 121.936 369.736 127.343 370.976 130.754C372.133 134.165 371.719 139.905 371.058 142.817C367.587 159.122 361.884 168.606 360.479 175.095C359.652 179.088 363.537 176.925 363.537 186.991C363.537 195.976 363.206 215.109 363.206 215.109C363.206 215.109 360.479 216.69 356.842 215.609C356.842 215.609 351.304 183.996 350.725 180.419C349.733 174.596 349.403 172.1 349.32 161.951C349.072 147.559 350.56 120.355 350.56 120.355Z" fill="url(#paint9_linear)"/>
<path d="M390.234 207.705C390.234 207.705 361.884 186.825 360.23 184.911C358.495 182.998 357.751 143.815 357.338 140.987C357.338 140.987 350.395 133.915 350.229 128.009L372.711 116.695C373.703 120.355 373.042 122.435 375.439 131.669C378.084 141.902 372.794 159.122 371.058 179.837C371.058 179.837 374.034 179.837 377.588 182.415C380.894 184.745 394.78 203.047 394.78 203.047C394.78 203.047 393.705 206.624 390.234 207.705Z" fill="url(#paint10_linear)"/>
<path d="M350.973 82.1708C350.477 82.6699 350.312 83.6682 351.221 86.6631L361.718 77.7617L350.973 82.1708Z" fill="#5EB6FF"/>
<path d="M342.295 65.3662C342.047 66.1981 340.724 69.9417 340.311 71.1063C339.815 72.1878 342.79 71.6055 342.79 71.6055L342.295 65.3662Z" fill="#FF9A8D"/>
<path d="M359.652 77.8449L351.965 84.7497L349.238 77.5953L356.759 69.609L359.652 77.8449Z" fill="#FF9A8D"/>
<path d="M356.676 69.6089C356.676 69.6089 356.511 70.7736 356.263 71.7719C356.015 72.6869 350.064 77.3456 348.328 78.0943C346.593 78.8431 344.196 79.0926 342.956 73.0197C341.716 66.9468 341.799 61.373 345.022 57.5463C348.246 53.7195 354.61 55.1337 358.082 58.2118C361.553 61.373 361.057 69.5257 356.676 69.6089Z" fill="#FF9A8D"/>
<path d="M356.676 69.609L357.834 72.7702C357.834 72.7702 359.073 72.2711 360.231 69.609C361.47 66.6973 363.785 61.7891 362.71 59.2934C361.305 56.0489 357.172 55.9657 357.172 55.9657C357.172 55.9657 353.536 50.392 345.022 49.2273C336.509 48.0626 334.69 54.5515 341.716 56.964C341.716 56.964 338.245 60.1253 341.22 60.9572C344.196 61.7891 351.469 59.5429 351.469 59.5429C351.469 59.5429 348.246 61.9555 349.651 62.621C350.973 63.3697 355.519 61.6227 355.519 61.6227L355.602 64.1184C355.602 64.1184 357.338 63.0369 358.66 63.952C360.313 65.1167 359.487 69.609 356.676 69.609Z" fill="#001C45"/>
<path d="M352.048 85.9975C352.048 85.9975 350.973 83.4186 351.469 82.6699C353.04 80.3406 358.164 73.6021 358.825 74.2677C359.569 74.9332 361.718 77.8448 361.718 77.8448L352.048 85.9975Z" fill="#5EB6FF"/>
<path d="M351.221 86.6631C350.56 89.6579 350.643 94.7326 350.229 105.298C349.981 112.119 349.32 131.919 349.32 131.919C349.32 131.919 354.527 135.33 363.206 134.664C371.554 133.999 375.108 129.839 375.108 129.839C375.108 129.839 374.199 101.97 371.471 90.989C367.421 79.6751 361.718 77.7617 361.718 77.7617L351.221 86.6631Z" fill="#5EB6FF"/>
<path d="M361.718 77.8449L352.048 85.9976L351.221 86.7463C350.973 87.3286 350.891 87.7446 350.973 88.2437L361.718 77.8449Z" fill="#5EB6FF"/>
<path d="M347.171 147.134L345.849 144.639V144.556C345.766 144.472 345.683 144.306 345.601 144.223C345.518 144.14 345.518 144.056 345.435 143.973C345.353 143.89 345.27 143.724 345.187 143.64C345.105 143.557 345.105 143.474 345.022 143.474C344.939 143.391 344.857 143.308 344.774 143.141C344.692 143.058 344.692 143.058 344.609 142.975C344.444 142.892 344.361 142.725 344.196 142.642C344.196 142.642 344.196 142.642 344.113 142.642C343.948 142.559 343.782 142.393 343.617 142.309H343.534C343.369 142.226 343.286 142.143 343.121 142.06C343.121 142.06 343.038 142.06 343.038 141.977C342.873 141.893 342.79 141.893 342.625 141.81H342.543C342.377 141.727 342.212 141.727 342.047 141.727C341.633 141.727 341.303 141.727 340.889 141.81C340.724 141.81 340.476 141.893 340.311 141.977C340.311 141.977 340.311 141.977 340.228 141.977C339.815 142.143 339.154 142.393 338.658 142.642C337.005 143.557 336.178 144.472 335.352 145.304C334.69 146.053 334.029 146.802 332.872 147.467C332.707 147.55 332.624 147.634 332.459 147.717C331.467 148.216 330.392 148.299 329.401 147.966C328.409 147.634 327.582 146.968 327.004 145.97C326.012 143.973 326.756 141.561 328.739 140.479C328.905 140.396 328.987 140.313 329.153 140.313C330.392 139.73 331.384 139.564 332.376 139.481C333.533 139.314 334.773 139.148 336.426 138.316C336.509 138.233 336.591 138.233 336.674 138.15C336.839 138.067 336.922 137.983 337.087 137.9C337.17 137.817 337.253 137.734 337.335 137.734C337.418 137.651 337.501 137.567 337.666 137.484C337.749 137.401 337.831 137.318 337.914 137.318C337.997 137.235 338.079 137.152 338.162 137.068C338.245 136.985 338.327 136.902 338.41 136.819C338.492 136.736 338.575 136.652 338.575 136.569C338.658 136.486 338.658 136.403 338.74 136.32C338.823 136.236 338.823 136.153 338.906 136.07C338.988 135.987 338.988 135.904 339.071 135.82C339.071 135.737 339.154 135.654 339.154 135.571C339.154 135.488 339.236 135.405 339.236 135.321C339.236 135.238 339.319 135.155 339.319 135.072C339.319 134.989 339.402 134.905 339.402 134.822C339.402 134.739 339.402 134.656 339.402 134.489C339.402 134.323 339.402 134.157 339.402 133.99C339.402 133.907 339.402 133.824 339.402 133.741C339.402 133.658 339.402 133.574 339.402 133.408C339.402 133.325 339.402 133.242 339.402 133.158C339.402 133.075 339.402 132.909 339.319 132.826C339.319 132.742 339.319 132.659 339.236 132.576C339.236 132.493 339.154 132.326 339.154 132.243C339.154 132.16 339.071 132.077 339.071 131.911C339.071 131.827 338.988 131.661 338.988 131.578C338.988 131.495 338.906 131.411 338.906 131.245C338.823 131.079 338.823 130.995 338.74 130.829C338.74 130.746 338.658 130.663 338.658 130.579C338.575 130.413 338.575 130.33 338.492 130.164H338.575L337.831 128.749C337.831 128.749 337.831 128.666 337.749 128.666L333.368 120.181L365.934 103.043C367.256 102.295 368.992 102.877 369.653 104.208L386.68 136.985L378.249 141.394C373.372 143.973 372.215 143.224 371.058 140.895C370.893 140.562 370.81 140.313 370.645 139.98C370.645 139.98 370.645 139.897 370.562 139.897V139.814C370.232 138.899 370.149 138.15 370.066 137.401C369.901 136.32 369.818 135.238 369.074 133.741C368.992 133.574 368.909 133.408 368.826 133.242C367.339 130.413 363.95 129.332 361.14 130.829C359.735 131.578 358.743 132.826 358.329 134.24C357.916 135.654 357.999 137.235 358.743 138.649C358.825 138.815 358.908 138.899 358.991 139.065C358.991 139.148 359.073 139.148 359.073 139.231C359.239 139.564 359.487 139.814 359.652 140.063C359.735 140.146 359.735 140.146 359.817 140.23C359.982 140.396 360.065 140.562 360.23 140.729C360.313 140.812 360.396 140.895 360.478 140.978C360.561 141.062 360.644 141.145 360.726 141.228C360.974 141.477 361.222 141.727 361.47 141.977C362.297 142.725 363.041 143.391 363.785 144.805C364.528 146.219 364.776 147.301 363.702 148.549C363.041 149.297 361.884 150.046 360.065 151.044L357.586 152.292L351.552 155.453L347.171 147.134Z" fill="#F41E3D"/>
<path d="M377.753 120.014C375.687 123.259 370.893 131.079 369.157 133.99C369.57 134.905 369.736 135.654 369.901 136.32C370.728 136.236 371.554 134.989 372.877 133.741C374.282 132.41 378.58 126.503 380.15 124.423L377.753 120.014Z" fill="#D34848"/>
<path d="M366.099 81.9961C362.545 78.6685 356.181 84.1591 358.825 90.232C360.644 94.3915 376.844 112.86 376.844 112.86L366.43 130.995C366.43 130.995 362.71 129.748 361.057 130.995C361.057 130.995 360.479 133.158 363.537 135.072C365.52 136.32 367.835 135.987 369.57 135.404C371.224 134.822 385.605 114.856 385.192 111.862C384.779 108.7 368.413 84.1591 366.099 81.9961Z" fill="#FF9A8D"/>
<path d="M360.231 81.5802C358.495 82.5785 356.759 86.6548 358.082 89.4833C360.313 94.2252 376.265 112.111 376.265 112.111C376.265 112.111 380.811 109.865 382.382 106.121C382.382 106.121 372.463 89.7329 369.901 86.2389C367.339 82.7449 365.19 78.6685 360.231 81.5802Z" fill="white"/>
<path d="M239.721 79.4172V85.0742C240.465 84.9078 241.126 84.7414 241.705 84.575V79.0844C241.126 79.2508 240.465 79.334 239.721 79.4172Z" fill="#BA5964"/>
<defs>
<linearGradient id="paint0_linear" x1="229.652" y1="65.5429" x2="577.618" y2="97.8007" gradientUnits="userSpaceOnUse">
<stop stop-color="#D2E9F9"/>
<stop offset="1" stop-color="#E9F1FB"/>
</linearGradient>
<linearGradient id="paint1_linear" x1="271.557" y1="30.4766" x2="355.124" y2="37.9138" gradientUnits="userSpaceOnUse">
<stop stop-color="#E3F2FC"/>
<stop offset="1" stop-color="#DEEBFB"/>
</linearGradient>
<linearGradient id="paint2_linear" x1="51" y1="300.565" x2="76.6064" y2="-8.15761" gradientUnits="userSpaceOnUse">
<stop stop-color="#E3F2FC"/>
<stop offset="1" stop-color="#DEEBFB"/>
</linearGradient>
<linearGradient id="paint3_linear" x1="353.035" y1="15.2987" x2="386.957" y2="17.7077" gradientUnits="userSpaceOnUse">
<stop stop-color="#E3F2FC"/>
<stop offset="1" stop-color="#DEEBFB"/>
</linearGradient>
<linearGradient id="paint4_linear" x1="337.396" y1="1.57013" x2="350.362" y2="2.51801" gradientUnits="userSpaceOnUse">
<stop stop-color="#E3F2FC"/>
<stop offset="1" stop-color="#DEEBFB"/>
</linearGradient>
<linearGradient id="paint5_linear" x1="158.365" y1="90.2639" x2="158.365" y2="174.056" gradientUnits="userSpaceOnUse">
<stop stop-color="#085EFF"/>
<stop offset="0.9981" stop-color="#0E0092"/>
</linearGradient>
<linearGradient id="paint6_linear" x1="178.152" y1="89.1599" x2="178.152" y2="195.645" gradientUnits="userSpaceOnUse">
<stop stop-color="#085EFF"/>
<stop offset="0.9981" stop-color="#0E0092"/>
</linearGradient>
<linearGradient id="paint7_linear" x1="189.522" y1="65.0234" x2="189.522" y2="104.205" gradientUnits="userSpaceOnUse">
<stop stop-color="#FF6570"/>
<stop offset="1" stop-color="#EC374F"/>
</linearGradient>
<linearGradient id="paint8_linear" x1="223.636" y1="165.225" x2="223.636" y2="208.958" gradientUnits="userSpaceOnUse">
<stop stop-color="#FFC504"/>
<stop offset="0.2528" stop-color="#FFB504"/>
<stop offset="0.7431" stop-color="#FF8C05"/>
<stop offset="1" stop-color="#FF7406"/>
</linearGradient>
<linearGradient id="paint9_linear" x1="360.466" y1="106.888" x2="360.466" y2="217.419" gradientUnits="userSpaceOnUse">
<stop stop-color="#085EFF"/>
<stop offset="0.9981" stop-color="#0E0092"/>
</linearGradient>
<linearGradient id="paint10_linear" x1="372.441" y1="103.878" x2="372.441" y2="209.068" gradientUnits="userSpaceOnUse">
<stop stop-color="#085EFF"/>
<stop offset="0.9981" stop-color="#0E0092"/>
</linearGradient>
</defs>
</svg>
