<svg width="440" height="151" viewBox="0 0 440 151" fill="none" xmlns="http://www.w3.org/2000/svg">
<mask id="mask0" mask-type="alpha" maskUnits="userSpaceOnUse" x="0" y="0" width="440" height="150">
<path d="M0 2C0 0.895429 0.89543 0 2 0H438C439.105 0 440 0.895431 440 2V150H0V2Z" fill="#E74C3C"/>
</mask>
<g mask="url(#mask0)">
<path d="M441 -40V143.524C384.651 155.719 313.492 150.408 268.168 129.974C254.137 123.632 242.11 115.936 225.183 111.491C188.1 101.789 135.537 109.92 105.359 95.6648C79.1888 83.3612 86.2046 61.6808 66.7164 46.7214C58.253 40.2173 46.8942 34.6888 34.4218 29.9191C-10.902 12.6832 -15.5792 -26.3956 29.7446 -40H441Z" fill="#E74C3C"/>
</g>
<path d="M317.506 7.32861H211.278V70.0914H317.506V7.32861Z" fill="#D5DBDA"/>
<path d="M314.596 8.53076H214.251V68.826H314.596V8.53076Z" fill="white"/>
<path d="M306.497 11.3145H221.591V15.3637H306.497V11.3145Z" fill="#EFEFEF"/>
<path d="M229.309 49.6558H224.691V61.234H229.309V49.6558Z" fill="#FFD04D"/>
<path d="M239.685 39.4692H235.067V61.2337H239.685V39.4692Z" fill="#00BFD8"/>
<path d="M250.125 41.7471H245.506V61.2972H250.125V41.7471Z" fill="#FFD04D"/>
<path d="M260.501 30.6748H255.882V61.2337H260.501V30.6748Z" fill="#00BFD8"/>
<g opacity="0.15">
<g opacity="0.15">
<g opacity="0.15">
<path opacity="0.26" d="M237.218 39.4692H235.067V61.2337H237.218V39.4692Z" fill="black"/>
</g>
</g>
</g>
<g opacity="0.15">
<g opacity="0.15">
<g opacity="0.15">
<path opacity="0.26" d="M226.842 49.6558H224.691V61.234H226.842V49.6558Z" fill="black"/>
</g>
</g>
</g>
<g opacity="0.62">
<g opacity="0.62">
<g opacity="0.62">
<path opacity="0.26" d="M258.033 30.6748H255.882V61.2337H258.033V30.6748Z" fill="black"/>
</g>
</g>
</g>
<g opacity="0.15">
<g opacity="0.15">
<g opacity="0.15">
<path opacity="0.26" d="M247.657 41.7471H245.506V61.2972H247.657V41.7471Z" fill="black"/>
</g>
</g>
</g>
<path d="M262.968 64.4604H221.654V20.4253H222.223V63.8278H262.968V64.4604Z" fill="#D5DBDA"/>
<path d="M225.893 44.2144L225.45 43.7716L236.269 34.0281L246.265 36.2426L257.148 24.1582L257.591 24.5378L246.518 36.9385L236.459 34.7241L225.893 44.2144Z" fill="#D5DBDA"/>
<path d="M258.413 26.3727L255.376 23.399L259.362 22.3867L258.413 26.3727Z" fill="#D5DBDA"/>
<path d="M270.75 46.8716H266.891V50.731H270.75V46.8716Z" fill="#00BFD8"/>
<path d="M270.75 53.7051H266.891V57.5645H270.75V53.7051Z" fill="#FFD04D"/>
<path d="M284.1 55.3496H271.826V57.564H284.1V55.3496Z" fill="#EFEFEF"/>
<path d="M284.1 48.5801H271.826V50.7945H284.1V48.5801Z" fill="#EFEFEF"/>
<path d="M293.527 46.8716H289.668V50.731H293.527V46.8716Z" fill="#00BFD8"/>
<path d="M293.527 53.7051H289.668V57.5645H293.527V53.7051Z" fill="#FFD04D"/>
<path d="M306.877 55.3496H294.603V57.564H306.877V55.3496Z" fill="#EFEFEF"/>
<path d="M306.877 48.5801H294.603V50.7945H306.877V48.5801Z" fill="#EFEFEF"/>
<path d="M306.497 23.0825H270.181V23.905H306.497V23.0825Z" fill="#EFEFEF"/>
<path d="M306.497 25.1074H267.334V25.9299H306.497V25.1074Z" fill="#EFEFEF"/>
<path d="M306.497 27.0688H267.334V27.8913H306.497V27.0688Z" fill="#EFEFEF"/>
<path d="M306.497 29.0933H267.334V29.9158H306.497V29.0933Z" fill="#EFEFEF"/>
<path d="M306.497 31.1177H267.334V31.9402H306.497V31.1177Z" fill="#EFEFEF"/>
<path d="M306.497 33.0791H267.334V33.9016H306.497V33.0791Z" fill="#EFEFEF"/>
<path d="M306.497 35.104H267.334V35.9265H306.497V35.104Z" fill="#EFEFEF"/>
<path d="M306.497 37.1284H267.334V37.9509H306.497V37.1284Z" fill="#EFEFEF"/>
<path d="M306.497 39.0898H272.901V39.9123H306.497V39.0898Z" fill="#EFEFEF"/>
<path d="M319.784 6.8225C319.784 7.26538 319.404 7.64499 318.961 7.64499H209.822C209.38 7.64499 209 7.26538 209 6.8225C209 6.37961 209.38 6 209.822 6H318.961C319.404 6 319.784 6.37961 319.784 6.8225Z" fill="#66341B"/>
<path d="M319.784 70.5974C319.784 71.0403 319.404 71.4199 318.961 71.4199H209.822C209.38 71.4199 209 71.0403 209 70.5974C209 70.1545 209.38 69.7749 209.822 69.7749H318.961C319.404 69.7749 319.784 70.0912 319.784 70.5974Z" fill="#66341B"/>
<path d="M156.095 142.534L156.665 110.9H154.577L155.146 142.534C155.146 142.851 155.336 143.104 155.589 143.104C155.842 143.104 156.095 142.851 156.095 142.534Z" fill="#723E24"/>
<path d="M136.735 138.864L148.946 109.634L146.984 108.875L135.849 138.548C135.723 138.864 135.849 139.181 136.039 139.244C136.355 139.307 136.608 139.118 136.735 138.864Z" fill="#723E24"/>
<path d="M174.57 138.864L162.359 109.634L164.32 108.875L175.456 138.548C175.582 138.864 175.456 139.181 175.266 139.244C174.949 139.307 174.696 139.118 174.57 138.864Z" fill="#723E24"/>
<g opacity="0.3">
<g opacity="0.3">
<g opacity="0.3">
<g opacity="0.3">
<path opacity="0.3" d="M146.668 109.76L147.934 110.266L136.419 139.18C136.545 139.117 136.672 138.99 136.735 138.864L148.946 109.634L146.984 108.875L146.668 109.76Z" fill="black"/>
</g>
</g>
</g>
<g opacity="0.3">
<g opacity="0.3">
<g opacity="0.3">
<path opacity="0.3" d="M154.577 111.722H156.159L155.589 143.104H155.652C155.905 143.104 156.095 142.851 156.095 142.534L156.665 110.9H154.577V111.722Z" fill="black"/>
</g>
</g>
</g>
<g opacity="0.3">
<g opacity="0.3">
<g opacity="0.3">
<path opacity="0.3" d="M175.392 138.485L164.257 108.812L162.296 109.571L162.549 110.077L163.751 109.571L174.823 139.055C174.949 139.118 175.076 139.118 175.202 139.118C175.392 139.118 175.519 138.801 175.392 138.485Z" fill="black"/>
</g>
</g>
</g>
</g>
<path d="M170.14 112.418C167.989 114.126 164.826 115.771 156.791 115.898C146.225 116.088 140.657 114.886 137.683 109.445C132.685 100.334 138.949 70.9138 148.882 77.4305C157.17 82.8716 158.815 100.271 159.891 102.675C160.966 105.079 175.328 108.179 170.14 112.418Z" fill="#E8F6F7"/>
<path d="M158.626 113.62C148.06 113.81 142.492 112.608 139.519 107.167C136.102 100.967 137.937 85.2759 142.619 78C136.672 83.5044 133.888 102.422 137.684 109.381C140.658 114.822 146.225 116.025 156.791 115.835C164.826 115.645 167.99 114.063 170.141 112.355C170.837 111.786 171.216 111.216 171.28 110.647C169.129 112.165 165.839 113.494 158.626 113.62Z" fill="#D0E0E2"/>
<path d="M322.357 51.0632C321.686 48.9753 321.014 46.7609 319.915 47.8997C318.755 49.0386 318.877 48.912 319.305 50.557C319.732 52.1387 322.968 52.7714 322.357 51.0632Z" fill="#FFE1BD"/>
<path d="M321.136 48.0894C320.77 47.0771 320.22 45.9383 319.61 45.4954C318.999 45.0525 319.915 46.6975 320.098 47.4567C320.342 48.1527 321.441 48.9119 321.136 48.0894Z" fill="#FFE1BD"/>
<path d="M322.052 59.3513C321.258 56.1878 320.831 52.0121 320.831 52.0121L322.357 50.9365C322.357 50.9365 325.471 57.5798 327.18 62.6413L335.91 60.3003L336.948 60.0472L334.14 65.9312C334.14 65.9312 325.776 67.1966 325.226 66.8803C324.677 66.6272 322.906 62.578 322.052 59.3513Z" fill="#F4F4F4"/>
<path d="M325.226 66.9439C325.715 67.2602 334.14 65.9948 334.14 65.9948L336.948 60.1108L335.91 60.3639C335.116 60.6803 333.834 62.0089 332.858 63.4008C332.125 64.4131 331.698 64.7927 330.599 65.1724C328.889 65.8683 327.058 66.3112 326.386 66.3745C325.226 66.4377 325.104 66.501 324.86 66.1847C324.799 66.1847 324.677 66.6275 325.226 66.9439Z" fill="#EAEAEA"/>
<path d="M345.739 77.8261C345.19 79.2813 345.068 80.863 345.373 82.3815C346.044 85.4184 345.312 85.6082 345.312 85.6082C345.312 85.6082 341.344 88.2022 338.047 89.2778C335.666 90.037 333.651 89.9105 333.712 87.1899V87.1267C333.712 86.9368 333.712 86.8103 333.712 86.6205C333.834 80.5467 332.613 80.2303 332.308 73.3973C332.003 66.3745 333.773 62.5151 335.605 60.8068C337.375 59.0985 339.817 59.0353 344.457 60.1741C347.937 60.9966 349.036 61.9456 349.036 64.6029C349.036 65.4887 348.914 66.5643 348.67 67.8929C347.998 71.3727 346.655 75.3586 345.739 77.8261Z" fill="#F4F4F4"/>
<path d="M337.375 62.8311C337.375 62.8311 333.773 74.9787 334.506 80.8627L335.849 83.3302L337.314 80.6096C337.314 80.6096 336.154 68.9681 338.413 63.0209L337.375 62.8311Z" fill="#3A3A3A"/>
<path d="M345.739 77.826C345.19 79.2812 345.068 80.8629 345.373 82.3814C346.044 85.4183 345.312 85.6081 345.312 85.6081C345.312 85.6081 341.344 88.2021 338.047 89.2777L334.933 88.9614L333.712 87.9491V87.1266C333.712 86.9367 333.712 86.8102 333.712 86.6204C334.445 86.6837 336.032 86.7469 338.352 86.4939C340.184 86.3041 341.832 85.7346 342.931 85.2918C343.725 84.9754 344.213 84.0896 344.03 83.2672C343.847 82.065 343.602 80.3568 343.602 79.0281C343.602 77.6995 344.213 75.4218 344.701 73.7768C345.068 72.5114 345.19 71.1828 345.129 69.9174C344.946 67.6397 345.129 65.4886 345.129 65.4886L347.571 64.0967L348.914 64.6028C348.914 65.4886 348.792 66.5642 348.548 67.8928C347.998 71.3726 346.655 75.3585 345.739 77.826Z" fill="#E2E2E2"/>
<path d="M345.8 90.7328C346.105 90.7961 346.777 89.4675 346.777 89.4675L346.472 89.0246C346.289 88.7715 346.044 88.645 345.8 88.5184H345.739C345.495 88.4552 345.251 88.5184 345.068 88.7715C344.884 89.0878 344.518 89.4675 344.152 89.4675C344.152 89.4675 344.152 89.4675 344.091 89.4675C343.847 89.4675 345.495 90.7328 345.8 90.7328Z" fill="#F4D5B5"/>
<path d="M334.628 48.4056C334.628 48.4056 334.323 49.2914 334.811 49.9874L336.704 47.3301H335.361L334.628 48.4056Z" fill="#632F00"/>
<path d="M344.946 51.9491C344.884 55.3656 342.015 57.3902 342.015 57.3902L342.198 60.4904L340.245 61.7558L338.902 62.6416L338.169 60.9966L338.047 58.972C338.047 58.5291 337.681 58.0862 337.253 58.0229C336.765 57.8964 336.093 57.6433 335.361 56.8208C335.3 56.7575 335.3 56.6943 335.239 56.6943C333.957 54.9228 333.529 48.153 337.803 46.2549C342.259 44.2303 345.007 48.4693 344.946 51.9491Z" fill="#FFE1BD"/>
<path d="M340.123 59.8578L340.245 61.7558L338.902 62.6416L338.169 60.9966L338.047 58.972C338.047 58.5291 337.681 58.0863 337.253 58.023C336.765 57.8964 336.093 57.6434 335.361 56.8209C335.3 56.7576 335.3 56.6943 335.239 56.6943C335.3 56.7576 336.337 57.3903 337.925 57.5801C339.146 57.7066 340.061 58.6557 340.123 59.8578Z" fill="#E8C5A0"/>
<path d="M340.306 52.9611C340.489 53.0244 340.611 52.7713 340.611 52.7713C340.611 52.7713 341.527 50.6202 341.832 50.3039C342.381 49.7344 343.725 49.7344 343.847 51.6325C343.908 53.0877 342.32 56.1246 341.771 57.0104C341.71 57.1369 341.71 57.3267 341.832 57.4532C341.893 57.5165 341.954 57.5165 342.015 57.5165C342.076 57.5165 342.137 57.5165 342.198 57.4532C343.236 56.5042 347.937 51.8856 344.213 47.52C344.213 47.52 341.283 47.7098 340.794 49.165C340.367 50.6202 340 52.6448 340 52.6448C340 52.6448 340.123 52.8979 340.306 52.9611Z" fill="#8C4200"/>
<path d="M334.628 48.4059C334.628 48.4059 337.192 46.318 341.099 48.8488L344.274 48.0263C344.274 48.0263 344.396 47.963 344.335 47.4569C344.274 46.9507 343.908 42.079 338.291 43.1546C335.116 43.8505 333.163 46.1282 334.628 48.4059Z" fill="#8C4200"/>
<path d="M337.131 61.8189V62.0087C337.192 62.3251 337.253 62.5782 337.375 62.8945L338.352 63.021L339.207 62.3884L338.23 61.2495L338.108 61.3128C337.742 61.3761 337.436 61.5659 337.131 61.8189Z" fill="#606060"/>
<path d="M342.137 59.0352C342.137 59.0352 342.626 59.2882 343.053 60.0475C343.053 60.0475 342.442 60.3638 341.893 60.6802C341.405 60.9965 338.963 62.768 338.963 62.768L338.23 61.2496C338.23 61.2496 340.794 59.4148 342.137 59.0352Z" fill="#E2E2E2"/>
<path d="M338.23 61.2495C338.23 61.2495 337.375 61.5658 337.131 62.1985C337.131 62.1985 336.704 61.3128 337.253 59.7943C337.253 59.7943 337.742 59.3514 338.108 59.1616L338.23 61.2495Z" fill="#E2E2E2"/>
<path d="M345.007 88.6449C345.007 88.6449 344.579 89.2143 344.396 89.3409C344.274 89.4041 344.213 89.2776 344.274 89.1511C344.335 88.9612 345.007 88.4551 345.007 88.6449Z" fill="#E5BB98"/>
<path d="M342.137 57.5165C342.259 57.5165 342.32 57.5165 342.381 57.4532C343.419 56.5042 348.12 51.8856 344.396 47.52C344.396 47.52 344.579 48.2792 344.518 48.9119C344.457 48.8487 346.838 52.8346 342.137 57.5165Z" fill="#632F00"/>
<path d="M347.388 145.714C347.204 146.536 347.265 146.789 347.204 147.359C347.082 147.991 346.533 148.244 346.167 148.75C345.8 149.32 345.251 150.269 347.449 150.332C349.891 150.395 351.295 150.206 350.867 148.814C350.44 147.422 350.379 146.789 350.379 146.346C350.379 145.903 350.379 145.397 350.135 145.144C349.952 144.765 347.754 144.322 347.388 145.714Z" fill="#8C4200"/>
<path d="M346.899 100.729C346.899 100.729 350.684 94.4025 345.312 85.6714C345.312 85.6714 341.099 87.6327 337.742 87.8858C335.055 88.0756 333.712 87.7593 333.712 87.7593C333.712 87.7593 333.468 96.174 333.468 100.729H346.899Z" fill="#3A3A3A"/>
<path d="M344.335 119.077C343.297 114.522 347.632 113.699 348.975 116.989C350.928 121.671 350.745 142.107 350.623 145.081C350.623 145.46 350.44 145.397 350.196 145.334C349.585 145.081 349.036 145.017 348.792 145.081C348.303 145.207 347.388 145.713 347.388 145.713C347.021 141.664 345.312 123.443 344.335 119.077Z" fill="#3A3A3A"/>
<path d="M340.428 101.362C340 95.7308 342.076 91.302 345.312 93.2001C346.716 93.9593 347.204 95.541 347.387 97.0595C347.571 98.5147 348.608 113.952 348.914 116.736C349.707 123 345.129 121.291 344.579 119.583C343.358 115.154 340.672 104.462 340.428 101.362Z" fill="#3A3A3A"/>
<path d="M332.736 118.761C332.552 114.522 335.971 114.775 337.375 118.065C340.367 125.214 337.375 140.399 336.765 147.548C336.093 146.409 334.811 146.03 334.506 146.03C334.018 146.093 333.773 146.472 333.773 146.472C333.896 137.678 332.919 123.316 332.736 118.761Z" fill="#3A3A3A"/>
<path d="M337.253 119.204C336.765 120.912 332.369 122.937 332.797 116.61C332.98 113.826 333.529 98.3249 333.651 96.8697C333.773 95.3513 334.018 93.2001 334.689 92.9471C338.169 91.6184 341.527 96.0472 340.611 101.615C340 105.411 338.291 115.661 337.253 119.204Z" fill="#3A3A3A"/>
<path d="M333.773 146.599C333.59 146.979 332.736 147.801 331.515 148.371C330.294 148.94 327.729 149.193 329.195 149.699C330.599 150.206 332.308 149.889 333.102 149.763C333.957 149.636 334.75 149.573 335.727 149.573C337.009 149.573 337.07 149.51 336.887 147.928C336.643 145.84 334.384 145.397 333.773 146.599Z" fill="#8C4200"/>
<path d="M346.044 87.3794L345.373 88.3917C345.373 88.3917 344.152 88.2019 343.602 89.3407C343.053 90.4796 345.068 91.9348 345.617 91.4286C346.167 90.9225 347.449 88.455 347.449 88.455L346.044 87.3794Z" fill="#FFE1BD"/>
<path d="M351.051 84.2159C349.219 86.114 347.326 88.7712 347.326 88.7712L346.96 88.5182L345.617 87.5691C345.617 87.5691 348.364 81.6851 349.097 78.7748C349.463 77.3829 350.135 76.244 350.684 75.4215C350.623 75.3582 350.562 75.295 350.562 75.295C348.609 73.1438 347.021 70.2967 345.861 68.5885C345.312 67.766 344.884 66.8169 344.762 65.8046C344.64 65.1087 344.64 64.476 344.762 63.78C344.946 62.7045 345.373 61.6922 346.35 61.4391C346.716 61.3126 347.082 61.3758 347.449 61.5024C347.815 61.6922 348.181 61.9452 348.425 62.3249C350.013 64.9821 354.347 71.9417 355.019 73.7133C355.141 74.0296 355.202 74.2827 355.263 74.599C355.263 74.6623 355.324 74.7888 355.324 74.9154C355.568 77.6992 352.882 82.3178 351.051 84.2159Z" fill="#F4F4F4"/>
<path d="M351.051 84.2162C349.219 86.1142 347.326 88.7715 347.326 88.7715L346.96 88.5185C346.96 88.5185 348.975 85.6081 349.891 84.4693C351.356 82.6977 352.333 81.3058 353.187 79.6608C354.042 78.0158 354.469 74.8524 353.981 73.9666C353.554 73.0809 350.989 69.1582 350.44 68.399C349.952 67.6397 345.495 63.0211 346.777 61.7557C346.96 61.5659 347.265 61.5659 347.51 61.5659C347.876 61.7557 348.242 62.0088 348.486 62.3884C350.013 64.9824 354.347 71.942 355.019 73.7135C355.141 74.0299 355.202 74.283 355.263 74.5993C355.263 74.6626 355.324 74.7891 355.324 74.9157C355.568 77.6995 352.882 82.3181 351.051 84.2162Z" fill="#EAEAEA"/>
<path d="M343.908 88.3916C343.908 88.3916 344.518 90.6693 347.266 91.9347C349.646 93.0735 343.48 93.7062 343.358 93.4531C343.236 93.2 342.015 89.0876 342.015 89.0876L343.908 88.3916Z" fill="#3A3A3A"/>
<path d="M189.501 140.763L190.071 108.875H187.983L188.552 140.763C188.552 141.079 188.742 141.332 188.995 141.332C189.248 141.332 189.501 141.079 189.501 140.763Z" fill="#723E24"/>
<path d="M170.014 137.03L182.352 107.61L180.39 106.851L169.192 136.65C169.065 136.967 169.192 137.283 169.382 137.346C169.571 137.536 169.888 137.346 170.014 137.03Z" fill="#723E24"/>
<path d="M208.039 137.03L195.702 107.61L197.663 106.851L208.861 136.65C208.988 136.967 208.861 137.283 208.672 137.346C208.482 137.536 208.166 137.346 208.039 137.03Z" fill="#723E24"/>
<g opacity="0.3">
<g opacity="0.3">
<g opacity="0.3">
<g opacity="0.3">
<path opacity="0.3" d="M180.011 107.8L181.276 108.306L169.698 137.409C169.825 137.346 169.951 137.22 170.014 137.03L182.352 107.61L180.39 106.851L180.011 107.8Z" fill="black"/>
</g>
</g>
</g>
<g opacity="0.3">
<g opacity="0.3">
<g opacity="0.3">
<path opacity="0.3" d="M187.983 109.761H189.564L188.995 141.332H189.058C189.311 141.332 189.501 141.079 189.501 140.763L190.071 108.875H187.983V109.761Z" fill="black"/>
</g>
</g>
</g>
<g opacity="0.3">
<g opacity="0.3">
<g opacity="0.3">
<path opacity="0.3" d="M208.925 136.714L197.726 106.914L195.765 107.673L196.018 108.243L197.22 107.737L208.355 137.41C208.482 137.473 208.608 137.536 208.735 137.473C208.925 137.346 208.988 137.03 208.925 136.714Z" fill="black"/>
</g>
</g>
</g>
</g>
<path d="M204.433 97.9929C204.433 110.204 197.536 113.114 188.995 113.114C180.454 113.114 173.557 110.204 173.557 97.9929C173.557 85.782 180.454 73.9507 188.995 73.9507C197.536 74.014 204.433 85.782 204.433 97.9929Z" fill="#E8F6F7"/>
<path d="M190.26 110.394C181.719 110.394 174.823 107.483 174.823 95.2726C174.823 91.0968 175.645 86.9211 177.037 83.2515C174.886 87.4905 173.557 92.6785 173.557 97.9931C173.557 110.204 180.454 113.114 188.995 113.114C195.701 113.114 201.332 111.343 203.484 104.636C200.826 109.128 195.891 110.394 190.26 110.394Z" fill="#D0E0E2"/>
<path d="M181.656 94.8296C181.656 94.8296 179.694 99.0686 179.252 101.852C178.682 105.965 179.505 107.736 184.819 107.926C190.071 108.116 191.589 107.04 194.12 107.04C196.65 107.04 199.561 102.295 196.334 96.6011L181.656 94.8296Z" fill="#09424C"/>
<path d="M183.87 129.437L183.744 131.019C183.744 131.019 182.162 135.574 182.099 136.776C181.972 138.801 182.858 141.079 183.744 141.015C184.756 141.015 186.085 139.75 186.717 137.219C187.097 135.511 186.464 132.158 186.717 131.399C186.97 130.639 187.413 129.058 187.413 129.058L183.87 129.437Z" fill="#FFE1BD"/>
<path d="M186.844 136.207C186.148 136.903 184.756 138.358 184.25 138.295C183.68 138.295 182.668 136.523 182.352 135.764C182.289 136.144 182.225 136.46 182.162 136.713C182.035 138.738 182.921 141.015 183.807 140.952C184.819 140.952 186.148 139.687 186.781 137.156C186.781 136.903 186.844 136.587 186.844 136.207Z" fill="#8C4200"/>
<path d="M187.35 130.197C187.35 130.197 193.614 110.33 194.436 107.863C195.195 105.396 195.828 100.777 192.222 99.9544C189.058 99.2584 187.73 103.94 187.16 106.851C186.591 109.761 183.68 128.995 183.68 128.995C183.68 128.995 183.364 130.07 185.199 130.387C187.097 130.766 187.35 130.197 187.35 130.197Z" fill="#0C5A71"/>
<g opacity="0.1">
<g opacity="0.1">
<g opacity="0.1">
<path opacity="0.1" d="M191.083 99.9541C189.691 101.852 188.995 105.332 188.615 107.23C188.046 110.14 185.199 129.817 185.199 129.817C185.199 129.817 185.705 130.07 186.717 130.513C186.591 130.513 186.338 130.513 186.211 130.513C184.186 130.64 183.68 129.437 183.68 129.437C183.68 129.437 186.527 109.761 187.097 106.85C187.666 104.32 188.742 100.46 191.083 99.9541Z" fill="black"/>
</g>
</g>
</g>
<path d="M176.025 128.678L175.835 130.26C175.835 130.26 173.937 134.752 173.811 135.891C173.557 137.916 174.253 140.193 175.139 140.257C176.151 140.32 177.543 139.118 178.366 136.65C178.872 134.942 178.492 131.589 178.745 130.829C179.062 130.07 179.631 128.552 179.631 128.552L176.025 128.678Z" fill="#FFE1BD"/>
<path d="M178.492 135.638C177.733 136.271 176.278 137.599 175.708 137.536C175.139 137.473 174.253 135.638 174 134.879C173.874 135.259 173.81 135.575 173.747 135.765C173.494 137.789 174.19 140.067 175.076 140.13C176.088 140.193 177.48 138.991 178.303 136.524C178.366 136.334 178.429 136.018 178.492 135.638Z" fill="#8C4200"/>
<path d="M179.378 129.691C179.378 129.691 187.034 110.33 188.046 107.926C188.995 105.522 189.944 100.967 186.401 99.8909C183.301 98.9419 181.656 103.561 180.897 106.408C180.137 109.255 175.835 128.299 175.835 128.299C175.835 128.299 175.392 129.374 177.29 129.817C179.125 130.197 179.378 129.691 179.378 129.691Z" fill="#0C5A71"/>
<g opacity="0.1">
<g opacity="0.1">
<g opacity="0.1">
<path opacity="0.1" d="M185.262 99.7646C183.744 101.536 182.858 104.953 182.289 106.851C181.529 109.698 177.227 129.121 177.227 129.121C177.227 129.121 177.67 129.374 178.682 129.944C178.556 129.944 178.303 129.881 178.176 129.881C176.151 129.881 175.772 128.615 175.772 128.615C175.772 128.615 180.011 109.192 180.833 106.345C181.529 103.94 182.921 100.081 185.262 99.7646Z" fill="black"/>
</g>
</g>
</g>
<path d="M185.009 54.6539C185.009 54.6539 185.705 51.6803 190.703 52.6293C195.448 53.5151 195.132 60.1583 195.702 61.9931C196.144 63.385 197.03 65.4096 197.41 66.2321C197.473 66.4219 197.41 66.675 197.22 66.7383C195.448 67.3077 187.983 69.5221 182.921 66.4852C182.478 66.2321 182.099 65.8525 181.909 65.3463C181.846 65.1565 181.782 64.9035 181.782 64.6504C181.846 63.8279 182.288 62.8789 181.909 60.5379C181.529 58.197 181.909 54.5906 185.009 54.6539Z" fill="#0B0B3A"/>
<path d="M183.554 61.0436C183.554 61.0436 182.921 61.8028 183.174 63.1315C183.427 64.4601 184.566 64.3969 184.566 64.3969L184.693 63.0682L184.376 60.7905L183.554 61.0436Z" fill="#FFE1BD"/>
<path d="M194.689 61.0436C194.689 61.0436 195.322 61.8028 195.069 63.1315C194.816 64.4601 193.677 64.3969 193.677 64.3969L193.55 63.0682L193.867 60.7905L194.689 61.0436Z" fill="#FFE1BD"/>
<path d="M195.512 86.4777C195.448 87.8064 195.448 88.3758 195.575 90.0208C195.702 91.5393 196.208 97.1069 196.208 97.1069C196.208 97.1069 195.006 97.6131 193.044 97.9294C190.387 98.4356 185.768 97.0437 181.529 95.5885C181.529 95.5885 183.111 91.7291 183.111 88.5656C183.111 88.1227 183.111 87.6799 183.111 87.237C183.111 86.6676 182.858 85.592 182.668 84.3266C182.605 84.0735 182.605 83.8205 182.542 83.5674C182.352 82.6183 182.225 81.606 182.099 80.5937C181.972 79.5814 181.909 78.5059 181.972 77.4936C181.593 74.7097 182.415 71.9892 182.415 71.9892C182.415 71.9892 185.958 70.534 187.413 70.3442C187.413 70.3442 190.071 69.7115 191.905 70.3442C194.31 71.1667 195.638 71.6096 196.714 72.2422C196.84 72.3055 197.536 74.3934 197.22 76.1649C196.777 78.8222 196.081 82.4918 195.765 84.7062C195.638 85.592 195.512 86.2247 195.512 86.4777Z" fill="#FFD04D"/>
<path opacity="0.39" d="M196.208 97.8032C196.208 97.8032 195.006 97.6134 193.044 97.993C192.285 96.095 192.538 89.1354 192.538 89.1354C190.45 88.819 187.287 87.5537 187.287 87.5537C186.464 87.9333 183.87 88.5027 183.048 88.6925C183.048 88.2496 183.048 87.8067 183.048 87.3639C183.048 86.7944 182.795 85.7189 182.605 84.4535C183.554 83.7575 185.389 85.276 185.389 85.276L194.499 83.8208C194.499 83.8208 195.132 84.2004 195.702 84.7698C195.575 85.6556 195.448 86.2883 195.448 86.5414C195.385 87.87 195.385 88.4394 195.512 90.0844C195.702 91.6029 196.208 97.8032 196.208 97.8032Z" fill="#CE9006"/>
<path d="M194.31 59.5887C194.31 60.9173 194.057 64.0175 193.171 66.1054C192.665 67.434 191.779 68.3831 190.83 68.9525C190.83 69.4586 190.83 70.2178 191.209 70.2178C191.336 70.4709 191.462 70.5342 191.399 70.9138C191.146 72.2425 189.628 73.6976 189.248 74.0773C188.868 74.4569 188.615 74.0773 188.615 74.0773C188.172 73.5711 187.793 72.9384 187.477 72.4323C187.287 72.0526 187.16 71.7363 187.034 71.5465C186.781 70.9771 187.16 70.4709 187.16 70.4709C187.54 70.4077 187.413 69.5219 187.413 69.079C186.591 68.5096 185.895 67.5606 185.325 66.4217C184.187 64.144 184.123 61.2337 184.123 59.6519C184.123 56.8048 186.401 54.5272 189.248 54.5272C192.032 54.4639 194.31 56.7416 194.31 59.5887Z" fill="#FFE1BD"/>
<path d="M190.767 68.9526C190.45 69.0792 189.248 69.5221 188.995 70.0915C188.742 70.6609 188.552 71.6732 188.299 71.9263C188.109 72.1793 187.603 72.3692 187.413 72.4324C187.223 72.0528 187.097 71.7365 186.97 71.5467C186.717 70.9772 187.097 70.4711 187.097 70.4711C187.477 70.4078 187.35 69.5221 187.35 69.0792C187.35 69.0792 188.236 69.4588 188.995 69.3955C189.628 69.2057 190.45 69.0159 190.767 68.9526Z" fill="#E8C5A0"/>
<path d="M192.665 82.4918C192.665 82.4918 193.487 82.3652 193.74 82.3652C193.993 82.3652 193.234 84.7062 193.234 84.7062C193.234 84.7062 192.981 84.3898 192.665 84.3898C192.348 84.3266 192.475 82.555 192.475 82.555L192.665 82.4918Z" fill="#FFE1BD"/>
<path d="M196.714 72.2422C196.714 72.2422 199.055 73.4443 198.865 75.2158C198.738 76.9874 196.018 86.8573 195.575 88.1227C195.132 89.3881 183.301 85.4654 183.301 85.4654C183.301 85.4654 183.68 83.8837 183.997 83.4408C183.997 83.4408 192.095 84.3265 193.107 84.7062C193.107 84.7062 194.752 76.9241 195.259 75.5322C195.765 74.2035 196.714 72.2422 196.714 72.2422Z" fill="#D69507"/>
<path d="M192.791 84.4535C191.589 85.1495 182.225 89.0089 181.339 88.7558C180.454 88.5027 179.441 87.7435 179.315 85.4658C179.188 83.4412 180.39 75.4693 180.643 73.5713C180.707 73.3182 180.833 72.9386 181.023 72.7488C181.086 72.6855 181.15 72.6222 181.213 72.559C181.782 72.1161 182.415 71.9263 182.415 71.9263C182.542 72.1793 182.478 73.2549 182.668 75.153C182.668 75.3428 182.668 75.5959 182.605 75.7857C182.352 76.8612 182.099 78.3164 182.099 79.0757C182.099 79.1389 182.099 79.1389 182.099 79.2022C182.162 80.0247 182.795 81.5431 182.795 82.1758C182.795 83.6943 182.795 83.8841 182.795 83.9474C183.111 83.8841 184.313 83.6943 185.705 83.4412C188.615 82.9351 192.665 82.1758 192.665 82.1758C192.981 83.0616 192.791 84.4535 192.791 84.4535Z" fill="#EFAF11"/>
<path d="M182.984 61.6133C182.984 61.6133 184.629 61.3602 185.515 60.0949C186.211 59.1458 186.654 57.8172 186.654 57.8172C186.654 57.8172 187.224 59.0193 189.122 59.9051C191.02 60.7908 193.108 61.3602 195.006 61.5501C195.006 61.5501 195.132 57.1212 193.677 55.3497C192.285 53.5782 188.489 52.5026 185.958 54.0843C183.364 55.6028 182.984 61.6133 182.984 61.6133Z" fill="#0B0B3A"/>
<path d="M187.097 70.3446C187.097 70.3446 187.35 72.7488 188.552 74.0142C188.552 74.0142 188.172 73.8877 187.413 74.7734C187.287 74.9 187.097 74.8367 187.097 74.7102C186.844 73.7611 186.148 71.3569 186.527 70.5344C186.591 70.5344 186.781 70.2814 187.097 70.3446Z" fill="#CE9006"/>
<path d="M191.146 70.1545C191.146 70.1545 190.83 71.3566 190.45 72.1791C189.944 73.2547 189.121 74.0139 189.121 74.0139C189.121 74.0139 190.007 74.2037 190.45 74.7731C190.513 74.8997 190.64 74.8364 190.703 74.7099C190.956 74.2037 191.146 73.6976 191.462 72.622C191.779 71.4199 191.842 70.7239 191.779 70.2178C191.779 70.3443 191.526 70.028 191.146 70.1545Z" fill="#CE9006"/>
<path opacity="0.39" d="M182.099 84.7063C181.15 83.8838 182.288 82.3653 182.225 81.7959C182.162 81.2897 182.162 81.1632 182.099 80.5938C182.035 80.3407 182.035 79.6448 182.099 79.2651C182.162 80.0876 182.795 81.6061 182.795 82.2388C182.795 83.7572 182.795 83.947 182.795 84.0103C183.111 83.947 186.274 83.3776 187.666 83.1245C187.983 83.3776 182.731 85.2757 182.099 84.7063Z" fill="#CE9006"/>
<path d="M183.807 83.884L182.795 84.0738C182.795 84.0738 181.656 83.9473 180.897 84.0106C180.327 84.0738 179.758 84.2004 179.441 84.3269C179.315 84.3902 179.252 84.2636 179.188 84.1371C179.125 83.9473 178.999 83.5044 179.062 83.1248C179.125 82.7452 179.252 82.3656 179.315 82.1125C179.378 81.986 179.441 81.9227 179.568 81.9227C179.948 81.7962 180.39 81.7962 181.023 81.8594C181.782 81.9227 182.162 82.1758 182.478 82.6187L182.921 83.1248C183.048 83.2513 183.238 83.3779 183.427 83.4412L183.934 83.5677C183.934 83.5677 183.87 83.631 183.807 83.7575C183.807 83.8208 183.807 83.884 183.807 83.884Z" fill="#FFE1BD"/>
<path d="M163.687 93.6275L164.194 84.7065H159.765L160.271 93.6275H163.687Z" fill="#FAFEFF"/>
<path d="M160.651 93.1844L160.271 85.0859H163.751L163.308 93.1844H160.651Z" fill="#B4EFF9"/>
<path d="M160.397 87.0474L160.651 93.1844H163.308L163.561 87.0474H160.397Z" fill="#75D9EF"/>
<g opacity="0.5">
<g opacity="0.5">
<g opacity="0.5">
<path opacity="0.5" d="M160.904 92.3621H161.663L161.22 85.972C161.157 85.2127 160.397 85.1495 160.524 86.0352L160.904 92.3621Z" fill="white"/>
</g>
</g>
</g>
<path d="M169.951 94.8296H149.642V96.095H169.951V94.8296Z" fill="#282C2D"/>
<path d="M168.243 93.564H149.832V94.5763H168.243V93.564Z" fill="#D6D6D6"/>
<path d="M169.192 94.3867H148.883V94.8929H169.192V94.3867Z" fill="#525252"/>
<path d="M167.863 94.0073H150.211V94.1339H167.863V94.0073Z" fill="#A5A5AF"/>
<path d="M167.863 94.1968H150.211V94.3233H167.863V94.1968Z" fill="#A5A5AF"/>
<path d="M167.863 93.7539H150.211V93.8804H167.863V93.7539Z" fill="#A5A5AF"/>
<path d="M249.607 93.8174H241.255V95.9053H249.607V93.8174Z" fill="#F1F2F2"/>
<path d="M249.67 93.8174H247.013V95.9053H249.67V93.8174Z" fill="#A7A9AC"/>
<path d="M249.101 93.8174H240.749V94.0705H249.101V93.8174Z" fill="#A7A9AC"/>
<path d="M249.101 95.6519H240.749V95.9049H249.101V95.6519Z" fill="#A7A9AC"/>
<path d="M258.148 93.8174H247.202V95.9053H258.148V93.8174Z" fill="#383838"/>
<path d="M254.289 94.2603H248.405V95.3991H254.289V94.2603Z" fill="#A7A9AC"/>
<path d="M253.972 94.3232H248.721V95.3355H253.972V94.3232Z" fill="#E6E7E8"/>
<path d="M255.933 94.8297C255.933 95.146 256.25 95.3991 256.629 95.3991C257.009 95.3991 257.325 95.146 257.325 94.8297C257.325 94.5133 257.009 94.2603 256.629 94.2603C256.25 94.2603 255.933 94.5133 255.933 94.8297Z" fill="#A7A9AC"/>
<path d="M246.57 94.1968H241.761V94.3866H246.57V94.1968Z" fill="#A7A9AC"/>
<path d="M246.57 95.0195H241.761V95.2093H246.57V95.0195Z" fill="#A7A9AC"/>
<path d="M246.57 95.2725H241.761V95.4623H246.57V95.2725Z" fill="#A7A9AC"/>
<path d="M246.253 94.6396H243.28V94.8294H246.253V94.6396Z" fill="#A7A9AC"/>
<path d="M243.027 94.6396H241.761V94.8294H243.027V94.6396Z" fill="#A7A9AC"/>
<path d="M248.025 91.7925H239.673V93.8803H248.025V91.7925Z" fill="#F1F2F2"/>
<path d="M248.088 91.7925H245.431V93.8803H248.088V91.7925Z" fill="#A7A9AC"/>
<path d="M247.519 91.7925H239.167V92.0456H247.519V91.7925Z" fill="#A7A9AC"/>
<path d="M247.519 93.6274H239.167V93.8805H247.519V93.6274Z" fill="#A7A9AC"/>
<path d="M256.566 91.7925H245.621V93.8803H256.566V91.7925Z" fill="#58595B"/>
<path d="M252.707 92.2354H246.823V93.3742H252.707V92.2354Z" fill="#A7A9AC"/>
<path d="M252.39 92.2988H247.139V93.3111H252.39V92.2988Z" fill="#E6E7E8"/>
<path d="M254.352 92.8048C254.352 93.1211 254.668 93.3742 255.048 93.3742C255.427 93.3742 255.744 93.1211 255.744 92.8048C255.744 92.4884 255.427 92.2354 255.048 92.2354C254.668 92.2354 254.352 92.4884 254.352 92.8048Z" fill="#A7A9AC"/>
<path d="M244.988 92.1724H240.18V92.3622H244.988V92.1724Z" fill="#A7A9AC"/>
<path d="M244.988 92.9316H240.18V93.1214H244.988V92.9316Z" fill="#A7A9AC"/>
<path d="M244.988 93.248H240.18V93.4379H244.988V93.248Z" fill="#A7A9AC"/>
<path d="M244.672 92.6152H241.698V92.805H244.672V92.6152Z" fill="#A7A9AC"/>
<path d="M241.445 92.6152H240.18V92.805H241.445V92.6152Z" fill="#A7A9AC"/>
<path d="M249.607 89.7681H241.255V91.8559H249.607V89.7681Z" fill="#F1F2F2"/>
<path d="M249.67 89.7681H247.013V91.8559H249.67V89.7681Z" fill="#A7A9AC"/>
<path d="M249.101 89.7681H240.749V90.0211H249.101V89.7681Z" fill="#A7A9AC"/>
<path d="M249.101 91.603H240.749V91.8561H249.101V91.603Z" fill="#A7A9AC"/>
<path d="M258.148 89.7681H247.202V91.8559H258.148V89.7681Z" fill="#594A42"/>
<path d="M254.289 90.2109H248.405V91.3498H254.289V90.2109Z" fill="#A7A9AC"/>
<path d="M253.972 90.2739H248.721V91.2862H253.972V90.2739Z" fill="#E6E7E8"/>
<path d="M255.933 90.7804C255.933 91.0967 256.25 91.3498 256.629 91.3498C257.009 91.3498 257.325 91.0967 257.325 90.7804C257.325 90.464 257.009 90.2109 256.629 90.2109C256.25 90.2109 255.933 90.464 255.933 90.7804Z" fill="#A7A9AC"/>
<path d="M246.57 90.1475H241.761V90.3373H246.57V90.1475Z" fill="#A7A9AC"/>
<path d="M246.57 90.9067H241.761V91.0965H246.57V90.9067Z" fill="#A7A9AC"/>
<path d="M246.57 91.2231H241.761V91.413H246.57V91.2231Z" fill="#A7A9AC"/>
<path d="M246.253 90.5908H243.28V90.7806H246.253V90.5908Z" fill="#A7A9AC"/>
<path d="M243.027 90.5908H241.761V90.7806H243.027V90.5908Z" fill="#A7A9AC"/>
<path d="M258.907 95.8416L259.35 88.9453H254.984L255.427 95.8416H258.907Z" fill="#FAFEFF"/>
<path d="M255.807 95.3992L255.427 89.3887H258.907L258.528 95.3992H255.807Z" fill="#B4EFF9"/>
<path d="M255.554 91.3496L255.807 95.3988H258.528L258.781 91.3496H255.554Z" fill="#75D9EF"/>
<g opacity="0.5">
<g opacity="0.5">
<g opacity="0.5">
<path opacity="0.5" d="M256.123 94.513H256.883L256.44 90.2107C256.376 89.4515 255.617 89.3882 255.744 90.274L256.123 94.513Z" fill="white"/>
</g>
</g>
</g>
<path d="M170.394 88.8191C170.584 90.3376 171.596 91.7295 173.051 92.2356C173.115 92.2356 173.178 92.1724 173.115 92.1091C171.786 91.4132 170.71 90.3376 170.521 88.7559C170.457 88.7559 170.394 88.7559 170.394 88.8191Z" fill="#81553A"/>
<path d="M172.925 86.5411C173.747 88.5025 173.304 90.4638 171.976 92.0455C171.912 92.1088 171.976 92.1721 172.039 92.1088C173.557 90.5903 173.81 88.4392 172.988 86.4779C172.988 86.4146 172.861 86.4779 172.925 86.5411Z" fill="#81553A"/>
<path d="M176.911 87.4272C177.607 88.3762 177.227 89.515 176.721 90.4641C176.278 91.2866 175.455 91.6662 174.696 92.0458C174.633 92.1091 174.696 92.2356 174.76 92.1723C176.531 91.6029 178.429 89.1987 177.037 87.3639C176.974 87.2374 176.847 87.3006 176.911 87.4272Z" fill="#81553A"/>
<path d="M176.531 90.4639C177.164 90.717 178.05 90.2109 178.429 89.7047C178.492 89.6414 178.366 89.5782 178.303 89.6414C178.05 89.8945 177.796 90.1476 177.48 90.2741C177.164 90.4007 176.847 90.4007 176.531 90.4007C176.468 90.3374 176.468 90.4007 176.531 90.4639Z" fill="#81553A"/>
<path d="M174.57 86.8575C174.443 87.933 174.127 89.5148 173.115 90.1475C173.051 90.2107 173.115 90.274 173.178 90.274C174.317 89.9576 174.57 87.8698 174.633 86.9207C174.633 86.7942 174.57 86.7942 174.57 86.8575Z" fill="#81553A"/>
<path d="M168.496 88.3128C168.686 89.5149 169.698 90.5272 170.9 90.3374C170.963 90.3374 170.963 90.2741 170.9 90.2741C169.698 90.1476 168.749 89.5149 168.559 88.3128C168.559 88.1863 168.496 88.2495 168.496 88.3128Z" fill="#81553A"/>
<path d="M178.239 91.0967H169.508C169.508 91.0967 168.812 92.8049 168.812 93.1846C168.812 93.5642 169.761 94.4499 170.837 94.4499H176.974C177.986 94.4499 178.999 93.5642 178.999 93.1846C178.999 92.8049 178.239 91.0967 178.239 91.0967Z" fill="#FFD04D"/>
<path d="M177.29 94.8926H170.457L170.71 94.4497H177.037L177.29 94.8926Z" fill="#EFAF11"/>
<path d="M171.47 93.1846C171.47 92.7417 172.166 91.0967 172.166 91.0967H169.508C169.508 91.0967 168.812 92.8049 168.812 93.1846C168.812 93.5642 169.761 94.4499 170.837 94.4499H173.494C172.419 94.4499 171.47 93.6274 171.47 93.1846Z" fill="#EFAF11"/>
<path opacity="0.55" d="M170.71 94.4497L170.457 94.8926H173.115L173.304 94.4497H170.71Z" fill="#EFAF11"/>
<path d="M173.557 87.9333C173.747 87.8067 174.506 87.4904 175.076 87.8067C176.025 88.3761 176.151 89.2619 176.151 89.5783C175.709 89.6415 175.202 89.7681 174.696 89.7048C173.051 89.5783 173.178 88.1863 173.557 87.9333Z" fill="#709E3E"/>
<path d="M177.48 87.0477C177.607 86.9211 178.113 86.7313 178.492 86.9211C179.188 87.3007 179.252 87.8702 179.315 88.1232C178.999 88.1865 178.682 88.2498 178.303 88.2498C177.227 88.1865 177.29 87.2375 177.48 87.0477Z" fill="#709E3E"/>
<path d="M177.164 86.4783C177.037 86.415 176.658 86.3518 176.468 86.5416C176.088 86.8579 176.088 87.3008 176.088 87.4273C176.341 87.4273 176.531 87.4273 176.784 87.3641C177.48 87.2375 177.354 86.6048 177.164 86.4783Z" fill="#709E3E"/>
<path d="M169.445 87.3004C169.255 87.2371 169.065 87.1739 168.876 87.2371C168.686 87.3004 168.496 87.3637 168.369 87.5535C168.243 87.7433 168.243 87.9964 168.306 88.1862C168.433 88.4393 168.686 88.5025 168.876 88.5025C169.318 88.5658 169.825 88.1862 170.267 88.0596C170.078 87.7433 169.761 87.427 169.445 87.3004Z" fill="#709E3E"/>
<path d="M170.584 88.4395C170.394 88.566 170.267 88.7559 170.267 88.9457C170.267 89.1987 170.584 89.3885 170.837 89.3885C171.09 89.3885 171.976 89.1355 172.419 89.3253C171.659 88.0599 170.963 88.1864 170.584 88.4395Z" fill="#709E3E"/>
<path d="M178.239 88.8825C178.113 88.9457 177.923 89.0723 177.923 89.2621C177.86 89.4519 178.049 89.6417 178.239 89.705C178.429 89.7682 179.125 89.705 179.378 89.8948C179.378 88.9457 178.619 88.6926 178.239 88.8825Z" fill="#709E3E"/>
<path d="M173.431 90.1478C173.621 90.0845 174.443 90.0212 174.76 90.4641C175.329 91.2233 174.823 91.9193 174.76 92.1091C174.317 92.0458 173.937 91.9193 173.557 91.7928C172.229 91.1601 172.735 90.211 173.431 90.1478Z" fill="#709E3E"/>
<path d="M170.584 90.2746C170.394 90.2113 169.761 90.2113 169.508 90.6542C169.002 91.4134 169.255 92.1094 169.318 92.3625C169.698 92.2992 170.078 92.2359 170.394 92.0461C171.47 91.4134 170.9 90.4011 170.584 90.2746Z" fill="#709E3E"/>
<path d="M172.672 86.4147C172.861 86.478 173.051 86.5412 173.115 86.7311C173.178 86.9841 173.051 87.2372 172.861 87.3005C172.672 87.427 171.849 87.4903 171.596 87.8066C171.596 86.478 172.229 86.3514 172.672 86.4147Z" fill="#709E3E"/>
<g opacity="0.62">
<g opacity="0.62">
<g opacity="0.62">
<path opacity="0.62" d="M168.306 87.8067C169.002 87.7434 169.635 87.87 170.331 88.1863C170.331 88.1863 170.394 88.1863 170.331 88.1231C169.698 87.8067 168.939 87.7434 168.306 87.8067C168.243 87.8067 168.243 87.8067 168.306 87.8067Z" fill="#93BC6C"/>
</g>
</g>
<g opacity="0.62">
<g opacity="0.62">
<path opacity="0.62" d="M168.496 87.6801C169.065 87.5535 169.508 87.6168 170.014 87.8699C170.014 87.8699 170.078 87.8699 170.014 87.8066C169.635 87.4903 169.002 87.427 168.496 87.6801C168.496 87.6168 168.496 87.6801 168.496 87.6801Z" fill="#93BC6C"/>
</g>
</g>
<g opacity="0.62">
<g opacity="0.62">
<path opacity="0.62" d="M168.369 87.9332C168.622 88.4393 169.382 88.3761 169.825 88.2495C169.888 88.2495 169.825 88.1863 169.825 88.1863C169.382 88.2495 168.686 88.3128 168.369 87.9332C168.433 87.8699 168.369 87.8699 168.369 87.9332Z" fill="#93BC6C"/>
</g>
</g>
<g opacity="0.62">
<g opacity="0.62">
<path opacity="0.62" d="M170.457 88.6292C171.153 88.3762 171.786 88.6292 172.229 89.1987H172.292C171.912 88.5027 171.09 88.3129 170.457 88.6292C170.394 88.6292 170.457 88.6292 170.457 88.6292Z" fill="#93BC6C"/>
</g>
</g>
<g opacity="0.62">
<g opacity="0.62">
<path opacity="0.62" d="M170.521 88.7559C171.09 88.8192 171.596 89.009 172.102 89.1988C171.659 88.8825 171.09 88.7559 170.521 88.7559C170.521 88.6927 170.521 88.6927 170.521 88.7559Z" fill="#93BC6C"/>
</g>
</g>
<g opacity="0.62">
<g opacity="0.62">
<path opacity="0.62" d="M170.331 88.8821C170.837 89.1985 171.406 89.325 172.039 89.2617C172.102 89.2617 172.102 89.1985 172.039 89.1985C171.47 89.1985 170.9 89.1352 170.331 88.8821C170.331 88.8189 170.331 88.8821 170.331 88.8821Z" fill="#93BC6C"/>
</g>
</g>
<g opacity="0.62">
<g opacity="0.62">
<path opacity="0.62" d="M171.659 87.8066C171.976 87.3005 172.355 86.9841 172.861 86.6678C172.925 86.6678 172.861 86.6045 172.798 86.6045C172.292 86.8576 171.849 87.3005 171.659 87.8066C171.596 87.8066 171.596 87.8699 171.659 87.8066Z" fill="#93BC6C"/>
</g>
</g>
<g opacity="0.62">
<g opacity="0.62">
<path opacity="0.62" d="M172.165 87.5537C172.545 87.3639 172.925 87.1109 173.115 86.7312C173.115 86.7312 173.115 86.668 173.051 86.7312C172.798 87.0476 172.545 87.3639 172.165 87.5537C172.102 87.5537 172.102 87.617 172.165 87.5537Z" fill="#93BC6C"/>
</g>
</g>
<g opacity="0.62">
<g opacity="0.62">
<path opacity="0.62" d="M171.659 87.4905C171.849 86.9211 172.229 86.668 172.798 86.6048C172.861 86.6048 172.861 86.5415 172.798 86.5415C172.229 86.5415 171.723 86.9211 171.659 87.4905C171.596 87.4905 171.659 87.4905 171.659 87.4905Z" fill="#93BC6C"/>
</g>
</g>
<g opacity="0.62">
<g opacity="0.62">
<path opacity="0.62" d="M176.151 87.4903C176.404 87.1106 176.658 86.9208 177.037 86.6678C177.1 86.6678 177.037 86.6045 176.974 86.6045C176.658 86.731 176.341 87.0474 176.151 87.4903C176.088 87.4903 176.151 87.4903 176.151 87.4903Z" fill="#93BC6C"/>
</g>
</g>
<g opacity="0.62">
<g opacity="0.62">
<path opacity="0.62" d="M176.531 87.3007C176.847 87.1742 177.101 86.9844 177.227 86.6681C177.227 86.6048 177.227 86.6048 177.164 86.6681C177.037 86.9211 176.847 87.1109 176.531 87.3007C176.531 87.2375 176.531 87.3007 176.531 87.3007Z" fill="#93BC6C"/>
</g>
</g>
<g opacity="0.62">
<g opacity="0.62">
<path opacity="0.62" d="M176.151 87.2373C176.278 86.8576 176.594 86.6046 176.974 86.5413C177.037 86.5413 176.974 86.478 176.974 86.478C176.594 86.478 176.215 86.7944 176.151 87.2373Z" fill="#93BC6C"/>
</g>
</g>
<g opacity="0.62">
<g opacity="0.62">
<path opacity="0.62" d="M169.318 92.1722C169.698 91.4762 170.204 90.9068 170.774 90.4007V90.3374C170.141 90.7803 169.635 91.4762 169.318 92.1722C169.318 92.1722 169.318 92.2355 169.318 92.1722Z" fill="#93BC6C"/>
</g>
</g>
<g opacity="0.62">
<g opacity="0.62">
<path opacity="0.62" d="M169.255 92.2358C169.129 91.2867 169.698 90.5908 170.584 90.3377V90.2744C169.635 90.3377 169.065 91.2867 169.255 92.2358Z" fill="#93BC6C"/>
</g>
</g>
<g opacity="0.62">
<g opacity="0.62">
<path opacity="0.62" d="M169.382 92.1725C170.141 92.1093 170.9 91.4766 170.9 90.5908H170.837C170.71 91.4133 170.267 92.046 169.382 92.1725C169.382 92.1093 169.382 92.1725 169.382 92.1725Z" fill="#93BC6C"/>
</g>
</g>
<g opacity="0.62">
<g opacity="0.62">
<path opacity="0.62" d="M173.115 90.2744C173.81 90.5908 174.253 91.1602 174.443 91.9194H174.506C174.38 91.1602 173.81 90.5908 173.115 90.2744Z" fill="#93BC6C"/>
</g>
</g>
<g opacity="0.62">
<g opacity="0.62">
<path opacity="0.62" d="M173.241 90.3377C174 90.4642 174.76 90.7173 174.76 91.6031C174.76 91.6663 174.823 91.6663 174.823 91.6031C174.886 90.654 173.937 90.401 173.241 90.3377C173.178 90.2744 173.178 90.3377 173.241 90.3377Z" fill="#93BC6C"/>
</g>
</g>
<g opacity="0.62">
<g opacity="0.62">
<path opacity="0.62" d="M173.178 90.4642C173.051 91.1601 173.684 91.603 174.317 91.7928C174.317 91.7928 174.38 91.7928 174.317 91.7295C173.81 91.4765 173.051 91.1601 173.178 90.4642C173.241 90.4642 173.178 90.4009 173.178 90.4642Z" fill="#93BC6C"/>
</g>
</g>
<g opacity="0.62">
<g opacity="0.62">
<path opacity="0.62" d="M173.494 88.1865C173.494 89.1988 175.013 89.5784 175.772 89.5152V89.4519C175.013 89.4519 173.557 89.1988 173.494 88.1865Z" fill="#93BC6C"/>
</g>
</g>
<g opacity="0.62">
<g opacity="0.62">
<path opacity="0.62" d="M173.684 88.3128C174.38 88.8189 175.139 89.2618 175.962 89.5149C175.962 89.5149 176.025 89.4516 175.962 89.4516C175.139 89.1353 174.443 88.7557 173.684 88.3128C173.684 88.2495 173.684 88.3128 173.684 88.3128Z" fill="#93BC6C"/>
</g>
</g>
<g opacity="0.62">
<g opacity="0.62">
<path opacity="0.62" d="M173.684 88.123C174.633 88.3129 175.329 88.7557 175.962 89.4517C175.962 89.4517 176.025 89.4517 176.025 89.3884C175.455 88.6925 174.633 88.2496 173.684 88.123Z" fill="#93BC6C"/>
</g>
</g>
<g opacity="0.62">
<g opacity="0.62">
<path opacity="0.62" d="M173.811 87.9331C174.317 87.9331 174.886 87.9331 175.329 88.2494C175.772 88.5658 175.962 89.0087 176.025 89.5781H176.088C176.088 89.0719 175.835 88.6291 175.456 88.3127C174.949 87.8066 174.38 87.8066 173.811 87.9331C173.811 87.8698 173.811 87.9331 173.811 87.9331Z" fill="#93BC6C"/>
</g>
</g>
<g opacity="0.62">
<g opacity="0.62">
<path opacity="0.62" d="M177.417 87.3004C177.48 88.0596 178.619 88.1861 179.188 88.1229V88.0596C178.556 88.0596 177.543 87.9963 177.417 87.3004C177.417 87.2371 177.417 87.2371 177.417 87.3004Z" fill="#93BC6C"/>
</g>
</g>
<g opacity="0.62">
<g opacity="0.62">
<path opacity="0.62" d="M177.543 87.3638C178.049 87.6801 178.619 87.9332 179.252 88.123C179.252 88.123 179.315 88.0597 179.252 88.0597C178.682 87.8699 178.113 87.6168 177.543 87.3638Z" fill="#93BC6C"/>
</g>
</g>
<g opacity="0.62">
<g opacity="0.62">
<path opacity="0.62" d="M177.543 87.2373C178.239 87.3006 178.745 87.6169 179.252 88.0598C179.252 88.0598 179.315 88.0598 179.315 87.9965C178.872 87.5537 178.176 87.3006 177.543 87.2373Z" fill="#93BC6C"/>
</g>
</g>
<g opacity="0.62">
<g opacity="0.62">
<path opacity="0.62" d="M177.607 87.111C177.986 87.0477 178.366 87.0477 178.682 87.2375C179.062 87.4273 179.188 87.7437 179.252 88.1233H179.315C179.315 87.7437 179.125 87.4273 178.809 87.2375C178.429 86.9212 178.05 86.9845 177.607 87.111C177.607 87.0477 177.607 87.111 177.607 87.111Z" fill="#93BC6C"/>
</g>
</g>
<g opacity="0.62">
<g opacity="0.62">
<path opacity="0.62" d="M177.923 89.3253C177.986 89.4518 178.113 89.5784 178.239 89.5784C178.366 89.6416 178.492 89.5784 178.619 89.6416C178.872 89.6416 179.125 89.7682 179.315 89.8947C179.125 89.7682 178.872 89.6416 178.619 89.6416C178.429 89.5151 178.113 89.5784 177.923 89.3253C177.923 89.262 177.923 89.262 177.923 89.3253Z" fill="#93BC6C"/>
</g>
</g>
<g opacity="0.62">
<g opacity="0.62">
<path opacity="0.62" d="M178.05 89.1985C178.556 89.1985 178.999 89.4516 179.315 89.8312C179.062 89.3883 178.556 89.1353 178.05 89.1985C177.986 89.1353 177.986 89.1985 178.05 89.1985Z" fill="#93BC6C"/>
</g>
</g>
<g opacity="0.62">
<g opacity="0.62">
<path opacity="0.62" d="M178.176 89.0721C178.682 88.9455 179.125 89.1986 179.315 89.7048H179.378C179.252 89.1353 178.682 88.8823 178.176 89.0721Z" fill="#93BC6C"/>
</g>
</g>
</g>
<path d="M168.622 88.756C168.433 88.6295 167.737 88.3131 167.23 88.6295C166.345 89.1989 166.218 90.1479 166.155 90.4643C166.598 90.5275 167.104 90.5908 167.547 90.5275C169.065 90.401 169.002 89.0091 168.622 88.756Z" fill="#93BC6C"/>
<path d="M176.847 87.1739C176.721 87.0474 176.151 86.9209 175.772 87.1739C175.139 87.6801 175.139 88.3761 175.139 88.6291C175.456 88.6924 175.835 88.6924 176.151 88.6291C177.354 88.4393 177.164 87.3638 176.847 87.1739Z" fill="#93BC6C"/>
<path d="M173.304 85.5923C173.178 85.6556 172.988 85.7821 172.988 85.9719C172.925 86.1617 173.115 86.3515 173.304 86.4148C173.494 86.4781 174.19 86.4148 174.443 86.6046C174.443 85.5923 173.621 85.4025 173.304 85.5923Z" fill="#93BC6C"/>
<path d="M176.594 90.2111C176.784 90.1479 177.417 89.8948 177.796 90.1479C178.492 90.654 178.176 91.35 178.176 91.5398C177.796 91.5398 177.417 91.603 177.037 91.5398C175.835 91.2867 176.025 90.4642 176.594 90.2111Z" fill="#93BC6C"/>
<path d="M166.345 90.4006C166.661 90.2108 166.914 89.9577 167.167 89.7046C167.547 89.325 167.99 89.1352 168.433 88.8821V88.8188C167.547 89.0719 167.041 89.8944 166.345 90.4006C166.281 90.4006 166.281 90.4638 166.345 90.4006Z" fill="#709E3E"/>
<path d="M166.345 90.2741C166.598 89.9578 166.788 89.5782 167.041 89.2618C167.42 88.8189 167.863 88.8189 168.433 88.7557C168.496 88.7557 168.496 88.6924 168.433 88.6924C167.294 88.4393 166.724 89.4516 166.345 90.2741C166.281 90.3374 166.281 90.3374 166.345 90.2741Z" fill="#709E3E"/>
<path d="M166.598 90.4641C167.167 90.4641 167.927 90.4008 168.369 90.0212C168.622 89.7681 168.812 89.3252 168.686 89.0089C168.686 88.9456 168.622 88.9456 168.622 89.0089C168.559 89.3252 168.559 89.7048 168.306 89.9579C167.927 90.3375 167.104 90.3375 166.598 90.4641C166.535 90.4008 166.535 90.4641 166.598 90.4641Z" fill="#709E3E"/>
<path d="M166.408 90.4005C166.851 90.274 167.294 90.1474 167.737 90.0209C168.18 89.8311 168.369 89.4515 168.559 89.0719C168.559 89.0086 168.559 89.0086 168.496 89.0719C168.18 89.5147 167.99 89.8944 167.484 90.0842C167.104 90.1474 166.724 90.274 166.408 90.4005C166.345 90.4005 166.345 90.4638 166.408 90.4005Z" fill="#709E3E"/>
<path d="M173.241 85.8455C173.621 85.972 174.064 86.1618 174.317 86.4782C174.317 86.4782 174.38 86.4782 174.317 86.4782C174.064 86.0986 173.684 85.9088 173.241 85.8455C173.241 85.7822 173.241 85.8455 173.241 85.8455Z" fill="#709E3E"/>
<path d="M173.051 85.9718C173.115 86.0983 173.178 86.1616 173.304 86.2248C173.557 86.3514 173.874 86.4146 174.127 86.4779C174.127 86.4779 174.19 86.4779 174.127 86.4146C173.874 86.2881 173.241 86.2248 173.051 85.9718C173.115 85.9085 173.051 85.9085 173.051 85.9718Z" fill="#709E3E"/>
<path d="M173.241 85.7823C173.747 85.719 174.127 85.9721 174.38 86.415H174.443C174.317 85.9088 173.747 85.6558 173.241 85.719C173.178 85.719 173.178 85.7823 173.241 85.7823Z" fill="#709E3E"/>
<path d="M175.329 88.6293C175.835 88.3129 176.405 87.9333 176.847 87.5537C176.278 87.8068 175.772 88.2497 175.329 88.6293C175.266 88.6293 175.266 88.6293 175.329 88.6293Z" fill="#709E3E"/>
<path d="M175.455 88.6293C176.025 88.566 176.721 88.1864 176.911 87.617C176.911 87.617 176.911 87.5537 176.847 87.617C176.594 88.1231 176.025 88.5028 175.455 88.6293C175.392 88.566 175.455 88.6293 175.455 88.6293Z" fill="#709E3E"/>
<path d="M175.266 88.5659C175.582 87.9965 176.025 87.6168 176.658 87.427V87.3638C176.025 87.4903 175.519 87.9965 175.266 88.5659C175.202 88.5659 175.266 88.5659 175.266 88.5659Z" fill="#709E3E"/>
<path d="M175.519 88.6292C175.962 88.6292 176.341 88.6292 176.658 88.3129C176.847 88.1231 176.974 87.9333 176.911 87.6802H176.847C177.101 88.4394 176.088 88.5659 175.519 88.6292Z" fill="#709E3E"/>
<path d="M175.266 88.4396C175.455 87.7436 175.835 87.2374 176.594 87.3007C176.658 87.3007 176.658 87.2374 176.594 87.2374C175.835 87.1109 175.329 87.7436 175.266 88.4396C175.202 88.4396 175.266 88.5028 175.266 88.4396Z" fill="#709E3E"/>
<path d="M176.784 90.2744C177.29 90.5908 177.733 91.0336 178.113 91.4765C178.113 91.4765 178.176 91.4765 178.113 91.4765C177.796 90.9704 177.354 90.5908 176.784 90.2744Z" fill="#709E3E"/>
<path d="M176.847 90.274C177.543 90.4006 177.923 90.8434 178.176 91.4761H178.239C178.05 90.7169 177.48 90.3373 176.847 90.274C176.847 90.2107 176.847 90.2107 176.847 90.274Z" fill="#709E3E"/>
<path d="M176.974 90.2112C177.29 90.2112 177.607 90.2745 177.86 90.4643C178.113 90.6541 178.113 90.9072 178.113 91.2235H178.176C178.176 90.9072 178.113 90.6541 177.923 90.401C177.67 90.2112 177.354 90.148 176.974 90.2112Z" fill="#709E3E"/>
<path d="M176.721 90.2744C176.278 90.8438 177.733 91.4765 178.113 91.5398C178.176 91.5398 178.176 91.4765 178.113 91.4765C177.796 91.35 176.404 90.8438 176.721 90.2744C176.784 90.2744 176.721 90.2744 176.721 90.2744Z" fill="#709E3E"/>
<path d="M176.594 90.3374C176.341 90.5272 176.341 90.8435 176.531 91.0334C176.847 91.413 177.417 91.5395 177.86 91.4762C177.923 91.4762 177.923 91.413 177.86 91.413C177.607 91.413 177.353 91.3497 177.1 91.2864C176.784 91.1599 176.025 90.717 176.594 90.3374Z" fill="#709E3E"/>
<path d="M156.538 97.6133H154.134V145.318H156.538V97.6133Z" fill="#4C2311"/>
<path d="M256.25 97.6133H253.846V145.318H256.25V97.6133Z" fill="#4C2311"/>
<path d="M261.185 96.2217H149.199V98.3095H261.185V96.2217Z" fill="#4C2311"/>
<path d="M262.324 95.7788H147.997V96.7278H262.324V95.7788Z" fill="#66341B"/>
<path d="M192.032 95.3354H167.863V95.8416H192.032V95.3354Z" fill="#525252"/>
<path d="M191.02 94.7031C191.02 94.7031 181.466 94.1336 180.074 95.1459C178.176 94.2602 168.875 94.7031 168.875 94.7031V95.3357H191.02V94.7031Z" fill="#D6D6D6"/>
<path d="M191.02 95.0827C190.134 95.0195 189.185 94.9562 188.299 94.8929C187.35 94.8297 186.464 94.7664 185.515 94.7664C184.566 94.7664 183.68 94.7031 182.731 94.7664C182.288 94.7664 181.846 94.8297 181.339 94.8929C181.086 94.8929 180.897 94.9562 180.643 95.0195C180.454 95.0827 180.201 95.146 180.011 95.2726C179.821 95.2093 179.568 95.146 179.378 95.0827C179.125 95.0195 178.935 95.0195 178.682 94.9562C178.239 94.8929 177.733 94.8929 177.29 94.8297C176.341 94.7664 175.392 94.7664 174.506 94.8297C173.557 94.8297 172.608 94.8929 171.723 94.9562C170.774 95.0195 169.824 95.0195 168.939 95.146C170.774 94.9562 172.672 94.8297 174.57 94.8297C175.519 94.8297 176.468 94.7664 177.353 94.8297C177.796 94.8297 178.303 94.8929 178.745 94.8929C178.998 94.8929 179.188 94.9562 179.441 95.0195C179.694 95.0827 179.884 95.146 180.137 95.2093H180.074C180.264 95.0827 180.517 95.0195 180.707 94.9562C180.96 94.8929 181.15 94.8929 181.403 94.8297C181.846 94.7664 182.352 94.7664 182.795 94.7664C183.744 94.7664 184.629 94.7664 185.578 94.7664C187.35 94.7664 189.185 94.8929 191.02 95.0827Z" fill="#A5A5AF"/>
<path d="M191.02 95.0827C190.134 95.0827 189.185 95.0194 188.299 95.0194C187.413 95.0194 186.464 94.9561 185.579 94.9561C184.693 94.9561 183.744 94.9561 182.858 94.9561C182.415 94.9561 181.972 94.9561 181.466 95.0194C181.213 95.0194 181.023 95.0194 180.77 95.0827C180.517 95.0827 180.327 95.1459 180.137 95.2092C179.948 95.1459 179.695 95.1459 179.441 95.1459C179.188 95.1459 178.999 95.1459 178.745 95.0827C178.303 95.0827 177.796 95.0827 177.354 95.0827C176.405 95.0827 175.519 95.0827 174.57 95.0827L169.002 95.1459L171.786 95.0827L174.57 95.0194C175.519 95.0194 176.405 95.0194 177.354 95.0194C177.796 95.0194 178.303 95.0194 178.745 95.0194C178.999 95.0194 179.188 95.0194 179.441 95.0194C179.695 95.0194 179.884 95.0194 180.137 95.0827C180.39 95.0194 180.58 94.9561 180.833 94.9561C181.086 94.9561 181.276 94.8929 181.529 94.8929C181.972 94.8929 182.415 94.8296 182.921 94.8296C183.807 94.8296 184.756 94.8296 185.642 94.8296C186.528 94.8296 187.477 94.8296 188.362 94.8929C189.185 95.0194 190.134 95.0827 191.02 95.0827Z" fill="#A5A5AF"/>
<path d="M226.703 95.3354H202.535V95.8416H226.703V95.3354Z" fill="#525252"/>
<path d="M225.691 94.7031C225.691 94.7031 216.137 94.1336 214.745 95.1459C212.847 94.2602 203.547 94.7031 203.547 94.7031V95.3357H225.691V94.7031Z" fill="#D6D6D6"/>
<path d="M225.691 95.0827C224.805 95.0195 223.856 94.9562 222.97 94.8929C222.021 94.8297 221.136 94.7664 220.187 94.7664C219.238 94.7664 218.352 94.7031 217.403 94.7664C216.96 94.7664 216.517 94.8297 216.011 94.8929C215.758 94.8929 215.568 94.9562 215.315 95.0195C215.125 95.0827 214.872 95.146 214.682 95.2726C214.492 95.2093 214.239 95.146 214.049 95.0827C213.796 95.0195 213.607 95.0195 213.354 94.9562C212.911 94.8929 212.404 94.8929 211.962 94.8297C211.013 94.7664 210.064 94.7664 209.178 94.8297C208.229 94.8297 207.28 94.8929 206.394 94.9562C205.445 95.0195 204.496 95.0195 203.61 95.146C205.445 94.9562 207.343 94.8297 209.241 94.8297C210.19 94.8297 211.139 94.7664 212.025 94.8297C212.468 94.8297 212.974 94.8929 213.417 94.8929C213.67 94.8929 213.86 94.9562 214.113 95.0195C214.366 95.0827 214.556 95.146 214.809 95.2093H214.745C214.935 95.0827 215.188 95.0195 215.378 94.9562C215.631 94.8929 215.821 94.8929 216.074 94.8297C216.517 94.7664 217.023 94.7664 217.466 94.7664C218.415 94.7664 219.301 94.7664 220.25 94.7664C222.021 94.7664 223.856 94.8929 225.691 95.0827Z" fill="#A5A5AF"/>
<path d="M225.691 95.0827C224.805 95.0827 223.856 95.0194 222.97 95.0194C222.085 95.0194 221.136 94.9561 220.25 94.9561C219.364 94.9561 218.415 94.9561 217.529 94.9561C217.086 94.9561 216.643 94.9561 216.137 95.0194C215.884 95.0194 215.694 95.0194 215.441 95.0827C215.188 95.0827 214.998 95.1459 214.809 95.2092C214.619 95.1459 214.366 95.1459 214.113 95.1459C213.86 95.1459 213.67 95.1459 213.417 95.0827C212.974 95.0827 212.468 95.0827 212.025 95.0827C211.076 95.0827 210.19 95.0827 209.241 95.0827L203.673 95.1459L206.457 95.0827L209.241 95.0194C210.19 95.0194 211.076 95.0194 212.025 95.0194C212.468 95.0194 212.974 95.0194 213.417 95.0194C213.67 95.0194 213.86 95.0194 214.113 95.0194C214.366 95.0194 214.556 95.0194 214.809 95.0827C215.062 95.0194 215.252 94.9561 215.505 94.9561C215.758 94.9561 215.948 94.8929 216.201 94.8929C216.643 94.8929 217.086 94.8296 217.592 94.8296C218.478 94.8296 219.427 94.8296 220.313 94.8296C221.199 94.8296 222.148 94.8296 223.034 94.8929C223.856 95.0194 224.742 95.0827 225.691 95.0827Z" fill="#A5A5AF"/>
<path d="M238.345 136.587L238.724 139.055H240.559L241.382 138.865L240.812 135.132L238.345 136.587Z" fill="#FFE1BD"/>
<path d="M241.065 135.954C240.876 136.017 240.686 136.081 240.496 136.144C239.484 136.46 238.092 136.65 238.092 136.65C235.877 133.044 230.183 115.455 230.183 115.455C229.677 113.241 232.967 116.088 234.359 116.024C234.865 116.024 235.308 116.088 235.624 116.214C236.953 116.784 238.914 120.517 238.914 120.517C238.914 120.517 239.484 121.782 240.116 124.502C240.749 127.16 241.065 135.954 241.065 135.954Z" fill="#1A1A47"/>
<path opacity="0.54" d="M241.065 135.954C240.876 136.017 240.686 136.081 240.496 136.144C240.369 135.068 240.18 133.36 239.863 130.64C239.167 124.566 235.308 117.543 234.422 116.024C234.928 116.024 235.371 116.088 235.687 116.214C237.016 116.784 238.977 120.517 238.977 120.517C238.977 120.517 239.547 121.782 240.18 124.502C240.749 127.16 241.065 135.954 241.065 135.954Z" fill="#3D3D72"/>
<path d="M238.598 138.675C238.598 138.675 239.357 138.675 239.99 138.485C240.749 138.232 241.192 137.726 241.192 137.726C241.192 137.726 243.153 138.928 243.153 141.079C243.153 141.205 243.09 141.269 242.963 141.332C242.963 141.332 238.282 143.42 236.7 143.989C235.688 144.369 234.106 144.685 234.106 144.685C233.979 144.685 233.853 144.685 233.853 144.559C233.789 144.369 233.726 143.989 234.232 143.61C234.928 143.04 235.751 142.597 236.32 142.154C236.89 141.712 237.459 140.446 237.902 140.067C238.345 139.497 238.598 138.675 238.598 138.675Z" fill="#1A1A47"/>
<path d="M248.341 149.304L249.037 112.734H246.633L247.329 149.304C247.329 149.683 247.582 150 247.835 150C248.088 150 248.341 149.683 248.341 149.304Z" fill="#723E24"/>
<path d="M225.944 145.065L240.053 111.343L237.839 110.394L224.995 144.622C224.868 144.938 224.995 145.318 225.248 145.445C225.501 145.571 225.817 145.381 225.944 145.065Z" fill="#723E24"/>
<path d="M269.6 145.065L255.491 111.343L257.768 110.457L270.612 144.685C270.738 145.002 270.612 145.381 270.359 145.508C270.106 145.571 269.726 145.381 269.6 145.065Z" fill="#723E24"/>
<g opacity="0.3">
<g opacity="0.3">
<g opacity="0.3">
<g opacity="0.3">
<path opacity="0.3" d="M237.459 111.469L238.914 112.039L225.628 145.445C225.754 145.381 225.944 145.255 226.007 145.065L240.116 111.343L237.839 110.394L237.459 111.469Z" fill="black"/>
</g>
</g>
</g>
<g opacity="0.3">
<g opacity="0.3">
<g opacity="0.3">
<path opacity="0.3" d="M246.57 113.747H248.404L247.709 150H247.772C248.088 150 248.278 149.684 248.278 149.304L248.974 112.735H246.57V113.747Z" fill="black"/>
</g>
</g>
</g>
<g opacity="0.3">
<g opacity="0.3">
<g opacity="0.3">
<path opacity="0.3" d="M270.612 144.685L257.768 110.394L255.491 111.279L255.744 111.912L257.136 111.343L269.916 145.381C270.042 145.445 270.232 145.508 270.359 145.445C270.612 145.381 270.738 145.002 270.612 144.685Z" fill="black"/>
</g>
</g>
</g>
</g>
<path d="M230.626 94.1968H208.292L203.863 80.2777C203.61 79.5817 204.18 78.8857 204.876 78.8857H224.932C225.375 78.8857 225.818 79.2021 225.944 79.645L230.626 94.1968Z" fill="white"/>
<path d="M230.31 94.1967H208.925L204.559 80.5306C204.369 79.8346 204.875 79.1387 205.571 79.1387H224.742C225.185 79.1387 225.628 79.455 225.754 79.8979L230.31 94.1967Z" fill="#E1EDF9"/>
<path d="M216.897 81.7327H207.153C207.027 81.7327 206.9 81.6062 206.9 81.4796C206.9 81.3531 207.027 81.2266 207.153 81.2266H216.897C217.023 81.2266 217.15 81.3531 217.15 81.4796C217.15 81.6062 217.023 81.7327 216.897 81.7327Z" fill="#C2E0F2"/>
<path d="M218.352 82.9983H207.47C207.343 82.9983 207.216 82.8718 207.216 82.7453C207.216 82.6187 207.343 82.4922 207.47 82.4922H218.352C218.478 82.4922 218.605 82.6187 218.605 82.7453C218.668 82.8718 218.542 82.9983 218.352 82.9983Z" fill="#C2E0F2"/>
<path d="M217.339 84.2005H207.849C207.723 84.2005 207.596 84.0739 207.596 83.9474C207.596 83.8209 207.723 83.6943 207.849 83.6943H217.339C217.466 83.6943 217.593 83.8209 217.593 83.9474C217.656 84.0739 217.529 84.2005 217.339 84.2005Z" fill="#C2E0F2"/>
<path d="M215.821 85.4021H208.292C208.165 85.4021 208.039 85.2756 208.039 85.1491C208.039 85.0225 208.165 84.896 208.292 84.896H215.821C215.948 84.896 216.074 85.0225 216.074 85.1491C216.074 85.2756 215.948 85.4021 215.821 85.4021Z" fill="#C2E0F2"/>
<path d="M219.554 86.6043H208.672C208.545 86.6043 208.419 86.4778 208.419 86.3512C208.419 86.2247 208.545 86.0981 208.672 86.0981H219.554C219.68 86.0981 219.807 86.2247 219.807 86.3512C219.807 86.4778 219.68 86.6043 219.554 86.6043Z" fill="#C2E0F2"/>
<path d="M218.542 87.8064H209.051C208.925 87.8064 208.798 87.6799 208.798 87.5534C208.798 87.4268 208.925 87.3003 209.051 87.3003H218.542C218.668 87.3003 218.795 87.4268 218.795 87.5534C218.795 87.7432 218.668 87.8064 218.542 87.8064Z" fill="#C2E0F2"/>
<path d="M220.693 90.2742H209.81C209.684 90.2742 209.557 90.1477 209.557 90.0211C209.557 89.8946 209.684 89.7681 209.81 89.7681H220.693C220.819 89.7681 220.946 89.8946 220.946 90.0211C221.009 90.1477 220.882 90.2742 220.693 90.2742Z" fill="#C2E0F2"/>
<path d="M221.136 91.4764H210.253C210.127 91.4764 210 91.3498 210 91.2233C210 91.0967 210.127 90.9702 210.253 90.9702H221.136C221.262 90.9702 221.389 91.0967 221.389 91.2233C221.389 91.3498 221.262 91.4764 221.136 91.4764Z" fill="#C2E0F2"/>
<path d="M226.893 91.4761H223.35C223.034 91.4761 222.717 91.2863 222.654 90.97L219.744 81.7327C219.617 81.2266 219.933 80.7837 220.44 80.7837H223.983C224.299 80.7837 224.615 80.9735 224.679 81.2898L227.589 90.5271C227.779 90.97 227.399 91.4761 226.893 91.4761Z" fill="#C2E0F2"/>
<path d="M232.524 95.2093H208.229C207.849 95.2093 207.533 94.8929 207.533 94.5133C207.533 94.1337 207.849 93.8174 208.229 93.8174H232.524C232.904 93.8174 233.22 94.1337 233.22 94.5133C233.22 94.8929 232.904 95.2093 232.524 95.2093Z" fill="white"/>
<path d="M239.547 76.0386C239.357 76.0386 239.104 75.9121 239.041 75.7222L238.218 74.3303C238.155 74.2038 238.092 74.014 238.155 73.8875C238.218 73.6976 238.281 73.5711 238.471 73.5078L240.749 72.3057C241.065 72.1792 241.382 72.2425 241.571 72.5588L242.331 73.9507C242.394 74.0773 242.457 74.2671 242.394 74.3936C242.331 74.5201 242.267 74.6467 242.078 74.7732L239.863 75.9753C239.737 75.9753 239.673 76.0386 239.547 76.0386ZM241.002 72.4323C240.939 72.4323 240.875 72.4323 240.875 72.4955L238.598 73.6976C238.534 73.7609 238.471 73.8242 238.408 73.8875C238.408 73.9507 238.408 74.0773 238.408 74.1405L239.23 75.5324C239.294 75.659 239.484 75.7222 239.673 75.659L241.888 74.4569C241.951 74.3936 242.014 74.3303 242.014 74.2671C242.014 74.2038 242.014 74.0773 242.014 74.014L241.255 72.6221C241.192 72.4955 241.129 72.4323 241.002 72.4323Z" fill="#1A1A47"/>
<path d="M230.31 90.7167C230.183 90.9065 230.056 91.0331 230.056 91.0331C230.056 91.0331 228.854 90.1473 228.538 90.084C228.222 90.0208 227.526 90.2738 227.083 90.2738C226.703 90.2738 226.64 90.084 226.64 90.084C226.64 90.084 225.121 90.7167 224.868 90.78C224.615 90.8433 224.489 90.78 224.615 90.4004C224.679 90.3371 224.742 90.2106 224.868 90.0208C225.375 89.4514 226.45 88.5023 226.83 88.3125C227.336 88.0594 227.969 87.7431 228.538 87.9329C229.107 88.1227 230.816 89.4513 230.816 89.4513C230.942 89.831 230.563 90.4004 230.31 90.7167Z" fill="#FFE1BD"/>
<path d="M230.689 89.4517L230.31 90.7171C230.183 90.9069 230.056 91.0335 230.056 91.0335C230.056 91.0335 228.854 90.1477 228.538 90.0844C228.222 90.0212 227.526 90.2742 227.083 90.2742C226.703 90.2742 226.64 90.0844 226.64 90.0844C226.64 90.0844 225.121 90.7171 224.868 90.7804C224.615 90.8437 224.489 90.7804 224.615 90.4008C224.679 90.3375 224.742 90.211 224.868 90.0212C224.742 90.211 224.615 90.4008 224.679 90.5906C224.805 90.8437 226.387 90.0844 227.589 89.3885C227.589 89.3885 227.715 89.3252 227.715 89.3885C227.715 89.4517 227.652 89.515 227.652 89.515C227.462 89.7048 226.45 89.8313 226.64 90.0844C226.893 90.5273 227.905 89.7048 228.475 89.8946C229.044 90.0844 229.74 90.5906 229.74 90.5906C229.74 90.5906 230.183 89.6415 230.689 89.4517Z" fill="#FFD19F"/>
<path d="M229.867 91.0333C229.867 91.0333 235.624 96.0948 239.99 96.601C244.292 97.1071 251.631 88.8822 251.631 88.8822C251.631 88.8822 251.188 84.5166 248.468 85.0228C245.747 85.5289 242.141 92.0456 240.559 92.362C238.977 92.6783 230.879 89.1985 230.879 89.1985C230.879 89.1985 230.626 89.3883 230.373 89.8312C230.057 90.3374 229.867 91.0333 229.867 91.0333Z" fill="#006466"/>
<path d="M249.543 66.1051C247.962 64.2703 245.621 64.0805 243.849 64.2703C241.508 64.5234 239.42 66.1051 238.724 68.3828C238.408 69.3951 238.345 70.5339 238.851 71.7993C240.306 75.8485 241.888 78.4425 243.28 79.265C243.849 79.5814 244.861 79.3916 246 78.9487C246.127 78.8854 246.317 78.9487 246.38 79.0752L246.823 79.961L250.999 79.0752C250.999 79.0752 250.492 77.9364 250.176 76.671C250.745 76.0383 252.39 69.4584 249.543 66.1051Z" fill="#FFE1BD"/>
<path d="M241.129 71.926C241.635 71.8627 242.141 72.1791 242.331 72.6219C242.647 73.4444 243.216 74.5833 243.596 74.9629C243.659 75.0262 243.849 75.0894 244.039 74.9629C244.229 74.8364 244.229 74.7098 244.229 74.5833C244.165 74.2037 243.912 73.4444 243.723 72.9383C243.469 72.3056 243.786 71.6096 244.545 71.4198C244.672 71.4198 245.051 71.4198 245.241 71.4831C246.443 71.8627 245.621 73.7608 245.621 74.7731C245.621 75.469 246.443 77.114 246.823 77.3038C248.088 77.81 249.923 77.3671 250.935 76.1017C251.948 74.8996 252.137 70.7871 251.631 68.3197C251.062 65.8522 249.1 64.4603 248.468 64.3337C248.151 64.2704 247.898 64.2704 247.709 64.2704C247.519 64.2704 247.329 64.2072 247.139 64.0806C246.506 63.5112 244.545 62.1826 241.445 63.5745C237.585 65.2195 236.953 68.8258 237.016 70.4075C237.079 71.4831 237.902 71.3566 238.471 71.1668C238.788 71.0402 239.104 71.1668 239.357 71.3566C239.673 71.6729 240.243 71.9893 241.129 71.926Z" fill="#0B0B3A"/>
<path d="M246.696 80.7205C246.696 80.7205 246.317 80.3409 246.443 80.0878C246.633 79.7715 248.468 78.3163 250.556 78.4428C250.872 78.4428 251.315 78.4428 251.694 79.3286C252.074 80.2144 252.201 80.7838 252.201 80.7838H246.696V80.7205Z" fill="#007D87"/>
<path d="M254.795 115.645C254.668 115.645 254.542 115.708 254.352 115.708C252.517 116.024 249.607 116.088 249.607 116.088C243.786 115.961 240.876 110.583 239.927 108.938C239.61 108.369 239.484 107.989 239.484 107.989C239.8 107.799 243.786 105.712 243.533 98.4356C243.47 96.9172 243.533 93.5639 242.774 92.2353C242.331 91.5393 241.129 90.0841 240.369 88.5024C239.737 87.237 239.42 85.9084 240.116 84.8961C241.825 82.3653 244.482 81.0367 244.482 81.0367C244.482 81.0367 249.417 79.0754 253.656 79.5182C256.313 79.7713 258.717 81.0367 259.35 84.3899C260.995 93.2476 254.795 115.645 254.795 115.645Z" fill="#007D87"/>
<path opacity="0.18" d="M245.178 96.6011C245.874 103.75 241.065 108.243 239.99 109.002C239.673 108.432 239.547 108.053 239.547 108.053C239.863 107.863 243.596 104.636 243.596 98.4991C243.596 96.9807 243.596 93.6274 242.837 92.2988C242.394 91.6028 241.192 90.1476 240.433 88.5659L240.749 88.4394L242.71 88.123L243.723 88.9455C243.723 89.0088 244.735 91.9824 245.178 96.6011Z" fill="#00B3B7"/>
<path opacity="0.45" d="M254.795 115.645C254.668 115.645 254.542 115.708 254.352 115.708C254.731 113.747 257.072 101.536 257.832 97.0438C259.35 88.2494 257.768 83.8206 256.883 82.2388C256.187 80.9735 254.795 80.2775 253.593 79.5815C256.25 79.8346 258.654 81.1 259.287 84.4532C260.995 93.2476 254.795 115.645 254.795 115.645Z" fill="#00B3B7"/>
<path d="M226.324 141.838C226.324 141.838 225.691 142.091 224.932 142.091C224.109 142.091 223.856 141.775 223.856 141.775V139.814L226.64 139.434L226.324 141.838Z" fill="#FFE1BD"/>
<path d="M248.404 114.696C248.404 115.961 248.025 117.986 246.19 118.555C243.343 119.378 241.255 118.935 238.028 118.366C235.308 117.923 228.032 116.341 226.767 115.835C226.577 115.772 226.45 115.898 226.45 116.088C227.083 119.125 227.589 120.454 227.969 125.072C228.285 128.932 226.83 139.877 226.83 139.877C226.83 139.877 226.387 140.004 225.881 140.067C225.691 140.067 225.501 140.13 225.311 140.13C224.615 140.13 223.73 140.004 223.73 140.004C223.73 140.004 220.819 123.933 220.376 117.417C219.997 110.9 220.629 110.331 223.54 109.002C226.513 107.61 239.737 108.116 239.737 108.116C239.8 108.243 240.496 110.267 242.71 112.102C244.102 113.114 245.874 114.127 248.404 114.696Z" fill="#3D3D72"/>
<path d="M240.369 109.128C239.99 108.495 239.863 108.053 239.8 107.989C239.8 107.989 239.673 107.989 239.357 107.989C239.61 108.369 239.926 108.748 240.369 109.128Z" fill="#33305B"/>
<path d="M246.57 114.19C246.317 115.139 245.747 116.088 244.545 116.467C241.698 117.29 239.61 116.847 236.383 116.278C233.663 115.835 226.387 114.253 225.122 113.747C224.932 113.684 224.805 113.81 224.805 114C225.438 117.037 225.944 118.366 226.324 122.984C226.577 125.958 226.45 135.764 226.387 140.004C226.64 139.94 226.767 139.877 226.767 139.877C226.767 139.877 228.222 128.931 227.905 125.072C227.526 120.453 227.02 119.125 226.387 116.088C226.324 115.898 226.513 115.772 226.703 115.835C228.032 116.341 235.245 117.923 237.965 118.366C241.255 118.935 243.343 119.441 246.127 118.555C248.025 117.986 248.341 115.961 248.341 114.696C247.772 114.506 247.139 114.38 246.57 114.19Z" fill="#33305B"/>
<path d="M223.793 141.522C223.793 141.522 224.552 141.838 225.185 141.838C226.007 141.838 226.577 141.522 226.577 141.522C226.577 141.522 227.969 143.294 227.209 145.318C227.146 145.445 227.083 145.508 226.956 145.508H217.466C217.339 145.508 217.276 145.445 217.276 145.318C217.276 145.065 217.339 144.685 217.972 144.559C218.858 144.306 219.744 144.116 220.44 143.926C221.136 143.673 222.085 142.661 222.654 142.534C223.287 142.218 223.793 141.522 223.793 141.522Z" fill="#1A1A47"/>
<path d="M219.491 94.0071C219.491 94.0071 218.668 93.8173 218.225 93.6908C218.035 93.6275 217.909 93.6275 217.782 93.6275C217.592 93.6275 217.403 93.6275 217.213 93.6275L212.657 94.2602C212.531 94.2602 212.404 94.1969 212.404 94.0704C212.404 93.8806 212.468 93.6908 212.594 93.6275L213.037 93.2479L214.366 92.109C214.998 91.5396 215.568 91.4131 216.39 91.4131C216.58 91.4131 217.213 91.6029 217.339 91.6029C218.225 91.7927 218.415 91.856 219.048 91.9825C219.301 92.0458 219.427 92.0458 219.554 92.0458C219.744 92.0458 219.744 92.0458 219.744 92.0458C219.997 93.1213 219.491 94.0071 219.491 94.0071Z" fill="#FFE1BD"/>
<path d="M226.45 94.4496C226.324 94.3864 225.628 94.1333 225.185 94.0067C225.058 93.9435 224.932 93.9435 224.805 93.8802C224.615 93.8169 224.362 93.8169 224.172 93.8169H219.617C219.491 93.8169 219.364 93.6904 219.364 93.5639C219.364 93.374 219.427 93.2475 219.617 93.121L220.123 92.8046C219.68 93.1842 219.554 93.4373 219.807 93.4373C219.997 93.4373 220.44 93.4373 221.578 93.121C221.578 93.121 221.642 93.1842 221.578 93.1842C221.325 93.3108 221.389 93.6904 221.705 93.6271C221.895 93.6271 222.717 93.5639 222.844 93.5639C223.54 93.5006 224.615 93.4373 224.805 93.5006C225.185 93.5639 225.501 93.6904 225.817 93.8169C226.007 93.9435 226.197 93.6904 226.26 93.5006C226.387 93.1842 226.513 92.8046 226.64 92.4883C226.766 92.5516 226.83 92.4883 226.83 92.4883C227.02 93.6271 226.513 94.3231 226.45 94.4496Z" fill="#F4F4F4"/>
<path d="M244.355 83.5677C243.786 83.1881 241.951 82.1757 239.61 85.8453C237.269 89.5149 235.371 92.2355 234.612 92.7417C233.789 93.2478 231.765 92.8682 231.069 92.8682C230.373 92.8682 219.744 92.0457 219.744 92.0457C219.744 92.0457 219.237 93.1213 219.174 94.0703C219.174 94.0703 228.918 96.6011 234.928 96.6643C240.939 96.6643 245.557 87.5536 245.747 86.478C245.874 85.3392 245.747 84.3902 244.355 83.5677Z" fill="#007D87"/>
<path d="M238.534 75.0265C238.471 75.0265 238.408 75.0265 238.408 74.9632C238.345 74.9 238.408 74.8367 238.471 74.7734L243.723 72.1161C244.292 71.7998 245.494 71.1671 246.443 72.4958C246.506 72.559 246.443 72.6223 246.38 72.6856C246.317 72.7488 246.253 72.6856 246.19 72.6223C245.494 71.61 244.672 71.9263 243.849 72.306L238.598 74.9632C238.598 75.0265 238.534 75.0265 238.534 75.0265Z" fill="#1A1A47"/>
<path d="M243.786 72.4323L244.419 74.4569C244.419 74.4569 244.925 74.9631 245.368 74.3937C245.81 73.8243 246.253 71.9262 245.368 71.6098C244.545 71.2935 243.976 71.7364 243.786 72.4323Z" fill="#FFE1BD"/>
<path d="M267.512 101.663C267.512 91.4763 267.259 84.3269 260.805 83.2513C252.011 81.7962 245.178 89.3884 246.57 103.94C247.392 112.292 243.976 115.139 241.065 116.784C239.167 117.859 235.561 117.606 235.561 117.606C235.561 117.606 233.853 117.417 232.714 117.29C233.41 117.606 248.468 125.009 259.16 119.568C268.714 114.633 267.512 107.61 267.512 101.663Z" fill="#E8F6F7"/>
<path d="M267.512 101.662C267.512 91.476 267.259 84.3266 260.805 83.251C260.489 83.1878 260.172 83.1878 259.856 83.1245C252.833 83.8205 248.215 91.2229 249.417 103.94C250.239 112.291 246.823 115.139 243.912 116.784C242.014 117.859 238.408 117.606 238.408 117.606C238.408 117.606 238.345 117.606 238.155 117.543C236.763 117.669 235.498 117.606 235.498 117.606C235.498 117.606 233.789 117.416 232.651 117.29C233.346 117.606 248.404 125.009 259.097 119.567C268.714 114.632 267.512 107.61 267.512 101.662Z" fill="#D0E0E2"/>
</svg>
