<svg width="416" height="518" viewBox="0 0 416 518" fill="none" xmlns="http://www.w3.org/2000/svg">
<path d="M220.352 22.3789C222.192 22.2689 223.152 19.7689 223.822 18.3789C224.102 17.7789 225.442 14.8789 224.512 14.2989C223.302 13.5289 222.492 15.8189 222.092 16.5889C221.582 17.5789 221.042 18.5589 220.522 19.5389C220.232 20.0789 219.832 20.7289 219.862 21.3789C219.802 21.6389 219.812 21.9089 219.942 22.1389C220.032 22.2989 220.162 22.3889 220.352 22.3789Z" fill="#D5E0FD"/>
<path d="M228.652 21.0889C228.862 20.2989 229.402 18.5289 228.452 17.9689C228.292 17.8789 228.132 17.8689 227.972 17.9789C227.062 18.6289 226.542 19.9389 226.062 20.9089C225.672 21.7089 225.202 22.6689 225.192 23.5889C225.032 24.1589 224.962 24.7089 225.162 25.1089C225.552 25.8989 226.482 25.4989 226.932 24.9489C227.802 23.8789 228.302 22.3989 228.652 21.0889Z" fill="#D5E0FD"/>
<path d="M227.622 16.0489C228.182 15.6089 228.262 14.5089 228.402 13.8789C228.702 12.5989 229.142 11.3589 229.412 10.0789C229.522 9.57888 229.742 8.73888 229.232 8.35888C228.772 8.01888 228.312 8.40888 228.082 8.79888C227.582 9.65888 227.272 10.7889 226.932 11.7189C226.592 12.6489 226.112 13.9089 226.362 14.8989C226.392 14.9989 226.442 15.0689 226.512 15.1189C226.572 15.9089 226.842 16.6589 227.622 16.0489Z" fill="#D5E0FD"/>
<path d="M236.652 12.879C236.582 12.299 235.922 11.849 235.442 12.349C234.652 13.179 234.362 14.579 233.932 15.609C233.732 16.089 233.282 16.969 233.382 17.619C233.002 18.719 232.792 19.919 233.612 20.249C235.182 20.889 235.982 16.959 236.232 15.979C236.472 14.989 236.772 13.909 236.652 12.879Z" fill="#D5E0FD"/>
<path d="M231.622 25.309C231.292 25.959 230.192 27.879 230.392 28.939C229.672 30.289 229.022 31.889 229.852 32.819C229.962 32.939 230.162 33.029 230.312 32.939C231.552 32.219 231.842 30.589 232.342 29.349C232.862 28.069 234.132 25.769 233.442 24.379C232.892 23.269 231.832 24.869 231.622 25.309Z" fill="#D5E0FD"/>
<path d="M222.812 28.529C222.522 28.769 222.352 29.139 222.222 29.529C222.052 29.539 221.902 29.639 221.872 29.849C221.682 31.539 220.352 33.479 220.882 35.199C220.932 35.379 221.132 35.439 221.292 35.439C222.242 35.409 222.652 34.189 222.942 33.459C223.432 32.229 223.902 30.659 223.962 29.329C224.002 28.689 223.422 28.029 222.812 28.529Z" fill="#D5E0FD"/>
<path d="M236.622 1.07883C236.162 0.728828 235.722 1.28883 235.522 1.63883C234.972 2.59883 234.632 3.72882 234.302 4.76882C234.012 5.69882 233.602 6.66883 233.532 7.64883C233.502 7.84883 233.492 8.04883 233.522 8.25883C233.602 8.88883 234.312 9.00882 234.782 8.76882C236.482 7.88882 236.712 4.74882 236.912 3.12882C236.992 2.51882 237.212 1.51883 236.622 1.07883Z" fill="#D5E0FD"/>
<path d="M219.602 29.0289C220.222 28.8289 220.502 27.9789 220.692 27.4289C220.822 27.0689 220.922 26.699 221.012 26.329C221.102 25.969 221.282 25.6189 221.282 25.2489C221.282 24.5689 220.442 24.2789 219.992 24.7489C219.662 25.0889 219.512 25.5889 219.412 26.0889C219.242 26.4489 219.132 26.8489 219.042 27.2089C218.902 27.7289 218.782 28.4589 219.142 28.9189C219.252 29.0489 219.432 29.0789 219.602 29.0289Z" fill="#D5E0FD"/>
<path d="M238.712 19.2089C238.172 20.0389 237.952 21.1089 237.872 22.0789C237.862 22.2089 237.912 22.3189 237.982 22.3889C237.972 22.5389 237.962 22.6889 237.942 22.8289C237.862 23.3289 237.652 24.2689 238.252 24.5489C239.262 25.0389 239.942 22.7489 240.152 22.1589C240.392 21.4989 240.532 20.8089 240.642 20.1189C240.722 19.6489 241.042 18.3889 240.392 18.1189C239.722 17.8589 239.012 18.7389 238.712 19.2089Z" fill="#D5E0FD"/>
<path d="M6.47157 206.619C6.94157 206.949 7.06157 207.599 6.73157 208.069C6.40157 208.539 5.75157 208.659 5.28157 208.329L0.881571 205.289C0.411571 204.959 0.291573 204.309 0.621573 203.839C0.951573 203.369 1.60157 203.249 2.07157 203.579L6.47157 206.619Z" fill="#D5E0FD"/>
<path d="M6.05157 204.349C6.38157 203.879 6.26157 203.229 5.79157 202.899C5.32157 202.569 4.67157 202.689 4.34157 203.169L1.30157 207.569C0.971565 208.039 1.09157 208.689 1.56157 209.019C2.03157 209.349 2.69157 209.229 3.01157 208.759L6.05157 204.349Z" fill="#D5E0FD"/>
<path d="M19.8916 202.159C20.3616 202.489 20.4816 203.139 20.1516 203.609C19.8216 204.079 19.1716 204.199 18.7016 203.879L14.3016 200.839C13.8316 200.509 13.7116 199.859 14.0416 199.389C14.3716 198.919 15.0216 198.799 15.4916 199.129L19.8916 202.159Z" fill="#D5E0FD"/>
<path d="M19.4715 199.889C19.8015 199.419 19.6815 198.769 19.2115 198.439C18.7415 198.109 18.0915 198.229 17.7615 198.699L14.7215 203.099C14.3915 203.569 14.5115 204.219 14.9815 204.549C15.4515 204.879 16.1015 204.759 16.4315 204.289L19.4715 199.889Z" fill="#D5E0FD"/>
<path d="M13.0616 190.559C13.5316 190.889 13.6516 191.539 13.3216 192.009C12.9916 192.479 12.3416 192.599 11.8716 192.269L7.4716 189.229C7.0016 188.899 6.8816 188.249 7.2116 187.779C7.5416 187.309 8.1916 187.189 8.6616 187.519L13.0616 190.559Z" fill="#D5E0FD"/>
<path d="M12.6416 188.289C12.9716 187.819 12.8516 187.169 12.3816 186.839C11.9116 186.509 11.2616 186.629 10.9316 187.099L7.89159 191.499C7.56159 191.969 7.68159 192.619 8.15159 192.949C8.62159 193.279 9.27159 193.159 9.60159 192.689L12.6416 188.289Z" fill="#D5E0FD"/>
<path d="M62.0294 213.343C61.6662 213.778 61.0015 213.839 60.5471 213.472C60.0927 213.106 60.0122 212.454 60.3755 212.02L63.7259 207.947C64.0892 207.513 64.7539 207.451 65.2083 207.818C65.6627 208.184 65.7431 208.836 65.3799 209.271L62.0294 213.343Z" fill="#D5E0FD"/>
<path d="M64.3441 213.114C64.7963 213.478 65.4578 213.417 65.8192 212.985C66.1806 212.553 66.1006 211.905 65.6383 211.54L61.402 208.177C60.9498 207.812 60.2883 207.873 59.9269 208.305C59.5655 208.737 59.6449 209.395 60.0977 209.749L64.3441 213.114Z" fill="#D5E0FD"/>
<path d="M65.4882 227.056C65.1249 227.49 64.4602 227.552 64.0058 227.185C63.5513 226.818 63.4709 226.167 63.824 225.731L67.1746 221.659C67.5378 221.224 68.2025 221.163 68.657 221.529C69.1114 221.896 69.1918 222.547 68.8286 222.982L65.4882 227.056Z" fill="#D5E0FD"/>
<path d="M67.8027 226.826C68.2549 227.19 68.9164 227.129 69.2778 226.697C69.6392 226.265 69.5592 225.618 69.107 225.253L64.8706 221.89C64.4184 221.525 63.7569 221.586 63.3955 222.018C63.0341 222.45 63.1141 223.098 63.5663 223.463L67.8027 226.826Z" fill="#D5E0FD"/>
<path d="M77.56 221.099C77.1968 221.534 76.532 221.595 76.0776 221.229C75.6232 220.862 75.5428 220.21 75.906 219.776L79.2565 215.703C79.6197 215.269 80.2844 215.207 80.7388 215.574C81.1932 215.941 81.2737 216.592 80.9104 217.027L77.56 221.099Z" fill="#D5E0FD"/>
<path d="M79.8746 220.87C80.3268 221.234 80.9883 221.173 81.3497 220.741C81.7111 220.309 81.6311 219.662 81.1789 219.297L76.9424 215.934C76.4903 215.569 75.8288 215.63 75.4674 216.062C75.1059 216.494 75.186 217.142 75.6382 217.506L79.8746 220.87Z" fill="#D5E0FD"/>
<path d="M50.5886 301.833C60.4486 307.493 63.4286 298.743 63.2186 289.763C63.0086 280.783 58.2086 272.923 74.7786 274.893C91.3486 276.863 91.7986 278.543 85.1186 286.403C78.4386 294.263 83.1686 300.153 96.9386 300.993C110.709 301.833 109.779 293.413 105.049 282.753C100.319 272.093 108.549 275.733 118.039 276.583C127.539 277.423 133.749 283.033 126.289 297.063C118.829 311.093 129.249 308.293 135.119 308.293C140.999 308.293 154.469 306.443 150.539 319.153C146.609 331.863 141.689 341.643 135.119 333.693C131.849 329.733 123.129 339.153 126.289 344.613C128.819 348.993 127.699 364.193 113.369 360.763C99.0486 357.333 109.089 344.623 93.5486 340.093C78.0086 335.563 80.3186 353.283 68.7086 351.913C57.0886 350.543 60.7386 334.463 46.1486 340.313C31.5686 346.173 32.9786 291.733 50.5886 301.833Z" fill="white"/>
<path d="M111.657 60.4298C101.797 54.7698 98.817 63.5198 99.027 72.4998C99.237 81.4798 104.037 89.3398 87.467 87.3698C70.897 85.3998 70.447 83.7198 77.127 75.8598C83.807 67.9998 79.077 62.1098 65.307 61.2698C51.537 60.4298 52.467 68.8498 57.197 79.5098C61.927 90.1698 53.697 86.5298 44.207 85.6798C34.707 84.8398 28.497 79.2298 35.957 65.1998C43.417 51.1698 32.997 53.9698 27.127 53.9698C21.247 53.9698 7.77697 55.8198 11.707 43.1098C15.637 30.3998 20.557 20.6198 27.127 28.5698C30.397 32.5298 39.117 23.1098 35.957 17.6498C33.427 13.2698 34.547 -1.93021 48.877 1.49979C63.197 4.92979 53.157 17.6398 68.697 22.1698C84.237 26.6998 81.927 8.97979 93.537 10.3498C105.157 11.7198 101.507 27.7998 116.097 21.9498C130.677 16.0898 129.267 70.5298 111.657 60.4298Z" fill="white"/>
<path d="M109.703 214.434L109.632 214.444L109.612 214.453C109.604 214.451 109.592 214.447 109.577 214.439C109.501 214.399 109.246 214.209 109.002 213.418C108.512 211.832 108.18 208.212 108.989 200.139L108.99 200.138C109.148 198.527 109.286 196.978 109.417 195.5C109.617 193.253 109.802 191.167 110.025 189.268C110.394 186.118 110.859 183.562 111.631 181.73C112.397 179.913 113.422 178.897 114.884 178.646C116.402 178.385 118.528 178.917 121.55 180.587C124.605 182.275 127.23 183.489 129.319 184.079C130.364 184.374 131.301 184.52 132.105 184.478C132.914 184.436 133.62 184.201 134.15 183.702C134.68 183.203 134.972 182.497 135.066 181.633C135.16 180.775 135.062 179.729 134.784 178.497C134.229 176.032 132.931 172.71 130.821 168.419C128.729 164.167 127.95 161.05 128.084 158.82C128.214 156.637 129.217 155.289 130.81 154.493C132.448 153.675 134.746 153.424 137.451 153.59C140.145 153.754 143.18 154.326 146.25 155.094C147.734 155.466 148.781 156.018 149.518 156.681C150.253 157.341 150.706 158.135 150.97 159.031C151.508 160.859 151.258 163.081 150.956 165.42C150.943 165.521 150.93 165.621 150.917 165.722C150.633 167.91 150.337 170.193 150.811 172.095C151.065 173.11 151.54 174.035 152.357 174.79C153.172 175.543 154.294 176.098 155.794 176.428L155.795 176.428C157.284 176.754 158.495 176.737 159.466 176.388C160.451 176.034 161.134 175.357 161.589 174.479C162.036 173.614 162.264 172.556 162.368 171.409C162.473 170.258 162.457 168.984 162.396 167.67C162.357 166.813 162.298 165.942 162.24 165.073C162.118 163.244 161.995 161.42 162.046 159.733C162.122 157.233 162.581 155.253 163.816 154.141C165.176 152.917 166.928 151.813 168.723 151.149C170.526 150.482 172.311 150.281 173.775 150.774C175.204 151.257 176.417 152.433 177.048 154.735C177.685 157.062 177.717 160.517 176.741 165.463C175.758 170.449 175.76 173.598 176.576 175.562C176.993 176.567 177.622 177.262 178.42 177.721C179.207 178.174 180.128 178.382 181.109 178.473C182.091 178.565 183.171 178.541 184.287 178.505C184.431 178.501 184.575 178.496 184.72 178.491C185.711 178.458 186.734 178.423 187.779 178.45C190.17 178.51 192.621 178.888 194.888 180.294C197.08 181.653 198.478 184.564 199.182 188.309C199.881 192.03 199.871 196.458 199.354 200.68C198.838 204.903 197.819 208.882 196.527 211.708C195.879 213.125 195.177 214.219 194.461 214.913C193.748 215.605 193.08 215.848 192.456 215.728C190.835 215.416 189.396 214.767 188.106 214.18L188.056 214.158C187.437 213.876 186.842 213.605 186.293 213.408C185.732 213.207 185.173 213.066 184.644 213.083C184.093 213.102 183.585 213.293 183.158 213.724C182.747 214.14 182.441 214.747 182.208 215.547C181.745 217.14 181.522 219.685 181.522 223.569C181.522 228.317 180.371 231.338 178.696 233.131C177.029 234.914 174.772 235.557 172.381 235.4C169.982 235.243 167.48 234.281 165.413 232.894C163.338 231.502 161.762 229.726 161.143 227.991C160.638 226.578 160.299 225.01 159.963 223.454C159.863 222.992 159.763 222.531 159.659 222.076C159.217 220.133 158.694 218.248 157.707 217.024C157.201 216.396 156.562 215.927 155.746 215.718C154.938 215.511 154.004 215.571 152.924 215.911C150.782 216.584 147.94 218.395 144.075 221.731C137.859 227.095 133.106 230.397 129.481 232.34C125.85 234.286 123.387 234.848 121.737 234.786C120.114 234.725 119.255 234.061 118.79 233.453C118.552 233.142 118.409 232.833 118.326 232.603C118.284 232.488 118.258 232.395 118.243 232.333C118.241 232.322 118.238 232.312 118.236 232.303C118.433 230.159 118.637 228.256 118.821 226.568C118.849 226.314 118.876 226.066 118.903 225.822C119.057 224.424 119.193 223.179 119.295 222.078C119.532 219.522 119.595 217.637 119.195 216.338C118.988 215.667 118.65 215.125 118.134 214.729C117.624 214.337 116.982 214.119 116.222 214.015C114.724 213.81 112.6 214.029 109.703 214.434ZM109.623 214.455C109.624 214.455 109.623 214.455 109.622 214.455C109.622 214.455 109.622 214.455 109.622 214.455C109.623 214.455 109.623 214.455 109.623 214.455Z" fill="#F3FAFD" stroke="#C2EDFF"/>
<path d="M314.391 71.2455C324.251 76.9055 327.231 68.1555 327.021 59.1755C326.811 50.1955 322.011 42.3355 338.581 44.3055C355.151 46.2755 355.601 47.9555 348.921 55.8155C342.241 63.6755 346.971 69.5655 360.741 70.4055C374.511 71.2455 373.581 62.8255 368.851 52.1655C364.121 41.5055 372.351 45.1455 381.841 45.9955C391.341 46.8355 397.551 52.4455 390.091 66.4755C382.631 80.5055 393.051 77.7055 398.921 77.7055C404.801 77.7055 418.271 75.8555 414.341 88.5655C410.411 101.276 405.491 111.056 398.921 103.106C395.651 99.1455 386.931 108.566 390.091 114.026C392.621 118.406 391.501 133.606 377.171 130.176C362.851 126.746 372.891 114.036 357.351 109.506C341.811 104.976 344.121 122.696 332.511 121.326C320.891 119.956 324.541 103.876 309.951 109.726C295.371 115.586 296.781 61.1455 314.391 71.2455Z" fill="white"/>
<path d="M58.7392 479.157C71.4592 456.777 92.8092 428.696 73.7792 432.016C54.7392 435.336 65.9792 422.156 78.8492 409.666C91.7192 397.176 68.3992 402.136 72.6392 398.126C76.8792 394.116 86.0692 367.836 75.2292 371.316C64.3992 374.796 60.1492 375.256 58.7392 392.696C57.3292 410.136 47.9092 423.367 48.6192 403.326C49.3292 383.286 34.9592 384.076 37.7892 406.176C40.6192 428.276 49.7992 459.676 38.2592 452.456C26.7192 445.236 20.5192 451.627 44.0292 476.687C67.5292 501.747 58.7392 479.157 58.7392 479.157Z" fill="#AAB5F3"/>
<path d="M76.1492 445.736C76.0292 445.486 75.7292 445.386 75.4792 445.506C75.4392 445.526 71.0992 447.586 66.6392 446.416C71.6892 441.796 75.7692 436.506 76.0892 436.086C76.2592 435.866 76.2192 435.556 75.9992 435.386C75.7792 435.216 75.4692 435.256 75.2992 435.476C75.1792 435.636 65.5492 448.136 57.6392 451.566C58.5492 444.986 66.4992 436.206 66.5892 436.116C66.7792 435.916 66.7592 435.596 66.5592 435.406C66.3592 435.216 66.0392 435.236 65.8492 435.436C65.4892 435.826 57.1892 445.006 56.5892 451.966C54.8992 452.526 53.3092 452.616 51.9492 451.996C51.9292 451.986 51.8992 451.986 51.8792 451.976C52.6592 444.806 54.0492 437.606 55.5992 431.056C55.6192 431.046 55.6492 431.036 55.6692 431.016C55.8892 430.856 55.9392 430.536 55.7692 430.316C56.0692 429.066 56.3792 427.846 56.6892 426.646C57.0792 425.126 57.4892 423.626 57.8992 422.136C66.2892 420.606 75.7092 406.536 76.1092 405.926C76.2592 405.696 76.1992 405.386 75.9692 405.236C75.7392 405.086 75.4292 405.146 75.2792 405.376C75.2192 405.476 70.9992 411.786 65.8292 416.426C65.2092 410.666 71.0592 404.166 71.1192 404.096C71.3092 403.896 71.2892 403.576 71.0892 403.386C70.8892 403.196 70.5692 403.216 70.3792 403.416C70.1092 403.716 63.7992 410.716 64.9092 417.076C64.9192 417.116 64.9292 417.146 64.9492 417.176C62.7592 419.016 60.4292 420.496 58.2092 421.036C60.3592 413.426 62.7592 406.266 65.0792 399.946C65.1992 399.916 65.3292 399.876 65.4592 399.836C70.7192 398.006 75.9192 388.646 76.1392 388.256C76.2692 388.016 76.1792 387.706 75.9392 387.576C75.6992 387.446 75.3892 387.536 75.2592 387.776C75.2092 387.866 70.3092 396.686 65.5292 398.736C69.1192 389.116 72.4792 381.596 74.4392 377.706C74.6292 377.336 74.4792 376.886 74.1092 376.696C73.7392 376.506 73.2892 376.656 73.0992 377.026C71.0892 381.016 67.5692 388.966 63.8592 398.986C63.6692 398.916 63.5592 398.816 63.5092 398.756C61.5392 396.746 64.4792 386.236 66.9292 379.656C67.0292 379.396 66.8992 379.106 66.6392 379.016C66.3792 378.916 66.0892 379.046 65.9992 379.306C65.3492 381.046 59.7592 396.356 62.7992 399.456C62.9692 399.636 63.2192 399.796 63.5192 399.916C60.4392 408.306 57.2692 418.076 54.7292 428.156C52.5892 421.376 57.1492 409.026 57.1992 408.896C57.2992 408.636 57.1692 408.346 56.9092 408.256C56.6492 408.156 56.3592 408.286 56.2692 408.546C56.0392 409.166 50.9192 423.016 54.3192 429.816C53.3892 433.626 52.5592 437.476 51.8692 441.296C41.1892 426.696 42.7292 396.616 42.7492 396.306C42.7692 396.026 42.5492 395.796 42.2792 395.776C42.0092 395.766 41.7692 395.976 41.7492 396.246C41.7292 396.556 40.1292 427.516 51.3492 442.266C51.4292 442.366 51.5392 442.426 51.6592 442.446C50.4592 449.346 49.7092 456.156 49.6692 462.546C46.6892 461.046 44.3592 456.836 44.3392 456.786C44.2092 456.546 43.8992 456.456 43.6592 456.586C43.4192 456.716 43.3292 457.026 43.4592 457.266C43.5692 457.476 46.1792 462.196 49.6692 463.646C49.6892 467.366 49.9592 470.936 50.5192 474.286C40.8192 468.916 33.0092 455.906 32.9292 455.776C32.7892 455.536 32.4792 455.466 32.2392 455.606C31.9992 455.746 31.9192 456.056 32.0692 456.286C32.4092 456.856 40.4692 470.296 50.7392 475.546C51.3292 478.626 52.1792 481.506 53.3392 484.126C53.4592 484.406 53.7392 484.576 54.0292 484.576C54.1292 484.576 54.2292 484.556 54.3292 484.516C54.7092 484.346 54.8792 483.906 54.7092 483.526C52.6892 478.956 51.6692 473.536 51.3392 467.706C51.6592 467.756 51.9692 467.776 52.2892 467.776C60.1092 467.776 68.3692 453.326 68.7392 452.666C68.8792 452.426 68.7892 452.126 68.5492 451.986C68.3092 451.846 68.0092 451.936 67.8692 452.176C67.7792 452.336 58.7292 468.176 51.2892 466.676C51.0992 462.256 51.3092 457.626 51.7692 452.976C52.4692 453.256 53.2092 453.396 53.9792 453.396C54.9892 453.396 56.0492 453.166 57.1392 452.776C57.1892 452.766 57.2492 452.746 57.2892 452.726C60.0692 451.696 63.0292 449.576 65.7492 447.186C67.0492 447.606 68.3392 447.776 69.5392 447.776C72.9992 447.776 75.7392 446.466 75.8992 446.396C76.1692 446.286 76.2792 445.986 76.1492 445.736Z" fill="#BBC4F5"/>
<path d="M32.3692 475.177C32.3692 475.177 30.3092 519.717 54.2392 517.887C54.2392 517.887 74.4192 516.727 66.4792 475.177H32.3692Z" fill="#F39289"/>
<path d="M61.7092 511.697C56.8392 510.947 51.9292 510.177 46.9892 510.167C44.3592 510.167 41.8392 509.457 39.2592 509.087C39.0692 509.057 38.8692 509.037 38.6792 509.007C38.8392 509.287 39.0092 509.567 39.1792 509.837C41.3592 510.157 43.4992 510.787 45.6892 510.907C48.1492 511.037 50.5592 511.007 53.0192 511.277C55.8492 511.597 58.6792 512.007 61.4992 512.437C61.9792 512.507 62.4492 512.577 62.9292 512.637C63.0992 512.417 63.2792 512.187 63.4492 511.947C62.8692 511.867 62.2892 511.787 61.7092 511.697Z" fill="#F5A8A1"/>
<path d="M61.8492 507.067C59.2592 506.697 56.6492 506.487 54.0592 506.067C51.6792 505.687 49.3492 505.107 46.9492 504.807C43.4292 504.357 39.8792 504.167 36.3292 503.987C36.4292 504.247 36.5292 504.507 36.6292 504.757C39.3792 504.917 42.1292 505.087 44.8692 505.337C47.6692 505.587 50.3792 506.137 53.1392 506.677C55.7392 507.187 58.3992 507.387 61.0292 507.717C62.5292 507.907 64.0292 508.117 65.5092 508.327C65.6092 508.107 65.7092 507.877 65.7992 507.647C64.4992 507.447 63.1792 507.257 61.8492 507.067Z" fill="#F5A8A1"/>
<path d="M46.4392 501.627C42.6892 501.257 38.9792 500.917 35.2392 500.747C35.3092 500.997 35.3892 501.247 35.4692 501.497C35.7692 501.507 36.0692 501.517 36.3592 501.547C39.0592 501.747 41.7292 501.867 44.4292 502.177C47.2292 502.507 50.0392 502.697 52.8092 503.227C55.3292 503.707 57.8192 504.207 60.3592 504.517C62.4892 504.777 64.6292 504.797 66.7692 504.867C66.8392 504.627 66.9092 504.377 66.9792 504.127C65.2292 504.067 63.4792 504.047 61.7392 503.897C56.5992 503.467 51.5892 502.137 46.4392 501.627Z" fill="#F5A8A1"/>
<path d="M63.1292 478.507C64.4892 478.787 65.8292 478.997 67.1592 479.157C67.1192 478.927 67.0792 478.687 67.0492 478.457C65.5692 478.227 64.1092 477.937 62.6392 477.637C58.4092 476.757 54.1492 476.047 49.9192 475.187H46.3292C46.4892 475.227 46.6592 475.267 46.8192 475.307C52.2092 476.557 57.7092 477.387 63.1292 478.507Z" fill="#F5A8A1"/>
<path d="M47.1292 516.876C48.9692 517.616 51.0392 517.996 53.3592 517.926C51.2892 517.576 49.2092 517.206 47.1292 516.876Z" fill="#F5A8A1"/>
<path d="M66.3792 475.177C66.4092 475.187 66.4392 475.187 66.4692 475.197C66.4692 475.187 66.4692 475.187 66.4692 475.177H66.3792Z" fill="#F5A8A1"/>
<path d="M47.1292 513.257C45.2492 513.037 43.3892 512.966 41.5192 512.896C41.7592 513.156 42.0092 513.416 42.2592 513.656C43.4392 513.686 44.6292 513.726 45.7992 513.856C50.4892 514.386 55.1592 515.046 59.8592 515.576C60.1392 515.376 60.4292 515.146 60.7192 514.906C56.1792 514.416 51.6592 513.787 47.1292 513.257Z" fill="#F5A8A1"/>
<path d="M32.3593 475.227C36.5793 476.167 40.8693 476.997 45.1093 477.617C50.5493 478.417 55.9192 479.447 61.3392 480.387C63.3692 480.737 65.4092 480.997 67.4492 481.207C67.4092 480.947 67.3792 480.677 67.3392 480.407C65.1592 480.187 62.9892 479.907 60.8192 479.527C57.9092 479.017 55.0192 478.437 52.1292 477.867C49.4492 477.327 46.7092 477.117 44.0092 476.687C41.3992 476.277 38.7992 475.747 36.2092 475.177H32.3593C32.3693 475.177 32.3693 475.197 32.3593 475.227Z" fill="#F5A8A1"/>
<path d="M53.6092 481.287C50.5892 481.057 47.6992 480.247 44.7192 479.697C40.6092 478.937 36.4492 478.417 32.3192 477.767C32.3192 478.017 32.3192 478.277 32.3192 478.547C36.3792 479.197 40.4692 479.707 44.5092 480.427C46.8492 480.847 49.1792 481.617 51.5292 481.867C54.2192 482.157 56.9092 482.387 59.5992 482.657C62.3592 482.937 65.0792 483.467 67.7992 483.937C67.7692 483.687 67.7392 483.427 67.7092 483.177C65.4492 482.787 63.1992 482.357 60.9192 482.047C58.5092 481.727 56.0492 481.467 53.6092 481.287Z" fill="#F5A8A1"/>
<path d="M57.0192 500.337C55.6992 500.127 54.3192 500.357 53.0192 500.037C50.5792 499.427 48.1692 499.227 45.6592 499.097C41.8992 498.907 38.1792 498.347 34.4492 497.767C34.5092 498.007 34.5592 498.237 34.6192 498.477C35.4492 498.597 36.2792 498.727 37.1092 498.877C39.4892 499.307 41.9492 499.797 44.3792 499.817C47.2092 499.837 50.0692 500.087 52.8192 500.777C53.9592 501.067 55.1192 500.957 56.2892 501.027C57.6892 501.117 59.0892 501.307 60.4992 501.367C62.8492 501.477 65.1892 501.627 67.5292 501.757C67.5792 501.507 67.6192 501.247 67.6692 500.987C65.5292 500.867 63.3892 500.737 61.2392 500.647C59.8392 500.567 58.3992 500.557 57.0192 500.337Z" fill="#F5A8A1"/>
<path d="M44.6792 495.507C40.9992 494.767 37.3392 494.157 33.6392 493.717C33.6892 493.987 33.7392 494.257 33.7892 494.527C37.3692 494.957 40.9192 495.527 44.4892 496.237C52.3092 497.797 60.0992 498.577 67.9792 498.907C68.0092 498.657 68.0392 498.407 68.0692 498.157C60.2092 497.837 52.4492 497.067 44.6792 495.507Z" fill="#F5A8A1"/>
<path d="M61.6292 494.857C63.8392 494.997 66.0492 495.207 68.2592 495.397C68.2692 495.147 68.2892 494.887 68.2892 494.627C66.2992 494.447 64.3192 494.267 62.3192 494.137C56.9092 493.787 51.6593 492.987 46.2993 492.167C41.9093 491.497 37.5093 490.917 33.1093 490.307C33.1393 490.567 33.1792 490.827 33.2092 491.087C37.7392 491.717 42.2692 492.327 46.7892 493.017C51.7592 493.767 56.6092 494.537 61.6292 494.857Z" fill="#F5A8A1"/>
<path d="M68.3192 493.126C68.3192 492.876 68.3192 492.626 68.3192 492.376C60.1592 491.906 52.0292 490.736 44.0692 488.966C40.2992 488.126 36.5292 487.476 32.7392 486.886C32.7592 487.106 32.7792 487.326 32.7992 487.546C36.0492 488.056 39.2792 488.676 42.4592 489.386C50.9792 491.286 59.6192 492.616 68.3192 493.126Z" fill="#F5A8A1"/>
<path d="M46.7993 483.477C42.0193 482.257 37.2092 481.017 32.3492 480.097C32.3592 480.337 32.3592 480.587 32.3692 480.847C36.9192 481.687 41.4292 482.897 45.8992 484.027C50.9092 485.297 55.9193 486.667 61.0493 487.357C63.3993 487.677 65.7792 487.637 68.1492 487.757C68.1292 487.517 68.1192 487.277 68.0992 487.037C66.4292 486.947 64.7593 486.897 63.0793 486.797C57.5793 486.487 52.1193 484.837 46.7993 483.477Z" fill="#F5A8A1"/>
<path d="M52.3792 487.537C55.1792 487.747 57.9492 488.317 60.6792 488.927C63.1992 489.487 65.7292 489.797 68.2692 489.967C68.2592 489.707 68.2492 489.437 68.2392 489.177C65.5592 488.987 62.8892 488.647 60.2192 488.047C58.1092 487.577 55.9792 487.197 53.8292 486.927C51.1892 486.597 48.5392 486.707 45.8892 486.457C41.3992 486.037 36.9392 484.917 32.5192 483.927C32.5392 484.187 32.5492 484.447 32.5692 484.707C36.5092 485.587 40.4592 486.537 44.4492 487.037C47.0892 487.387 49.7292 487.347 52.3792 487.537Z" fill="#F5A8A1"/>
<path d="M142.522 246.789L141.662 246.549C141.662 246.549 141.832 245.959 142.012 245.369C142.112 245.079 142.202 244.779 142.272 244.559C142.352 244.339 142.402 244.189 142.402 244.189L143.232 244.499C143.232 244.499 143.182 244.639 143.112 244.849C143.042 245.059 142.952 245.349 142.852 245.639C142.692 246.209 142.522 246.789 142.522 246.789Z" fill="#D9E3FD"/>
<path d="M141.682 250.289L140.812 250.109C140.812 250.109 140.932 249.509 141.072 248.909C141.202 248.309 141.362 247.719 141.362 247.719L142.222 247.939C142.222 247.939 142.072 248.529 141.942 249.119C141.802 249.689 141.682 250.289 141.682 250.289Z" fill="#D9E3FD"/>
<path d="M141.052 253.829L140.172 253.699C140.172 253.699 140.262 253.089 140.362 252.489C140.452 251.879 140.572 251.279 140.572 251.279L141.442 251.439C141.442 251.439 141.322 252.029 141.232 252.629C141.142 253.239 141.052 253.829 141.052 253.829Z" fill="#D9E3FD"/>
<path d="M140.632 257.409L139.752 257.329C139.752 257.329 139.802 256.719 139.872 256.109C139.942 255.499 140.012 254.889 140.012 254.889L140.892 254.999C140.892 254.999 140.822 255.599 140.752 256.199C140.682 256.809 140.632 257.409 140.632 257.409Z" fill="#D9E3FD"/>
<path d="M140.412 261.009L139.522 260.979C139.522 260.979 139.542 260.369 139.572 259.749C139.612 259.139 139.652 258.529 139.652 258.529L140.542 258.589C140.542 258.589 140.502 259.189 140.462 259.799C140.442 260.409 140.412 261.009 140.412 261.009Z" fill="#D9E3FD"/>
<path d="M140.412 264.609L139.522 264.629C139.522 264.629 139.512 264.019 139.492 263.399C139.492 262.789 139.502 262.169 139.502 262.169L140.392 262.179C140.392 262.179 140.392 262.789 140.382 263.389C140.392 264.009 140.412 264.609 140.412 264.609Z" fill="#D9E3FD"/>
<path d="M140.612 268.209L139.722 268.289C139.722 268.289 139.672 267.679 139.622 267.069C139.592 266.459 139.562 265.839 139.562 265.839L140.452 265.799C140.452 265.799 140.482 266.399 140.512 267.009C140.562 267.609 140.612 268.209 140.612 268.209Z" fill="#D9E3FD"/>
<path d="M141.032 271.789L140.152 271.919C140.152 271.919 140.052 271.309 139.982 270.699C139.912 270.089 139.832 269.479 139.832 269.479L140.712 269.389C140.712 269.389 140.782 269.989 140.852 270.589C140.932 271.189 141.032 271.789 141.032 271.789Z" fill="#D9E3FD"/>
<path d="M141.662 275.329L140.792 275.519C140.792 275.519 140.672 274.919 140.562 274.309C140.502 274.009 140.442 273.709 140.402 273.479C140.362 273.249 140.342 273.099 140.342 273.099L141.222 272.949C141.222 272.949 141.242 273.099 141.282 273.319C141.322 273.539 141.382 273.839 141.442 274.139C141.552 274.739 141.662 275.329 141.662 275.329Z" fill="#D9E3FD"/>
<path d="M142.542 278.829L141.682 279.069C141.682 279.069 141.522 278.479 141.352 277.889C141.202 277.299 141.062 276.699 141.062 276.699L141.922 276.499C141.922 276.499 142.052 277.089 142.202 277.679C142.382 278.239 142.542 278.829 142.542 278.829Z" fill="#D9E3FD"/>
<path d="M143.622 282.259L142.782 282.559C142.782 282.559 142.732 282.419 142.652 282.199C142.582 281.979 142.482 281.689 142.392 281.399C142.202 280.809 142.022 280.229 142.022 280.229L142.872 279.969C142.872 279.969 143.052 280.549 143.242 281.119C143.332 281.409 143.432 281.689 143.502 281.909C143.572 282.119 143.622 282.259 143.622 282.259Z" fill="#D9E3FD"/>
<path d="M144.932 285.609L144.112 285.959C144.112 285.959 143.872 285.389 143.642 284.829C143.522 284.549 143.412 284.259 143.332 284.039C143.252 283.819 143.202 283.679 143.202 283.679L144.032 283.369C144.032 283.369 144.082 283.509 144.162 283.719C144.232 283.929 144.352 284.219 144.472 284.489C144.692 285.059 144.932 285.609 144.932 285.609Z" fill="#D9E3FD"/>
<path d="M146.442 288.879L145.652 289.279C145.652 289.279 145.582 289.139 145.472 288.939C145.372 288.729 145.242 288.449 145.112 288.179C144.852 287.619 144.592 287.069 144.592 287.069L145.402 286.699C145.402 286.699 145.662 287.249 145.912 287.789C146.042 288.059 146.172 288.339 146.262 288.539C146.372 288.749 146.442 288.879 146.442 288.879Z" fill="#D9E3FD"/>
<path d="M148.172 292.039L147.402 292.489C147.402 292.489 147.092 291.959 146.782 291.429C146.622 291.169 146.492 290.889 146.382 290.689C146.272 290.489 146.202 290.349 146.202 290.349L146.982 289.929C146.982 289.929 147.052 290.059 147.162 290.259C147.272 290.459 147.402 290.729 147.562 290.989C147.872 291.509 148.172 292.039 148.172 292.039Z" fill="#D9E3FD"/>
<path d="M155.622 249.789L154.742 249.669C154.742 249.669 154.812 249.159 154.892 248.649C154.982 248.139 155.062 247.619 155.062 247.619L155.932 247.789C155.932 247.789 155.852 248.289 155.762 248.789C155.692 249.289 155.622 249.789 155.622 249.789Z" fill="#D9E3FD"/>
<path d="M155.262 252.809L154.382 252.719C154.382 252.719 154.432 252.209 154.482 251.689C154.542 251.179 154.612 250.669 154.612 250.669L155.492 250.779C155.492 250.779 155.432 251.289 155.372 251.789C155.312 252.309 155.262 252.809 155.262 252.809Z" fill="#D9E3FD"/>
<path d="M155.012 255.849L154.122 255.789L154.282 253.729L155.162 253.809L155.012 255.849Z" fill="#D9E3FD"/>
<path d="M154.852 258.889L153.962 258.859L154.062 256.799L154.952 256.849L154.852 258.889Z" fill="#D9E3FD"/>
<path d="M154.802 261.929H153.912L153.942 259.869L154.832 259.889L154.802 261.929Z" fill="#D9E3FD"/>
<path d="M154.852 264.969L153.962 265.009L153.922 262.939L154.812 262.929L154.852 264.969Z" fill="#D9E3FD"/>
<path d="M155.022 268.009L154.132 268.079L154.012 266.019L154.902 265.969L155.022 268.009Z" fill="#D9E3FD"/>
<path d="M155.302 271.039L154.422 271.139L154.212 269.079L155.102 269.009L155.302 271.039Z" fill="#D9E3FD"/>
<path d="M155.722 274.049L154.842 274.189L154.532 272.149L155.412 272.029L155.722 274.049Z" fill="#D9E3FD"/>
<path d="M156.262 277.039L155.392 277.219C155.392 277.219 155.282 276.709 155.182 276.209C155.062 275.709 154.992 275.189 154.992 275.189L155.872 275.039C155.872 275.039 155.942 275.539 156.062 276.039C156.162 276.539 156.262 277.039 156.262 277.039Z" fill="#D9E3FD"/>
<path d="M156.952 279.989L156.092 280.219C156.092 280.219 155.952 279.719 155.812 279.219C155.702 278.709 155.602 278.209 155.602 278.209L156.472 278.019C156.472 278.019 156.582 278.519 156.682 279.019C156.812 279.499 156.952 279.989 156.952 279.989Z" fill="#D9E3FD"/>
<path d="M157.792 282.909L156.952 283.179C156.952 283.179 156.912 283.059 156.842 282.869C156.782 282.689 156.722 282.429 156.652 282.189C156.512 281.689 156.372 281.189 156.372 281.189L157.222 280.949C157.222 280.949 157.362 281.439 157.492 281.929C157.562 282.169 157.622 282.419 157.682 282.599C157.742 282.789 157.792 282.909 157.792 282.909Z" fill="#D9E3FD"/>
<path d="M158.812 285.759L157.982 286.089L157.282 284.139L158.122 283.839L158.812 285.759Z" fill="#D9E3FD"/>
<path d="M160.042 288.519L159.242 288.909L158.382 287.019L159.202 286.669L160.042 288.519Z" fill="#D9E3FD"/>
</svg>
