<svg width="1920" height="960" viewBox="0 0 1920 960" fill="none" xmlns="http://www.w3.org/2000/svg">
<rect width="1920" height="960" fill="url(#paint0_linear)"/>
<mask id="mask0" mask-type="alpha" maskUnits="userSpaceOnUse" x="0" y="0" width="1920" height="960">
<rect width="1920" height="960" fill="url(#paint1_linear)"/>
</mask>
<g mask="url(#mask0)">
<path d="M2007.44 131.33C2000.58 92.7232 1941.99 -19.0578 1896.75 -21.9008C1838.95 -25.5143 1810.71 70.5901 1769.47 103.404C1646.56 201.263 1476.8 196.32 1328.17 202.75C1258.66 205.753 1119.7 188.456 1068.58 252.57C1016.79 317.534 1085.8 361.428 1063.45 429.049C1032.04 524.091 915.639 507.963 840.525 508.521C721.491 509.424 695.399 531.158 610.48 606.379C464.5 726.5 10.9999 826.5 -65.5001 975.5C-95.3845 1081.52 238 1063 319.5 1070.1C404.554 1104.41 530.838 1097.08 609.603 1098.11C1080.03 1104.23 1549.37 1065.72 2018.36 1034.5C1918.96 740.054 2060.63 430.723 2007.44 131.33Z" fill="#009EDB"/>
<path d="M2034.01 152.586C2027.15 113.979 1968.56 2.19838 1923.31 -0.644634C1865.52 -4.25818 1837.28 91.8463 1796.04 124.661C1673.13 222.519 1503.37 217.577 1354.74 224.007C1285.23 227.009 1146.27 209.712 1095.15 273.826C1043.36 338.79 1112.37 382.684 1090.02 450.305C1058.61 545.347 942.21 529.219 867.096 529.777C748.061 530.68 721.969 552.415 637.051 627.635C534.995 718.027 351.5 750.5 160.5 854C-6.00006 944.224 -137.636 1049.75 -64.5001 1076C20.2648 1106.42 560.121 1118.37 636.174 1119.37C1106.6 1125.48 1575.94 1086.98 2044.93 1055.76C1945.53 761.31 2087.2 451.979 2034.01 152.586Z" fill="white"/>
</g>
<defs>
<linearGradient id="paint0_linear" x1="24.9751" y1="18.2067" x2="1535.27" y2="1344.29" gradientUnits="userSpaceOnUse">
<stop offset="0.171875" stop-color="#2F3542"/>
<stop offset="1" stop-color="#009EDB"/>
</linearGradient>
<linearGradient id="paint1_linear" x1="24.9751" y1="18.2067" x2="1535.27" y2="1344.29" gradientUnits="userSpaceOnUse">
<stop stop-color="#2F3542"/>
<stop offset="1" stop-color="#CB6573"/>
</linearGradient>
</defs>
</svg>
