<svg width="450" height="150" viewBox="0 0 450 150" fill="none" xmlns="http://www.w3.org/2000/svg">
<path d="M442.977 145.901C433.475 140.215 423.766 134.264 409.617 130.738C382.867 123.994 345.685 127.035 322.033 118.484C299.311 110.241 298.692 94.7252 277.519 85.8213C258.515 77.799 228.15 77.226 205.944 70.8345C181.88 63.8701 170.828 51.1754 150.482 42.3156C126.727 31.9571 92.5407 27.6374 61.6593 21.6427C37.1815 16.8381 12.1872 9.82956 -6.10352e-05 0H442.77C450 0 450 0 450 3.08551V150C447.624 148.634 445.249 147.267 442.977 145.901Z" fill="#1ABC9C"/>
<path d="M342.305 142.959H186.244V47.6939C186.244 44.6939 188.693 42.3062 191.631 42.3062H336.917C339.917 42.3062 342.305 44.7551 342.305 47.6939V142.959Z" fill="#555993"/>
<path d="M192.427 136.776V48.4287H336.121V136.776H192.427Z" fill="url(#paint0_linear)"/>
<path d="M332.631 48.4287C303.244 77.8777 276.978 107.327 247.591 136.714H208.591C230.938 114.367 253.346 91.9593 275.693 69.6124C282.733 62.5716 289.835 55.4695 296.876 48.4287H332.631ZM285.427 48.4287H274.346C247.04 75.7348 219.733 103.041 192.366 130.408V136.776H197.264C226.652 107.327 256.04 77.8777 285.427 48.4287ZM336.121 85.7144V60.3063L262.774 136.776H285.06L336.121 85.7144ZM213.55 48.4287L192.366 69.6124V91.2858L235.223 48.4287H213.55ZM304.958 136.776H318.795C324.55 131.021 330.366 125.265 336.121 119.449V105.49C325.713 115.959 315.366 126.367 304.958 136.776Z" fill="url(#paint1_linear)"/>
<path d="M347.142 150H181.346C177.427 150 174.244 146.816 174.244 142.898H354.182C354.244 146.878 351.06 150 347.142 150Z" fill="#7879A9"/>
<path opacity="0.2" d="M252.917 144.673H278.754C279.733 144.673 280.468 143.877 280.468 142.959H251.142C251.142 143.939 251.938 144.673 252.917 144.673Z" fill="#212048"/>
<path opacity="0.2" d="M303.244 122.143H258.244C256.713 122.143 255.489 120.918 255.489 119.388V74.3877C255.489 72.8571 256.713 71.6326 258.244 71.6326H303.244C304.774 71.6326 305.999 72.8571 305.999 74.3877V119.449C305.938 120.918 304.713 122.143 303.244 122.143Z" fill="#FFC563"/>
<path d="M304.346 120.673H259.346C257.815 120.673 256.591 119.449 256.591 117.918V72.9182C256.591 71.3876 257.815 70.1631 259.346 70.1631H304.346C305.876 70.1631 307.101 71.3876 307.101 72.9182V117.918C307.101 119.449 305.876 120.673 304.346 120.673Z" fill="#FFFEFF"/>
<path d="M282.305 78.7959C286.529 78.9183 290.387 80.6326 293.325 83.3877L282.305 94.4081V78.7959Z" fill="url(#paint2_linear)"/>
<path d="M281.815 112.102C272.631 112.102 265.162 104.632 265.162 95.4487C265.162 86.3875 272.387 79.0406 281.387 78.7957V95.4487C281.387 95.5099 281.387 95.6324 281.448 95.6936C281.448 95.6936 281.448 95.6936 281.448 95.7548C281.448 95.7548 281.448 95.7548 281.448 95.8161L292.468 108.306C289.652 110.632 285.917 112.102 281.815 112.102Z" fill="url(#paint3_linear)"/>
<path d="M282.489 95.449L293.938 84C296.754 87 298.529 91.0408 298.529 95.449C298.529 100.224 296.509 104.571 293.203 107.633L282.489 95.449Z" fill="#FF791F"/>
<path opacity="0.2" d="M158.551 97.5527C159.714 97.5527 160.633 96.6343 160.633 95.4711V41.8997H102.959C99.959 41.8997 97.5713 44.3486 97.5713 47.2874V97.5527H158.551Z" fill="#FFD176"/>
<path d="M160.082 96.4508H76.0816C74.9183 96.4508 73.9999 95.5325 73.9999 94.3692V31.0631C73.9999 29.8998 74.9183 28.9814 76.0816 28.9814H160.143C161.306 28.9814 162.224 29.8998 162.224 31.0631V94.3692C162.163 95.5325 161.245 96.4508 160.082 96.4508Z" fill="url(#paint4_linear)"/>
<path d="M141.469 70.4302H136.143C135.775 70.4302 135.469 70.1241 135.469 69.7567C135.469 69.3894 135.775 69.0833 136.143 69.0833H141.469C141.837 69.0833 142.143 69.3894 142.143 69.7567C142.204 70.1241 141.898 70.4302 141.469 70.4302Z" fill="#FFFEFF"/>
<path d="M143.49 70.4302C143.306 70.4302 143.122 70.369 143 70.2465C142.878 70.1241 142.816 69.9404 142.816 69.7567C142.816 69.6955 142.816 69.6955 142.816 69.6343C142.816 69.5731 142.816 69.5731 142.878 69.5118C142.878 69.4506 142.939 69.4506 142.939 69.3894C142.939 69.3281 143 69.3281 143 69.2669C143.245 69.022 143.735 69.022 143.98 69.2669C143.98 69.3281 144.041 69.3281 144.041 69.3894C144.041 69.4506 144.102 69.4506 144.102 69.5118C144.102 69.5731 144.163 69.5731 144.163 69.6343C144.163 69.6955 144.163 69.6955 144.163 69.7567C144.163 69.9404 144.102 70.1241 143.98 70.2465C143.857 70.369 143.673 70.4302 143.49 70.4302Z" fill="#FFFEFF"/>
<path d="M152.061 70.4302H145.694C145.326 70.4302 145.02 70.1241 145.02 69.7567C145.02 69.3894 145.326 69.0833 145.694 69.0833H152.061C152.428 69.0833 152.735 69.3894 152.735 69.7567C152.735 70.1241 152.428 70.4302 152.061 70.4302Z" fill="#FFFEFF"/>
<path d="M147.163 73.8589H136.143C135.775 73.8589 135.469 73.5528 135.469 73.1854C135.469 72.8181 135.775 72.512 136.143 72.512H147.163C147.531 72.512 147.837 72.8181 147.837 73.1854C147.837 73.5528 147.531 73.8589 147.163 73.8589Z" fill="#FFFEFF"/>
<path d="M152.061 73.8589H149.49C149.122 73.8589 148.816 73.5528 148.816 73.1854C148.816 72.8181 149.122 72.512 149.49 72.512H152C152.367 72.512 152.673 72.8181 152.673 73.1854C152.735 73.5528 152.429 73.8589 152.061 73.8589Z" fill="#FFFEFF"/>
<path opacity="0.4" d="M148.51 39.5732C146.061 39.5732 144.102 41.5937 144.102 43.9814C144.102 44.1651 144.102 44.41 144.163 44.5937L136.51 48.3283C135.714 47.5324 134.551 46.9814 133.326 46.9814C130.877 46.9814 128.918 49.0018 128.918 51.3896C128.918 52.3079 129.224 53.2263 129.714 53.8998L119.49 67.6141C119.061 67.4916 118.571 67.3692 118.082 67.3692C117.408 67.3692 116.735 67.5528 116.184 67.7977L106.816 58.063C107.122 57.4508 107.306 56.7161 107.306 55.9814C107.306 53.5324 105.286 51.5732 102.898 51.5732C100.449 51.5732 98.4897 53.5937 98.4897 55.9814C98.4897 56.7161 98.6734 57.4508 98.9795 58.063L89.6121 67.7977C89.0611 67.4916 88.3877 67.3692 87.7142 67.3692C85.2652 67.3692 83.306 69.3896 83.306 71.7773C83.306 74.1651 85.3264 76.1855 87.7142 76.1855C90.1632 76.1855 92.1224 74.1651 92.1224 71.7773C92.1224 71.0426 91.9387 70.3079 91.6326 69.6957L101 59.961C101.551 60.2671 102.224 60.3896 102.898 60.3896C103.571 60.3896 104.245 60.2059 104.796 59.961L114.163 69.6957C113.857 70.3079 113.673 71.0426 113.673 71.7773C113.673 74.2263 115.694 76.1855 118.082 76.1855C120.531 76.1855 122.49 74.1651 122.49 71.7773C122.49 70.859 122.184 69.9406 121.694 69.2059L131.857 55.5528C132.286 55.6753 132.775 55.7977 133.265 55.7977C135.714 55.7977 137.673 53.7773 137.673 51.3896C137.673 51.2059 137.673 50.961 137.612 50.7773L145.265 47.0426C146.061 47.8386 147.163 48.3896 148.449 48.3896C150.898 48.3896 152.857 46.3692 152.857 43.9814C152.979 41.5324 150.959 39.5732 148.51 39.5732Z" fill="#FFBD77"/>
<path d="M78.7754 34.0628C79.3503 34.0628 79.8163 33.5968 79.8163 33.022C79.8163 32.4472 79.3503 31.9812 78.7754 31.9812C78.2006 31.9812 77.7346 32.4472 77.7346 33.022C77.7346 33.5968 78.2006 34.0628 78.7754 34.0628Z" fill="#FF791F"/>
<path opacity="0.7" d="M82.5101 34.0628C83.0849 34.0628 83.5509 33.5968 83.5509 33.022C83.5509 32.4472 83.0849 31.9812 82.5101 31.9812C81.9353 31.9812 81.4693 32.4472 81.4693 33.022C81.4693 33.5968 81.9353 34.0628 82.5101 34.0628Z" fill="#FFBD77"/>
<path d="M86.2449 34.0628C86.8197 34.0628 87.2857 33.5968 87.2857 33.022C87.2857 32.4472 86.8197 31.9812 86.2449 31.9812C85.67 31.9812 85.204 32.4472 85.204 33.022C85.204 33.5968 85.67 34.0628 86.2449 34.0628Z" fill="#FFFEFF"/>
<path opacity="0.2" d="M208.004 118.662H245.963C247.126 118.662 248.045 117.744 248.045 116.581V75.254C248.045 74.0907 247.126 73.1724 245.963 73.1724H208.004V118.662Z" fill="#FFC563"/>
<path opacity="0.2" d="M245.963 73.1724H201.147C199.983 73.1724 199.065 74.0907 199.065 75.254V87.1928H247.983V75.254C248.045 74.0907 247.065 73.1724 245.963 73.1724Z" fill="#FFC563"/>
<path d="M247.249 71.8867H202.432C201.269 71.8867 200.351 72.8051 200.351 73.9683V115.295C200.351 116.458 201.269 117.377 202.432 117.377H247.249C248.412 117.377 249.33 116.458 249.33 115.295V73.9683C249.33 72.8051 248.412 71.8867 247.249 71.8867Z" fill="url(#paint5_linear)"/>
<path d="M244.188 111.989H206.106C205.922 111.989 205.739 111.805 205.739 111.622V85.5399C205.739 85.3563 205.922 85.1726 206.106 85.1726C206.29 85.1726 206.473 85.3563 206.473 85.5399V111.254H244.188C244.371 111.254 244.555 111.438 244.555 111.622C244.494 111.866 244.371 111.989 244.188 111.989Z" fill="#FFBD77"/>
<path d="M213.575 102.928H209.29V108.438H213.575V102.928Z" fill="url(#paint6_linear)"/>
<path d="M221.779 98.7642H217.494V108.438H221.779V98.7642Z" fill="url(#paint7_linear)"/>
<path d="M229.983 100.111H225.698V108.438H229.983V100.111Z" fill="url(#paint8_linear)"/>
<path d="M238.188 95.3359H233.902V108.438H238.188V95.3359Z" fill="url(#paint9_linear)"/>
<path d="M213.575 99.499H209.29V102.928H213.575V99.499Z" fill="#FF791F"/>
<path d="M221.779 92.7644H217.494V98.7644H221.779V92.7644Z" fill="#FF791F"/>
<path d="M229.983 94.9685H225.698V100.111H229.983V94.9685Z" fill="#FF791F"/>
<path d="M238.188 87.2542H233.902V95.3358H238.188V87.2542Z" fill="#FF791F"/>
<path d="M210.208 76.7236H206.106V78.3767H210.208V76.7236Z" fill="#FFBD77"/>
<path d="M210.208 80.1521H206.106V81.8052H210.208V80.1521Z" fill="#FFBD77"/>
<path d="M218.963 78.2542H213.636C213.269 78.2542 212.963 77.948 212.963 77.5807C212.963 77.2133 213.269 76.9072 213.636 76.9072H218.963C219.33 76.9072 219.636 77.2133 219.636 77.5807C219.636 77.8868 219.33 78.2542 218.963 78.2542Z" fill="#FFBD77"/>
<path d="M220.983 78.2542C220.8 78.2542 220.616 78.1929 220.494 78.0705C220.371 77.948 220.31 77.7644 220.31 77.5807C220.31 77.5195 220.31 77.5195 220.31 77.4582C220.31 77.397 220.31 77.397 220.371 77.3358C220.371 77.2746 220.432 77.2746 220.432 77.2133C220.432 77.1521 220.494 77.1521 220.494 77.0909C220.739 76.846 221.228 76.846 221.473 77.0909C221.473 77.1521 221.534 77.1521 221.534 77.2133C221.534 77.2746 221.596 77.2746 221.596 77.3358C221.596 77.397 221.657 77.397 221.657 77.4582C221.657 77.5195 221.657 77.5195 221.657 77.5807C221.657 77.7644 221.596 77.948 221.473 78.0705C221.351 78.1317 221.167 78.2542 220.983 78.2542Z" fill="#FFBD77"/>
<path d="M229.494 78.2542H223.126C222.759 78.2542 222.453 77.948 222.453 77.5807C222.453 77.2133 222.759 76.9072 223.126 76.9072H229.494C229.861 76.9072 230.167 77.2133 230.167 77.5807C230.167 77.8868 229.861 78.2542 229.494 78.2542Z" fill="#FFBD77"/>
<path d="M224.596 81.6829H213.575C213.208 81.6829 212.902 81.3768 212.902 81.0094C212.902 80.6421 213.208 80.3359 213.575 80.3359H224.596C224.963 80.3359 225.269 80.6421 225.269 81.0094C225.33 81.3768 225.024 81.6829 224.596 81.6829Z" fill="#FFBD77"/>
<path d="M229.494 81.6829H226.983C226.616 81.6829 226.31 81.3768 226.31 81.0094C226.31 80.6421 226.616 80.3359 226.983 80.3359H229.494C229.861 80.3359 230.167 80.6421 230.167 81.0094C230.167 81.3768 229.861 81.6829 229.494 81.6829Z" fill="#FFBD77"/>
<path opacity="0.2" d="M342.305 72.7959L326.938 57.4286C325.774 56.2653 323.999 56.2653 322.774 57.3062L318.183 52.7143L320.203 50.6939L318.489 48.9796C319.836 46.8368 320.999 44.6327 321.856 42.3062H255.734C257.448 46.8368 260.142 51.0613 263.754 54.7347C275.754 66.7347 294.305 68.3266 308.019 59.3878L309.734 61.1021L311.754 59.0817L316.346 63.6735C315.305 64.898 315.366 66.6735 316.468 67.8368L325.223 76.5919C324.856 77.0817 324.366 77.7551 324.55 78.0612C324.795 78.551 325.468 78.6735 325.652 78.7347C325.836 78.7959 325.958 79.5919 326.57 79.8368C327.244 80.0817 327.489 80.6939 328.04 80.8163C328.407 80.8776 328.713 80.5715 328.897 80.2653L335.019 86.3878L333.121 84.4898C333.121 84.4898 332.938 86.5102 333.305 87.1225C333.978 88.1633 336.734 88.9592 337.774 89.2041L342.182 93.6123V72.7959H342.305Z" fill="#FFC563"/>
<path d="M319.921 62.7378L313.557 69.1017L323.47 79.0154L329.834 72.6516L319.921 62.7378Z" fill="#4C506A"/>
<path d="M294.995 72.6171C310.684 72.6171 323.403 59.8983 323.403 44.2089C323.403 28.5195 310.684 15.8008 294.995 15.8008C279.305 15.8008 266.586 28.5195 266.586 44.2089C266.586 59.8983 279.305 72.6171 294.995 72.6171Z" fill="url(#paint10_linear)"/>
<path d="M323.047 61.7756L312.614 72.209L315.947 75.5425L326.381 65.1091L323.047 61.7756Z" fill="#FF791F"/>
<path d="M363.995 107.148L357.933 113.209C356.709 114.433 354.811 114.433 353.586 113.209L322.729 82.3517C321.505 81.1272 321.505 79.2292 322.729 78.0047L328.791 71.9435C330.015 70.719 331.913 70.719 333.137 71.9435L363.995 102.801C365.219 103.964 365.219 105.923 363.995 107.148Z" fill="url(#paint11_linear)"/>
<path d="M294.995 66.7395C308.621 66.7395 319.668 55.6928 319.668 42.066C319.668 28.4393 308.621 17.3926 294.995 17.3926C281.368 17.3926 270.321 28.4393 270.321 42.066C270.321 55.6928 281.368 66.7395 294.995 66.7395Z" fill="url(#paint12_linear)"/>
<path d="M310.362 31.0456C310.24 31.0456 310.056 31.0456 309.933 30.9844C309.811 30.9844 309.627 30.9232 309.505 30.8619C309.382 30.8007 309.26 30.7395 309.137 30.6783C309.015 30.617 308.893 30.4946 308.831 30.4334C308.709 30.3109 308.648 30.2497 308.586 30.1272C308.525 30.0048 308.464 29.8823 308.403 29.7599C308.342 29.6374 308.28 29.515 308.28 29.3313C308.28 29.2089 308.219 29.0252 308.219 28.9027C308.219 28.3517 308.464 27.7395 308.831 27.3721C308.954 27.2497 309.015 27.1885 309.137 27.066C309.26 27.0048 309.382 26.9436 309.505 26.8823C309.627 26.8211 309.75 26.7599 309.933 26.7599C310.607 26.6374 311.403 26.8211 311.893 27.3721C312.321 27.8007 312.505 28.3517 312.505 28.9027C312.505 29.0252 312.505 29.2089 312.444 29.3313C312.444 29.4538 312.382 29.6374 312.321 29.7599C312.26 29.8823 312.199 30.0048 312.137 30.1272C312.076 30.2497 311.954 30.3721 311.831 30.4334C311.464 30.8007 310.913 31.0456 310.362 31.0456Z" fill="#FFFEFF"/>
<path d="M279.688 31.0456C279.137 31.0456 278.586 30.8619 278.158 30.4333C277.301 29.5762 277.301 28.2293 278.158 27.3721C284.954 20.5762 295.117 18.4946 303.995 22.1068C305.097 22.5354 305.648 23.8211 305.219 24.9231C304.791 26.0252 303.505 26.5762 302.403 26.1476C295.117 23.2089 286.852 24.8619 281.28 30.4333C280.791 30.8007 280.24 31.0456 279.688 31.0456Z" fill="#FFFEFF"/>
<path d="M320.035 19.1681C306.199 5.33134 283.791 5.33134 270.015 19.1681C256.178 33.0048 256.178 55.413 270.015 69.1885C283.852 83.0252 306.26 83.0252 320.035 69.1885C333.811 55.413 333.811 33.0048 320.035 19.1681ZM314.648 63.8619C303.811 74.6987 286.178 74.6987 275.342 63.8619C264.505 53.0252 264.505 35.3926 275.342 24.5558C286.178 13.7191 303.811 13.7191 314.648 24.5558C325.484 35.3926 325.484 52.964 314.648 63.8619Z" fill="url(#paint13_linear)"/>
<path d="M355.729 94.5966L355.423 110.944L367.362 111.127L369.015 94.4742C369.137 93.1272 368.28 91.8415 366.933 91.5354L362.097 90.3109L359.342 89.8823C357.444 89.5762 355.484 89.8211 353.709 90.5558L352.301 91.1068L355.729 94.5966Z" fill="url(#paint14_linear)"/>
<path d="M369.968 149.982L361.852 115.229C361.79 115.046 361.668 114.862 361.423 114.862C361.117 114.801 360.872 115.046 360.872 115.352L357.417 149.982H349.336L352.275 148.023L355.362 110.882L367.301 111.066L374.744 148.023L377.438 149.982H369.968Z" fill="#555993"/>
<path d="M362.893 89.3927C362.893 89.3927 363.627 89.3927 363.811 89.8213C363.995 90.4335 363.75 93.1886 363.26 93.1886C362.831 93.1886 361.607 91.2295 361.607 91.2295C361.607 91.2295 359.77 92.6989 359.342 92.3927C358.974 92.1478 360.076 88.9029 361.056 89.0866C361.913 89.3315 362.893 89.3927 362.893 89.3927Z" fill="white"/>
<path d="M361.729 91.0458C362.158 91.107 362.464 91.107 362.77 90.8009C363.321 90.1886 363.26 89.3315 363.811 88.7192C364.056 88.4743 364.362 88.2294 364.668 87.9845C365.097 87.6172 365.341 87.1274 365.586 86.5764C366.688 84.2498 367.362 79.0458 363.137 78.7396C359.403 78.4335 358.852 82.5968 358.79 84.4947C358.79 85.2294 358.79 86.0254 359.035 86.7601C359.158 87.1274 359.341 87.4947 359.586 87.7396C359.893 88.0458 360.26 88.1682 360.566 88.4743C360.995 88.8417 360.75 89.5152 360.688 90.005C360.811 90.6784 361.117 90.9845 361.729 91.0458Z" fill="#FFC563"/>
<path d="M365.586 85.1683C365.525 85.7806 365.954 86.2704 366.505 86.3316C367.117 86.3928 367.607 85.9642 367.668 85.4132C367.729 84.801 367.301 84.3112 366.75 84.2499C366.137 84.1275 365.648 84.5561 365.586 85.1683Z" fill="#FFC563"/>
<path d="M357.505 84.1886C357.444 84.8008 357.872 85.2906 358.423 85.3519C359.035 85.4131 359.525 84.9845 359.586 84.4335C359.648 83.8213 359.219 83.3315 358.668 83.2702C358.056 83.209 357.566 83.6376 357.505 84.1886Z" fill="#FFC563"/>
<path d="M344.525 101.637L342.505 100.903C342.505 100.903 341.403 98.9436 341.097 99.0048C340.791 99.066 341.28 100.903 341.28 100.903L339.382 99.0048C339.382 99.0048 339.199 101.025 339.566 101.637C340.423 102.923 344.525 103.842 344.525 103.842V101.637Z" fill="#FFC563"/>
<path d="M331.974 90.5559C331.974 90.5559 330.566 92.0865 330.811 92.5763C331.056 93.0661 331.729 93.1886 331.913 93.2498C332.097 93.311 332.219 94.1069 332.831 94.3518C333.505 94.5967 333.75 95.209 334.301 95.3314C334.852 95.4539 335.342 94.5967 335.464 94.3518C335.586 94.1069 334.484 93.4947 334.484 93.4947C334.484 93.4947 334.668 92.8824 334.546 92.76C334.423 92.5763 333.505 91.9641 333.505 91.9641C333.505 91.9641 333.444 91.1682 333.321 91.0457C333.199 90.9233 332.831 90.7396 332.831 90.7396L332.464 91.1069L331.974 90.5559Z" fill="#FFC563"/>
<path d="M344.525 103.78C344.525 103.78 353.831 105.678 356.648 105.005C359.893 104.209 366.627 97.5353 366.627 97.5353L364.178 93.6169L355.484 100.78L344.525 100.229V103.78Z" fill="url(#paint15_linear)"/>
<path d="M358.974 83.3314C358.974 83.3314 358.301 81.3722 358.607 79.7804C358.607 79.7804 357.137 78.8008 357.872 77.2702L359.709 78.4335C359.709 78.4335 358.546 77.6376 359.219 76.658L360.566 77.5763C360.566 77.5763 365.586 78.4335 366.566 79.3518C367.546 80.2702 367.056 81.311 367.056 81.311C367.056 81.311 367.668 81.3722 367.852 81.9845C368.035 82.5967 366.933 84.2498 366.933 84.2498C366.933 84.2498 366.076 83.9437 365.648 84.9233L365.097 85.5967C365.097 85.5967 365.097 85.0457 365.342 84.0049C365.342 84.0049 364.117 82.658 364.301 81.6171L359.954 80.8212C360.015 80.8825 359.28 81.7396 358.974 83.3314Z" fill="#555993"/>
<path opacity="0.2" d="M328.468 131.755H302.57C301.897 131.755 301.285 131.204 301.285 130.469V98.8775C301.285 98.204 301.836 97.5918 302.57 97.5918H328.468C329.142 97.5918 329.754 98.1428 329.754 98.8775V130.469C329.693 131.143 329.142 131.755 328.468 131.755Z" fill="#FFC563"/>
<path d="M329.876 129.857H303.978C303.305 129.857 302.693 129.306 302.693 128.571V96.9793C302.693 96.3059 303.244 95.6936 303.978 95.6936H329.876C330.55 95.6936 331.162 96.2446 331.162 96.9793V128.571C331.101 129.306 330.55 129.857 329.876 129.857Z" fill="url(#paint16_linear)"/>
<path opacity="0.4" d="M327.35 108.958V99.2842H306.411V108.958H327.35Z" fill="#FF791F"/>
<path d="M326.938 111.796H306.734C306.489 111.796 306.305 111.612 306.305 111.367C306.305 111.122 306.489 110.938 306.734 110.938H326.938C327.182 110.938 327.366 111.122 327.366 111.367C327.366 111.612 327.182 111.796 326.938 111.796Z" fill="#FFFEFF"/>
<path d="M319.468 113.694H306.672C306.427 113.694 306.244 113.51 306.244 113.265C306.244 113.02 306.427 112.836 306.672 112.836H319.468C319.713 112.836 319.897 113.02 319.897 113.265C319.897 113.51 319.713 113.694 319.468 113.694Z" fill="#FFFEFF"/>
<path d="M326.938 113.694H321.427C321.182 113.694 320.999 113.51 320.999 113.265C320.999 113.02 321.182 112.836 321.427 112.836H326.938C327.182 112.836 327.366 113.02 327.366 113.265C327.366 113.51 327.182 113.694 326.938 113.694Z" fill="#FFFEFF"/>
<path d="M323.019 115.53H306.734C306.489 115.53 306.305 115.347 306.305 115.102C306.305 114.857 306.489 114.673 306.734 114.673H323.019C323.264 114.673 323.448 114.857 323.448 115.102C323.448 115.347 323.264 115.53 323.019 115.53Z" fill="#FFFEFF"/>
<path d="M326.938 115.53H324.733C324.489 115.53 324.305 115.347 324.305 115.102C324.305 114.857 324.489 114.673 324.733 114.673H326.938C327.182 114.673 327.366 114.857 327.366 115.102C327.366 115.347 327.182 115.53 326.938 115.53Z" fill="#FFFEFF"/>
<path d="M310.897 117.428H306.734C306.489 117.428 306.305 117.245 306.305 117C306.305 116.755 306.489 116.571 306.734 116.571H310.897C311.142 116.571 311.325 116.755 311.325 117C311.325 117.245 311.142 117.428 310.897 117.428Z" fill="#FFFEFF"/>
<path d="M317.203 123.061H319.897C320.142 123.061 320.325 122.878 320.325 122.633C320.325 122.388 320.142 122.204 319.897 122.204H317.203C316.958 122.204 316.774 122.388 316.774 122.633C316.713 122.878 316.958 123.061 317.203 123.061Z" fill="#FFFEFF"/>
<path d="M306.672 123.061H315.427C315.672 123.061 315.856 122.878 315.856 122.633C315.856 122.388 315.672 122.204 315.427 122.204H306.672C306.427 122.204 306.244 122.388 306.244 122.633C306.244 122.878 306.427 123.061 306.672 123.061Z" fill="#FFFEFF"/>
<path d="M317.693 126.796H319.897C320.142 126.796 320.325 126.612 320.325 126.367C320.325 126.122 320.142 125.938 319.897 125.938H317.693C317.448 125.938 317.264 126.122 317.264 126.367C317.264 126.612 317.448 126.796 317.693 126.796Z" fill="#FFFEFF"/>
<path d="M306.672 124.959H310.285C310.529 124.959 310.713 124.776 310.713 124.531C310.713 124.286 310.529 124.102 310.285 124.102H306.672C306.427 124.102 306.244 124.286 306.244 124.531C306.244 124.714 306.427 124.959 306.672 124.959Z" fill="#FFFEFF"/>
<path d="M309.366 121.163H306.672C306.427 121.163 306.244 120.98 306.244 120.735C306.244 120.49 306.427 120.306 306.672 120.306H309.366C309.611 120.306 309.795 120.49 309.795 120.735C309.856 120.98 309.611 121.163 309.366 121.163Z" fill="#FFFEFF"/>
<path d="M319.897 121.163H311.142C310.897 121.163 310.713 120.98 310.713 120.735C310.713 120.49 310.897 120.306 311.142 120.306H319.897C320.142 120.306 320.325 120.49 320.325 120.735C320.325 120.98 320.142 121.163 319.897 121.163Z" fill="#FFFEFF"/>
<path opacity="0.4" d="M327.366 120.306H322.101V126.796H327.366V120.306Z" fill="#FF791F"/>
<path d="M368.061 10C363.041 10 359 14.0408 359 19.0612C359 24.0816 363.041 28.1224 368.061 28.1224C373.082 28.1224 377.122 24.0816 377.122 19.0612C377.122 14.0408 373.082 10 368.061 10ZM375.408 18.2041H373.143C373.02 16 372.531 14.0408 371.673 12.5714C373.694 13.7347 375.163 15.8163 375.408 18.2041ZM367.265 11.898V18.2041H364.694C364.816 15.0204 365.98 12.6327 367.265 11.898ZM367.265 19.8571V26.1633C365.98 25.4286 364.816 23.0408 364.694 19.8571H367.265ZM368.918 26.1633V19.8571H371.49C371.306 23.102 370.143 25.4286 368.918 26.1633ZM368.918 18.2041V11.898C370.204 12.6327 371.367 15.0204 371.49 18.2041H368.918ZM364.449 12.5714C363.653 14.0408 363.102 16 362.98 18.2041H360.714C360.959 15.8163 362.429 13.7347 364.449 12.5714ZM360.714 19.8571H362.98C363.102 22.0612 363.592 24.0204 364.449 25.4898C362.429 24.3265 360.959 22.3061 360.714 19.8571ZM371.673 25.4898C372.469 24.0204 373.02 22.0612 373.143 19.8571H375.408C375.163 22.3061 373.694 24.3265 371.673 25.4898Z" fill="#FFF1D1"/>
<path d="M136.638 109.534C136.638 109.289 136.638 109.105 136.577 108.86L137.556 108.309C137.679 108.248 137.74 108.064 137.679 107.88L136.822 106.35C136.76 106.227 136.577 106.166 136.393 106.227L135.413 106.778C135.107 106.472 134.679 106.289 134.25 106.105V105.003C134.25 104.819 134.128 104.697 133.944 104.697H132.168C131.985 104.697 131.862 104.819 131.862 105.003V106.105C131.434 106.227 131.066 106.472 130.699 106.778L129.719 106.227C129.597 106.166 129.413 106.166 129.291 106.35L128.434 107.88C128.373 108.003 128.373 108.187 128.556 108.309L129.536 108.86C129.475 109.105 129.475 109.289 129.475 109.534C129.475 109.778 129.475 109.962 129.536 110.207L128.556 110.758C128.434 110.819 128.373 111.003 128.434 111.187L129.291 112.717C129.352 112.84 129.536 112.901 129.719 112.84L130.699 112.289C131.005 112.595 131.434 112.778 131.862 112.962V114.064C131.862 114.248 131.985 114.37 132.168 114.37H133.944C134.128 114.37 134.25 114.248 134.25 114.064V112.962C134.679 112.84 135.046 112.595 135.413 112.289L136.393 112.84C136.515 112.901 136.699 112.901 136.822 112.717L137.679 111.187C137.74 111.064 137.74 110.88 137.556 110.758L136.577 110.207C136.638 110.023 136.638 109.778 136.638 109.534ZM133.087 111.431C132.046 111.431 131.189 110.574 131.189 109.534C131.189 108.493 132.046 107.636 133.087 107.636C134.128 107.636 134.985 108.493 134.985 109.534C134.924 110.574 134.128 111.431 133.087 111.431Z" fill="#FFF1D1"/>
<path d="M147.903 115.472V113.452C147.903 113.329 147.781 113.207 147.658 113.207H147.046C146.924 113.207 146.862 113.146 146.801 113.023C146.74 112.84 146.679 112.717 146.617 112.595C146.556 112.472 146.556 112.35 146.679 112.289L147.107 111.86C147.23 111.738 147.23 111.615 147.107 111.493L145.699 110.084C145.577 109.962 145.454 109.962 145.332 110.084L144.903 110.513C144.842 110.574 144.719 110.636 144.597 110.574C144.475 110.513 144.291 110.452 144.168 110.391C144.046 110.329 143.985 110.268 143.985 110.146V109.533C143.985 109.411 143.862 109.289 143.74 109.289H141.719C141.597 109.289 141.475 109.411 141.475 109.533V110.146C141.475 110.268 141.413 110.329 141.291 110.391C141.107 110.452 140.985 110.513 140.862 110.574C140.74 110.636 140.617 110.636 140.556 110.513L140.128 110.084C140.005 109.962 139.883 109.962 139.76 110.084L138.352 111.493C138.23 111.615 138.23 111.738 138.352 111.86L138.781 112.289C138.842 112.35 138.903 112.472 138.842 112.595C138.781 112.717 138.719 112.901 138.658 113.023C138.597 113.146 138.536 113.207 138.413 113.207H137.801C137.679 113.207 137.556 113.329 137.556 113.452V115.472C137.556 115.595 137.679 115.717 137.801 115.717H138.413C138.536 115.717 138.597 115.778 138.658 115.901C138.719 116.084 138.781 116.207 138.842 116.329C138.903 116.452 138.903 116.574 138.781 116.636L138.352 117.064C138.23 117.187 138.23 117.309 138.352 117.431L139.76 118.84C139.883 118.962 140.005 118.962 140.128 118.84L140.556 118.411C140.617 118.35 140.74 118.289 140.862 118.35C140.985 118.411 141.168 118.472 141.291 118.533C141.413 118.595 141.475 118.656 141.475 118.778V119.391C141.475 119.513 141.597 119.636 141.719 119.636H143.74C143.862 119.636 143.985 119.513 143.985 119.391V118.778C143.985 118.656 144.046 118.595 144.168 118.533C144.352 118.472 144.475 118.411 144.597 118.35C144.719 118.289 144.842 118.289 144.903 118.411L145.332 118.84C145.454 118.962 145.577 118.962 145.699 118.84L147.107 117.431C147.23 117.309 147.23 117.187 147.107 117.064L146.679 116.636C146.617 116.574 146.556 116.452 146.617 116.329C146.679 116.207 146.74 116.023 146.801 115.901C146.862 115.778 146.924 115.717 147.046 115.717H147.658C147.781 115.717 147.903 115.595 147.903 115.472ZM143.128 116.452C141.597 116.758 140.311 115.472 140.617 113.942C140.801 113.207 141.413 112.533 142.148 112.411C143.679 112.105 144.964 113.391 144.658 114.921C144.536 115.717 143.924 116.329 143.128 116.452Z" fill="#FFF1D1"/>
<path d="M56.2653 123.306V122.816C55.7755 122.755 55.2857 122.571 54.9183 122.327C54.551 122.082 54.2448 121.714 54.0612 121.347C53.9999 121.224 53.9999 121.102 53.9999 121.041C53.9999 120.98 53.9999 120.918 53.9999 120.857C54.0612 120.735 54.1224 120.612 54.3061 120.551C54.4285 120.49 54.4897 120.49 54.551 120.49C54.7346 120.49 54.9183 120.612 55.102 120.857C55.4693 121.408 56.0203 121.714 56.755 121.714C57.1224 121.714 57.4897 121.592 57.7346 121.408C58.0408 121.224 58.2244 120.918 58.2244 120.551C58.2244 120.245 58.0408 119.939 57.7346 119.755C57.4897 119.633 57.3061 119.571 56.9387 119.449L56.755 119.388C55.9591 119.265 55.3469 118.959 54.9183 118.653C54.4285 118.286 54.1836 117.735 54.1836 117.122C54.1836 116.571 54.4285 116.02 54.7958 115.653C55.1632 115.286 55.7142 115.041 56.2653 114.918V114.49C56.2653 114.367 56.3265 114.245 56.4489 114.122C56.5714 114 56.6938 114 56.8163 114C56.9387 114 57.0612 114.061 57.1836 114.122C57.3061 114.245 57.3061 114.367 57.3061 114.49V114.918C58.102 115.041 58.7142 115.408 59.0816 116.02C59.1428 116.082 59.1428 116.143 59.1428 116.265C59.1428 116.265 59.1428 116.327 59.1428 116.388C59.1428 116.51 59.0816 116.571 58.9591 116.694C58.8979 116.816 58.7142 116.816 58.5918 116.816C58.4693 116.816 58.3469 116.755 58.2244 116.694C57.9795 116.449 57.7346 116.327 57.6122 116.265C57.3673 116.143 57.1224 116.143 56.8163 116.143C56.4489 116.143 56.0816 116.265 55.8367 116.388C55.5918 116.571 55.4081 116.816 55.4081 117.122C55.4081 117.49 55.5918 117.673 55.9591 117.857C56.2653 117.98 56.5714 118.102 57.1836 118.224C57.8571 118.408 58.3469 118.592 58.7754 118.898C59.2652 119.265 59.5101 119.755 59.5101 120.367C59.5101 120.98 59.2652 121.531 58.8979 121.898C58.5306 122.327 57.9795 122.571 57.3673 122.694V123.184C57.3673 123.49 57.1224 123.673 56.8775 123.673C56.5102 123.857 56.2653 123.612 56.2653 123.306Z" fill="#DEB966"/>
<path d="M63.6122 123.306V122.816C63.1224 122.755 62.6326 122.571 62.2653 122.327C61.8979 122.082 61.5918 121.714 61.4082 121.347C61.3469 121.224 61.3469 121.102 61.3469 121.041C61.3469 120.98 61.3469 120.918 61.3469 120.857C61.4081 120.735 61.4694 120.612 61.653 120.551C61.7755 120.49 61.8367 120.49 61.8979 120.49C62.0816 120.49 62.2653 120.612 62.449 120.857C62.8163 121.408 63.3673 121.714 64.102 121.714C64.4694 121.714 64.8367 121.592 65.0816 121.408C65.3877 121.224 65.5714 120.918 65.5714 120.551C65.5714 120.245 65.3877 119.939 65.0816 119.755C64.8367 119.633 64.653 119.571 64.2857 119.449L64.102 119.388C63.3061 119.265 62.6939 118.959 62.2653 118.653C61.7755 118.286 61.5306 117.735 61.5306 117.122C61.5306 116.571 61.7755 116.02 62.1428 115.653C62.5102 115.286 63.0612 115.041 63.6122 114.918V114.49C63.6122 114.367 63.6735 114.245 63.7959 114.122C63.9184 114 64.0408 114 64.1633 114C64.2857 114 64.4082 114.061 64.5306 114.122C64.6531 114.245 64.653 114.367 64.653 114.49V114.918C65.449 115.041 66.0612 115.408 66.4285 116.02C66.4898 116.082 66.4898 116.143 66.4898 116.265C66.4898 116.265 66.4898 116.327 66.4898 116.388C66.4898 116.51 66.4286 116.571 66.3061 116.694C66.2449 116.816 66.0612 116.816 65.9388 116.816C65.8163 116.816 65.6939 116.755 65.5714 116.694C65.3265 116.449 65.0816 116.327 64.9592 116.265C64.7143 116.143 64.4694 116.143 64.1633 116.143C63.7959 116.143 63.4286 116.265 63.1837 116.388C62.9388 116.571 62.7551 116.816 62.7551 117.122C62.7551 117.49 62.9388 117.673 63.3061 117.857C63.6122 117.98 63.9184 118.102 64.5306 118.224C65.2041 118.408 65.6939 118.592 66.1224 118.898C66.6122 119.265 66.8571 119.755 66.8571 120.367C66.8571 120.98 66.6122 121.531 66.2449 121.898C65.8775 122.327 65.3265 122.571 64.7143 122.694V123.184C64.7143 123.49 64.4694 123.673 64.2245 123.673C63.8571 123.857 63.6122 123.612 63.6122 123.306Z" fill="#DEB966"/>
<path d="M71.0204 123.306V122.816C70.5306 122.755 70.0408 122.571 69.6735 122.327C69.3061 122.082 69 121.714 68.8164 121.347C68.7551 121.224 68.7551 121.102 68.7551 121.041C68.7551 120.98 68.7551 120.918 68.7551 120.857C68.8164 120.735 68.8776 120.612 69.0612 120.551C69.1837 120.49 69.2449 120.49 69.3061 120.49C69.4898 120.49 69.6735 120.612 69.8572 120.857C70.2245 121.408 70.7755 121.714 71.5102 121.714C71.8776 121.714 72.2449 121.592 72.4898 121.408C72.7959 121.224 72.9796 120.918 72.9796 120.551C72.9796 120.245 72.7959 119.939 72.4898 119.755C72.2449 119.633 72.0612 119.571 71.6939 119.449L71.5102 119.388C70.7143 119.265 70.1021 118.959 69.6735 118.653C69.1837 118.286 68.9388 117.735 68.9388 117.122C68.9388 116.571 69.1837 116.02 69.551 115.653C69.9184 115.286 70.4694 115.041 71.0204 114.918V114.49C71.0204 114.367 71.0817 114.245 71.2041 114.122C71.3266 114 71.449 114 71.5715 114C71.6939 114 71.8163 114.061 71.9388 114.122C72.0612 114.245 72.0612 114.367 72.0612 114.49V114.918C72.8572 115.041 73.4694 115.408 73.8368 116.02C73.898 116.082 73.898 116.143 73.898 116.265C73.898 116.265 73.898 116.327 73.898 116.388C73.898 116.51 73.8368 116.571 73.7143 116.694C73.6531 116.816 73.4694 116.816 73.347 116.816C73.2245 116.816 73.1021 116.755 72.9796 116.694C72.7347 116.449 72.4898 116.327 72.3674 116.265C72.1225 116.143 71.8776 116.143 71.5715 116.143C71.2041 116.143 70.8368 116.265 70.5919 116.388C70.347 116.571 70.1633 116.816 70.1633 117.122C70.1633 117.49 70.347 117.673 70.7143 117.857C71.0204 117.98 71.3265 118.102 71.9388 118.224C72.6123 118.408 73.1021 118.592 73.5306 118.898C74.0204 119.265 74.2653 119.755 74.2653 120.367C74.2653 120.98 74.0204 121.531 73.6531 121.898C73.2857 122.327 72.7347 122.571 72.1225 122.694V123.184C72.1225 123.49 71.8776 123.673 71.6327 123.673C71.2041 123.857 71.0204 123.612 71.0204 123.306Z" fill="#DEB966"/>
<path d="M189.133 7.10791H174.255C174.01 7.10791 173.827 7.29158 173.827 7.53648V15.863C173.827 16.1079 174.01 16.2916 174.255 16.2916H189.133C189.378 16.2916 189.561 16.1079 189.561 15.863V7.53648C189.561 7.29158 189.378 7.10791 189.133 7.10791ZM177.071 13.2916L175.235 15.1283C175.173 15.1895 175.112 15.1895 175.051 15.1895C174.99 15.1895 174.929 15.1895 174.867 15.1283C174.806 15.0671 174.806 14.8834 174.867 14.8222L176.704 12.9855C176.765 12.9242 176.949 12.9242 177.01 12.9855C177.194 13.0467 177.194 13.1691 177.071 13.2916ZM186.316 12.9855C186.378 12.9242 186.561 12.9242 186.622 12.9855L188.459 14.8222C188.52 14.8834 188.52 15.0671 188.459 15.1283C188.398 15.1895 188.337 15.1895 188.276 15.1895C188.214 15.1895 188.153 15.1895 188.092 15.1283L186.255 13.2916C186.194 13.1691 186.194 13.0467 186.316 12.9855ZM174.561 7.90383C174.622 7.78138 174.745 7.78138 174.867 7.78138L181.663 11.3936L188.52 7.8426C188.643 7.78138 188.765 7.8426 188.827 7.96505C188.888 8.0875 188.827 8.20995 188.704 8.27118L181.786 11.9446C181.724 11.9446 181.724 11.9446 181.663 11.9446C181.602 11.9446 181.602 11.9446 181.541 11.9446L174.622 8.27118C174.561 8.14873 174.561 8.02628 174.561 7.90383Z" fill="#FFF1D1"/>
<path d="M335.387 17.2652C334.468 17.2652 333.672 16.4693 333.672 15.551C333.672 14.6326 334.468 13.8367 335.387 13.8367C336.305 13.8367 337.101 14.6326 337.101 15.551C337.101 16.4693 336.305 17.2652 335.387 17.2652ZM335.387 14.4489C334.774 14.4489 334.285 14.9387 334.285 15.551C334.285 16.1632 334.774 16.653 335.387 16.653C335.999 16.653 336.489 16.1632 336.489 15.551C336.489 14.9387 335.999 14.4489 335.387 14.4489Z" fill="#FFDC8A"/>
<path d="M213.856 20.3265C212.938 20.3265 212.142 19.5306 212.142 18.6122C212.142 17.6939 212.938 16.8979 213.856 16.8979C214.774 16.8979 215.57 17.6939 215.57 18.6122C215.57 19.5918 214.774 20.3265 213.856 20.3265ZM213.856 17.5102C213.244 17.5102 212.754 18 212.754 18.6122C212.754 19.2245 213.244 19.7143 213.856 19.7143C214.468 19.7143 214.958 19.2245 214.958 18.6122C214.958 18 214.468 17.5102 213.856 17.5102Z" fill="#FFDC8A"/>
<path d="M361.714 60.4286C360.796 60.4286 360 59.6327 360 58.7143C360 57.7959 360.796 57 361.714 57C362.633 57 363.428 57.7959 363.428 58.7143C363.428 59.6939 362.694 60.4286 361.714 60.4286ZM361.714 57.6122C361.102 57.6122 360.612 58.102 360.612 58.7143C360.612 59.3265 361.102 59.8163 361.714 59.8163C362.326 59.8163 362.816 59.3265 362.816 58.7143C362.816 58.102 362.326 57.6122 361.714 57.6122Z" fill="#FFDC8A"/>
<path d="M167.448 108.918C166.529 108.918 165.734 108.122 165.734 107.204C165.734 106.286 166.529 105.49 167.448 105.49C168.366 105.49 169.162 106.286 169.162 107.204C169.162 108.122 168.366 108.918 167.448 108.918ZM167.448 106.102C166.836 106.102 166.346 106.592 166.346 107.204C166.346 107.816 166.836 108.306 167.448 108.306C168.06 108.306 168.55 107.816 168.55 107.204C168.55 106.592 168.06 106.102 167.448 106.102Z" fill="#FFDC8A"/>
<path d="M394.714 82.4286C393.796 82.4286 393 81.6327 393 80.7143C393 79.7959 393.796 79 394.714 79C395.633 79 396.428 79.7959 396.428 80.7143C396.49 81.6939 395.694 82.4286 394.714 82.4286ZM394.714 79.6122C394.102 79.6122 393.612 80.102 393.612 80.7143C393.612 81.3265 394.102 81.8163 394.714 81.8163C395.326 81.8163 395.816 81.3265 395.816 80.7143C395.877 80.102 395.326 79.6122 394.714 79.6122Z" fill="#FFDC8A"/>
<path d="M218.509 20.1429C218.325 20.1429 218.203 20.0205 218.203 19.8368V17.5715C218.203 17.3878 218.325 17.2654 218.509 17.2654C218.693 17.2654 218.815 17.3878 218.815 17.5715V19.8368C218.815 19.9593 218.693 20.1429 218.509 20.1429Z" fill="#FFDC8A"/>
<path d="M219.672 18.9794H217.346C217.162 18.9794 217.04 18.857 217.04 18.6733C217.04 18.4896 217.162 18.3672 217.346 18.3672H219.611C219.795 18.3672 219.917 18.4896 219.917 18.6733C219.978 18.857 219.795 18.9794 219.672 18.9794Z" fill="#FFDC8A"/>
<path d="M177.305 137.021C177.121 137.021 176.999 136.898 176.999 136.715V134.449C176.999 134.266 177.121 134.143 177.305 134.143C177.489 134.143 177.611 134.266 177.611 134.449V136.715C177.611 136.837 177.489 137.021 177.305 137.021Z" fill="#FFDC8A"/>
<path d="M178.468 135.857H176.203C176.019 135.857 175.897 135.734 175.897 135.551C175.897 135.367 176.019 135.245 176.203 135.245H178.468C178.652 135.245 178.774 135.367 178.774 135.551C178.774 135.734 178.652 135.857 178.468 135.857Z" fill="#FFDC8A"/>
<path d="M367.408 41.8776C367.224 41.8776 367.102 41.7551 367.102 41.5714V39.3061C367.102 39.1224 367.224 39 367.408 39C367.592 39 367.714 39.1224 367.714 39.3061V41.5714C367.714 41.7551 367.592 41.8776 367.408 41.8776Z" fill="#FFDC8A"/>
<path d="M368.571 40.7753H366.306C366.122 40.7753 366 40.6529 366 40.4692C366 40.2855 366.122 40.1631 366.306 40.1631H368.571C368.755 40.1631 368.877 40.2855 368.877 40.4692C368.877 40.5917 368.755 40.7753 368.571 40.7753Z" fill="#FFDC8A"/>
<path d="M255.489 2.87755C255.305 2.87755 255.183 2.7551 255.183 2.57143V0.306122C255.183 0.122449 255.305 0 255.489 0C255.672 0 255.795 0.122449 255.795 0.306122V2.57143C255.795 2.7551 255.611 2.87755 255.489 2.87755Z" fill="#FFDC8A"/>
<path d="M256.591 1.77557H254.325C254.142 1.77557 254.019 1.65313 254.019 1.46945C254.019 1.28578 254.142 1.16333 254.325 1.16333H256.591C256.774 1.16333 256.897 1.28578 256.897 1.46945C256.897 1.5919 256.774 1.77557 256.591 1.77557Z" fill="#FFDC8A"/>
<defs>
<linearGradient id="paint0_linear" x1="313.022" y1="43.847" x2="217.443" y2="139.426" gradientUnits="userSpaceOnUse">
<stop stop-color="#DED5CE"/>
<stop offset="1" stop-color="white"/>
</linearGradient>
<linearGradient id="paint1_linear" x1="347.058" y1="11.7614" x2="245.65" y2="113.169" gradientUnits="userSpaceOnUse">
<stop stop-color="#DED5CE"/>
<stop offset="1" stop-color="white"/>
</linearGradient>
<linearGradient id="paint2_linear" x1="269.194" y1="106.387" x2="298.741" y2="66.1691" gradientUnits="userSpaceOnUse">
<stop stop-color="#6270CA"/>
<stop offset="0.1277" stop-color="#6873C7"/>
<stop offset="0.2965" stop-color="#797BBE"/>
<stop offset="0.4883" stop-color="#9489AF"/>
<stop offset="0.6972" stop-color="#BA9C9B"/>
<stop offset="0.9174" stop-color="#EBB481"/>
<stop offset="1" stop-color="#FFBE76"/>
</linearGradient>
<linearGradient id="paint3_linear" x1="250.311" y1="134.955" x2="284.783" y2="91.4545" gradientUnits="userSpaceOnUse">
<stop stop-color="#FFDC8A"/>
<stop offset="1" stop-color="#FFC15B"/>
</linearGradient>
<linearGradient id="paint4_linear" x1="97.6874" y1="83.115" x2="149.165" y2="31.6375" gradientUnits="userSpaceOnUse">
<stop stop-color="#FFDC8A"/>
<stop offset="1" stop-color="#FFC15B"/>
</linearGradient>
<linearGradient id="paint5_linear" x1="194.041" y1="77.6887" x2="229.842" y2="97.3469" gradientUnits="userSpaceOnUse">
<stop stop-color="#FFF5DE"/>
<stop offset="1" stop-color="white"/>
</linearGradient>
<linearGradient id="paint6_linear" x1="215.76" y1="67.2441" x2="211.045" y2="109.252" gradientUnits="userSpaceOnUse">
<stop stop-color="#FFDC8A"/>
<stop offset="1" stop-color="#FFC15B"/>
</linearGradient>
<linearGradient id="paint7_linear" x1="223.64" y1="68.1285" x2="218.925" y2="110.136" gradientUnits="userSpaceOnUse">
<stop stop-color="#FFDC8A"/>
<stop offset="1" stop-color="#FFC15B"/>
</linearGradient>
<linearGradient id="paint8_linear" x1="231.826" y1="69.0474" x2="227.111" y2="111.056" gradientUnits="userSpaceOnUse">
<stop stop-color="#FFDC8A"/>
<stop offset="1" stop-color="#FFC15B"/>
</linearGradient>
<linearGradient id="paint9_linear" x1="239.671" y1="69.9282" x2="234.956" y2="111.936" gradientUnits="userSpaceOnUse">
<stop stop-color="#FFDC8A"/>
<stop offset="1" stop-color="#FFC15B"/>
</linearGradient>
<linearGradient id="paint10_linear" x1="242.835" y1="15.6159" x2="326.571" y2="61.4815" gradientUnits="userSpaceOnUse">
<stop stop-color="#FFDC8A"/>
<stop offset="1" stop-color="#FFDC8A" stop-opacity="0"/>
</linearGradient>
<linearGradient id="paint11_linear" x1="361.678" y1="100.387" x2="309.294" y2="77.9757" gradientUnits="userSpaceOnUse">
<stop stop-color="#6270CA"/>
<stop offset="0.1277" stop-color="#6873C7"/>
<stop offset="0.2965" stop-color="#797BBE"/>
<stop offset="0.4883" stop-color="#9489AF"/>
<stop offset="0.6972" stop-color="#BA9C9B"/>
<stop offset="0.9174" stop-color="#EBB481"/>
<stop offset="1" stop-color="#FFBE76"/>
</linearGradient>
<linearGradient id="paint12_linear" x1="262.337" y1="18.1522" x2="300.208" y2="45.9241" gradientUnits="userSpaceOnUse">
<stop stop-color="#FFDC8A"/>
<stop offset="1" stop-color="#FFDC8A" stop-opacity="0"/>
</linearGradient>
<linearGradient id="paint13_linear" x1="320.154" y1="3.39132" x2="281.541" y2="66.0356" gradientUnits="userSpaceOnUse">
<stop stop-color="#FF791F"/>
<stop offset="1" stop-color="#FFC15B"/>
</linearGradient>
<linearGradient id="paint14_linear" x1="353.12" y1="108.145" x2="369.154" y2="91.3909" gradientUnits="userSpaceOnUse">
<stop offset="0.4052" stop-color="#DED5CE"/>
<stop offset="0.4783" stop-color="#E1DAD3"/>
<stop offset="0.5681" stop-color="#ECE7E2"/>
<stop offset="0.6103" stop-color="#F2EFEC"/>
<stop offset="1" stop-color="white"/>
</linearGradient>
<linearGradient id="paint15_linear" x1="349.783" y1="104.951" x2="365.817" y2="88.197" gradientUnits="userSpaceOnUse">
<stop stop-color="#DED5CE"/>
<stop offset="1" stop-color="white"/>
</linearGradient>
<linearGradient id="paint16_linear" x1="300.95" y1="132.317" x2="334.044" y2="91.7978" gradientUnits="userSpaceOnUse">
<stop stop-color="#FF791F"/>
<stop offset="0.9976" stop-color="#FFA71F"/>
</linearGradient>
</defs>
</svg>
