<?xml version="1.0" encoding="utf-8"?>
<!-- Generator: Adobe Illustrator 24.1.1, SVG Export Plug-In . SVG Version: 6.00 Build 0)  -->
<svg version="1.1" id="Camada_1" xmlns="http://www.w3.org/2000/svg" xmlns:xlink="http://www.w3.org/1999/xlink" x="0px" y="0px"
	 viewBox="0 0 200 83" style="enable-background:new 0 0 200 83;" xml:space="preserve">
<style type="text/css">
	.st0{fill-rule:evenodd;clip-rule:evenodd;fill:#985647;}
</style>
<path class="st0" d="M59.8,39.2l-2.6,1.4l-1-1.4l0.6-0.6c3.8-3.3,4.4-11.6-0.3-20c-4.8-8.5-12-11.7-17.9-8.8
	c-0.5,0.3-2.4,1.1-3.4,2.8l-3.6,5.9l20.2,36.9l1.7,3.2l-9.2,20.8H39L4.7,18L0,11.3V9.2h36l9.5-5.3c11.7-6.5,24.9-5,30.4,4.9
	C81.3,18.5,74.9,30.8,59.8,39.2L59.8,39.2z M89.8,39l-6.4,17.7h-3.8L73.3,39h4.4l3.8,12.5L85.3,39C85.3,39,89.8,39,89.8,39z
	 M98.6,44.5h3.9v12.2h-3.9V55c-0.2,0.3-0.4,0.6-0.6,0.8c-0.3,0.2-0.6,0.5-0.9,0.6c-0.3,0.2-0.7,0.3-1.1,0.4
	c-0.4,0.1-0.8,0.2-1.2,0.2c-0.8,0-1.7-0.2-2.4-0.5c-0.7-0.3-1.4-0.8-1.9-1.3c-0.5-0.6-0.9-1.3-1.2-2c-0.3-0.8-0.4-1.7-0.4-2.5
	c0-0.9,0.1-1.7,0.4-2.5c0.3-0.7,0.7-1.4,1.2-2c0.5-0.6,1.2-1,1.9-1.3c0.8-0.3,1.6-0.5,2.4-0.5c0.4,0,0.8,0.1,1.2,0.2
	c0.4,0.1,0.7,0.3,1.1,0.4c0.3,0.2,0.6,0.4,0.9,0.7c0.3,0.3,0.5,0.5,0.6,0.8L98.6,44.5L98.6,44.5z M98.4,51.8
	c0.1-0.4,0.2-0.8,0.2-1.2c0-0.8-0.3-1.6-0.8-2.2c-0.5-0.6-1.3-0.9-2.1-0.9c-0.8,0-1.6,0.3-2.1,0.9c-0.3,0.3-0.5,0.6-0.6,1
	c-0.1,0.4-0.2,0.8-0.2,1.2c0,0.4,0.1,0.8,0.2,1.2c0.3,0.7,0.8,1.3,1.5,1.7c0.4,0.2,0.8,0.3,1.2,0.3c0.4,0,0.8-0.1,1.2-0.3
	c0.4-0.2,0.7-0.4,0.9-0.7C98.1,52.5,98.3,52.2,98.4,51.8L98.4,51.8z M105.8,56.7V44.5h3.9v1.8c0.3-0.7,0.9-1.2,1.5-1.5
	c0.7-0.4,1.5-0.5,2.5-0.5c0.8,0,1.5,0.1,2.1,0.4c0.6,0.2,1,0.6,1.4,1c0.4,0.5,0.6,1,0.8,1.6s0.2,1.4,0.2,2.2v7.2h-3.9v-6.2
	c0-0.9-0.2-1.6-0.5-2.1c-0.3-0.5-0.9-0.8-1.7-0.8c-0.8,0-1.4,0.3-1.8,0.8c-0.4,0.6-0.6,1.3-0.6,2.2v6.1
	C109.7,56.7,105.8,56.7,105.8,56.7z M130.1,44.5h3.9v12.1c0,1.1-0.2,2-0.5,2.8c-0.3,0.7-0.8,1.4-1.4,1.8c-0.6,0.4-1.3,0.8-2.1,1
	c-0.8,0.2-1.8,0.3-2.9,0.3c-1.2,0-2.1-0.1-2.9-0.4c-0.8-0.3-1.4-0.6-1.9-1c-0.5-0.4-1-1-1.3-1.6c-0.3-0.6-0.5-1.2-0.5-1.9h3.9
	c0.1,0.5,0.3,1,0.7,1.4c0.4,0.4,1.1,0.6,1.9,0.6c0.9,0,1.6-0.2,2.2-0.7c0.5-0.4,0.8-1.1,0.8-2.1v-2c-0.3,0.6-0.8,1-1.5,1.4
	c-0.7,0.4-1.4,0.5-2.2,0.5c-0.9,0-1.7-0.2-2.4-0.5c-0.7-0.3-1.4-0.7-1.9-1.3c-0.5-0.6-0.9-1.2-1.2-1.9c-0.3-0.7-0.4-1.6-0.4-2.5
	c0-0.9,0.1-1.8,0.4-2.5c0.3-0.7,0.7-1.4,1.2-2c0.5-0.6,1.2-1,1.9-1.3c0.7-0.3,1.5-0.5,2.4-0.5c0.8,0,1.5,0.2,2.2,0.5
	c0.7,0.4,1.2,0.9,1.6,1.5V44.5z M129.9,51.8c0.1-0.4,0.2-0.8,0.2-1.2c0-0.8-0.3-1.6-0.8-2.2c-0.3-0.3-0.6-0.5-0.9-0.7
	c-0.4-0.2-0.8-0.3-1.2-0.3c-0.8,0-1.6,0.3-2.1,0.9c-0.3,0.3-0.5,0.6-0.6,1c-0.1,0.4-0.2,0.8-0.2,1.2c0,0.4,0.1,0.8,0.2,1.2
	c0.1,0.4,0.3,0.7,0.6,1c0.3,0.3,0.6,0.5,0.9,0.7c0.4,0.2,0.8,0.3,1.2,0.3c0.8,0,1.6-0.3,2.1-0.9C129.6,52.5,129.8,52.2,129.9,51.8
	L129.9,51.8z M145.4,44.5h3.9v12.2h-3.9v-1.7c-0.3,0.6-0.8,1.1-1.5,1.5c-0.7,0.4-1.5,0.5-2.5,0.5c-0.8,0-1.5-0.1-2.1-0.4
	c-0.6-0.2-1-0.6-1.4-1c-0.4-0.5-0.6-1-0.8-1.6c-0.1-0.6-0.2-1.4-0.2-2.2v-7.2h3.9v6.2c0,0.9,0.2,1.6,0.5,2.1s0.9,0.8,1.7,0.8
	s1.4-0.3,1.8-0.8c0.4-0.6,0.6-1.3,0.6-2.2V44.5L145.4,44.5z M161.5,44.5h3.9v12.2h-3.9V55c-0.2,0.3-0.4,0.6-0.6,0.8
	c-0.3,0.2-0.6,0.5-0.9,0.6c-0.3,0.2-0.7,0.3-1.1,0.4c-0.4,0.1-0.8,0.2-1.2,0.2c-0.8,0-1.7-0.2-2.4-0.5c-0.7-0.3-1.4-0.8-1.9-1.3
	c-0.5-0.6-0.9-1.3-1.2-2c-0.3-0.8-0.4-1.7-0.4-2.5c0-0.9,0.1-1.7,0.4-2.5c0.3-0.7,0.7-1.4,1.2-2c0.5-0.6,1.2-1,1.9-1.3
	c0.8-0.3,1.6-0.5,2.4-0.5c0.4,0,0.8,0.1,1.2,0.2c0.4,0.1,0.7,0.3,1.1,0.4c0.3,0.2,0.6,0.4,0.9,0.7c0.3,0.3,0.5,0.5,0.6,0.8
	L161.5,44.5L161.5,44.5z M161.3,51.8c0.1-0.4,0.2-0.8,0.2-1.2c0-0.8-0.3-1.6-0.8-2.2c-0.5-0.6-1.3-0.9-2.1-0.9
	c-0.8,0-1.6,0.3-2.1,0.9c-0.3,0.3-0.5,0.6-0.6,1c-0.1,0.4-0.2,0.8-0.2,1.2c0,0.4,0.1,0.8,0.2,1.2c0.3,0.7,0.8,1.3,1.5,1.7
	c0.4,0.2,0.8,0.3,1.2,0.3s0.8-0.1,1.2-0.3c0.4-0.2,0.7-0.4,0.9-0.7C161,52.5,161.2,52.2,161.3,51.8z M177.5,44.5V48
	c-0.2-0.1-0.5-0.1-0.7-0.1c-0.2,0-0.5,0-0.7,0c-1.1,0-1.9,0.3-2.6,0.9c-0.6,0.6-1,1.7-1,3.2v4.7h-3.9V44.5h3.9v2
	c0.3-0.6,0.8-1.1,1.4-1.5c0.7-0.4,1.4-0.7,2.3-0.7C176.7,44.3,177.1,44.4,177.5,44.5L177.5,44.5z M187.8,39h3.9v17.7h-3.9V55
	c-0.2,0.3-0.4,0.6-0.6,0.8c-0.3,0.2-0.6,0.5-0.9,0.6c-0.3,0.2-0.7,0.3-1.1,0.4c-0.4,0.1-0.8,0.2-1.2,0.2c-0.8,0-1.7-0.2-2.4-0.5
	c-0.7-0.3-1.4-0.8-1.9-1.3c-0.5-0.6-0.9-1.3-1.2-2c-0.3-0.8-0.4-1.7-0.4-2.5c0-0.9,0.1-1.7,0.4-2.5c0.3-0.7,0.7-1.4,1.2-2
	c0.5-0.6,1.2-1,1.9-1.3c0.8-0.3,1.6-0.5,2.4-0.5c0.4,0,0.8,0.1,1.2,0.2c0.4,0.1,0.7,0.3,1.1,0.4c0.3,0.2,0.6,0.4,0.9,0.7
	c0.3,0.3,0.5,0.5,0.6,0.8L187.8,39L187.8,39z M187.6,51.8c0.1-0.4,0.2-0.8,0.2-1.2c0-0.8-0.3-1.6-0.8-2.2c-0.5-0.6-1.3-0.9-2.1-0.9
	c-0.8,0-1.6,0.3-2.1,0.9c-0.3,0.3-0.5,0.6-0.6,1c-0.1,0.4-0.2,0.8-0.2,1.2c0,0.4,0.1,0.8,0.2,1.2c0.3,0.7,0.8,1.3,1.5,1.7
	c0.4,0.2,0.8,0.3,1.2,0.3s0.8-0.1,1.2-0.3C186.8,53.1,187.4,52.5,187.6,51.8z M114.2,70.7c0.3,0.8,0.5,1.6,0.5,2.5
	c0,0.8-0.2,1.7-0.5,2.5c-0.3,0.8-0.8,1.5-1.3,2c-0.6,0.6-1.3,1.1-2.1,1.4c-0.8,0.3-1.8,0.5-2.8,0.5c-1,0-2-0.2-2.8-0.5
	c-0.8-0.3-1.5-0.8-2.1-1.4c-0.6-0.6-1-1.3-1.3-2c-0.3-0.8-0.5-1.6-0.5-2.5c0-0.9,0.2-1.7,0.5-2.5c0.3-0.8,0.8-1.4,1.3-2
	c0.6-0.6,1.3-1,2.1-1.4c0.8-0.3,1.8-0.5,2.8-0.5c1.1,0,2,0.2,2.8,0.5c0.8,0.3,1.5,0.8,2.1,1.4C113.4,69.3,113.9,70,114.2,70.7z
	 M110.6,74.4c0.1-0.4,0.2-0.8,0.2-1.2c0-0.4-0.1-0.8-0.2-1.2c-0.1-0.4-0.3-0.7-0.6-1c-0.5-0.6-1.3-0.9-2.1-0.9
	c-0.4,0-0.8,0.1-1.2,0.3c-0.3,0.2-0.7,0.4-0.9,0.7c-0.3,0.3-0.5,0.6-0.6,1c-0.1,0.4-0.2,0.8-0.2,1.2c0,0.4,0.1,0.8,0.2,1.2
	c0.1,0.4,0.3,0.7,0.6,1c0.3,0.3,0.6,0.5,0.9,0.7c0.4,0.2,0.8,0.2,1.2,0.2c0.4,0,0.8-0.1,1.2-0.2c0.4-0.2,0.7-0.4,0.9-0.7
	C110.2,75.1,110.4,74.8,110.6,74.4z M186.6,70.2c0.3,0.7,0.4,1.4,0.4,2.1c0,0.3,0,0.5,0,0.8c0,0.3-0.1,0.7-0.1,1h-8.8
	c0,0.4,0.1,0.7,0.2,1c0.1,0.3,0.2,0.6,0.5,0.9c0.2,0.2,0.5,0.4,0.8,0.6c0.3,0.1,0.8,0.2,1.3,0.2c0.7,0,1.2-0.1,1.5-0.4
	c0.3-0.3,0.6-0.6,0.7-1h3.8c-0.1,0.6-0.3,1.1-0.6,1.6c-0.3,0.5-0.7,1-1.2,1.3c-0.6,0.4-1.2,0.7-1.8,0.9c-0.7,0.2-1.5,0.3-2.4,0.3
	c-1.1,0-2-0.2-2.8-0.5c-0.8-0.3-1.5-0.8-2.1-1.3c-0.6-0.6-1-1.3-1.3-2c-0.3-0.8-0.4-1.6-0.4-2.6c0-0.9,0.1-1.7,0.4-2.5
	c0.3-0.8,0.7-1.4,1.2-2c0.5-0.6,1.2-1,2-1.4c0.8-0.3,1.7-0.5,2.8-0.5c1,0,1.8,0.2,2.6,0.5c0.8,0.3,1.4,0.7,2,1.2
	C185.9,69,186.3,69.6,186.6,70.2L186.6,70.2z M178.1,71.9h5.1c0-0.8-0.2-1.4-0.7-1.9c-0.5-0.5-1.1-0.7-1.8-0.7
	c-0.8,0-1.4,0.2-1.9,0.7C178.4,70.5,178.1,71.1,178.1,71.9L178.1,71.9z M97,67.6c0.7-0.4,1.4-0.7,2.3-0.7c0.5,0,0.8,0.1,1.2,0.2v3.5
	c-0.2-0.1-0.5-0.1-0.7-0.1c-0.2,0-0.5,0-0.7,0c-1.1,0-1.9,0.3-2.6,0.9c-0.6,0.6-1,1.7-1,3.2v4.7h-3.9V67.1h3.9v2
	C95.9,68.5,96.3,68,97,67.6L97,67.6z M89.1,65.6c0.3,0.8,0.5,1.6,0.5,2.4c0,0.9-0.2,1.7-0.5,2.4c-0.3,0.8-0.7,1.4-1.3,2
	c-0.6,0.6-1.3,1.1-2,1.4c-0.8,0.3-1.7,0.5-2.7,0.5h-3.3v4.9h-4.1V61.6h7.4c1,0,1.9,0.2,2.7,0.5c0.8,0.3,1.5,0.8,2,1.4
	C88.4,64.1,88.8,64.8,89.1,65.6L89.1,65.6z M85.2,69.2c0.1-0.4,0.2-0.8,0.2-1.2c0-0.4-0.1-0.8-0.2-1.2c-0.1-0.4-0.3-0.7-0.6-1
	c-0.3-0.3-0.6-0.5-0.9-0.7C83.4,65,83,65,82.6,65h-2.8v6.1h2.8c0.4,0,0.8-0.1,1.2-0.3c0.4-0.2,0.7-0.4,0.9-0.7
	C84.9,69.9,85.1,69.5,85.2,69.2L85.2,69.2z M199.7,74.2c0.2,0.4,0.3,0.9,0.3,1.5c0,0.7-0.1,1.3-0.4,1.8c-0.3,0.5-0.7,0.9-1.2,1.2
	c-0.5,0.3-1.1,0.6-1.8,0.7c-0.7,0.1-1.4,0.2-2.1,0.2c-1.7,0-3.1-0.4-4.1-1.1c-1-0.8-1.5-1.8-1.5-3.3h3.8c0,0.6,0.2,1.1,0.5,1.4
	c0.4,0.3,0.8,0.4,1.4,0.4c0.5,0,0.9-0.1,1.2-0.3c0.3-0.2,0.4-0.5,0.4-0.9c0-0.2-0.1-0.4-0.2-0.6c-0.1-0.1-0.3-0.3-0.6-0.4
	c-0.3-0.2-0.7-0.3-1-0.4c-0.4-0.1-0.9-0.3-1.5-0.5c-0.5-0.1-1-0.3-1.4-0.5c-0.4-0.2-0.8-0.4-1.2-0.6c-0.3-0.3-0.6-0.6-0.8-1
	c-0.2-0.4-0.3-0.9-0.3-1.5c0-1.3,0.5-2.2,1.5-2.8c1-0.6,2.3-0.9,3.9-0.9c0.9,0,1.6,0.1,2.3,0.3c0.7,0.2,1.2,0.5,1.6,0.9
	c0.4,0.4,0.8,0.8,1,1.3s0.3,1,0.3,1.6H196c0-0.5-0.1-0.9-0.4-1.2c-0.3-0.3-0.7-0.4-1.2-0.4c-0.4,0-0.7,0.1-1,0.3
	c-0.3,0.2-0.4,0.4-0.4,0.8c0,0.2,0.1,0.4,0.2,0.5c0.1,0.1,0.3,0.3,0.6,0.4c0.3,0.1,0.6,0.2,1,0.4c0.4,0.1,0.8,0.3,1.3,0.4
	c0.5,0.2,1,0.3,1.5,0.5c0.5,0.2,0.9,0.4,1.2,0.7C199.2,73.5,199.5,73.9,199.7,74.2L199.7,74.2z M152.5,67.6c0.7-0.4,1.4-0.7,2.3-0.7
	c0.5,0,0.8,0.1,1.2,0.2v3.5c-0.2-0.1-0.5-0.1-0.7-0.1c-0.2,0-0.5,0-0.7,0c-1.1,0-1.9,0.3-2.6,0.9c-0.6,0.6-1,1.7-1,3.2v4.7h-3.9
	V67.1h3.9v2C151.4,68.5,151.8,68,152.5,67.6L152.5,67.6z M130,70.7c0.3,0.8,0.4,1.6,0.4,2.5c0,0.9-0.1,1.7-0.4,2.5
	c-0.3,0.7-0.7,1.4-1.2,2c-0.5,0.6-1.2,1-1.9,1.3c-0.8,0.3-1.6,0.5-2.4,0.5c-0.4,0-0.8-0.1-1.2-0.2c-0.4-0.1-0.7-0.3-1.1-0.4
	c-0.3-0.2-0.6-0.4-0.9-0.6c-0.2-0.2-0.4-0.5-0.6-0.8V83h-3.9V67.1h3.9v1.7c0.2-0.3,0.4-0.5,0.6-0.8c0.3-0.3,0.6-0.5,0.9-0.7
	c0.3-0.2,0.7-0.3,1.1-0.4c0.4-0.1,0.8-0.2,1.2-0.2c0.9,0,1.7,0.2,2.4,0.5c0.7,0.3,1.4,0.8,1.9,1.3C129.3,69.2,129.7,69.9,130,70.7
	L130,70.7z M126.3,74.4c0.1-0.4,0.2-0.8,0.2-1.2s-0.1-0.8-0.2-1.2c-0.3-0.7-0.8-1.3-1.5-1.7c-0.4-0.2-0.8-0.3-1.2-0.3
	c-0.8,0-1.6,0.3-2.1,0.9c-0.3,0.3-0.5,0.6-0.6,1c-0.1,0.4-0.2,0.8-0.2,1.2c0,0.4,0.1,0.8,0.2,1.2c0.1,0.4,0.3,0.7,0.6,1
	c0.5,0.6,1.3,0.9,2.1,0.9c0.4,0,0.8-0.1,1.2-0.3c0.4-0.2,0.7-0.4,0.9-0.7C126,75.1,126.2,74.8,126.3,74.4z M167.9,79.3V67.1h3.9
	v12.2L167.9,79.3L167.9,79.3z M164.4,76.4h0.7c0.3,0,0.5,0,0.7-0.1v2.9c-0.9,0.1-1.7,0.2-2.6,0.2c-0.5,0-0.9,0-1.4-0.1
	c-0.5-0.1-1-0.2-1.4-0.5c-0.4-0.3-0.8-0.7-1.1-1.3c-0.3-0.6-0.4-1.4-0.4-2.4V70H157v-2.9h1.9v-3.6h3.9v3.6h2.8V70h-2.8v4.3
	c0,0.5,0,0.8,0.1,1.1c0.1,0.3,0.2,0.5,0.4,0.6c0.2,0.1,0.3,0.2,0.5,0.3C164,76.4,164.2,76.4,164.4,76.4L164.4,76.4z M144.5,70.2
	c0.3,0.7,0.4,1.4,0.4,2.1c0,0.3,0,0.5,0,0.8c0,0.3-0.1,0.7-0.1,1h-8.8c0,0.4,0.1,0.7,0.2,1c0.1,0.3,0.2,0.6,0.5,0.9
	c0.2,0.2,0.5,0.4,0.8,0.6c0.3,0.1,0.8,0.2,1.3,0.2c0.7,0,1.2-0.1,1.5-0.4c0.3-0.3,0.6-0.6,0.7-1h3.8c-0.1,0.6-0.3,1.1-0.6,1.6
	c-0.3,0.5-0.7,1-1.2,1.3c-0.6,0.4-1.2,0.7-1.8,0.9c-0.7,0.2-1.5,0.3-2.4,0.3c-1.1,0-2-0.2-2.8-0.5c-0.8-0.3-1.5-0.7-2.1-1.3
	c-0.6-0.6-1-1.3-1.3-2c-0.3-0.8-0.4-1.6-0.4-2.6c0-0.9,0.1-1.7,0.4-2.5c0.3-0.8,0.7-1.4,1.2-2c0.5-0.6,1.2-1,2-1.4
	c0.8-0.3,1.7-0.5,2.8-0.5c1,0,1.8,0.2,2.6,0.5c0.7,0.3,1.4,0.7,2,1.2C143.8,69,144.2,69.6,144.5,70.2L144.5,70.2z M136.1,71.9h5.1
	c0-0.8-0.2-1.4-0.7-1.9c-0.5-0.5-1.1-0.7-1.8-0.7c-0.8,0-1.4,0.2-1.9,0.7C136.3,70.5,136.1,71.1,136.1,71.9L136.1,71.9z M171.6,61.4
	c0.2,0.2,0.4,0.5,0.5,0.8c0.1,0.3,0.2,0.6,0.2,1c0,0.3-0.1,0.7-0.2,0.9c-0.3,0.6-0.7,1.1-1.3,1.3c-0.3,0.1-0.6,0.2-1,0.2
	c-0.4,0-0.7-0.1-1-0.2c-0.3-0.1-0.6-0.3-0.8-0.5c-0.2-0.2-0.4-0.5-0.5-0.8c-0.1-0.3-0.2-0.6-0.2-0.9c0-0.7,0.2-1.3,0.7-1.7
	c0.5-0.5,1.1-0.7,1.8-0.7C170.5,60.6,171.1,60.9,171.6,61.4z"/>
</svg>
