<svg width="1090" height="212" viewBox="0 0 1090 212" fill="none" xmlns="http://www.w3.org/2000/svg">
<path d="M0.5 154L486.5 1.5L656.5 62.5256M554.5 125.954L662.5 176.5L1060.5 34.5L1037.14 170.5M554.5 125.954L342 26.5L51 76.5L180 147L394 76.5C445.833 89.4693 550.5 117.517 554.5 125.954ZM656.5 62.5256L1032.5 197.5L1037.14 170.5M656.5 62.5256C671.7 56.1051 805.5 24.8333 870.5 10L1037.14 170.5M823.5 211.5L574.5 76.5L266 197.5L100.5 1.5L486.5 197.5L679 1.5L880 170.5L1009 1.5L1088.5 176.5L266 10L58 197.5L356 190.5L590 10L823.5 170.5L937.5 10" stroke="black"/>
</svg>
