<svg width="1110" height="125" viewBox="0 0 1110 125" fill="none" xmlns="http://www.w3.org/2000/svg">
<path d="M10.6568 21.5728C9.86854 19.2961 9.36639 17.2857 8.46896 14.3973C-5.7034 15.5082 -0.0739501 28.7665 10.6568 21.5728ZM23.675 9.73357C27.9304 9.88272 33.5126 10.6238 32.6385 16.5306C31.9083 19.2995 28.8348 21.3456 23.5318 22.3083C20.6161 22.837 16.5234 22.5301 14.07 21.9069C12.3411 21.3379 12.4474 21.5314 12.119 20.9197C11.5797 18.552 10.9826 16.2081 10.3738 13.8211C12.1045 11.3961 21.2936 9.4037 23.675 9.73357ZM69.3645 40.2595C71.8181 39.6364 75.9108 39.3287 78.8262 39.8567C84.1296 40.8177 87.2039 42.8636 87.9341 45.6329C88.8093 51.5395 83.2273 52.2815 78.9717 52.4314C76.5907 52.7617 67.4007 50.7707 65.67 48.3457C66.2783 45.9588 66.8744 43.6151 67.4139 41.2465C67.7418 40.6355 67.6357 40.8291 69.3645 40.2595ZM63.7645 47.7706C49.5921 46.6625 55.2193 33.4032 65.9511 40.5949C65.1631 42.8718 64.6614 44.8821 63.7645 47.7706Z" fill="#95A5A6"/>
<path d="M133.074 14.3277C132.817 11.9321 132.779 9.86036 132.552 6.84417C118.492 4.74539 121.002 18.9291 133.074 14.3277ZM148.417 5.71289C152.531 6.81347 157.804 8.78869 155.626 14.3485C154.293 16.8829 150.839 18.1868 145.455 17.9346C142.495 17.7953 138.576 16.5775 136.325 15.4195C134.768 14.4769 134.828 14.6893 134.645 14.0195C134.651 11.5912 134.595 9.17303 134.538 6.71034C136.769 4.73567 146.171 4.85687 148.417 5.71289ZM186.088 45.7159C188.619 45.6595 192.677 46.2784 195.399 47.4474C200.351 49.5743 202.888 52.2581 202.978 55.1206C202.505 61.073 196.899 60.543 192.718 59.7338C190.324 59.5212 181.815 55.518 180.673 52.7664C181.802 50.577 182.909 48.4269 183.966 46.2399C184.423 45.7181 184.276 45.8829 186.088 45.7159ZM178.945 51.7783C165.383 47.5172 173.843 35.8594 182.687 45.2766C181.408 47.3185 180.468 49.1648 178.945 51.7783Z" fill="#95A5A6"/>
<path d="M255.845 42.5222C256.005 40.1182 256.324 38.0708 256.621 35.0608C243.132 30.5714 243.161 44.9754 255.845 42.5222ZM272.443 36.6792C276.306 38.4719 281.16 41.326 278.057 46.4275C276.307 48.6944 272.68 49.3838 267.42 48.2079C264.528 47.5609 260.877 45.6861 258.86 44.1577C257.488 42.961 257.511 43.1806 257.446 42.4893C257.87 40.0983 258.232 37.7067 258.6 35.271C261.137 33.7101 270.378 35.449 272.443 36.6792ZM302.661 82.5734C305.163 82.9538 309.053 84.2623 311.534 85.8828C316.046 88.831 318.082 91.9116 317.678 94.7469C316.186 100.529 310.755 99.041 306.777 97.5238C304.455 96.9019 296.763 91.4929 296.112 88.5857C297.601 86.6234 299.061 84.6961 300.48 82.724C301.019 82.2886 300.846 82.4256 302.661 82.5734ZM294.58 87.3147C281.955 80.7811 292.296 70.7549 299.386 81.5547C297.774 83.3457 296.53 85.0025 294.58 87.3147Z" fill="#95A5A6"/>
<path d="M374.965 92.5527C373.875 90.4045 373.103 88.4812 371.821 85.7418C357.932 88.7716 365.314 101.14 374.965 92.5527ZM386.251 79.0516C390.487 78.6202 396.118 78.5945 396.056 84.5652C395.71 87.4078 392.943 89.8533 387.821 91.5288C385.004 92.4495 380.908 92.7025 378.392 92.4191C376.602 92.0907 376.734 92.268 376.325 91.7067C375.468 89.4345 374.558 87.1936 373.63 84.9117C375.014 82.2737 383.847 79.049 386.251 79.0516ZM435.67 103.074C438.016 102.123 442.029 101.261 444.989 101.387C450.374 101.617 453.698 103.226 454.799 105.87C456.47 111.602 451.041 113.097 446.845 113.825C444.531 114.476 435.156 113.755 433.111 111.588C433.389 109.14 433.66 106.737 433.872 104.317C434.114 103.667 434.035 103.874 435.67 103.074ZM431.145 111.278C416.954 112.109 420.723 98.207 432.334 103.871C431.864 106.234 431.64 108.294 431.145 111.278Z" fill="#95A5A6"/>
<path d="M487.068 65.3401C485.625 63.4109 484.535 61.6484 482.802 59.1695C469.639 64.5369 479.033 75.456 487.068 65.3401ZM495.87 50.1033C499.97 48.9515 505.513 47.9603 506.476 53.8532C506.622 56.713 504.316 59.5968 499.557 62.1262C496.94 63.5164 492.948 64.4684 490.421 64.6207C488.601 64.6043 488.761 64.7563 488.263 64.2734C487.029 62.1818 485.747 60.1304 484.442 58.0415C485.353 55.2051 493.501 50.5131 495.87 50.1033ZM548.678 65.2922C550.826 63.9526 554.631 62.4151 557.569 62.0317C562.914 61.3347 566.465 62.349 568.002 64.7652C570.632 70.1261 565.54 72.5301 561.531 73.9668C559.363 75.0054 550.003 75.9028 547.617 74.1189C547.471 71.66 547.326 69.246 547.12 66.8256C547.247 66.1438 547.204 66.3605 548.678 65.2922ZM545.627 74.1504C531.789 77.4039 533.118 63.0613 545.528 66.6496C545.47 69.0582 545.603 71.1259 545.627 74.1504Z" fill="#95A5A6"/>
<path d="M593.864 18.4513C593.295 16.1101 592.986 14.0611 592.367 11.1006C578.153 10.8619 582.499 24.5945 593.864 18.4513ZM607.947 7.9006C612.169 8.45281 617.656 9.72015 616.225 15.5173C615.235 18.2045 611.982 19.9498 606.611 20.405C603.658 20.6547 599.613 19.9609 597.23 19.1077C595.563 18.3773 595.65 18.58 595.382 17.9399C595.069 15.5317 594.697 13.1417 594.318 10.7078C596.271 8.45784 605.607 7.34628 607.947 7.9006ZM650.534 42.6236C653.036 42.2361 657.139 42.3181 659.991 43.1203C665.179 44.5802 668.046 46.9085 668.51 49.7346C668.821 55.6976 663.194 55.9067 658.943 55.6521C656.541 55.755 647.582 52.9011 646.089 50.3228C646.921 48.0044 647.737 45.7278 648.498 43.4211C648.883 42.844 648.759 43.0266 650.534 42.6236ZM644.247 49.5695C630.243 47.1219 637.103 34.4562 647.104 42.6337C646.104 44.8255 645.414 46.7791 644.247 49.5695Z" fill="#95A5A6"/>
<path d="M706.129 23.325C706.552 20.9532 707.095 18.9535 707.722 15.9945C694.811 10.0459 693.252 24.3653 706.129 23.325ZM723.27 19.3469C726.911 21.5544 731.421 24.926 727.775 29.6545C725.786 31.7147 722.105 32.0002 717.007 30.2518C714.204 29.29 710.782 27.0242 708.945 25.2827C707.713 23.9421 707.712 24.163 707.724 23.4688C708.409 21.139 709.032 18.8019 709.666 16.4215C712.36 15.1498 721.352 17.8965 723.27 19.3469ZM748.245 68.2919C750.69 68.9458 754.413 70.6751 756.699 72.559C760.859 75.9866 762.543 79.2728 761.829 82.0462C759.709 87.6285 754.475 85.5513 750.688 83.6048C748.449 82.7308 741.4 76.507 741.073 73.5457C742.769 71.7595 744.434 70.005 746.061 68.2011C746.645 67.8279 746.458 67.945 748.245 68.2919ZM739.691 72.1137C727.863 64.2284 739.246 55.403 745.102 66.9184C743.303 68.5209 741.884 70.0305 739.691 72.1137Z" fill="#95A5A6"/>
<path d="M810.406 65.691C810.251 63.2866 810.302 61.2151 810.206 58.192C796.248 55.4924 798.148 69.7706 810.406 65.691ZM826.104 57.7419C830.167 59.0178 835.351 61.2173 832.936 66.6786C831.496 69.1535 827.989 70.3082 822.621 69.8253C819.67 69.5593 815.806 68.1745 813.607 66.9211C812.092 65.9126 812.143 66.1275 811.989 65.4504C812.099 63.0246 812.147 60.6063 812.195 58.1434C814.508 56.2662 823.896 56.7903 826.104 57.7419ZM862.026 99.3231C864.557 99.3752 868.584 100.167 871.254 101.452C876.11 103.789 878.53 106.579 878.497 109.443C877.769 115.37 872.191 114.6 868.049 113.612C865.665 113.297 857.336 108.933 856.313 106.135C857.535 103.996 858.733 101.895 859.883 99.7556C860.362 99.2538 860.208 99.4122 862.026 99.3231ZM854.629 105.074C841.263 100.235 850.215 88.9506 858.646 98.7383C857.281 100.723 856.262 102.528 854.629 105.074Z" fill="#95A5A6"/>
<path d="M922.661 75.4226C921.758 73.1891 921.153 71.2071 920.11 68.3682C906.012 70.202 912.312 83.1553 922.661 75.4226ZM935.057 62.9335C939.315 62.865 944.928 63.3199 944.356 69.2636C943.769 72.0662 940.804 74.2667 935.557 75.4992C932.672 76.1762 928.569 76.0788 926.087 75.5818C924.331 75.1019 924.447 75.2898 924.088 74.6956C923.428 72.3586 922.712 70.0482 921.982 67.6955C923.587 65.1852 932.662 62.7258 935.057 62.9335ZM982.247 91.0846C984.666 90.3369 988.737 89.8205 991.676 90.1988C997.022 90.8876 1000.2 92.7736 1001.07 95.502C1002.24 101.356 996.706 102.382 992.464 102.75C990.103 103.201 980.823 101.682 978.971 99.349C979.456 96.9342 979.932 94.563 980.35 92.17C980.646 91.543 980.55 91.7418 982.247 91.0846ZM977.038 98.8721C962.828 98.4898 967.77 84.9602 978.855 91.5941C978.185 93.9082 977.786 95.9415 977.038 98.8721Z" fill="#95A5A6"/>
<path d="M1026.43 47.9835C1025.01 46.0369 1023.95 44.2614 1022.24 41.7618C1009.02 46.97 1018.28 58.0016 1026.43 47.9835ZM1035.42 32.8539C1039.53 31.7517 1045.09 30.8274 1045.98 36.7315C1046.09 39.593 1043.75 42.4487 1038.96 44.9205C1036.33 46.279 1032.32 47.1827 1029.8 47.3045C1027.98 47.2661 1028.13 47.4201 1027.64 46.9312C1026.43 44.8249 1025.18 42.7581 1023.9 40.6537C1024.84 37.8284 1033.05 33.2351 1035.42 32.8539ZM1088.04 48.6791C1090.2 47.3655 1094.03 45.874 1096.97 45.5261C1102.32 44.8937 1105.86 45.9507 1107.37 48.3853C1109.93 53.7775 1104.81 56.12 1100.79 57.5082C1098.61 58.5205 1089.24 59.3049 1086.87 57.4923C1086.76 55.0318 1086.64 52.6162 1086.46 50.1935C1086.6 49.5133 1086.55 49.7294 1088.04 48.6791ZM1084.88 57.4998C1071.01 60.586 1072.51 46.2606 1084.87 49.9983C1084.79 52.4061 1084.9 54.4752 1084.88 57.4998Z" fill="#95A5A6"/>
</svg>
