<svg width="37" height="82" viewBox="0 0 37 82" fill="none" xmlns="http://www.w3.org/2000/svg">
<path d="M37 57.71V66.2897L27.884 71.652V63.0723L37 57.71Z" fill="#FFA600"/>
<path d="M27.884 63.0723V71.652L18.2319 66.2897V57.71L27.884 63.0723Z" fill="#FF8F00"/>
<path d="M37 57.71L27.884 63.0723L18.2319 57.71L27.3478 52.3477L37 57.71Z" fill="#FFD000"/>
<path d="M30.5652 57.7098C28.9565 58.7822 25.7391 58.7822 24.1304 57.7098C23.058 57.1735 23.058 56.6373 23.058 56.1011V57.7098C23.058 58.246 23.5942 59.3185 24.1304 59.3185C25.7391 60.3909 28.9565 60.3909 30.5652 59.3185C31.1015 58.7822 31.6377 58.246 31.6377 57.7098V56.1011C32.1739 56.6373 31.6377 57.1735 30.5652 57.7098Z" fill="#FF8F00"/>
<path d="M30.5652 53.9564C32.1739 55.0289 32.1739 56.6376 30.5652 57.7101C28.9565 58.7825 25.7391 58.7825 24.1304 57.7101C22.5217 56.6376 22.5217 55.0289 24.1304 53.9564C26.2753 52.884 28.9565 52.884 30.5652 53.9564Z" fill="#FFE800"/>
<path d="M27.8841 62.5363V71.6522L18.7681 76.4783V67.8986L27.8841 62.5363Z" fill="#FFA600"/>
<path d="M18.7681 67.8986V76.4783L9.11591 71.6522V62.5363L18.7681 67.8986Z" fill="#FF8F00"/>
<path d="M27.884 62.5361L18.7681 67.8984L9.11591 62.5361L18.2319 57.71L27.884 62.5361Z" fill="#FFD000"/>
<path d="M21.9855 63.0721C20.3768 64.1445 17.1594 64.1445 15.5507 63.0721C14.4782 62.5358 14.4782 61.9996 14.4782 61.4634V63.0721C14.4782 63.6083 15.0144 64.6808 15.5507 64.6808C17.1594 65.7532 20.3768 65.7532 21.9855 64.6808C22.5217 64.1445 23.0579 63.6083 23.0579 63.0721V61.4634C23.0579 61.9996 22.5217 62.5358 21.9855 63.0721Z" fill="#FF8F00"/>
<path d="M21.4492 59.3189C23.0579 60.3913 23.0579 62 21.4492 63.0725C19.8405 64.145 16.6231 64.145 15.0144 63.0725C13.4057 62 13.4057 60.3913 15.0144 59.3189C17.1594 58.2464 19.8405 58.2464 21.4492 59.3189Z" fill="#FFE800"/>
<path d="M18.7681 67.8984V76.4781L9.65216 81.8405V73.2608L18.7681 67.8984Z" fill="#FFA600"/>
<path d="M9.65217 73.2608V81.8405L0 76.4781V67.8984L9.65217 73.2608Z" fill="#FF8F00"/>
<path d="M18.7681 67.8985L9.65217 73.2608L0 67.8985L9.11594 62.5361L18.7681 67.8985Z" fill="#FFD000"/>
<path d="M12.8695 68.4349C11.2609 69.5073 8.04346 69.5073 6.43477 68.4349C5.3623 67.8986 5.3623 67.3624 5.3623 66.8262V68.4349C5.3623 68.9711 5.89854 70.0436 6.43477 70.0436C8.04346 71.116 11.2609 71.116 12.8695 70.0436C13.4058 69.5073 13.942 68.9711 13.942 68.4349V66.8262C13.942 67.3624 13.4058 67.8986 12.8695 68.4349Z" fill="#FF8F00"/>
<path d="M12.3333 64.6811C13.942 65.7535 13.942 67.3622 12.3333 68.4347C10.7246 69.5071 7.50723 69.5071 5.89854 68.4347C4.28984 67.3622 4.28984 65.7535 5.89854 64.6811C8.04347 63.6086 10.7246 63.6086 12.3333 64.6811Z" fill="#FFE800"/>
<path d="M18.7681 59.3188V67.8986L9.65216 73.2609V64.6812L18.7681 59.3188Z" fill="#FFA600"/>
<path d="M9.65217 64.6812V73.2609L0 67.8986L0.536229 59.3188L9.65217 64.6812Z" fill="#FF8F00"/>
<path d="M18.7681 59.3189L9.65214 64.6812L0.536194 59.3189L9.65214 53.9565L18.7681 59.3189Z" fill="#FFD000"/>
<path d="M12.8695 59.8553C11.2609 60.9277 8.04346 60.9277 6.43477 59.8553C5.3623 59.319 5.3623 58.7828 5.3623 58.2466V59.8553C5.3623 60.3915 5.89854 61.464 6.43477 61.464C8.04346 62.5364 11.2609 62.5364 12.8695 61.464C13.4058 60.9277 13.942 60.3915 13.942 59.8553V58.2466C13.942 58.2466 13.4058 59.319 12.8695 59.8553Z" fill="#FF8F00"/>
<path d="M12.8696 56.1015C14.4783 57.1739 14.4783 58.7826 12.8696 59.8551C11.2609 60.9276 8.04349 60.9276 6.43479 59.8551C4.8261 58.7826 4.8261 57.1739 6.43479 56.1015C8.04349 55.029 10.7246 55.029 12.8696 56.1015Z" fill="#FFE800"/>
<path d="M18.7681 50.7393V59.319L9.65216 64.6813V56.1016L18.7681 50.7393Z" fill="#FFA600"/>
<path d="M9.65214 56.1016V64.6813L0.536194 59.319V50.7393L9.65214 56.1016Z" fill="#FF8F00"/>
<path d="M18.7681 50.7393L9.65214 56.1016L0.536194 50.7393L9.65214 45.377L18.7681 50.7393Z" fill="#FFD000"/>
<path d="M12.8695 50.7389C11.2609 51.8114 8.04346 51.8114 6.43477 50.7389C5.3623 50.2027 5.3623 49.6665 5.3623 49.1302V50.7389C5.3623 51.2752 5.89854 52.3476 6.43477 52.3476C8.04346 53.4201 11.2609 53.4201 12.8695 52.3476C13.4058 51.8114 13.942 51.2752 13.942 50.7389V49.1302C13.942 49.6665 13.4058 50.7389 12.8695 50.7389Z" fill="#FF8F00"/>
<path d="M12.8695 47.5219C14.4782 48.5943 14.4782 50.203 12.8695 51.2755C11.2608 52.348 8.04343 52.348 6.43473 51.2755C4.82604 50.203 4.82604 48.5943 6.43473 47.5219C8.04343 46.4494 10.7246 46.4494 12.8695 47.5219Z" fill="#FFE800"/>
<path d="M37 31.4351V40.0148L27.884 45.3771V36.7974L37 31.4351Z" fill="#FFA600"/>
<path d="M27.8841 36.7974V45.3771L18.7681 40.0148V31.4351L27.8841 36.7974Z" fill="#FF8F00"/>
<path d="M37 31.4351L27.8841 36.7974L18.7681 31.4351L27.8841 26.0728L37 31.4351Z" fill="#FFD000"/>
<path d="M31.1015 31.9715C29.4928 33.044 26.2754 33.044 24.6667 31.9715C23.5942 31.4353 23.5942 30.899 23.5942 30.3628V31.9715C23.5942 32.5077 24.1305 33.5802 24.6667 33.5802C26.2754 34.6526 29.4928 34.6526 31.1015 33.5802C31.6377 33.044 32.1739 32.5077 32.1739 31.9715V30.3628C32.1739 30.3628 31.6377 31.4353 31.1015 31.9715Z" fill="#FF8F00"/>
<path d="M31.1015 28.2177C32.7101 29.2901 32.7101 30.8988 31.1015 31.9713C29.4928 33.0438 26.2754 33.0438 24.6667 31.9713C23.058 30.8988 23.058 29.2901 24.6667 28.2177C26.2754 27.1452 28.9565 27.1452 31.1015 28.2177Z" fill="#FFE800"/>
<path d="M27.884 36.7974V45.3771L18.7681 50.7394V42.1597L27.884 36.7974Z" fill="#FFA600"/>
<path d="M18.7681 42.1597V50.7394L9.65216 45.3771V36.7974L18.7681 42.1597Z" fill="#FF8F00"/>
<path d="M27.884 36.7974L18.7681 42.1597L9.65216 36.7974L18.7681 31.4351L27.884 36.7974Z" fill="#FFD000"/>
<path d="M21.9855 36.7971C19.8406 37.8695 17.1594 37.8695 15.5507 36.7971C14.4783 36.2608 14.4783 35.7246 14.4783 35.1884V36.7971C14.4783 37.3333 15.0145 38.4057 15.5507 38.4057C17.1594 39.4782 20.3768 39.4782 21.9855 38.4057C22.5217 38.4057 23.058 37.8695 23.058 37.3333V35.7246C23.058 35.7246 22.5217 36.7971 21.9855 36.7971Z" fill="#FF8F00"/>
<path d="M21.9855 33.5802C23.5942 34.6527 23.5942 36.2614 21.9855 37.3339C19.8406 37.8701 17.1594 37.8701 15.5507 36.7976C13.942 35.7252 13.942 34.1165 15.5507 33.044C17.1594 32.5078 19.8406 32.5078 21.9855 33.5802Z" fill="#FFE800"/>
<path d="M18.7681 42.1597V50.7394L9.65216 56.1017V47.522L18.7681 42.1597Z" fill="#FFA600"/>
<path d="M9.65214 47.522V56.1017L0.536194 50.7394V42.1597L9.65214 47.522Z" fill="#FF8F00"/>
<path d="M18.7681 42.1597L9.65214 47.522L0.536194 42.1597L9.65214 36.7974L18.7681 42.1597Z" fill="#FFD000"/>
<path d="M12.8695 42.1594C10.7246 43.2318 8.04346 43.2318 6.43477 42.1594C5.3623 41.6231 5.3623 41.0869 5.3623 40.5507V42.1594C5.3623 42.6956 5.89854 43.7681 6.43477 43.7681C8.04346 44.8405 11.2609 44.8405 12.8695 43.7681C13.4058 43.2318 13.942 42.6956 13.942 42.1594V40.5507C13.942 41.0869 13.4058 41.6231 12.8695 42.1594Z" fill="#FF8F00"/>
<path d="M12.8695 38.406C14.4782 39.4784 14.4782 41.0871 12.8695 42.1596C10.7246 43.232 8.04343 43.232 6.43473 42.1596C4.82604 41.0871 4.82604 39.4784 6.43473 38.406C8.04343 37.8697 10.7246 37.8697 12.8695 38.406Z" fill="#FFE800"/>
<path d="M18.7681 33.5795V42.1592L9.65216 47.5215V38.9418L18.7681 33.5795Z" fill="#FFA600"/>
<path d="M9.65214 38.9418V47.5215L0.536194 42.1592V33.5795L9.65214 38.9418Z" fill="#FF8F00"/>
<path d="M18.7681 33.5795L9.65214 38.9418L0.536194 33.5795L9.65214 28.2172L18.7681 33.5795Z" fill="#FFD000"/>
<path d="M12.8695 33.5792C11.2609 34.6516 8.04346 34.6516 6.43477 33.5792C5.3623 33.0429 5.3623 32.5067 5.3623 31.9705V33.5792C5.3623 34.1154 5.89854 35.1878 6.43477 35.1878C8.04346 36.2603 11.2609 36.2603 12.8695 35.1878C13.4058 34.6516 13.942 34.1154 13.942 33.5792V31.9705C13.942 32.5067 13.4058 33.0429 12.8695 33.5792Z" fill="#FF8F00"/>
<path d="M12.8695 29.826C14.4782 30.8984 14.4782 32.5071 12.8695 33.5796C11.2608 34.652 8.04343 34.652 6.43473 33.5796C4.82604 32.5071 4.82604 30.8984 6.43473 29.826C8.04343 28.7535 10.7246 28.7535 12.8695 29.826Z" fill="#FFE800"/>
<path d="M18.7681 24.9999V33.5796L9.65216 38.9419V30.3622L18.7681 24.9999Z" fill="#FFA600"/>
<path d="M9.65214 30.3622V38.9419L0.536194 33.5796V24.9999L9.65214 30.3622Z" fill="#FF8F00"/>
<path d="M18.7681 24.9999L9.65214 30.3622L0.536194 24.9999L9.65214 19.6376L18.7681 24.9999Z" fill="#FFD000"/>
<path d="M12.8695 24.9996C11.2609 26.072 8.04346 26.072 6.43477 24.9996C5.3623 24.4633 5.3623 23.9271 5.3623 23.3909V24.9996C5.3623 25.5358 5.89854 26.6083 6.43477 26.6083C8.04346 27.6807 11.2609 27.6807 12.8695 26.6083C13.4058 26.072 13.942 25.5358 13.942 24.9996V23.3909C13.942 23.9271 13.4058 24.4633 12.8695 24.9996Z" fill="#FF8F00"/>
<path d="M12.8695 21.2464C14.4782 22.3188 14.4782 23.9275 12.8695 25C11.2608 26.0724 8.04343 26.0724 6.43473 25C4.82604 23.9275 4.82604 22.3188 6.43473 21.2464C8.04343 20.1739 10.7246 20.1739 12.8695 21.2464Z" fill="#FFE800"/>
<path d="M37 5.69568V14.2754L27.884 19.6377V11.058L37 5.69568Z" fill="#FFA600"/>
<path d="M27.8841 11.058V19.6377L18.7681 14.2754V5.69568L27.8841 11.058Z" fill="#FF8F00"/>
<path d="M37 5.69569L27.8841 11.058L18.7681 5.69569L27.8841 0.333374L37 5.69569Z" fill="#FFD000"/>
<path d="M31.1015 5.69537C29.4928 6.76783 26.2754 6.76783 24.6667 5.69537C23.5942 5.15913 23.5942 4.6229 23.5942 4.08667V5.69537C23.5942 6.2316 24.1305 7.30406 24.6667 7.30406C26.2754 8.37652 29.4928 8.37652 31.1015 7.30406C31.6377 6.76783 32.1739 6.2316 32.1739 5.69537V4.08667C32.1739 4.6229 31.6377 5.15913 31.1015 5.69537Z" fill="#FF8F00"/>
<path d="M31.1015 1.94217C32.7101 3.01463 32.7101 4.62332 31.1015 5.69579C29.4928 6.76825 26.2754 6.76825 24.6667 5.69579C23.058 4.62332 23.058 3.01463 24.6667 1.94217C26.2754 0.869701 28.9565 0.869701 31.1015 1.94217Z" fill="#FFE800"/>
<path d="M27.884 11.058V19.6377L18.7681 25V16.4203L27.884 11.058Z" fill="#FFA600"/>
<path d="M18.7681 16.4203V25L9.65216 19.6377V11.058L18.7681 16.4203Z" fill="#FF8F00"/>
<path d="M27.884 11.058L18.7681 16.4203L9.65216 11.058L18.7681 5.69568L27.884 11.058Z" fill="#FFD000"/>
<path d="M21.9855 11.0577C20.3768 12.1301 17.1594 12.1301 15.5507 11.0577C14.4783 10.5214 14.4783 9.98521 14.4783 9.44897V11.0577C14.4783 11.5939 15.0145 12.6664 15.5507 12.6664C17.1594 13.7388 20.3768 13.7388 21.9855 12.6664C22.5217 12.6664 23.058 11.5939 23.058 11.0577V9.44897C23.058 9.98521 22.5217 10.5214 21.9855 11.0577Z" fill="#FF8F00"/>
<path d="M21.9855 7.30447C23.5942 8.37693 23.5942 9.98563 21.9855 11.0581C20.3768 12.1306 17.1594 12.1306 15.5507 11.0581C13.942 9.98563 13.942 8.37693 15.5507 7.30447C17.1594 6.23201 19.8406 6.23201 21.9855 7.30447Z" fill="#FFE800"/>
<path d="M18.7681 16.4203V25L9.65216 30.3623V21.2464L18.7681 16.4203Z" fill="#FFA600"/>
<path d="M9.65214 21.2464V30.3623L0.536194 25V16.4203L9.65214 21.2464Z" fill="#FF8F00"/>
<path d="M18.7681 16.4203L9.65214 21.2464L0.536194 16.4203L9.65214 11.058L18.7681 16.4203Z" fill="#FFD000"/>
<path d="M12.8695 16.42C11.2609 17.4924 8.04346 17.4924 6.43477 16.42C5.3623 15.8837 5.3623 15.3475 5.3623 14.8113V16.42C5.3623 16.9562 5.89854 18.0287 6.43477 18.0287C8.04346 19.1011 11.2609 19.1011 12.8695 18.0287C13.4058 17.4924 13.942 16.9562 13.942 16.42V14.8113C13.942 15.3475 13.4058 15.8837 12.8695 16.42Z" fill="#FF8F00"/>
<path d="M12.8695 12.6668C14.4782 13.7392 14.4782 15.3479 12.8695 16.4204C11.2608 17.4929 8.04343 17.4929 6.43473 16.4204C4.82604 15.3479 4.82604 13.7392 6.43473 12.6668C8.04343 11.5943 10.7246 11.5943 12.8695 12.6668Z" fill="#FFE800"/>
</svg>
