<svg width="37" height="82" viewBox="0 0 37 82" fill="none" xmlns="http://www.w3.org/2000/svg">
<path d="M36.4638 56.8984V66.0144L27.3478 70.8405V62.2608L36.4638 56.8984Z" fill="#9F28FF"/>
<path d="M27.3478 62.2608V70.8405L18.2319 66.0144V56.8984L27.3478 62.2608Z" fill="#8010FF"/>
<path d="M36.4638 56.8984L27.3478 62.2607L18.2319 56.8984L27.3478 52.0723L36.4638 56.8984Z" fill="#B136FF"/>
<path d="M30.5652 57.4344C28.9565 58.5069 25.7392 58.5069 24.1305 57.4344C23.058 56.8982 23.058 56.3619 23.058 55.8257V57.4344C23.058 57.9706 23.5942 59.0431 24.1305 59.0431C25.7392 60.1155 28.9565 60.1155 30.5652 59.0431C31.1015 58.5068 31.6377 57.9706 31.6377 57.4344V55.8257C31.6377 56.3619 31.1015 56.8982 30.5652 57.4344Z" fill="#8010FF"/>
<path d="M30.5652 53.6811C32.1739 54.7535 32.1739 56.3622 30.5652 57.4347C28.9565 58.5072 25.7392 58.5072 24.1305 57.4347C22.5218 56.3622 22.5218 54.7535 24.1305 53.6811C25.7392 52.6086 28.4203 52.6086 30.5652 53.6811Z" fill="#CA4DFF"/>
<path d="M27.3478 62.2607V70.8404L18.2318 76.2028V67.6231L27.3478 62.2607Z" fill="#9F28FF"/>
<path d="M18.2318 67.6231V76.2028L9.11591 70.8404V62.2607L18.2318 67.6231Z" fill="#8010FF"/>
<path d="M27.3478 62.2608L18.2318 67.6231L9.11591 62.2608L18.2318 56.8984L27.3478 62.2608Z" fill="#B136FF"/>
<path d="M21.4493 62.7973C19.8406 63.8698 16.6232 63.8698 15.0145 62.7973C13.942 62.2611 13.942 61.7248 13.942 61.1886V62.7973C13.942 63.3335 14.4782 64.406 15.0145 64.406C16.6232 65.4784 19.8406 65.4784 21.4493 64.406C21.9855 63.8697 22.5217 63.3335 22.5217 62.7973V61.1886C22.5217 61.7248 21.9855 62.2611 21.4493 62.7973Z" fill="#8010FF"/>
<path d="M21.4493 59.0434C23.0579 60.1158 23.0579 61.7245 21.4493 62.797C19.8406 63.8695 16.6231 63.8695 15.0144 62.797C13.4057 61.7245 13.4057 60.1158 15.0144 59.0434C16.6231 57.9709 19.3043 57.9709 21.4493 59.0434Z" fill="#CA4DFF"/>
<path d="M18.2318 67.623V76.2027L9.11591 81.5651V72.9854L18.2318 67.623Z" fill="#9F28FF"/>
<path d="M9.11593 72.9854V81.5651L0 76.2027V67.623L9.11593 72.9854Z" fill="#8010FF"/>
<path d="M18.2319 67.6231L9.11593 72.9854L0 67.6231L9.11593 62.2607L18.2319 67.6231Z" fill="#B136FF"/>
<path d="M12.3333 68.1596C10.7246 69.2321 7.50723 69.2321 5.89854 68.1596C4.82607 67.6234 4.82605 67.0871 4.82605 66.5509V68.1596C4.82605 68.6958 5.36231 69.7683 5.89854 69.7683C7.50723 70.8407 10.7246 70.8407 12.3333 69.7683C12.8695 69.2321 13.4058 68.6958 13.4058 68.1596V66.5509C13.4058 66.5509 12.8695 67.6234 12.3333 68.1596Z" fill="#8010FF"/>
<path d="M12.3333 64.4057C13.942 65.4781 13.942 67.0868 12.3333 68.1593C10.7246 69.2318 7.50723 69.2318 5.89854 68.1593C4.28984 67.0868 4.28984 65.4781 5.89854 64.4057C7.50723 63.3332 10.1884 63.3332 12.3333 64.4057Z" fill="#CA4DFF"/>
<path d="M27.3478 53.6812V62.2609L18.2318 67.6232V59.0435L27.3478 53.6812Z" fill="#9F28FF"/>
<path d="M18.2318 59.0435V67.6232L9.11591 62.2609V53.6812L18.2318 59.0435Z" fill="#8010FF"/>
<path d="M27.3478 53.6812L18.2318 59.0435L9.11591 53.6812L18.2318 48.3188L27.3478 53.6812Z" fill="#B136FF"/>
<path d="M21.4493 54.2177C19.8406 55.2902 16.6232 55.2902 15.0145 54.2177C13.942 53.6815 13.942 53.1452 13.942 52.609V54.2177C13.942 54.754 14.4782 55.8264 15.0145 55.8264C16.6232 56.8989 19.8406 56.8989 21.4493 55.8264C21.9855 55.2902 22.5217 54.754 22.5217 54.2177V52.609C22.5217 52.609 21.9855 53.6815 21.4493 54.2177Z" fill="#8010FF"/>
<path d="M21.4493 50.4638C23.0579 51.5362 23.0579 53.145 21.4493 54.2174C19.8406 55.2899 16.6231 55.2899 15.0144 54.2174C13.4057 53.145 13.4057 51.5362 15.0144 50.4638C16.6231 49.3913 19.3043 49.3913 21.4493 50.4638Z" fill="#CA4DFF"/>
<path d="M27.3478 45.1016V53.6813L18.2318 59.0436V50.4639L27.3478 45.1016Z" fill="#9F28FF"/>
<path d="M18.2318 50.4639V59.0436L9.11591 53.6813V45.1016L18.2318 50.4639Z" fill="#8010FF"/>
<path d="M27.3478 45.1016L18.2318 50.4639L9.11591 45.1016L18.2318 39.7393L27.3478 45.1016Z" fill="#B136FF"/>
<path d="M21.4493 45.1013C19.8406 46.1738 16.6232 46.1738 15.0145 45.1013C13.942 44.5651 13.942 44.0289 13.942 43.4927V45.1013C13.942 45.6376 14.4782 46.7101 15.0145 46.7101C16.6232 47.7825 19.8406 47.7825 21.4493 46.7101C21.9855 46.1738 22.5217 45.6376 22.5217 45.1013V43.4927C22.5217 44.0289 21.9855 45.1013 21.4493 45.1013Z" fill="#8010FF"/>
<path d="M21.4493 41.8842C23.0579 42.9566 23.0579 44.5653 21.4493 45.6378C19.8406 46.7103 16.6231 46.7103 15.0144 45.6378C13.4057 44.5653 13.4057 42.9566 15.0144 41.8842C16.6231 40.8117 19.3043 40.8117 21.4493 41.8842Z" fill="#CA4DFF"/>
<path d="M27.3478 36.522V45.1017L18.2318 50.464V41.8843L27.3478 36.522Z" fill="#9F28FF"/>
<path d="M18.2318 41.8843V50.464L9.11591 45.1017V36.522L18.2318 41.8843Z" fill="#8010FF"/>
<path d="M27.3478 36.522L18.2318 41.8843L9.11591 36.522L18.2318 31.1597L27.3478 36.522Z" fill="#B136FF"/>
<path d="M21.4493 36.5217C19.8406 37.5941 16.6232 37.5941 15.0145 36.5217C13.942 35.9854 13.942 35.4492 13.942 34.913V36.5217C13.942 37.0579 14.4782 38.1304 15.0145 38.1304C16.6232 39.2029 19.8406 39.2029 21.4493 38.1304C21.9855 37.5942 22.5217 37.0579 22.5217 36.5217V34.913C22.5217 35.4492 21.9855 35.9854 21.4493 36.5217Z" fill="#8010FF"/>
<path d="M21.4493 32.7683C23.0579 33.8407 23.0579 35.4494 21.4493 36.5219C19.8406 37.5943 16.6231 37.5943 15.0144 36.5219C13.4057 35.4494 13.4057 33.8407 15.0144 32.7683C16.6231 32.232 19.8406 32.232 21.4493 32.7683Z" fill="#CA4DFF"/>
<path d="M27.3478 27.9419V36.5216L18.2318 41.8839V33.3042L27.3478 27.9419Z" fill="#9F28FF"/>
<path d="M18.2318 33.3042V41.8839L9.11591 36.5216V27.9419L18.2318 33.3042Z" fill="#8010FF"/>
<path d="M27.3478 27.9418L18.2318 33.3041L9.11591 27.9418L18.2318 22.5795L27.3478 27.9418Z" fill="#B136FF"/>
<path d="M21.4493 27.9416C19.8406 29.0141 16.6232 29.0141 15.0145 27.9416C13.942 27.4054 13.942 26.8691 13.942 26.3329V27.9416C13.942 28.4778 14.4782 29.5503 15.0145 29.5503C16.6232 30.6227 19.8406 30.6227 21.4493 29.5503C21.9855 29.014 22.5217 28.4778 22.5217 27.9416V26.3329C22.5217 26.8691 22.5217 27.4054 21.4493 27.9416Z" fill="#8010FF"/>
<path d="M21.4493 24.1884C23.0579 25.2608 23.0579 26.8696 21.4493 27.942C19.8406 29.0145 16.6231 29.0145 15.0144 27.942C13.4057 26.8696 13.4057 25.2608 15.0144 24.1884C16.6231 23.1159 19.8406 23.1159 21.4493 24.1884Z" fill="#CA4DFF"/>
<path d="M27.3478 19.3622V27.9419L18.2318 33.3042V24.7245L27.3478 19.3622Z" fill="#9F28FF"/>
<path d="M18.2318 24.7245V33.3042L9.11591 27.9419V19.3622L18.2318 24.7245Z" fill="#8010FF"/>
<path d="M27.3478 19.3622L18.2318 24.7245L9.11591 19.3622L18.2318 13.9999L27.3478 19.3622Z" fill="#B136FF"/>
<path d="M21.4493 19.3619C19.8406 20.4343 16.6232 20.4343 15.0145 19.3619C13.942 18.8257 13.942 18.2894 13.942 17.7532V19.3619C13.942 19.8981 14.4782 20.9706 15.0145 20.9706C16.6232 22.043 19.8406 22.043 21.4493 20.9706C21.9855 20.4343 22.5217 19.8981 22.5217 19.3619V17.7532C22.5217 18.2894 22.5217 18.8257 21.4493 19.3619Z" fill="#8010FF"/>
<path d="M21.4493 15.6087C23.0579 16.6811 23.0579 18.2899 21.4493 19.3623C19.8406 20.4348 16.6231 20.4348 15.0144 19.3623C13.4057 18.2899 13.4057 16.6811 15.0144 15.6087C16.6231 14.5362 19.8406 14.5362 21.4493 15.6087Z" fill="#CA4DFF"/>
<path d="M36.4638 5.42029V14L27.3478 19.3623V10.7826L36.4638 5.42029Z" fill="#9F28FF"/>
<path d="M27.3478 10.7826V19.3623L18.2319 14V5.42029L27.3478 10.7826Z" fill="#8010FF"/>
<path d="M36.4638 5.4203L27.3478 10.7826L18.2319 5.4203L27.3478 0.0579834L36.4638 5.4203Z" fill="#B136FF"/>
<path d="M30.5652 5.41995C28.9565 6.49241 25.7392 6.49241 24.1305 5.41995C23.058 4.88372 23.058 4.34751 23.058 3.81128V5.41995C23.058 5.95618 23.5942 7.02866 24.1305 7.02866C25.7392 8.10113 28.9565 8.10113 30.5652 7.02866C31.1015 6.49243 31.6377 5.95618 31.6377 5.41995V3.81128C31.6377 4.34751 31.6377 4.88372 30.5652 5.41995Z" fill="#8010FF"/>
<path d="M30.5652 1.66677C32.1739 2.73924 32.1739 4.34792 30.5652 5.42038C28.9565 6.49284 25.7392 6.49284 24.1305 5.42038C22.5218 4.34792 22.5218 2.73924 24.1305 1.66677C25.7392 0.594311 28.9565 0.594311 30.5652 1.66677Z" fill="#CA4DFF"/>
<path d="M27.3478 10.7826V19.3623L18.2318 24.7247V15.6087L27.3478 10.7826Z" fill="#9F28FF"/>
<path d="M18.2318 15.6087V24.7247L9.11591 19.3623V10.7826L18.2318 15.6087Z" fill="#8010FF"/>
<path d="M27.3478 10.7826L18.2318 15.6087L9.11591 10.7826L18.2318 5.42029L27.3478 10.7826Z" fill="#B136FF"/>
<path d="M21.4493 10.7823C19.8406 11.8547 16.6232 11.8547 15.0145 10.7823C13.942 10.246 13.942 9.70982 13.942 9.17358V10.7823C13.942 11.3185 14.4782 12.391 15.0145 12.391C16.6232 13.4634 19.8406 13.4634 21.4493 12.391C21.9855 11.8547 22.5217 11.3185 22.5217 10.7823V9.17358C22.5217 9.70982 22.5217 10.246 21.4493 10.7823Z" fill="#8010FF"/>
<path d="M21.4493 7.02908C23.0579 8.10154 23.0579 9.71022 21.4493 10.7827C19.8406 11.8551 16.6231 11.8551 15.0144 10.7827C13.4057 9.71022 13.4057 8.10154 15.0144 7.02908C16.6231 5.95662 19.8406 5.95662 21.4493 7.02908Z" fill="#CA4DFF"/>
<path d="M18.2318 15.6088V24.7247L9.11591 29.5508V20.9711L18.2318 15.6088Z" fill="#9F28FF"/>
<path d="M9.11593 20.9711V29.5508L0 24.7247V15.6088L9.11593 20.9711Z" fill="#8010FF"/>
<path d="M18.2319 15.6087L9.11593 20.971L0 15.6087L9.11593 10.7826L18.2319 15.6087Z" fill="#B136FF"/>
<path d="M12.3333 16.1446C10.7246 17.217 7.50723 17.217 5.89854 16.1446C4.82607 15.6083 4.82605 15.0721 4.82605 14.5359V16.1446C4.82605 16.6808 5.36231 17.7533 5.89854 17.7533C7.50723 18.8257 10.7246 18.8257 12.3333 17.7533C12.8695 17.217 13.4058 16.6808 13.4058 16.1446V14.5359C13.4058 15.0721 13.4058 15.6083 12.3333 16.1446Z" fill="#8010FF"/>
<path d="M12.3333 12.3914C13.942 13.4638 13.942 15.0725 12.3333 16.145C10.7246 17.2175 7.50723 17.2175 5.89854 16.145C4.28984 15.0725 4.28984 13.4638 5.89854 12.3914C7.50723 11.3189 10.7246 11.3189 12.3333 12.3914Z" fill="#CA4DFF"/>
</svg>
