<svg width="37" height="83" viewBox="0 0 37 83" fill="none" xmlns="http://www.w3.org/2000/svg">
<path d="M36.4638 57.594V66.1737L27.3478 71.5361V62.9563L36.4638 57.594Z" fill="#32A0FF"/>
<path d="M27.3478 62.9563V71.5361L18.2319 66.1737V57.594L27.3478 62.9563Z" fill="#1A8BFF"/>
<path d="M36.4638 57.594L27.3478 62.9563L18.2319 57.594L27.3478 52.2317L36.4638 57.594Z" fill="#51BCFF"/>
<path d="M30.5652 58.1306C28.9565 59.203 25.7391 59.203 24.1304 58.1306C23.058 57.5943 23.058 57.0581 23.058 56.5219V58.1306C23.058 58.6668 23.5942 59.7392 24.1304 59.7392C25.7391 60.8117 28.9565 60.8117 30.5652 59.7392C31.1014 59.203 31.6376 58.6668 31.6376 58.1306V56.5219C31.6376 56.5219 31.1014 57.5943 30.5652 58.1306Z" fill="#1A8BFF"/>
<path d="M30.5652 54.3766C32.1739 55.4491 32.1739 57.0578 30.5652 58.1303C28.9565 59.2027 25.7391 59.2027 24.1304 58.1303C22.5217 57.0578 22.5217 55.4491 24.1304 54.3766C25.7391 53.3041 28.4202 53.3041 30.5652 54.3766Z" fill="#5CD1FF"/>
<path d="M27.3477 62.9563V71.536L18.2318 76.8984V68.3186L27.3477 62.9563Z" fill="#32A0FF"/>
<path d="M18.2318 68.3186V76.8984L9.11591 71.536V62.9563L18.2318 68.3186Z" fill="#1A8BFF"/>
<path d="M27.3478 62.9563L18.2318 68.3186L9.11591 62.9563L18.2318 57.594L27.3478 62.9563Z" fill="#51BCFF"/>
<path d="M21.4493 62.9561C19.8406 64.0285 16.6232 64.0285 15.0145 62.9561C13.942 62.4199 13.942 61.8836 13.942 61.3474V62.9561C13.942 63.4923 14.4783 64.5648 15.0145 64.5648C16.6232 65.6373 19.8406 65.6373 21.4493 64.5648C21.9855 64.0286 22.5217 63.4923 22.5217 62.9561V61.3474C22.5217 61.8836 21.9855 62.4199 21.4493 62.9561Z" fill="#1A8BFF"/>
<path d="M21.4492 59.2026C23.0579 60.2751 23.0579 61.8837 21.4492 62.9562C19.8405 64.0287 16.6231 64.0287 15.0144 62.9562C13.4057 61.8837 13.4057 60.2751 15.0144 59.2026C16.6231 58.6664 19.3043 58.6664 21.4492 59.2026Z" fill="#5CD1FF"/>
<path d="M18.2318 68.3186V76.8983L9.11591 82.2607V73.6809L18.2318 68.3186Z" fill="#32A0FF"/>
<path d="M9.11593 73.6809V82.2607L0 76.8983V68.3186L9.11593 73.6809Z" fill="#1A8BFF"/>
<path d="M18.2319 68.3186L9.11593 73.6809L0 68.3186L9.11593 62.9563L18.2319 68.3186Z" fill="#51BCFF"/>
<path d="M12.3333 68.3183C10.7246 69.3907 7.50719 69.3907 5.8985 68.3183C4.82603 67.782 4.82605 67.2458 4.82605 66.7096V68.3183C4.82605 68.8545 5.36227 69.927 5.8985 69.927C7.50719 70.9994 10.7246 70.9994 12.3333 69.927C12.8696 69.3907 13.4058 68.8545 13.4058 68.3183V66.7096C13.4058 67.2458 12.8696 67.782 12.3333 68.3183Z" fill="#1A8BFF"/>
<path d="M12.3333 64.5651C13.942 65.6376 13.942 67.2462 12.3333 68.3187C10.7246 69.3912 7.50717 69.3912 5.89848 68.3187C4.28978 67.2462 4.28978 65.6376 5.89848 64.5651C7.50717 63.4926 10.1884 63.4926 12.3333 64.5651Z" fill="#5CD1FF"/>
<path d="M36.4638 49.0144V57.5941L27.3478 62.9564V54.3767L36.4638 49.0144Z" fill="#32A0FF"/>
<path d="M27.3478 54.3767V62.9564L18.2319 57.5941V49.0144L27.3478 54.3767Z" fill="#1A8BFF"/>
<path d="M36.4638 49.0144L27.3478 54.3767L18.2319 49.0144L27.3478 43.6521L36.4638 49.0144Z" fill="#51BCFF"/>
<path d="M30.5652 49.0142C28.9565 50.0867 25.7391 50.0867 24.1304 49.0142C23.058 48.478 23.058 47.9417 23.058 47.4055V49.0142C23.058 49.5504 23.5942 50.6229 24.1304 50.6229C25.7391 51.6954 28.9565 51.6954 30.5652 50.6229C31.1014 50.0867 31.6376 49.5504 31.6376 49.0142V47.4055C31.6376 47.9417 31.1014 48.478 30.5652 49.0142Z" fill="#1A8BFF"/>
<path d="M30.5652 45.2607C32.1739 46.3332 32.1739 47.9418 30.5652 49.0143C28.9565 50.0868 25.7391 50.0868 24.1304 49.0143C22.5217 47.9418 22.5217 46.3332 24.1304 45.2607C25.7391 44.7245 28.4202 44.7245 30.5652 45.2607Z" fill="#5CD1FF"/>
<path d="M36.4638 40.4348V49.0145L27.3478 54.3768V45.7971L36.4638 40.4348Z" fill="#32A0FF"/>
<path d="M27.3478 45.7971V54.3768L18.2319 49.0145V40.4348L27.3478 45.7971Z" fill="#1A8BFF"/>
<path d="M36.4638 40.4348L27.3478 45.7971L18.2319 40.4348L27.3478 35.0725L36.4638 40.4348Z" fill="#51BCFF"/>
<path d="M30.5652 40.4346C28.9565 41.5071 25.7391 41.5071 24.1304 40.4346C23.058 39.8984 23.058 39.3622 23.058 38.8259V40.4346C23.058 40.9709 23.5942 42.0434 24.1304 42.0434C25.7391 43.1158 28.9565 43.1158 30.5652 42.0434C31.1014 41.5071 31.6376 40.9709 31.6376 40.4346V38.8259C31.6376 39.3622 31.1014 39.8984 30.5652 40.4346Z" fill="#1A8BFF"/>
<path d="M30.5652 36.6814C32.1739 37.7539 32.1739 39.3626 30.5652 40.435C28.9565 41.5075 25.7391 41.5075 24.1304 40.435C22.5217 39.3626 22.5217 37.7539 24.1304 36.6814C25.7391 35.609 28.4202 35.609 30.5652 36.6814Z" fill="#5CD1FF"/>
<path d="M36.4638 31.8552V40.4349L27.3478 45.7972V37.2175L36.4638 31.8552Z" fill="#32A0FF"/>
<path d="M27.3478 37.2175V45.7972L18.2319 40.4349V31.8552L27.3478 37.2175Z" fill="#1A8BFF"/>
<path d="M36.4638 31.8552L27.3478 37.2176L18.2319 31.8552L27.3478 26.4929L36.4638 31.8552Z" fill="#51BCFF"/>
<path d="M30.5652 31.8549C28.9565 32.9274 25.7391 32.9274 24.1304 31.8549C23.058 31.3187 23.058 30.7824 23.058 30.2462V31.8549C23.058 32.3912 23.5942 33.4636 24.1304 33.4636C25.7391 34.5361 28.9565 34.5361 30.5652 33.4636C31.1014 32.9274 31.6376 32.3912 31.6376 31.8549V30.2462C31.6376 30.7824 31.1014 31.3187 30.5652 31.8549Z" fill="#1A8BFF"/>
<path d="M30.5652 28.1017C32.1739 29.1742 32.1739 30.7829 30.5652 31.8554C28.9565 32.9278 25.7391 32.9278 24.1304 31.8554C22.5217 30.7829 22.5217 29.1742 24.1304 28.1017C25.7391 27.0292 28.4202 27.0292 30.5652 28.1017Z" fill="#5CD1FF"/>
<path d="M27.3477 37.2175V45.7972L18.2318 51.1595V42.0436L27.3477 37.2175Z" fill="#32A0FF"/>
<path d="M18.2318 42.0436V51.1595L9.11591 45.7972V37.2175L18.2318 42.0436Z" fill="#1A8BFF"/>
<path d="M27.3478 37.2175L18.2318 42.0436L9.11591 37.2175L18.2318 31.8552L27.3478 37.2175Z" fill="#51BCFF"/>
<path d="M21.4493 37.2172C19.8406 38.2897 16.6232 38.2897 15.0145 37.2172C13.942 36.681 13.942 36.1448 13.942 35.6085V37.2172C13.942 37.7535 14.4783 38.8259 15.0145 38.8259C16.6232 39.8984 19.8406 39.8984 21.4493 38.8259C21.9855 38.2897 22.5217 37.7535 22.5217 37.2172V35.6085C22.5217 36.1448 21.9855 36.681 21.4493 37.2172Z" fill="#1A8BFF"/>
<path d="M21.4492 33.464C23.0579 34.5365 23.0579 36.1452 21.4492 37.2177C19.8405 38.2901 16.6231 38.2901 15.0144 37.2177C13.4057 36.1452 13.4057 34.5365 15.0144 33.464C16.6231 32.3916 19.3043 32.3916 21.4492 33.464Z" fill="#5CD1FF"/>
<path d="M18.2318 42.0437V51.1596L9.11591 55.9857V47.406L18.2318 42.0437Z" fill="#32A0FF"/>
<path d="M9.11593 47.406V55.9857L0 51.1596V42.0437L9.11593 47.406Z" fill="#1A8BFF"/>
<path d="M18.2319 42.0436L9.11593 47.4059L0 42.0436L9.11593 37.2175L18.2319 42.0436Z" fill="#51BCFF"/>
<path d="M12.3333 42.5797C10.7246 43.6521 7.50719 43.6521 5.8985 42.5797C4.82603 42.0434 4.82605 41.5072 4.82605 40.9709V42.5797C4.82605 43.1159 5.36227 44.1883 5.8985 44.1883C7.50719 45.2608 10.7246 45.2608 12.3333 44.1883C12.8696 43.6521 13.4058 43.1159 13.4058 42.5797V40.9709C13.4058 41.5072 12.8696 42.0434 12.3333 42.5797Z" fill="#1A8BFF"/>
<path d="M12.3333 38.8263C13.942 39.8988 13.942 41.5075 12.3333 42.58C10.7246 43.6524 7.50717 43.6524 5.89848 42.58C4.28978 41.5075 4.28978 39.8988 5.89848 38.8263C7.50717 37.7539 10.1884 37.7539 12.3333 38.8263Z" fill="#5CD1FF"/>
<path d="M18.2318 33.4635V42.0432L9.11591 47.4056V38.8258L18.2318 33.4635Z" fill="#32A0FF"/>
<path d="M9.11593 38.8258V47.4056L0 42.0432V33.4635L9.11593 38.8258Z" fill="#1A8BFF"/>
<path d="M18.2319 33.4635L9.11593 38.8258L0 33.4635L9.11593 28.1012L18.2319 33.4635Z" fill="#51BCFF"/>
<path d="M12.3333 34.0001C10.7246 35.0725 7.50719 35.0725 5.8985 34.0001C4.82603 33.4638 4.82605 32.9276 4.82605 32.3914V34.0001C4.82605 34.5363 5.36227 35.6087 5.8985 35.6087C7.50719 36.6812 10.7246 36.6812 12.3333 35.6087C12.8696 35.0725 13.4058 34.5363 13.4058 34.0001V32.3914C13.4058 32.9276 12.8696 33.4638 12.3333 34.0001Z" fill="#1A8BFF"/>
<path d="M12.3333 30.2461C13.942 31.3186 13.942 32.9273 12.3333 33.9998C10.7246 35.0722 7.50717 35.0722 5.89848 33.9998C4.28978 32.9273 4.28978 31.3186 5.89848 30.2461C7.50717 29.1737 10.1884 29.1737 12.3333 30.2461Z" fill="#5CD1FF"/>
<path d="M18.2318 24.8839V33.4636L9.11591 38.8259V30.2462L18.2318 24.8839Z" fill="#32A0FF"/>
<path d="M9.11593 30.2462V38.8259L0 33.4636V24.8839L9.11593 30.2462Z" fill="#1A8BFF"/>
<path d="M18.2319 24.8839L9.11593 30.2462L0 24.8839L9.11593 19.5216L18.2319 24.8839Z" fill="#51BCFF"/>
<path d="M12.3333 25.4204C10.7246 26.4929 7.50719 26.4929 5.8985 25.4204C4.82603 24.8842 4.82605 24.348 4.82605 23.8118V25.4204C4.82605 25.9567 5.36227 27.0292 5.8985 27.0292C7.50719 28.1016 10.7246 28.1016 12.3333 27.0292C12.8696 26.4929 13.4058 25.9567 13.4058 25.4204V23.8118C13.4058 23.8118 12.8696 24.8842 12.3333 25.4204Z" fill="#1A8BFF"/>
<path d="M12.3333 21.6665C13.942 22.739 13.942 24.3477 12.3333 25.4201C10.7246 26.4926 7.50717 26.4926 5.89848 25.4201C4.28978 24.3477 4.28978 22.739 5.89848 21.6665C7.50717 20.5941 10.7246 20.5941 12.3333 21.6665Z" fill="#5CD1FF"/>
<path d="M36.4638 5.57971V14.6956L27.3478 19.5217V10.942L36.4638 5.57971Z" fill="#32A0FF"/>
<path d="M27.3478 10.942V19.5217L18.2319 14.6956V5.57971L27.3478 10.942Z" fill="#1A8BFF"/>
<path d="M36.4638 5.57963L27.3478 10.942L18.2319 5.57963L27.3478 0.75354L36.4638 5.57963Z" fill="#51BCFF"/>
<path d="M30.5652 6.11551C28.9565 7.18797 25.7391 7.18797 24.1304 6.11551C23.058 5.57928 23.058 5.04307 23.058 4.50684V6.11551C23.058 6.65174 23.5942 7.72422 24.1304 7.72422C25.7391 8.79668 28.9565 8.79668 30.5652 7.72422C31.1014 7.18799 31.6376 6.65174 31.6376 6.11551V4.50684C31.6376 5.04307 31.6377 5.57928 30.5652 6.11551Z" fill="#1A8BFF"/>
<path d="M30.5652 2.36233C32.1739 3.43479 32.1739 5.04347 30.5652 6.11594C28.9565 7.1884 25.7391 7.1884 24.1304 6.11594C22.5217 5.04347 22.5217 3.43479 24.1304 2.36233C25.7391 1.28987 28.9565 1.28987 30.5652 2.36233Z" fill="#5CD1FF"/>
<path d="M27.3477 10.942V19.5217L18.2318 24.884V16.3043L27.3477 10.942Z" fill="#32A0FF"/>
<path d="M18.2318 16.3043V24.884L9.11591 19.5217V10.942L18.2318 16.3043Z" fill="#1A8BFF"/>
<path d="M27.3478 10.942L18.2318 16.3043L9.11591 10.942L18.2318 5.57971L27.3478 10.942Z" fill="#51BCFF"/>
<path d="M21.4493 11.4785C19.8406 12.551 16.6232 12.551 15.0145 11.4785C13.942 10.9423 13.942 10.4061 13.942 9.86987V11.4785C13.942 12.0148 14.4783 13.0873 15.0145 13.0873C16.6232 14.1597 19.8406 14.1597 21.4493 13.0873C21.9855 12.551 22.5217 12.0148 22.5217 11.4785V9.86987C22.5217 9.86987 22.5217 10.9423 21.4493 11.4785Z" fill="#1A8BFF"/>
<path d="M21.4492 7.72464C23.0579 8.7971 23.0579 10.4058 21.4492 11.4782C19.8405 12.5507 16.6231 12.5507 15.0144 11.4782C13.4057 10.4058 13.4057 8.7971 15.0144 7.72464C16.6231 6.65217 19.8405 6.65217 21.4492 7.72464Z" fill="#5CD1FF"/>
<path d="M18.2318 16.3043V24.884L9.11591 30.2463V21.6666L18.2318 16.3043Z" fill="#32A0FF"/>
<path d="M9.11593 21.6666V30.2463L0 24.884V16.3043L9.11593 21.6666Z" fill="#1A8BFF"/>
<path d="M18.2319 16.3043L9.11593 21.6667L0 16.3043L9.11593 10.942L18.2319 16.3043Z" fill="#51BCFF"/>
<path d="M12.3333 16.3041C10.7246 17.3766 7.50719 17.3766 5.8985 16.3041C4.82603 15.7679 4.82605 15.2317 4.82605 14.6954V16.3041C4.82605 16.8404 5.36227 17.9129 5.8985 17.9129C7.50719 18.9853 10.7246 18.9853 12.3333 17.9129C12.8696 17.3766 13.4058 16.8404 13.4058 16.3041V14.6954C13.4058 15.2317 13.4058 16.3041 12.3333 16.3041Z" fill="#1A8BFF"/>
<path d="M12.3333 13.0869C13.942 14.1594 13.942 15.7681 12.3333 16.8405C10.7246 17.913 7.50717 17.913 5.89848 16.8405C4.28978 15.7681 4.28978 14.1594 5.89848 13.0869C7.50717 12.0145 10.7246 12.0145 12.3333 13.0869Z" fill="#5CD1FF"/>
</svg>
