<svg width="37" height="77" viewBox="0 0 37 77" fill="none" xmlns="http://www.w3.org/2000/svg">
<path d="M27.3477 62.2317V70.8114L18.2318 76.1737V67.594L27.3477 62.2317Z" fill="#E11415"/>
<path d="M18.2318 67.594V76.1737L9.11591 70.8114V62.2317L18.2318 67.594Z" fill="#B00A0B"/>
<path d="M27.3478 62.2317L18.2318 67.594L9.11591 62.2317L18.2318 56.8694L27.3478 62.2317Z" fill="#FF2121"/>
<path d="M21.4493 62.7682C19.8406 63.8407 16.6231 63.8407 15.0144 62.7682C13.9419 62.232 13.942 61.6958 13.942 61.1595V62.7682C13.942 63.3045 14.4782 64.3769 15.0144 64.3769C16.6231 65.4494 19.8406 65.4494 21.4493 64.3769C21.9855 63.8407 22.5217 63.3045 22.5217 62.7682V61.1595C22.5217 61.6958 22.5217 62.232 21.4493 62.7682Z" fill="#B00A0B"/>
<path d="M21.4492 59.0143C23.0579 60.0868 23.0579 61.6955 21.4492 62.7679C19.8405 63.8404 16.6231 63.8404 15.0144 62.7679C13.4057 61.6955 13.4057 60.0868 15.0144 59.0143C16.6231 57.9418 19.8405 57.9418 21.4492 59.0143Z" fill="#FF2222"/>
<path d="M27.3477 53.6521V62.2318L18.2318 67.5941V59.0144L27.3477 53.6521Z" fill="#E11415"/>
<path d="M18.2318 59.0144V67.5941L9.11591 62.2318V53.6521L18.2318 59.0144Z" fill="#B00A0B"/>
<path d="M27.3478 53.6521L18.2318 59.0144L9.11591 53.6521L18.2318 48.2898L27.3478 53.6521Z" fill="#FF2121"/>
<path d="M21.4493 54.1886C19.8406 55.2611 16.6231 55.2611 15.0144 54.1886C13.9419 53.6524 13.942 53.1162 13.942 52.58V54.1886C13.942 54.7249 14.4782 55.7973 15.0144 55.7973C16.6231 56.8698 19.8406 56.8698 21.4493 55.7973C21.9855 55.2611 22.5217 54.7249 22.5217 54.1886V52.58C22.5217 52.58 22.5217 53.6524 21.4493 54.1886Z" fill="#B00A0B"/>
<path d="M21.4492 50.4347C23.0579 51.5072 23.0579 53.1159 21.4492 54.1883C19.8405 55.2608 16.6231 55.2608 15.0144 54.1883C13.4057 53.1159 13.4057 51.5072 15.0144 50.4347C16.6231 49.3623 19.8405 49.3623 21.4492 50.4347Z" fill="#FF2222"/>
<path d="M27.3477 45.0725V53.6522L18.2318 59.0146V50.4348L27.3477 45.0725Z" fill="#E11415"/>
<path d="M18.2318 50.4348V59.0146L9.11591 53.6522V45.0725L18.2318 50.4348Z" fill="#B00A0B"/>
<path d="M27.3478 45.0725L18.2318 50.4348L9.11591 45.0725L18.2318 39.7102L27.3478 45.0725Z" fill="#FF2121"/>
<path d="M21.4493 45.0723C19.8406 46.1448 16.6231 46.1448 15.0144 45.0723C13.9419 44.5361 13.942 43.9999 13.942 43.4636V45.0723C13.942 45.6085 14.4782 46.681 15.0144 46.681C16.6231 47.7535 19.8406 47.7535 21.4493 46.681C21.9855 46.1448 22.5217 45.6085 22.5217 45.0723V43.4636C22.5217 43.9999 22.5217 45.0723 21.4493 45.0723Z" fill="#B00A0B"/>
<path d="M21.4492 41.8551C23.0579 42.9276 23.0579 44.5363 21.4492 45.6088C19.8405 46.6812 16.6231 46.6812 15.0144 45.6088C13.4057 44.5363 13.4057 42.9276 15.0144 41.8551C16.6231 40.7827 19.8405 40.7827 21.4492 41.8551Z" fill="#FF2222"/>
<path d="M27.3477 36.493V45.0727L18.2318 50.4351V41.8554L27.3477 36.493Z" fill="#E11415"/>
<path d="M18.2318 41.8554V50.4351L9.11591 45.0727V36.493L18.2318 41.8554Z" fill="#B00A0B"/>
<path d="M27.3478 36.4929L18.2318 41.8553L9.11591 36.4929L18.2318 31.1306L27.3478 36.4929Z" fill="#FF2121"/>
<path d="M21.4493 36.4927C19.8406 37.5652 16.6231 37.5652 15.0144 36.4927C13.9419 35.9565 13.942 35.4203 13.942 34.884V36.4927C13.942 37.029 14.4782 38.1014 15.0144 38.1014C16.6231 39.1739 19.8406 39.1739 21.4493 38.1014C21.9855 37.5652 22.5217 37.029 22.5217 36.4927V34.884C23.0579 35.4203 22.5217 35.9565 21.4493 36.4927Z" fill="#B00A0B"/>
<path d="M21.4492 32.7392C23.0579 33.8117 23.0579 35.4204 21.4492 36.4928C19.8405 37.5653 16.6231 37.5653 15.0144 36.4928C13.4057 35.4204 13.4057 33.8117 15.0144 32.7392C16.6231 32.203 19.8405 32.203 21.4492 32.7392Z" fill="#FF2222"/>
<path d="M27.3477 27.9127V36.4924L18.2318 41.8548V33.275L27.3477 27.9127Z" fill="#E11415"/>
<path d="M18.2318 33.275V41.8548L9.11591 36.4924V27.9127L18.2318 33.275Z" fill="#B00A0B"/>
<path d="M27.3478 27.9127L18.2318 33.2751L9.11591 27.9127L18.2318 22.5504L27.3478 27.9127Z" fill="#FF2121"/>
<path d="M21.4493 27.9125C19.8406 28.985 16.6231 28.985 15.0144 27.9125C13.9419 27.3763 13.942 26.8401 13.942 26.3038V27.9125C13.942 28.4488 14.4782 29.5212 15.0144 29.5212C16.6231 30.5937 19.8406 30.5937 21.4493 29.5212C21.9855 28.985 22.5217 28.4488 22.5217 27.9125V26.3038C23.0579 26.8401 22.5217 27.3763 21.4493 27.9125Z" fill="#B00A0B"/>
<path d="M21.4492 24.1592C23.0579 25.2317 23.0579 26.8403 21.4492 27.9128C19.8405 28.9853 16.6231 28.9853 15.0144 27.9128C13.4057 26.8403 13.4057 25.2317 15.0144 24.1592C16.6231 23.0867 19.8405 23.0867 21.4492 24.1592Z" fill="#FF2222"/>
<path d="M27.3477 19.3331V27.9128L18.2318 33.2751V24.6954L27.3477 19.3331Z" fill="#E11415"/>
<path d="M18.2318 24.6954V33.2751L9.11591 27.9128V19.3331L18.2318 24.6954Z" fill="#B00A0B"/>
<path d="M27.3478 19.3331L18.2318 24.6955L9.11591 19.3331L18.2318 13.9708L27.3478 19.3331Z" fill="#FF2121"/>
<path d="M21.4493 19.3329C19.8406 20.4054 16.6231 20.4054 15.0144 19.3329C13.9419 18.7967 13.942 18.2605 13.942 17.7242V19.3329C13.942 19.8692 14.4782 20.9416 15.0144 20.9416C16.6231 22.0141 19.8406 22.0141 21.4493 20.9416C21.9855 20.4054 22.5217 19.8692 22.5217 19.3329V17.7242C23.0579 18.2605 22.5217 18.7967 21.4493 19.3329Z" fill="#B00A0B"/>
<path d="M21.4492 15.5797C23.0579 16.6522 23.0579 18.2609 21.4492 19.3334C19.8405 20.4058 16.6231 20.4058 15.0144 19.3334C13.4057 18.2609 13.4057 16.6522 15.0144 15.5797C16.6231 14.5073 19.8405 14.5073 21.4492 15.5797Z" fill="#FF2222"/>
<path d="M36.4637 5.39124V13.9709L27.3478 19.3333V10.7536L36.4637 5.39124Z" fill="#E11415"/>
<path d="M27.3478 10.7536V19.3333L18.2319 13.9709V5.39124L27.3478 10.7536Z" fill="#B00A0B"/>
<path d="M36.4637 5.39125L27.3478 10.7536L18.2319 5.39125L27.3478 0.0289307L36.4637 5.39125Z" fill="#FF2121"/>
<path d="M30.5652 5.39106C28.9565 6.46352 25.7391 6.46352 24.1305 5.39106C23.058 4.85483 23.0579 4.31858 23.0579 3.78235V5.39106C23.0579 5.92729 23.5942 6.99975 24.1305 6.99975C25.7391 8.07222 28.9565 8.07222 30.5652 6.99975C31.1014 6.46352 31.6377 5.92729 31.6377 5.39106V3.78235C32.1739 4.31858 31.6377 4.85483 30.5652 5.39106Z" fill="#B00A0B"/>
<path d="M30.5652 1.63784C32.1739 2.71031 32.1739 4.31901 30.5652 5.39147C28.9565 6.46393 25.7391 6.46393 24.1304 5.39147C22.5217 4.31901 22.5217 2.71031 24.1304 1.63784C25.7391 0.56538 28.9565 0.56538 30.5652 1.63784Z" fill="#FF2222"/>
<path d="M27.3477 10.7537V19.3334L18.2318 24.6957V15.5797L27.3477 10.7537Z" fill="#E11415"/>
<path d="M18.2318 15.5797V24.6957L9.11591 19.3334V10.7537L18.2318 15.5797Z" fill="#B00A0B"/>
<path d="M27.3478 10.7536L18.2318 15.5796L9.11591 10.7536L18.2318 5.39124L27.3478 10.7536Z" fill="#FF2121"/>
<path d="M21.4493 10.7534C19.8406 11.8258 16.6231 11.8258 15.0144 10.7534C13.9419 10.2171 13.942 9.68089 13.942 9.14465V10.7534C13.942 11.2896 14.4782 12.3621 15.0144 12.3621C16.6231 13.4345 19.8406 13.4345 21.4493 12.3621C21.9855 11.8258 22.5217 11.2896 22.5217 10.7534V9.14465C23.0579 9.68089 22.5217 10.2171 21.4493 10.7534Z" fill="#B00A0B"/>
<path d="M21.4492 7.00015C23.0579 8.07261 23.0579 9.68131 21.4492 10.7538C19.8405 11.8262 16.6231 11.8262 15.0144 10.7538C13.4057 9.68131 13.4057 8.07261 15.0144 7.00015C17.1593 5.92768 19.8405 5.92768 21.4492 7.00015Z" fill="#FF2222"/>
<path d="M18.2318 15.5797V24.6957L9.11591 29.5218V20.942L18.2318 15.5797Z" fill="#E11415"/>
<path d="M9.11593 20.942V29.5218L0 24.6957V15.5797L9.11593 20.942Z" fill="#B00A0B"/>
<path d="M18.2319 15.5796L9.11593 20.9419L0 15.5796L9.11593 10.7535L18.2319 15.5796Z" fill="#FF2121"/>
<path d="M12.3333 16.1155C10.7246 17.188 7.50719 17.188 5.8985 16.1155C4.82603 15.5793 4.82605 15.0431 4.82605 14.5068V16.1155C4.82605 16.6518 5.36227 17.7242 5.8985 17.7242C7.50719 18.7967 10.7246 18.7967 12.3333 17.7242C12.8695 17.188 13.4058 16.6518 13.4058 16.1155V14.5068C13.942 15.0431 13.4057 15.5793 12.3333 16.1155Z" fill="#B00A0B"/>
<path d="M12.3332 12.3623C13.9419 13.4348 13.9419 15.0435 12.3332 16.116C10.7245 17.1884 7.50717 17.1884 5.89848 16.116C4.28978 15.0435 4.28978 13.4348 5.89848 12.3623C8.0434 11.2899 10.7245 11.2899 12.3332 12.3623Z" fill="#FF2222"/>
</svg>
