<svg width="37" height="82" viewBox="0 0 37 82" fill="none" xmlns="http://www.w3.org/2000/svg">
<path d="M36.4637 57.2028V65.7825L27.3478 71.1448V62.5651L36.4637 57.2028Z" fill="#F7349B"/>
<path d="M27.3478 62.5651V71.1448L18.2319 65.7825V57.2028L27.3478 62.5651Z" fill="#EB2185"/>
<path d="M36.4638 57.2028L27.3478 62.5651L18.2319 57.2028L27.3478 51.8405L36.4638 57.2028Z" fill="#FF47AE"/>
<path d="M30.5652 57.7392C28.9565 58.8117 25.7391 58.8117 24.1304 57.7392C23.058 57.203 23.058 56.6667 23.058 56.1305V57.7392C23.058 58.2754 23.5942 59.3479 24.1304 59.3479C25.7391 60.4203 28.9565 60.4203 30.5652 59.3479C31.1015 58.8116 31.6377 58.2754 31.6377 57.7392V56.1305C31.6377 56.1305 31.6377 57.203 30.5652 57.7392Z" fill="#EB2185"/>
<path d="M30.5652 53.9854C32.1739 55.0578 32.1739 56.6666 30.5652 57.739C28.9565 58.8115 25.7391 58.8115 24.1304 57.739C22.5217 56.6666 22.5217 55.0578 24.1304 53.9854C25.7391 52.9129 28.9565 52.9129 30.5652 53.9854Z" fill="#FF5CB7"/>
<path d="M18.2318 67.9274V76.5071L9.11591 81.8694V73.2897L18.2318 67.9274Z" fill="#F7349B"/>
<path d="M9.11594 73.2897V81.8694L0 76.5071V67.9274L9.11594 73.2897Z" fill="#EB2185"/>
<path d="M18.2319 67.9274L9.11594 73.2897L0 67.9274L9.11594 62.5651L18.2319 67.9274Z" fill="#FF47AE"/>
<path d="M12.3334 67.927C10.7247 68.9995 7.50727 68.9995 5.89857 67.927C4.82611 67.3908 4.82611 66.8546 4.82611 66.3184V67.927C4.82611 68.4633 5.36234 69.5357 5.89857 69.5357C7.50727 70.6082 10.7247 70.6082 12.3334 69.5357C12.8696 68.9995 13.4058 68.4633 13.4058 67.927V66.3184C13.9421 66.8546 13.4058 67.3908 12.3334 67.927Z" fill="#EB2185"/>
<path d="M12.3333 64.1739C13.942 65.2463 13.942 66.855 12.3333 67.9275C10.7246 68.9999 7.50723 68.9999 5.89854 67.9275C4.28984 66.855 4.28984 65.2463 5.89854 64.1739C7.50723 63.1014 10.7246 63.1014 12.3333 64.1739Z" fill="#FF5CB7"/>
<path d="M36.4637 48.6232V57.2029L27.3478 62.5652V53.9855L36.4637 48.6232Z" fill="#F7349B"/>
<path d="M27.3478 53.9855V62.5652L18.2319 57.2029V48.6232L27.3478 53.9855Z" fill="#EB2185"/>
<path d="M36.4638 48.6232L27.3478 53.9855L18.2319 48.6232L27.3478 43.2609L36.4638 48.6232Z" fill="#FF47AE"/>
<path d="M30.5652 48.6228C28.9565 49.6953 25.7391 49.6953 24.1304 48.6228C23.058 48.0866 23.058 47.5504 23.058 47.0142V48.6228C23.058 49.1591 23.5942 50.2315 24.1304 50.2315C25.7391 51.304 28.9565 51.304 30.5652 50.2315C31.1015 49.6953 31.6377 49.1591 31.6377 48.6228V47.0142C32.1739 47.5504 31.6377 48.0866 30.5652 48.6228Z" fill="#EB2185"/>
<path d="M30.5652 44.8695C32.1739 45.9419 32.1739 47.5506 30.5652 48.6231C28.9565 49.6955 25.7391 49.6955 24.1304 48.6231C22.5217 47.5506 22.5217 45.9419 24.1304 44.8695C25.7391 44.3332 28.9565 44.3332 30.5652 44.8695Z" fill="#FF5CB7"/>
<path d="M18.2318 59.3478V67.9275L9.11591 73.2898V64.7101L18.2318 59.3478Z" fill="#F7349B"/>
<path d="M9.11594 64.7101V73.2898L0 67.9275V59.3478L9.11594 64.7101Z" fill="#EB2185"/>
<path d="M18.2319 59.3478L9.11594 64.7101L0 59.3478L9.11594 53.9855L18.2319 59.3478Z" fill="#FF47AE"/>
<path d="M12.3334 59.3476C10.7247 60.42 7.50727 60.42 5.89857 59.3476C4.82611 58.8113 4.82611 58.2751 4.82611 57.7389V59.3476C4.82611 59.8838 5.36234 60.9563 5.89857 60.9563C7.50727 62.0287 10.7247 62.0287 12.3334 60.9563C12.8696 60.42 13.4058 59.8838 13.4058 59.3476V57.7389C13.9421 58.2751 13.4058 58.8113 12.3334 59.3476Z" fill="#EB2185"/>
<path d="M12.3333 55.5943C13.942 56.6667 13.942 58.2754 12.3333 59.3479C10.7246 60.4203 7.50723 60.4203 5.89854 59.3479C4.28984 58.2754 4.28984 56.6667 5.89854 55.5943C7.50723 54.5218 10.7246 54.5218 12.3333 55.5943Z" fill="#FF5CB7"/>
<path d="M36.4637 40.0436V48.6233L27.3478 53.9856V45.4059L36.4637 40.0436Z" fill="#F7349B"/>
<path d="M27.3478 45.4059V53.9856L18.2319 48.6233V40.0436L27.3478 45.4059Z" fill="#EB2185"/>
<path d="M36.4638 40.0436L27.3478 45.4059L18.2319 40.0436L27.3478 34.6813L36.4638 40.0436Z" fill="#FF47AE"/>
<path d="M30.5652 40.0433C28.9565 41.1157 25.7391 41.1157 24.1304 40.0433C23.058 39.5071 23.058 38.9708 23.058 38.4346V40.0433C23.058 40.5795 23.5942 41.652 24.1304 41.652C25.7391 42.7245 28.9565 42.7245 30.5652 41.652C31.1015 41.1158 31.6377 40.5795 31.6377 40.0433V38.4346C32.1739 38.9708 31.6377 39.5071 30.5652 40.0433Z" fill="#EB2185"/>
<path d="M30.5652 36.2901C32.1739 37.3625 32.1739 38.9712 30.5652 40.0437C28.9565 41.1161 25.7391 41.1161 24.1304 40.0437C22.5217 38.9712 22.5217 37.3625 24.1304 36.2901C25.7391 35.2176 28.9565 35.2176 30.5652 36.2901Z" fill="#FF5CB7"/>
<path d="M18.2318 50.7682V59.3479L9.11591 64.7102V55.5943L18.2318 50.7682Z" fill="#F7349B"/>
<path d="M9.11594 55.5943V64.7102L0 59.3479V50.7682L9.11594 55.5943Z" fill="#EB2185"/>
<path d="M18.2319 50.7682L9.11594 55.5943L0 50.7682L9.11594 45.4059L18.2319 50.7682Z" fill="#FF47AE"/>
<path d="M12.3334 50.768C10.7247 51.8405 7.50727 51.8405 5.89857 50.768C4.82611 50.2318 4.82611 49.6955 4.82611 49.1593V50.768C4.82611 51.3042 5.36234 52.3767 5.89857 52.3767C7.50727 53.4492 10.7247 53.4492 12.3334 52.3767C12.8696 51.8405 13.4058 51.3042 13.4058 50.768V49.1593C13.9421 49.6955 13.4058 50.2318 12.3334 50.768Z" fill="#EB2185"/>
<path d="M12.3333 47.0147C13.942 48.0871 13.942 49.6958 12.3333 50.7683C10.7246 51.8407 7.50723 51.8407 5.89854 50.7683C4.28984 49.6958 4.28984 48.0871 5.89854 47.0147C7.50723 45.9422 10.7246 45.9422 12.3333 47.0147Z" fill="#FF5CB7"/>
<path d="M27.3478 36.8263V45.406L18.2318 50.7683V41.6524L27.3478 36.8263Z" fill="#F7349B"/>
<path d="M18.2318 41.6524V50.7683L9.11591 45.406V36.8263L18.2318 41.6524Z" fill="#EB2185"/>
<path d="M27.3478 36.8263L18.2318 41.6524L9.11591 36.8263L18.2318 31.464L27.3478 36.8263Z" fill="#FF47AE"/>
<path d="M21.4493 36.8261C19.8406 37.8986 16.6232 37.8986 15.0145 36.8261C13.942 36.2899 13.942 35.7536 13.942 35.2174V36.8261C13.942 37.3624 14.4782 38.4348 15.0145 38.4348C16.6232 39.5073 19.8406 39.5073 21.4493 38.4348C21.9855 37.8986 22.5217 37.3624 22.5217 36.8261V35.2174C23.058 35.7536 22.5217 36.2899 21.4493 36.8261Z" fill="#EB2185"/>
<path d="M21.4492 33.0728C23.0579 34.1452 23.0579 35.754 21.4492 36.8264C19.8405 37.8989 16.6231 37.8989 15.0144 36.8264C13.4057 35.754 13.4057 34.1452 15.0144 33.0728C16.6231 32.0003 19.8405 32.0003 21.4492 33.0728Z" fill="#FF5CB7"/>
<path d="M18.2318 41.6526V50.7685L9.11591 55.5946V47.0149L18.2318 41.6526Z" fill="#F7349B"/>
<path d="M9.11594 47.0149V55.5946L0 50.7685V41.6526L9.11594 47.0149Z" fill="#EB2185"/>
<path d="M18.2319 41.6524L9.11594 47.0147L0 41.6524L9.11594 36.8263L18.2319 41.6524Z" fill="#FF47AE"/>
<path d="M12.3334 42.1884C10.7247 43.2609 7.50727 43.2609 5.89857 42.1884C4.82611 41.6522 4.82611 41.1159 4.82611 40.5797V42.1884C4.82611 42.7247 5.36234 43.7971 5.89857 43.7971C7.50727 44.8696 10.7247 44.8696 12.3334 43.7971C12.8696 43.2609 13.4058 42.7247 13.4058 42.1884V40.5797C13.9421 41.1159 13.4058 41.6522 12.3334 42.1884Z" fill="#EB2185"/>
<path d="M12.3333 38.4351C13.942 39.5075 13.942 41.1163 12.3333 42.1887C10.7246 43.2612 7.50723 43.2612 5.89854 42.1887C4.28984 41.1163 4.28984 39.5075 5.89854 38.4351C8.04347 37.3626 10.7246 37.3626 12.3333 38.4351Z" fill="#FF5CB7"/>
<path d="M36.4637 22.8838V31.4635L27.3478 36.8258V28.2461L36.4637 22.8838Z" fill="#F7349B"/>
<path d="M27.3478 28.2461V36.8258L18.2319 31.4635V22.8838L27.3478 28.2461Z" fill="#EB2185"/>
<path d="M36.4638 22.8838L27.3478 28.2461L18.2319 22.8838L27.3478 17.5215L36.4638 22.8838Z" fill="#FF47AE"/>
<path d="M30.5652 22.8835C28.9565 23.956 25.7391 23.956 24.1304 22.8835C23.058 22.3473 23.058 21.811 23.058 21.2748V22.8835C23.058 23.4197 23.5942 24.4922 24.1304 24.4922C25.7391 25.5646 28.9565 25.5646 30.5652 24.4922C31.1015 23.9559 31.6377 23.4197 31.6377 22.8835V21.2748C32.1739 21.811 31.6377 22.3473 30.5652 22.8835Z" fill="#EB2185"/>
<path d="M30.5652 19.1303C32.1739 20.2027 32.1739 21.8115 30.5652 22.8839C28.9565 23.9564 25.7391 23.9564 24.1304 22.8839C22.5217 21.8115 22.5217 20.2027 24.1304 19.1303C26.2753 18.0578 28.9565 18.0578 30.5652 19.1303Z" fill="#FF5CB7"/>
<path d="M18.2318 33.0723V41.652L9.11591 47.0143V38.4346L18.2318 33.0723Z" fill="#F7349B"/>
<path d="M9.11594 38.4346V47.0143L0 41.652V33.0723L9.11594 38.4346Z" fill="#EB2185"/>
<path d="M18.2319 33.0723L9.11594 38.4346L0 33.0723L9.11594 27.71L18.2319 33.0723Z" fill="#FF47AE"/>
<path d="M12.3334 33.6088C10.7247 34.6813 7.50727 34.6813 5.89857 33.6088C4.82611 33.0726 4.82611 32.5364 4.82611 32.0001V33.6088C4.82611 34.1451 5.36234 35.2175 5.89857 35.2175C7.50727 36.29 10.7247 36.29 12.3334 35.2175C12.8696 34.6813 13.4058 34.1451 13.4058 33.6088V32.0001C13.9421 32.5364 13.4058 33.0726 12.3334 33.6088Z" fill="#EB2185"/>
<path d="M12.3333 29.8549C13.942 30.9273 13.942 32.5361 12.3333 33.6085C10.7246 34.681 7.50723 34.681 5.89854 33.6085C4.28984 32.5361 4.28984 30.9273 5.89854 29.8549C8.04347 28.7824 10.7246 28.7824 12.3333 29.8549Z" fill="#FF5CB7"/>
<path d="M36.4637 14.3042V22.8839L27.3478 28.2463V19.1303L36.4637 14.3042Z" fill="#F7349B"/>
<path d="M27.3478 19.1303V28.2463L18.2319 22.8839V14.3042L27.3478 19.1303Z" fill="#EB2185"/>
<path d="M36.4638 14.3042L27.3478 19.1303L18.2319 14.3042L27.3478 8.94189L36.4638 14.3042Z" fill="#FF47AE"/>
<path d="M30.5652 14.3039C28.9565 15.3763 25.7391 15.3763 24.1304 14.3039C23.058 13.7676 23.058 13.2314 23.058 12.6952V14.3039C23.058 14.8401 23.5942 15.9126 24.1304 15.9126C25.7391 16.985 28.9565 16.985 30.5652 15.9126C31.1015 15.3763 31.6377 14.8401 31.6377 14.3039V12.6952C32.1739 13.2314 31.6377 13.7676 30.5652 14.3039Z" fill="#EB2185"/>
<path d="M30.5652 10.5507C32.1739 11.6231 32.1739 13.2318 30.5652 14.3043C28.9565 15.3768 25.7391 15.3768 24.1304 14.3043C22.5217 13.2318 22.5217 11.6231 24.1304 10.5507C26.2753 9.47822 28.9565 9.47822 30.5652 10.5507Z" fill="#FF5CB7"/>
<path d="M18.2318 24.4927V33.0724L9.11591 38.4347V29.855L18.2318 24.4927Z" fill="#F7349B"/>
<path d="M9.11594 29.855V38.4347L0 33.0724V24.4927L9.11594 29.855Z" fill="#EB2185"/>
<path d="M18.2319 24.4927L9.11594 29.855L0 24.4927L9.11594 19.1304L18.2319 24.4927Z" fill="#FF47AE"/>
<path d="M12.3334 25.0292C10.7247 26.1017 7.50727 26.1017 5.89857 25.0292C4.82611 24.493 4.82611 23.9568 4.82611 23.4205V25.0292C4.82611 25.5654 5.36234 26.6379 5.89857 26.6379C7.50727 27.7104 10.7247 27.7104 12.3334 26.6379C12.8696 26.1017 13.4058 25.5654 13.4058 25.0292V23.4205C13.9421 23.4205 13.4058 24.493 12.3334 25.0292Z" fill="#EB2185"/>
<path d="M12.3333 21.2753C13.942 22.3478 13.942 23.9564 12.3333 25.0289C10.7246 26.1014 7.50723 26.1014 5.89854 25.0289C4.28984 23.9564 4.28984 22.3478 5.89854 21.2753C8.04347 20.2028 10.7246 20.2028 12.3333 21.2753Z" fill="#FF5CB7"/>
<path d="M36.4637 5.18848V14.3044L27.3478 19.1305V10.5508L36.4637 5.18848Z" fill="#F7349B"/>
<path d="M27.3478 10.5508V19.1305L18.2319 14.3044V5.18848L27.3478 10.5508Z" fill="#EB2185"/>
<path d="M36.4638 5.1884L27.3478 10.5507L18.2319 5.1884L27.3478 0.362305L36.4638 5.1884Z" fill="#FF47AE"/>
<path d="M30.5652 5.72427C28.9565 6.79674 25.7391 6.79674 24.1304 5.72427C23.058 5.18804 23.058 4.65183 23.058 4.1156V5.72427C23.058 6.2605 23.5942 7.33298 24.1304 7.33298C25.7391 8.40545 28.9565 8.40545 30.5652 7.33298C31.1015 6.79675 31.6377 6.2605 31.6377 5.72427V4.1156C32.1739 4.65183 31.6377 5.18804 30.5652 5.72427Z" fill="#EB2185"/>
<path d="M30.5652 1.9711C32.1739 3.04356 32.1739 4.65224 30.5652 5.7247C28.9565 6.79717 25.7391 6.79717 24.1304 5.7247C22.5217 4.65224 22.5217 3.04356 24.1304 1.9711C26.2753 0.898632 28.9565 0.898632 30.5652 1.9711Z" fill="#FF5CB7"/>
<path d="M27.3478 10.5508V19.1305L18.2318 24.4928V15.9131L27.3478 10.5508Z" fill="#F7349B"/>
<path d="M18.2318 15.9131V24.4928L9.11591 19.1305V10.5508L18.2318 15.9131Z" fill="#EB2185"/>
<path d="M27.3478 10.5508L18.2318 15.9131L9.11591 10.5508L18.2318 5.18848L27.3478 10.5508Z" fill="#FF47AE"/>
<path d="M21.4493 11.0873C19.8406 12.1598 16.6232 12.1598 15.0145 11.0873C13.942 10.5511 13.942 10.0149 13.942 9.47864V11.0873C13.942 11.6235 14.4782 12.696 15.0145 12.696C16.6232 13.7685 19.8406 13.7685 21.4493 12.696C21.9855 12.1598 22.5217 11.6235 22.5217 11.0873V9.47864C23.058 9.47864 22.5217 10.5511 21.4493 11.0873Z" fill="#EB2185"/>
<path d="M21.4492 7.3334C23.0579 8.40586 23.0579 10.0145 21.4492 11.087C19.8405 12.1595 16.6231 12.1595 15.0144 11.087C13.4057 10.0145 13.4057 8.40586 15.0144 7.3334C17.1594 6.26094 19.8405 6.26094 21.4492 7.3334Z" fill="#FF5CB7"/>
<path d="M18.2318 15.9131V24.4928L9.11591 29.8551V21.2754L18.2318 15.9131Z" fill="#F7349B"/>
<path d="M9.11594 21.2754V29.8551L0 24.4928V15.9131L9.11594 21.2754Z" fill="#EB2185"/>
<path d="M18.2319 15.9131L9.11594 21.2754L0 15.9131L9.11594 10.5508L18.2319 15.9131Z" fill="#FF47AE"/>
<path d="M12.3334 15.9129C10.7247 16.9854 7.50727 16.9854 5.89857 15.9129C4.82611 15.3767 4.82611 14.8404 4.82611 14.3042V15.9129C4.82611 16.4491 5.36234 17.5216 5.89857 17.5216C7.50727 18.5941 10.7247 18.5941 12.3334 17.5216C12.8696 16.9854 13.4058 16.4491 13.4058 15.9129V14.3042C13.9421 14.8404 13.4058 15.9129 12.3334 15.9129Z" fill="#EB2185"/>
<path d="M12.3333 12.6957C13.942 13.7682 13.942 15.3768 12.3333 16.4493C10.7246 17.5218 7.50723 17.5218 5.89854 16.4493C4.28984 15.3768 4.28984 13.7682 5.89854 12.6957C8.04347 11.6232 10.7246 11.6232 12.3333 12.6957Z" fill="#FF5CB7"/>
</svg>
