<svg width="37" height="77" viewBox="0 0 37 77" fill="none" xmlns="http://www.w3.org/2000/svg">
<path d="M26.8115 62.2028V70.7825L17.6956 76.1448V67.5651L26.8115 62.2028Z" fill="#FB7400"/>
<path d="M17.6956 67.5651V76.1448L8.57971 70.7825V62.2028L17.6956 67.5651Z" fill="#F45C00"/>
<path d="M26.8116 62.2028L17.6956 67.5651L8.57971 62.2028L17.6956 56.8405L26.8116 62.2028Z" fill="#FF8F00"/>
<path d="M20.9131 62.7393C19.3044 63.8118 16.0869 63.8118 14.4782 62.7393C13.4057 62.2031 13.4058 61.6668 13.4058 61.1306V62.7393C13.4058 63.2755 13.942 64.348 14.4782 64.348C16.0869 65.4205 19.3044 65.4205 20.9131 64.348C21.4493 63.8118 21.9855 63.2755 21.9855 62.7393V61.1306C22.5217 61.6668 21.9855 62.2031 20.9131 62.7393Z" fill="#F45C00"/>
<path d="M20.913 58.9854C22.5217 60.0578 22.5217 61.6665 20.913 62.739C19.3043 63.8114 16.0869 63.8114 14.4782 62.739C12.8695 61.6665 12.8695 60.0578 14.4782 58.9854C16.6231 57.9129 19.3043 57.9129 20.913 58.9854Z" fill="#FFA200"/>
<path d="M26.8115 53.6232V62.2029L17.6956 67.5652V58.9855L26.8115 53.6232Z" fill="#FB7400"/>
<path d="M17.6956 58.9855V67.5652L8.57971 62.2029V53.6232L17.6956 58.9855Z" fill="#F45C00"/>
<path d="M26.8116 53.6232L17.6956 58.9855L8.57971 53.6232L17.6956 48.2609L26.8116 53.6232Z" fill="#FF8F00"/>
<path d="M20.9131 54.1597C19.3044 55.2322 16.0869 55.2322 14.4782 54.1597C13.4057 53.6235 13.4058 53.0873 13.4058 52.551V54.1597C13.4058 54.6959 13.942 55.7684 14.4782 55.7684C16.0869 56.8409 19.3044 56.8409 20.9131 55.7684C21.4493 55.2322 21.9855 54.6959 21.9855 54.1597V52.551C22.5217 52.551 21.9855 53.6235 20.9131 54.1597Z" fill="#F45C00"/>
<path d="M20.913 50.4058C22.5217 51.4783 22.5217 53.087 20.913 54.1594C19.3043 55.2319 16.0869 55.2319 14.4782 54.1594C12.8695 53.087 12.8695 51.4783 14.4782 50.4058C16.6231 49.3333 19.3043 49.3333 20.913 50.4058Z" fill="#FFA200"/>
<path d="M27.3478 45.0436L26.8115 53.6233L17.6956 58.9856L18.2319 50.4059L27.3478 45.0436Z" fill="#FB7400"/>
<path d="M18.2319 50.4059L17.6956 58.9856L8.57971 53.6233V45.0436L18.2319 50.4059Z" fill="#F45C00"/>
<path d="M27.3478 45.0436L18.2319 50.4059L8.57971 45.0436L17.6956 39.6813L27.3478 45.0436Z" fill="#FF8F00"/>
<path d="M20.9131 45.0434C19.3044 46.1158 16.0869 46.1158 14.4782 45.0434C13.4057 44.5072 13.4058 43.9709 13.4058 43.4347V45.0434C13.4058 45.5796 13.942 46.6521 14.4782 46.6521C16.0869 47.7245 19.3044 47.7245 20.9131 46.6521C21.4493 46.1158 21.9855 45.5796 21.9855 45.0434V43.4347C22.5217 43.9709 21.9855 45.0434 20.9131 45.0434Z" fill="#F45C00"/>
<path d="M20.913 41.8262C22.5217 42.8987 22.5217 44.5074 20.913 45.5798C19.3043 46.6523 16.0869 46.6523 14.4782 45.5798C12.8695 44.5074 12.8695 42.8987 14.4782 41.8262C16.6231 40.7537 19.3043 40.7537 20.913 41.8262Z" fill="#FFA200"/>
<path d="M27.3478 36.464V45.0437L18.2319 50.406V41.8263L27.3478 36.464Z" fill="#FB7400"/>
<path d="M18.2319 41.8263V50.406L8.57971 45.0437V36.464L18.2319 41.8263Z" fill="#F45C00"/>
<path d="M27.3478 36.464L18.2319 41.8263L8.57971 36.464L17.6956 31.1017L27.3478 36.464Z" fill="#FF8F00"/>
<path d="M21.4492 36.4638C19.8405 37.5363 16.6232 37.5363 15.0145 36.4638C13.942 35.9276 13.942 35.3913 13.942 34.8551V36.4638C13.942 37 14.4782 38.0725 15.0145 38.0725C16.6232 39.1449 19.8405 39.1449 21.4492 38.0725C21.9855 37.5363 22.5217 37 22.5217 36.4638V34.8551C22.5217 35.3913 21.9855 35.9276 21.4492 36.4638Z" fill="#F45C00"/>
<path d="M20.913 32.7103C22.5217 33.7827 22.5217 35.3914 20.913 36.4639C19.3043 37.5364 16.0869 37.5364 14.4782 36.4639C12.8695 35.3914 12.8695 33.7827 14.4782 32.7103C16.6231 32.174 19.3043 32.174 20.913 32.7103Z" fill="#FFA200"/>
<path d="M27.3478 27.8838V36.4635L18.2319 41.8258V33.2461L27.3478 27.8838Z" fill="#FB7400"/>
<path d="M18.2319 33.2461V41.8258L8.57971 36.4635L9.11594 27.8838L18.2319 33.2461Z" fill="#F45C00"/>
<path d="M27.3478 27.8838L18.2319 33.2461L9.11591 27.8838L18.2319 22.5215L27.3478 27.8838Z" fill="#FF8F00"/>
<path d="M21.4492 27.8835C19.8405 28.9559 16.6232 28.9559 15.0145 27.8835C13.942 27.3472 13.942 26.811 13.942 26.2748V27.8835C13.942 28.4197 14.4782 29.4922 15.0145 29.4922C16.6232 30.5646 19.8405 30.5646 21.4492 29.4922C21.9855 28.956 22.5217 28.4197 22.5217 27.8835V26.2748C22.5217 26.811 21.9855 27.3472 21.4492 27.8835Z" fill="#F45C00"/>
<path d="M21.4492 24.1303C23.0579 25.2027 23.0579 26.8114 21.4492 27.8839C19.8405 28.9563 16.6231 28.9563 15.0144 27.8839C13.4057 26.8114 13.4057 25.2027 15.0144 24.1303C16.6231 23.0578 19.3043 23.0578 21.4492 24.1303Z" fill="#FFA200"/>
<path d="M27.3479 19.3042V27.8839L18.2319 33.2462V24.6665L27.3479 19.3042Z" fill="#FB7400"/>
<path d="M18.2319 24.6665V33.2462L9.11597 27.8839V19.3042L18.2319 24.6665Z" fill="#F45C00"/>
<path d="M27.3479 19.3042L18.2319 24.6665L9.11597 19.3042L18.2319 13.9419L27.3479 19.3042Z" fill="#FF8F00"/>
<path d="M21.4493 19.304C19.8406 20.3765 16.6232 20.3765 15.0145 19.304C13.9421 18.7678 13.9421 18.2315 13.9421 17.6953V19.304C13.9421 19.8402 14.4783 20.9127 15.0145 20.9127C16.6232 21.9852 19.8406 21.9852 21.4493 20.9127C21.9855 20.3765 22.5217 19.8402 22.5217 19.304V17.6953C22.5217 18.2315 21.9855 18.7678 21.4493 19.304Z" fill="#F45C00"/>
<path d="M21.4493 15.5507C23.058 16.6231 23.058 18.2318 21.4493 19.3043C19.8406 20.3768 16.6232 20.3768 15.0145 19.3043C13.4058 18.2318 13.4058 16.6231 15.0145 15.5507C16.6232 14.4782 19.3043 14.4782 21.4493 15.5507Z" fill="#FFA200"/>
<path d="M36.4638 5.3623V13.942L27.3478 19.3043V10.7246L36.4638 5.3623Z" fill="#FB7400"/>
<path d="M27.3479 10.7246V19.3043L18.2319 13.942V5.3623L27.3479 10.7246Z" fill="#F45C00"/>
<path d="M36.4638 5.36232L27.3479 10.7246L18.2319 5.36232L27.3479 0L36.4638 5.36232Z" fill="#FF8F00"/>
<path d="M30.5652 5.36213C28.9565 6.43459 25.7391 6.43459 24.1304 5.36213C23.058 4.8259 23.058 4.28965 23.058 3.75342V5.36213C23.058 5.89836 23.5942 6.97082 24.1304 6.97082C25.7391 8.04329 28.9565 8.04329 30.5652 6.97082C31.1014 6.43459 31.6377 5.89836 31.6377 5.36213V3.75342C31.6377 4.28965 31.1014 4.8259 30.5652 5.36213Z" fill="#F45C00"/>
<path d="M30.5652 1.60879C32.1739 2.68125 32.1739 4.28995 30.5652 5.36242C28.9565 6.43488 25.7391 6.43488 24.1304 5.36242C22.5217 4.28995 22.5217 2.68125 24.1304 1.60879C25.7391 0.536327 28.4202 0.536327 30.5652 1.60879Z" fill="#FFA200"/>
<path d="M27.3479 10.7246V19.3043L18.2319 24.6666V15.5507L27.3479 10.7246Z" fill="#FB7400"/>
<path d="M18.2319 15.5507V24.6666L9.11597 19.3043V10.7246L18.2319 15.5507Z" fill="#F45C00"/>
<path d="M27.3479 10.7246L18.2319 15.5507L9.11597 10.7246L18.2319 5.3623L27.3479 10.7246Z" fill="#FF8F00"/>
<path d="M21.4493 10.7244C19.8406 11.7969 16.6232 11.7969 15.0145 10.7244C13.9421 10.1882 13.9421 9.65195 13.9421 9.11572V10.7244C13.9421 11.2607 14.4783 12.3331 15.0145 12.3331C16.6232 13.4056 19.8406 13.4056 21.4493 12.3331C21.9855 11.7969 22.5217 11.2607 22.5217 10.7244V9.11572C22.5217 9.65195 21.9855 10.1882 21.4493 10.7244Z" fill="#F45C00"/>
<path d="M21.4493 6.9711C23.058 8.04356 23.058 9.65226 21.4493 10.7247C19.8406 11.7972 16.6232 11.7972 15.0145 10.7247C13.4058 9.65226 13.4058 8.04356 15.0145 6.9711C16.6232 5.89863 19.3043 5.89863 21.4493 6.9711Z" fill="#FFA200"/>
<path d="M18.2319 15.5509V24.6668L9.11597 29.4929V20.9132L18.2319 15.5509Z" fill="#FB7400"/>
<path d="M9.11597 20.9132V29.4929L0 24.6668V15.5509L9.11597 20.9132Z" fill="#F45C00"/>
<path d="M18.2319 15.5507L9.11597 20.913L0 15.5507L9.11597 10.7246L18.2319 15.5507Z" fill="#FF8F00"/>
<path d="M12.3334 16.0867C10.7247 17.1592 7.50729 17.1592 5.8986 16.0867C4.82614 15.5505 4.82611 15.0143 4.82611 14.478V16.0867C4.82611 16.623 5.36237 17.6954 5.8986 17.6954C7.50729 18.7679 10.7247 18.7679 12.3334 17.6954C12.8696 17.1592 13.4058 16.623 13.4058 16.0867V14.478C13.4058 15.0143 12.8696 15.5505 12.3334 16.0867Z" fill="#F45C00"/>
<path d="M12.3334 12.3335C13.9421 13.406 13.9421 15.0147 12.3334 16.0871C10.7247 17.1596 7.50729 17.1596 5.8986 16.0871C4.2899 15.0147 4.2899 13.406 5.8986 12.3335C7.50729 11.2611 10.1884 11.2611 12.3334 12.3335Z" fill="#FFA200"/>
</svg>
